<?xml version="1.0" standalone="no"?>
<!DOCTYPE svg PUBLIC "-//W3C//DTD SVG 1.1//EN" "http://www.w3.org/Graphics/SVG/1.1/DTD/svg11.dtd" >
<svg xmlns="http://www.w3.org/2000/svg">
<metadata>
Created by FontPrep 20130207 at Wed Nov 30 21:54:01 2016
 By Callum Flack
Copyright (c) 2011 JM Sole (info@jmsole.cl), with Reserved Font Name "Noticia Text".
</metadata>
<defs>
<font id="b97d48555d1facf14c4239be8f7b0b6e" horiz-adv-x='1024' >
  <font-face 
    font-family="NoticiaText-BoldItalic"
    font-weight="700"
    font-style="italic"
    font-stretch="normal"
    units-per-em="2048"
    panose-1="2 0 8 3 7 0 0 9 0 4"
    ascent="1638"
    descent="-410"
    x-height="1085"
    cap-height="1353"
    bbox="-1043 -593 2719 2183.02"
    underline-thickness="51"
    underline-position="-52"
    slope="-8"
    unicode-range="U+0020-FB02"
  />
<missing-glyph horiz-adv-x="1501" 
d="M750 766l260 605h-519zM750 338l-259 -604h519zM658 552l-342 799v-1597zM842 552l343 -798v1597zM130 1540h1241v-1975h-1241v1975z" />
    <glyph glyph-name=".notdef" horiz-adv-x="1501" 
d="M750 766l260 605h-519zM750 338l-259 -604h519zM658 552l-342 799v-1597zM842 552l343 -798v1597zM130 1540h1241v-1975h-1241v1975z" />
    <glyph glyph-name=".null" horiz-adv-x="0" 
 />
    <glyph glyph-name="nonmarkingreturn" horiz-adv-x="0" 
 />
    <glyph glyph-name="space" unicode=" " horiz-adv-x="550" 
 />
    <glyph glyph-name="exclam" unicode="!" horiz-adv-x="644" 
d="M297 1540l310 22l17 -22l-231 -1130h-181zM143.5 243.5q35.5 61.5 82.5 61.5q88 0 148 -36t60 -82q0 -86 -35.5 -147.5t-82.5 -61.5t-84 9.5t-80.5 35.5t-43.5 93q0 66 35.5 127.5z" />
    <glyph glyph-name="quotedbl" unicode="&#x22;" horiz-adv-x="721" 
d="M475 1540h216l-6 -42l-124 -361h-143zM207 1540h216l-6 -42l-124 -361h-143z" />
    <glyph glyph-name="numbersign" unicode="#" horiz-adv-x="1308" 
d="M450 463h286l120 426h-286zM686 286h-286l-81 -286h-195l3 20l75 266h-196l24 177h222l120 426h-216l25 177h241l82 287h195l-3 -20l-76 -267h286l82 287h195l-3 -20l-76 -267h188l-25 -177h-213l-120 -426h207l-24 -177h-233l-81 -286h-195l3 20z" />
    <glyph glyph-name="dollar" unicode="$" horiz-adv-x="1105" 
d="M570 1249q-66 -9 -104 -21q-34 -60 -45 -138t54 -143q20 -20 46 -42zM639 125q45 71 57 152q12 82 -38 147q-18 23 -52 53l-52 -371q49 8 85 19zM732 1374q211 -5 345 -51l-17 -290h-158l-45 201q-67 16 -142 20l-62 -442l20 -12q231 -144 291 -240t42 -219
q-25 -170 -184 -267q-119 -72 -285 -89l-29 -211h-145l28 204q-248 4 -397 63l16 279h170l45 -199q71 -22 183 -24l67 479q-17 12 -35 24q-209 132 -276.5 219t-47.5 227t176 235q121 73 295 89l27 192h145z" />
    <glyph glyph-name="percent" unicode="%" horiz-adv-x="1626" 
d="M1180 141q86 0 114 55.5t36.5 115.5t-22 97.5t-87.5 37.5q-126 0 -146 -153q-22 -153 105 -153zM1456 517q80 -93 62 -223t-125 -223t-237 -93t-209 92t-61 223t123 224t236 93t211 -93zM438 1212q-125 0 -146 -153t105 -153q87 0 114 55.5t35.5 116t-21.5 97.5t-87 37z
M462 1375q130 0 210 -92.5t62 -223.5t-124.5 -223.5t-236.5 -92.5t-209.5 92.5t-61.5 222.5q18 131 123.5 224t236.5 93zM1281 1353h215l-3 -20l-1154 -1333h-215l3 20z" />
    <glyph glyph-name="ampersand" unicode="&#x26;" horiz-adv-x="1489" 
d="M587 1231q-54 -86 -54 -211.5t49 -208.5q118 69 173.5 125.5t68.5 144.5q14 87 -24 131t-92 44q-71 0 -121 -25zM776 174q-171 144 -343 387q-142 -75 -162 -210q-20 -111 47.5 -182.5t200.5 -71.5t257 77zM765 1375q200 0 290 -71t74 -191l-3 -22q-15 -114 -118 -205
t-331 -207q181 -247 261 -338q52 89 67 195l5 37l-134 33l28 88l406 22l-26 -187q-28 -190 -197 -336q115 -96 210 -96q84 0 176 34l-16 -86q-99 -67 -243 -67t-305 99q-202 -99 -456 -99q-253 0 -384.5 80.5t-105.5 249.5q32 210 375 393q-128 191 -106 329
q39 232 232 288.5t301 56.5z" />
    <glyph glyph-name="quotesingle" unicode="'" horiz-adv-x="433" 
d="M127 1540h216l-6 -42l-124 -361h-143z" />
    <glyph glyph-name="parenleft" unicode="(" horiz-adv-x="734" 
d="M373 215.5q35 -429.5 170 -671.5l-121 -60q-238 234 -319.5 645t114 819t502.5 653l105 -60q-140 -167 -313 -531.5t-138 -794z" />
    <glyph glyph-name="parenright" unicode=")" horiz-adv-x="756" 
d="M298 1274q-43 152 -108 267l121 60q166 -168 268.5 -441.5t53.5 -616.5q-62 -420 -344 -776q-126 -161 -274 -283l-105 60q268 320 391.5 799t-3.5 931z" />
    <glyph glyph-name="asterisk" unicode="*" horiz-adv-x="771" 
d="M508 1078l11 -249l-8 -57h-213l8 57l81 248l-217 -164l-52 -28l-78 183l45 26l255 87l-227 86l-41 29l129 183l44 -28l171 -165l-11 249l8 57h213l-8 -57l-81 -248l217 164l52 28l79 -183l-52 -29l-249 -85l227 -85l42 -29l-130 -183l-44 28z" />
    <glyph glyph-name="plus" unicode="+" horiz-adv-x="1073" 
d="M645 1005v-308h288v-207h-288v-308h-207v308h-288v207h288v308h207z" />
    <glyph glyph-name="comma" unicode="," horiz-adv-x="627" 
d="M249 -73q-1 41 -63 57t-98.5 46t-36.5 70q0 80 36 142.5t86 62.5q175 0 204.5 -89.5t29.5 -157.5q0 -145 -59 -253t-238 -241l-82 96q221 151 221 267z" />
    <glyph glyph-name="hyphen" unicode="-" horiz-adv-x="1023" 
d="M150 697h733v-207h-733v207z" />
    <glyph glyph-name="period" unicode="." horiz-adv-x="564" 
d="M63.5 243.5q35.5 61.5 82.5 61.5q91 0 149.5 -36.5t58.5 -81.5q0 -86 -35.5 -147.5t-82.5 -61.5t-84 9.5t-80.5 35.5t-43.5 93q0 66 35.5 127.5z" />
    <glyph glyph-name="slash" unicode="/" horiz-adv-x="806" 
d="M704 1540h215l-2 -20l-823 -1815h-214l2 20z" />
    <glyph glyph-name="zero" unicode="0" horiz-adv-x="1276" 
d="M710 1256q-117 0 -187.5 -125t-110.5 -419l-19 -140q-65 -475 162 -475q120 0 193.5 122t114.5 423l19 140q53 391 -32.5 432.5t-139.5 41.5zM520 -22q-258 0 -369 127t-70 412l15 105q53 372 223.5 562.5t432.5 190.5t372.5 -126.5t69.5 -413.5l-15 -104
q-85 -577 -308 -665t-351 -88z" />
    <glyph glyph-name="one" unicode="1" horiz-adv-x="814" 
d="M141 1186v99l318 68h231l-174 -1228l132 -20l-20 -105h-537l-5 105l130 20l150 1061h-225z" />
    <glyph glyph-name="two" unicode="2" horiz-adv-x="1084" 
d="M619 1375q336 0 382.5 -113.5t32.5 -203.5t-77 -193t-162 -208.5t-227 -216t-273 -230.5l3 -10h417l109 213l141 -13l-71 -400h-910v135q375 344 581.5 589.5t174.5 388.5t-170 143q-88 0 -195 -42l-87 -225h-147l36 281q217 105 442 105z" />
    <glyph glyph-name="three" unicode="3" horiz-adv-x="1042" 
d="M380 -22q-219 0 -386 94l37 278h146l25 -211q80 -42 183 -42q148 0 192 98.5t55 172.5q21 142 -35.5 218t-159.5 76h-109l16 119h113q182 0 220 255q15 109 -26.5 164.5t-121.5 55.5t-147 -25l-83 -218h-143l37 288q192 74 398 74q205 0 307.5 -83.5t78.5 -248.5
t-125.5 -229t-140.5 -81q259 -71 220 -357q-25 -186 -178.5 -292t-372.5 -106z" />
    <glyph glyph-name="four" unicode="4" horiz-adv-x="1102" 
d="M955 0h-577l-5 105l169 20l29 217h-568l-9 76l710 935h264l-672 -882l4 -10h291l47 335h300l-48 -335h108l6 -105l-131 -20l-30 -211l132 -20z" />
    <glyph glyph-name="five" unicode="5" horiz-adv-x="1132" 
d="M536 807q243 0 373 -95.5t100 -301.5t-193 -319t-389 -113q-227 0 -396 88l36 277h156l34 -216q77 -30 148 -30q127 0 204.5 74t96.5 215t-41 217.5t-176 76.5t-226 -49l-120 101l123 621h793l-19 -200h-644l-75 -379q99 33 215 33z" />
    <glyph glyph-name="six" unicode="6" horiz-adv-x="1165" 
d="M394 590l-9 -69q-43 -318 32.5 -371t121.5 -53q99 0 150 70t65 174t6 157.5t-42.5 104t-130.5 50.5q-97 0 -193 -63zM897 1375q122 0 210 -22l-10 -106q-27 2 -74 5.5t-119 3.5q-71 0 -155 -38.5t-192.5 -153.5t-147.5 -370l9 -4q41 32 115 57t169 25q192 0 287.5 -99
t70.5 -282t-168 -298t-394 -115t-352.5 141.5t-67.5 388.5l9 64q53 370 230.5 532t317.5 216.5t262 54.5z" />
    <glyph glyph-name="seven" unicode="7" horiz-adv-x="1040" 
d="M1124 1353v-93l-686 -1260h-279l695 1143l-4 10h-528l-82 -225h-134l60 425h958z" />
    <glyph glyph-name="eight" unicode="8" horiz-adv-x="1124" 
d="M644 1256q-68 0 -110 -53.5t-56 -143.5t23.5 -150t137.5 -98q96 90 117 238q29 207 -112 207zM493 97q127 0 165 79t44 126q13 94 -48.5 166.5t-188.5 132.5q-116 -97 -135 -240t23.5 -203.5t139.5 -60.5zM984 1303.5q98 -71.5 78 -210.5q-31 -207 -323 -324
q306 -149 269 -421q-23 -162 -172 -266t-392 -104q-341 0 -387 122t-36 194q18 127 114.5 216.5t235.5 138.5q-229 138 -197 366q21 154 155 257t345 103q212 0 310 -71.5z" />
    <glyph glyph-name="nine" unicode="9" horiz-adv-x="1140" 
d="M731 631q-133 -73 -295 -73t-249 105t-64 274q43 316 231.5 377t311.5 61q249 0 345.5 -133t59.5 -398l-11 -78q-56 -393 -283 -590.5t-552 -197.5q-107 0 -189 23l9 106q80 -10 174 -10t184.5 39t198 147t139.5 344zM633 1256q-134 0 -190 -197.5t-2.5 -289.5t131.5 -92
q92 0 183 54l9 67q61 458 -131 458z" />
    <glyph glyph-name="colon" unicode=":" horiz-adv-x="620" 
d="M179.5 954.5q35.5 61.5 82.5 61.5q91 0 149.5 -36.5t58.5 -81.5q0 -86 -35.5 -147.5t-82.5 -61.5t-84 9.5t-80.5 35.5t-43.5 93q0 66 35.5 127.5zM79.5 243.5q35.5 61.5 82.5 61.5q91 0 149.5 -36.5t58.5 -81.5q0 -86 -35.5 -147.5t-82.5 -61.5t-84 9.5t-80.5 35.5
t-43.5 93q0 66 35.5 127.5z" />
    <glyph glyph-name="semicolon" unicode=";" horiz-adv-x="639" 
d="M265 -73q0 24 -18.5 36.5t-62.5 24.5t-80.5 42t-36.5 70q0 80 36 142.5t86 62.5q175 0 204.5 -89.5t29.5 -157.5q0 -145 -59 -253t-238 -241l-82 96q221 151 221 267zM202.5 954.5q35.5 61.5 82.5 61.5q91 0 149.5 -36.5t58.5 -81.5q0 -86 -35.5 -147.5t-82.5 -61.5
t-84 9.5t-80.5 35.5t-43.5 93q0 66 35.5 127.5z" />
    <glyph glyph-name="less" unicode="&#x3c;" horiz-adv-x="1148" 
d="M998 1075v-189l-632 -278v-10l632 -277v-190h-30l-838 374v196l838 374h30z" />
    <glyph glyph-name="equal" unicode="=" horiz-adv-x="1132" 
d="M150 957h842v-217h-842v217zM150 494h842v-217h-842v217z" />
    <glyph glyph-name="greater" unicode="&#x3e;" horiz-adv-x="1148" 
d="M150 131v190l632 277v10l-632 278v189h30l838 -374v-196l-838 -374h-30z" />
    <glyph glyph-name="question" unicode="?" horiz-adv-x="1101" 
d="M226.5 243.5q35.5 61.5 82.5 61.5q88 0 148 -36t60 -82q0 -86 -35.5 -147.5t-82.5 -61.5t-84 9.5t-80.5 35.5t-43.5 93q0 66 35.5 127.5zM424 376q-184 0 -217.5 91.5t3.5 174t101 141.5t122 106l206 168q83 69 128 134.5t26.5 138t-70.5 92.5t-98 20q-99 0 -180 -27
l-104 -230l-150 17l42 277q209 83 450 83q318 0 392 -179.5t-81.5 -318.5t-240.5 -208l-182 -146q-106 -84 -87 -149t71.5 -65t124.5 31l-17 -101q-107 -50 -239 -50z" />
    <glyph glyph-name="at" unicode="@" horiz-adv-x="1922" 
d="M1568 736q0 500 -487 499q-319 0 -516 -250.5t-197 -625.5q0 -280 159 -404.5t415 -124.5t492 111v-106q-135 -78 -291.5 -111.5t-301.5 -33.5q-338 0 -550.5 149.5t-212.5 482.5q0 297 171 602t449 378t438 73q329 0 525.5 -150.5t196.5 -426.5q0 -221 -84.5 -376
t-208.5 -233t-243 -87l-196 -14l-81 78l23 170q-75 -124 -145.5 -186t-200.5 -62q-267 0 -223 347l12 93q32 237 173.5 386t365.5 149q172 0 399 -78l-108 -776q151 15 189 201t38 326zM918 939q-82 -146 -112 -380l-9 -69q-21 -167 -11.5 -210.5t23.5 -53.5t38 -10
q46 0 116 88.5t130 198.5l60 443q-69 13 -127 13t-108 -20z" />
    <glyph glyph-name="A" unicode="A" horiz-adv-x="1277" 
d="M636 1007l-241 -492h355l-98 492h-16zM320 0h-404l-8 105l110 20l613 1228h239l257 -1229l106 -19l-17 -105h-517l-8 105l137 19l-54 272h-437l-133 -273l133 -18z" />
    <glyph glyph-name="B" unicode="B" horiz-adv-x="1217" 
d="M600 762q95 0 173 19q61 105 77 226q17 121 -34 174t-168 53h-63l-66 -472h81zM517 119q148 0 228 23q56 96 75 230q37 271 -215 271h-103l-74 -524h89zM717 1353q239 0 350 -77t87 -244q-29 -213 -301 -312v-16q138 -26 212 -108t56 -210q-26 -175 -160.5 -280.5
t-357.5 -105.5h-600l-5 105l130 20l156 1103l-131 20l20 105h544z" />
    <glyph glyph-name="C" unicode="C" horiz-adv-x="1218" 
d="M838 1375q230 0 370 -59l-17 -290h-168l-46 210q-65 20 -155 20q-168 0 -285 -68q-108 -239 -146 -505l-18 -133q-30 -220 55.5 -336.5t270.5 -116.5t388 104l-15 -96q-221 -127 -477 -127q-611 0 -537 537l12 89q53 381 249.5 576t518.5 195z" />
    <glyph glyph-name="D" unicode="D" horiz-adv-x="1438" 
d="M593 119q162 0 264 39q57 75 107.5 196t71.5 268l13 94q37 265 -42.5 391.5t-282.5 126.5h-137l-157 -1115h163zM771 1353q340 0 482 -153.5t99 -457.5l-12 -88q-44 -313 -231.5 -483.5t-480.5 -170.5h-623l-5 105l130 20l156 1103l-131 20l20 105h596z" />
    <glyph glyph-name="E" unicode="E" horiz-adv-x="1246" 
d="M816 648h-314l-74 -529h428l105 203l160 -13l-66 -309h-1052l-5 105l130 20l156 1103l-131 20l20 105h1043l-19 -320h-166l-40 201h-406l-66 -467h317l40 127l103 -20l-56 -355l-107 -5v134z" />
    <glyph glyph-name="F" unicode="F" horiz-adv-x="1092" 
d="M744 648h-244l-74 -523l182 -20l-20 -105h-587l-5 105l130 20l156 1103l-131 20l20 105h973l-19 -320h-166l-40 201h-336l-66 -467h247l40 127l103 -20l-56 -355l-107 -5v134z" />
    <glyph glyph-name="G" unicode="G" horiz-adv-x="1356" 
d="M858 1375q226 0 395 -57l-17 -290h-168l-46 206q-92 22 -178 22q-170 0 -300 -74q-116 -218 -156 -499l-18 -133q-30 -216 53 -334.5t245 -118.5q71 0 139 14l58 410l-131 20l20 105h537l5 -105l-131 -20l-58 -416q-112 -57 -249.5 -92t-268.5 -35q-280 0 -421.5 132
t-104.5 395l13 89q56 378 258.5 579.5t523.5 201.5z" />
    <glyph glyph-name="H" unicode="H" horiz-adv-x="1529" 
d="M171 1353h537l5 -105l-131 -20l-63 -450h524l63 450l-131 20l20 105h537l5 -105l-131 -20l-156 -1103l132 -20l-20 -105h-537l-5 105l130 20l76 534h-524l-76 -534l132 -20l-20 -105h-537l-5 105l130 20l156 1103l-131 20z" />
    <glyph glyph-name="I" unicode="I" horiz-adv-x="705" 
d="M-4 105l130 20l156 1103l-131 20l20 105h537l5 -105l-131 -20l-156 -1103l132 -20l-20 -105h-537z" />
    <glyph glyph-name="J" unicode="J" horiz-adv-x="937" 
d="M299 -22q-179 0 -305 53l16 280h146l47 -206q32 -9 74 -9t70 11q58 91 81 262l120 859l-181 20l20 105h587l5 -105l-131 -20l-119 -850q-29 -202 -140 -301t-290 -99z" />
    <glyph glyph-name="K" unicode="K" horiz-adv-x="1346" 
d="M534 0h-537l-5 105l130 20l156 1103l-131 20l20 105h537l5 -105l-131 -20l-71 -505l13 -6l542 514l-84 17l20 105h388l5 -105l-114 -26l-460 -426l374 -670l109 -21l-14 -105h-328l-339 611l-147 -136l-50 -350l132 -20z" />
    <glyph glyph-name="L" unicode="L" horiz-adv-x="1033" 
d="M905 0h-906l-5 105l130 20l156 1103l-131 20l20 105h567l5 -105l-161 -20l-156 -1109h298l110 213l141 -12z" />
    <glyph glyph-name="M" unicode="M" horiz-adv-x="2035" 
d="M428 0h-427l-5 105l130 20l156 1103l-131 20l20 105h544l240 -964h17l513 964h553l5 -105l-131 -20l-156 -1103l132 -20l-20 -105h-537l-5 105l130 20l147 1037h-16l-626 -1162h-185l-297 1162h-16l-147 -1037l132 -20z" />
    <glyph glyph-name="N" unicode="N" horiz-adv-x="1549" 
d="M1158 1353h428l5 -105l-131 -20l-173 -1228h-373l-445 1120h-16l-141 -995l132 -20l-20 -105h-427l-5 105l130 20l156 1103l-131 20l20 105h503l444 -1118h16l139 993l-131 20z" />
    <glyph glyph-name="O" unicode="O" horiz-adv-x="1430" 
d="M784 1256q-132 0 -253 -58q-104 -228 -143 -495l-18 -133q-29 -224 46.5 -348.5t222.5 -124.5t261 59q105 231 142 494l18 133q65 473 -276 473zM602 -22q-316 0 -446.5 137t-92.5 410l11 79q52 378 242 574.5t508 196.5t450 -138.5t93 -409.5l-11 -78
q-53 -379 -245.5 -575t-508.5 -196z" />
    <glyph glyph-name="P" unicode="P" horiz-adv-x="1177" 
d="M624 725q105 0 185 18q61 97 80 230t-36.5 197t-189.5 64h-78l-72 -509h111zM745 1353q256 0 365.5 -87t83.5 -270t-169.5 -286.5t-336.5 -103.5h-192l-68 -481l182 -20l-20 -105h-587l-5 105l130 20l156 1103l-131 20l20 105h572z" />
    <glyph glyph-name="Q" unicode="Q" horiz-adv-x="1440" 
d="M504 486q-56 0 -89.5 -38.5t-33.5 -99.5t19 -105q73 -146 238 -146q55 0 95 7l-41 119q-63 184 -97.5 223.5t-90.5 39.5zM591 605q142 0 216.5 -74.5t117.5 -207.5l17 -50q70 190 96 377l18 133q67 473 -276 473q-133 0 -253 -58q-107 -241 -143 -495l-18 -133
q-6 -43 -8 -90q28 60 90 92.5t143 32.5zM1006 90q60 -165 146 -165q72 0 134 25l-14 -90q-87 -54 -199 -54q-227 0 -302 189q-89 -17 -175 -17q-314 0 -445 136.5t-92 410.5l11 79q53 380 244.5 575.5t505.5 195.5t448 -136t95 -412l-11 -78q-66 -471 -346 -659z" />
    <glyph glyph-name="R" unicode="R" horiz-adv-x="1279" 
d="M585 725q106 0 195 26q53 102 72 231q18 130 -32 191t-179 61h-58l-72 -509h74zM736 1353q232 0 339 -87.5t82 -262.5q-18 -126 -91 -212.5t-190 -127.5l-8 -19l226 -517l127 -22l-20 -105h-339l-255 606h-113l-68 -481l132 -20l-20 -105h-537l-5 105l130 20l156 1103
l-131 20l20 105h565z" />
    <glyph glyph-name="S" unicode="S" horiz-adv-x="1203" 
d="M753 1375q239 0 390 -52l-17 -290h-158l-45 201q-90 22 -195 22t-196 -28q-34 -60 -45 -138t54.5 -143t197.5 -147q231 -144 291 -240t42 -219q-25 -170 -184 -266.5t-414 -96.5t-414 63l16 279h170l45 -199q79 -24 200 -24t214 28q45 71 57 152q12 82 -37.5 147
t-218.5 176q-209 132 -276.5 219t-47.5 227t176 234.5t395 94.5z" />
    <glyph glyph-name="T" unicode="T" horiz-adv-x="1148" 
d="M223 105l130 20l157 1109h-227l-75 -191h-148l56 310h1112l-27 -310h-139l-30 191h-222l-157 -1109l132 -20l-20 -105h-537z" />
    <glyph glyph-name="U" unicode="U" horiz-adv-x="1452" 
d="M640 -22q-288 0 -403 126.5t-79 386.5l103 737l-131 20l20 105h537l5 -105l-131 -20l-95 -682q-64 -449 241 -449q172 0 275 76q68 130 99 348l99 707l-131 20l20 105h428l5 -105l-131 -20l-99 -710q-38 -274 -191 -407t-441 -133z" />
    <glyph glyph-name="V" unicode="V" horiz-adv-x="1311" 
d="M1002 1353h414l11 -105l-115 -23l-603 -1225h-271l-259 1227l-103 21l14 105h497l11 -105l-140 -20l187 -956h16l457 957l-130 19z" />
    <glyph glyph-name="W" unicode="W" horiz-adv-x="2111" 
d="M163 1228l-103 20l14 105h497l11 -105l-137 -20l195 -903h16l428 1028h251l191 -1028h16l386 904l-132 19l14 105h414l11 -105l-112 -22l-541 -1226h-274l-181 975h-16l-409 -975h-272z" />
    <glyph glyph-name="X" unicode="X" horiz-adv-x="1289" 
d="M1196 0h-485l-5 105l102 14l-213 411h-16l-320 -411l103 -14l-20 -105h-393l-5 105l115 22l451 564l-277 536l-110 21l14 105h480l11 -105l-102 -15l188 -359h16l283 360l-96 14l14 105h391l11 -105l-121 -24l-416 -513l303 -584l117 -22z" />
    <glyph glyph-name="Y" unicode="Y" horiz-adv-x="1162" 
d="M42 1353h481l11 -105l-105 -15l229 -463h16l345 464l-100 14l14 105h396l11 -105l-122 -24l-455 -607l-70 -492l132 -20l-20 -105h-537l-5 105l130 20l65 461l-320 640l-110 22z" />
    <glyph glyph-name="Z" unicode="Z" horiz-adv-x="1242" 
d="M1220 1353v-94l-838 -1126l3 -14h497l99 213l150 -12l-67 -320h-1050v95l837 1125l-3 14h-456l-99 -213l-151 12l68 320h1010z" />
    <glyph glyph-name="bracketleft" unicode="[" horiz-adv-x="676" 
d="M298 1677h468l-14 -106h-192l-269 -1922h190l-14 -106h-467z" />
    <glyph glyph-name="backslash" unicode="\" horiz-adv-x="770" 
d="M660 -275l-2 -20h-215l-313 1815l2 20h215z" />
    <glyph glyph-name="bracketright" unicode="]" horiz-adv-x="676" 
d="M377 -457h-467l14 106h191l269 1922h-190l14 106h468z" />
    <glyph glyph-name="asciicircum" unicode="^" horiz-adv-x="984" 
d="M1004 1049h-199l-235 294h-16l-234 -294h-200v30l381 483h122l381 -483v-30z" />
    <glyph glyph-name="underscore" unicode="_" horiz-adv-x="1046" 
d="M-50 -235h1036v-144h-1036v144z" />
    <glyph glyph-name="grave" unicode="`" horiz-adv-x="828" 
d="M623 1275l-149 -10l-274 329l10 66l286 10l132 -363z" />
    <glyph glyph-name="a" unicode="a" horiz-adv-x="1244" 
d="M448 106q51 0 130.5 79.5t164.5 207.5l82 589q-71 21 -151 21t-163 -30q-80 -151 -113 -381l-18 -131q-24 -167 -14 -261t82 -94zM341 -22q-160 0 -226 96.5t-38 298.5l26 188q37 252 195 399t375 147t449 -78l-126 -904l132 -20l-20 -105l-330 -22l-81 78l23 169
q-82 -116 -181 -181.5t-198 -65.5z" />
    <glyph glyph-name="b" unicode="b" horiz-adv-x="1216" 
d="M392 101q80 -19 163 -19t161 30q75 160 105 381l18 131q25 178 12.5 266.5t-79.5 88.5q-59 0 -137.5 -77.5t-159.5 -208.5zM889 1107q154 0 217 -96t35 -299l-26 -188q-38 -255 -195 -400.5t-377 -145.5t-447 78l189 1359l-132 20l21 105l330 22l81 -78l-86 -620
q86 119 187.5 181t202.5 62z" />
    <glyph glyph-name="c" unicode="c" horiz-adv-x="965" 
d="M551 88q141 0 294 90v-106q-163 -94 -385 -94q-221 0 -321 112t-67 339l13 93q40 280 205 432.5t396 152.5q180 0 299 -52l-56 -257l-126 -10v195q-68 14 -142 14t-156 -35q-91 -167 -125 -400l-16 -119q-25 -170 10.5 -262.5t176.5 -92.5z" />
    <glyph glyph-name="d" unicode="d" horiz-adv-x="1233" 
d="M824 987q-67 16 -154 16q-88 0 -163 -33q-80 -155 -112 -378l-18 -131q-26 -196 -10.5 -275.5t77.5 -79.5q121 0 297 287zM688 1107q67 0 151 -12l44 320l-131 20l20 105l330 22l81 -78l-190 -1359l132 -20l-20 -105l-330 -22l-81 78l24 171q-83 -123 -181.5 -186
t-198.5 -63q-153 0 -221.5 99.5t-42.5 295.5l26 188q38 256 197.5 401t390.5 145z" />
    <glyph glyph-name="e" unicode="e" horiz-adv-x="1023" 
d="M388 596q92 -10 149 -10q56 0 97 13q61 89 76 198q16 109 -7 154.5t-86 45.5t-119 -29q-73 -161 -110 -372zM664 1107q381 0 343 -283q-23 -161 -152.5 -251.5t-335.5 -90.5q-79 0 -146 12l-7 -51q-25 -173 20.5 -264t177.5 -91t304 90v-106q-169 -94 -400 -94
q-457 0 -394 451l13 93q40 277 194.5 431t382.5 154z" />
    <glyph glyph-name="f" unicode="f" horiz-adv-x="746" 
d="M294 -356q-98 -101 -272 -101t-302 47l48 140q148 -60 266 -60q69 87 93 256l145 1055h-189l14 104h191q88 477 443 477q136 0 239 -47l-43 -140q-116 60 -225 60q-92 -108 -122 -328l-3 -22h214l-14 -104h-215l-142 -1028q-28 -208 -126 -309z" />
    <glyph glyph-name="g" unicode="g" 
d="M440 106q64 0 143 77.5t153 209.5l82 589q-70 21 -155 21t-166 -35q-73 -154 -106 -376l-18 -131q-24 -175 -10.5 -265t77.5 -90zM318 -22q-303 0 -248 395l26 188q36 249 194 397.5t373 148.5t452 -78l-126 -900q-39 -264 -195.5 -425t-374.5 -161t-439 90l42 180
q319 -130 504 -130q124 109 168 406l18 134q-76 -118 -179.5 -181.5t-214.5 -63.5z" />
    <glyph glyph-name="h" unicode="h" horiz-adv-x="1346" 
d="M524 859q191 248 444 248q129 0 181 -74t30 -229l-93 -679l132 -20l-20 -105l-330 -22l-82 78l93 675q20 149 11 198.5t-53 49.5q-64 0 -153 -76.5t-183 -210.5l-99 -714l-288 22l197 1415l-131 20l20 105l330 22l81 -78z" />
    <glyph glyph-name="i" unicode="i" horiz-adv-x="704" 
d="M332 1398q0 74 29 128t69 54q73 0 127.5 -29.5t54.5 -68.5q0 -76 -29 -129t-69 -53q-76 0 -129 28.5t-53 69.5zM156 1085l331 22l81 -78l-126 -904l131 -20l-20 -105l-330 -22l-81 78l125 904l-131 20z" />
    <glyph glyph-name="j" unicode="j" horiz-adv-x="661" 
d="M335 1398q0 74 29 128t69 54q73 0 127.5 -29.5t54.5 -68.5q0 -76 -29 -129t-69 -53q-76 0 -129 28.5t-53 69.5zM-1 -457q-145 0 -279 47l48 140q160 -60 271 -60q61 80 86 244l144 1046l-131 20l20 105l331 22l81 -78l-152 -1076q-28 -206 -127.5 -308t-291.5 -102z" />
    <glyph glyph-name="k" unicode="k" horiz-adv-x="1224" 
d="M1218 989q-169 -207 -421 -359l249 -504l139 -21l-14 -105l-293 -22l-81 78l-228 459q-48 -20 -100 -38l-69 -499l-288 22l197 1415l-131 20l20 105l331 22l81 -78l-120 -855q278 117 481 341l-98 10l20 105l188 22z" />
    <glyph glyph-name="l" unicode="l" horiz-adv-x="666" 
d="M194 1540l331 22l81 -78l-190 -1359l131 -20l-20 -105l-330 -22l-81 78l189 1359l-131 20z" />
    <glyph glyph-name="m" unicode="m" horiz-adv-x="2015" 
d="M1197 856q191 251 443 251t211 -288l-95 -694l131 -20l-20 -105l-330 -22l-81 78l93 675q17 124 12 186t-52 62q-128 0 -334 -287l-77 -567l131 -20l-20 -105l-330 -22l-81 78l93 675q18 128 11.5 188t-60.5 60t-139 -71.5t-185 -215.5l-100 -714l-286 22l132 960
l-131 20l20 105l331 22l81 -78l-24 -170q199 248 441 248q237 0 215 -251z" />
    <glyph glyph-name="n" unicode="n" horiz-adv-x="1362" 
d="M541 859q199 248 443 248q256 0 214 -288l-95 -694l131 -20l-20 -105l-330 -22l-81 78l93 675q19 130 11 189t-52 59q-55 0 -141.5 -71.5t-195.5 -215.5l-100 -714l-286 22l132 960l-131 20l20 105l331 22l81 -78z" />
    <glyph glyph-name="o" unicode="o" 
d="M377.5 176q40.5 -88 124.5 -88t155 30q102 158 134 395l16 119q52 365 -145 365q-76 0 -149 -29q-101 -178 -135 -406l-17 -119q-24 -179 16.5 -267zM474 -22q-466 0 -404 451l13 93q41 279 207.5 432t404.5 153t337 -114t67 -346l-13 -95q-38 -258 -210 -416t-402 -158z
" />
    <glyph glyph-name="p" unicode="p" horiz-adv-x="1245" 
d="M423 95q78 -13 161 -13t162 30q73 146 107 381l18 131q25 184 13.5 269.5t-74.5 85.5t-144.5 -78.5t-160.5 -211.5zM568 -22q-78 0 -160 13l-42 -301l132 -20l-20 -105h-527l-5 105l130 20l177 1270l-131 20l20 105l330 22l81 -78l-24 -170q82 117 183.5 182.5
t202.5 65.5q170 0 228.5 -99t29.5 -296l-26 -188q-37 -252 -194 -399t-385 -147z" />
    <glyph glyph-name="q" unicode="q" horiz-adv-x="1174" 
d="M475 106q94 0 266 287l82 594q-70 16 -155 16t-166 -32q-78 -179 -106 -379l-19 -131q-27 -185 -11.5 -270t109.5 -85zM339 -22q-168 0 -230 96.5t-34 298.5l26 188q40 250 196 398t371 148t452 -78l-187 -1339l132 -20l-20 -105h-527l-5 105l130 20l74 534
q-77 -116 -176.5 -181t-201.5 -65z" />
    <glyph glyph-name="r" unicode="r" horiz-adv-x="978" 
d="M767 959q-48 0 -110 -83t-134 -260l-68 -491l132 -20l-20 -105h-528l-5 105l130 20l116 835l-131 20l20 105l331 22l81 -78l-25 -176q54 121 133 187.5t167 66.5t154 -44l-58 -275l-146 -12v178q-18 5 -39 5z" />
    <glyph glyph-name="s" unicode="s" horiz-adv-x="1023" 
d="M621 1107q205 0 336 -68l-25 -261h-121l-33 199q-73 20 -154 20t-140 -18q-35 -42 -44 -99t22 -100t160 -121q200 -119 255 -203.5t39 -193.5q-19 -135 -154.5 -209.5t-341.5 -74.5t-348 70l24 260h122l31 -197q69 -23 163 -23t165 18q34 50 43 114t-26 113t-199 152
t-213.5 178.5t-37.5 164.5q19 129 145.5 204t331.5 75z" />
    <glyph glyph-name="t" unicode="t" horiz-adv-x="821" 
d="M534 88q88 0 197 70v-106q-113 -74 -290 -74q-176 0 -239 92.5t-36 282.5l87 628h-177l15 104h176l29 207l303 83l-41 -290h277l-15 -104h-276l-89 -633q-18 -122 -3 -191t82 -69z" />
    <glyph glyph-name="u" unicode="u" horiz-adv-x="1344" 
d="M372 -22q-253 0 -211 288l95 694l-132 20l20 105l331 22l78 -98l-92 -670q-16 -119 -8 -176t66 -57t143 73.5t177 210.5l79 570l-131 20l20 105l331 22l81 -78l-126 -904l131 -20l-20 -105l-330 -22l-81 78l23 167q-88 -114 -202 -179.5t-242 -65.5z" />
    <glyph glyph-name="v" unicode="v" horiz-adv-x="1063" 
d="M317 0l-155 960l-130 20l14 105l284 22l81 -78l135 -853q181 279 242 484.5t75 300.5l-125 19l14 105l220 22l81 -78q0 -288 -177.5 -591t-297.5 -460z" />
    <glyph glyph-name="w" unicode="w" horiz-adv-x="1745" 
d="M46 1085l284 22l81 -78l124 -785l405 863l145 -22l143 -905q185 286 244 486.5t73 294.5l-125 19l14 105l220 22l81 -78q0 -297 -178.5 -600.5t-296.5 -450.5l-261 22l-108 663l-313 -685l-262 22l-154 960l-130 20z" />
    <glyph glyph-name="x" unicode="x" horiz-adv-x="1139" 
d="M1151 1009q-149 -241 -404 -463l199 -421l137 -20l-14 -105l-301 -22l-81 78l-188 396q-148 -133 -279 -335l102 -12l-14 -105l-168 -22l-144 98q90 170 229 307t213 199l-179 377l-136 21l14 105l301 22l81 -78l166 -351q138 136 240 290l-100 12l14 105l168 22z" />
    <glyph glyph-name="y" unicode="y" horiz-adv-x="1283" 
d="M381 -22q-133 0 -186 71.5t-32 216.5l95 694l-132 20l20 105l331 22l81 -78l-95 -695q-16 -118 -9.5 -173t58.5 -55q111 0 330 285l79 569l-132 20l20 105l331 22l81 -78l-126 -900q-44 -276 -201.5 -431t-372.5 -155t-435 90l42 180q315 -130 504 -130q54 46 99.5 148
t68.5 258l18 134q-78 -110 -191 -177.5t-246 -67.5z" />
    <glyph glyph-name="z" unicode="z" horiz-adv-x="1067" 
d="M725 975h-356l-82 -174l-143 26l50 258h877l-10 -83l-686 -892h365l82 174l143 -26l-50 -258h-877l11 95z" />
    <glyph glyph-name="braceleft" unicode="{" horiz-adv-x="835" 
d="M195 663q61 0 89 24.5t36 85.5l88 624q18 122 108 201t211 79h188l-14 -106h-21q-91 0 -136 -39.5t-58 -130.5l-81 -573q-24 -168 -88 -190.5t-92 -22.5l-1 -10q101 0 115 -75.5t5 -137.5l-81 -573q-13 -91 21 -130.5t125 -39.5h21l-14 -106h-188q-121 0 -190 80t-51 200
l88 624q8 61 -13 85.5t-82 24.5h-96l15 106h96z" />
    <glyph glyph-name="bar" unicode="|" horiz-adv-x="748" 
d="M290 1670h168v-2207h-168v2207z" />
    <glyph glyph-name="braceright" unicode="}" horiz-adv-x="834" 
d="M639 557q-61 0 -89 -24.5t-36 -85.5l-88 -624q-18 -122 -108 -201t-211 -79h-187l14 106h21q90 0 135 39.5t58 130.5l81 573q16 112 69.5 162.5t110.5 50.5l1 10q-94 0 -111.5 75.5t-8.5 137.5l81 573q13 91 -21 130.5t-125 39.5h-21l14 106h188q121 0 190 -80t51 -200
l-88 -624q-8 -61 13 -85.5t82 -24.5h96l-15 -106h-96z" />
    <glyph glyph-name="asciitilde" unicode="~" horiz-adv-x="1291" 
d="M386 607q-107 0 -107 -98l-129 -10v75q0 108 72 168.5t173 60.5t291 -66t217 -66q49 0 80 32t31 88l137 10v-97q0 -106 -69 -167.5t-163 -61.5q-95 0 -297 66t-236 66z" />
    <glyph glyph-name="uni00A0" unicode="&#xa0;" horiz-adv-x="550" 
 />
    <glyph glyph-name="exclamdown" unicode="&#xa1;" horiz-adv-x="631" 
d="M330 -435l-308 -22l-17 22l228 1110h181zM483.5 841.5q-35.5 -61.5 -82.5 -61.5q-88 0 -148 36t-60 82q0 87 35.5 148t82.5 61t84 -9.5t80.5 -35.5t43.5 -93q0 -66 -35.5 -127.5z" />
    <glyph glyph-name="cent" unicode="&#xa2;" horiz-adv-x="997" 
d="M602 991q-49 -8 -97 -29q-91 -167 -125 -400l-16 -119q-25 -170 10 -263q25 -63 102 -83zM593 89q121 12 252 89v-106q-116 -67 -267 -87l-32 -230h-118l31 223q-452 6 -387 451l13 93q40 280 205 432q140 130 328 149l35 250h118l-35 -248q146 -5 249 -50l-56 -257
l-126 -10v195q-53 11 -83 11z" />
    <glyph glyph-name="sterling" unicode="&#xa3;" horiz-adv-x="1108" 
d="M702 1375q222 0 366 -83l-37 -267l-148 -15l-42 236q-57 19 -117 19q-115 0 -186 -26q-51 -131 -62 -257t8 -273h385l-17 -119h-352q31 -261 -77 -471h318l110 193l141 -22l-66 -290h-910l-8 88l144 29q20 30 39.5 103.5t24.5 110.5q14 101 -6 259h-121l-9 79l115 29
q-25 184 -10 283q29 189 162 291.5t355 102.5z" />
    <glyph glyph-name="currency" unicode="&#xa4;" horiz-adv-x="1128" 
d="M405 588q0 -46 14 -81t37.5 -58.5t55.5 -35.5t68 -12t67.5 12t55.5 35.5t37.5 58.5t13.5 81t-13.5 81t-37.5 58.5t-55.5 35.5t-67.5 12t-68 -12t-55.5 -35.5t-37.5 -58.5t-14 -81zM179 585q0 120 66 213l-155 185l154 129l155 -184q84 41 180 41t180 -41l154 184
l155 -131l-154 -183q67 -96 67 -214t-75 -219l161 -191l-154 -128l-165 196q-78 -35 -168 -35t-168 35l-165 -197l-155 130l160 192q-73 98 -73 218z" />
    <glyph glyph-name="yen" unicode="&#xa5;" horiz-adv-x="1162" 
d="M174 387h256l21 148h-258l16 117h216l-287 574l-110 22l14 105h481l11 -105l-105 -15l229 -463h16l345 464l-100 14l14 105h396l11 -105l-122 -24l-429 -572h223l-16 -117h-245l-21 -148h247l-16 -117h-248l-20 -145l132 -20l-20 -105h-537l-5 105l130 20l20 145h-255z
" />
    <glyph glyph-name="brokenbar" unicode="&#xa6;" horiz-adv-x="748" 
d="M290 1670h168v-857h-168v857zM290 320h168v-857h-168v857z" />
    <glyph glyph-name="section" unicode="&#xa7;" horiz-adv-x="1194" 
d="M736.5 503.5q48.5 -27.5 90.5 -55.5q23 44 31 92q13 81 -33.5 129t-202.5 137q-156 88 -200 117q-75 -131 -11.5 -200.5t170.5 -130.5t155.5 -88.5zM565 1353q-51 -71 -31 -131t91 -106t153 -92q200 -113 289 -205.5t71 -219.5q-21 -156 -197 -246q78 -91 61 -222
q-35 -259 -522 -259q-216 0 -398 70l59 280h130v-217q89 -23 178 -23q156 0 239 16q91 126 5.5 201t-223.5 149t-261 155.5t-97 263.5q21 153 196 252q-71 83 -54 198q25 183 198.5 225t285.5 42q246 0 408 -68l-60 -280h-131v217q-102 21 -202 21q-101 0 -188 -21z" />
    <glyph glyph-name="dieresis" unicode="&#xa8;" horiz-adv-x="1035" 
d="M660.5 1495q30.5 45 68.5 45q69 0 112.5 -32t43.5 -69q0 -66 -31.5 -111.5t-69.5 -45.5t-65 8.5t-58 32.5t-31 75q0 52 30.5 97zM181.5 1495.5q31.5 44.5 68.5 44.5q69 0 112 -32t43 -69q0 -65 -30.5 -111t-68.5 -46t-65 8.5t-59 32t-32 75.5q0 53 31.5 97.5z" />
    <glyph glyph-name="copyright" unicode="&#xa9;" horiz-adv-x="1377" 
d="M120 970q0 106 48.5 218t131.5 195t195 131t239 48t239 -48t195 -131t131 -195t48 -239t-48 -239t-131 -195t-195 -131.5t-218 -48.5t-184.5 22t-146.5 62t-124 96t-96 124t-62 146.5t-22 184.5zM297 948q0 -182 127.5 -309t309.5 -127t309 127t127 309t-127 309.5
t-309 127.5t-309.5 -127.5t-127.5 -309.5zM961 654q-97 -59 -229 -59t-222.5 80t-90.5 215v63q0 171 90 261.5t248 90.5q112 0 196 -38l12 -203l-98 -14l-44 137q-29 12 -59 12q-63 0 -102 -18q-23 -79 -23 -213v-53q0 -163 52 -188t80 -25q98 0 190 46v-94z" />
    <glyph glyph-name="ordfeminine" unicode="&#xaa;" horiz-adv-x="1188" 
d="M493 1281q-36 -64 -50 -164l-9 -65q-19 -125 -1 -136.5t36 -11.5q57 0 140 139l34 248q-28 7 -68 7t-82 -17zM380 810q-147 0 -123 198l13 94q27 188 139.5 230.5t168.5 42.5q102 0 242 -39l-60 -428l74 -9l-13 -78l-198 -11l-41 39l9 70q-85 -109 -211 -109z" />
    <glyph glyph-name="guillemotleft" unicode="&#xab;" horiz-adv-x="1135" 
d="M805 159l-231 389l5 36l341 389h175l-3 -22l-221 -385l112 -385l-3 -22h-175zM446 115l-356 421l9 60l474 421h175l-3 -22l-359 -419l-3 -20l241 -419l-3 -22h-175z" />
    <glyph glyph-name="logicalnot" unicode="&#xac;" horiz-adv-x="1223" 
d="M150 797h923v-492h-197v305h-726v187z" />
    <glyph glyph-name="uni00AD" unicode="&#xad;" horiz-adv-x="899" 
d="M160 685l629 41l-30 -189l-629 -41z" />
    <glyph glyph-name="registered" unicode="&#xae;" horiz-adv-x="1377" 
d="M686 1167v-177h26q45 0 73 7q14 57 14 89t-22 56.5t-75 24.5h-16zM993 1077q0 -100 -84 -165v-6l76 -195l60 -11l-9 -65h-196l-95 261h-59v-181l70 -15l-9 -65h-314l-9 65l70 15v464l-70 17l9 65h321q116 0 177.5 -42t61.5 -142zM297 948q0 -182 127.5 -309t309.5 -127
t309 127t127 309t-127 309.5t-309 127.5t-309.5 -127.5t-127.5 -309.5zM120 970q0 106 48.5 218t131.5 195t195 131t239 48t239 -48t195 -131t131 -195t48 -239t-48 -239t-131 -195t-195 -131.5t-218 -48.5t-184.5 22t-146.5 62t-124 96t-96 124t-62 146.5t-22 184.5z" />
    <glyph glyph-name="macron" unicode="&#xaf;" horiz-adv-x="1090" 
d="M190 1483h750l-40 -150h-750z" />
    <glyph glyph-name="degree" unicode="&#xb0;" horiz-adv-x="624" 
d="M245 1305q0 -58 32 -88t80 -30t80 30t32 88t-32 88t-80 30t-80 -30t-32 -88zM90 1305q0 106 77.5 181.5t189.5 75.5t189.5 -75.5t77.5 -181.5t-77.5 -181.5t-189.5 -75.5t-189.5 75.5t-77.5 181.5z" />
    <glyph glyph-name="plusminus" unicode="&#xb1;" horiz-adv-x="1073" 
d="M177 187h733v-187h-733v187zM635 1105v-318h298v-187h-298v-318h-187v318h-298v187h298v318h187z" />
    <glyph glyph-name="twosuperior" unicode="&#xb2;" horiz-adv-x="581" 
d="M361.5 1658.5q-22.5 19.5 -59.5 19.5q-51 0 -102 -24l-43 -110l-95 5l24 166q121 57 274 57t199.5 -113t-111 -256.5t-218.5 -197.5l1 -5h148l56 106l91 -11l-41 -210h-505l12 82q202 177 289 265.5t95 147.5t-14.5 78.5z" />
    <glyph glyph-name="threesuperior" unicode="&#xb3;" horiz-adv-x="548" 
d="M201 1168q50 0 83.5 27t39.5 69q18 130 -91 130h-54l14 94h56q83 0 97 103q7 46 -13.5 66t-55.5 20t-88 -16l-41 -106l-92 6l24 174q126 37 238 37q113 0 167.5 -42.5t42.5 -125.5t-66 -115.5t-72 -41.5q132 -43 114 -170q-14 -95 -98.5 -149.5t-203.5 -54.5t-221 41
l24 175l94 6l11 -106q41 -21 91 -21z" />
    <glyph glyph-name="acute" unicode="&#xb4;" horiz-adv-x="910" 
d="M205 1307l234 363l271 -10l-10 -66l-366 -329l-134 10z" />
    <glyph glyph-name="uni00B5" unicode="&#xb5;" horiz-adv-x="1327" 
d="M507 106q26 0 58 17.5t73 52t97 100t87 112.5l80 572l-131 20l20 105l331 22l81 -78l-123 -877l158 -34l-37 -118q-85 -22 -169 -22q-85 0 -163 45t-69 199q-42 -69 -99.5 -119t-118.5 -87.5t-150 -37.5q-88 0 -133 58l-10 -10l46 -461l-293 -22l197 1417l-131 20l20 105
l331 22l78 -98l-92 -670q-19 -139 -7.5 -176.5t27.5 -47t42 -9.5z" />
    <glyph glyph-name="paragraph" unicode="&#xb6;" horiz-adv-x="1179" 
d="M398 -174q86 0 171.5 32t119.5 275l154 1091h-140l-104 -739h-65q-204 0 -330 106t-95 321t183 328t377 113h624l6 -98l-157 -34l-153 -1093q-29 -201 -171.5 -315.5t-322.5 -114.5t-299 47l16 112q100 -31 186 -31z" />
    <glyph glyph-name="periodcentered" unicode="&#xb7;" horiz-adv-x="722" 
d="M282.5 777q32.5 55 73.5 55q80 0 133 -32t53 -73q0 -79 -32.5 -134t-73.5 -55q-42 0 -75 8.5t-72 32t-39 83.5t32.5 115z" />
    <glyph glyph-name="cedilla" unicode="&#xb8;" horiz-adv-x="872" 
d="M213 -317q95 -40 154 -40q60 0 88 7q29 43 17.5 93.5t-120.5 70.5l-26 64l80 159h142l-72 -142q105 -19 153.5 -59.5t36.5 -119.5q-19 -122 -114.5 -147.5t-145.5 -25.5q-122 0 -206 47z" />
    <glyph glyph-name="onesuperior" unicode="&#xb9;" horiz-adv-x="446" 
d="M366 1085h-363l1 79l104 17l66 467h-113l3 57l190 57h116l-82 -581l99 -17z" />
    <glyph glyph-name="ordmasculine" unicode="&#xba;" horiz-adv-x="724" 
d="M408 1295q-33 0 -71 -14q-47 -77 -62 -179l-9 -59q-22 -153 76 -153q39 0 77 15q38 75 52 173l8 59q21 158 -71 158zM316 810q-256 0 -221 226l7 46q21 141 111.5 217t278 76t158.5 -230l-6 -48q-16 -124 -107.5 -205.5t-220.5 -81.5z" />
    <glyph glyph-name="guillemotright" unicode="&#xbb;" horiz-adv-x="1135" 
d="M40 159l3 22l222 385l-113 385l3 22h185l221 -389l-5 -36l-331 -389h-185zM387 115l3 22l359 419l3 20l-241 419l3 22h185l346 -421l-9 -60l-464 -421h-185z" />
    <glyph glyph-name="onequarter" unicode="&#xbc;" horiz-adv-x="1555" 
d="M1366 0h-372l1 79l118 17l11 75h-263l-2 73l340 433h157l-333 -411h114l15 108h180l-15 -108h86l1 -80l-101 -17l-10 -73l94 -17zM1310 1353h145l-3 -20l-1167 -1333h-145l3 20zM518 676h-363l1 79l104 17l66 467h-113l3 57l190 57h116l-82 -581l99 -17z" />
    <glyph glyph-name="onehalf" unicode="&#xbd;" horiz-adv-x="1591" 
d="M1291.5 573.5q-22.5 19.5 -59.5 19.5q-51 0 -102 -24l-43 -110l-95 5l24 166q121 57 274 57t199.5 -113t-111 -256.5t-218.5 -197.5l1 -5h148l56 106l91 -11l-41 -210h-505l12 82q202 177 289 265.5t95 147.5t-14.5 78.5zM1310 1353h145l-3 -20l-1167 -1333h-145l3 20z
M518 676h-363l1 79l104 17l66 467h-113l3 57l190 57h116l-82 -581l99 -17z" />
    <glyph glyph-name="threequarters" unicode="&#xbe;" horiz-adv-x="1585" 
d="M1396 0h-372l1 79l118 17l11 75h-263l-2 73l340 433h157l-333 -411h114l15 108h180l-15 -108h86l1 -80l-101 -17l-10 -73l94 -17zM1340 1353h145l-3 -20l-1167 -1333h-145l3 20zM361 771q49 0 82.5 26.5t39.5 68.5q18 130 -91 131h-54l14 94h56q83 0 97 103q7 46 -13 66
t-56 20q-35 0 -88 -16l-41 -106l-92 6l24 174q126 37 238 37q113 0 167.5 -42.5t42.5 -125.5t-66 -115.5t-72 -41.5q133 -43 115 -170q-14 -95 -99 -149.5t-204 -54.5t-221 41l24 175l94 6l11 -106q43 -21 92 -21z" />
    <glyph glyph-name="questiondown" unicode="&#xbf;" horiz-adv-x="1031" 
d="M816.5 841.5q-35.5 -61.5 -82.5 -61.5q-88 0 -148 36t-60 82q0 87 35.5 148t82.5 61t84 -9.5t80.5 -35.5t43.5 -93q0 -66 -35.5 -127.5zM363 558l17 101q107 50 239 50q184 0 228.5 -127t-66.5 -227.5t-171 -148.5l-206 -168q-115 -92 -148.5 -176t19 -141.5t152.5 -57.5
t171 27l104 230l150 -17l-42 -277q-201 -83 -450 -83q-319 0 -364.5 103.5t-37.5 167.5q15 113 83 197t249 228l182 146q46 37 65 66t23 65q3 36 -17.5 54.5t-57.5 18.5t-122 -31z" />
    <glyph glyph-name="Agrave" unicode="&#xc0;" horiz-adv-x="1277" 
d="M636 1007l-241 -492h355l-98 492h-16zM320 0h-404l-8 105l110 20l613 1228h239l257 -1229l106 -19l-17 -105h-517l-8 105l137 19l-54 272h-437l-133 -273l133 -18zM863 1471l-146 -11l-360 248l9 66l283 10l219 -281z" />
    <glyph glyph-name="Aacute" unicode="&#xc1;" horiz-adv-x="1277" 
d="M636 1007l-241 -492h355l-98 492h-16zM320 0h-404l-8 105l110 20l613 1228h239l257 -1229l106 -19l-17 -105h-517l-8 105l137 19l-54 272h-437l-133 -273l133 -18zM620 1503l278 281l282 -10v-66l-415 -248l-145 11v32z" />
    <glyph glyph-name="Acircumflex" unicode="&#xc2;" horiz-adv-x="1277" 
d="M636 1007l-241 -492h355l-98 492h-16zM320 0h-404l-8 105l110 20l613 1228h239l257 -1229l106 -19l-17 -105h-517l-8 105l137 19l-54 272h-437l-133 -273l133 -18zM1132 1470l-156 -10l-197 185l-262 -185l-123 10l5 32l303 292l222 -10l213 -282z" />
    <glyph glyph-name="Atilde" unicode="&#xc3;" horiz-adv-x="1277" 
d="M636 1007l-241 -492h355l-98 492h-16zM320 0h-404l-8 105l110 20l613 1228h239l257 -1229l106 -19l-17 -105h-517l-8 105l137 19l-54 272h-437l-133 -273l133 -18zM1024 1645q42 -1 74 29t41 91l118 10l-10 -72q-17 -119 -88 -187t-173 -67q-102 0 -272 66
q-169 66 -201 66q-61 0 -91 -21t-37 -77l-110 -10l7 50q18 127 94 191t185 63q109 0 264 -66q59 -25 109 -45q48 -20 90 -21z" />
    <glyph glyph-name="Adieresis" unicode="&#xc4;" horiz-adv-x="1277" 
d="M636 1007l-241 -492h355l-98 492h-16zM320 0h-404l-8 105l110 20l613 1228h239l257 -1229l106 -19l-17 -105h-517l-8 105l137 19l-54 272h-437l-133 -273l133 -18zM941 1683q31 45 68 45q68 0 112 -31t44 -69q0 -67 -31 -113q-31 -45 -70 -45q-38 0 -65 8t-47 24
q-42 33 -42 84q0 52 31 97zM400 1684q31 44 68 44q69 0 112 -31t43 -69q-1 -66 -31 -112t-68 -46t-65 8t-47 24q-44 32 -44 84q0 53 32 98z" />
    <glyph glyph-name="Aring" unicode="&#xc5;" horiz-adv-x="1277" 
d="M636 1007l-241 -492h355l-98 492h-16zM320 0h-404l-8 105l110 20l613 1228h239l257 -1229l106 -19l-17 -105h-517l-8 105l137 19l-54 272h-437l-133 -273l133 -18zM758 1487q51 0 72 9q46 138 12 192q-19 30 -46 29q-27 0 -59 -9q-25 -42 -32 -102t11 -90t42 -29z
M967 1758q55 -41 45 -113q-34 -241 -271 -241q-153 0 -189 91q-12 31 -6 82t32 94t62 71q72 56 172 57q100 0 155 -41z" />
    <glyph glyph-name="AE" unicode="&#xc6;" horiz-adv-x="1836" 
d="M815 525l93 661l-430 -661h337zM1426 648h-294l-74 -529h408l105 203l140 -13l-66 -309h-1012l-5 105l130 20l40 281h-398l-185 -285l114 -16l-17 -105h-404l-8 105l120 20l813 1228h973l-19 -320h-146l-40 201h-386l-66 -467h297l40 127l103 -20l-56 -355l-107 -5v134z
" />
    <glyph glyph-name="Ccedilla" unicode="&#xc7;" horiz-adv-x="1218" 
d="M838 1375q230 0 370 -59l-17 -290h-168l-46 210q-65 20 -155 20q-168 0 -285 -68q-108 -239 -146 -505l-18 -133q-30 -220 55.5 -336.5t270.5 -116.5t388 104l-15 -96q-193 -111 -420 -125l-43 -85q105 -19 153.5 -59.5t36.5 -119.5q-19 -122 -115 -147.5t-146 -25.5
q-122 0 -205 47l13 93q95 -40 154 -40q60 0 88 7q29 43 17.5 93.5t-120.5 70.5l-26 64l51 103q-520 37 -452 534l12 89q53 381 249.5 576t518.5 195z" />
    <glyph glyph-name="Egrave" unicode="&#xc8;" horiz-adv-x="1246" 
d="M816 648h-314l-74 -529h428l105 203l160 -13l-66 -309h-1052l-5 105l130 20l156 1103l-131 20l20 105h1043l-19 -320h-166l-40 201h-406l-66 -467h317l40 127l103 -20l-56 -355l-107 -5v134zM856 1471l-146 -11l-360 248l9 66l283 10l219 -281z" />
    <glyph glyph-name="Eacute" unicode="&#xc9;" horiz-adv-x="1246" 
d="M816 648h-314l-74 -529h428l105 203l160 -13l-66 -309h-1052l-5 105l130 20l156 1103l-131 20l20 105h1043l-19 -320h-166l-40 201h-406l-66 -467h317l40 127l103 -20l-56 -355l-107 -5v134zM613 1503l278 281l282 -10v-66l-415 -248l-145 11v32z" />
    <glyph glyph-name="Ecircumflex" unicode="&#xca;" horiz-adv-x="1246" 
d="M816 648h-314l-74 -529h428l105 203l160 -13l-66 -309h-1052l-5 105l130 20l156 1103l-131 20l20 105h1043l-19 -320h-166l-40 201h-406l-66 -467h317l40 127l103 -20l-56 -355l-107 -5v134zM1125 1470l-156 -10l-197 185l-262 -185l-123 10l5 32l303 292l222 -10
l213 -282z" />
    <glyph glyph-name="Edieresis" unicode="&#xcb;" horiz-adv-x="1246" 
d="M816 648h-314l-74 -529h428l105 203l160 -13l-66 -309h-1052l-5 105l130 20l156 1103l-131 20l20 105h1043l-19 -320h-166l-40 201h-406l-66 -467h317l40 127l103 -20l-56 -355l-107 -5v134zM934 1683q31 45 68 45q68 0 112 -31t44 -69q0 -67 -31 -113q-31 -45 -70 -45
q-38 0 -65 8q-26 8 -46 24q-42 33 -43 84q0 52 31 97zM392 1684q31 44 69 44q69 0 112 -31t43 -69q0 -66 -30 -112t-69 -46q-38 0 -65 8q-28 8 -48 24q-44 32 -43 84q-1 53 31 98z" />
    <glyph glyph-name="Igrave" unicode="&#xcc;" horiz-adv-x="705" 
d="M-4 105l130 20l156 1103l-131 20l20 105h537l5 -105l-131 -20l-156 -1103l132 -20l-20 -105h-537zM567 1471l-146 -11l-360 248l9 66l283 10l219 -281z" />
    <glyph glyph-name="Iacute" unicode="&#xcd;" horiz-adv-x="705" 
d="M-4 105l130 20l156 1103l-131 20l20 105h537l5 -105l-131 -20l-156 -1103l132 -20l-20 -105h-537zM324 1503l278 281l282 -10v-66l-415 -248l-145 11v32z" />
    <glyph glyph-name="Icircumflex" unicode="&#xce;" horiz-adv-x="705" 
d="M-4 105l130 20l156 1103l-131 20l20 105h537l5 -105l-131 -20l-156 -1103l132 -20l-20 -105h-537zM836 1470l-156 -10l-197 185l-262 -185l-123 10l5 32l303 292l222 -10l213 -282z" />
    <glyph glyph-name="Idieresis" unicode="&#xcf;" horiz-adv-x="705" 
d="M-4 105l130 20l156 1103l-131 20l20 105h537l5 -105l-131 -20l-156 -1103l132 -20l-20 -105h-537zM645 1683q31 45 68 45q68 0 112 -31t44 -69q0 -67 -31 -113q-31 -45 -70 -45q-38 0 -65 8t-47 24q-42 33 -42 84q0 52 31 97zM104 1684q31 44 68 44q69 0 112 -31t43 -69
q-1 -66 -31 -112t-68 -46t-65 8t-47 24q-44 32 -44 84q0 53 32 98z" />
    <glyph glyph-name="Eth" unicode="&#xd0;" horiz-adv-x="1438" 
d="M593 119q162 0 264 39q57 75 107.5 196t71.5 268l13 94q37 265 -42.5 391.5t-282.5 126.5h-137l-68 -484h188l-15 -110h-189l-73 -521h163zM771 1353q340 0 482 -153.5t99 -457.5l-12 -88q-44 -313 -231.5 -483.5t-480.5 -170.5h-623l-5 105l130 20l73 515h-167l15 110
h167l68 478l-131 20l20 105h596z" />
    <glyph glyph-name="Ntilde" unicode="&#xd1;" horiz-adv-x="1549" 
d="M1158 1353h428l5 -105l-131 -20l-173 -1228h-373l-445 1120h-16l-141 -995l132 -20l-20 -105h-427l-5 105l130 20l156 1103l-131 20l20 105h503l444 -1118h16l139 993l-131 20zM1190 1645q42 -1 72 29q32 30 42 91l118 10l-10 -72q-17 -119 -88 -187t-173 -67
q-101 0 -271 66q-169 66 -202 66q-61 0 -91 -21t-37 -77l-110 -10l7 50q18 127 94 191t185 63q109 0 264 -66q58 -25 108 -45t92 -21z" />
    <glyph glyph-name="Ograve" unicode="&#xd2;" horiz-adv-x="1430" 
d="M442 222q76 -124 223 -125q147 0 261 59q105 231 142 494l18 133q65 473 -276 473q-132 0 -253 -58q-104 -228 -143 -495l-18 -133q-30 -224 46 -348zM628 -22q-316 0 -447 137q-130 137 -92 410l11 79q52 378 242 574t508 197q318 -1 450 -139t93 -409l-11 -78
q-54 -379 -246 -575t-508 -196zM955 1471l-146 -11l-360 248l9 66l283 10l219 -281z" />
    <glyph glyph-name="Oacute" unicode="&#xd3;" horiz-adv-x="1430" 
d="M442 222q76 -124 223 -125q147 0 261 59q105 231 142 494l18 133q65 473 -276 473q-132 0 -253 -58q-104 -228 -143 -495l-18 -133q-30 -224 46 -348zM628 -22q-316 0 -447 137q-130 137 -92 410l11 79q52 378 242 574t508 197q318 -1 450 -139t93 -409l-11 -78
q-54 -379 -246 -575t-508 -196zM712 1503l278 281l282 -10v-66l-415 -248l-145 11v32z" />
    <glyph glyph-name="Ocircumflex" unicode="&#xd4;" horiz-adv-x="1430" 
d="M442 222q76 -124 223 -125q147 0 261 59q105 231 142 494l18 133q65 473 -276 473q-132 0 -253 -58q-104 -228 -143 -495l-18 -133q-30 -224 46 -348zM628 -22q-316 0 -447 137q-130 137 -92 410l11 79q52 378 242 574t508 197q318 -1 450 -139t93 -409l-11 -78
q-54 -379 -246 -575t-508 -196zM1224 1470l-156 -10l-197 185l-262 -185l-123 10l5 32l303 292l222 -10l213 -282z" />
    <glyph glyph-name="Otilde" unicode="&#xd5;" horiz-adv-x="1430" 
d="M442 222q76 -124 223 -125q147 0 261 59q105 231 142 494l18 133q65 473 -276 473q-132 0 -253 -58q-104 -228 -143 -495l-18 -133q-30 -224 46 -348zM628 -22q-316 0 -447 137q-130 137 -92 410l11 79q52 378 242 574t508 197q318 -1 450 -139t93 -409l-11 -78
q-54 -379 -246 -575t-508 -196zM1116 1645q42 -1 74 29t41 91l118 10l-10 -72q-17 -119 -88 -187t-173 -67q-102 0 -272 66q-169 66 -201 66q-61 0 -91 -21t-37 -77l-110 -10l7 50q18 127 94 191t185 63q109 0 264 -66q59 -25 109 -45q48 -20 90 -21z" />
    <glyph glyph-name="Odieresis" unicode="&#xd6;" horiz-adv-x="1430" 
d="M442 222q76 -124 223 -125q147 0 261 59q105 231 142 494l18 133q65 473 -276 473q-132 0 -253 -58q-104 -228 -143 -495l-18 -133q-30 -224 46 -348zM628 -22q-316 0 -447 137q-130 137 -92 410l11 79q52 378 242 574t508 197q318 -1 450 -139t93 -409l-11 -78
q-54 -379 -246 -575t-508 -196zM1033 1683q31 45 68 45q68 0 112 -31t44 -69q0 -67 -31 -113q-31 -45 -70 -45q-38 0 -65 8t-47 24q-42 33 -42 84q0 52 31 97zM492 1684q31 44 68 44q69 0 112 -31t43 -69q-1 -66 -31 -112t-68 -46t-65 8t-47 24q-44 32 -44 84q0 53 32 98z
" />
    <glyph glyph-name="multiply" unicode="&#xd7;" horiz-adv-x="1039" 
d="M284 978l240 -241l241 241l144 -144l-241 -241l241 -240l-144 -144l-241 240l-240 -240l-144 144l240 240l-240 241z" />
    <glyph glyph-name="Oslash" unicode="&#xd8;" horiz-adv-x="1430" 
d="M786 1256q-135 0 -255 -58q-107 -234 -143 -495l-18 -133q-32 -233 54 -361l467 1032q-49 15 -105 15zM638 97q147 0 262 59q105 233 142 494l18 133q36 271 -60 386l-474 -1048q52 -24 112 -24zM600 -22q-72 0 -136 8l-78 -174h-134l2 20l81 179q-170 51 -235.5 178.5
t-36.5 335.5l11 79q106 771 761 771q60 0 114 -6l77 171h135l-2 -20l-79 -175q347 -96 287 -518l-11 -78q-53 -378 -245 -574.5t-511 -196.5z" />
    <glyph glyph-name="Ugrave" unicode="&#xd9;" horiz-adv-x="1452" 
d="M640 -22q-288 0 -403 126t-79 387l103 737l-131 20l20 105h537l5 -105l-131 -20l-95 -682q-64 -449 241 -449q172 0 275 76q68 130 99 348l99 707l-131 20l20 105h428l5 -105l-131 -20l-99 -710q-38 -274 -191 -407t-441 -133zM995 1471l-146 -11l-360 248l9 66l283 10
l219 -281z" />
    <glyph glyph-name="Uacute" unicode="&#xda;" horiz-adv-x="1452" 
d="M640 -22q-288 0 -403 126t-79 387l103 737l-131 20l20 105h537l5 -105l-131 -20l-95 -682q-64 -449 241 -449q172 0 275 76q68 130 99 348l99 707l-131 20l20 105h428l5 -105l-131 -20l-99 -710q-38 -274 -191 -407t-441 -133zM752 1503l278 281l282 -10v-66l-415 -248
l-145 11v32z" />
    <glyph glyph-name="Ucircumflex" unicode="&#xdb;" horiz-adv-x="1452" 
d="M640 -22q-288 0 -403 126t-79 387l103 737l-131 20l20 105h537l5 -105l-131 -20l-95 -682q-64 -449 241 -449q172 0 275 76q68 130 99 348l99 707l-131 20l20 105h428l5 -105l-131 -20l-99 -710q-38 -274 -191 -407t-441 -133zM1264 1470l-156 -10l-197 185l-262 -185
l-123 10l5 32l303 292l222 -10l213 -282z" />
    <glyph glyph-name="Udieresis" unicode="&#xdc;" horiz-adv-x="1452" 
d="M640 -22q-288 0 -403 126t-79 387l103 737l-131 20l20 105h537l5 -105l-131 -20l-95 -682q-64 -449 241 -449q172 0 275 76q68 130 99 348l99 707l-131 20l20 105h428l5 -105l-131 -20l-99 -710q-38 -274 -191 -407t-441 -133zM1073 1683q31 45 68 45q68 0 112 -31
t44 -69q0 -67 -31 -113q-31 -45 -70 -45q-38 0 -65 8t-47 24q-42 33 -42 84q0 52 31 97zM532 1684q31 44 68 44q69 0 112 -31t43 -69q-1 -66 -31 -112t-68 -46t-65 8t-47 24q-44 32 -44 84q0 53 32 98z" />
    <glyph glyph-name="Yacute" unicode="&#xdd;" horiz-adv-x="1162" 
d="M42 1353h481l11 -105l-105 -15l229 -463h16l345 464l-100 14l14 105h396l11 -105l-122 -24l-455 -607l-70 -492l132 -20l-20 -105h-537l-5 105l130 20l65 461l-320 640l-110 22zM604 1503l278 281l282 -10v-66l-415 -248l-145 11v32z" />
    <glyph glyph-name="Thorn" unicode="&#xde;" horiz-adv-x="1179" 
d="M560 457q106 0 185 18q62 110 80 237t-37 190.5t-189 63.5h-56l-72 -509h89zM681 1085q375 0 419.5 -131t31.5 -226q-25 -181 -170.5 -285.5t-337.5 -104.5h-170l-30 -213l182 -20l-20 -105h-587l-5 105l130 20l156 1103l-131 20l20 105h537l5 -105l-131 -20l-20 -143
h121z" />
    <glyph glyph-name="germandbls" unicode="&#xdf;" horiz-adv-x="1296" 
d="M806 1562q208 0 317 -80.5t84 -236.5q-39 -236 -270 -418l132 -142q200 -227 176 -380q-25 -158 -139 -242.5t-284 -84.5t-297 65l32 256h133l24 -199q48 -12 83 -12q64 0 102 14q30 47 40 101q17 91 -23 168.5t-149 205.5l-92 112l19 119q198 198 217 383
q15 150 -18.5 205.5t-102.5 55.5t-120 -18q-54 -111 -75 -253l-175 -1228q-52 -332 -192 -371t-212 -39q-169 0 -296 47l45 131q143 -51 269 -51q65 83 93 256l148 1055h-189l14 104h190l9 64q50 299 225.5 356t281.5 57z" />
    <glyph glyph-name="agrave" unicode="&#xe0;" horiz-adv-x="1244" 
d="M448 106q50 0 130 80t165 207l82 589q-71 21 -151 21t-163 -30q-80 -151 -113 -381l-18 -131q-24 -167 -14 -261t82 -94zM341 -22q-160 0 -226 96t-38 299l26 188q37 252 195 399t375 147t449 -78l-126 -904l132 -20l-20 -105l-330 -22l-81 78l23 169q-82 -115 -181 -181
t-198 -66zM812 1275l-149 -10l-274 329l10 66l286 10l132 -363z" />
    <glyph glyph-name="aacute" unicode="&#xe1;" horiz-adv-x="1244" 
d="M448 106q50 0 130 80t165 207l82 589q-71 21 -151 21t-163 -30q-80 -151 -113 -381l-18 -131q-24 -167 -14 -261t82 -94zM341 -22q-160 0 -226 96t-38 299l26 188q37 252 195 399t375 147t449 -78l-126 -904l132 -20l-20 -105l-330 -22l-81 78l23 169q-82 -115 -181 -181
t-198 -66zM675 1307l234 363l271 -10l-10 -66l-366 -329l-134 10z" />
    <glyph glyph-name="acircumflex" unicode="&#xe2;" horiz-adv-x="1244" 
d="M448 106q50 0 130 80t165 207l82 589q-71 21 -151 21t-163 -30q-80 -151 -113 -381l-18 -131q-24 -167 -14 -261t82 -94zM341 -22q-160 0 -226 96t-38 299l26 188q37 252 195 399t375 147t449 -78l-126 -904l132 -20l-20 -105l-330 -22l-81 78l23 169q-82 -115 -181 -181
t-198 -66zM1068 1275l-157 -10l-170 247l-239 -247l-123 10l4 32l286 373l221 -10l182 -363z" />
    <glyph glyph-name="atilde" unicode="&#xe3;" horiz-adv-x="1244" 
d="M448 106q50 0 130 80t165 207l82 589q-71 21 -151 21t-163 -30q-80 -151 -113 -381l-18 -131q-24 -167 -14 -261t82 -94zM341 -22q-160 0 -226 96t-38 299l26 188q37 252 195 399t375 147t449 -78l-126 -904l132 -20l-20 -105l-330 -22l-81 78l23 169q-82 -115 -181 -181
t-198 -66zM976 1429q34 -1 61 29q26 30 36 91l118 10l-10 -72q-17 -119 -83 -187t-157 -67q-92 0 -240 66q-56 25 -104 45t-83 21q-35 0 -61 -19t-35 -79l-110 -10l7 50q19 127 89 191t168 63q98 0 232 -66q50 -25 94 -45t78 -21z" />
    <glyph glyph-name="adieresis" unicode="&#xe4;" horiz-adv-x="1244" 
d="M448 106q50 0 130 80t165 207l82 589q-71 21 -151 21t-163 -30q-80 -151 -113 -381l-18 -131q-24 -167 -14 -261t82 -94zM341 -22q-160 0 -226 96t-38 299l26 188q37 252 195 399t375 147t449 -78l-126 -904l132 -20l-20 -105l-330 -22l-81 78l23 169q-82 -115 -181 -181
t-198 -66zM881 1495q31 45 68 45q69 0 112 -32q44 -32 44 -69q0 -66 -31 -112q-31 -45 -70 -45q-38 0 -65 8t-47 24q-42 33 -42 84q0 52 31 97zM402 1496q31 44 68 44q69 0 112 -32t43 -69q-1 -65 -31 -111t-68 -46t-65 8t-47 24q-44 32 -44 84q0 53 32 98z" />
    <glyph glyph-name="aring" unicode="&#xe5;" horiz-adv-x="1244" 
d="M448 106q50 0 130 80t165 207l82 589q-71 21 -151 21t-163 -30q-80 -151 -113 -381l-18 -131q-24 -167 -14 -261t82 -94zM341 -22q-160 0 -226 96t-38 299l26 188q37 252 195 399t375 147t449 -78l-126 -904l132 -20l-20 -105l-330 -22l-81 78l23 169q-82 -115 -181 -181
t-198 -66zM828 1560q-18 32 -48 33q-30 0 -56 -9q-23 -42 -32 -109q-8 -67 10 -99t54 -33q36 0 59 9q11 30 21 103t-8 105zM953 1632q55 -43 45 -119q-18 -133 -92 -193t-181 -60q-153 0 -188 96q-13 34 -5 88t34 98t62 74q73 58 172 59q98 0 153 -43z" />
    <glyph glyph-name="ae" unicode="&#xe6;" horiz-adv-x="1605" 
d="M1241 603q69 138 65 251.5t-36 128t-58 14.5q-58 0 -117 -29q-112 -158 -150 -376q96 -6 174 -6t122 17zM555.5 141q82.5 53 129.5 94q-19 86 -4 194l9 63q-234 -3 -327 -54q-42 -68 -55 -168q-12 -99 14 -140.5t89 -41.5q62 0 144.5 53zM1259 1107q265 0 297.5 -113
t22.5 -187q-20 -144 -151.5 -234.5t-321.5 -90.5q-99 0 -176 8l-7 -47q-25 -177 42 -266t195 -89q129 0 285 90v-106q-146 -94 -360 -94q-277 0 -370 177q-194 -177 -421 -177q-144 0 -221 68.5t-59 197.5q36 255 278 306.5t413 51.5l14 100q33 231 -49 263t-118 32
t-65 -2.5t-54 -6t-51 -6.5l-90 -232h-127l40 303q176 54 381 54q252 0 337 -117q141 117 336 117z" />
    <glyph glyph-name="ccedilla" unicode="&#xe7;" horiz-adv-x="965" 
d="M551 88q141 0 294 90v-106q-124 -71 -290 -89l-44 -88q105 -19 153.5 -59.5t36.5 -119.5q-19 -122 -115 -147.5t-146 -25.5q-122 0 -205 47l13 93q95 -40 154 -40q60 0 88 7q29 43 17.5 93.5t-120.5 70.5l-26 64l51 102q-401 28 -340 449l13 93q40 280 205 432.5
t396 152.5q180 0 299 -52l-56 -257l-126 -10v195q-68 14 -142 14t-156 -35q-91 -167 -125 -400l-16 -119q-25 -170 10.5 -262.5t176.5 -92.5z" />
    <glyph glyph-name="egrave" unicode="&#xe8;" horiz-adv-x="1023" 
d="M388 596q92 -10 149 -10q56 0 97 13q61 89 76 198q16 109 -7 155t-86 45q-63 0 -119 -29q-73 -161 -110 -372zM664 1107q381 0 343 -283q-23 -162 -153 -252t-335 -90q-79 0 -146 12l-7 -51q-26 -173 20 -264t178 -91t304 90v-106q-169 -94 -400 -94q-457 0 -394 451
l13 93q41 277 195 431t382 154zM775 1275l-149 -10l-274 329l10 66l286 10l132 -363z" />
    <glyph glyph-name="eacute" unicode="&#xe9;" horiz-adv-x="1023" 
d="M388 596q92 -10 149 -10q56 0 97 13q61 89 76 198q16 109 -7 155t-86 45q-63 0 -119 -29q-73 -161 -110 -372zM664 1107q381 0 343 -283q-23 -162 -153 -252t-335 -90q-79 0 -146 12l-7 -51q-26 -173 20 -264t178 -91t304 90v-106q-169 -94 -400 -94q-457 0 -394 451
l13 93q41 277 195 431t382 154zM638 1307l234 363l271 -10l-10 -66l-366 -329l-134 10z" />
    <glyph glyph-name="ecircumflex" unicode="&#xea;" horiz-adv-x="1023" 
d="M388 596q92 -10 149 -10q56 0 97 13q61 89 76 198q16 109 -7 155t-86 45q-63 0 -119 -29q-73 -161 -110 -372zM664 1107q381 0 343 -283q-23 -162 -153 -252t-335 -90q-79 0 -146 12l-7 -51q-26 -173 20 -264t178 -91t304 90v-106q-169 -94 -400 -94q-457 0 -394 451
l13 93q41 277 195 431t382 154zM1031 1275l-157 -10l-170 247l-239 -247l-123 10l4 32l286 373l221 -10l182 -363z" />
    <glyph glyph-name="edieresis" unicode="&#xeb;" horiz-adv-x="1023" 
d="M388 596q92 -10 149 -10q56 0 97 13q61 89 76 198q16 109 -7 155t-86 45q-63 0 -119 -29q-73 -161 -110 -372zM664 1107q381 0 343 -283q-23 -162 -153 -252t-335 -90q-79 0 -146 12l-7 -51q-26 -173 20 -264t178 -91t304 90v-106q-169 -94 -400 -94q-457 0 -394 451
l13 93q41 277 195 431t382 154zM844 1495q31 45 68 45q69 0 112 -32q44 -32 44 -69q0 -66 -31 -112q-31 -45 -70 -45q-38 0 -65 8q-26 8 -46 24q-42 33 -43 84q0 52 31 97zM364 1496q31 44 69 44q69 0 112 -32t43 -69q0 -65 -30 -111t-69 -46q-38 0 -65 8q-28 8 -48 24
q-44 32 -43 84q-1 53 31 98z" />
    <glyph glyph-name="igrave" unicode="&#xec;" horiz-adv-x="704" 
d="M156 1085l331 22l81 -78l-126 -904l131 -20l-20 -105l-330 -22l-81 78l125 904l-131 20zM475 1275l-149 -10l-274 329l10 66l286 10l132 -363z" />
    <glyph glyph-name="iacute" unicode="&#xed;" horiz-adv-x="704" 
d="M156 1085l331 22l81 -78l-126 -904l131 -20l-20 -105l-330 -22l-81 78l125 904l-131 20zM337 1307l234 363l271 -10l-10 -66l-366 -329l-134 10z" />
    <glyph glyph-name="icircumflex" unicode="&#xee;" horiz-adv-x="704" 
d="M156 1085l331 22l81 -78l-126 -904l131 -20l-20 -105l-330 -22l-81 78l125 904l-131 20zM731 1275l-157 -10l-170 247l-239 -247l-123 10l4 32l286 373l221 -10l182 -363z" />
    <glyph glyph-name="idieresis" unicode="&#xef;" horiz-adv-x="704" 
d="M156 1085l331 22l81 -78l-126 -904l131 -20l-20 -105l-330 -22l-81 78l125 904l-131 20zM544 1495q31 45 68 45q69 0 112 -32q44 -32 44 -69q0 -66 -31 -112q-31 -45 -70 -45q-38 0 -65 8q-26 8 -46 24q-42 33 -43 84q0 52 31 97zM64 1496q31 44 69 44q69 0 112 -32
t43 -69q0 -65 -30 -111t-69 -46q-38 0 -65 8q-28 8 -48 24q-44 32 -43 84q-1 53 31 98z" />
    <glyph glyph-name="eth" unicode="&#xf0;" horiz-adv-x="1169" 
d="M515 968q-103 -180 -135 -406l-17 -119q-38 -278 37 -316.5t109 -38.5q83 0 150 30q102 160 134 395l16 119q40 296 -35 330.5t-131 34.5q-55 0 -128 -29zM688 1107q57 0 130 -22q-30 112 -112 213l-276 -123l-33 104l231 102q-75 70 -196 149l142 32q113 -47 205 -113
l250 111l33 -103l-191 -85q290 -278 230 -725l-13 -95q-35 -249 -204.5 -411.5t-407.5 -162.5q-473 0 -405 451l14 93q43 283 209.5 434t393.5 151z" />
    <glyph glyph-name="ntilde" unicode="&#xf1;" horiz-adv-x="1362" 
d="M541 859q199 248 443 248q256 0 214 -288l-95 -694l131 -20l-20 -105l-330 -22l-81 78l93 675q19 130 11 189t-52 59q-55 1 -141 -71t-196 -216l-100 -714l-286 22l132 960l-131 20l20 105l331 22l81 -78zM1070 1429q34 -1 60 29t36 91l118 10l-10 -72q-16 -119 -82 -187
t-158 -67q-92 0 -240 66q-56 25 -104 45t-83 21q-35 0 -61 -19t-35 -79l-110 -10l7 50q18 127 88 191t169 63q98 0 232 -66q51 -25 95 -45t78 -21z" />
    <glyph glyph-name="ograve" unicode="&#xf2;" 
d="M378 176q40 -88 124 -88t155 30q102 158 134 395l16 119q52 365 -145 365q-76 0 -149 -29q-101 -178 -135 -406l-17 -119q-23 -179 17 -267zM474 -22q-466 0 -404 451l13 93q41 279 207 432t405 153q238 0 337 -114t67 -346l-13 -95q-38 -258 -210 -416t-402 -158z
M824 1275l-149 -10l-274 329l10 66l286 10l132 -363z" />
    <glyph glyph-name="oacute" unicode="&#xf3;" 
d="M378 176q40 -88 124 -88t155 30q102 158 134 395l16 119q52 365 -145 365q-76 0 -149 -29q-101 -178 -135 -406l-17 -119q-23 -179 17 -267zM474 -22q-466 0 -404 451l13 93q41 279 207 432t405 153q238 0 337 -114t67 -346l-13 -95q-38 -258 -210 -416t-402 -158z
M687 1307l234 363l271 -10l-10 -66l-366 -329l-134 10z" />
    <glyph glyph-name="ocircumflex" unicode="&#xf4;" 
d="M378 176q40 -88 124 -88t155 30q102 158 134 395l16 119q52 365 -145 365q-76 0 -149 -29q-101 -178 -135 -406l-17 -119q-23 -179 17 -267zM474 -22q-466 0 -404 451l13 93q41 279 207 432t405 153q238 0 337 -114t67 -346l-13 -95q-38 -258 -210 -416t-402 -158z
M1080 1275l-157 -10l-170 247l-239 -247l-123 10l4 32l286 373l221 -10l182 -363z" />
    <glyph glyph-name="otilde" unicode="&#xf5;" 
d="M378 176q40 -88 124 -88t155 30q102 158 134 395l16 119q52 365 -145 365q-76 0 -149 -29q-101 -178 -135 -406l-17 -119q-23 -179 17 -267zM474 -22q-466 0 -404 451l13 93q41 279 207 432t405 153q238 0 337 -114t67 -346l-13 -95q-38 -258 -210 -416t-402 -158z
M988 1429q34 -1 61 29q26 30 36 91l118 10l-10 -72q-17 -119 -83 -187t-157 -67q-92 0 -240 66q-56 25 -104 45t-83 21q-35 0 -61 -19t-35 -79l-110 -10l7 50q19 127 89 191t168 63q98 0 232 -66q50 -25 94 -45t78 -21z" />
    <glyph glyph-name="odieresis" unicode="&#xf6;" 
d="M378 176q40 -88 124 -88t155 30q102 158 134 395l16 119q52 365 -145 365q-76 0 -149 -29q-101 -178 -135 -406l-17 -119q-23 -179 17 -267zM474 -22q-466 0 -404 451l13 93q41 279 207 432t405 153q238 0 337 -114t67 -346l-13 -95q-38 -258 -210 -416t-402 -158z
M893 1495q31 45 68 45q69 0 112 -32q44 -32 44 -69q0 -66 -31 -112q-31 -45 -70 -45q-38 0 -65 8t-47 24q-42 33 -42 84q0 52 31 97zM414 1496q31 44 68 44q69 0 112 -32t43 -69q-1 -65 -31 -111t-68 -46t-65 8t-47 24q-44 32 -44 84q0 53 32 98z" />
    <glyph glyph-name="divide" unicode="&#xf7;" horiz-adv-x="1183" 
d="M504 1057q29 50 66 50q71 0 119 -29t48 -66q0 -69 -29.5 -118.5t-66.5 -49.5t-67 7.5t-64.5 28.5t-34.5 74t29 103zM503.5 293q28.5 49 65.5 49q71 0 119.5 -29t48.5 -66q0 -71 -29 -119.5t-67 -48.5q-37 0 -67 7.5t-64.5 28t-34.5 74.5q0 55 28.5 104zM150 687h893v-187
h-893v187z" />
    <glyph glyph-name="oslash" unicode="&#xf8;" 
d="M513 968q-103 -180 -135 -406l-17 -119q-19 -124 -1 -216l346 765q-23 5 -74 5q-50 0 -119 -29zM657 118q102 160 134 395l16 119q23 169 -5 258l-357 -789q26 -13 87 -13q62 0 125 30zM694 1107q33 0 63 -2l73 160h135l-2 -20l-74 -164q259 -81 210 -434l-13 -95
q-35 -249 -205 -411.5t-405 -162.5q-45 0 -85 4l-77 -170h-134l2 20l80 178q-240 88 -192 419l13 93q38 281 207 433t404 152z" />
    <glyph glyph-name="ugrave" unicode="&#xf9;" horiz-adv-x="1344" 
d="M372 -22q-253 0 -211 288l95 694l-132 20l20 105l331 22l78 -98l-92 -670q-16 -119 -8 -176t66 -57t143 74t177 210l79 570l-131 20l20 105l331 22l81 -78l-126 -904l131 -20l-20 -105l-330 -22l-81 78l23 167q-88 -113 -202 -179t-242 -66zM820 1275l-149 -10l-274 329
l10 66l286 10l132 -363z" />
    <glyph glyph-name="uacute" unicode="&#xfa;" horiz-adv-x="1344" 
d="M372 -22q-253 0 -211 288l95 694l-132 20l20 105l331 22l78 -98l-92 -670q-16 -119 -8 -176t66 -57t143 74t177 210l79 570l-131 20l20 105l331 22l81 -78l-126 -904l131 -20l-20 -105l-330 -22l-81 78l23 167q-88 -113 -202 -179t-242 -66zM683 1307l234 363l271 -10
l-10 -66l-366 -329l-134 10z" />
    <glyph glyph-name="ucircumflex" unicode="&#xfb;" horiz-adv-x="1344" 
d="M372 -22q-253 0 -211 288l95 694l-132 20l20 105l331 22l78 -98l-92 -670q-16 -119 -8 -176t66 -57t143 74t177 210l79 570l-131 20l20 105l331 22l81 -78l-126 -904l131 -20l-20 -105l-330 -22l-81 78l23 167q-88 -113 -202 -179t-242 -66zM1076 1275l-157 -10l-170 247
l-239 -247l-123 10l4 32l286 373l221 -10l182 -363z" />
    <glyph glyph-name="udieresis" unicode="&#xfc;" horiz-adv-x="1344" 
d="M372 -22q-253 0 -211 288l95 694l-132 20l20 105l331 22l78 -98l-92 -670q-16 -119 -8 -176t66 -57t143 74t177 210l79 570l-131 20l20 105l331 22l81 -78l-126 -904l131 -20l-20 -105l-330 -22l-81 78l23 167q-88 -113 -202 -179t-242 -66zM889 1495q31 45 68 45
q69 0 112 -32q44 -32 44 -69q0 -66 -31 -112q-31 -45 -70 -45q-38 0 -65 8t-47 24q-42 33 -42 84q0 52 31 97zM410 1496q31 44 68 44q69 0 112 -32t43 -69q-1 -65 -31 -111t-68 -46t-65 8t-47 24q-44 32 -44 84q0 53 32 98z" />
    <glyph glyph-name="yacute" unicode="&#xfd;" horiz-adv-x="1283" 
d="M381 -22q-133 0 -186 72t-32 216l95 694l-132 20l20 105l331 22l81 -78l-95 -695q-16 -118 -10 -173q7 -55 59 -55q111 0 330 285l79 569l-132 20l20 105l331 22l81 -78l-126 -900q-43 -276 -201 -431t-373 -155t-435 90l42 180q315 -130 504 -130q54 46 100 148t68 258
l18 134q-78 -109 -191 -177t-246 -68zM685 1307l234 363l271 -10l-10 -66l-366 -329l-134 10z" />
    <glyph glyph-name="thorn" unicode="&#xfe;" horiz-adv-x="1216" 
d="M714 112q78 167 107 381l18 131q41 294 3 324.5t-68 30.5t-64 -19.5t-66.5 -49.5t-62 -65.5t-52 -68t-37 -56.5t-18.5 -30l-83 -595q52 -13 151 -13t172 30zM883 1107q160 0 223.5 -91.5t34.5 -303.5l-26 -188q-31 -235 -184.5 -390.5t-394.5 -155.5q-76 0 -160 13
l-42 -301l132 -20l-20 -105h-527l-5 105l130 20l241 1725l-132 20l21 105l330 22l81 -78l-88 -624q180 247 386 247z" />
    <glyph glyph-name="ydieresis" unicode="&#xff;" horiz-adv-x="1283" 
d="M381 -22q-133 0 -186 72t-32 216l95 694l-132 20l20 105l331 22l81 -78l-95 -695q-16 -118 -10 -173q7 -55 59 -55q111 0 330 285l79 569l-132 20l20 105l331 22l81 -78l-126 -900q-43 -276 -201 -431t-373 -155t-435 90l42 180q315 -130 504 -130q54 46 100 148t68 258
l18 134q-78 -109 -191 -177t-246 -68zM891 1495q31 45 68 45q69 0 112 -32q44 -32 44 -69q0 -66 -31 -112q-31 -45 -70 -45q-38 0 -65 8t-47 24q-42 33 -42 84q0 52 31 97zM412 1496q31 44 68 44q69 0 112 -32t43 -69q-1 -65 -31 -111t-68 -46t-65 8t-47 24q-44 32 -44 84
q0 53 32 98z" />
    <glyph glyph-name="Amacron" unicode="&#x100;" horiz-adv-x="1277" 
d="M636 1007l-241 -492h355l-98 492h-16zM320 0h-404l-8 105l110 20l613 1228h239l257 -1229l106 -19l-17 -105h-517l-8 105l137 19l-54 272h-437l-133 -273l133 -18zM379 1680h810l-19 -150h-810z" />
    <glyph glyph-name="amacron" unicode="&#x101;" horiz-adv-x="1244" 
d="M448 106q50 0 130 80t165 207l82 589q-71 21 -151 21t-163 -30q-80 -151 -113 -381l-18 -131q-24 -167 -14 -261t82 -94zM341 -22q-160 0 -226 96t-38 299l26 188q37 252 195 399t375 147t449 -78l-126 -904l132 -20l-20 -105l-330 -22l-81 78l23 169q-82 -115 -181 -181
t-198 -66zM405 1483h750l-40 -150h-750z" />
    <glyph glyph-name="Abreve" unicode="&#x102;" horiz-adv-x="1277" 
d="M636 1007l-241 -492h355l-98 492h-16zM320 0h-404l-8 105l110 20l613 1228h239l257 -1229l106 -19l-17 -105h-517l-8 105l137 19l-54 272h-437l-133 -273l133 -18zM519 1548q-81 91 -67 201l108 10q-7 -41 26 -71q34 -29 80 -45t124 -16q134 0 197 45q64 45 71 87
l105 -10q-14 -107 -121 -199q-108 -93 -275 -93t-248 91z" />
    <glyph glyph-name="abreve" unicode="&#x103;" horiz-adv-x="1244" 
d="M448 106q50 0 130 80t165 207l82 589q-71 21 -151 21t-163 -30q-80 -151 -113 -381l-18 -131q-24 -167 -14 -261t82 -94zM341 -22q-160 0 -226 96t-38 299l26 188q37 252 195 399t375 147t449 -78l-126 -904l132 -20l-20 -105l-330 -22l-81 78l23 169q-82 -115 -181 -181
t-198 -66zM498 1364q-74 99 -56 228l108 10q-8 -50 24 -86t72 -54t101 -17q108 0 170 53t71 104l106 -10q-17 -128 -120 -227q-103 -100 -252 -100q-150 0 -224 99z" />
    <glyph glyph-name="Aogonek" unicode="&#x104;" horiz-adv-x="1277" 
d="M636 1007l-241 -492h355l-98 492h-16zM853 0q-197 -144 -217 -278q-10 -69 46 -69q57 0 173 80l-16 -103q-111 -87 -251 -87q-84 0 -121.5 31t-28.5 99q26 213 392 440l-56 283h-437l-133 -273l133 -18l-17 -105h-404l-8 105l110 20l613 1228h239l257 -1229l106 -19
l-17 -105h-363z" />
    <glyph glyph-name="aogonek" unicode="&#x105;" horiz-adv-x="1244" 
d="M511 973q-80 -146 -113 -381l-18 -131q-41 -292 -1.5 -323.5t67.5 -31.5t58.5 19t95 80.5t143.5 187.5l82 589q-67 21 -149 21q-83 0 -165 -30zM720 225q-172 -247 -392 -247q-145 0 -212.5 96t-38.5 299l26 188q32 237 186.5 391.5t399.5 154.5q192 0 433 -78l-126 -904
l132 -20l-20 -105q-197 -144 -217 -278q-11 -69 45 -69q57 0 174 80l-16 -103q-111 -87 -251 -87q-84 0 -121.5 31t-26.5 113q18 145 244 302l-161 -11l-81 78z" />
    <glyph glyph-name="Cacute" unicode="&#x106;" horiz-adv-x="1218" 
d="M838 1375q230 0 370 -59l-17 -290h-168l-46 210q-65 20 -155 20q-168 0 -285 -68q-108 -239 -146 -505l-18 -133q-31 -220 55 -336t271 -117q185 0 388 104l-15 -96q-221 -127 -477 -127q-611 0 -537 537l12 89q54 381 250 576t518 195zM737 1503l278 281l282 -10v-66
l-415 -248l-145 11v32z" />
    <glyph glyph-name="cacute" unicode="&#x107;" horiz-adv-x="965" 
d="M551 88q141 0 294 90v-106q-163 -94 -385 -94q-221 0 -321 112t-67 339l13 93q40 280 205 432t396 153q180 0 299 -52l-56 -257l-126 -10v195q-68 14 -142 14t-156 -35q-91 -167 -125 -400l-16 -119q-26 -171 10 -263t177 -92zM644 1307l234 363l271 -10l-10 -66
l-366 -329l-134 10z" />
    <glyph glyph-name="Ccircumflex" unicode="&#x108;" horiz-adv-x="1218" 
d="M838 1375q230 0 370 -59l-17 -290h-168l-46 210q-65 20 -155 20q-168 0 -285 -68q-108 -239 -146 -505l-18 -133q-31 -220 55 -336t271 -117q185 0 388 104l-15 -96q-221 -127 -477 -127q-611 0 -537 537l12 89q54 381 250 576t518 195zM1249 1470l-156 -10l-197 185
l-262 -185l-123 10l5 32l303 292l222 -10l213 -282z" />
    <glyph glyph-name="ccircumflex" unicode="&#x109;" horiz-adv-x="965" 
d="M551 88q141 0 294 90v-106q-163 -94 -385 -94q-221 0 -321 112t-67 339l13 93q40 280 205 432t396 153q180 0 299 -52l-56 -257l-126 -10v195q-68 14 -142 14t-156 -35q-91 -167 -125 -400l-16 -119q-26 -171 10 -263t177 -92zM1037 1275l-157 -10l-170 247l-239 -247
l-123 10l4 32l286 373l221 -10l182 -363z" />
    <glyph glyph-name="Cdotaccent" unicode="&#x10a;" horiz-adv-x="1218" 
d="M838 1375q230 0 370 -59l-17 -290h-168l-46 210q-65 20 -155 20q-168 0 -285 -68q-108 -239 -146 -505l-18 -133q-31 -220 55 -336t271 -117q185 0 388 104l-15 -96q-221 -127 -477 -127q-611 0 -537 537l12 89q54 381 250 576t518 195zM811 1701q35 50 76 50
q75 0 124 -35t49 -76q0 -76 -35 -125t-77 -49q-41 0 -71 10q-31 10 -53 25q-48 34 -48 92t35 108z" />
    <glyph glyph-name="cdotaccent" unicode="&#x10b;" horiz-adv-x="965" 
d="M551 88q141 0 294 90v-106q-163 -94 -385 -94q-221 0 -321 112t-67 339l13 93q40 280 205 432t396 153q180 0 299 -52l-56 -257l-126 -10v195q-68 14 -142 14t-156 -35q-91 -167 -125 -400l-16 -119q-26 -171 10 -263t177 -92zM623 1512q35 50 76 50q75 0 124 -35t49 -76
q0 -76 -35 -125t-77 -49q-41 -1 -71 9q-31 10 -53 26q-48 34 -48 92t35 108z" />
    <glyph glyph-name="Ccaron" unicode="&#x10c;" horiz-adv-x="1218" 
d="M838 1375q230 0 370 -59l-17 -290h-168l-46 210q-65 20 -155 20q-168 0 -285 -68q-108 -239 -146 -505l-18 -133q-31 -220 55 -336t271 -117q185 0 388 104l-15 -96q-221 -127 -477 -127q-611 0 -537 537l12 89q54 381 250 576t518 195zM547 1784l155 10l196 -185
l263 185l124 -10l-5 -32l-304 -292l-222 10l-212 282z" />
    <glyph glyph-name="ccaron" unicode="&#x10d;" horiz-adv-x="965" 
d="M551 88q141 0 294 90v-106q-163 -94 -385 -94q-221 0 -321 112t-67 339l13 93q40 280 205 432t396 153q180 0 299 -52l-56 -257l-126 -10v195q-68 14 -142 14t-156 -35q-91 -167 -125 -400l-16 -119q-26 -171 10 -263t177 -92zM406 1660l157 10l169 -248l240 248l123 -10
l-4 -32l-286 -373l-221 10l-182 363z" />
    <glyph glyph-name="Dcaron" unicode="&#x10e;" horiz-adv-x="1438" 
d="M593 119q162 0 264 39q57 75 107 196t72 268l13 94q37 266 -43 392t-282 126h-137l-157 -1115h163zM771 1353q340 1 482 -153t99 -458l-12 -88q-44 -314 -232 -484t-480 -170h-623l-5 105l130 20l156 1103l-131 20l20 105h596zM421 1784l155 10l196 -185l263 185l124 -10
l-5 -32l-304 -292l-222 10l-212 282z" />
    <glyph glyph-name="dcaron" unicode="&#x10f;" horiz-adv-x="1233" 
d="M824 987q-67 16 -154 16q-88 0 -163 -33q-80 -155 -112 -378l-18 -131q-27 -195 -11 -275t78 -80q121 0 297 287zM688 1107q67 0 151 -12l44 320l-131 20l20 105l330 22l81 -78l-190 -1359l132 -20l-20 -105l-330 -22l-81 78l24 171q-84 -123 -182 -186t-198 -63
q-154 0 -222 100t-42 295l26 188q38 256 198 401t390 145zM1307 1540h226l-5 -42l-111 -341h-163z" />
    <glyph glyph-name="Dcroat" unicode="&#x110;" horiz-adv-x="1438" 
d="M593 119q162 0 264 39q57 75 107.5 196t71.5 268l13 94q37 265 -42.5 391.5t-282.5 126.5h-137l-68 -484h188l-15 -110h-189l-73 -521h163zM771 1353q340 0 482 -153.5t99 -457.5l-12 -88q-44 -313 -231.5 -483.5t-480.5 -170.5h-623l-5 105l130 20l73 515h-167l15 110
h167l68 478l-131 20l20 105h596z" />
    <glyph glyph-name="dcroat" unicode="&#x111;" horiz-adv-x="1233" 
d="M824 987q-67 16 -154 16q-88 0 -163 -33q-80 -155 -112 -378l-18 -131q-26 -196 -10.5 -275.5t77.5 -79.5q121 0 297 287zM688 1107q67 0 151 -12l18 136h-319l14 107h320l11 77l-131 20l20 105l330 22l81 -78l-21 -146h113l-14 -107h-114l-154 -1106l132 -20l-20 -105
l-330 -22l-81 78l24 171q-83 -123 -181.5 -186t-198.5 -63q-153 0 -221.5 99.5t-42.5 295.5l26 188q38 256 197.5 401t390.5 145z" />
    <glyph glyph-name="Emacron" unicode="&#x112;" horiz-adv-x="1246" 
d="M816 648h-314l-74 -529h428l105 203l160 -13l-66 -309h-1052l-5 105l130 20l156 1103l-131 20l20 105h1043l-19 -320h-166l-40 201h-406l-66 -467h317l40 127l103 -20l-56 -355l-107 -5v134zM372 1680h810l-19 -150h-810z" />
    <glyph glyph-name="emacron" unicode="&#x113;" horiz-adv-x="1023" 
d="M388 596q92 -10 149 -10q56 0 97 13q61 89 76 198q16 109 -7 155t-86 45q-63 0 -119 -29q-73 -161 -110 -372zM664 1107q381 0 343 -283q-23 -162 -153 -252t-335 -90q-79 0 -146 12l-7 -51q-26 -173 20 -264t178 -91t304 90v-106q-169 -94 -400 -94q-457 0 -394 451
l13 93q41 277 195 431t382 154zM368 1483h750l-40 -150h-750z" />
    <glyph glyph-name="Ebreve" unicode="&#x114;" horiz-adv-x="1246" 
d="M816 648h-314l-74 -529h428l105 203l160 -13l-66 -309h-1052l-5 105l130 20l156 1103l-131 20l20 105h1043l-19 -320h-166l-40 201h-406l-66 -467h317l40 127l103 -20l-56 -355l-107 -5v134zM512 1548q-81 91 -67 201l108 10q-7 -41 26 -71q33 -29 79 -45t125 -16
q134 0 197 45q64 45 71 87l105 -10q-14 -107 -121 -199q-108 -93 -275 -93t-248 91z" />
    <glyph glyph-name="ebreve" unicode="&#x115;" horiz-adv-x="1023" 
d="M388 596q92 -10 149 -10q56 0 97 13q61 89 76 198q16 109 -7 155t-86 45q-63 0 -119 -29q-73 -161 -110 -372zM664 1107q381 0 343 -283q-23 -162 -153 -252t-335 -90q-79 0 -146 12l-7 -51q-26 -173 20 -264t178 -91t304 90v-106q-169 -94 -400 -94q-457 0 -394 451
l13 93q41 277 195 431t382 154zM461 1364q-74 99 -56 228l108 10q-8 -49 24 -86q33 -36 73 -54t100 -17q108 0 170 53t71 104l106 -10q-17 -128 -120 -227q-103 -100 -252 -100q-150 0 -224 99z" />
    <glyph glyph-name="Edotaccent" unicode="&#x116;" horiz-adv-x="1246" 
d="M816 648h-314l-74 -529h428l105 203l160 -13l-66 -309h-1052l-5 105l130 20l156 1103l-131 20l20 105h1043l-19 -320h-166l-40 201h-406l-66 -467h317l40 127l103 -20l-56 -355l-107 -5v134zM687 1701q35 50 76 50q75 0 124 -35t49 -76q0 -76 -35 -125t-77 -49
q-41 0 -71 10q-31 10 -53 25q-48 34 -48 92t35 108z" />
    <glyph glyph-name="edotaccent" unicode="&#x117;" horiz-adv-x="1023" 
d="M388 596q92 -10 149 -10q56 0 97 13q61 89 76 198q16 109 -7 155t-86 45q-63 0 -119 -29q-73 -161 -110 -372zM664 1107q381 0 343 -283q-23 -162 -153 -252t-335 -90q-79 0 -146 12l-7 -51q-26 -173 20 -264t178 -91t304 90v-106q-169 -94 -400 -94q-457 0 -394 451
l13 93q41 277 195 431t382 154zM617 1512q35 50 76 50q75 0 124 -35t49 -76q0 -76 -35 -125t-77 -49q-41 -1 -71 9q-31 10 -53 26q-48 34 -48 92t35 108z" />
    <glyph glyph-name="Eogonek" unicode="&#x118;" horiz-adv-x="1246" 
d="M816 648h-314l-74 -529h428l105 203l160 -13l-66 -309q-197 -144 -217 -278q-10 -69 47 -69t172 80l-16 -103q-115 -87 -251 -87q-84 0 -121.5 31t-28.5 100q20 158 229 326h-866l-5 105l130 20l156 1103l-131 20l20 105h1043l-19 -320h-166l-40 201h-406l-66 -467h317
l40 127l103 -20l-56 -355l-107 -5v134z" />
    <glyph glyph-name="eogonek" unicode="&#x119;" horiz-adv-x="1023" 
d="M634 599q59 78 76 194q17 115 -7.5 159.5t-87.5 44.5t-117 -29q-76 -168 -110 -372q70 -10 140 -10t106 13zM664 1107q381 0 343 -283q-24 -164 -154 -253t-334 -89q-84 0 -146 12l-7 -51q-41 -286 52.5 -320.5t188.5 -34.5t261 90v-106q-198 -192 -217 -346
q-11 -73 49 -73q54 0 170 80l-16 -103q-111 -87 -251 -87q-84 0 -121.5 31t-27.5 112q18 145 187 307q-77 -15 -181 -15q-221 0 -319 113.5t-67 337.5l13 93q39 282 196.5 433.5t380.5 151.5z" />
    <glyph glyph-name="Ecaron" unicode="&#x11a;" horiz-adv-x="1246" 
d="M816 648h-314l-74 -529h428l105 203l160 -13l-66 -309h-1052l-5 105l130 20l156 1103l-131 20l20 105h1043l-19 -320h-166l-40 201h-406l-66 -467h317l40 127l103 -20l-56 -355l-107 -5v134zM423 1784l155 10l196 -185l263 185l124 -10l-5 -32l-304 -292l-222 10
l-212 282z" />
    <glyph glyph-name="ecaron" unicode="&#x11b;" horiz-adv-x="1023" 
d="M388 596q92 -10 149 -10q56 0 97 13q61 89 76 198q16 109 -7 155t-86 45q-63 0 -119 -29q-73 -161 -110 -372zM664 1107q381 0 343 -283q-23 -162 -153 -252t-335 -90q-79 0 -146 12l-7 -51q-26 -173 20 -264t178 -91t304 90v-106q-169 -94 -400 -94q-457 0 -394 451
l13 93q41 277 195 431t382 154zM400 1660l157 10l169 -248l240 248l123 -10l-4 -32l-286 -373l-221 10l-182 363z" />
    <glyph glyph-name="Gcircumflex" unicode="&#x11c;" horiz-adv-x="1356" 
d="M858 1375q226 0 395 -57l-17 -290h-168l-46 206q-92 22 -178 22q-170 0 -300 -74q-116 -218 -156 -499l-18 -133q-30 -216 53 -334t245 -119q71 0 139 14l58 410l-131 20l20 105h537l5 -105l-131 -20l-58 -416q-111 -57 -249 -92t-269 -35q-279 0 -421 132t-105 395
l13 89q56 378 258 580t524 201zM1244 1470l-156 -10l-197 185l-262 -185l-123 10l5 32l303 292l222 -10l213 -282z" />
    <glyph glyph-name="gcircumflex" unicode="&#x11d;" 
d="M440 106q64 0 143 78t153 209l82 589q-70 21 -155 21t-166 -35q-73 -154 -106 -376l-18 -131q-25 -175 -11 -265t78 -90zM318 -22q-303 0 -248 395l26 188q36 249 194 397t373 149q215 0 452 -78l-126 -900q-39 -264 -195 -425t-375 -161q-218 0 -439 90l42 180
q319 -130 504 -130q124 109 168 406l18 134q-76 -117 -180 -181t-214 -64zM1048 1275l-157 -10l-170 247l-239 -247l-123 10l4 32l286 373l221 -10l182 -363z" />
    <glyph glyph-name="Gbreve" unicode="&#x11e;" horiz-adv-x="1356" 
d="M858 1375q226 0 395 -57l-17 -290h-168l-46 206q-92 22 -178 22q-170 0 -300 -74q-116 -218 -156 -499l-18 -133q-30 -216 53 -334t245 -119q71 0 139 14l58 410l-131 20l20 105h537l5 -105l-131 -20l-58 -416q-111 -57 -249 -92t-269 -35q-279 0 -421 132t-105 395
l13 89q56 378 258 580t524 201zM631 1548q-81 91 -67 201l108 10q-7 -41 26 -71q34 -29 80 -45t124 -16q134 0 197 45q64 45 71 87l105 -10q-14 -107 -121 -199q-108 -93 -275 -93t-248 91z" />
    <glyph glyph-name="gbreve" unicode="&#x11f;" 
d="M440 106q64 0 143 78t153 209l82 589q-70 21 -155 21t-166 -35q-73 -154 -106 -376l-18 -131q-25 -175 -11 -265t78 -90zM318 -22q-303 0 -248 395l26 188q36 249 194 397t373 149q215 0 452 -78l-126 -900q-39 -264 -195 -425t-375 -161q-218 0 -439 90l42 180
q319 -130 504 -130q124 109 168 406l18 134q-76 -117 -180 -181t-214 -64zM478 1364q-74 99 -56 228l108 10q-8 -50 24 -86t72 -54t101 -17q108 0 170 53t71 104l106 -10q-17 -128 -120 -227q-103 -100 -252 -100q-150 0 -224 99z" />
    <glyph glyph-name="Gdotaccent" unicode="&#x120;" horiz-adv-x="1356" 
d="M858 1375q226 0 395 -57l-17 -290h-168l-46 206q-92 22 -178 22q-170 0 -300 -74q-116 -218 -156 -499l-18 -133q-30 -216 53 -334t245 -119q71 0 139 14l58 410l-131 20l20 105h537l5 -105l-131 -20l-58 -416q-111 -57 -249 -92t-269 -35q-279 0 -421 132t-105 395
l13 89q56 378 258 580t524 201zM806 1701q35 50 76 50q75 0 124 -35t49 -76q0 -76 -35 -125t-77 -49q-41 0 -71 10t-52 25q-48 34 -49 92q0 58 35 108z" />
    <glyph glyph-name="gdotaccent" unicode="&#x121;" 
d="M440 106q64 0 143 78t153 209l82 589q-70 21 -155 21t-166 -35q-73 -154 -106 -376l-18 -131q-25 -175 -11 -265t78 -90zM318 -22q-303 0 -248 395l26 188q36 249 194 397t373 149q215 0 452 -78l-126 -900q-39 -264 -195 -425t-375 -161q-218 0 -439 90l42 180
q319 -130 504 -130q124 109 168 406l18 134q-76 -117 -180 -181t-214 -64zM634 1512q35 50 76 50q75 0 124 -35t49 -76q0 -76 -35 -125t-77 -49q-41 -1 -71 9t-52 26q-48 34 -49 92q0 58 35 108z" />
    <glyph glyph-name="Gcommaaccent" unicode="&#x122;" horiz-adv-x="1356" 
d="M858 1375q226 0 395 -57l-17 -290h-168l-46 206q-92 22 -178 22q-170 0 -300 -74q-116 -218 -156 -499l-18 -133q-30 -216 53 -334t245 -119q71 0 139 14l58 410l-131 20l20 105h537l5 -105l-131 -20l-58 -416q-111 -57 -249 -92t-269 -35q-279 0 -421 132t-105 395
l13 89q56 378 258 580t524 201zM492 -128h206l-8 -62l-108 -321h-143z" />
    <glyph glyph-name="gcommaaccent" unicode="&#x123;" 
d="M440 106q64 0 143 78t153 209l82 589q-70 21 -155 21t-166 -35q-73 -154 -106 -376l-18 -131q-25 -175 -11 -265t78 -90zM318 -22q-303 0 -248 395l26 188q36 249 194 397t373 149q215 0 452 -78l-126 -900q-39 -264 -195 -425t-375 -161q-218 0 -439 90l42 180
q319 -130 504 -130q124 109 168 406l18 134q-76 -117 -180 -181t-214 -64zM817 1288h-206l8 62l108 321h143z" />
    <glyph glyph-name="Hcircumflex" unicode="&#x124;" horiz-adv-x="1529" 
d="M171 1353h537l5 -105l-131 -20l-63 -450h524l63 450l-131 20l20 105h537l5 -105l-131 -20l-156 -1103l132 -20l-20 -105h-537l-5 105l130 20l76 534h-524l-76 -534l132 -20l-20 -105h-537l-5 105l130 20l156 1103l-131 20zM1269 1470l-156 -10l-197 185l-262 -185
l-123 10l5 32l303 292l222 -10l213 -282z" />
    <glyph glyph-name="hcircumflex" unicode="&#x125;" horiz-adv-x="1346" 
d="M524 859q191 248 444 248q129 0 181 -74t30 -229l-93 -679l132 -20l-20 -105l-330 -22l-82 78l93 675q20 149 11 199t-53 49q-64 -1 -153 -77t-183 -210l-99 -714l-288 22l197 1415l-131 20l20 105l330 22l81 -78zM843 1680l-156 -10l-197 185l-262 -185l-123 10l5 32
l303 292l222 -10l213 -282z" />
    <glyph glyph-name="Hbar" unicode="&#x126;" horiz-adv-x="1529" 
d="M1043 778l26 186h-524l-26 -186h524zM121 1084h140l21 144l-131 20l20 105h537l5 -105l-131 -20l-20 -144h524l20 144l-131 20l20 105h537l5 -105l-131 -20l-21 -144h144l-21 -120h-140l-118 -839l132 -20l-20 -105h-537l-5 105l130 20l76 534h-524l-76 -534l132 -20
l-20 -105h-537l-5 105l130 20l118 839h-144z" />
    <glyph glyph-name="hbar" unicode="&#x127;" horiz-adv-x="1346" 
d="M524 859q191 248 444 248q129 0 181 -74t30 -229l-93 -679l132 -20l-20 -105l-330 -22l-82 78l93 675q20 149 11 198.5t-53 49.5q-64 0 -153 -76.5t-183 -210.5l-99 -714l-288 22l170 1226h-160l21 127h157l9 62l-131 20l20 105l330 22l81 -78l-19 -131h246l-21 -127
h-242z" />
    <glyph glyph-name="Itilde" unicode="&#x128;" horiz-adv-x="705" 
d="M-4 105l130 20l156 1103l-131 20l20 105h537l5 -105l-131 -20l-156 -1103l132 -20l-20 -105h-537zM728 1645q42 -1 74 29t41 91l118 10l-10 -72q-17 -119 -88 -187t-173 -67q-102 0 -272 66q-169 66 -201 66q-61 0 -91 -21t-37 -77l-110 -10l7 50q18 127 94 191t185 63
q109 0 264 -66q59 -25 109 -45q48 -20 90 -21z" />
    <glyph glyph-name="itilde" unicode="&#x129;" horiz-adv-x="704" 
d="M156 1085l331 22l81 -78l-126 -904l131 -20l-20 -105l-330 -22l-81 78l125 904l-131 20zM640 1429q34 -1 60 29t36 91l118 10l-10 -72q-16 -119 -82 -187t-158 -67q-92 0 -240 66q-56 25 -104 45t-83 21q-35 0 -61 -19t-35 -79l-110 -10l7 50q18 127 88 191t169 63
q98 0 232 -66q51 -25 95 -45t78 -21z" />
    <glyph glyph-name="Imacron" unicode="&#x12a;" horiz-adv-x="705" 
d="M-4 105l130 20l156 1103l-131 20l20 105h537l5 -105l-131 -20l-156 -1103l132 -20l-20 -105h-537zM83 1680h810l-19 -150h-810z" />
    <glyph glyph-name="imacron" unicode="&#x12b;" horiz-adv-x="704" 
d="M156 1085l331 22l81 -78l-126 -904l131 -20l-20 -105l-330 -22l-81 78l125 904l-131 20zM68 1483h750l-40 -150h-750z" />
    <glyph glyph-name="Ibreve" unicode="&#x12c;" horiz-adv-x="705" 
d="M-4 105l130 20l156 1103l-131 20l20 105h537l5 -105l-131 -20l-156 -1103l132 -20l-20 -105h-537zM223 1548q-81 91 -67 201l108 10q-7 -41 26 -71q34 -29 80 -45t124 -16q134 0 197 45q64 45 71 87l105 -10q-14 -107 -121 -199q-108 -93 -275 -93t-248 91z" />
    <glyph glyph-name="ibreve" unicode="&#x12d;" horiz-adv-x="704" 
d="M156 1085l331 22l81 -78l-126 -904l131 -20l-20 -105l-330 -22l-81 78l125 904l-131 20zM161 1364q-74 99 -56 228l108 10q-8 -50 24 -86q33 -36 73 -54t100 -17q108 0 170 53t71 104l106 -10q-17 -128 -120 -227q-103 -100 -252 -100q-150 0 -224 99z" />
    <glyph glyph-name="Iogonek" unicode="&#x12e;" horiz-adv-x="705" 
d="M139 -278q-10 -69 47 -69t172 80l-16 -103q-115 -87 -251 -87q-84 0 -121.5 31t-28.5 100q20 158 229 326h-169l-5 105l130 20l156 1103l-131 20l20 105h537l5 -105l-131 -20l-156 -1103l132 -20l-20 -105h-182q-197 -144 -217 -278z" />
    <glyph glyph-name="iogonek" unicode="&#x12f;" horiz-adv-x="704" 
d="M332 1398q0 74 29 128t69 54q73 0 127.5 -29.5t54.5 -68.5q0 -76 -29 -129t-69 -53q-76 0 -129 28.5t-53 69.5zM336 -278q-10 -69 46 -69q57 0 173 80l-16 -103q-111 -87 -251 -87q-84 0 -121.5 31t-26.5 113q18 145 244 302l-161 -11l-81 78l125 904l-131 20l20 105
l331 22l81 -78l-126 -904l131 -20l-20 -105q-197 -144 -217 -278z" />
    <glyph glyph-name="Idotaccent" unicode="&#x130;" horiz-adv-x="705" 
d="M-4 105l130 20l156 1103l-131 20l20 105h537l5 -105l-131 -20l-156 -1103l132 -20l-20 -105h-537zM398 1701q35 50 76 50q75 0 124 -35t49 -76q0 -76 -35 -125t-77 -49q-41 0 -71 10t-52 25q-48 34 -49 92q0 58 35 108z" />
    <glyph glyph-name="dotlessi" unicode="&#x131;" horiz-adv-x="704" 
d="M156 1085l331 22l81 -78l-126 -904l131 -20l-20 -105l-330 -22l-81 78l125 904l-131 20z" />
    <glyph glyph-name="IJ" unicode="&#x132;" horiz-adv-x="1642" 
d="M-4 105l130 20l156 1103l-131 20l20 105h537l5 -105l-131 -20l-156 -1103l132 -20l-20 -105h-537zM1004 -22q-179 0 -305 53l16 280h146l47 -206q81 -23 144 2q58 91 81 262l120 859l-181 20l20 105h587l5 -105l-131 -20l-119 -850q-29 -202 -140 -301t-290 -99z" />
    <glyph glyph-name="ij" unicode="&#x133;" horiz-adv-x="1365" 
d="M332 1398q0 74 29 128t69 54q74 0 128 -30t54 -68q0 -76 -29 -129t-69 -53q-76 0 -129 28t-53 70zM156 1085l331 22l81 -78l-126 -904l131 -20l-20 -105l-330 -22l-81 78l125 904l-131 20zM1039 1398q0 74 29 128t69 54q73 0 127 -30t55 -68q0 -76 -29 -129t-69 -53
q-76 0 -129 28t-53 70zM703 -457q-145 0 -279 47l48 140q160 -60 271 -60q61 80 86 244l144 1046l-131 20l20 105l331 22l81 -78l-152 -1076q-28 -206 -128 -308t-291 -102z" />
    <glyph glyph-name="Jcircumflex" unicode="&#x134;" horiz-adv-x="937" 
d="M299 -22q-179 0 -305 53l16 280h146l47 -206q32 -9 74 -9t70 11q58 91 81 262l120 859l-181 20l20 105h587l5 -105l-131 -20l-119 -850q-29 -202 -140 -301t-290 -99zM1085 1470l-156 -10l-197 185l-262 -185l-123 10l5 32l303 292l222 -10l213 -282z" />
    <glyph glyph-name="jcircumflex" unicode="&#x135;" horiz-adv-x="661" 
d="M10 -457q-153 0 -290 47l48 140q159 -60 271 -60q60 80 86 244l144 1046l-131 20l20 105l331 22l81 -78l-152 -1076q-46 -330 -270 -391q-70 -19 -138 -19zM743 1275l-157 -10l-170 247l-239 -247l-123 10l4 32l286 373l221 -10l182 -363z" />
    <glyph glyph-name="Kcommaaccent" unicode="&#x136;" horiz-adv-x="1346" 
d="M534 0h-537l-5 105l130 20l156 1103l-131 20l20 105h537l5 -105l-131 -20l-71 -505l13 -6l542 514l-84 17l20 105h388l5 -105l-114 -26l-460 -426l374 -670l109 -21l-14 -105h-328l-339 611l-147 -136l-50 -350l132 -20zM505 -128h206l-8 -62l-108 -321h-143z" />
    <glyph glyph-name="kcommaaccent" unicode="&#x137;" horiz-adv-x="1224" 
d="M1218 989q-169 -207 -421 -359l249 -504l139 -21l-14 -105l-293 -22l-81 78l-228 459q-48 -20 -100 -38l-69 -499l-288 22l197 1415l-131 20l20 105l331 22l81 -78l-120 -855q278 117 481 341l-98 10l20 105l188 22zM434 -128h206l-8 -62l-108 -321h-143z" />
    <glyph glyph-name="kgreenlandic" unicode="&#x138;" horiz-adv-x="1342" 
d="M1192 832q-62 0 -109 66q-37 0 -82.5 -61.5t-78 -109t-72.5 -96.5l250 -505l139 -21l-14 -105l-293 -22l-81 78l-199 400q-73 -42 -158 -51l-39 -280l132 -20l-20 -105h-528l-5 105l130 20l116 835l-131 20l20 105l331 22l81 -78l-64 -462q124 24 200.5 132.5t134 192
t136 149.5t194.5 66t141 -52.5t-4.5 -115.5t-65 -85t-61.5 -22z" />
    <glyph glyph-name="Lacute" unicode="&#x139;" horiz-adv-x="1033" 
d="M905 0h-906l-5 105l130 20l156 1103l-131 20l20 105h567l5 -105l-161 -20l-156 -1109h298l110 213l141 -12zM334 1503l278 281l282 -10v-66l-415 -248l-145 11v32z" />
    <glyph glyph-name="lacute" unicode="&#x13a;" horiz-adv-x="666" 
d="M194 1540l331 22l81 -78l-190 -1359l131 -20l-20 -105l-330 -22l-81 78l189 1359l-131 20zM330 1713l278 281l282 -10v-66l-415 -248l-145 11v32z" />
    <glyph glyph-name="Lcommaaccent" unicode="&#x13b;" horiz-adv-x="1033" 
d="M905 0h-906l-5 105l130 20l156 1103l-131 20l20 105h567l5 -105l-161 -20l-156 -1109h298l110 213l141 -12zM321 -128h206l-8 -62l-108 -321h-143z" />
    <glyph glyph-name="lcommaaccent" unicode="&#x13c;" horiz-adv-x="666" 
d="M194 1540l331 22l81 -78l-190 -1359l131 -20l-20 -105l-330 -22l-81 78l189 1359l-131 20zM153 -128h206l-8 -62l-108 -321h-143z" />
    <glyph glyph-name="Lcaron" unicode="&#x13d;" horiz-adv-x="1033" 
d="M905 0h-906l-5 105l130 20l156 1103l-131 20l20 105h567l5 -105l-161 -20l-156 -1109h298l110 213l141 -12zM845 1540h226l-5 -42l-111 -341h-163z" />
    <glyph glyph-name="lcaron" unicode="&#x13e;" horiz-adv-x="828" 
d="M194 1540l331 22l81 -78l-190 -1359l131 -20l-20 -105l-330 -22l-81 78l189 1359l-131 20zM736 1540h226l-5 -42l-111 -341h-163z" />
    <glyph glyph-name="Ldot" unicode="&#x13f;" horiz-adv-x="1033" 
d="M905 0h-906l-5 105l130 20l156 1103l-131 20l20 105h567l5 -105l-161 -20l-156 -1109h298l110 213l141 -12zM800 777q32 55 74 55q80 0 133 -32t53 -73q0 -79 -32 -134t-74 -55t-75 8t-58 24q-53 32 -53 92t32 115z" />
    <glyph glyph-name="ldot" unicode="&#x140;" horiz-adv-x="768" 
d="M194 1540l331 22l81 -78l-190 -1359l131 -20l-20 -105l-330 -22l-81 78l189 1359l-131 20zM616 777q32 55 74 55q80 0 133 -32t53 -73q0 -79 -32 -134t-74 -55t-75 8t-58 24q-53 32 -53 92t32 115z" />
    <glyph glyph-name="Lslash" unicode="&#x141;" horiz-adv-x="1033" 
d="M905 0h-906l-5 105l130 20l52 372l-162 -87l19 139l163 87l84 592l-131 20l20 105h567l5 -105l-161 -20l-59 -418l300 161l-19 -138l-300 -161l-78 -553h298l110 213l141 -12z" />
    <glyph glyph-name="lslash" unicode="&#x142;" horiz-adv-x="666" 
d="M14 684l204 109l87 622l-131 20l20 105l331 22l81 -78l-73 -524l194 104l-19 -138l-195 -104l-97 -697l131 -20l-20 -105l-330 -22l-81 78l83 598l-205 -109z" />
    <glyph glyph-name="Nacute" unicode="&#x143;" horiz-adv-x="1549" 
d="M1158 1353h428l5 -105l-131 -20l-173 -1228h-373l-445 1120h-16l-141 -995l132 -20l-20 -105h-427l-5 105l130 20l156 1103l-131 20l20 105h503l444 -1118h16l139 993l-131 20zM785 1503l278 281l282 -10v-66l-415 -248l-145 11v32z" />
    <glyph glyph-name="nacute" unicode="&#x144;" horiz-adv-x="1362" 
d="M541 859q199 248 443 248q256 0 214 -288l-95 -694l131 -20l-20 -105l-330 -22l-81 78l93 675q19 130 11 189t-52 59q-55 1 -141 -71t-196 -216l-100 -714l-286 22l132 960l-131 20l20 105l331 22l81 -78zM768 1307l234 363l271 -10l-10 -66l-366 -329l-134 10z" />
    <glyph glyph-name="Ncommaaccent" unicode="&#x145;" horiz-adv-x="1549" 
d="M1158 1353h428l5 -105l-131 -20l-173 -1228h-373l-445 1120h-16l-141 -995l132 -20l-20 -105h-427l-5 105l130 20l156 1103l-131 20l20 105h503l444 -1118h16l139 993l-131 20zM539 -128h206l-8 -62l-108 -321h-143z" />
    <glyph glyph-name="ncommaaccent" unicode="&#x146;" horiz-adv-x="1362" 
d="M541 859q199 248 443 248q256 0 214 -288l-95 -694l131 -20l-20 -105l-330 -22l-81 78l93 675q19 130 11 189t-52 59q-55 1 -141 -71t-196 -216l-100 -714l-286 22l132 960l-131 20l20 105l331 22l81 -78zM514 -128h206l-8 -62l-108 -321h-143z" />
    <glyph glyph-name="Ncaron" unicode="&#x147;" horiz-adv-x="1549" 
d="M1158 1353h428l5 -105l-131 -20l-173 -1228h-373l-445 1120h-16l-141 -995l132 -20l-20 -105h-427l-5 105l130 20l156 1103l-131 20l20 105h503l444 -1118h16l139 993l-131 20zM595 1784l155 10l196 -185l263 185l124 -10l-5 -32l-304 -292l-222 10l-212 282z" />
    <glyph glyph-name="ncaron" unicode="&#x148;" horiz-adv-x="1362" 
d="M541 859q199 248 443 248q256 0 214 -288l-95 -694l131 -20l-20 -105l-330 -22l-81 78l93 675q19 130 11 189t-52 59q-55 1 -141 -71t-196 -216l-100 -714l-286 22l132 960l-131 20l20 105l331 22l81 -78zM530 1660l157 10l169 -248l240 248l123 -10l-4 -32l-286 -373
l-221 10l-182 363z" />
    <glyph glyph-name="napostrophe" unicode="&#x149;" horiz-adv-x="1362" 
d="M541 859q199 248 443 248q256 0 214 -288l-95 -694l131 -20l-20 -105l-330 -22l-81 78l93 675q19 130 11 189t-52 59q-55 1 -141 -71t-196 -216l-100 -714l-286 22l132 960l-131 20l20 105l331 22l81 -78z" />
    <glyph glyph-name="Eng" unicode="&#x14a;" horiz-adv-x="1549" 
d="M620 -250q218 -80 331 -80q114 82 136 244l12 86h-185l-445 1120h-16l-141 -995l132 -20l-20 -105h-427l-5 105l130 20l156 1103l-131 20l20 105h503l444 -1118h16l139 993l-131 20l20 105h428l5 -105l-131 -20l-173 -1228q-32 -229 -145.5 -343t-272.5 -114t-297 67z
" />
    <glyph glyph-name="eng" unicode="&#x14b;" horiz-adv-x="1330" 
d="M541 859q197 248 429 248q134 0 192 -67.5t36 -220.5l-112 -819q-33 -231 -146 -344t-267 -113t-292 47l48 140q159 -60 271 -60q62 83 85 244l111 817q28 204 4 226t-50 22t-61.5 -19.5t-71.5 -49t-70 -65t-61 -67.5t-45 -56t-23 -30l-100 -714l-286 22l132 960l-131 20
l20 105l331 22l81 -78z" />
    <glyph glyph-name="Omacron" unicode="&#x14c;" horiz-adv-x="1430" 
d="M442 222q76 -124 223 -125q147 0 261 59q105 231 142 494l18 133q65 473 -276 473q-132 0 -253 -58q-104 -228 -143 -495l-18 -133q-30 -224 46 -348zM628 -22q-316 0 -447 137q-130 137 -92 410l11 79q52 378 242 574t508 197q318 -1 450 -139t93 -409l-11 -78
q-54 -379 -246 -575t-508 -196zM471 1680h810l-19 -150h-810z" />
    <glyph glyph-name="omacron" unicode="&#x14d;" 
d="M378 176q40 -88 124 -88t155 30q102 158 134 395l16 119q52 365 -145 365q-76 0 -149 -29q-101 -178 -135 -406l-17 -119q-23 -179 17 -267zM474 -22q-466 0 -404 451l13 93q41 279 207 432t405 153q238 0 337 -114t67 -346l-13 -95q-38 -258 -210 -416t-402 -158z
M417 1483h750l-40 -150h-750z" />
    <glyph glyph-name="Obreve" unicode="&#x14e;" horiz-adv-x="1430" 
d="M442 222q76 -124 223 -125q147 0 261 59q105 231 142 494l18 133q65 473 -276 473q-132 0 -253 -58q-104 -228 -143 -495l-18 -133q-30 -224 46 -348zM628 -22q-316 0 -447 137q-130 137 -92 410l11 79q52 378 242 574t508 197q318 -1 450 -139t93 -409l-11 -78
q-54 -379 -246 -575t-508 -196zM611 1548q-81 91 -67 201l108 10q-7 -41 26 -71q34 -29 80 -45t124 -16q134 0 197 45q64 45 71 87l105 -10q-14 -107 -121 -199q-108 -93 -275 -93t-248 91z" />
    <glyph glyph-name="obreve" unicode="&#x14f;" 
d="M378 176q40 -88 124 -88t155 30q102 158 134 395l16 119q52 365 -145 365q-76 0 -149 -29q-101 -178 -135 -406l-17 -119q-23 -179 17 -267zM474 -22q-466 0 -404 451l13 93q41 279 207 432t405 153q238 0 337 -114t67 -346l-13 -95q-38 -258 -210 -416t-402 -158z
M510 1364q-74 99 -56 228l108 10q-8 -50 24 -86t72 -54t101 -17q108 0 170 53t71 104l106 -10q-17 -128 -120 -227q-103 -100 -252 -100q-150 0 -224 99z" />
    <glyph glyph-name="Ohungarumlaut" unicode="&#x150;" horiz-adv-x="1430" 
d="M442 222q76 -124 223 -125q147 0 261 59q105 231 142 494l18 133q65 473 -276 473q-132 0 -253 -58q-104 -228 -143 -495l-18 -133q-30 -224 46 -348zM628 -22q-316 0 -447 137q-130 137 -92 410l11 79q52 378 242 574t508 197q318 -1 450 -139t93 -409l-11 -78
q-54 -379 -246 -575t-508 -196zM548 1503l278 281l282 -10v-66l-415 -248l-145 11v32zM972 1503l278 281l282 -10v-66l-415 -248l-145 11v32z" />
    <glyph glyph-name="ohungarumlaut" unicode="&#x151;" 
d="M378 176q40 -88 124 -88t155 30q102 158 134 395l16 119q52 365 -145 365q-76 0 -149 -29q-101 -178 -135 -406l-17 -119q-23 -179 17 -267zM474 -22q-466 0 -404 451l13 93q41 279 207 432t405 153q238 0 337 -114t67 -346l-13 -95q-38 -258 -210 -416t-402 -158z
M889 1307l234 363l271 -10l-10 -66l-366 -329l-134 10zM513 1307l234 363l271 -10l-10 -66l-366 -329l-134 10z" />
    <glyph glyph-name="OE" unicode="&#x152;" horiz-adv-x="1938" 
d="M812 1256q-161 0 -281 -58q-107 -234 -143 -495l-18 -133q-32 -232 48.5 -352.5t211.5 -120.5q130 0 231 30l153 1089q-120 40 -202 40zM835 1375q103 0 217 -22h856l-19 -320h-146l-40 201h-386l-66 -467h297l40 127l103 -20l-56 -355l-107 -5v134h-294l-74 -529h408
l105 203l140 -13l-66 -309h-904q-93 -22 -243 -22q-315 0 -445 137t-92 410l11 79q106 771 761 771z" />
    <glyph glyph-name="oe" unicode="&#x153;" horiz-adv-x="1728" 
d="M1093 596q93 -10 149 -10t97 13q61 89 76 198q16 109 -7 154.5t-86 45.5t-119 -29q-73 -161 -110 -372zM377.5 176q40.5 -88 124.5 -88t155 30q95 147 129 365l21 149q52 365 -145 365q-76 0 -149 -29q-101 -178 -135 -406l-17 -119q-24 -179 16.5 -267zM460 -22
q-218 0 -320 110.5t-70 340.5l13 93q41 279 207 432t404 153t338 -114q142 114 332 114q386 0 348 -283q-23 -161 -152.5 -251.5t-335.5 -90.5q-79 0 -146 12l-7 -51q-25 -173 20.5 -264t177.5 -91t304 90v-106q-169 -94 -400 -94q-230 0 -328 114q-4 5 -8 11
q-159 -125 -377 -125z" />
    <glyph glyph-name="Racute" unicode="&#x154;" horiz-adv-x="1279" 
d="M585 725q106 0 195 26q53 102 72 231q18 130 -32 191t-179 61h-58l-72 -509h74zM736 1353q232 1 339 -87t82 -263q-18 -127 -91 -213t-190 -127l-8 -19l226 -517l127 -22l-20 -105h-339l-255 606h-113l-68 -481l132 -20l-20 -105h-537l-5 105l130 20l156 1103l-131 20
l20 105h565zM532 1503l278 281l282 -10v-66l-415 -248l-145 11v32z" />
    <glyph glyph-name="racute" unicode="&#x155;" horiz-adv-x="978" 
d="M767 959q-48 0 -110 -83t-134 -260l-68 -491l132 -20l-20 -105h-528l-5 105l130 20l116 835l-131 20l20 105l331 22l81 -78l-25 -176q54 121 132 187t168 67q88 0 154 -44l-58 -275l-146 -12v178q-18 5 -39 5zM594 1307l234 363l271 -10l-10 -66l-366 -329l-134 10z" />
    <glyph glyph-name="Rcommaaccent" unicode="&#x156;" horiz-adv-x="1279" 
d="M585 725q106 0 195 26q53 102 72 231q18 130 -32 191t-179 61h-58l-72 -509h74zM736 1353q232 1 339 -87t82 -263q-18 -127 -91 -213t-190 -127l-8 -19l226 -517l127 -22l-20 -105h-339l-255 606h-113l-68 -481l132 -20l-20 -105h-537l-5 105l130 20l156 1103l-131 20
l20 105h565zM448 -128h206l-8 -62l-108 -321h-143z" />
    <glyph glyph-name="rcommaaccent" unicode="&#x157;" horiz-adv-x="978" 
d="M767 959q-48 0 -110 -83t-134 -260l-68 -491l132 -20l-20 -105h-528l-5 105l130 20l116 835l-131 20l20 105l331 22l81 -78l-25 -176q54 121 132 187t168 67q88 0 154 -44l-58 -275l-146 -12v178q-18 5 -39 5zM169 -128h206l-8 -62l-108 -321h-143z" />
    <glyph glyph-name="Rcaron" unicode="&#x158;" horiz-adv-x="1279" 
d="M585 725q106 0 195 26q53 102 72 231q18 130 -32 191t-179 61h-58l-72 -509h74zM736 1353q232 1 339 -87t82 -263q-18 -127 -91 -213t-190 -127l-8 -19l226 -517l127 -22l-20 -105h-339l-255 606h-113l-68 -481l132 -20l-20 -105h-537l-5 105l130 20l156 1103l-131 20
l20 105h565zM342 1784l155 10l196 -185l263 185l124 -10l-5 -32l-304 -292l-222 10l-212 282z" />
    <glyph glyph-name="rcaron" unicode="&#x159;" horiz-adv-x="978" 
d="M767 959q-48 0 -110 -83t-134 -260l-68 -491l132 -20l-20 -105h-528l-5 105l130 20l116 835l-131 20l20 105l331 22l81 -78l-25 -176q54 121 132 187t168 67q88 0 154 -44l-58 -275l-146 -12v178q-18 5 -39 5zM356 1660l157 10l169 -248l240 248l123 -10l-4 -32
l-286 -373l-221 10l-182 363z" />
    <glyph glyph-name="Sacute" unicode="&#x15a;" horiz-adv-x="1203" 
d="M753 1375q239 0 390 -52l-17 -290h-158l-45 201q-90 22 -195 22t-196 -28q-34 -60 -45 -138t55 -143t197 -147q231 -144 291 -240t42 -219q-25 -171 -184 -267t-414 -96t-414 63l16 279h170l45 -199q79 -24 200 -24t214 28q45 71 57 152q12 82 -38 147t-218 176
q-209 132 -277 219q-67 87 -47 227t176 235q156 94 395 94zM629 1503l278 281l282 -10v-66l-415 -248l-145 11v32z" />
    <glyph glyph-name="sacute" unicode="&#x15b;" horiz-adv-x="1023" 
d="M621 1107q205 0 336 -68l-25 -261h-121l-33 199q-73 20 -154 20t-140 -18q-35 -42 -44 -99t22 -100t160 -121q200 -119 255 -203t39 -194q-18 -136 -154 -210t-342 -74t-348 70l24 260h122l31 -197q69 -23 163 -23t165 18q34 50 43 114t-26 113t-199 152
q-163 103 -213 179t-38 164q20 129 146 204t331 75zM582 1307l234 363l271 -10l-10 -66l-366 -329l-134 10z" />
    <glyph glyph-name="Scircumflex" unicode="&#x15c;" horiz-adv-x="1203" 
d="M753 1375q239 0 390 -52l-17 -290h-158l-45 201q-90 22 -195 22t-196 -28q-34 -60 -45 -138t55 -143t197 -147q231 -144 291 -240t42 -219q-25 -171 -184 -267t-414 -96t-414 63l16 279h170l45 -199q79 -24 200 -24t214 28q45 71 57 152q12 82 -38 147t-218 176
q-209 132 -277 219q-67 87 -47 227t176 235q156 94 395 94zM1141 1470l-156 -10l-197 185l-262 -185l-123 10l5 32l303 292l222 -10l213 -282z" />
    <glyph glyph-name="scircumflex" unicode="&#x15d;" horiz-adv-x="1023" 
d="M621 1107q205 0 336 -68l-25 -261h-121l-33 199q-73 20 -154 20t-140 -18q-35 -42 -44 -99t22 -100t160 -121q200 -119 255 -203t39 -194q-18 -136 -154 -210t-342 -74t-348 70l24 260h122l31 -197q69 -23 163 -23t165 18q34 50 43 114t-26 113t-199 152
q-163 103 -213 179t-38 164q20 129 146 204t331 75zM975 1275l-157 -10l-170 247l-239 -247l-123 10l4 32l286 373l221 -10l182 -363z" />
    <glyph glyph-name="Scedilla" unicode="&#x15e;" horiz-adv-x="1203" 
d="M753 1375q239 0 390 -52l-17 -290h-158l-45 201q-90 22 -195 22t-196 -28q-34 -60 -45 -138t54.5 -143t197.5 -147q231 -144 291 -240t42 -219q-25 -170 -184 -267q-121 -73 -292 -90l-45 -89q105 -19 153.5 -59.5t36.5 -119.5q-19 -122 -115 -147.5t-146 -25.5
q-122 0 -205 47l13 93q95 -40 154 -40q60 0 88 7q29 43 17.5 93.5t-120.5 70.5l-26 64l50 100q-242 4 -391 63l16 279h170l45 -199q79 -24 200 -24t214 28q45 71 57 152q12 82 -37.5 147t-218.5 176q-209 132 -276.5 219t-47.5 227t176 234.5t395 94.5z" />
    <glyph glyph-name="scedilla" unicode="&#x15f;" horiz-adv-x="1023" 
d="M621 1107q205 0 336 -68l-25 -261h-121l-33 199q-73 20 -154 20t-140 -18q-35 -42 -44 -99t22 -100t160 -121q200 -119 255 -203.5t39 -193.5q-19 -135 -155 -210q-95 -52 -231 -67l-45 -90q105 -19 153.5 -59.5t36.5 -119.5q-19 -122 -115 -147.5t-146 -25.5
q-122 0 -205 47l13 93q95 -40 154 -40q60 0 88 7q29 43 17.5 93.5t-120.5 70.5l-26 64l50 100q-185 7 -313 70l24 260h122l31 -197q69 -23 163 -23t165 18q34 50 43 114t-26 113t-199 152t-213.5 178.5t-37.5 164.5q19 129 145.5 204t331.5 75z" />
    <glyph glyph-name="Scaron" unicode="&#x160;" horiz-adv-x="1203" 
d="M753 1375q239 0 390 -52l-17 -290h-158l-45 201q-90 22 -195 22t-196 -28q-34 -60 -45 -138t55 -143t197 -147q231 -144 291 -240t42 -219q-25 -171 -184 -267t-414 -96t-414 63l16 279h170l45 -199q79 -24 200 -24t214 28q45 71 57 152q12 82 -38 147t-218 176
q-209 132 -277 219q-67 87 -47 227t176 235q156 94 395 94zM439 1784l155 10l196 -185l263 185l124 -10l-5 -32l-304 -292l-222 10l-212 282z" />
    <glyph glyph-name="scaron" unicode="&#x161;" horiz-adv-x="1023" 
d="M621 1107q205 0 336 -68l-25 -261h-121l-33 199q-73 20 -154 20t-140 -18q-35 -42 -44 -99t22 -100t160 -121q200 -119 255 -203t39 -194q-18 -136 -154 -210t-342 -74t-348 70l24 260h122l31 -197q69 -23 163 -23t165 18q34 50 43 114t-26 113t-199 152
q-163 103 -213 179t-38 164q20 129 146 204t331 75zM344 1660l157 10l169 -248l240 248l123 -10l-4 -32l-286 -373l-221 10l-182 363z" />
    <glyph glyph-name="Tcommaaccent" unicode="&#x162;" horiz-adv-x="1148" 
d="M243 -317q95 -40 154 -40q60 0 88 7q29 43 17.5 93.5t-120.5 70.5l-26 64l61 122h-189l-5 105l130 20l157 1109h-227l-75 -191h-148l56 310h1112l-27 -310h-139l-30 191h-222l-157 -1109l132 -20l-20 -105h-206l-53 -105q105 -19 153.5 -59.5t36.5 -119.5
q-19 -122 -114.5 -147.5t-145.5 -25.5q-122 0 -206 47z" />
    <glyph glyph-name="tcommaaccent" unicode="&#x163;" horiz-adv-x="821" 
d="M190 -317q95 -40 154 -40q60 0 88 7q29 43 17.5 93.5t-120.5 70.5l-26 64l53 106q-107 17 -154 86q-63 93 -36 283l87 628h-177l15 104h176l29 207l303 83l-41 -290h277l-15 -104h-276l-89 -633q-18 -122 -3 -191t82 -69q88 0 197 70v-106q-92 -60 -235 -71l-43 -86
q105 -19 153.5 -59.5t36.5 -119.5q-19 -122 -115 -147.5t-146 -25.5q-122 0 -205 47z" />
    <glyph glyph-name="Tcaron" unicode="&#x164;" horiz-adv-x="1148" 
d="M223 105l130 20l157 1109h-227l-75 -191h-148l56 310h1112l-27 -310h-139l-30 191h-222l-157 -1109l132 -20l-20 -105h-537zM370 1784l155 10l196 -185l263 185l124 -10l-5 -32l-304 -292l-222 10l-212 282z" />
    <glyph glyph-name="tcaron" unicode="&#x165;" horiz-adv-x="821" 
d="M534 88q88 0 197 70v-106q-113 -74 -290 -74q-176 0 -239 92t-36 283l87 628h-177l15 104h176l29 207l303 83l-41 -290h277l-15 -104h-276l-89 -633q-18 -122 -3 -191t82 -69zM747 1540h226l-5 -42l-111 -341h-163z" />
    <glyph glyph-name="Tbar" unicode="&#x166;" horiz-adv-x="1148" 
d="M223 105l130 20l62 442h-228l19 137h229l75 530h-227l-75 -191h-148l56 310h1112l-27 -310h-139l-30 191h-222l-75 -530h214l-19 -137h-215l-62 -442l132 -20l-20 -105h-537z" />
    <glyph glyph-name="tbar" unicode="&#x167;" horiz-adv-x="821" 
d="M534 88q88 0 197 70v-106q-113 -74 -290 -74q-176 0 -239 92.5t-36 282.5l21 156h-189l19 137h189l47 335h-177l15 104h176l29 207l303 83l-41 -290h277l-15 -104h-276l-47 -335h263l-19 -137h-264l-22 -161q-18 -122 -3 -191t82 -69z" />
    <glyph glyph-name="Utilde" unicode="&#x168;" horiz-adv-x="1452" 
d="M640 -22q-288 0 -403 126t-79 387l103 737l-131 20l20 105h537l5 -105l-131 -20l-95 -682q-64 -449 241 -449q172 0 275 76q68 130 99 348l99 707l-131 20l20 105h428l5 -105l-131 -20l-99 -710q-38 -274 -191 -407t-441 -133zM1156 1645q42 -1 74 29t41 91l118 10
l-10 -72q-17 -119 -88 -187t-173 -67q-102 0 -272 66q-169 66 -201 66q-61 0 -91 -21t-37 -77l-110 -10l7 50q18 127 94 191t185 63q109 0 264 -66q59 -25 109 -45q48 -20 90 -21z" />
    <glyph glyph-name="utilde" unicode="&#x169;" horiz-adv-x="1344" 
d="M372 -22q-253 0 -211 288l95 694l-132 20l20 105l331 22l78 -98l-92 -670q-16 -119 -8 -176t66 -57t143 74t177 210l79 570l-131 20l20 105l331 22l81 -78l-126 -904l131 -20l-20 -105l-330 -22l-81 78l23 167q-88 -113 -202 -179t-242 -66zM984 1429q34 -1 61 29
q26 30 36 91l118 10l-10 -72q-17 -119 -83 -187t-157 -67q-92 0 -240 66q-56 25 -104 45t-83 21q-35 0 -61 -19t-35 -79l-110 -10l7 50q19 127 89 191t168 63q98 0 232 -66q50 -25 94 -45t78 -21z" />
    <glyph glyph-name="Umacron" unicode="&#x16a;" horiz-adv-x="1452" 
d="M640 -22q-288 0 -403 126t-79 387l103 737l-131 20l20 105h537l5 -105l-131 -20l-95 -682q-64 -449 241 -449q172 0 275 76q68 130 99 348l99 707l-131 20l20 105h428l5 -105l-131 -20l-99 -710q-38 -274 -191 -407t-441 -133zM511 1680h810l-19 -150h-810z" />
    <glyph glyph-name="umacron" unicode="&#x16b;" horiz-adv-x="1344" 
d="M372 -22q-253 0 -211 288l95 694l-132 20l20 105l331 22l78 -98l-92 -670q-16 -119 -8 -176t66 -57t143 74t177 210l79 570l-131 20l20 105l331 22l81 -78l-126 -904l131 -20l-20 -105l-330 -22l-81 78l23 167q-88 -113 -202 -179t-242 -66zM413 1483h750l-40 -150h-750z
" />
    <glyph glyph-name="Ubreve" unicode="&#x16c;" horiz-adv-x="1452" 
d="M640 -22q-288 0 -403 126t-79 387l103 737l-131 20l20 105h537l5 -105l-131 -20l-95 -682q-64 -449 241 -449q172 0 275 76q68 130 99 348l99 707l-131 20l20 105h428l5 -105l-131 -20l-99 -710q-38 -274 -191 -407t-441 -133zM651 1548q-81 91 -67 201l108 10
q-7 -41 26 -71q34 -29 80 -45t124 -16q134 0 197 45q64 45 71 87l105 -10q-14 -107 -121 -199q-108 -93 -275 -93t-248 91z" />
    <glyph glyph-name="ubreve" unicode="&#x16d;" horiz-adv-x="1344" 
d="M372 -22q-253 0 -211 288l95 694l-132 20l20 105l331 22l78 -98l-92 -670q-16 -119 -8 -176t66 -57t143 74t177 210l79 570l-131 20l20 105l331 22l81 -78l-126 -904l131 -20l-20 -105l-330 -22l-81 78l23 167q-88 -113 -202 -179t-242 -66zM506 1364q-74 99 -56 228
l108 10q-8 -50 24 -86t72 -54t101 -17q108 0 170 53t71 104l106 -10q-17 -128 -120 -227q-103 -100 -252 -100q-150 0 -224 99z" />
    <glyph glyph-name="Uring" unicode="&#x16e;" horiz-adv-x="1452" 
d="M640 -22q-288 0 -403 126t-79 387l103 737l-131 20l20 105h537l5 -105l-131 -20l-95 -682q-64 -449 241 -449q172 0 275 76q68 130 99 348l99 707l-131 20l20 105h428l5 -105l-131 -20l-99 -710q-38 -274 -191 -407t-441 -133zM890 1487q51 0 72 9q46 138 12 192
q-19 30 -46 29q-27 0 -59 -9q-25 -42 -32 -102t11 -90t42 -29zM1099 1758q55 -41 45 -113q-34 -241 -271 -241q-153 0 -189 91q-12 31 -6 82t32 94t62 71q72 56 172 57q100 0 155 -41z" />
    <glyph glyph-name="uring" unicode="&#x16f;" horiz-adv-x="1344" 
d="M372 -22q-253 0 -211 288l95 694l-132 20l20 105l331 22l78 -98l-92 -670q-16 -119 -8 -176t66 -57t143 74t177 210l79 570l-131 20l20 105l331 22l81 -78l-126 -904l131 -20l-20 -105l-330 -22l-81 78l23 167q-88 -113 -202 -179t-242 -66zM836 1560q-18 32 -48 33
q-30 0 -56 -9q-23 -42 -32 -109q-8 -67 10 -99t54 -33q36 0 59 9q11 30 21 103t-8 105zM961 1632q55 -43 45 -119q-18 -133 -92 -193t-181 -60q-153 0 -188 96q-13 34 -5 88t34 98t62 74q73 58 172 59q98 0 153 -43z" />
    <glyph glyph-name="Uhungarumlaut" unicode="&#x170;" horiz-adv-x="1452" 
d="M640 -22q-288 0 -403 126t-79 387l103 737l-131 20l20 105h537l5 -105l-131 -20l-95 -682q-64 -449 241 -449q172 0 275 76q68 130 99 348l99 707l-131 20l20 105h428l5 -105l-131 -20l-99 -710q-38 -274 -191 -407t-441 -133zM570 1503l278 281l282 -10v-66l-415 -248
l-145 11v32zM994 1503l278 281l282 -10v-66l-415 -248l-145 11v32z" />
    <glyph glyph-name="uhungarumlaut" unicode="&#x171;" horiz-adv-x="1344" 
d="M372 -22q-253 0 -211 288l95 694l-132 20l20 105l331 22l78 -98l-92 -670q-16 -119 -8 -176t66 -57t143 74t177 210l79 570l-131 20l20 105l331 22l81 -78l-126 -904l131 -20l-20 -105l-330 -22l-81 78l23 167q-88 -113 -202 -179t-242 -66zM853 1307l234 363l271 -10
l-10 -66l-366 -329l-134 10zM477 1307l234 363l271 -10l-10 -66l-366 -329l-134 10z" />
    <glyph glyph-name="Uogonek" unicode="&#x172;" horiz-adv-x="1452" 
d="M680 -21l-45 -1q-414 0 -455 189t-22 324l103 737l-131 20l20 105h537l5 -105l-131 -20l-95 -682q-62 -449 241 -449q170 0 275 76q71 142 99 348l99 707l-131 20l20 105h428l5 -105l-131 -20l-99 -710q-27 -189 -105.5 -310.5t-222.5 -178.5q-192 -92 -252 -234t29 -142
q54 0 170 80l-16 -103q-111 -87 -251 -87q-84 0 -121.5 31t-26.5 111q19 148 204 294z" />
    <glyph glyph-name="uogonek" unicode="&#x173;" horiz-adv-x="1344" 
d="M379 -22q-129 0 -184 68t-34 220l95 694l-132 20l20 105l331 22l78 -98l-92 -670q-19 -137 -8.5 -175.5t25 -48t41.5 -9.5t62.5 18t104 75.5t153.5 190.5l79 570l-131 20l20 105l331 22l81 -78l-126 -904l131 -20l-20 -105q-197 -144 -217 -278q-11 -69 45 -69
q57 0 174 80l-16 -103q-111 -87 -251 -87q-84 0 -121.5 31t-26.5 113q18 145 244 302l-161 -11l-81 78l23 167q-131 -175 -253.5 -210t-183.5 -35z" />
    <glyph glyph-name="Wcircumflex" unicode="&#x174;" horiz-adv-x="2111" 
d="M163 1228l-103 20l14 105h497l11 -105l-137 -20l195 -903h16l428 1028h251l191 -1028h16l386 904l-132 19l14 105h414l11 -105l-112 -22l-541 -1226h-274l-181 975h-16l-409 -975h-272zM1622 1470l-156 -10l-197 185l-262 -185l-123 10l5 32l303 292l222 -10l213 -282z
" />
    <glyph glyph-name="wcircumflex" unicode="&#x175;" horiz-adv-x="1745" 
d="M46 1085l284 22l81 -78l124 -785l405 863l145 -22l143 -905q185 286 273 585q30 102 44 196l-125 19l14 105l220 22l81 -78q0 -297 -252 -725q-105 -179 -223 -326l-261 22l-108 663l-313 -685l-262 22l-154 960l-130 20zM1341 1275l-157 -10l-170 247l-239 -247l-123 10
l4 32l286 373l221 -10l182 -363z" />
    <glyph glyph-name="Ycircumflex" unicode="&#x176;" horiz-adv-x="1162" 
d="M42 1353h481l11 -105l-105 -15l229 -463h16l345 464l-100 14l14 105h396l11 -105l-122 -24l-455 -607l-70 -492l132 -20l-20 -105h-537l-5 105l130 20l65 461l-320 640l-110 22zM1116 1470l-156 -10l-197 185l-262 -185l-123 10l5 32l303 292l222 -10l213 -282z" />
    <glyph glyph-name="ycircumflex" unicode="&#x177;" horiz-adv-x="1283" 
d="M381 -22q-133 0 -186 72t-32 216l95 694l-132 20l20 105l331 22l81 -78l-95 -695q-16 -118 -10 -173q7 -55 59 -55q111 0 330 285l79 569l-132 20l20 105l331 22l81 -78l-126 -900q-43 -276 -201 -431t-373 -155t-435 90l42 180q315 -130 504 -130q54 46 100 148t68 258
l18 134q-78 -109 -191 -177t-246 -68zM1078 1275l-157 -10l-170 247l-239 -247l-123 10l4 32l286 373l221 -10l182 -363z" />
    <glyph glyph-name="Ydieresis" unicode="&#x178;" horiz-adv-x="1162" 
d="M42 1353h481l11 -105l-105 -15l229 -463h16l345 464l-100 14l14 105h396l11 -105l-122 -24l-455 -607l-70 -492l132 -20l-20 -105h-537l-5 105l130 20l65 461l-320 640l-110 22zM925 1683q31 45 68 45q68 0 112 -31t44 -69q0 -67 -31 -113q-31 -45 -70 -45q-38 0 -65 8
t-47 24q-42 33 -42 84q0 52 31 97zM384 1684q31 44 68 44q69 0 112 -31t43 -69q-1 -66 -31 -112t-68 -46t-65 8t-47 24q-44 32 -44 84q0 53 32 98z" />
    <glyph glyph-name="Zacute" unicode="&#x179;" horiz-adv-x="1242" 
d="M1220 1353v-94l-838 -1126l3 -14h497l99 213l150 -12l-67 -320h-1050v95l837 1125l-3 14h-456l-99 -213l-151 12l68 320h1010zM604 1503l278 281l282 -10v-66l-415 -248l-145 11v32z" />
    <glyph glyph-name="zacute" unicode="&#x17a;" horiz-adv-x="1067" 
d="M725 975h-356l-82 -174l-143 26l50 258h877l-10 -83l-686 -892h365l82 174l143 -26l-50 -258h-877l11 95zM621 1307l234 363l271 -10l-10 -66l-366 -329l-134 10z" />
    <glyph glyph-name="Zdotaccent" unicode="&#x17b;" horiz-adv-x="1242" 
d="M1220 1353v-94l-838 -1126l3 -14h497l99 213l150 -12l-67 -320h-1050v95l837 1125l-3 14h-456l-99 -213l-151 12l68 320h1010zM678 1701q35 50 76 50q75 0 124 -35t49 -76q0 -76 -35 -125t-77 -49q-41 0 -71 10t-52 25q-48 34 -49 92q0 58 35 108z" />
    <glyph glyph-name="zdotaccent" unicode="&#x17c;" horiz-adv-x="1067" 
d="M725 975h-356l-82 -174l-143 26l50 258h877l-10 -83l-686 -892h365l82 174l143 -26l-50 -258h-877l11 95zM600 1512q35 50 76 50q75 0 124 -35t49 -76q0 -76 -35 -125t-77 -49q-41 -1 -71 9t-52 26q-48 34 -49 92q0 58 35 108z" />
    <glyph glyph-name="Zcaron" unicode="&#x17d;" horiz-adv-x="1242" 
d="M1220 1353v-94l-838 -1126l3 -14h497l99 213l150 -12l-67 -320h-1050v95l837 1125l-3 14h-456l-99 -213l-151 12l68 320h1010zM414 1784l155 10l196 -185l263 185l124 -10l-5 -32l-304 -292l-222 10l-212 282z" />
    <glyph glyph-name="zcaron" unicode="&#x17e;" horiz-adv-x="1067" 
d="M725 975h-356l-82 -174l-143 26l50 258h877l-10 -83l-686 -892h365l82 174l143 -26l-50 -258h-877l11 95zM383 1660l157 10l169 -248l240 248l123 -10l-4 -32l-286 -373l-221 10l-182 363z" />
    <glyph glyph-name="longs" unicode="&#x17f;" horiz-adv-x="746" 
d="M716 1562q145 0 254 -47l-43 -140q-113 60 -225 60q-91 -98 -122 -328l-160 -1154q-46 -332 -191.5 -371t-216.5 -39q-162 0 -292 47l48 140q148 -60 266 -60q67 82 93 256l145 1055h-189l14 104h191q67 366 212.5 421.5t215.5 55.5z" />
    <glyph glyph-name="uni018F" unicode="&#x18f;" horiz-adv-x="1335" 
d="M851 149q88 186 131 430l-600 -1q-34 -269 30 -375t205 -106q140 0 234 52zM687 1256q-88 0 -209 -25t-239 -83l18 116q227 111 492 111q489 0 538.5 -208t30.5 -340l-11 -78q-83 -585 -325 -678t-394 -93q-592 0 -514 547l26 187h901l10 71q52 376 -92 424.5t-232 48.5z
" />
    <glyph glyph-name="florin" unicode="&#x192;" horiz-adv-x="974" 
d="M-120 -420l53 121q140 -41 253 -41q51 76 71 224l92 650h-223l17 124h223l76 535q51 369 406 369q115 0 226 -37l-60 -121q-127 41 -217 41q-43 -82 -63 -236l-78 -551h211l-17 -124h-211l-82 -581q-47 -329 -192 -369.5t-263 -40.5t-222 37z" />
    <glyph glyph-name="Ohorn" unicode="&#x1a0;" horiz-adv-x="1465" 
d="M767 1256q-132 0 -253 -58q-104 -228 -143 -495l-18 -133q-29 -224 46.5 -348.5t222.5 -124.5t261 59q105 231 142 494l18 133q65 473 -276 473zM824 1375q335 0 464 -176q84 54 96 139t-45 154l5 40l218 57q112 -168 34.5 -297t-255.5 -207q30 -109 9 -258l-11 -78
q-53 -379 -246 -575t-509 -196t-446 137t-92 410l11 79q106 771 767 771z" />
    <glyph glyph-name="ohorn" unicode="&#x1a1;" horiz-adv-x="1120" 
d="M338.5 176q40.5 -88 124.5 -88t155 30q102 158 134 395l16 119q52 365 -145 365q-77 0 -149 -29q-101 -178 -135 -406l-17 -119q-24 -179 16.5 -267zM434 -22q-466 0 -403 451l13 93q41 279 207.5 432t403.5 153q199 0 300 -79q70 42 101 96.5t17 114t-45 96.5l5 40
l218 57q112 -168 35 -296.5t-252 -205.5q50 -108 26 -283l-13 -95q-38 -258 -210.5 -416t-402.5 -158z" />
    <glyph glyph-name="Uhorn" unicode="&#x1af;" horiz-adv-x="1643" 
d="M589 -22q-288 0 -403 126.5t-79 386.5l103 737l-131 20l20 105h537l5 -105l-131 -20l-95 -682q-64 -449 241 -449q172 0 275 76q68 130 99 348l99 707l-131 20l20 105h428l5 -105l-131 -20l-12 -84l40 20q219 114 172.5 211.5t-62.5 116.5l5 40l218 57
q112 -168 24.5 -313.5t-414.5 -254.5l-70 -503q-38 -274 -191 -407t-441 -133z" />
    <glyph glyph-name="uhorn" unicode="&#x1b0;" horiz-adv-x="1430" 
d="M316 -22q-253 0 -210 288l95 694l-132 20l20 105l331 22l78 -98l-92 -670q-16 -119 -8 -176t66 -57t143 73.5t177 210.5l79 570l-131 20l20 105l331 22l81 -78l-5 -32q116 53 158.5 128.5t15 133t-43.5 76.5l5 40l218 57q112 -168 25 -313t-395 -248l-104 -746l131 -20
l-20 -105l-330 -22l-81 78l23 167q-88 -114 -202.5 -179.5t-242.5 -65.5z" />
    <glyph glyph-name="uni01CD" unicode="&#x1cd;" horiz-adv-x="1277" 
d="M636 1007l-241 -492h355l-98 492h-16zM320 0h-404l-8 105l110 20l613 1228h239l257 -1229l106 -19l-17 -105h-517l-8 105l137 19l-54 272h-437l-133 -273l133 -18zM430 1784l155 10l196 -185l263 185l124 -10l-5 -32l-304 -292l-222 10l-212 282z" />
    <glyph glyph-name="uni01CE" unicode="&#x1ce;" horiz-adv-x="1244" 
d="M448 106q50 0 130 80t165 207l82 589q-71 21 -151 21t-163 -30q-80 -151 -113 -381l-18 -131q-24 -167 -14 -261t82 -94zM341 -22q-160 0 -226 96t-38 299l26 188q37 252 195 399t375 147t449 -78l-126 -904l132 -20l-20 -105l-330 -22l-81 78l23 169q-82 -115 -181 -181
t-198 -66zM437 1660l157 10l169 -248l240 248l123 -10l-4 -32l-286 -373l-221 10l-182 363z" />
    <glyph glyph-name="uni01CF" unicode="&#x1cf;" horiz-adv-x="705" 
d="M-4 105l130 20l156 1103l-131 20l20 105h537l5 -105l-131 -20l-156 -1103l132 -20l-20 -105h-537zM134 1784l155 10l196 -185l263 185l124 -10l-5 -32l-304 -292l-222 10l-212 282z" />
    <glyph glyph-name="uni01D0" unicode="&#x1d0;" horiz-adv-x="704" 
d="M156 1085l331 22l81 -78l-126 -904l131 -20l-20 -105l-330 -22l-81 78l125 904l-131 20zM100 1660l157 10l169 -248l240 248l123 -10l-4 -32l-286 -373l-221 10l-182 363z" />
    <glyph glyph-name="uni01D1" unicode="&#x1d1;" horiz-adv-x="1430" 
d="M442 222q76 -124 223 -125q147 0 261 59q105 231 142 494l18 133q65 473 -276 473q-132 0 -253 -58q-104 -228 -143 -495l-18 -133q-30 -224 46 -348zM628 -22q-316 0 -447 137q-130 137 -92 410l11 79q52 378 242 574t508 197q318 -1 450 -139t93 -409l-11 -78
q-54 -379 -246 -575t-508 -196zM522 1784l155 10l196 -185l263 185l124 -10l-5 -32l-304 -292l-222 10l-212 282z" />
    <glyph glyph-name="uni01D2" unicode="&#x1d2;" 
d="M378 176q40 -88 124 -88t155 30q102 158 134 395l16 119q52 365 -145 365q-76 0 -149 -29q-101 -178 -135 -406l-17 -119q-23 -179 17 -267zM474 -22q-466 0 -404 451l13 93q41 279 207 432t405 153q238 0 337 -114t67 -346l-13 -95q-38 -258 -210 -416t-402 -158z
M449 1660l157 10l169 -248l240 248l123 -10l-4 -32l-286 -373l-221 10l-182 363z" />
    <glyph glyph-name="uni01D3" unicode="&#x1d3;" horiz-adv-x="1452" 
d="M640 -22q-288 0 -403 126t-79 387l103 737l-131 20l20 105h537l5 -105l-131 -20l-95 -682q-64 -449 241 -449q172 0 275 76q68 130 99 348l99 707l-131 20l20 105h428l5 -105l-131 -20l-99 -710q-38 -274 -191 -407t-441 -133zM562 1784l155 10l196 -185l263 185l124 -10
l-5 -32l-304 -292l-222 10l-212 282z" />
    <glyph glyph-name="uni01D4" unicode="&#x1d4;" horiz-adv-x="1344" 
d="M372 -22q-253 0 -211 288l95 694l-132 20l20 105l331 22l78 -98l-92 -670q-16 -119 -8 -176t66 -57t143 74t177 210l79 570l-131 20l20 105l331 22l81 -78l-126 -904l131 -20l-20 -105l-330 -22l-81 78l23 167q-88 -113 -202 -179t-242 -66zM445 1660l157 10l169 -248
l240 248l123 -10l-4 -32l-286 -373l-221 10l-182 363z" />
    <glyph glyph-name="uni01D5" unicode="&#x1d5;" horiz-adv-x="1452" 
d="M640 -22q-288 0 -403 126t-79 387l103 737l-131 20l20 105h537l5 -105l-131 -20l-95 -682q-64 -449 241 -449q172 0 275 76q68 130 99 348l99 707l-131 20l20 105h428l5 -105l-131 -20l-99 -710q-38 -274 -191 -407t-441 -133zM554 1934h810l-19 -150h-810zM1073 1683
q31 45 68 45q68 0 112 -31t44 -69q0 -67 -31 -113q-31 -45 -70 -45q-38 0 -65 8t-47 24q-42 33 -42 84q0 52 31 97zM532 1684q31 44 68 44q69 0 112 -31t43 -69q-1 -66 -31 -112t-68 -46t-65 8t-47 24q-44 32 -44 84q0 53 32 98z" />
    <glyph glyph-name="uni01D6" unicode="&#x1d6;" horiz-adv-x="1344" 
d="M372 -22q-253 0 -211 288l95 694l-132 20l20 105l331 22l78 -98l-92 -670q-16 -119 -8 -176t66 -57t143 74t177 210l79 570l-131 20l20 105l331 22l81 -78l-126 -904l131 -20l-20 -105l-330 -22l-81 78l23 167q-88 -113 -202 -179t-242 -66zM464 1784h750l-40 -150h-750z
M899 1495q31 45 68 45q69 0 112 -32q44 -32 44 -69q0 -66 -31 -112q-31 -45 -70 -45q-38 0 -65 8t-47 24q-42 33 -42 84q0 52 31 97zM420 1496q31 44 68 44q69 0 112 -32t43 -69q-1 -65 -31 -111t-68 -46t-65 8t-47 24q-44 32 -44 84q0 53 32 98z" />
    <glyph glyph-name="uni01D7" unicode="&#x1d7;" horiz-adv-x="1452" 
d="M640 -22q-288 0 -403 126t-79 387l103 737l-131 20l20 105h537l5 -105l-131 -20l-95 -682q-64 -449 241 -449q172 0 275 76q68 130 99 348l99 707l-131 20l20 105h428l5 -105l-131 -20l-99 -710q-38 -274 -191 -407t-441 -133zM799 1788l278 281l282 -10v-66l-415 -248
l-145 11v32zM1073 1683q31 45 68 45q68 0 112 -31t44 -69q0 -67 -31 -113q-31 -45 -70 -45q-38 0 -65 8t-47 24q-42 33 -42 84q0 52 31 97zM532 1684q31 44 68 44q69 0 112 -31t43 -69q-1 -66 -31 -112t-68 -46t-65 8t-47 24q-44 32 -44 84q0 53 32 98z" />
    <glyph glyph-name="uni01D8" unicode="&#x1d8;" horiz-adv-x="1344" 
d="M372 -22q-253 0 -211 288l95 694l-132 20l20 105l331 22l78 -98l-92 -670q-16 -119 -8 -176t66 -57t143 74t177 210l79 570l-131 20l20 105l331 22l81 -78l-126 -904l131 -20l-20 -105l-330 -22l-81 78l23 167q-88 -113 -202 -179t-242 -66zM723 1644l234 363l271 -10
l-10 -66l-366 -329l-134 10zM899 1495q31 45 68 45q69 0 112 -32q44 -32 44 -69q0 -66 -31 -112q-31 -45 -70 -45q-38 0 -65 8t-47 24q-42 33 -42 84q0 52 31 97zM420 1496q31 44 68 44q69 0 112 -32t43 -69q-1 -65 -31 -111t-68 -46t-65 8t-47 24q-44 32 -44 84q0 53 32 98
z" />
    <glyph glyph-name="uni01D9" unicode="&#x1d9;" horiz-adv-x="1452" 
d="M640 -22q-288 0 -403 126t-79 387l103 737l-131 20l20 105h537l5 -105l-131 -20l-95 -682q-64 -449 241 -449q172 0 275 76q68 130 99 348l99 707l-131 20l20 105h428l5 -105l-131 -20l-99 -710q-38 -274 -191 -407t-441 -133zM532 1684q31 44 68 44q69 0 112 -31t43 -69
q-1 -66 -31 -112t-68 -46t-65 8t-47 24q-44 32 -44 84q0 53 32 98zM1073 1683q31 45 68 45q68 0 112 -31t44 -69q0 -67 -31 -113q-31 -45 -70 -45q-38 0 -65 8t-47 24q-42 33 -42 84q0 52 31 97zM587 2069l155 10l196 -185l263 185l124 -10l-5 -32l-304 -292l-222 10
l-212 282z" />
    <glyph glyph-name="uni01DA" unicode="&#x1da;" horiz-adv-x="1344" 
d="M372 -22q-253 0 -211 288l95 694l-132 20l20 105l331 22l78 -98l-92 -670q-16 -119 -8 -176t66 -57t143 74t177 210l79 570l-131 20l20 105l331 22l81 -78l-126 -904l131 -20l-20 -105l-330 -22l-81 78l23 167q-88 -113 -202 -179t-242 -66zM420 1496q31 44 68 44
q69 0 112 -32t43 -69q-1 -65 -31 -111t-68 -46t-65 8t-47 24q-44 32 -44 84q0 53 32 98zM899 1495q31 45 68 45q69 0 112 -32q44 -32 44 -69q0 -66 -31 -112q-31 -45 -70 -45q-38 0 -65 8t-47 24q-42 33 -42 84q0 52 31 97zM488 1997l157 10l169 -248l240 248l123 -10
l-4 -32l-286 -373l-221 10l-182 363z" />
    <glyph glyph-name="uni01DB" unicode="&#x1db;" horiz-adv-x="1452" 
d="M640 -22q-288 0 -403 126t-79 387l103 737l-131 20l20 105h537l5 -105l-131 -20l-95 -682q-64 -449 241 -449q172 0 275 76q68 130 99 348l99 707l-131 20l20 105h428l5 -105l-131 -20l-99 -710q-38 -274 -191 -407t-441 -133zM1028 1756l-146 -11l-360 248l9 66l283 10
l219 -281zM1073 1683q31 45 68 45q68 0 112 -31t44 -69q0 -67 -31 -113q-31 -45 -70 -45q-38 0 -65 8t-47 24q-42 33 -42 84q0 52 31 97zM532 1684q31 44 68 44q69 0 112 -31t43 -69q-1 -66 -31 -112t-68 -46t-65 8t-47 24q-44 32 -44 84q0 53 32 98z" />
    <glyph glyph-name="uni01DC" unicode="&#x1dc;" horiz-adv-x="1344" 
d="M372 -22q-253 0 -211 288l95 694l-132 20l20 105l331 22l78 -98l-92 -670q-16 -119 -8 -176t66 -57t143 74t177 210l79 570l-131 20l20 105l331 22l81 -78l-126 -904l131 -20l-20 -105l-330 -22l-81 78l23 167q-88 -113 -202 -179t-242 -66zM869 1612l-149 -10l-274 329
l10 66l286 10l132 -363zM899 1495q31 45 68 45q69 0 112 -32q44 -32 44 -69q0 -66 -31 -112q-31 -45 -70 -45q-38 0 -65 8t-47 24q-42 33 -42 84q0 52 31 97zM420 1496q31 44 68 44q69 0 112 -32t43 -69q-1 -65 -31 -111t-68 -46t-65 8t-47 24q-44 32 -44 84q0 53 32 98z
" />
    <glyph glyph-name="Gcaron" unicode="&#x1e6;" horiz-adv-x="1356" 
d="M858 1375q226 0 395 -57l-17 -290h-168l-46 206q-92 22 -178 22q-170 0 -300 -74q-116 -218 -156 -499l-18 -133q-30 -216 53 -334t245 -119q71 0 139 14l58 410l-131 20l20 105h537l5 -105l-131 -20l-58 -416q-111 -57 -249 -92t-269 -35q-279 0 -421 132t-105 395
l13 89q56 378 258 580t524 201zM542 1784l155 10l196 -185l263 185l124 -10l-5 -32l-304 -292l-222 10l-212 282z" />
    <glyph glyph-name="gcaron" unicode="&#x1e7;" 
d="M440 106q64 0 143 78t153 209l82 589q-70 21 -155 21t-166 -35q-73 -154 -106 -376l-18 -131q-25 -175 -11 -265t78 -90zM318 -22q-303 0 -248 395l26 188q36 249 194 397t373 149q215 0 452 -78l-126 -900q-39 -264 -195 -425t-375 -161q-218 0 -439 90l42 180
q319 -130 504 -130q124 109 168 406l18 134q-76 -117 -180 -181t-214 -64zM417 1660l157 10l169 -248l240 248l123 -10l-4 -32l-286 -373l-221 10l-182 363z" />
    <glyph glyph-name="jcaron" unicode="&#x1f0;" horiz-adv-x="661" 
d="M10 -457q-153 0 -290 47l48 140q159 -60 271 -60q60 80 86 244l144 1046l-131 20l20 105l331 22l81 -78l-152 -1076q-46 -330 -270 -391q-70 -19 -138 -19zM112 1660l157 10l169 -248l240 248l123 -10l-4 -32l-286 -373l-221 10l-182 363z" />
    <glyph glyph-name="Gacute" unicode="&#x1f4;" horiz-adv-x="1356" 
d="M858 1375q226 0 395 -57l-17 -290h-168l-46 206q-92 22 -178 22q-170 0 -300 -74q-116 -218 -156 -499l-18 -133q-30 -216 53 -334t245 -119q71 0 139 14l58 410l-131 20l20 105h537l5 -105l-131 -20l-58 -416q-111 -57 -249 -92t-269 -35q-279 0 -421 132t-105 395
l13 89q56 378 258 580t524 201zM732 1503l278 281l282 -10v-66l-415 -248l-145 11v32z" />
    <glyph glyph-name="gacute" unicode="&#x1f5;" 
d="M440 106q64 0 143 78t153 209l82 589q-70 21 -155 21t-166 -35q-73 -154 -106 -376l-18 -131q-25 -175 -11 -265t78 -90zM318 -22q-303 0 -248 395l26 188q36 249 194 397t373 149q215 0 452 -78l-126 -900q-39 -264 -195 -425t-375 -161q-218 0 -439 90l42 180
q319 -130 504 -130q124 109 168 406l18 134q-76 -117 -180 -181t-214 -64zM655 1307l234 363l271 -10l-10 -66l-366 -329l-134 10z" />
    <glyph glyph-name="Aringacute" unicode="&#x1fa;" horiz-adv-x="1277" 
d="M636 1007l-241 -492h355l-98 492h-16zM320 0h-404l-8 105l110 20l613 1228h239l257 -1229l106 -19l-17 -105h-517l-8 105l137 19l-54 272h-437l-133 -273l133 -18zM784 1487q50 0 72 9q46 138 12 192q-19 30 -46 29q-27 0 -59 -9q-25 -42 -32 -102t11 -90t42 -29z
M993 1758q55 -41 45 -113q-34 -241 -271 -241q-153 0 -189 91q-12 31 -6 82t32 94t62 71q72 56 172 57q100 0 155 -41zM761 1882l278 281l282 -10v-66l-415 -248l-145 11v32z" />
    <glyph glyph-name="aringacute" unicode="&#x1fb;" horiz-adv-x="1244" 
d="M448 106q50 0 130 80t165 207l82 589q-71 21 -151 21t-163 -30q-80 -151 -113 -381l-18 -131q-24 -167 -14 -261t82 -94zM341 -22q-160 0 -226 96t-38 299l26 188q37 252 195 399t375 147t449 -78l-126 -904l132 -20l-20 -105l-330 -22l-81 78l23 169q-82 -115 -181 -181
t-198 -66zM874 1560q-18 32 -49 33q-30 0 -56 -9q-23 -42 -32 -109t9 -99t54 -33q36 0 60 9q11 30 21 103q11 73 -7 105zM998 1632q55 -43 45 -119q-18 -133 -92 -193t-181 -60q-153 0 -188 96q-12 34 -4 88t32 98q26 44 63 74q73 58 172 59q98 0 153 -43zM810 1803l234 363
l271 -10l-10 -66l-366 -329l-134 10z" />
    <glyph glyph-name="AEacute" unicode="&#x1fc;" horiz-adv-x="1836" 
d="M815 525l93 661l-430 -661h337zM1426 648h-294l-74 -529h408l105 203l140 -13l-66 -309h-1012l-5 105l130 20l40 281h-398l-185 -285l114 -16l-17 -105h-404l-8 105l120 20l813 1228h973l-19 -320h-146l-40 201h-386l-66 -467h297l40 127l103 -20l-56 -355l-107 -5v134z
M1060 1503l278 281l282 -10v-66l-415 -248l-145 11v32z" />
    <glyph glyph-name="aeacute" unicode="&#x1fd;" horiz-adv-x="1605" 
d="M1241 603q69 138 63 288q-3 77 -45 97q-21 10 -47 9q-58 0 -117 -29q-112 -158 -150 -376q96 -6 174 -6t122 17zM555 141q82 53 130 94q-19 86 -4 194l9 63q-234 -3 -327 -54q-42 -68 -55 -168q-12 -98 14 -140t89 -42q62 0 144 53zM1259 1107q265 -1 313 -169
q16 -58 7 -131q-20 -144 -151 -235q-132 -90 -322 -90q-99 0 -176 8l-7 -47q-25 -177 42 -266t195 -89q129 0 285 90v-106q-146 -94 -360 -94q-277 0 -370 177q-194 -177 -421 -177q-144 0 -221 69t-59 197q36 256 395 332q125 26 296 26l14 100q33 230 -93 280
q-38 14 -74 15q-36 -1 -65 -3t-54 -6t-51 -6l-90 -232h-127l40 303q176 54 381 54q252 0 337 -117q141 117 336 117zM858 1307l234 363l271 -10l-10 -66l-366 -329l-134 10z" />
    <glyph glyph-name="Oslashacute" unicode="&#x1fe;" horiz-adv-x="1431" 
d="M786 1256q-135 0 -254 -58q-107 -234 -143 -495l-18 -133q-32 -233 54 -361l467 1032q-50 15 -106 15zM640 97q147 0 261 59q105 233 142 494l18 133q36 271 -60 386l-474 -1048q53 -24 113 -24zM601 -22q-72 0 -136 8l-78 -174h-134l2 20l81 179q-170 51 -236 179
t-36 335l11 79q106 771 761 771q60 0 114 -6l77 171h135l-2 -20l-79 -175q347 -96 287 -518l-11 -78q-53 -379 -245 -575t-511 -196zM712 1503l278 281l282 -10v-66l-415 -248l-145 11v32z" />
    <glyph glyph-name="oslashacute" unicode="&#x1ff;" 
d="M513 968q-103 -180 -135 -406l-17 -119q-19 -124 -1 -216l346 765q-23 5 -74 5q-50 0 -119 -29zM657 118q102 160 134 395l16 119q23 169 -5 258l-357 -789q26 -13 87 -13q62 0 125 30zM694 1107q33 0 63 -2l73 160h135l-2 -20l-74 -164q259 -81 210 -434l-13 -95
q-35 -249 -205 -411q-170 -163 -405 -163q-45 0 -85 4l-77 -170h-134l2 20l80 178q-240 88 -192 419l13 93q38 281 207 433t404 152zM627 1307l234 363l271 -10l-10 -66l-366 -329l-134 10z" />
    <glyph glyph-name="Scommaaccent" unicode="&#x218;" horiz-adv-x="1203" 
d="M753 1375q239 0 390 -52l-17 -290h-158l-45 201q-90 22 -195 22t-196 -28q-34 -60 -45 -138t55 -143t197 -147q231 -144 291 -240t42 -219q-25 -171 -184 -267t-414 -96t-414 63l16 279h170l45 -199q79 -24 200 -24t214 28q45 71 57 152q12 82 -38 147t-218 176
q-209 132 -277 219q-67 87 -47 227t176 235q156 94 395 94zM388 -128h206l-8 -62l-108 -321h-143z" />
    <glyph glyph-name="scommaaccent" unicode="&#x219;" horiz-adv-x="1023" 
d="M621 1107q205 0 336 -68l-25 -261h-121l-33 199q-73 20 -154 20t-140 -18q-35 -42 -44 -99t22 -100t160 -121q200 -119 255 -203t39 -194q-18 -136 -154 -210t-342 -74t-348 70l24 260h122l31 -197q69 -23 163 -23t165 18q34 50 43 114t-26 113t-199 152
q-163 103 -213 179t-38 164q20 129 146 204t331 75zM322 -128h206l-8 -62l-108 -321h-143z" />
    <glyph glyph-name="uni021A" unicode="&#x21a;" horiz-adv-x="1148" 
d="M223 105l130 20l157 1109h-227l-75 -191h-148l56 310h1112l-27 -310h-139l-30 191h-222l-157 -1109l132 -20l-20 -105h-537zM343 -128h206l-8 -62l-108 -321h-143z" />
    <glyph glyph-name="uni021B" unicode="&#x21b;" horiz-adv-x="821" 
d="M534 88q88 0 197 70v-106q-113 -74 -290 -74q-176 0 -239 92t-36 283l87 628h-177l15 104h176l29 207l303 83l-41 -290h277l-15 -104h-276l-89 -633q-18 -122 -3 -191t82 -69zM290 -128h206l-8 -62l-108 -321h-143z" />
    <glyph glyph-name="uni0237" unicode="&#x237;" horiz-adv-x="661" 
d="M10 -457q-153 0 -290 47l48 140q159 -60 271 -60q60 80 86 244l144 1046l-131 20l20 105l331 22l81 -78l-152 -1076q-47 -330 -193.5 -370t-214.5 -40z" />
    <glyph glyph-name="uni0251" unicode="&#x251;" horiz-adv-x="1244" 
d="M448 106q50 0 130 80t165 207l82 589q-71 21 -151 21t-163 -30q-80 -151 -113 -381l-18 -131q-24 -167 -14 -261t82 -94zM341 -22q-160 0 -226 96t-38 299l26 188q37 252 195 399t375 147t449 -78l-126 -904l132 -20l-20 -105l-330 -22l-81 78l23 169q-82 -115 -181 -181
t-198 -66z" />
    <glyph glyph-name="uni0259" unicode="&#x259;" horiz-adv-x="967" 
d="M304.5 132.5q24.5 -44.5 91.5 -44.5t113 25q74 151 110 376q-60 10 -110 10q-80 0 -141 -13q-55 -79 -71 -194q-17 -115 7.5 -159.5zM139 1013q166 94 406 94q450 0 388 -451l-13 -93q-80 -585 -577 -585q-383 0 -343 283q24 164 154 253t334 89q67 0 145 -12l8 51
q41 286 -52.5 320.5t-146.5 34.5q-127 0 -303 -90v106z" />
    <glyph glyph-name="uni0261" unicode="&#x261;" 
d="M440 106q64 0 143 78t153 209l82 589q-70 21 -155 21t-166 -35q-73 -154 -106 -376l-18 -131q-25 -175 -11 -265t78 -90zM318 -22q-303 0 -248 395l26 188q36 249 194 397t373 149q215 0 452 -78l-126 -900q-39 -264 -195 -425t-375 -161q-218 0 -439 90l42 180
q319 -130 504 -130q124 109 168 406l18 134q-76 -117 -180 -181t-214 -64z" />
    <glyph glyph-name="uni02BB" unicode="&#x2bb;" horiz-adv-x="799" 
d="M392 821q-36 0 -84 14.5t-66 37.5q-77 99 -17 298.5t306 390.5l68 -96q-204 -154 -218 -267q-4 -24 13.5 -36.5t59.5 -24.5t74 -42t26 -70t-20.5 -77.5t-35.5 -66t-45.5 -45t-60.5 -16.5z" />
    <glyph glyph-name="uni02BC" unicode="&#x2bc;" horiz-adv-x="800" 
d="M407 1562q36 0 84 -14.5t66 -37.5q30 -38 43 -104t-36.5 -230t-295.5 -355l-68 96q204 154 218 267q4 24 -13 36t-59 24t-75 42.5t-27 70.5t21 77.5t36 66t45.5 45t60.5 16.5z" />
    <glyph glyph-name="uni02BE" unicode="&#x2be;" horiz-adv-x="548" 
d="M257 1353q41 0 67 11q13 36 23 101q9 65 -9.5 91.5t-47.5 26.5l13 92q157 0 182 -71.5t17 -127.5q-15 -108 -85.5 -162t-172.5 -54z" />
    <glyph glyph-name="uni02BF" unicode="&#x2bf;" horiz-adv-x="548" 
d="M243 1250q-159 0 -183.5 76t-16.5 132q16 109 89.5 168t171.5 59l-14 -102q-25 0 -57 -9q-41 -65 -35 -130.5t25.5 -78t33.5 -12.5z" />
    <glyph glyph-name="circumflex" unicode="&#x2c6;" horiz-adv-x="914" 
d="M782 1275l-157 -10l-170 247l-239 -247l-123 10l4 32l286 373l221 -10l182 -363z" />
    <glyph glyph-name="caron" unicode="&#x2c7;" horiz-adv-x="1093" 
d="M204 1660l157 10l169 -248l240 248l123 -10l-4 -32l-286 -373l-221 10l-182 363z" />
    <glyph glyph-name="uni02C8" unicode="&#x2c8;" horiz-adv-x="715" 
d="M307 1670h158l-57 -404h-158z" />
    <glyph glyph-name="uni02C9" unicode="&#x2c9;" horiz-adv-x="1090" 
d="M190 1483h750l-40 -150h-750z" />
    <glyph glyph-name="uni02CA" unicode="&#x2ca;" horiz-adv-x="910" 
d="M205 1307l234 363l271 -10l-10 -66l-366 -329l-134 10z" />
    <glyph glyph-name="uni02CB" unicode="&#x2cb;" horiz-adv-x="828" 
d="M623 1275l-149 -10l-274 329l10 66l286 10l132 -363z" />
    <glyph glyph-name="uni02CC" unicode="&#x2cc;" horiz-adv-x="715" 
d="M307 -189h158l-57 -404h-158z" />
    <glyph glyph-name="breve" unicode="&#x2d8;" horiz-adv-x="960" 
d="M214.5 1364.5q-73.5 99.5 -56.5 227.5l108 10q-8 -50 24.5 -86t72 -53.5t124 -17.5t146.5 53t71 104l106 -10q-17 -128 -120 -227.5t-252.5 -99.5t-223 99.5z" />
    <glyph glyph-name="dotaccent" unicode="&#x2d9;" horiz-adv-x="784" 
d="M285 1512q35 50 76 50q75 0 124 -34.5t49 -76.5q0 -76 -35 -125t-77 -49q-41 0 -71 9.5t-65.5 34.5t-35.5 83t35 108z" />
    <glyph glyph-name="ring" unicode="&#x2da;" horiz-adv-x="878" 
d="M504 1560.5q-18 32.5 -48 32.5t-57 -9q-23 -42 -32 -109t9 -99.5t54 -32.5t60 9q11 30 21 103q11 73 -7 105.5zM628.5 1632q55.5 -43 44.5 -119q-18 -133 -92 -193t-181 -60q-153 0 -176.5 65t-15.5 119t33 98.5t80 88.5t154 44q98 0 153.5 -43z" />
    <glyph glyph-name="ogonek" unicode="&#x2db;" horiz-adv-x="821" 
d="M402 -278q-10 -69 47 -69t172 80l-16 -103q-115 -87 -251 -87q-84 0 -121.5 31t-28.5 100q28 221 415 453v-127q-197 -144 -217 -278z" />
    <glyph glyph-name="tilde" unicode="&#x2dc;" horiz-adv-x="1183" 
d="M818 1429q34 0 60.5 29.5t36.5 90.5l118 10l-10 -72q-17 -119 -82.5 -186.5t-157.5 -67.5t-194 45.5t-150 66t-83 20.5t-61 -19t-35 -79l-110 -10l7 50q18 127 88.5 190.5t168.5 63.5t190.5 -45.5t136 -66t77.5 -20.5z" />
    <glyph glyph-name="hungarumlaut" unicode="&#x2dd;" horiz-adv-x="1186" 
d="M531 1307l234 363l271 -10l-10 -66l-366 -329l-134 10zM155 1307l234 363l271 -10l-10 -66l-366 -329l-134 10z" />
    <glyph glyph-name="uni02F3" unicode="&#x2f3;" horiz-adv-x="878" 
d="M511.5 -293.5q-25.5 45.5 -55.5 45.5t-57 -9q-23 -42 -32 -109t9.5 -99.5t52.5 -32.5t61 9q47 150 21.5 195.5zM628.5 -209q55.5 -43 44.5 -119q-18 -133 -92 -193t-181 -60q-153 0 -176.5 64.5t-15.5 118.5t33 99t80 89t154 44q98 0 153.5 -43z" />
    <glyph glyph-name="gravecomb" unicode="&#x300;" horiz-adv-x="0" 
d="M-199 1275l-149 -10l-274 329l10 66l286 10l132 -363z" />
    <glyph glyph-name="acutecomb" unicode="&#x301;" horiz-adv-x="0" 
d="M-707 1307l234 363l271 -10l-10 -66l-366 -329l-134 10z" />
    <glyph glyph-name="uni0302" unicode="&#x302;" horiz-adv-x="0" 
d="M-210 1275l-157 -10l-170 247l-239 -247l-123 10l4 32l286 373l221 -10l182 -363z" />
    <glyph glyph-name="tildecomb" unicode="&#x303;" horiz-adv-x="0" 
d="M-372 1429q34 0 60.5 29.5t36.5 90.5l118 10l-10 -72q-17 -119 -82.5 -186.5t-157.5 -67.5t-194 45.5t-150 66t-83 20.5t-61 -19t-35 -79l-110 -10l7 50q18 127 88.5 190.5t168.5 63.5t190.5 -45.5t136 -66t77.5 -20.5z" />
    <glyph glyph-name="uni0304" unicode="&#x304;" horiz-adv-x="0" 
d="M-897 1483h750l-40 -150h-750z" />
    <glyph glyph-name="uni0306" unicode="&#x306;" horiz-adv-x="0" 
d="M-749.5 1364.5q-73.5 99.5 -56.5 227.5l108 10q-8 -50 24.5 -86t72 -53.5t124 -17.5t146.5 53t71 104l106 -10q-17 -128 -120 -227.5t-252.5 -99.5t-223 99.5z" />
    <glyph glyph-name="uni0307" unicode="&#x307;" horiz-adv-x="0" 
d="M-477 1512q35 50 76 50q75 0 124 -34.5t49 -76.5q0 -76 -35 -125t-77 -49q-41 0 -71 9.5t-65.5 34.5t-35.5 83t35 108z" />
    <glyph glyph-name="uni0308" unicode="&#x308;" horiz-adv-x="0" 
d="M-377.5 1495q30.5 45 68.5 45q69 0 112.5 -32t43.5 -69q0 -66 -31.5 -111.5t-69.5 -45.5t-65 8.5t-58 32.5t-31 75q0 52 30.5 97zM-856.5 1495.5q31.5 44.5 68.5 44.5q69 0 112 -32t43 -69q0 -65 -30.5 -111t-68.5 -46t-65 8.5t-59 32t-32 75.5q0 53 31.5 97.5z" />
    <glyph glyph-name="hookabovecomb" unicode="&#x309;" horiz-adv-x="0" 
d="M-484 1571l-36 -94l-107 5l19 133q114 55 219 55q205 0 187 -141q-12 -93 -137 -157q-70 -36 -83.5 -53.5t-1.5 -47.5l-95 -27q-30 47 -22 94q5 64 86 116q44 28 60.5 45t18.5 37t-7.5 35t-35.5 15q-25 0 -65 -15z" />
    <glyph glyph-name="uni030A" unicode="&#x30a;" horiz-adv-x="0" 
d="M-366 1560.5q-18 32.5 -48 32.5t-57 -9q-23 -42 -32 -109t9 -99.5t54 -32.5t60 9q11 30 21 103q11 73 -7 105.5zM-241.5 1632q55.5 -43 44.5 -119q-18 -133 -92 -193t-181 -60q-153 0 -176.5 65t-15.5 119t33 98.5t80 88.5t154 44q98 0 153.5 -43z" />
    <glyph glyph-name="uni030B" unicode="&#x30b;" horiz-adv-x="0" 
d="M-662 1307l234 363l271 -10l-10 -66l-366 -329l-134 10zM-1038 1307l234 363l271 -10l-10 -66l-366 -329l-134 10z" />
    <glyph glyph-name="uni030C" unicode="&#x30c;" horiz-adv-x="0" 
d="M-892 1660l157 10l169 -248l240 248l123 -10l-4 -32l-286 -373l-221 10l-182 363z" />
    <glyph glyph-name="uni030F" unicode="&#x30f;" horiz-adv-x="1118" 
d="M573 1275l-149 -10l-274 329l10 66l286 10l132 -363zM963 1275l-149 -10l-274 329l10 66l286 10l132 -363z" />
    <glyph glyph-name="uni031B" unicode="&#x31b;" horiz-adv-x="0" 
d="M-260 1432q112 -168 33.5 -298.5t-223 -192t-286.5 -103.5l17 112q152 63 197.5 100t71.5 83t12 105.5t-45 96.5l5 40z" />
    <glyph glyph-name="dotbelowcomb" unicode="&#x323;" horiz-adv-x="0" 
d="M-493 -222q35 50 76 50q75 0 124 -34.5t49 -76.5q0 -76 -35 -125t-77 -49q-41 0 -71 9.5t-65.5 34.5t-35.5 83t35 108z" />
    <glyph glyph-name="uni0324" unicode="&#x324;" horiz-adv-x="0" 
d="M-373.5 -185q30.5 45 68.5 45q69 0 112.5 -32t43.5 -69q0 -66 -31.5 -111.5t-69.5 -45.5t-65 8.5t-58 32.5t-31 75q0 52 30.5 97zM-852.5 -184.5q31.5 44.5 68.5 44.5q69 0 112 -32t43 -69q0 -65 -30.5 -111t-68.5 -46t-65 8.5t-59 32t-32 75.5q0 53 31.5 97.5z" />
    <glyph glyph-name="uni0326" unicode="&#x326;" horiz-adv-x="0" 
d="M-460 -128h206l-8 -62l-108 -321h-143z" />
    <glyph glyph-name="uni0327" unicode="&#x327;" horiz-adv-x="0" 
d="M-466 -457q-122 0 -205 47l13 93q95 -40 154 -40q60 0 88 7q29 43 17.5 93.5t-120.5 70.5l-26 64l80 159h142l-72 -142q105 -19 153.5 -59.5t36.5 -119.5q-19 -122 -115 -147.5t-146 -25.5z" />
    <glyph glyph-name="uni0328" unicode="&#x328;" horiz-adv-x="0" 
d="M-422 -278q-10 -69 47 -69t172 80l-16 -103q-115 -87 -251 -87q-84 0 -121.5 31t-28.5 100q28 221 415 453v-127q-197 -144 -217 -278z" />
    <glyph glyph-name="uni032E" unicode="&#x32e;" horiz-adv-x="0" 
d="M-751.5 -403.5q-73.5 99.5 -56.5 227.5l108 10q-8 -50 24.5 -86t72 -53.5t124 -17.5t146.5 53t71 104l106 -10q-17 -128 -120 -227.5t-252.5 -99.5t-223 99.5z" />
    <glyph glyph-name="uni0331" unicode="&#x331;" horiz-adv-x="0" 
d="M-902 -188h750l-40 -150h-750z" />
    <glyph glyph-name="uni03BC" unicode="&#x3bc;" horiz-adv-x="1409" 
d="M523 106q26 0 58 17.5t73 52t97 100t87 112.5l80 572l-131 20l20 105l331 22l81 -78l-123 -877l158 -34l-37 -118q-85 -22 -169 -22q-85 0 -163 45t-69 199q-42 -69 -99.5 -119t-118.5 -87.5t-150 -37.5q-88 0 -133 58l-10 -10l46 -461l-293 -22l197 1417l-131 20l20 105
l331 22l78 -98l-92 -670q-19 -139 -7.5 -176.5t27.5 -47t42 -9.5z" />
    <glyph glyph-name="pi" unicode="&#x3c0;" horiz-adv-x="1461" 
d="M502 817q-112 0 -174 -26.5t-112 -109.5l-71 17q86 305 207 357t184 52t116 -2.5t111.5 -6t211 -13.5t249.5 -10t154 10l48 72l75 -22q-40 -150 -90 -216t-108.5 -99.5t-145.5 -34.5l-86 -615l191 -34l-39 -136q-155 -45 -308 -1.5t-126 232.5l79 565l-175 12
q-88 -417 -175 -589.5t-119 -218.5l-254 -22l-5 110q161 187 245.5 386t122.5 343h-6z" />
    <glyph glyph-name="uni1E00" unicode="&#x1e00;" horiz-adv-x="1277" 
d="M636 1007l-241 -492h355l-98 492h-16zM320 0h-404l-8 105l110 20l613 1228h239l257 -1229l106 -19l-17 -105h-517l-8 105l137 19l-54 272h-437l-133 -273l133 -18zM506 -280q-18 32 -48 32t-57 -9q-23 -42 -32 -109q-9 -68 9 -100t53 -32q34 0 61 9q47 150 14 209z
M630 -209q55 -43 45 -119q-18 -133 -92 -193t-181 -60q-153 1 -188 97q-12 34 -4 86q8 54 32 99q26 45 63 75q73 59 172 58q98 0 153 -43z" />
    <glyph glyph-name="uni1E01" unicode="&#x1e01;" horiz-adv-x="1244" 
d="M448 106q50 0 130 80t165 207l82 589q-71 21 -151 21t-163 -30q-80 -151 -113 -381l-18 -131q-24 -167 -14 -261t82 -94zM341 -22q-160 0 -226 96t-38 299l26 188q37 252 195 399t375 147t449 -78l-126 -904l132 -20l-20 -105l-330 -22l-81 78l23 169q-82 -115 -181 -181
t-198 -66zM536 -280q-18 32 -48 32t-57 -9q-23 -42 -32 -109q-9 -68 9 -100t53 -32q34 0 61 9q47 150 14 209zM660 -209q55 -43 45 -119q-18 -133 -92 -193t-181 -60q-153 1 -188 97q-12 34 -4 86q8 54 32 99q26 45 63 75q73 59 172 58q98 0 153 -43z" />
    <glyph glyph-name="Ddotaccent" unicode="&#x1e0a;" horiz-adv-x="1438" 
d="M593 119q162 0 264 39q57 75 107 196t72 268l13 94q37 266 -43 392t-282 126h-137l-157 -1115h163zM771 1353q340 1 482 -153t99 -458l-12 -88q-44 -314 -232 -484t-480 -170h-623l-5 105l130 20l156 1103l-131 20l20 105h596zM685 1701q35 50 76 50q75 0 124 -35t49 -76
q0 -76 -35 -125t-77 -49q-41 0 -71 10q-31 10 -53 25q-48 34 -48 92t35 108z" />
    <glyph glyph-name="uni1E0C" unicode="&#x1e0c;" horiz-adv-x="1438" 
d="M593 119q162 0 264 39q57 75 107 196t72 268l13 94q37 266 -43 392t-282 126h-137l-157 -1115h163zM771 1353q340 1 482 -153t99 -458l-12 -88q-44 -314 -232 -484t-480 -170h-623l-5 105l130 20l156 1103l-131 20l20 105h596zM404 -222q35 50 76 50q75 0 124 -35t49 -76
q0 -76 -35 -125t-77 -49q-41 -1 -71 9t-52 26q-48 34 -49 92q0 58 35 108z" />
    <glyph glyph-name="uni1E0D" unicode="&#x1e0d;" horiz-adv-x="1233" 
d="M824 987q-67 16 -154 16q-88 0 -163 -33q-80 -155 -112 -378l-18 -131q-27 -195 -11 -275t78 -80q121 0 297 287zM688 1107q67 0 151 -12l44 320l-131 20l20 105l330 22l81 -78l-190 -1359l132 -20l-20 -105l-330 -22l-81 78l24 171q-84 -123 -182 -186t-198 -63
q-154 0 -222 100t-42 295l26 188q38 256 198 401t390 145zM390 -222q35 50 76 50q75 0 124 -35t49 -76q0 -76 -35 -125t-77 -49q-41 -1 -71 9t-52 26q-48 34 -49 92q0 58 35 108z" />
    <glyph glyph-name="uni1E0E" unicode="&#x1e0e;" horiz-adv-x="1438" 
d="M593 119q162 0 264 39q57 75 107 196t72 268l13 94q37 266 -43 392t-282 126h-137l-157 -1115h163zM771 1353q340 1 482 -153t99 -458l-12 -88q-44 -314 -232 -484t-480 -170h-623l-5 105l130 20l156 1103l-131 20l20 105h596zM182 -188h750l-40 -150h-750z" />
    <glyph glyph-name="uni1E0F" unicode="&#x1e0f;" horiz-adv-x="1233" 
d="M824 987q-67 16 -154 16q-88 0 -163 -33q-80 -155 -112 -378l-18 -131q-27 -195 -11 -275t78 -80q121 0 297 287zM688 1107q67 0 151 -12l44 320l-131 20l20 105l330 22l81 -78l-190 -1359l132 -20l-20 -105l-330 -22l-81 78l24 171q-84 -123 -182 -186t-198 -63
q-154 0 -222 100t-42 295l26 188q38 256 198 401t390 145zM168 -188h750l-40 -150h-750z" />
    <glyph glyph-name="uni1E20" unicode="&#x1e20;" horiz-adv-x="1356" 
d="M858 1375q226 0 395 -57l-17 -290h-168l-46 206q-92 22 -178 22q-170 0 -300 -74q-116 -218 -156 -499l-18 -133q-30 -216 53 -334t245 -119q71 0 139 14l58 410l-131 20l20 105h537l5 -105l-131 -20l-58 -416q-111 -57 -249 -92t-269 -35q-279 0 -421 132t-105 395
l13 89q56 378 258 580t524 201zM491 1680h810l-19 -150h-810z" />
    <glyph glyph-name="uni1E21" unicode="&#x1e21;" 
d="M440 106q64 0 143 78t153 209l82 589q-70 21 -155 21t-166 -35q-73 -154 -106 -376l-18 -131q-25 -175 -11 -265t78 -90zM318 -22q-303 0 -248 395l26 188q36 249 194 397t373 149q215 0 452 -78l-126 -900q-39 -264 -195 -425t-375 -161q-218 0 -439 90l42 180
q319 -130 504 -130q124 109 168 406l18 134q-76 -117 -180 -181t-214 -64zM385 1483h750l-40 -150h-750z" />
    <glyph glyph-name="uni1E24" unicode="&#x1e24;" horiz-adv-x="1529" 
d="M171 1353h537l5 -105l-131 -20l-63 -450h524l63 450l-131 20l20 105h537l5 -105l-131 -20l-156 -1103l132 -20l-20 -105h-537l-5 105l130 20l76 534h-524l-76 -534l132 -20l-20 -105h-537l-5 105l130 20l156 1103l-131 20zM546 -222q35 50 76 50q75 0 124 -35t49 -76
q0 -76 -35 -125t-77 -49q-41 -1 -71 9t-52 26q-48 34 -49 92q0 58 35 108z" />
    <glyph glyph-name="uni1E25" unicode="&#x1e25;" horiz-adv-x="1346" 
d="M524 859q191 248 444 248q129 0 181 -74t30 -229l-93 -679l132 -20l-20 -105l-330 -22l-82 78l93 675q20 149 11 199t-53 49q-64 -1 -153 -77t-183 -210l-99 -714l-288 22l197 1415l-131 20l20 105l330 22l81 -78zM481 -222q35 50 76 50q75 0 124 -35t49 -76
q0 -76 -35 -125t-77 -49q-41 -1 -71 9q-31 10 -53 26q-48 34 -48 92t35 108z" />
    <glyph glyph-name="uni1E2A" unicode="&#x1e2a;" horiz-adv-x="1529" 
d="M171 1353h537l5 -105l-131 -20l-63 -450h524l63 450l-131 20l20 105h537l5 -105l-131 -20l-156 -1103l132 -20l-20 -105h-537l-5 105l130 20l76 534h-524l-76 -534l132 -20l-20 -105h-537l-5 105l130 20l156 1103l-131 20zM380 -404q-74 99 -56 228l108 10q-8 -49 24 -86
q32 -36 72 -54t101 -17q108 0 170 53t71 104l106 -10q-17 -128 -120 -227q-103 -100 -252 -100q-150 0 -224 99z" />
    <glyph glyph-name="uni1E2B" unicode="&#x1e2b;" horiz-adv-x="1346" 
d="M524 859q191 248 444 248q129 0 181 -74t30 -229l-93 -679l132 -20l-20 -105l-330 -22l-82 78l93 675q20 149 11 199t-53 49q-64 -1 -153 -77t-183 -210l-99 -714l-288 22l197 1415l-131 20l20 105l330 22l81 -78zM315 -404q-74 99 -56 228l108 10q-8 -49 24 -86
q33 -36 73 -54t100 -17q108 0 170 53t71 104l106 -10q-17 -128 -120 -227q-103 -100 -252 -100q-150 0 -224 99z" />
    <glyph glyph-name="uni1E36" unicode="&#x1e36;" horiz-adv-x="1033" 
d="M905 0h-906l-5 105l130 20l156 1103l-131 20l20 105h567l5 -105l-161 -20l-156 -1109h298l110 213l141 -12zM307 -222q35 50 76 50q75 0 124 -35t49 -76q0 -76 -35 -125t-77 -49q-41 -1 -71 9q-31 10 -53 26q-48 34 -48 92t35 108z" />
    <glyph glyph-name="uni1E37" unicode="&#x1e37;" horiz-adv-x="666" 
d="M194 1540l331 22l81 -78l-190 -1359l131 -20l-20 -105l-330 -22l-81 78l189 1359l-131 20zM139 -222q35 50 76 50q75 0 124 -35t49 -76q0 -76 -35 -125t-77 -49q-41 -1 -71 9q-31 10 -53 26q-48 34 -48 92t35 108z" />
    <glyph glyph-name="uni1E38" unicode="&#x1e38;" horiz-adv-x="1033" 
d="M905 0h-906l-5 105l130 20l156 1103l-131 20l20 105h567l5 -105l-161 -20l-156 -1109h298l110 213l141 -12zM307 -222q35 50 76 50q75 0 124 -35t49 -76q0 -76 -35 -125t-77 -49q-41 -1 -71 9q-31 10 -53 26q-48 34 -48 92t35 108zM93 1680h810l-19 -150h-810z" />
    <glyph glyph-name="uni1E39" unicode="&#x1e39;" horiz-adv-x="666" 
d="M194 1540l331 22l81 -78l-190 -1359l131 -20l-20 -105l-330 -22l-81 78l189 1359l-131 20zM139 -222q35 50 76 50q75 0 124 -35t49 -76q0 -76 -35 -125t-77 -49q-41 -1 -71 9q-31 10 -53 26q-48 34 -48 92t35 108zM89 1890h810l-19 -150h-810z" />
    <glyph glyph-name="uni1E3A" unicode="&#x1e3a;" horiz-adv-x="1033" 
d="M905 0h-906l-5 105l130 20l156 1103l-131 20l20 105h567l5 -105l-161 -20l-156 -1109h298l110 213l141 -12zM85 -188h750l-40 -150h-750z" />
    <glyph glyph-name="uni1E3B" unicode="&#x1e3b;" horiz-adv-x="666" 
d="M194 1540l331 22l81 -78l-190 -1359l131 -20l-20 -105l-330 -22l-81 78l189 1359l-131 20zM-83 -188h750l-40 -150h-750z" />
    <glyph glyph-name="uni1E3E" unicode="&#x1e3e;" horiz-adv-x="2035" 
d="M428 0h-427l-5 105l130 20l156 1103l-131 20l20 105h544l240 -964h17l513 964h553l5 -105l-131 -20l-156 -1103l132 -20l-20 -105h-537l-5 105l130 20l147 1037h-16l-626 -1162h-185l-297 1162h-16l-147 -1037l132 -20zM1020 1503l278 281l282 -10v-66l-415 -248l-145 11
v32z" />
    <glyph glyph-name="uni1E3F" unicode="&#x1e3f;" horiz-adv-x="2015" 
d="M1197 856q191 251 443 251t211 -288l-95 -694l131 -20l-20 -105l-330 -22l-81 78l93 675q17 124 12 186t-52 62q-128 0 -334 -287l-77 -567l131 -20l-20 -105l-330 -22l-81 78l93 675q18 128 12 188q-7 60 -61 60q-54 1 -139 -71t-185 -216l-100 -714l-286 22l132 960
l-131 20l20 105l331 22l81 -78l-24 -170q199 248 441 248q237 0 215 -251zM1065 1307l234 363l271 -10l-10 -66l-366 -329l-134 10z" />
    <glyph glyph-name="uni1E42" unicode="&#x1e42;" horiz-adv-x="2035" 
d="M428 0h-427l-5 105l130 20l156 1103l-131 20l20 105h544l240 -964h17l513 964h553l5 -105l-131 -20l-156 -1103l132 -20l-20 -105h-537l-5 105l130 20l147 1037h-16l-626 -1162h-185l-297 1162h-16l-147 -1037l132 -20zM733 -222q35 50 76 50q75 0 124 -35t49 -76
q0 -76 -35 -125t-77 -49q-41 -1 -71 9q-31 10 -53 26q-48 34 -48 92t35 108z" />
    <glyph glyph-name="uni1E43" unicode="&#x1e43;" horiz-adv-x="2015" 
d="M1197 856q191 251 443 251t211 -288l-95 -694l131 -20l-20 -105l-330 -22l-81 78l93 675q17 124 12 186t-52 62q-128 0 -334 -287l-77 -567l131 -20l-20 -105l-330 -22l-81 78l93 675q18 128 12 188q-7 60 -61 60q-54 1 -139 -71t-185 -216l-100 -714l-286 22l132 960
l-131 20l20 105l331 22l81 -78l-24 -170q199 248 441 248q237 0 215 -251zM812 -222q35 50 76 50q75 0 124 -35t49 -76q0 -76 -35 -125t-77 -49q-41 -1 -71 9t-52 26q-48 34 -49 92q0 58 35 108z" />
    <glyph glyph-name="uni1E44" unicode="&#x1e44;" horiz-adv-x="1549" 
d="M1158 1353h428l5 -105l-131 -20l-173 -1228h-373l-445 1120h-16l-141 -995l132 -20l-20 -105h-427l-5 105l130 20l156 1103l-131 20l20 105h503l444 -1118h16l139 993l-131 20zM859 1701q35 50 76 50q75 0 124 -35t49 -76q0 -76 -35 -125t-77 -49q-41 0 -71 10
q-31 10 -53 25q-48 34 -48 92t35 108z" />
    <glyph glyph-name="uni1E45" unicode="&#x1e45;" horiz-adv-x="1362" 
d="M541 859q199 248 443 248q256 0 214 -288l-95 -694l131 -20l-20 -105l-330 -22l-81 78l93 675q19 130 11 189t-52 59q-55 1 -141 -71t-196 -216l-100 -714l-286 22l132 960l-131 20l20 105l331 22l81 -78zM747 1512q35 50 76 50q75 0 124 -35t49 -76q0 -76 -35 -125
t-77 -49q-41 -1 -71 9q-31 10 -53 26q-48 34 -48 92t35 108z" />
    <glyph glyph-name="uni1E46" unicode="&#x1e46;" horiz-adv-x="1549" 
d="M1158 1353h428l5 -105l-131 -20l-173 -1228h-373l-445 1120h-16l-141 -995l132 -20l-20 -105h-427l-5 105l130 20l156 1103l-131 20l20 105h503l444 -1118h16l139 993l-131 20zM525 -222q35 50 76 50q75 0 124 -35t49 -76q0 -76 -35 -125t-77 -49q-41 -1 -71 9
q-31 10 -53 26q-48 34 -48 92t35 108z" />
    <glyph glyph-name="uni1E47" unicode="&#x1e47;" horiz-adv-x="1362" 
d="M541 859q199 248 443 248q256 0 214 -288l-95 -694l131 -20l-20 -105l-330 -22l-81 78l93 675q19 130 11 189t-52 59q-55 1 -141 -71t-196 -216l-100 -714l-286 22l132 960l-131 20l20 105l331 22l81 -78zM500 -222q35 50 76 50q75 0 124 -35t49 -76q0 -76 -35 -125
t-77 -49q-41 -1 -71 9t-52 26q-48 34 -49 92q0 58 35 108z" />
    <glyph glyph-name="uni1E48" unicode="&#x1e48;" horiz-adv-x="1549" 
d="M1158 1353h428l5 -105l-131 -20l-173 -1228h-373l-445 1120h-16l-141 -995l132 -20l-20 -105h-427l-5 105l130 20l156 1103l-131 20l20 105h503l444 -1118h16l139 993l-131 20zM303 -188h750l-40 -150h-750z" />
    <glyph glyph-name="uni1E49" unicode="&#x1e49;" horiz-adv-x="1362" 
d="M541 859q199 248 443 248q256 0 214 -288l-95 -694l131 -20l-20 -105l-330 -22l-81 78l93 675q19 130 11 189t-52 59q-55 1 -141 -71t-196 -216l-100 -714l-286 22l132 960l-131 20l20 105l331 22l81 -78zM278 -188h750l-40 -150h-750z" />
    <glyph glyph-name="rdotaccent" unicode="&#x1e59;" horiz-adv-x="978" 
d="M767 959q-48 0 -110 -83t-134 -260l-68 -491l132 -20l-20 -105h-528l-5 105l130 20l116 835l-131 20l20 105l331 22l81 -78l-25 -176q54 121 132 187t168 67q88 0 154 -44l-58 -275l-146 -12v178q-18 5 -39 5zM573 1512q35 50 76 50q75 0 124 -35t49 -76q0 -76 -35 -125
t-77 -49q-41 -1 -71 9q-31 10 -53 26q-48 34 -48 92t35 108z" />
    <glyph glyph-name="uni1E5A" unicode="&#x1e5a;" horiz-adv-x="1279" 
d="M585 725q106 0 195 26q53 102 72 231q18 130 -32 191t-179 61h-58l-72 -509h74zM736 1353q232 1 339 -87t82 -263q-18 -127 -91 -213t-190 -127l-8 -19l226 -517l127 -22l-20 -105h-339l-255 606h-113l-68 -481l132 -20l-20 -105h-537l-5 105l130 20l156 1103l-131 20
l20 105h565zM434 -222q35 50 76 50q75 0 124 -35t49 -76q0 -76 -35 -125t-77 -49q-41 -1 -71 9t-52 26q-48 34 -49 92q0 58 35 108z" />
    <glyph glyph-name="uni1E5B" unicode="&#x1e5b;" horiz-adv-x="978" 
d="M767 959q-48 0 -110 -83t-134 -260l-68 -491l132 -20l-20 -105h-528l-5 105l130 20l116 835l-131 20l20 105l331 22l81 -78l-25 -176q54 121 132 187t168 67q88 0 154 -44l-58 -275l-146 -12v178q-18 5 -39 5zM155 -222q35 50 76 50q75 0 124 -35t49 -76q0 -76 -35 -125
t-77 -49q-41 -1 -71 9q-31 10 -53 26q-48 34 -48 92t35 108z" />
    <glyph glyph-name="uni1E5C" unicode="&#x1e5c;" horiz-adv-x="1279" 
d="M585 725q106 0 195 26q53 102 72 231q18 130 -32 191t-179 61h-58l-72 -509h74zM736 1353q232 1 339 -87t82 -263q-18 -127 -91 -213t-190 -127l-8 -19l226 -517l127 -22l-20 -105h-339l-255 606h-113l-68 -481l132 -20l-20 -105h-537l-5 105l130 20l156 1103l-131 20
l20 105h565zM434 -222q35 50 76 50q75 0 124 -35t49 -76q0 -76 -35 -125t-77 -49q-41 -1 -71 9t-52 26q-48 34 -49 92q0 58 35 108zM291 1680h810l-19 -150h-810z" />
    <glyph glyph-name="uni1E5D" unicode="&#x1e5d;" horiz-adv-x="978" 
d="M767 959q-48 0 -110 -83t-134 -260l-68 -491l132 -20l-20 -105h-528l-5 105l130 20l116 835l-131 20l20 105l331 22l81 -78l-25 -176q54 121 132 187t168 67q88 0 154 -44l-58 -275l-146 -12v178q-18 5 -39 5zM155 -222q35 50 76 50q75 0 124 -35t49 -76q0 -76 -35 -125
t-77 -49q-41 -1 -71 9q-31 10 -53 26q-48 34 -48 92t35 108z" />
    <glyph glyph-name="uni1E5E" unicode="&#x1e5e;" horiz-adv-x="1279" 
d="M585 725q106 0 195 26q53 102 72 231q18 130 -32 191t-179 61h-58l-72 -509h74zM736 1353q232 1 339 -87t82 -263q-18 -127 -91 -213t-190 -127l-8 -19l226 -517l127 -22l-20 -105h-339l-255 606h-113l-68 -481l132 -20l-20 -105h-537l-5 105l130 20l156 1103l-131 20
l20 105h565zM212 -188h750l-40 -150h-750z" />
    <glyph glyph-name="uni1E5F" unicode="&#x1e5f;" horiz-adv-x="978" 
d="M767 959q-48 0 -110 -83t-134 -260l-68 -491l132 -20l-20 -105h-528l-5 105l130 20l116 835l-131 20l20 105l331 22l81 -78l-25 -176q54 121 132 187t168 67q88 0 154 -44l-58 -275l-146 -12v178q-18 5 -39 5zM-67 -188h750l-40 -150h-750z" />
    <glyph glyph-name="uni1E60" unicode="&#x1e60;" horiz-adv-x="1203" 
d="M753 1375q239 0 390 -52l-17 -290h-158l-45 201q-90 22 -195 22t-196 -28q-34 -60 -45 -138t55 -143t197 -147q231 -144 291 -240t42 -219q-25 -171 -184 -267t-414 -96t-414 63l16 279h170l45 -199q79 -24 200 -24t214 28q45 71 57 152q12 82 -38 147t-218 176
q-209 132 -277 219q-67 87 -47 227t176 235q156 94 395 94zM703 1701q35 50 76 50q75 0 124 -35t49 -76q0 -76 -35 -125t-77 -49q-41 0 -71 10q-31 10 -53 25q-48 34 -48 92t35 108z" />
    <glyph glyph-name="uni1E61" unicode="&#x1e61;" horiz-adv-x="1023" 
d="M621 1107q205 0 336 -68l-25 -261h-121l-33 199q-73 20 -154 20t-140 -18q-35 -42 -44 -99t22 -100t160 -121q200 -119 255 -203t39 -194q-18 -136 -154 -210t-342 -74t-348 70l24 260h122l31 -197q69 -23 163 -23t165 18q34 50 43 114t-26 113t-199 152
q-163 103 -213 179t-38 164q20 129 146 204t331 75zM561 1512q35 50 76 50q75 0 124 -35t49 -76q0 -76 -35 -125t-77 -49q-41 -1 -71 9q-31 10 -53 26q-48 34 -48 92t35 108z" />
    <glyph glyph-name="uni1E62" unicode="&#x1e62;" horiz-adv-x="1203" 
d="M753 1375q239 0 390 -52l-17 -290h-158l-45 201q-90 22 -195 22t-196 -28q-34 -60 -45 -138t55 -143t197 -147q231 -144 291 -240t42 -219q-25 -171 -184 -267t-414 -96t-414 63l16 279h170l45 -199q79 -24 200 -24t214 28q45 71 57 152q12 82 -38 147t-218 176
q-209 132 -277 219q-67 87 -47 227t176 235q156 94 395 94zM374 -222q35 50 76 50q75 0 124 -35t49 -76q0 -76 -35 -125t-77 -49q-41 -1 -71 9t-52 26q-48 34 -49 92q0 58 35 108z" />
    <glyph glyph-name="uni1E63" unicode="&#x1e63;" horiz-adv-x="1023" 
d="M621 1107q205 0 336 -68l-25 -261h-121l-33 199q-73 20 -154 20t-140 -18q-35 -42 -44 -99t22 -100t160 -121q200 -119 255 -203t39 -194q-18 -136 -154 -210t-342 -74t-348 70l24 260h122l31 -197q69 -23 163 -23t165 18q34 50 43 114t-26 113t-199 152
q-163 103 -213 179t-38 164q20 129 146 204t331 75zM308 -222q35 50 76 50q75 0 124 -35t49 -76q0 -76 -35 -125t-77 -49q-41 -1 -71 9t-52 26q-48 34 -49 92q0 58 35 108z" />
    <glyph glyph-name="uni1E6C" unicode="&#x1e6c;" horiz-adv-x="1148" 
d="M223 105l130 20l157 1109h-227l-75 -191h-148l56 310h1112l-27 -310h-139l-30 191h-222l-157 -1109l132 -20l-20 -105h-537zM329 -222q35 50 76 50q75 0 124 -35t49 -76q0 -76 -35 -125t-77 -49q-41 -1 -71 9q-31 10 -53 26q-48 34 -48 92t35 108z" />
    <glyph glyph-name="uni1E6D" unicode="&#x1e6d;" horiz-adv-x="821" 
d="M534 88q88 0 197 70v-106q-113 -74 -290 -74q-176 0 -239 92t-36 283l87 628h-177l15 104h176l29 207l303 83l-41 -290h277l-15 -104h-276l-89 -633q-18 -122 -3 -191t82 -69zM276 -222q35 50 76 50q75 0 124 -35t49 -76q0 -76 -35 -125t-77 -49q-41 -1 -71 9t-52 26
q-48 34 -49 92q0 58 35 108z" />
    <glyph glyph-name="uni1E6E" unicode="&#x1e6e;" horiz-adv-x="1148" 
d="M223 105l130 20l157 1109h-227l-75 -191h-148l56 310h1112l-27 -310h-139l-30 191h-222l-157 -1109l132 -20l-20 -105h-537zM107 -188h750l-40 -150h-750z" />
    <glyph glyph-name="uni1E6F" unicode="&#x1e6f;" horiz-adv-x="821" 
d="M534 88q88 0 197 70v-106q-113 -74 -290 -74q-176 0 -239 92t-36 283l87 628h-177l15 104h176l29 207l303 83l-41 -290h277l-15 -104h-276l-89 -633q-18 -122 -3 -191t82 -69zM54 -188h750l-40 -150h-750z" />
    <glyph glyph-name="Wgrave" unicode="&#x1e80;" horiz-adv-x="2111" 
d="M163 1228l-103 20l14 105h497l11 -105l-137 -20l195 -903h16l428 1028h251l191 -1028h16l386 904l-132 19l14 105h414l11 -105l-112 -22l-541 -1226h-274l-181 975h-16l-409 -975h-272zM1353 1471l-146 -11l-360 248l9 66l283 10l219 -281z" />
    <glyph glyph-name="wgrave" unicode="&#x1e81;" horiz-adv-x="1745" 
d="M46 1085l284 22l81 -78l124 -785l405 863l145 -22l143 -905q185 286 273 585q30 102 44 196l-125 19l14 105l220 22l81 -78q0 -297 -252 -725q-105 -179 -223 -326l-261 22l-108 663l-313 -685l-262 22l-154 960l-130 20zM1085 1275l-149 -10l-274 329l10 66l286 10
l132 -363z" />
    <glyph glyph-name="Wacute" unicode="&#x1e82;" horiz-adv-x="2111" 
d="M163 1228l-103 20l14 105h497l11 -105l-137 -20l195 -903h16l428 1028h251l191 -1028h16l386 904l-132 19l14 105h414l11 -105l-112 -22l-541 -1226h-274l-181 975h-16l-409 -975h-272zM1110 1503l278 281l282 -10v-66l-415 -248l-145 11v32z" />
    <glyph glyph-name="wacute" unicode="&#x1e83;" horiz-adv-x="1745" 
d="M46 1085l284 22l81 -78l124 -785l405 863l145 -22l143 -905q185 286 273 585q30 102 44 196l-125 19l14 105l220 22l81 -78q0 -297 -252 -725q-105 -179 -223 -326l-261 22l-108 663l-313 -685l-262 22l-154 960l-130 20zM948 1307l234 363l271 -10l-10 -66l-366 -329
l-134 10z" />
    <glyph glyph-name="Wdieresis" unicode="&#x1e84;" horiz-adv-x="2111" 
d="M163 1228l-103 20l14 105h497l11 -105l-137 -20l195 -903h16l428 1028h251l191 -1028h16l386 904l-132 19l14 105h414l11 -105l-112 -22l-541 -1226h-274l-181 975h-16l-409 -975h-272zM1431 1683q31 45 68 45q68 0 112 -31t44 -69q0 -67 -31 -113q-31 -45 -70 -45
q-38 0 -65 8t-47 24q-42 33 -42 84q0 52 31 97zM890 1684q31 44 68 44q69 0 112 -31t43 -69q-1 -66 -31 -112t-68 -46t-65 8t-47 24q-44 32 -44 84q0 53 32 98z" />
    <glyph glyph-name="wdieresis" unicode="&#x1e85;" horiz-adv-x="1745" 
d="M46 1085l284 22l81 -78l124 -785l405 863l145 -22l143 -905q185 286 273 585q30 102 44 196l-125 19l14 105l220 22l81 -78q0 -297 -252 -725q-105 -179 -223 -326l-261 22l-108 663l-313 -685l-262 22l-154 960l-130 20zM1154 1495q31 45 68 45q69 0 112 -32
q44 -32 44 -69q0 -66 -31 -112q-31 -45 -70 -45q-38 0 -65 8q-26 8 -46 24q-42 33 -43 84q0 52 31 97zM674 1496q31 44 69 44q69 0 112 -32t43 -69q0 -65 -30 -111t-69 -46q-38 0 -65 8q-28 8 -48 24q-44 32 -43 84q-1 53 31 98z" />
    <glyph glyph-name="Wdotaccent" unicode="&#x1e86;" horiz-adv-x="2111" 
d="M163 1228l-103 20l14 105h497l11 -105l-137 -20l195 -903h16l428 1028h251l191 -1028h16l386 904l-132 19l14 105h414l11 -105l-112 -22l-541 -1226h-274l-181 975h-16l-409 -975h-272zM1184 1701q35 50 76 50q75 0 124 -35t49 -76q0 -76 -35 -125t-77 -49q-41 0 -71 10
t-52 25q-48 34 -49 92q0 58 35 108z" />
    <glyph glyph-name="wdotaccent" unicode="&#x1e87;" horiz-adv-x="1745" 
d="M46 1085l284 22l81 -78l124 -785l405 863l145 -22l143 -905q185 286 273 585q30 102 44 196l-125 19l14 105l220 22l81 -78q0 -297 -252 -725q-105 -179 -223 -326l-261 22l-108 663l-313 -685l-262 22l-154 960l-130 20zM927 1512q35 50 76 50q75 0 124 -35t49 -76
q0 -76 -35 -125t-77 -49q-41 -1 -71 9q-31 10 -53 26q-48 34 -48 92t35 108z" />
    <glyph glyph-name="uni1E8E" unicode="&#x1e8e;" horiz-adv-x="1162" 
d="M42 1353h481l11 -105l-105 -15l229 -463h16l345 464l-100 14l14 105h396l11 -105l-122 -24l-455 -607l-70 -492l132 -20l-20 -105h-537l-5 105l130 20l65 461l-320 640l-110 22zM678 1701q35 50 76 50q75 0 124 -35t49 -76q0 -76 -35 -125t-77 -49q-41 0 -71 10t-52 25
q-48 34 -49 92q0 58 35 108z" />
    <glyph glyph-name="uni1E8F" unicode="&#x1e8f;" horiz-adv-x="1283" 
d="M381 -22q-133 0 -186 72t-32 216l95 694l-132 20l20 105l331 22l81 -78l-95 -695q-16 -118 -10 -173q7 -55 59 -55q111 0 330 285l79 569l-132 20l20 105l331 22l81 -78l-126 -900q-43 -276 -201 -431t-373 -155t-435 90l42 180q315 -130 504 -130q54 46 100 148t68 258
l18 134q-78 -109 -191 -177t-246 -68zM664 1512q35 50 76 50q75 0 124 -35t49 -76q0 -76 -35 -125t-77 -49q-41 -1 -71 9t-52 26q-48 34 -49 92q0 58 35 108z" />
    <glyph glyph-name="Zcircumflex" unicode="&#x1e90;" horiz-adv-x="1242" 
d="M1220 1353v-94l-838 -1126l3 -14h497l99 213l150 -12l-67 -320h-1050v95l837 1125l-3 14h-456l-99 -213l-151 12l68 320h1010zM1116 1470l-156 -10l-197 185l-262 -185l-123 10l5 32l303 292l222 -10l213 -282z" />
    <glyph glyph-name="zcircumflex" unicode="&#x1e91;" horiz-adv-x="1067" 
d="M725 975h-356l-82 -174l-143 26l50 258h877l-10 -83l-686 -892h365l82 174l143 -26l-50 -258h-877l11 95zM1014 1275l-157 -10l-170 247l-239 -247l-123 10l4 32l286 373l221 -10l182 -363z" />
    <glyph glyph-name="uni1E92" unicode="&#x1e92;" horiz-adv-x="1242" 
d="M1220 1353v-94l-838 -1126l3 -14h497l99 213l150 -12l-67 -320h-1050v95l837 1125l-3 14h-456l-99 -213l-151 12l68 320h1010zM393 -222q35 50 76 50q75 0 124 -35t49 -76q0 -76 -35 -125t-77 -49q-41 -1 -71 9q-31 10 -53 26q-48 34 -48 92t35 108z" />
    <glyph glyph-name="uni1E93" unicode="&#x1e93;" horiz-adv-x="1067" 
d="M725 975h-356l-82 -174l-143 26l50 258h877l-10 -83l-686 -892h365l82 174l143 -26l-50 -258h-877l11 95zM350 -222q35 50 76 50q75 0 124 -35t49 -76q0 -76 -35 -125t-77 -49q-41 -1 -71 9t-52 26q-48 34 -49 92q0 58 35 108z" />
    <glyph glyph-name="uni1E97" unicode="&#x1e97;" horiz-adv-x="821" 
d="M534 88q88 0 197 70v-106q-113 -74 -290 -74q-176 0 -239 92t-36 283l87 628h-177l15 104h176l29 207l303 83l-41 -290h277l-15 -104h-276l-89 -633q-18 -122 -3 -191t82 -69zM690 1683q31 45 68 45q68 0 112 -31t44 -69q0 -67 -31 -113q-31 -45 -70 -45q-38 0 -65 8
q-26 8 -46 24q-42 33 -43 84q0 52 31 97zM148 1684q31 44 69 44q69 0 112 -31t43 -69q0 -66 -30 -112t-69 -46q-38 0 -65 8q-28 8 -48 24q-44 32 -43 84q-1 53 31 98z" />
    <glyph glyph-name="wring" unicode="&#x1e98;" horiz-adv-x="1745" 
d="M46 1085l284 22l81 -78l124 -785l405 863l145 -22l143 -905q185 286 273 585q30 102 44 196l-125 19l14 105l220 22l81 -78q0 -297 -252 -725q-105 -179 -223 -326l-261 22l-108 663l-313 -685l-262 22l-154 960l-130 20zM1102 1560q-18 32 -48 33q-30 0 -57 -9
q-23 -42 -32 -109t9 -99t54 -33q36 0 60 9q11 30 21 103q11 73 -7 105zM1226 1632q55 -43 45 -119q-18 -133 -92 -193t-181 -60q-153 0 -188 96q-12 34 -4 88t32 98q26 44 63 74q73 58 172 59q98 0 153 -43z" />
    <glyph glyph-name="yring" unicode="&#x1e99;" horiz-adv-x="1283" 
d="M381 -22q-133 0 -186 72t-32 216l95 694l-132 20l20 105l331 22l81 -78l-95 -695q-16 -118 -10 -173q7 -55 59 -55q111 0 330 285l79 569l-132 20l20 105l331 22l81 -78l-126 -900q-43 -276 -201 -431t-373 -155t-435 90l42 180q315 -130 504 -130q54 46 100 148t68 258
l18 134q-78 -109 -191 -177t-246 -68zM838 1560q-18 32 -47 33q-29 0 -57 -9q-23 -42 -32 -109q-8 -67 10 -99t54 -33q36 0 59 9q11 30 21 103t-8 105zM963 1632q55 -43 45 -119q-18 -133 -92 -193t-181 -60q-153 0 -188 96q-13 34 -5 88t34 98t62 74q73 58 172 59
q98 0 153 -43z" />
    <glyph glyph-name="uni1E9E" unicode="&#x1e9e;" horiz-adv-x="1362" 
d="M812 -22q-208 0 -320 63l16 279h130l58 -207q44 -16 89 -16q81 0 142 18q49 56 61 127q20 118 -33 203t-174 173l-116 84l7 98l379 424h-508l-173 -1224h-408l-5 105l130 20l156 1103l-131 20l20 105h1182l-13 -94l-365 -404l47 -33q173 -122 256.5 -232t65.5 -245
q-27 -167 -156 -267t-337 -100z" />
    <glyph glyph-name="uni1EA0" unicode="&#x1ea0;" horiz-adv-x="1277" 
d="M636 1007l-241 -492h355l-98 492h-16zM320 0h-404l-8 105l110 20l613 1228h239l257 -1229l106 -19l-17 -105h-517l-8 105l137 19l-54 272h-437l-133 -273l133 -18zM418 -222q35 50 76 50q75 0 124 -35t49 -76q0 -76 -35 -125t-77 -49q-41 -1 -71 9t-52 26q-48 34 -49 92
q0 58 35 108z" />
    <glyph glyph-name="uni1EA1" unicode="&#x1ea1;" horiz-adv-x="1244" 
d="M448 106q50 0 130 80t165 207l82 589q-71 21 -151 21t-163 -30q-80 -151 -113 -381l-18 -131q-24 -167 -14 -261t82 -94zM341 -22q-160 0 -226 96t-38 299l26 188q37 252 195 399t375 147t449 -78l-126 -904l132 -20l-20 -105l-330 -22l-81 78l23 169q-82 -115 -181 -181
t-198 -66zM403 -222q35 50 76 50q75 0 124 -35t49 -76q0 -76 -35 -125t-77 -49q-41 -1 -71 9q-31 10 -53 26q-48 34 -48 92t35 108z" />
    <glyph glyph-name="uni1EA2" unicode="&#x1ea2;" horiz-adv-x="1277" 
d="M636 1007l-241 -492h355l-98 492h-16zM320 0h-404l-8 105l110 20l613 1228h239l257 -1229l106 -19l-17 -105h-517l-8 105l137 19l-54 272h-437l-133 -273l133 -18zM726 1766l-36 -94l-107 5l19 133q114 55 219 55q205 0 187 -141q-12 -93 -137 -157q-70 -36 -80 -49
q-17 -23 -5 -52l-95 -27q-30 47 -22 94q5 64 86 116q45 28 61 45t18 37t-8 35t-34 15q-26 0 -66 -15z" />
    <glyph glyph-name="uni1EA3" unicode="&#x1ea3;" horiz-adv-x="1244" 
d="M448 106q50 0 130 80t165 207l82 589q-71 21 -151 21t-163 -30q-80 -151 -113 -381l-18 -131q-24 -167 -14 -261t82 -94zM341 -22q-160 0 -226 96t-38 299l26 188q37 252 195 399t375 147t449 -78l-126 -904l132 -20l-20 -105l-330 -22l-81 78l23 169q-82 -115 -181 -181
t-198 -66zM708 1571l-36 -94l-107 5l19 133q114 55 219 55q205 0 187 -141q-12 -93 -137 -157q-70 -36 -80 -49q-17 -23 -5 -52l-95 -27q-30 47 -22 94q5 64 86 116q45 28 61 45t18 37t-8 35t-34 15q-26 0 -66 -15z" />
    <glyph glyph-name="uni1EA4" unicode="&#x1ea4;" horiz-adv-x="1277" 
d="M636 1007l-241 -492h355l-98 492h-16zM320 0h-404l-8 105l110 20l613 1228h239l257 -1229l106 -19l-17 -105h-517l-8 105l137 19l-54 272h-437l-133 -273l133 -18zM1046 1734l200 182l232 -10v-66l-307 -149l-125 11v32zM1132 1470l-156 -10l-197 185l-262 -185l-123 10
l5 32l303 292l222 -10l213 -282z" />
    <glyph glyph-name="uni1EA5" unicode="&#x1ea5;" horiz-adv-x="1244" 
d="M448 106q50 0 130 80t165 207l82 589q-71 21 -151 21t-163 -30q-80 -151 -113 -381l-18 -131q-24 -167 -14 -261t82 -94zM341 -22q-160 0 -226 96t-38 299l26 188q37 252 195 399t375 147t449 -78l-126 -904l132 -20l-20 -105l-330 -22l-81 78l23 169q-82 -115 -181 -181
t-198 -66zM1058 1572l173 237l221 -10l-10 -66l-275 -203l-114 10zM1106 1275l-157 -10l-170 247l-239 -247l-123 10l4 32l286 373l221 -10l182 -363z" />
    <glyph glyph-name="uni1EA6" unicode="&#x1ea6;" horiz-adv-x="1277" 
d="M636 1007l-241 -492h355l-98 492h-16zM320 0h-404l-8 105l110 20l613 1228h239l257 -1229l106 -19l-17 -105h-517l-8 105l137 19l-54 272h-437l-133 -273l133 -18zM547 1702l-116 -11l-243 149l9 66l213 10l142 -182zM1132 1470l-156 -10l-197 185l-262 -185l-123 10
l5 32l303 292l222 -10l213 -282z" />
    <glyph glyph-name="uni1EA7" unicode="&#x1ea7;" horiz-adv-x="1244" 
d="M448 106q50 0 130 80t165 207l82 589q-71 21 -151 21t-163 -30q-80 -151 -113 -381l-18 -131q-24 -167 -14 -261t82 -94zM341 -22q-160 0 -226 96t-38 299l26 188q37 252 195 399t375 147t449 -78l-126 -904l132 -20l-20 -105l-330 -22l-81 78l23 169q-82 -115 -181 -181
t-198 -66zM540 1540l-129 -10l-219 203l10 66l236 10l107 -237zM1106 1275l-157 -10l-170 247l-239 -247l-123 10l4 32l286 373l221 -10l182 -363z" />
    <glyph glyph-name="uni1EA8" unicode="&#x1ea8;" horiz-adv-x="1277" 
d="M636 1007l-241 -492h355l-98 492h-16zM320 0h-404l-8 105l110 20l613 1228h239l257 -1229l106 -19l-17 -105h-517l-8 105l137 19l-54 272h-437l-133 -273l133 -18zM1101 2002l-36 -94l-107 5l19 133q114 55 219 55q205 0 187 -141q-12 -93 -137 -157q-70 -36 -80 -49
q-17 -23 -5 -52l-95 -27q-30 47 -22 94q5 64 86 116q44 28 60 45t19 37t-7 35t-35 15q-26 0 -66 -15zM1132 1470l-156 -10l-197 185l-262 -185l-123 10l5 32l303 292l222 -10l213 -282z" />
    <glyph glyph-name="uni1EA9" unicode="&#x1ea9;" horiz-adv-x="1244" 
d="M448 106q50 0 130 80t165 207l82 589q-71 21 -151 21t-163 -30q-80 -151 -113 -381l-18 -131q-24 -167 -14 -261t82 -94zM341 -22q-160 0 -226 96t-38 299l26 188q37 252 195 399t375 147t449 -78l-126 -904l132 -20l-20 -105l-330 -22l-81 78l23 169q-82 -115 -181 -181
t-198 -66zM1102 1840l-36 -94l-107 5l19 133q114 55 219 55q205 0 187 -141q-12 -93 -137 -157q-70 -36 -80 -49q-17 -23 -5 -52l-95 -27q-30 47 -22 94q5 64 86 116q45 28 61 45t18 37t-8 35t-34 15q-26 0 -66 -15zM1106 1275l-157 -10l-170 247l-239 -247l-123 10l4 32
l286 373l221 -10l182 -363z" />
    <glyph glyph-name="uni1EAA" unicode="&#x1eaa;" horiz-adv-x="1277" 
d="M636 1007l-241 -492h355l-98 492h-16zM320 0h-404l-8 105l110 20l613 1228h239l257 -1229l106 -19l-17 -105h-517l-8 105l137 19l-54 272h-437l-133 -273l133 -18zM1132 1470l-156 -10l-197 185l-262 -185l-123 10l5 32l303 292l222 -10l213 -282zM1114 2051q42 -1 72 29
q32 30 42 91l118 10l-10 -72q-17 -119 -88 -187t-173 -67q-101 0 -271 66q-169 66 -202 66q-61 0 -91 -21t-37 -77l-110 -10l7 50q18 127 94 191t185 63q109 0 264 -66q58 -25 108 -45t92 -21z" />
    <glyph glyph-name="uni1EAB" unicode="&#x1eab;" horiz-adv-x="1244" 
d="M448 106q50 0 130 80t165 207l82 589q-71 21 -151 21t-163 -30q-80 -151 -113 -381l-18 -131q-24 -167 -14 -261t82 -94zM341 -22q-160 0 -226 96t-38 299l26 188q37 252 195 399t375 147t449 -78l-126 -904l132 -20l-20 -105l-330 -22l-81 78l23 169q-82 -115 -181 -181
t-198 -66zM1106 1275l-157 -10l-170 247l-239 -247l-123 10l4 32l286 373l221 -10l182 -363zM1066 1937q34 -1 60 29t36 91l118 10l-10 -72q-16 -119 -82 -187t-158 -67q-92 0 -240 66q-56 25 -104 45t-83 21q-35 0 -61 -19t-35 -79l-110 -10l7 50q18 127 88 191t169 63
q98 0 232 -66q51 -25 95 -45t78 -21z" />
    <glyph glyph-name="uni1EAC" unicode="&#x1eac;" horiz-adv-x="1277" 
d="M636 1007l-241 -492h355l-98 492h-16zM320 0h-404l-8 105l110 20l613 1228h239l257 -1229l106 -19l-17 -105h-517l-8 105l137 19l-54 272h-437l-133 -273l133 -18zM418 -222q35 50 76 50q75 0 124 -35t49 -76q0 -76 -35 -125t-77 -49q-41 -1 -71 9t-52 26q-48 34 -49 92
q0 58 35 108zM1132 1470l-156 -10l-197 185l-262 -185l-123 10l5 32l303 292l222 -10l213 -282z" />
    <glyph glyph-name="uni1EAD" unicode="&#x1ead;" horiz-adv-x="1244" 
d="M448 106q50 0 130 80t165 207l82 589q-71 21 -151 21t-163 -30q-80 -151 -113 -381l-18 -131q-24 -167 -14 -261t82 -94zM341 -22q-160 0 -226 96t-38 299l26 188q37 252 195 399t375 147t449 -78l-126 -904l132 -20l-20 -105l-330 -22l-81 78l23 169q-82 -115 -181 -181
t-198 -66zM395 -222q35 50 76 50q75 0 124 -35t49 -76q0 -76 -35 -125t-77 -49q-41 -1 -71 9q-31 10 -53 26q-48 34 -48 92t35 108zM1084 1275l-157 -10l-170 247l-239 -247l-123 10l4 32l286 373l221 -10l182 -363z" />
    <glyph glyph-name="uni1EAE" unicode="&#x1eae;" horiz-adv-x="1277" 
d="M636 1007l-241 -492h355l-98 492h-16zM320 0h-404l-8 105l110 20l613 1228h239l257 -1229l106 -19l-17 -105h-517l-8 105l137 19l-54 272h-437l-133 -273l133 -18zM681 1782l278 281l282 -10v-66l-415 -248l-145 11v32zM511 1548q-81 91 -67 201l108 10q-7 -41 26 -71
q34 -29 80 -45t124 -16q134 0 197 45q64 45 71 87l105 -10q-14 -107 -121 -199q-108 -93 -275 -93t-248 91z" />
    <glyph glyph-name="uni1EAF" unicode="&#x1eaf;" horiz-adv-x="1244" 
d="M448 106q50 0 130 80t165 207l82 589q-71 21 -151 21t-163 -30q-80 -151 -113 -381l-18 -131q-24 -167 -14 -261t82 -94zM341 -22q-160 0 -226 96t-38 299l26 188q37 252 195 399t375 147t449 -78l-126 -904l132 -20l-20 -105l-330 -22l-81 78l23 169q-82 -115 -181 -181
t-198 -66zM724 1632l234 363l271 -10l-10 -66l-366 -329l-134 10zM526 1364q-74 99 -56 228l108 10q-8 -50 24 -86t72 -54t101 -17q108 0 170 53t71 104l106 -10q-17 -128 -120 -227q-103 -100 -252 -100q-150 0 -224 99z" />
    <glyph glyph-name="uni1EB0" unicode="&#x1eb0;" horiz-adv-x="1277" 
d="M636 1007l-241 -492h355l-98 492h-16zM320 0h-404l-8 105l110 20l613 1228h239l257 -1229l106 -19l-17 -105h-517l-8 105l137 19l-54 272h-437l-133 -273l133 -18zM924 1750l-146 -11l-360 248l9 66l283 10l219 -281zM511 1548q-81 91 -67 201l108 10q-7 -41 26 -71
q34 -29 80 -45t124 -16q134 0 197 45q64 45 71 87l105 -10q-14 -107 -121 -199q-108 -93 -275 -93t-248 91z" />
    <glyph glyph-name="uni1EB1" unicode="&#x1eb1;" horiz-adv-x="1244" 
d="M448 106q50 0 130 80t165 207l82 589q-71 21 -151 21t-163 -30q-80 -151 -113 -381l-18 -131q-24 -167 -14 -261t82 -94zM341 -22q-160 0 -226 96t-38 299l26 188q37 252 195 399t375 147t449 -78l-126 -904l132 -20l-20 -105l-330 -22l-81 78l23 169q-82 -115 -181 -181
t-198 -66zM906 1600l-149 -10l-274 329l10 66l286 10l132 -363zM526 1364q-74 99 -56 228l108 10q-8 -50 24 -86t72 -54t101 -17q108 0 170 53t71 104l106 -10q-17 -128 -120 -227q-103 -100 -252 -100q-150 0 -224 99z" />
    <glyph glyph-name="uni1EB2" unicode="&#x1eb2;" horiz-adv-x="1277" 
d="M636 1007l-241 -492h355l-98 492h-16zM320 0h-404l-8 105l110 20l613 1228h239l257 -1229l106 -19l-17 -105h-517l-8 105l137 19l-54 272h-437l-133 -273l133 -18zM811 2043l-36 -94l-107 5l19 133q114 55 219 55q205 0 187 -141q-12 -93 -137 -157q-70 -36 -80 -49
q-17 -23 -5 -52l-95 -27q-30 47 -22 94q5 64 86 116q44 28 60 45t19 37t-7 35t-35 15q-26 0 -66 -15zM519 1548q-81 91 -67 201l108 10q-7 -41 26 -71q34 -29 80 -45t124 -16q134 0 197 45q64 45 71 87l105 -10q-14 -107 -121 -199q-108 -93 -275 -93t-248 91z" />
    <glyph glyph-name="uni1EB3" unicode="&#x1eb3;" horiz-adv-x="1244" 
d="M448 106q50 0 130 80t165 207l82 589q-71 21 -151 21t-163 -30q-80 -151 -113 -381l-18 -131q-24 -167 -14 -261t82 -94zM341 -22q-160 0 -226 96t-38 299l26 188q37 252 195 399t375 147t449 -78l-126 -904l132 -20l-20 -105l-330 -22l-81 78l23 169q-82 -115 -181 -181
t-198 -66zM792 1896l-36 -94l-107 5l19 133q114 55 219 55q205 0 187 -141q-12 -93 -137 -157q-70 -36 -80 -49q-17 -23 -5 -52l-95 -27q-30 47 -22 94q5 64 86 116q45 28 61 45t18 37t-8 35t-34 15q-26 0 -66 -15zM526 1364q-74 99 -56 228l108 10q-8 -50 24 -86t72 -54
t101 -17q108 0 170 53t71 104l106 -10q-17 -128 -120 -227q-103 -100 -252 -100q-150 0 -224 99z" />
    <glyph glyph-name="uni1EB4" unicode="&#x1eb4;" horiz-adv-x="1277" 
d="M636 1007l-241 -492h355l-98 492h-16zM320 0h-404l-8 105l110 20l613 1228h239l257 -1229l106 -19l-17 -105h-517l-8 105l137 19l-54 272h-437l-133 -273l133 -18zM1094 2008q42 0 72 30q32 30 42 90l118 10l-10 -72q-17 -118 -88 -186t-173 -68q-101 0 -271 66
q-169 66 -202 66q-61 0 -91 -21t-37 -77l-110 -10l7 50q18 126 94 190t185 64t264 -66q58 -26 108 -46t92 -20zM511 1548q-81 91 -67 201l108 10q-7 -41 26 -71q34 -29 80 -45t124 -16q134 0 197 45q64 45 71 87l105 -10q-14 -107 -121 -199q-108 -93 -275 -93t-248 91z" />
    <glyph glyph-name="uni1EB5" unicode="&#x1eb5;" horiz-adv-x="1244" 
d="M448 106q50 0 130 80t165 207l82 589q-71 21 -151 21t-163 -30q-80 -151 -113 -381l-18 -131q-24 -167 -14 -261t82 -94zM341 -22q-160 0 -226 96t-38 299l26 188q37 252 195 399t375 147t449 -78l-126 -904l132 -20l-20 -105l-330 -22l-81 78l23 169q-82 -115 -181 -181
t-198 -66zM1048 1851q34 -1 61 29q26 30 36 91l118 10l-10 -72q-17 -119 -83 -187t-157 -67q-92 0 -240 66q-56 25 -104 45t-83 21q-35 0 -61 -19t-35 -79l-110 -10l7 50q19 127 89 191t168 63q98 0 232 -66q50 -25 94 -45t78 -21zM526 1364q-74 99 -56 228l108 10
q-8 -50 24 -86t72 -54t101 -17q108 0 170 53t71 104l106 -10q-17 -128 -120 -227q-103 -100 -252 -100q-150 0 -224 99z" />
    <glyph glyph-name="uni1EB6" unicode="&#x1eb6;" horiz-adv-x="1277" 
d="M636 1007l-241 -492h355l-98 492h-16zM320 0h-404l-8 105l110 20l613 1228h239l257 -1229l106 -19l-17 -105h-517l-8 105l137 19l-54 272h-437l-133 -273l133 -18zM418 -222q35 50 76 50q75 0 124 -35t49 -76q0 -76 -35 -125t-77 -49q-41 -1 -71 9t-52 26q-48 34 -49 92
q0 58 35 108zM519 1548q-81 91 -67 201l108 10q-7 -41 26 -71q34 -29 80 -45t124 -16q134 0 197 45q64 45 71 87l105 -10q-14 -107 -121 -199q-108 -93 -275 -93t-248 91z" />
    <glyph glyph-name="uni1EB7" unicode="&#x1eb7;" horiz-adv-x="1244" 
d="M448 106q50 0 130 80t165 207l82 589q-71 21 -151 21t-163 -30q-80 -151 -113 -381l-18 -131q-24 -167 -14 -261t82 -94zM341 -22q-160 0 -226 96t-38 299l26 188q37 252 195 399t375 147t449 -78l-126 -904l132 -20l-20 -105l-330 -22l-81 78l23 169q-82 -115 -181 -181
t-198 -66zM383 -222q35 50 76 50q75 0 124 -35t49 -76q0 -76 -35 -125t-77 -49q-41 -1 -71 9q-31 10 -53 26q-48 34 -48 92t35 108zM504 1364q-74 99 -56 228l108 10q-8 -49 24 -86q32 -36 72 -54t101 -17q108 0 170 53t71 104l106 -10q-17 -128 -120 -227
q-103 -100 -252 -100q-150 0 -224 99z" />
    <glyph glyph-name="uni1EB8" unicode="&#x1eb8;" horiz-adv-x="1246" 
d="M816 648h-314l-74 -529h428l105 203l160 -13l-66 -309h-1052l-5 105l130 20l156 1103l-131 20l20 105h1043l-19 -320h-166l-40 201h-406l-66 -467h317l40 127l103 -20l-56 -355l-107 -5v134zM416 -222q35 50 76 50q75 0 124 -35t49 -76q0 -76 -35 -125t-77 -49
q-41 -1 -71 9t-52 26q-48 34 -49 92q0 58 35 108z" />
    <glyph glyph-name="uni1EB9" unicode="&#x1eb9;" horiz-adv-x="1023" 
d="M388 596q92 -10 149 -10q56 0 97 13q61 89 76 198q16 109 -7 155t-86 45q-63 0 -119 -29q-73 -161 -110 -372zM664 1107q381 0 343 -283q-23 -162 -153 -252t-335 -90q-79 0 -146 12l-7 -51q-26 -173 20 -264t178 -91t304 90v-106q-169 -94 -400 -94q-457 0 -394 451
l13 93q41 277 195 431t382 154zM322 -222q35 50 76 50q75 0 124 -35t49 -76q0 -76 -35 -125t-77 -49q-41 -1 -71 9t-52 26q-48 34 -49 92q0 58 35 108z" />
    <glyph glyph-name="uni1EBA" unicode="&#x1eba;" horiz-adv-x="1246" 
d="M816 648h-314l-74 -529h428l105 203l160 -13l-66 -309h-1052l-5 105l130 20l156 1103l-131 20l20 105h1043l-19 -320h-166l-40 201h-406l-66 -467h317l40 127l103 -20l-56 -355l-107 -5v134zM719 1766l-36 -94l-107 5l19 133q114 55 219 55q205 0 187 -141
q-12 -93 -137 -157q-70 -36 -80 -49q-17 -23 -5 -52l-95 -27q-30 47 -22 94q5 64 86 116q44 28 60 45t19 37t-7 35t-35 15q-26 0 -66 -15z" />
    <glyph glyph-name="uni1EBB" unicode="&#x1ebb;" horiz-adv-x="1023" 
d="M388 596q92 -10 149 -10q56 0 97 13q61 89 76 198q16 109 -7 155t-86 45q-63 0 -119 -29q-73 -161 -110 -372zM664 1107q381 0 343 -283q-23 -162 -153 -252t-335 -90q-79 0 -146 12l-7 -51q-26 -173 20 -264t178 -91t304 90v-106q-169 -94 -400 -94q-457 0 -394 451
l13 93q41 277 195 431t382 154zM671 1571l-36 -94l-107 5l19 133q114 55 219 55q205 0 187 -141q-12 -93 -137 -157q-70 -36 -80 -49q-17 -23 -5 -52l-95 -27q-30 47 -22 94q5 64 86 116q44 28 60 45t19 37t-7 35t-35 15q-26 0 -66 -15z" />
    <glyph glyph-name="uni1EBC" unicode="&#x1ebc;" horiz-adv-x="1246" 
d="M816 648h-314l-74 -529h428l105 203l160 -13l-66 -309h-1052l-5 105l130 20l156 1103l-131 20l20 105h1043l-19 -320h-166l-40 201h-406l-66 -467h317l40 127l103 -20l-56 -355l-107 -5v134zM1018 1645q42 -1 72 29q32 30 42 91l118 10l-10 -72q-17 -119 -88 -187
t-173 -67q-101 0 -271 66q-169 66 -202 66q-61 0 -91 -21t-37 -77l-110 -10l7 50q18 127 94 191t185 63q109 0 264 -66q58 -25 108 -45t92 -21z" />
    <glyph glyph-name="uni1EBD" unicode="&#x1ebd;" horiz-adv-x="1023" 
d="M388 596q92 -10 149 -10q56 0 97 13q61 89 76 198q16 109 -7 155t-86 45q-63 0 -119 -29q-73 -161 -110 -372zM664 1107q381 0 343 -283q-23 -162 -153 -252t-335 -90q-79 0 -146 12l-7 -51q-26 -173 20 -264t178 -91t304 90v-106q-169 -94 -400 -94q-457 0 -394 451
l13 93q41 277 195 431t382 154zM940 1429q34 -1 60 29t36 91l118 10l-10 -72q-16 -119 -82 -187t-158 -67q-92 0 -240 66q-56 25 -104 45t-83 21q-35 0 -61 -19t-35 -79l-110 -10l7 50q18 127 88 191t169 63q98 0 232 -66q51 -25 95 -45t78 -21z" />
    <glyph glyph-name="uni1EBE" unicode="&#x1ebe;" horiz-adv-x="1246" 
d="M816 648h-314l-74 -529h428l105 203l160 -13l-66 -309h-1052l-5 105l130 20l156 1103l-131 20l20 105h1043l-19 -320h-166l-40 201h-406l-66 -467h317l40 127l103 -20l-56 -355l-107 -5v134zM1039 1734l200 182l232 -10v-66l-307 -149l-125 11v32zM1125 1470l-156 -10
l-197 185l-262 -185l-123 10l5 32l303 292l222 -10l213 -282z" />
    <glyph glyph-name="uni1EBF" unicode="&#x1ebf;" horiz-adv-x="1023" 
d="M388 596q92 -10 149 -10q56 0 97 13q61 89 76 198q16 109 -7 155t-86 45q-63 0 -119 -29q-73 -161 -110 -372zM664 1107q381 0 343 -283q-23 -162 -153 -252t-335 -90q-79 0 -146 12l-7 -51q-26 -173 20 -264t178 -91t304 90v-106q-169 -94 -400 -94q-457 0 -394 451
l13 93q41 277 195 431t382 154zM1021 1572l173 237l221 -10l-10 -66l-275 -203l-114 10zM1069 1275l-157 -10l-170 247l-239 -247l-123 10l4 32l286 373l221 -10l182 -363z" />
    <glyph glyph-name="uni1EC0" unicode="&#x1ec0;" horiz-adv-x="1246" 
d="M816 648h-314l-74 -529h428l105 203l160 -13l-66 -309h-1052l-5 105l130 20l156 1103l-131 20l20 105h1043l-19 -320h-166l-40 201h-406l-66 -467h317l40 127l103 -20l-56 -355l-107 -5v134zM540 1702l-116 -11l-243 149l9 66l213 10l142 -182zM1125 1470l-156 -10
l-197 185l-262 -185l-123 10l5 32l303 292l222 -10l213 -282z" />
    <glyph glyph-name="uni1EC1" unicode="&#x1ec1;" horiz-adv-x="1023" 
d="M388 596q92 -10 149 -10q56 0 97 13q61 89 76 198q16 109 -7 155t-86 45q-63 0 -119 -29q-73 -161 -110 -372zM664 1107q381 0 343 -283q-23 -162 -153 -252t-335 -90q-79 0 -146 12l-7 -51q-26 -173 20 -264t178 -91t304 90v-106q-169 -94 -400 -94q-457 0 -394 451
l13 93q41 277 195 431t382 154zM503 1540l-129 -10l-219 203l10 66l236 10l107 -237zM1069 1275l-157 -10l-170 247l-239 -247l-123 10l4 32l286 373l221 -10l182 -363z" />
    <glyph glyph-name="uni1EC2" unicode="&#x1ec2;" horiz-adv-x="1246" 
d="M816 648h-314l-74 -529h428l105 203l160 -13l-66 -309h-1052l-5 105l130 20l156 1103l-131 20l20 105h1043l-19 -320h-166l-40 201h-406l-66 -467h317l40 127l103 -20l-56 -355l-107 -5v134zM1094 2002l-36 -94l-107 5l19 133q114 55 219 55q205 0 187 -141
q-12 -93 -137 -157q-70 -36 -80 -49q-17 -23 -5 -52l-95 -27q-30 47 -22 94q5 64 86 116q45 28 61 45t18 37t-8 35t-34 15q-26 0 -66 -15zM1125 1470l-156 -10l-197 185l-262 -185l-123 10l5 32l303 292l222 -10l213 -282z" />
    <glyph glyph-name="uni1EC3" unicode="&#x1ec3;" horiz-adv-x="1023" 
d="M388 596q92 -10 149 -10q56 0 97 13q61 89 76 198q16 109 -7 155t-86 45q-63 0 -119 -29q-73 -161 -110 -372zM664 1107q381 0 343 -283q-23 -162 -153 -252t-335 -90q-79 0 -146 12l-7 -51q-26 -173 20 -264t178 -91t304 90v-106q-169 -94 -400 -94q-457 0 -394 451
l13 93q41 277 195 431t382 154zM1065 1840l-36 -94l-107 5l19 133q114 55 219 55q205 0 187 -141q-12 -93 -137 -157q-70 -36 -80 -49q-17 -23 -5 -52l-95 -27q-30 47 -22 94q5 64 86 116q44 28 60 45t19 37t-7 35t-36 15t-65 -15zM1069 1275l-157 -10l-170 247l-239 -247
l-123 10l4 32l286 373l221 -10l182 -363z" />
    <glyph glyph-name="uni1EC4" unicode="&#x1ec4;" horiz-adv-x="1246" 
d="M816 648h-314l-74 -529h428l105 203l160 -13l-66 -309h-1052l-5 105l130 20l156 1103l-131 20l20 105h1043l-19 -320h-166l-40 201h-406l-66 -467h317l40 127l103 -20l-56 -355l-107 -5v134zM1125 1470l-156 -10l-197 185l-262 -185l-123 10l5 32l303 292l222 -10
l213 -282zM1106 2051q42 -1 74 29t41 91l118 10l-10 -72q-17 -119 -88 -187t-173 -67q-102 0 -272 66q-169 66 -201 66q-61 0 -91 -21t-37 -77l-110 -10l7 50q18 127 94 191t185 63q109 0 264 -66q59 -25 109 -45q48 -20 90 -21z" />
    <glyph glyph-name="uni1EC5" unicode="&#x1ec5;" horiz-adv-x="1023" 
d="M388 596q92 -10 149 -10q56 0 97 13q61 89 76 198q16 109 -7 155t-86 45q-63 0 -119 -29q-73 -161 -110 -372zM664 1107q381 0 343 -283q-23 -162 -153 -252t-335 -90q-79 0 -146 12l-7 -51q-26 -173 20 -264t178 -91t304 90v-106q-169 -94 -400 -94q-457 0 -394 451
l13 93q41 277 195 431t382 154zM1069 1275l-157 -10l-170 247l-239 -247l-123 10l4 32l286 373l221 -10l182 -363zM1028 1937q34 -1 61 29q26 30 36 91l118 10l-10 -72q-17 -119 -83 -187t-157 -67q-92 0 -240 66q-56 25 -104 45t-83 21q-35 0 -61 -19t-35 -79l-110 -10
l7 50q19 127 89 191t168 63q98 0 232 -66q50 -25 94 -45t78 -21z" />
    <glyph glyph-name="uni1EC6" unicode="&#x1ec6;" horiz-adv-x="1246" 
d="M816 648h-314l-74 -529h428l105 203l160 -13l-66 -309h-1052l-5 105l130 20l156 1103l-131 20l20 105h1043l-19 -320h-166l-40 201h-406l-66 -467h317l40 127l103 -20l-56 -355l-107 -5v134zM416 -222q35 50 76 50q75 0 124 -35t49 -76q0 -76 -35 -125t-77 -49
q-41 -1 -71 9t-52 26q-48 34 -49 92q0 58 35 108zM1125 1470l-156 -10l-197 185l-262 -185l-123 10l5 32l303 292l222 -10l213 -282z" />
    <glyph glyph-name="uni1EC7" unicode="&#x1ec7;" horiz-adv-x="1023" 
d="M388 596q92 -10 149 -10q56 0 97 13q61 89 76 198q16 109 -7 155t-86 45q-63 0 -119 -29q-73 -161 -110 -372zM664 1107q381 0 343 -283q-23 -162 -153 -252t-335 -90q-79 0 -146 12l-7 -51q-26 -173 20 -264t178 -91t304 90v-106q-169 -94 -400 -94q-457 0 -394 451
l13 93q41 277 195 431t382 154zM322 -222q35 50 76 50q75 0 124 -35t49 -76q0 -76 -35 -125t-77 -49q-41 -1 -71 9t-52 26q-48 34 -49 92q0 58 35 108zM1004 1275l-157 -10l-170 247l-239 -247l-123 10l4 32l286 373l221 -10l182 -363z" />
    <glyph glyph-name="uni1EC8" unicode="&#x1ec8;" horiz-adv-x="705" 
d="M-4 105l130 20l156 1103l-131 20l20 105h537l5 -105l-131 -20l-156 -1103l132 -20l-20 -105h-537zM430 1766l-36 -94l-107 5l19 133q114 55 219 55q205 0 187 -141q-12 -93 -137 -157q-70 -36 -80 -49q-17 -23 -5 -52l-95 -27q-30 47 -22 94q5 64 86 116q45 28 61 45
t18 37t-8 35t-34 15q-26 0 -66 -15z" />
    <glyph glyph-name="uni1EC9" unicode="&#x1ec9;" horiz-adv-x="704" 
d="M156 1085l331 22l81 -78l-126 -904l131 -20l-20 -105l-330 -22l-81 78l125 904l-131 20zM370 1571l-36 -94l-107 5l19 133q114 55 219 55q205 0 187 -141q-12 -93 -137 -157q-70 -36 -80 -49q-17 -23 -5 -52l-95 -27q-30 47 -22 94q5 64 86 116q45 28 61 45t18 37t-8 35
t-34 15q-26 0 -66 -15z" />
    <glyph glyph-name="uni1ECA" unicode="&#x1eca;" horiz-adv-x="705" 
d="M-4 105l130 20l156 1103l-131 20l20 105h537l5 -105l-131 -20l-156 -1103l132 -20l-20 -105h-537zM124 -222q35 50 76 50q75 0 124 -35t49 -76q0 -76 -35 -125t-77 -49q-41 -1 -71 9t-52 26q-48 34 -49 92q0 58 35 108z" />
    <glyph glyph-name="uni1ECB" unicode="&#x1ecb;" horiz-adv-x="704" 
d="M332 1398q0 74 29 128t69 54q74 0 128 -30t54 -68q0 -76 -29 -129t-69 -53q-76 0 -129 28t-53 70zM156 1085l331 22l81 -78l-126 -904l131 -20l-20 -105l-330 -22l-81 78l125 904l-131 20zM167 -222q35 50 76 50q75 0 124 -35t49 -76q0 -76 -35 -125t-77 -49
q-41 -1 -71 9q-31 10 -53 26q-48 34 -48 92t35 108z" />
    <glyph glyph-name="uni1ECC" unicode="&#x1ecc;" horiz-adv-x="1430" 
d="M442 222q76 -124 223 -125q147 0 261 59q105 231 142 494l18 133q65 473 -276 473q-132 0 -253 -58q-104 -228 -143 -495l-18 -133q-30 -224 46 -348zM628 -22q-316 0 -447 137q-130 137 -92 410l11 79q52 378 242 574t508 197q318 -1 450 -139t93 -409l-11 -78
q-54 -379 -246 -575t-508 -196zM455 -222q35 50 76 50q75 0 124 -35t49 -76q0 -76 -35 -125t-77 -49q-41 -1 -71 9q-31 10 -53 26q-48 34 -48 92t35 108z" />
    <glyph glyph-name="uni1ECD" unicode="&#x1ecd;" 
d="M378 176q40 -88 124 -88t155 30q102 158 134 395l16 119q52 365 -145 365q-76 0 -149 -29q-101 -178 -135 -406l-17 -119q-23 -179 17 -267zM474 -22q-466 0 -404 451l13 93q41 279 207 432t405 153q238 0 337 -114t67 -346l-13 -95q-38 -258 -210 -416t-402 -158z
M317 -222q35 50 76 50q75 0 124 -35t49 -76q0 -76 -35 -125t-77 -49q-41 -1 -71 9q-31 10 -53 26q-48 34 -48 92t35 108z" />
    <glyph glyph-name="uni1ECE" unicode="&#x1ece;" horiz-adv-x="1430" 
d="M442 222q76 -124 223 -125q147 0 261 59q105 231 142 494l18 133q65 473 -276 473q-132 0 -253 -58q-104 -228 -143 -495l-18 -133q-30 -224 46 -348zM628 -22q-316 0 -447 137q-130 137 -92 410l11 79q52 378 242 574t508 197q318 -1 450 -139t93 -409l-11 -78
q-54 -379 -246 -575t-508 -196zM818 1766l-36 -94l-107 5l19 133q114 55 219 55q205 0 187 -141q-12 -93 -137 -157q-70 -36 -80 -49q-17 -23 -5 -52l-95 -27q-30 47 -22 94q5 64 86 116q45 28 61 45t18 37t-8 35t-34 15q-26 0 -66 -15z" />
    <glyph glyph-name="uni1ECF" unicode="&#x1ecf;" 
d="M378 176q40 -88 124 -88t155 30q102 158 134 395l16 119q52 365 -145 365q-76 0 -149 -29q-101 -178 -135 -406l-17 -119q-23 -179 17 -267zM474 -22q-466 0 -404 451l13 93q41 279 207 432t405 153q238 0 337 -114t67 -346l-13 -95q-38 -258 -210 -416t-402 -158z
M720 1571l-36 -94l-107 5l19 133q114 55 219 55q205 0 187 -141q-12 -93 -137 -157q-70 -36 -80 -49q-17 -23 -5 -52l-95 -27q-30 47 -22 94q5 64 86 116q45 28 61 45t18 37t-8 35t-35 15t-65 -15z" />
    <glyph glyph-name="uni1ED0" unicode="&#x1ed0;" horiz-adv-x="1430" 
d="M442 222q76 -124 223 -125q147 0 261 59q105 231 142 494l18 133q65 473 -276 473q-132 0 -253 -58q-104 -228 -143 -495l-18 -133q-30 -224 46 -348zM628 -22q-316 0 -447 137q-130 137 -92 410l11 79q52 378 242 574t508 197q318 -1 450 -139t93 -409l-11 -78
q-54 -379 -246 -575t-508 -196zM1138 1734l200 182l232 -10v-66l-307 -149l-125 11v32zM1224 1470l-156 -10l-197 185l-262 -185l-123 10l5 32l303 292l222 -10l213 -282z" />
    <glyph glyph-name="uni1ED1" unicode="&#x1ed1;" 
d="M378 176q40 -88 124 -88t155 30q102 158 134 395l16 119q52 365 -145 365q-76 0 -149 -29q-101 -178 -135 -406l-17 -119q-23 -179 17 -267zM474 -22q-466 0 -404 451l13 93q41 279 207 432t405 153q238 0 337 -114t67 -346l-13 -95q-38 -258 -210 -416t-402 -158z
M1070 1572l173 237l221 -10l-10 -66l-275 -203l-114 10zM1118 1275l-157 -10l-170 247l-239 -247l-123 10l4 32l286 373l221 -10l182 -363z" />
    <glyph glyph-name="uni1ED2" unicode="&#x1ed2;" horiz-adv-x="1430" 
d="M442 222q76 -124 223 -125q147 0 261 59q105 231 142 494l18 133q65 473 -276 473q-132 0 -253 -58q-104 -228 -143 -495l-18 -133q-30 -224 46 -348zM628 -22q-316 0 -447 137q-130 137 -92 410l11 79q52 378 242 574t508 197q318 -1 450 -139t93 -409l-11 -78
q-54 -379 -246 -575t-508 -196zM639 1702l-116 -11l-243 149l9 66l213 10l142 -182zM1224 1470l-156 -10l-197 185l-262 -185l-123 10l5 32l303 292l222 -10l213 -282z" />
    <glyph glyph-name="uni1ED3" unicode="&#x1ed3;" 
d="M378 176q40 -88 124 -88t155 30q102 158 134 395l16 119q52 365 -145 365q-76 0 -149 -29q-101 -178 -135 -406l-17 -119q-23 -179 17 -267zM474 -22q-466 0 -404 451l13 93q41 279 207 432t405 153q238 0 337 -114t67 -346l-13 -95q-38 -258 -210 -416t-402 -158z
M552 1540l-129 -10l-219 203l10 66l236 10l107 -237zM1118 1275l-157 -10l-170 247l-239 -247l-123 10l4 32l286 373l221 -10l182 -363z" />
    <glyph glyph-name="uni1ED4" unicode="&#x1ed4;" horiz-adv-x="1430" 
d="M442 222q76 -124 223 -125q147 0 261 59q105 231 142 494l18 133q65 473 -276 473q-132 0 -253 -58q-104 -228 -143 -495l-18 -133q-30 -224 46 -348zM628 -22q-316 0 -447 137q-130 137 -92 410l11 79q52 378 242 574t508 197q318 -1 450 -139t93 -409l-11 -78
q-54 -379 -246 -575t-508 -196zM1193 2002l-36 -94l-107 5l19 133q114 55 219 55q205 0 187 -141q-12 -93 -137 -157q-70 -36 -80 -49q-17 -23 -5 -52l-95 -27q-30 47 -22 94q5 64 86 116q44 28 60 45t19 37t-7 35t-36 15q-25 0 -65 -15zM1224 1470l-156 -10l-197 185
l-262 -185l-123 10l5 32l303 292l222 -10l213 -282z" />
    <glyph glyph-name="uni1ED5" unicode="&#x1ed5;" 
d="M378 176q40 -88 124 -88t155 30q102 158 134 395l16 119q52 365 -145 365q-76 0 -149 -29q-101 -178 -135 -406l-17 -119q-23 -179 17 -267zM474 -22q-466 0 -404 451l13 93q41 279 207 432t405 153q238 0 337 -114t67 -346l-13 -95q-38 -258 -210 -416t-402 -158z
M1114 1840l-36 -94l-107 5l19 133q114 55 219 55q205 0 187 -141q-12 -93 -137 -157q-70 -36 -80 -49q-17 -23 -5 -52l-95 -27q-30 47 -22 94q5 64 86 116q45 28 61 45t18 37t-8 35t-34 15q-26 0 -66 -15zM1118 1275l-157 -10l-170 247l-239 -247l-123 10l4 32l286 373
l221 -10l182 -363z" />
    <glyph glyph-name="uni1ED6" unicode="&#x1ed6;" horiz-adv-x="1430" 
d="M442 222q76 -124 223 -125q147 0 261 59q105 231 142 494l18 133q65 473 -276 473q-132 0 -253 -58q-104 -228 -143 -495l-18 -133q-30 -224 46 -348zM628 -22q-316 0 -447 137q-130 137 -92 410l11 79q52 378 242 574t508 197q318 -1 450 -139t93 -409l-11 -78
q-54 -379 -246 -575t-508 -196zM1224 1470l-156 -10l-197 185l-262 -185l-123 10l5 32l303 292l222 -10l213 -282zM1206 2051q42 -1 72 29q32 30 42 91l118 10l-10 -72q-17 -119 -88 -187t-173 -67q-101 0 -271 66q-169 66 -202 66q-61 0 -91 -21t-37 -77l-110 -10l7 50
q18 127 94 191t185 63q109 0 264 -66q58 -25 108 -45t92 -21z" />
    <glyph glyph-name="uni1ED7" unicode="&#x1ed7;" 
d="M378 176q40 -88 124 -88t155 30q102 158 134 395l16 119q52 365 -145 365q-76 0 -149 -29q-101 -178 -135 -406l-17 -119q-23 -179 17 -267zM474 -22q-466 0 -404 451l13 93q41 279 207 432t405 153q238 0 337 -114t67 -346l-13 -95q-38 -258 -210 -416t-402 -158z
M1118 1275l-157 -10l-170 247l-239 -247l-123 10l4 32l286 373l221 -10l182 -363zM1078 1937q34 -1 60 29t36 91l118 10l-10 -72q-16 -119 -82 -187t-158 -67q-92 0 -240 66q-56 25 -104 45t-83 21q-35 0 -61 -19t-35 -79l-110 -10l7 50q18 127 88 191t169 63q98 0 232 -66
q51 -25 95 -45t78 -21z" />
    <glyph glyph-name="uni1ED8" unicode="&#x1ed8;" horiz-adv-x="1430" 
d="M442 222q76 -124 223 -125q147 0 261 59q105 231 142 494l18 133q65 473 -276 473q-132 0 -253 -58q-104 -228 -143 -495l-18 -133q-30 -224 46 -348zM628 -22q-316 0 -447 137q-130 137 -92 410l11 79q52 378 242 574t508 197q318 -1 450 -139t93 -409l-11 -78
q-54 -379 -246 -575t-508 -196zM455 -222q35 50 76 50q75 0 124 -35t49 -76q0 -76 -35 -125t-77 -49q-41 -1 -71 9q-31 10 -53 26q-48 34 -48 92t35 108zM1224 1470l-156 -10l-197 185l-262 -185l-123 10l5 32l303 292l222 -10l213 -282z" />
    <glyph glyph-name="uni1ED9" unicode="&#x1ed9;" 
d="M378 176q40 -88 124 -88t155 30q102 158 134 395l16 119q52 365 -145 365q-76 0 -149 -29q-101 -178 -135 -406l-17 -119q-23 -179 17 -267zM474 -22q-466 0 -404 451l13 93q41 279 207 432t405 153q238 0 337 -114t67 -346l-13 -95q-38 -258 -210 -416t-402 -158z
M317 -222q35 50 76 50q75 0 124 -35t49 -76q0 -76 -35 -125t-77 -49q-41 -1 -71 9q-31 10 -53 26q-48 34 -48 92t35 108zM1061 1275l-157 -10l-170 247l-239 -247l-123 10l4 32l286 373l221 -10l182 -363z" />
    <glyph glyph-name="uni1EDA" unicode="&#x1eda;" horiz-adv-x="1465" 
d="M669 1503l278 281l282 -10v-66l-415 -248l-145 11v32zM767 1256q-132 0 -253 -58q-104 -228 -143 -495l-18 -133q-29 -224 47 -348t222 -125q147 0 261 59q105 231 142 494l18 133q65 473 -276 473zM824 1375q335 0 464 -176q84 54 96 139t-45 154l5 40l218 57
q112 -169 17 -327q-60 -100 -238 -177q30 -109 9 -258l-11 -78q-53 -379 -245 -575t-510 -196q-316 0 -446 137t-92 410l11 79q106 771 767 771z" />
    <glyph glyph-name="uni1EDB" unicode="&#x1edb;" horiz-adv-x="1120" 
d="M581 1307l234 363l271 -10l-10 -66l-366 -329l-134 10zM338 176q40 -88 125 -88q84 0 155 30q102 158 134 395l16 119q52 365 -145 365q-77 0 -149 -29q-101 -178 -135 -406l-17 -119q-24 -179 16 -267zM434 -22q-466 0 -403 451l13 93q42 279 208 432t403 153
q199 0 300 -79q70 42 92 80q40 71 26 131t-45 96l5 40l218 57q112 -168 17 -326q-59 -99 -234 -176q50 -108 26 -283l-13 -95q-38 -258 -210 -416q-173 -158 -403 -158z" />
    <glyph glyph-name="uni1EDC" unicode="&#x1edc;" horiz-adv-x="1465" 
d="M912 1471l-146 -11l-360 248l9 66l283 10l219 -281zM767 1256q-132 0 -253 -58q-104 -228 -143 -495l-18 -133q-29 -224 47 -348t222 -125q147 0 261 59q105 231 142 494l18 133q65 473 -276 473zM824 1375q335 0 464 -176q84 54 96 139t-45 154l5 40l218 57
q112 -169 17 -327q-60 -100 -238 -177q30 -109 9 -258l-11 -78q-53 -379 -245 -575t-510 -196q-316 0 -446 137t-92 410l11 79q106 771 767 771z" />
    <glyph glyph-name="uni1EDD" unicode="&#x1edd;" horiz-adv-x="1120" 
d="M753 1275l-149 -10l-274 329l10 66l286 10l132 -363zM338 176q40 -88 125 -88q84 0 155 30q102 158 134 395l16 119q52 365 -145 365q-77 0 -149 -29q-101 -178 -135 -406l-17 -119q-24 -179 16 -267zM434 -22q-466 0 -403 451l13 93q42 279 208 432t403 153
q199 0 300 -79q70 42 92 80q40 71 26 131t-45 96l5 40l218 57q112 -168 17 -326q-59 -99 -234 -176q50 -108 26 -283l-13 -95q-38 -258 -210 -416q-173 -158 -403 -158z" />
    <glyph glyph-name="uni1EDE" unicode="&#x1ede;" horiz-adv-x="1465" 
d="M775 1766l-36 -94l-107 5l19 133q114 55 219 55q205 0 187 -141q-12 -93 -137 -157q-70 -36 -80 -49q-17 -23 -5 -52l-95 -27q-30 47 -22 94q5 64 86 116q44 28 60 45t19 37t-7 35t-36 15q-25 0 -65 -15zM767 1256q-132 0 -253 -58q-104 -228 -143 -495l-18 -133
q-29 -224 47 -348t222 -125q147 0 261 59q105 231 142 494l18 133q65 473 -276 473zM824 1375q335 0 464 -176q84 54 96 139t-45 154l5 40l218 57q112 -169 17 -327q-60 -100 -238 -177q30 -109 9 -258l-11 -78q-53 -379 -245 -575t-510 -196q-316 0 -446 137t-92 410l11 79
q106 771 767 771z" />
    <glyph glyph-name="uni1EDF" unicode="&#x1edf;" horiz-adv-x="1120" 
d="M681 1571l-36 -94l-107 5l19 133q114 55 219 55q205 0 187 -141q-12 -93 -137 -157q-70 -36 -80 -49q-17 -23 -5 -52l-95 -27q-30 47 -22 94q5 64 86 116q44 28 60 45t19 37t-7 35t-36 15q-25 0 -65 -15zM338 176q40 -88 125 -88q84 0 155 30q102 158 134 395l16 119
q52 365 -145 365q-77 0 -149 -29q-101 -178 -135 -406l-17 -119q-24 -179 16 -267zM434 -22q-466 0 -403 451l13 93q42 279 208 432t403 153q199 0 300 -79q70 42 92 80q40 71 26 131t-45 96l5 40l218 57q112 -168 17 -326q-59 -99 -234 -176q50 -108 26 -283l-13 -95
q-38 -258 -210 -416q-173 -158 -403 -158z" />
    <glyph glyph-name="uni1EE0" unicode="&#x1ee0;" horiz-adv-x="1465" 
d="M1074 1645q42 -1 72 29q32 30 42 91l118 10l-10 -72q-17 -119 -88 -187t-173 -67q-101 0 -271 66q-169 66 -202 66q-61 0 -91 -21t-37 -77l-110 -10l7 50q18 127 94 191t185 63q109 0 264 -66q58 -25 108 -45t92 -21zM767 1256q-132 0 -253 -58q-104 -228 -143 -495
l-18 -133q-29 -224 47 -348t222 -125q147 0 261 59q105 231 142 494l18 133q65 473 -276 473zM824 1375q335 0 464 -176q84 54 96 139t-45 154l5 40l218 57q112 -169 17 -327q-60 -100 -238 -177q30 -109 9 -258l-11 -78q-53 -379 -245 -575t-510 -196q-316 0 -446 137
t-92 410l11 79q106 771 767 771z" />
    <glyph glyph-name="uni1EE1" unicode="&#x1ee1;" horiz-adv-x="1120" 
d="M836 1429q34 -1 60 29t36 91l118 10l-10 -72q-16 -119 -82 -187t-158 -67q-92 0 -240 66q-56 25 -104 45t-83 21q-35 0 -61 -19t-35 -79l-110 -10l7 50q18 127 88 191t169 63q98 0 232 -66q51 -25 95 -45t78 -21zM338 176q40 -88 125 -88q84 0 155 30q102 158 134 395
l16 119q52 365 -145 365q-77 0 -149 -29q-101 -178 -135 -406l-17 -119q-24 -179 16 -267zM434 -22q-466 0 -403 451l13 93q42 279 208 432t403 153q199 0 300 -79q70 42 92 80q40 71 26 131t-45 96l5 40l218 57q112 -168 17 -326q-59 -99 -234 -176q50 -108 26 -283
l-13 -95q-38 -258 -210 -416q-173 -158 -403 -158z" />
    <glyph glyph-name="uni1EE2" unicode="&#x1ee2;" horiz-adv-x="1465" 
d="M412 -222q35 50 76 50q75 0 124 -35t49 -76q0 -76 -35 -125t-77 -49q-41 -1 -71 9t-52 26q-48 34 -49 92q0 58 35 108zM767 1256q-132 0 -253 -58q-104 -228 -143 -495l-18 -133q-29 -224 47 -348t222 -125q147 0 261 59q105 231 142 494l18 133q65 473 -276 473z
M824 1375q335 0 464 -176q84 54 96 139t-45 154l5 40l218 57q112 -169 17 -327q-60 -100 -238 -177q30 -109 9 -258l-11 -78q-53 -379 -245 -575t-510 -196q-316 0 -446 137t-92 410l11 79q106 771 767 771z" />
    <glyph glyph-name="uni1EE3" unicode="&#x1ee3;" horiz-adv-x="1120" 
d="M307 -222q35 50 76 50q75 0 124 -35t49 -76q0 -76 -35 -125t-77 -49q-41 -1 -71 9q-31 10 -53 26q-48 34 -48 92t35 108zM338 176q40 -88 125 -88q84 0 155 30q102 158 134 395l16 119q52 365 -145 365q-77 0 -149 -29q-101 -178 -135 -406l-17 -119q-24 -179 16 -267z
M434 -22q-466 0 -403 451l13 93q42 279 208 432t403 153q199 0 300 -79q70 42 92 80q40 71 26 131t-45 96l5 40l218 57q112 -168 17 -326q-59 -99 -234 -176q50 -108 26 -283l-13 -95q-38 -258 -210 -416q-173 -158 -403 -158z" />
    <glyph glyph-name="uni1EE4" unicode="&#x1ee4;" horiz-adv-x="1452" 
d="M640 -22q-288 0 -403 126t-79 387l103 737l-131 20l20 105h537l5 -105l-131 -20l-95 -682q-64 -449 241 -449q172 0 275 76q68 130 99 348l99 707l-131 20l20 105h428l5 -105l-131 -20l-99 -710q-38 -274 -191 -407t-441 -133zM532 -222q35 50 76 50q75 0 124 -35t49 -76
q0 -76 -35 -125t-77 -49q-41 -1 -71 9t-52 26q-48 34 -49 92q0 58 35 108z" />
    <glyph glyph-name="uni1EE5" unicode="&#x1ee5;" horiz-adv-x="1344" 
d="M372 -22q-253 0 -211 288l95 694l-132 20l20 105l331 22l78 -98l-92 -670q-16 -119 -8 -176t66 -57t143 74t177 210l79 570l-131 20l20 105l331 22l81 -78l-126 -904l131 -20l-20 -105l-330 -22l-81 78l23 167q-88 -113 -202 -179t-242 -66zM433 -222q35 50 76 50
q75 0 124 -35t49 -76q0 -76 -35 -125t-77 -49q-41 -1 -71 9q-31 10 -53 26q-48 34 -48 92t35 108z" />
    <glyph glyph-name="uni1EE6" unicode="&#x1ee6;" horiz-adv-x="1452" 
d="M640 -22q-288 0 -403 126t-79 387l103 737l-131 20l20 105h537l5 -105l-131 -20l-95 -682q-64 -449 241 -449q172 0 275 76q68 130 99 348l99 707l-131 20l20 105h428l5 -105l-131 -20l-99 -710q-38 -274 -191 -407t-441 -133zM858 1766l-36 -94l-107 5l19 133
q114 55 219 55q205 0 187 -141q-12 -93 -137 -157q-70 -36 -80 -49q-17 -23 -5 -52l-95 -27q-30 47 -22 94q5 64 86 116q45 28 61 45t18 37t-8 35t-34 15q-26 0 -66 -15z" />
    <glyph glyph-name="uni1EE7" unicode="&#x1ee7;" horiz-adv-x="1344" 
d="M372 -22q-253 0 -211 288l95 694l-132 20l20 105l331 22l78 -98l-92 -670q-16 -119 -8 -176t66 -57t143 74t177 210l79 570l-131 20l20 105l331 22l81 -78l-126 -904l131 -20l-20 -105l-330 -22l-81 78l23 167q-88 -113 -202 -179t-242 -66zM716 1571l-36 -94l-107 5
l19 133q114 55 219 55q205 0 187 -141q-12 -93 -137 -157q-70 -36 -80 -49q-17 -23 -5 -52l-95 -27q-30 47 -22 94q5 64 86 116q45 28 61 45t18 37t-8 35t-34 15q-26 0 -66 -15z" />
    <glyph glyph-name="uni1EE8" unicode="&#x1ee8;" horiz-adv-x="1643" 
d="M701 1503l278 281l282 -10v-66l-415 -248l-145 11v32zM589 -22q-288 0 -403 126t-79 387l103 737l-131 20l20 105h537l5 -105l-131 -20l-95 -682q-64 -449 241 -449q172 0 275 76q68 130 99 348l99 707l-131 20l20 105h428l5 -105l-131 -20l-12 -84l40 20
q218 114 136 287q-10 22 -26 41l5 40l218 57q112 -169 17 -327q-80 -132 -407 -241l-70 -503q-38 -274 -191 -407t-441 -133z" />
    <glyph glyph-name="uni1EE9" unicode="&#x1ee9;" horiz-adv-x="1430" 
d="M640 1307l234 363l271 -10l-10 -66l-366 -329l-134 10zM316 -22q-253 0 -210 288l95 694l-132 20l20 105l331 22l78 -98l-92 -670q-16 -119 -8 -176t66 -57t143 74t177 210l79 570l-131 20l20 105l331 22l81 -78l-5 -32q116 53 159 128q42 76 -2 169q-10 22 -27 41l5 40
l218 57q112 -168 17 -326q-79 -132 -387 -235l-104 -746l131 -20l-20 -105l-330 -22l-81 78l23 167q-88 -113 -202 -179q-115 -66 -243 -66z" />
    <glyph glyph-name="uni1EEA" unicode="&#x1eea;" horiz-adv-x="1643" 
d="M944 1471l-146 -11l-360 248l9 66l283 10l219 -281zM589 -22q-288 0 -403 126t-79 387l103 737l-131 20l20 105h537l5 -105l-131 -20l-95 -682q-64 -449 241 -449q172 0 275 76q68 130 99 348l99 707l-131 20l20 105h428l5 -105l-131 -20l-12 -84l40 20q218 114 136 287
q-10 22 -26 41l5 40l218 57q112 -169 17 -327q-80 -132 -407 -241l-70 -503q-38 -274 -191 -407t-441 -133z" />
    <glyph glyph-name="uni1EEB" unicode="&#x1eeb;" horiz-adv-x="1430" 
d="M830 1275l-149 -10l-274 329l10 66l286 10l132 -363zM316 -22q-253 0 -210 288l95 694l-132 20l20 105l331 22l78 -98l-92 -670q-16 -119 -8 -176t66 -57t143 74t177 210l79 570l-131 20l20 105l331 22l81 -78l-5 -32q116 53 159 128q42 76 -2 169q-10 22 -27 41l5 40
l218 57q112 -168 17 -326q-79 -132 -387 -235l-104 -746l131 -20l-20 -105l-330 -22l-81 78l23 167q-88 -113 -202 -179q-115 -66 -243 -66z" />
    <glyph glyph-name="uni1EEC" unicode="&#x1eec;" horiz-adv-x="1643" 
d="M807 1766l-36 -94l-107 5l19 133q114 55 219 55q205 0 187 -141q-12 -93 -137 -157q-70 -36 -80 -49q-17 -23 -5 -52l-95 -27q-30 47 -22 94q5 64 86 116q44 28 60 45t19 37t-7 35t-35 15q-26 0 -66 -15zM589 -22q-288 0 -403 126t-79 387l103 737l-131 20l20 105h537
l5 -105l-131 -20l-95 -682q-64 -449 241 -449q172 0 275 76q68 130 99 348l99 707l-131 20l20 105h428l5 -105l-131 -20l-12 -84l40 20q218 114 136 287q-10 22 -26 41l5 40l218 57q112 -169 17 -327q-80 -132 -407 -241l-70 -503q-38 -274 -191 -407t-441 -133z" />
    <glyph glyph-name="uni1EED" unicode="&#x1eed;" horiz-adv-x="1430" 
d="M661 1571l-36 -94l-107 5l19 133q114 55 219 55q205 0 187 -141q-12 -93 -137 -157q-70 -36 -80 -49q-17 -23 -5 -52l-95 -27q-30 47 -22 94q5 64 86 116q44 28 60 45t19 37t-7 35t-35 15q-26 0 -66 -15zM316 -22q-253 0 -210 288l95 694l-132 20l20 105l331 22l78 -98
l-92 -670q-16 -119 -8 -176t66 -57t143 74t177 210l79 570l-131 20l20 105l331 22l81 -78l-5 -32q116 53 159 128q42 76 -2 169q-10 22 -27 41l5 40l218 57q112 -168 17 -326q-79 -132 -387 -235l-104 -746l131 -20l-20 -105l-330 -22l-81 78l23 167q-88 -113 -202 -179
q-115 -66 -243 -66z" />
    <glyph glyph-name="uni1EEE" unicode="&#x1eee;" horiz-adv-x="1643" 
d="M1106 1645q42 -1 72 29q32 30 42 91l118 10l-10 -72q-17 -119 -88 -187t-173 -67q-101 0 -271 66q-169 66 -202 66q-61 0 -91 -21t-37 -77l-110 -10l7 50q18 127 94 191t185 63q109 0 264 -66q58 -25 108 -45t92 -21zM589 -22q-288 0 -403 126t-79 387l103 737l-131 20
l20 105h537l5 -105l-131 -20l-95 -682q-64 -449 241 -449q172 0 275 76q68 130 99 348l99 707l-131 20l20 105h428l5 -105l-131 -20l-12 -84l40 20q218 114 136 287q-10 22 -26 41l5 40l218 57q112 -169 17 -327q-80 -132 -407 -241l-70 -503q-38 -274 -191 -407t-441 -133z
" />
    <glyph glyph-name="uni1EEF" unicode="&#x1eef;" horiz-adv-x="1430" 
d="M956 1429q34 -1 61 29q26 30 36 91l118 10l-10 -72q-17 -119 -83 -187t-157 -67q-92 0 -240 66q-56 25 -104 45t-83 21q-35 0 -61 -19t-35 -79l-110 -10l7 50q19 127 89 191t168 63q98 0 232 -66q50 -25 94 -45t78 -21zM316 -22q-253 0 -210 288l95 694l-132 20l20 105
l331 22l78 -98l-92 -670q-16 -119 -8 -176t66 -57t143 74t177 210l79 570l-131 20l20 105l331 22l81 -78l-5 -32q116 53 159 128q42 76 -2 169q-10 22 -27 41l5 40l218 57q112 -168 17 -326q-79 -132 -387 -235l-104 -746l131 -20l-20 -105l-330 -22l-81 78l23 167
q-88 -113 -202 -179q-115 -66 -243 -66z" />
    <glyph glyph-name="uni1EF0" unicode="&#x1ef0;" horiz-adv-x="1643" 
d="M481 -222q35 50 76 50q75 0 124 -35t49 -76q0 -76 -35 -125t-77 -49q-41 -1 -71 9q-31 10 -53 26q-48 34 -48 92t35 108zM589 -22q-288 0 -403 126t-79 387l103 737l-131 20l20 105h537l5 -105l-131 -20l-95 -682q-64 -449 241 -449q172 0 275 76q68 130 99 348l99 707
l-131 20l20 105h428l5 -105l-131 -20l-12 -84l40 20q218 114 136 287q-10 22 -26 41l5 40l218 57q112 -169 17 -327q-80 -132 -407 -241l-70 -503q-38 -274 -191 -407t-441 -133z" />
    <glyph glyph-name="uni1EF1" unicode="&#x1ef1;" horiz-adv-x="1430" 
d="M408 -222q35 50 76 50q75 0 124 -35t49 -76q0 -76 -35 -125t-77 -49q-41 -1 -71 9t-52 26q-48 34 -49 92q0 58 35 108zM316 -22q-253 0 -210 288l95 694l-132 20l20 105l331 22l78 -98l-92 -670q-16 -119 -8 -176t66 -57t143 74t177 210l79 570l-131 20l20 105l331 22
l81 -78l-5 -32q116 53 159 128q42 76 -2 169q-10 22 -27 41l5 40l218 57q112 -168 17 -326q-79 -132 -387 -235l-104 -746l131 -20l-20 -105l-330 -22l-81 78l23 167q-88 -113 -202 -179q-115 -66 -243 -66z" />
    <glyph glyph-name="Ygrave" unicode="&#x1ef2;" horiz-adv-x="1162" 
d="M42 1353h481l11 -105l-105 -15l229 -463h16l345 464l-100 14l14 105h396l11 -105l-122 -24l-455 -607l-70 -492l132 -20l-20 -105h-537l-5 105l130 20l65 461l-320 640l-110 22zM847 1471l-146 -11l-360 248l9 66l283 10l219 -281z" />
    </font>
</defs>
</svg>
