<?xml version="1.0" standalone="no"?>
<!DOCTYPE svg PUBLIC "-//W3C//DTD SVG 1.1//EN" "http://www.w3.org/Graphics/SVG/1.1/DTD/svg11.dtd" >
<svg xmlns="http://www.w3.org/2000/svg">
<metadata>
Created by FontPrep 20130207 at Wed Nov 30 21:54:04 2016
 By Callum Flack
Copyright (c) 2011 JM Sole (info@jmsole.cl), with Reserved Font Name "Noticia Text".
</metadata>
<defs>
<font id="002c1e8c976ab883afeaab056853aac8" horiz-adv-x='1024' >
  <font-face 
    font-family="NoticiaText-Regular"
    font-weight="400"
    font-stretch="normal"
    units-per-em="2048"
    panose-1="2 0 5 3 6 0 0 2 0 4"
    ascent="1638"
    descent="-410"
    x-height="1085"
    cap-height="1353"
    bbox="-1015 -593 2495 2167"
    underline-thickness="51"
    underline-position="-52"
    unicode-range="U+0020-FB02"
  />
<missing-glyph horiz-adv-x="1601" 
d="M800 715l330 696h-659zM800 390l-329 -696h659zM723 552l-397 839v-1677zM877 552l398 -838v1677zM180 1540h1241v-1975h-1241v1975z" />
    <glyph glyph-name=".notdef" horiz-adv-x="1601" 
d="M800 715l330 696h-659zM800 390l-329 -696h659zM723 552l-397 839v-1677zM877 552l398 -838v1677zM180 1540h1241v-1975h-1241v1975z" />
    <glyph glyph-name=".null" horiz-adv-x="0" 
 />
    <glyph glyph-name="nonmarkingreturn" horiz-adv-x="0" 
 />
    <glyph glyph-name="space" unicode=" " 
 />
    <glyph glyph-name="exclam" unicode="!" horiz-adv-x="592" 
d="M213 1540l197 22l20 -22l-38 -1170h-141zM209.5 199.5q29.5 51.5 68.5 51.5q75 0 124.5 -30.5t49.5 -68.5q0 -71 -29.5 -122.5t-69.5 -51.5q-39 0 -70 8t-67 29t-36 77t29.5 107.5z" />
    <glyph glyph-name="quotedbl" unicode="&#x22;" horiz-adv-x="604" 
d="M328 1540h186v-42l-63 -341h-123v383zM70 1540h186v-42l-63 -341h-123v383z" />
    <glyph glyph-name="numbersign" unicode="#" horiz-adv-x="1317" 
d="M487 443h286l66 466h-286zM269 0v20l40 286h-219v137h239l66 466h-239v137h258l44 307h155v-20l-41 -287h286l44 307h155v-20l-41 -287h211v-137h-230l-66 -466h230v-137h-250l-43 -306h-155v20l40 286h-286l-43 -306h-155z" />
    <glyph glyph-name="dollar" unicode="$" horiz-adv-x="1100" 
d="M302 1074q0 -71 48 -119t138 -109v396q-100 -11 -167 -34q-19 -63 -19 -134zM763 145q30 75 30 151q1 76 -47 132q-48 55 -133 114v-429q12 2 52 8t98 24zM983 345q0 -165 -129 -266q-96 -76 -241 -94v-211h-125v204q-221 4 -355 63l-21 259l117 25l82 -194
q81 -24 177 -24v515q-265 159 -320.5 239.5t-55.5 177.5q0 146 125 241q97 73 251 90v192h125v-187q170 -5 303 -52l21 -270l-105 -22l-82 193q-69 18 -137 21v-478q4 -2 9 -5q188 -110 274.5 -201.5t86.5 -215.5z" />
    <glyph glyph-name="percent" unicode="%" horiz-adv-x="1683" 
d="M1090 279q0 -42 12 -74.5t33 -55t48 -34t57 -11.5t57 11.5t48 34t33 55t12 74.5t-12 74.5t-33 55t-48 34t-57 11.5t-57 -11.5t-48 -34t-33 -55t-12 -74.5zM1027 492q88 88 213 88t213 -88t88 -213t-88 -213t-213 -88t-213 88t-88 213t88 213zM259 1074q0 -42 12 -74.5
t33 -55t48 -34t57 -11.5t57 11.5t48 34t33 55t12 74.5t-12 74.5t-33 55t-48 34t-57 11.5t-57 -11.5t-48 -34t-33 -55t-12 -74.5zM196 1287q88 88 213 88t213 -88t88 -213t-88 -213t-213 -88t-213 88t-88 213t88 213zM1395 1353v-20l-966 -1333h-175v20l966 1333h175z" />
    <glyph glyph-name="ampersand" unicode="&#x26;" horiz-adv-x="1439" 
d="M798 1053v16q0 83 -53 130t-138 47q-84 0 -144 -20q-50 -75 -50 -162v-17q0 -75 23.5 -129t88.5 -143q273 148 273 278zM267 328v-16q0 -93 80.5 -149t185.5 -56q194 0 323 76q-171 142 -405 416q-149 -89 -166.5 -159.5t-17.5 -111.5zM1045 526v26l-153 34l20 98l303 22
v-187q0 -174 -124 -317q137 -95 247 -95t208 34v-96q-95 -67 -247 -67q-151 0 -330 120q-183 -120 -443 -120q-328 0 -388.5 109.5t-60.5 186.5v30q0 176 118 268t173 123q-145 207 -145 304v30q0 145 116.5 245.5t296.5 100.5t266 -71.5t86 -198.5v-29
q0 -152 -147.5 -249.5t-239.5 -150.5q205 -243 373 -385q71 100 71 235z" />
    <glyph glyph-name="quotesingle" unicode="'" horiz-adv-x="346" 
d="M70 1540h186v-42l-63 -341h-123v383z" />
    <glyph glyph-name="parenleft" unicode="(" horiz-adv-x="663" 
d="M359.5 64.5q66.5 -269.5 253.5 -520.5l-93 -60q-238 257 -324 546t-86 513q0 409 205 772q90 161 205 286l93 -60q-90 -120 -140 -230t-79 -189t-65 -225.5t-36 -354.5t66.5 -477.5z" />
    <glyph glyph-name="parenright" unicode=")" horiz-adv-x="663" 
d="M302.5 1020q-67.5 274 -252.5 521l93 60q115 -125 179 -240q116 -207 173.5 -400t57.5 -418q0 -401 -205 -773q-91 -162 -205 -286l-93 60q244 328 282 607t38 437t-67.5 432z" />
    <glyph glyph-name="asterisk" unicode="*" horiz-adv-x="780" 
d="M459 802h-153v24l31 277l-225 -165l-21 -12l-75 132l20 12l254 112l-255 112l-20 12l76 132l21 -12l225 -165l-31 277v24h153v-24l-31 -277l225 165l21 12l75 -132l-20 -12l-255 -112l256 -112l20 -12l-76 -132l-21 12l-225 165l31 -277v-24z" />
    <glyph glyph-name="plus" unicode="+" horiz-adv-x="1063" 
d="M605 985v-318h298v-147h-298v-318h-147v318h-298v147h298v318h147z" />
    <glyph glyph-name="comma" unicode="," 
d="M255 -64q0 34 -52 47q-113 30 -113 96q0 110 40 141t70 31q138 0 162 -75.5t24 -131.5q0 -117 -41.5 -206.5t-172.5 -203.5l-68 80q151 126 151 222z" />
    <glyph glyph-name="hyphen" unicode="-" horiz-adv-x="803" 
d="M60 667h693v-147h-693v147z" />
    <glyph glyph-name="period" unicode="." 
d="M170.5 200q30.5 51 68.5 51q73 0 123 -29.5t50 -68.5q0 -73 -30.5 -124t-68.5 -51q-39 0 -70 8t-67 30t-36 77q0 56 30.5 107z" />
    <glyph glyph-name="slash" unicode="/" horiz-adv-x="833" 
d="M793 1540v-20l-568 -1815h-165v20l568 1815h165z" />
    <glyph glyph-name="zero" unicode="0" horiz-adv-x="1176" 
d="M868 782q0 238 -63.5 351t-215.5 113t-216.5 -126.5t-64.5 -407.5v-140q0 -237 67 -351t217 -114t213 133t63 402v140zM561 -22q-447 0 -447 539v105q0 371 127 562t361 191t347 -131.5t113 -408.5v-104q0 -377 -119.5 -565t-381.5 -188z" />
    <glyph glyph-name="one" unicode="1" horiz-adv-x="728" 
d="M309 1166h-246l-10 103l335 84h111v-1221l182 -34l-20 -98h-515l-20 98l183 34v1034z" />
    <glyph glyph-name="two" unicode="2" horiz-adv-x="982" 
d="M701 1018q0 98 -62 163t-166 65t-203 -47l-57 -201l-109 11v261q78 43 183 74t204 31q189 0 294.5 -86.5t105.5 -251.5q0 -238 -241 -489t-355 -368l4 -10h437l82 193l104 -23l-23 -340h-831v145q136 143 252 265t200.5 227t132.5 194t48 187z" />
    <glyph glyph-name="three" unicode="3" horiz-adv-x="990" 
d="M469 1375q182 0 283 -83.5t101 -240.5q0 -116 -55 -195.5t-138 -122.5q112 -35 176 -122.5t64 -205.5q0 -200 -124 -313.5t-331 -113.5q-96 0 -194.5 28.5t-165.5 65.5l1 258l105 12l52 -193q113 -42 218 -42q106 0 178 73.5t72 199.5t-74 201.5t-189 75.5h-103v129h93
q105 0 165 63t60 178q0 219 -224 219q-84 0 -169 -32l-53 -193l-105 12v268q175 74 357 74z" />
    <glyph glyph-name="four" unicode="4" horiz-adv-x="1026" 
d="M616 322h-569l-23 86l579 945h194l-567 -892l5 -10h381v366h190v-366h132l24 -100l-156 -34v-185l152 -34l-20 -98h-495l-20 98l193 34v190z" />
    <glyph glyph-name="five" unicode="5" horiz-adv-x="1043" 
d="M497 822q218 0 340 -99t122 -295t-140.5 -323t-343.5 -127q-94 0 -196.5 27.5t-168.5 60.5v257l115 8l61 -194q82 -30 200 -30t200.5 82t82.5 216t-78.5 207t-212.5 73t-253 -43l-96 87l35 624h713v-170h-584l-26 -405q104 44 230 44z" />
    <glyph glyph-name="six" unicode="6" horiz-adv-x="1051" 
d="M535 658q-115 0 -236 -51v-86q0 -197 75 -305.5t185 -108.5t172 72t62 193v16q0 124 -71.5 197t-186.5 73zM604 787q166 0 272.5 -104t106.5 -256v-29q0 -197 -121.5 -308.5t-325.5 -111.5t-318 137t-114 385v72q0 353 184 578t444 225q80 0 162 -22v-116q-97 9 -145 9
q-190 0 -320 -162.5t-130 -392.5l10 -4q129 100 295 100z" />
    <glyph glyph-name="seven" unicode="7" horiz-adv-x="926" 
d="M50 1353h888v-93l-515 -1260h-179l508 1173l-6 10h-528l-53 -203l-115 8v365z" />
    <glyph glyph-name="eight" unicode="8" horiz-adv-x="1018" 
d="M703 1049q0 94 -46 145.5t-135 51.5t-143.5 -61t-54.5 -158t60.5 -152t172.5 -95q146 80 146 269zM274 346q0 -112 60.5 -175.5t167.5 -63.5t179.5 67.5t72.5 157.5t-63 157t-150 101t-101 41q-166 -99 -166 -285zM944 376q0 -178 -124 -288t-324 -110t-306 84.5
t-106 241.5q0 123 75 220t202 147q-108 58 -167 136t-59 216t110.5 245t286.5 107t268.5 -76.5t92.5 -199.5t-71 -213.5t-181 -138.5q303 -129 303 -371z" />
    <glyph glyph-name="nine" unicode="9" horiz-adv-x="1058" 
d="M524 1375q430 0 430 -531v-78q0 -387 -168 -587.5t-462 -200.5q-90 0 -177 23v116q64 -10 148 -10q207 0 337.5 148.5t130.5 386.5l-10 4q-44 -41 -122 -72t-161 -31q-160 0 -268 102t-108 257v29q0 201 113 322.5t317 121.5zM509 1246q-225 0 -225 -289v-16
q0 -118 68 -193.5t182 -75.5t229 54v72q0 215 -65 331.5t-189 116.5z" />
    <glyph glyph-name="colon" unicode=":" horiz-adv-x="596" 
d="M182.5 965q30.5 51 68.5 51q73 0 123 -29.5t50 -68.5q0 -73 -30.5 -124t-68.5 -51q-39 0 -70 8t-67 30t-36 77q0 56 30.5 107zM181.5 199.5q29.5 51.5 68.5 51.5q75 0 124.5 -30.5t49.5 -68.5q0 -71 -29.5 -122.5t-69.5 -51.5q-39 0 -70 8t-67 29t-36 77t29.5 107.5z" />
    <glyph glyph-name="semicolon" unicode=";" horiz-adv-x="601" 
d="M317 -64q0 34 -52 47q-113 30 -113 96q0 110 40 141t70 31q138 0 162 -75.5t24 -131.5q0 -117 -41.5 -206.5t-172.5 -203.5l-68 80q151 126 151 222zM182.5 965q30.5 51 68.5 51q73 0 123 -29.5t50 -68.5q0 -73 -30.5 -124t-68.5 -51q-39 0 -70 8t-67 30t-36 77
q0 56 30.5 107z" />
    <glyph glyph-name="less" unicode="&#x3c;" horiz-adv-x="1148" 
d="M968 1025v-139l-592 -278v-10l592 -277v-140h-30l-798 374v96l798 374h30z" />
    <glyph glyph-name="equal" unicode="=" horiz-adv-x="1122" 
d="M160 927h802v-157h-802v157zM160 464h802v-157h-802v157z" />
    <glyph glyph-name="greater" unicode="&#x3e;" horiz-adv-x="1148" 
d="M180 181v140l592 277v10l-592 278v139h30l798 -374v-96l-798 -374h-30z" />
    <glyph glyph-name="question" unicode="?" horiz-adv-x="1019" 
d="M325.5 199.5q29.5 51.5 68.5 51.5q75 0 124.5 -30.5t49.5 -68.5q0 -71 -29.5 -122.5t-69.5 -51.5q-39 0 -70 8t-67 29t-36 77t29.5 107.5zM510 1562q298 0 353.5 -106.5t55.5 -168.5q0 -117 -46 -194.5t-176 -196.5l-151 -138q-62 -56 -90.5 -97.5t-28.5 -84.5
q0 -80 92 -80q74 0 139 31v-101q-79 -50 -183 -50q-154 0 -191 74t-37 118q0 82 40 151.5t136 157.5l152 140q97 91 130.5 141.5t33.5 99.5q0 184 -256 184q-110 0 -181 -32l-70 -225l-112 17v277q166 83 390 83z" />
    <glyph glyph-name="at" unicode="@" horiz-adv-x="1860" 
d="M900 -310q-760 0 -760 660q0 296 123 530t340 364.5t487 130.5q332 0 521 -170.5t189 -454.5q0 -424 -185.5 -532.5t-290.5 -115.5l-146 -14l-81 78l26 190q-103 -189 -199 -228.5t-152 -39.5q-255 0 -211 347l12 93q31 235 155.5 385t323.5 150q142 0 339 -78l-112 -796
q130 7 235.5 121.5t105.5 399.5q0 545 -560 545q-315 0 -527.5 -255.5t-212.5 -619.5q0 -304 170.5 -437t439.5 -133t506 111v-86q-136 -79 -280 -112t-256 -33zM1205 946q-77 33 -162 33t-170 -50q-81 -129 -115 -370l-5 -36q-46 -327 86 -327q116 0 198.5 122.5
t103.5 164.5z" />
    <glyph glyph-name="A" unicode="A" horiz-adv-x="1218" 
d="M389 535h402l-194 569h-10zM-8 98l108 29l440 1226h149l429 -1226l108 -29l-20 -98h-385l-20 98l128 29l-94 279h-491l-96 -279l128 -29l-20 -98h-344z" />
    <glyph glyph-name="B" unicode="B" horiz-adv-x="1160" 
d="M816 1013q0 211 -282 211h-115v-457h131q121 0 227 39q39 106 39 207zM419 638v-509h137q173 0 289 49q29 91 29 211t-81 184.5t-220 64.5h-154zM573 1353q433 0 433 -312q0 -114 -57 -194.5t-140 -122.5l2 -16q111 -21 182 -97.5t71 -192.5q0 -193 -117.5 -305.5
t-322.5 -112.5h-528l-20 98l153 34v1089l-153 34l20 98h477z" />
    <glyph glyph-name="C" unicode="C" horiz-adv-x="1176" 
d="M100 515v89q0 381 154 576t451 195q212 0 363 -59l21 -270l-105 -22l-83 195q-85 27 -197 27q-203 0 -325 -88q-40 -92 -64.5 -220t-24.5 -255v-133q0 -214 117.5 -328.5t310.5 -114.5t374 104v-106q-197 -127 -429 -127q-563 0 -563 537z" />
    <glyph glyph-name="D" unicode="D" horiz-adv-x="1362" 
d="M421 1224v-1095h211q156 0 278 49q62 77 104 195t42 249v94q0 241 -115.5 374.5t-341.5 133.5h-178zM638 1353q302 0 455 -151.5t153 -436.5v-78q0 -318 -155 -502.5t-430 -184.5h-563l-20 98l153 34v1089l-153 34l20 98h540z" />
    <glyph glyph-name="E" unicode="E" horiz-adv-x="1191" 
d="M419 643v-514h481l83 193l104 -23l-24 -299h-967l-20 98l153 34v1089l-153 34l20 98h937l24 -300l-103 -22l-83 193h-452v-452h357l34 122l99 -20v-334l-99 -20l-34 123h-357z" />
    <glyph glyph-name="F" unicode="F" horiz-adv-x="1043" 
d="M415 643v-511l202 -34l-20 -98h-505l-20 98l153 34v1089l-153 34l20 98h877l24 -300l-103 -22l-83 193h-392v-452h320l34 122l98 -20v-334l-98 -20l-34 123h-320z" />
    <glyph glyph-name="G" unicode="G" horiz-adv-x="1300" 
d="M102 505v89q0 378 157.5 579.5t454.5 201.5q213 0 363 -57l21 -270l-105 -22l-82 193q-93 27 -200 27q-200 0 -320 -88q-99 -200 -99 -475v-133q0 -211 121 -327t290 -116q98 0 199 36v361l-153 34l20 108h455l20 -108l-152 -34v-399q-207 -127 -454 -127t-391.5 135
t-144.5 392z" />
    <glyph glyph-name="H" unicode="H" horiz-adv-x="1459" 
d="M415 778h624v443l-152 34l20 98h456l20 -98l-154 -34v-1089l154 -34l-20 -98h-456l-20 98l152 34v517h-624v-517l152 -34l-20 -98h-455l-20 98l153 34v1089l-153 34l20 98h455l20 -98l-152 -34v-443z" />
    <glyph glyph-name="I" unicode="I" horiz-adv-x="643" 
d="M225 1221l-153 34l20 98h455l20 -98l-152 -34v-1089l152 -34l-20 -98h-455l-20 98l153 34v1089z" />
    <glyph glyph-name="J" unicode="J" horiz-adv-x="859" 
d="M647 336q0 -174 -84 -266t-251 -92q-118 0 -221 53l-21 260l103 22l82 -192q39 -15 83 -15t88 21q31 84 31 242v852l-193 34l20 98h495l20 -98l-152 -34v-885z" />
    <glyph glyph-name="K" unicode="K" horiz-adv-x="1304" 
d="M72 98l153 34v1089l-153 34l20 98h455l20 -98l-152 -34v-557l14 -6l544 575l-110 21l20 99h362l20 -98l-122 -34l-433 -455l456 -633l146 -35l-20 -98h-244l-459 639l-174 -183v-324l152 -34l-20 -98h-455z" />
    <glyph glyph-name="L" unicode="L" horiz-adv-x="1018" 
d="M417 129h336l83 193l104 -22l-25 -300h-821l-20 98l153 34v1089l-153 34l20 98h455l20 -98l-152 -34v-1092z" />
    <glyph glyph-name="M" unicode="M" horiz-adv-x="1922" 
d="M1504 1210h-16l-492 -1210h-105l-510 1210h-16v-1078l152 -34l-20 -98h-405l-20 98l153 34v1089l-153 34l20 98h427l436 -1042h16l418 1042h437l20 -98l-152 -34v-1089l152 -34l-20 -98h-455l-20 98l153 34v1078z" />
    <glyph glyph-name="N" unicode="N" horiz-adv-x="1532" 
d="M1183 136v1085l-154 34l20 98h407l20 -98l-152 -34v-1221h-287l-656 1218h-16v-1086l152 -34l-20 -98h-405l-20 98l153 34v1089l-153 34l20 98h420l655 -1217h16z" />
    <glyph glyph-name="O" unicode="O" horiz-adv-x="1345" 
d="M1053 783q0 236 -104.5 349.5t-295.5 113.5q-89 0 -168 -27.5t-124 -60.5q-69 -212 -69 -455v-133q0 -221 112.5 -342t288.5 -121q88 0 165.5 26.5t126.5 62.5q68 212 68 454v133zM683 1375q560 0 560 -548v-78q0 -377 -144 -574t-436 -197q-561 0 -561 547v79
q0 389 148 580t433 191z" />
    <glyph glyph-name="P" unicode="P" horiz-adv-x="1102" 
d="M417 1224v-494h160q140 0 250 38q31 99 31 208q0 110 -79 179t-232 69h-130zM595 1353q457 0 457 -345q0 -186 -124 -296.5t-310 -110.5h-201v-469l212 -34l-20 -98h-515l-20 98l153 34v1089l-153 34l20 98h501z" />
    <glyph glyph-name="Q" unicode="Q" horiz-adv-x="1360" 
d="M479 466q-138 0 -138 -110q0 -86 102.5 -167.5t247.5 -81.5q73 0 139 17l-48 99q-123 243 -303 243zM299 457q67 138 269 138q106 0 196.5 -62.5t166.5 -209.5l62 -127q18 55 38 189t20 265v133q0 233 -103.5 348t-296.5 115q-88 0 -169 -26t-133 -62q-59 -204 -59 -455
v-133q0 -68 9 -113zM100 525v79q0 376 145.5 573.5t435.5 197.5q560 0 560 -548v-78q0 -449 -206 -640q37 -79 74.5 -126.5t100.5 -47.5t128 25v-100q-80 -54 -175 -54t-158 43.5t-109 139.5l-13 26q-105 -37 -222 -37q-561 0 -561 547z" />
    <glyph glyph-name="R" unicode="R" horiz-adv-x="1205" 
d="M415 1224v-494h123q136 0 251 39q29 119 29 200q0 119 -76.5 187t-225.5 68h-101zM584 1353q428 0 428 -343q0 -130 -59.5 -226.5t-162.5 -144.5l-6 -19l277 -488l146 -34l-20 -98h-249l-340 601h-183v-469l152 -34l-20 -98h-455l-20 98l153 34v1089l-153 34l20 98h492z
" />
    <glyph glyph-name="S" unicode="S" horiz-adv-x="1066" 
d="M980 345q0 -165 -128.5 -266t-353.5 -101t-368 63l-21 259l117 25l82 -194q81 -24 205 -24t247 38q30 75 30 151t-59 145t-284 203t-281.5 216t-56.5 179q0 146 125.5 241t328.5 95t350 -52l21 -270l-105 -22l-82 193q-82 22 -201 22t-228 -38q-19 -63 -19 -134
t59.5 -130.5t260.5 -181.5q188 -110 274.5 -201.5t86.5 -215.5z" />
    <glyph glyph-name="T" unicode="T" horiz-adv-x="1139" 
d="M475 1224h-300l-62 -170l-99 9l15 290h1082l14 -290l-98 -9l-63 170h-299v-1092l153 -34l-20 -98h-456l-20 98l153 34v1092z" />
    <glyph glyph-name="U" unicode="U" horiz-adv-x="1358" 
d="M360 546q0 -223 94 -331t259 -108q79 0 148 23t110 53q78 142 78 338v700l-153 34l20 98h406l20 -98l-152 -34v-677q0 -291 -127 -428.5t-383 -137.5t-383 124.5t-127 388.5v730l-154 34l20 98h456l20 -98l-152 -34v-675z" />
    <glyph glyph-name="V" unicode="V" horiz-adv-x="1180" 
d="M402 1254l-149 -29l351 -1043h16l350 1043l-149 29l20 99h363l20 -99l-108 -28l-430 -1226h-191l-432 1226l-107 28l20 99h406z" />
    <glyph glyph-name="W" unicode="W" horiz-adv-x="1998" 
d="M403 1254l-149 -29l335 -993h16l342 1121h191l334 -1121h16l304 993l-153 29l20 99h363l20 -99l-103 -27l-386 -1227h-191l-333 1107h-16l-337 -1107h-192l-422 1227l-106 27l20 99h407z" />
    <glyph glyph-name="X" unicode="X" horiz-adv-x="1273" 
d="M188 1226l-116 28l20 99h401l20 -99l-118 -28l267 -403h16l258 402l-120 29l20 99h355l20 -99l-118 -28l-352 -526l379 -573l117 -29l-20 -98h-401l-20 98l118 29l-299 453h-16l-289 -452l117 -30l-20 -98h-351l-20 98l117 29l381 575z" />
    <glyph glyph-name="Y" unicode="Y" horiz-adv-x="1122" 
d="M478 578l-416 648l-114 28l20 99h410l20 -99l-132 -28l321 -504h16l304 504l-125 28l20 99h352l20 -99l-111 -28l-395 -650v-444l152 -34l-20 -98h-455l-20 98l153 34v446z" />
    <glyph glyph-name="Z" unicode="Z" horiz-adv-x="1130" 
d="M1023 1353v-124l-716 -1086l5 -14h557l82 193l103 -22l-24 -300h-948v125l715 1085l-5 14h-516l-82 -193l-104 22l25 300h908z" />
    <glyph glyph-name="bracketleft" unicode="[" horiz-adv-x="634" 
d="M180 1677h358v-96h-191v-1942h191v-96h-358v2134z" />
    <glyph glyph-name="backslash" unicode="\" horiz-adv-x="833" 
d="M773 -295h-165l-568 1815v20h165l568 -1815v-20z" />
    <glyph glyph-name="bracketright" unicode="]" horiz-adv-x="634" 
d="M454 -457h-358v96h191v1942h-191v96h358v-2134z" />
    <glyph glyph-name="asciicircum" unicode="^" horiz-adv-x="1104" 
d="M964 1049h-139l-268 335h-10l-267 -335h-140v30l364 461h96l364 -461v-30z" />
    <glyph glyph-name="underscore" unicode="_" horiz-adv-x="1116" 
d="M60 -235h1036v-144h-1036v144z" />
    <glyph glyph-name="grave" unicode="`" horiz-adv-x="832" 
d="M549 1275l-118 -10l-290 329v66l175 10l233 -363v-32z" />
    <glyph glyph-name="a" unicode="a" horiz-adv-x="1150" 
d="M759 487q-310 0 -443 -72q-28 -65 -28 -144t55 -126t137 -47t155 37.5t124 89.5v262zM108 237q0 370 651 370v95q0 150 -54.5 217.5t-190.5 67.5q-75 0 -150 -15l-60 -212l-98 10v283q154 54 343 54q390 0 390 -372v-603l173 -34l-20 -98l-255 -22l-58 177
q-145 -177 -360 -177q-140 0 -225.5 70t-85.5 189z" />
    <glyph glyph-name="b" unicode="b" horiz-adv-x="1122" 
d="M848 523v119q0 345 -242 345q-69 0 -142 -44.5t-127 -104.5v-713q132 -27 221 -27q147 0 229 62q21 44 41 146t20 217zM659 1107q182 0 275.5 -111.5t93.5 -329.5v-94q0 -277 -126.5 -435.5t-336.5 -158.5q-168 0 -408 65v1365l-153 34l20 98l313 22v-615l14 -6
q126 166 308 166z" />
    <glyph glyph-name="c" unicode="c" horiz-adv-x="972" 
d="M96 399v93q0 296 126.5 455.5t349.5 159.5q160 0 305 -63l19 -234l-110 -23l-69 179q-71 21 -141 21q-136 0 -240 -60q-60 -164 -60 -375v-109q0 -160 93 -252.5t229 -92.5t290 73v-96q-156 -97 -355 -97q-200 0 -318.5 108.5t-118.5 312.5z" />
    <glyph glyph-name="d" unicode="d" horiz-adv-x="1186" 
d="M278 553v-119q0 -163 70 -249.5t187 -86.5q73 0 145.5 39.5t118.5 87.5v735q-130 27 -219 27q-156 0 -252 -67q-50 -163 -50 -367zM98 413v93q0 281 126.5 441t351.5 160q90 0 223 -24v325l-153 34l20 98l313 22v-1430l153 -34l-20 -98l-235 -22l-58 177
q-139 -181 -339 -177q-179 0 -280.5 112.5t-101.5 322.5z" />
    <glyph glyph-name="e" unicode="e" horiz-adv-x="1034" 
d="M764 643q0 182 -52.5 263t-168.5 81q-59 0 -116 -18t-91 -42q-47 -121 -57 -284h485zM96 414v83q0 287 127 448.5t339 161.5t302 -103.5t90 -360.5v-120h-678v-76q0 -168 92.5 -258.5t235.5 -90.5t297 65v-96q-168 -89 -373 -89t-318.5 112t-113.5 324z" />
    <glyph glyph-name="f" unicode="f" horiz-adv-x="747" 
d="M439 1209v-124h214l20 -98l-234 -34v-821l213 -34l-20 -98h-506l-20 98l153 34v821l-163 34l20 98h143v108q0 185 77 277t222 92q93 0 177 -37l-43 -131q-123 41 -223 41q-30 -75 -30 -226z" />
    <glyph glyph-name="g" unicode="g" horiz-adv-x="1075" 
d="M747 764q0 105 -66 164t-158 59t-156 -30q-40 -103 -40 -213v-38q0 -97 71 -157.5t159 -60.5t150 30q40 75 40 208v38zM252 -215q0 -71 73 -96.5t205 -25.5q230 0 350 51q37 52 37 134t-72.5 117t-250.5 35h-183q-159 -118 -159 -215zM547 1107q67 0 153 -22h314l18 -107
h-208l-4 -10q43 -29 75 -87t32 -121v-25q0 -168 -109.5 -267.5t-290.5 -99.5q-65 0 -119 12q-121 -112 -121 -166t71 -54h224q238 0 356.5 -69t118.5 -224t-138.5 -239.5t-376.5 -84.5t-344 47t-106 151q0 132 209 268q-154 30 -154 150t173 250q-86 41 -129.5 111
t-43.5 150v26q0 196 109 303.5t291 107.5z" />
    <glyph glyph-name="h" unicode="h" horiz-adv-x="1324" 
d="M750 1107q189 0 273.5 -94t84.5 -287v-594l153 -34l-20 -98h-446l-20 98l153 34v560q0 159 -53.5 227t-172.5 68q-76 0 -153.5 -43t-132.5 -106v-706l153 -34l-20 -98h-446l-20 98l153 34v1276l-153 34l20 98l313 22v-615l14 -6q131 166 320 166z" />
    <glyph glyph-name="i" unicode="i" horiz-adv-x="660" 
d="M212 1409q0 48 29.5 89.5t77.5 41.5t88.5 -29t40.5 -77t-29 -89.5t-77 -41.5t-89 29t-41 77zM259 953l-153 34l20 98l313 22v-975l153 -34l-20 -98h-446l-20 98l153 34v821z" />
    <glyph glyph-name="j" unicode="j" horiz-adv-x="569" 
d="M185 1409q0 48 29.5 89.5t77.5 41.5t88.5 -29t40.5 -77t-29.5 -89.5t-77.5 -41.5t-88.5 29t-40.5 77zM232 -86v1039l-183 34l20 98l343 22v-1154q0 -208 -71 -309t-236 -101q-111 0 -209 37l36 131q154 -41 260 -41q40 84 40 244z" />
    <glyph glyph-name="k" unicode="k" horiz-adv-x="1185" 
d="M84 98l153 34v1276l-153 34l20 98l313 22v-989l14 -6l429 401l-92 19l20 98h322l20 -98l-87 -19l-359 -325l343 -511l134 -34l-20 -98h-223l-357 532l-144 -130v-270l153 -34l-20 -98h-446z" />
    <glyph glyph-name="l" unicode="l" horiz-adv-x="642" 
d="M246 1408l-153 34l20 98l313 22v-1430l153 -34l-20 -98h-446l-20 98l153 34v1276z" />
    <glyph glyph-name="m" unicode="m" horiz-adv-x="2034" 
d="M713 987q-129 0 -276 -129v-726l153 -34l-20 -98h-446l-20 98l153 34v821l-153 34l20 98l235 22l58 -178q72 86 167.5 132t195.5 46q251 0 318 -178q171 178 361 178q191 0 276.5 -94.5t85.5 -286.5v-594l153 -34l-20 -98h-446l-20 98l153 34v550q0 155 -55.5 230
t-183.5 75t-273 -129v-726l153 -34l-20 -98h-446l-20 98l153 34v550q0 156 -53.5 230.5t-182.5 74.5z" />
    <glyph glyph-name="n" unicode="n" horiz-adv-x="1346" 
d="M768 1107q193 0 278 -93.5t85 -287.5v-594l153 -34l-20 -98h-446l-20 98l153 34v550q0 153 -49.5 229t-184.5 76t-278 -129v-726l153 -34l-20 -98h-446l-20 98l153 34v821l-153 34l20 98l235 22l58 -178q156 178 349 178z" />
    <glyph glyph-name="o" unicode="o" horiz-adv-x="1114" 
d="M838 622q0 171 -78.5 266.5t-207.5 97.5t-216 -59q-60 -136 -60 -355v-119q0 -168 86.5 -261.5t202.5 -93.5t213 60q60 126 60 345v119zM548 -22q-218 0 -335 116.5t-117 324.5v93q0 276 126.5 435.5t339.5 159.5t334.5 -116.5t121.5 -334.5v-94q0 -265 -126 -424.5
t-344 -159.5z" />
    <glyph glyph-name="p" unicode="p" horiz-adv-x="1160" 
d="M884 503v119q0 180 -65.5 272.5t-192.5 92.5t-263 -129v-733q120 -27 207 -27q156 0 257 60q21 55 39 151t18 194zM683 1107q381 0 381 -451v-94q0 -271 -123 -427.5t-335 -156.5q-112 0 -243 25v-305l153 -34l-20 -99h-446l-20 99l153 34v1255l-153 34l20 98l235 22
l58 -178q149 178 340 178z" />
    <glyph glyph-name="q" unicode="q" horiz-adv-x="1085" 
d="M576 987q-154 0 -242 -68q-54 -153 -54 -347v-119q0 -178 68 -266.5t180 -88.5q72 0 144 38.5t119 88.5v734q-128 28 -215 28zM100 409v83q0 279 125 447t330 168q163 0 416 -64v-1500l-313 22l-20 98l153 34v419l-10 4q-126 -142 -310 -142q-183 0 -277 110.5t-94 320.5
z" />
    <glyph glyph-name="r" unicode="r" horiz-adv-x="885" 
d="M682 1107q88 0 149 -42l-25 -283h-112l-26 185q-20 8 -58 8t-89 -36.5t-82 -80.5v-726l186 -34l-20 -98h-479l-20 98l153 34v821l-153 34l20 98l235 22l58 -178q95 178 263 178z" />
    <glyph glyph-name="s" unicode="s" horiz-adv-x="970" 
d="M890 271q0 -130 -115 -211.5t-307 -81.5t-332 70l-10 240l109 20l58 -187q75 -23 185 -23t212 28q20 42 20 106t-64 120.5t-239 148.5t-232 161t-57 158q0 125 105 206t295 81t324 -68l9 -241l-109 -20l-59 189q-73 20 -173 20t-190 -28q-22 -39 -22 -94
q0 -54 45.5 -101.5t240.5 -147.5t250.5 -176t55.5 -169z" />
    <glyph glyph-name="t" unicode="t" horiz-adv-x="742" 
d="M189 270v684l-161 32l20 99h141l73 293l107 -20v-273h290l20 -99l-310 -32v-645q0 -106 31.5 -158.5t112.5 -52.5t167 39v-94q-100 -65 -232 -65q-133 0 -196 72t-63 220z" />
    <glyph glyph-name="u" unicode="u" horiz-adv-x="1262" 
d="M191 359v594l-153 34l20 98l313 22v-704q0 -156 55 -230.5t196 -74.5t261 127v728l-183 34l20 98l343 22v-975l153 -34l-20 -98l-235 -22l-58 178q-152 -178 -371 -178q-341 0 -341 381z" />
    <glyph glyph-name="v" unicode="v" horiz-adv-x="1062" 
d="M1076 987l-95 -19l-339 -968h-217l-342 968l-95 19l20 98h370l20 -98l-129 -20l278 -835h16l278 835l-129 20l20 98h324z" />
    <glyph glyph-name="w" unicode="w" horiz-adv-x="1733" 
d="M1747 987l-94 -18l-295 -969h-212l-258 828h-16l-251 -828h-212l-323 968l-96 19l20 98h371l20 -98l-131 -20l256 -808h16l268 926h183l273 -926h16l233 808l-134 20l20 98h326z" />
    <glyph glyph-name="x" unicode="x" horiz-adv-x="1086" 
d="M24 98l92 16l333 429l-325 428l-86 16l20 98h350l20 -98l-93 -15l234 -306h16l228 305l-94 16l20 98h303l20 -98l-88 -16l-325 -412l339 -445l92 -16l-20 -98h-357l-20 98l93 15l-246 324h-16l-239 -324l96 -15l-20 -98h-307z" />
    <glyph glyph-name="y" unicode="y" horiz-adv-x="1106" 
d="M490.5 -352q-87.5 -105 -212.5 -105t-230 47l36 131q140 -51 270 -51q87 60 140 205l-407 1093l-97 19l20 98h370l20 -98l-125 -19l295 -836h16l296 836l-125 19l20 98h325l20 -98l-97 -19l-357 -966q-90 -249 -177.5 -354z" />
    <glyph glyph-name="z" unicode="z" horiz-adv-x="967" 
d="M897 0h-805v95l593 868l-6 12h-400l-52 -190l-104 11v289h782v-83l-601 -880l6 -12h431l52 190l104 -11v-289z" />
    <glyph glyph-name="braceleft" unicode="{" horiz-adv-x="814" 
d="M150 658h96q61 0 85.5 24.5t24.5 85.5v629q0 121 79.5 200.5t200.5 79.5h78v-96h-21q-91 0 -130.5 -39.5t-39.5 -130.5v-583q0 -168 -49 -190.5t-71 -22.5v-10q81 0 100.5 -75.5t19.5 -137.5v-583q0 -91 39.5 -130.5t130.5 -39.5h21v-96h-78q-121 0 -200.5 79.5
t-79.5 200.5v629q0 61 -24.5 85.5t-85.5 24.5h-96v96z" />
    <glyph glyph-name="bar" unicode="|" horiz-adv-x="658" 
d="M270 1670h118v-2207h-118v2207z" />
    <glyph glyph-name="braceright" unicode="}" horiz-adv-x="814" 
d="M664 562h-96q-61 0 -85.5 -24.5t-24.5 -85.5v-629q0 -121 -79.5 -200.5t-200.5 -79.5h-78v96h21q91 0 130.5 39.5t39.5 130.5v583q0 168 48.5 190.5t71.5 22.5v10q-81 0 -100.5 75.5t-19.5 137.5v583q0 91 -39.5 130.5t-130.5 39.5h-21v96h78q121 0 200.5 -79.5
t79.5 -200.5v-629q0 -61 24.5 -85.5t85.5 -24.5h96v-96z" />
    <glyph glyph-name="asciitilde" unicode="~" horiz-adv-x="1211" 
d="M356 632q-107 0 -107 -98l-109 -10v25q0 108 66.5 168.5t161.5 60.5t277.5 -66t220 -66t68 32t30.5 88l117 10v-47q0 -105 -63.5 -167t-150.5 -62t-283.5 66t-227.5 66z" />
    <glyph glyph-name="uni00A0" unicode="&#xa0;" 
 />
    <glyph glyph-name="exclamdown" unicode="&#xa1;" horiz-adv-x="572" 
d="M378 -435l-195 -22l-20 22l37 1150h141zM382.5 885.5q-29.5 -51.5 -68.5 -51.5q-75 0 -124.5 30.5t-49.5 68.5q0 71 29.5 122.5t69.5 51.5q39 0 70 -8t67 -29t36 -77t-29.5 -107.5z" />
    <glyph glyph-name="cent" unicode="&#xa2;" horiz-adv-x="1024" 
d="M276 443q0 -202 100 -261t149 -72v873q-113 -13 -189 -56q-60 -159 -60 -375v-109zM643 -245h-118v225q-306 16 -367.5 166t-61.5 253v93q0 415 165.5 506.5t263.5 103.5v251h118v-247q171 -8 294 -62v-255l-122 -14l-48 191q-58 15 -124 20v-888q151 5 305 73v-96
q-126 -78 -305 -94v-226z" />
    <glyph glyph-name="sterling" unicode="&#xa3;" horiz-adv-x="1101" 
d="M453 354q0 -104 -43 -225h408l83 193l104 -22l-25 -300h-841l-20 98l131 29q33 103 33 202q0 100 -40 256h-113l-20 89l100 28q-48 170 -48 277q0 108 24 173t106 144t294 79q211 0 355 -83v-277l-106 -15l-72 229q-85 26 -189 26t-194 -41q-10 -22 -24 -66t-14 -159
t45 -275h436v-129h-401q31 -127 31 -231z" />
    <glyph glyph-name="currency" unicode="&#xa4;" horiz-adv-x="1271" 
d="M421 588q0 -56 17 -98t46 -71t68.5 -43.5t108 -14.5t129 60.5t60.5 166.5t-60.5 166.5t-180 60.5t-154 -85.5t-34.5 -141.5zM245 585q0 123 74 220l-139 165l128 107l138 -165q86 47 188 47t190 -46l138 164l129 -109l-138 -164q74 -97 74 -220t-83 -225l144 -170
l-128 -107l-148 175q-82 -40 -176 -40t-176 39l-146 -174l-129 109l141 169q-81 102 -81 225z" />
    <glyph glyph-name="yen" unicode="&#xa5;" horiz-adv-x="1122" 
d="M187 635h254l-379 591l-114 28l20 99h410l20 -99l-131 -28l323 -504h10l306 504l-124 28l20 99h352l20 -99l-111 -28l-360 -591h247v-127h-282v-128h282v-127h-282v-121l152 -34l-20 -98h-455l-20 98l153 34v121h-291v127h291v128h-291v127z" />
    <glyph glyph-name="brokenbar" unicode="&#xa6;" horiz-adv-x="658" 
d="M270 1670h118v-857h-118v857zM270 320h118v-857h-118v857z" />
    <glyph glyph-name="section" unicode="&#xa7;" horiz-adv-x="1169" 
d="M821 399q78 66 78 153t-68.5 143.5t-240.5 148.5q-173 93 -230 131q-70 -64 -70 -150t56 -139.5t235 -149.5t240 -137zM794 1343q-77 21 -190 21t-213 -26q-22 -35 -22 -81q0 -47 17 -73.5t62 -60t188 -111.5q144 -77 211 -119.5t139.5 -113.5t72.5 -196
q0 -156 -148 -256q79 -79 79 -183q0 -272 -409 -272q-214 0 -365 70l22 260h110l25 -187q145 -44 371 -9q37 6 66 15q20 40 20 85t-21 75.5t-84 77.5t-208 121q-145 73 -266 150t-121 240t145 274q-66 70 -66 144q0 296 399 296q209 0 345 -68l-24 -260h-111z" />
    <glyph glyph-name="dieresis" unicode="&#xa8;" horiz-adv-x="1013" 
d="M626 1472.5q26 37.5 57 37.5q58 0 94 -26.5t36 -57.5q0 -56 -26.5 -93.5t-57.5 -37.5t-54 7t-49 26.5t-26 62.5q0 44 26 81.5zM226.5 1472.5q26.5 37.5 57.5 37.5q58 0 93.5 -26.5t35.5 -57.5q0 -55 -26 -93t-57 -38t-54 7t-49.5 26.5t-26.5 63.5q0 43 26.5 80.5z" />
    <glyph glyph-name="copyright" unicode="&#xa9;" horiz-adv-x="1467" 
d="M120 970q0 106 48.5 218t131.5 195t195 131t239 48t239 -48t195 -131t131 -195t48 -239t-48 -239t-131 -195t-195 -131.5t-218 -48.5t-184.5 22t-146.5 62t-124 96t-96 124t-62 146.5t-22 184.5zM259 949q0 -99 37 -185.5t101.5 -151t151 -101.5t185.5 -37t185.5 37
t151 101.5t101.5 151t37 185.5t-37 185.5t-101.5 151t-151 101.5t-185.5 37t-185.5 -37t-151 -101.5t-101.5 -151t-37 -185.5zM735 595q-197 0 -238.5 98.5t-41.5 167.5v58q0 286 115 336t201 50t173 -38l12 -193l-68 -14l-44 137q-44 12 -106 12q-61 0 -110 -28
q-23 -89 -23 -224v-68q0 -95 49 -146t126 -51t172 46v-84q-97 -59 -217 -59z" />
    <glyph glyph-name="ordfeminine" unicode="&#xaa;" horiz-adv-x="627" 
d="M165 958q1 -68 71 -68t134 64v105q-126 0 -194 -38q-11 -26 -11 -63zM382 892q-68 -82 -206 -82q-54 0 -95 33.5t-41 96.5q0 199 330 199v33q0 62 -21 107q-46 16 -89 16t-87 -8l-30 -116l-69 5v172q89 27 193 27t166 -42t62 -144v-282l92 -17l-10 -69l-168 -11z" />
    <glyph glyph-name="guillemotleft" unicode="&#xab;" horiz-adv-x="1063" 
d="M893 973v-22l-167 -385l167 -385v-22h-85l-266 389v36l266 389h85zM630 1017v-22l-300 -419v-20l300 -419v-22h-85l-395 421v60l395 421h85z" />
    <glyph glyph-name="logicalnot" unicode="&#xac;" horiz-adv-x="1193" 
d="M140 769h893v-464h-147v317h-746v147z" />
    <glyph glyph-name="uni00AD" unicode="&#xad;" horiz-adv-x="969" 
d="M230 665l589 41l-30 -149l-589 -41z" />
    <glyph glyph-name="registered" unicode="&#xae;" horiz-adv-x="1467" 
d="M669 1187v-192h56q56 0 93 17q14 47 14 83q0 37 -27 64.5t-90 27.5h-46zM956 1103q0 -112 -104 -176v-6l124 -207l72 -14l-9 -55h-156l-155 266h-59v-196l70 -15l-9 -55h-244l-9 55l70 15v484l-70 17l9 55h261q209 0 209 -168zM259 949q0 -99 37 -185.5t101.5 -151
t151 -101.5t185.5 -37t185.5 37t151 101.5t101.5 151t37 185.5t-37 185.5t-101.5 151t-151 101.5t-185.5 37t-185.5 -37t-151 -101.5t-101.5 -151t-37 -185.5zM120 970q0 106 48.5 218t131.5 195t195 131t239 48t239 -48t195 -131t131 -195t48 -239t-48 -239t-131 -195
t-195 -131.5t-218 -48.5t-184.5 22t-146.5 62t-124 96t-96 124t-62 146.5t-22 184.5z" />
    <glyph glyph-name="macron" unicode="&#xaf;" horiz-adv-x="1030" 
d="M169 1473h711l-20 -120h-710z" />
    <glyph glyph-name="degree" unicode="&#xb0;" horiz-adv-x="614" 
d="M209 1305q0 -36 10 -63.5t27.5 -46.5t40.5 -28.5t50 -9.5t50 9.5t40.5 28.5t27.5 46.5t10 63.5t-10 63.5t-27.5 46.5t-40.5 28.5t-50 9.5t-50 -9.5t-40.5 -28.5t-27.5 -46.5t-10 -63.5zM80 1305q0 53 20 100t55 82t82 55t100 20t100 -20t82 -55t55 -82t20 -100t-20 -100
t-55 -82t-82 -55t-100 -20t-100 20t-82 55t-55 82t-20 100z" />
    <glyph glyph-name="plusminus" unicode="&#xb1;" horiz-adv-x="1063" 
d="M187 147h693v-147h-693v147zM605 1085v-318h298v-147h-298v-318h-147v318h-298v147h298v318h147z" />
    <glyph glyph-name="twosuperior" unicode="&#xb2;" horiz-adv-x="581" 
d="M66 1715q103 57 240 57t168 -63t31 -108q0 -82 -67.5 -172.5t-205.5 -233.5l2 -5h178l41 106l72 -11l-11 -200h-466v82q184 184 255.5 268.5t71.5 153.5q0 99 -107 99q-51 0 -99 -24l-28 -110l-75 5v156z" />
    <glyph glyph-name="threesuperior" unicode="&#xb3;" horiz-adv-x="548" 
d="M367 1262q0 137 -129 137h-44v84h46q103 0 103 108q0 55 -28.5 75.5t-69.5 20.5t-89 -16l-26 -106l-73 6v164q92 37 200 37q107 0 161.5 -42.5t54.5 -119.5q0 -103 -106 -163q129 -43 129 -153t-68.5 -165.5t-180.5 -55.5q-111 0 -203 41v165l73 6l26 -106q42 -21 86 -21
q68 0 103 29.5t35 74.5z" />
    <glyph glyph-name="acute" unicode="&#xb4;" horiz-adv-x="1052" 
d="M397 1307l203 363l182 -10v-66l-280 -329l-105 10v32z" />
    <glyph glyph-name="uni00B5" unicode="&#xb5;" horiz-adv-x="1254" 
d="M383 403q0 -248 90.5 -276.5t144.5 -28.5q141 0 257 127v728l-183 34l20 98l343 22v-975l153 -34l-20 -98q-60 -22 -124 -22q-116 0 -169 178q-65 -79 -143.5 -128.5t-207.5 -49.5q-130 0 -200 89l-10 -6l49 -496l-180 -22v1410l-153 34l20 98l313 22v-704z" />
    <glyph glyph-name="paragraph" unicode="&#xb6;" horiz-adv-x="1152" 
d="M481 -174q91 0 170 33.5t79 273.5v1091h-140v-739h-65q-183 0 -309 105.5t-126 320.5t123.5 328.5t324.5 113.5h514l20 -98l-152 -34v-1093q0 -196 -107 -313t-259 -117q-151 0 -263 47v112q99 -31 190 -31z" />
    <glyph glyph-name="periodcentered" unicode="&#xb7;" horiz-adv-x="584" 
d="M207 762.5q27 45.5 61 45.5q68 0 112 -27t44 -61q0 -67 -27 -112t-61 -45q-35 0 -63 7t-60.5 27t-32.5 70t27 95.5z" />
    <glyph glyph-name="cedilla" unicode="&#xb8;" horiz-adv-x="818" 
d="M200 -317q98 -40 166 -40t97 13q14 33 14 69q0 61 -161 99l-34 55l61 158h132l-49 -135q94 -25 128.5 -52.5t49 -56t14.5 -89.5t-61.5 -111t-162.5 -50q-100 0 -194 47v93z" />
    <glyph glyph-name="onesuperior" unicode="&#xb9;" horiz-adv-x="446" 
d="M168 1658h-113l-5 47l182 57h66v-591l101 -17l-10 -69h-313l-10 69l102 17v487z" />
    <glyph glyph-name="ordmasculine" unicode="&#xba;" horiz-adv-x="581" 
d="M416 1132q0 127 -55.5 145t-89.5 18t-76 -30q-30 -53 -30 -158v-59q0 -117 54.5 -137.5t90.5 -20.5t76 30q30 56 30 153v59zM286 810q-124 0 -185 60t-61 161v46q0 141 70 219.5t181 78.5q178 0 214 -84t36 -142v-47q0 -202 -95.5 -247t-159.5 -45z" />
    <glyph glyph-name="guillemotright" unicode="&#xbb;" horiz-adv-x="1063" 
d="M170 159v22l167 385l-167 385v22h85l266 -389v-36l-266 -389h-85zM433 115v22l300 419v20l-300 419v22h85l395 -421v-60l-395 -421h-85z" />
    <glyph glyph-name="onequarter" unicode="&#xbc;" horiz-adv-x="1374" 
d="M1036 161h-264l-12 63l270 453h127l-265 -431h144v148h130v-148h86l12 -70l-98 -17v-73l96 -17l-10 -69h-322l-10 69l116 17v75zM1208 1353v-20l-979 -1333h-105v20l979 1333h105zM208 1249h-113l-5 47l182 57h66v-591l101 -17l-10 -69h-313l-10 69l102 17v487z" />
    <glyph glyph-name="onehalf" unicode="&#xbd;" horiz-adv-x="1433" 
d="M1303 516q0 -82 -67.5 -172.5t-205.5 -233.5l2 -5h178l41 106l72 -11l-11 -200h-466v82q185 185 256 269t71 153q0 99 -107 99q-51 0 -99 -24l-28 -110l-75 5v156q103 57 240 57t168 -63t31 -108zM1228 1353v-20l-979 -1333h-105v20l979 1333h105zM228 1249h-113l-5 47
l182 57h66v-591l101 -17l-10 -69h-313l-10 69l102 17v487z" />
    <glyph glyph-name="threequarters" unicode="&#xbe;" horiz-adv-x="1423" 
d="M1085 161h-264l-12 63l270 453h127l-265 -431h144v148h130v-148h86l12 -70l-98 -17v-73l96 -17l-10 -69h-322l-10 69l116 17v75zM1257 1353v-20l-979 -1333h-105v20l979 1333h105zM433 865q0 137 -129 137h-44v84h46q103 0 103 108q0 55 -28.5 75.5t-69.5 20.5t-89 -16
l-26 -106l-73 6v164q93 37 200 37t161.5 -42.5t54.5 -119.5q0 -103 -106 -163q129 -43 129 -153t-68.5 -165.5t-180.5 -55.5q-111 0 -203 41v165l73 6l26 -106q42 -21 86 -21q68 0 103 29.5t35 74.5z" />
    <glyph glyph-name="questiondown" unicode="&#xbf;" horiz-adv-x="979" 
d="M693.5 885.5q-29.5 -51.5 -68.5 -51.5q-75 0 -124.5 30.5t-49.5 68.5q0 71 29.5 122.5t69.5 51.5q39 0 70 -8t67 -29t36 -77t-29.5 -107.5zM525 -457q-425 0 -425 273q0 144 82 232t140 141l151 138q119 107 119 188q0 74 -92 74q-65 0 -139 -31v101q79 50 183 50
q153 0 190.5 -72.5t37.5 -116.5q0 -84 -40.5 -154.5t-135.5 -157.5l-152 -140q-93 -87 -128.5 -141.5t-35.5 -100.5q0 -163 256 -163q106 0 180 28l71 229l112 -17v-277q-160 -83 -374 -83z" />
    <glyph glyph-name="Agrave" unicode="&#xc0;" horiz-adv-x="1218" 
d="M389 535h402l-194 569h-10zM-8 98l108 29l440 1226h149l429 -1226l108 -29l-20 -98h-385l-20 98l128 29l-94 279h-491l-96 -279l128 -29l-20 -98h-344zM794 1471l-115 -11l-375 248v66l192 10l298 -281v-32z" />
    <glyph glyph-name="Aacute" unicode="&#xc1;" horiz-adv-x="1218" 
d="M389 535h402l-194 569h-10zM-8 98l108 29l440 1226h149l429 -1226l108 -29l-20 -98h-385l-20 98l128 29l-94 279h-491l-96 -279l128 -29l-20 -98h-344zM472 1503l298 281l192 -10v-66l-375 -248l-115 11v32z" />
    <glyph glyph-name="Acircumflex" unicode="&#xc2;" horiz-adv-x="1218" 
d="M389 535h402l-194 569h-10zM-8 98l108 29l440 1226h149l429 -1226l108 -29l-20 -98h-385l-20 98l128 29l-94 279h-491l-96 -279l128 -29l-20 -98h-344zM970 1470l-125 -10l-238 192l-231 -192l-95 10v32l283 292l133 -10l273 -282v-32z" />
    <glyph glyph-name="Atilde" unicode="&#xc3;" horiz-adv-x="1218" 
d="M389 535h402l-194 569h-10zM-8 98l108 29l440 1226h149l429 -1226l108 -29l-20 -98h-385l-20 98l128 29l-94 279h-491l-96 -279l128 -29l-20 -98h-344zM815 1617q83 0 83 120l117 10v-47q1 -106 -53 -168t-141 -61q-87 0 -233 66q-147 66 -173 66q-50 0 -71 -21t-21 -77
l-109 -10v25q0 113 58 171t152 58t226 -66q50 -25 93 -45t72 -21z" />
    <glyph glyph-name="Adieresis" unicode="&#xc4;" horiz-adv-x="1218" 
d="M389 535h402l-194 569h-10zM-8 98l108 29l440 1226h149l429 -1226l108 -29l-20 -98h-385l-20 98l128 29l-94 279h-491l-96 -279l128 -29l-20 -98h-344zM763 1669q26 38 57 38q57 0 94 -26q36 -26 36 -57q0 -57 -27 -95q-27 -37 -57 -37q-31 0 -54 7q-24 7 -40 19
q-36 27 -35 70q0 43 26 81zM304 1670q27 37 57 37q58 0 93 -26q36 -26 36 -57q0 -56 -26 -94t-57 -38t-54 7t-40 19q-36 26 -36 71q0 44 27 81z" />
    <glyph glyph-name="Aring" unicode="&#xc5;" horiz-adv-x="1218" 
d="M389 535h402l-194 569h-10zM-8 98l108 29l440 1226h149l429 -1226l108 -29l-20 -98h-385l-20 98l128 29l-94 279h-491l-96 -279l128 -29l-20 -98h-344zM531 1610q1 -56 27 -84t67 -28t75 19q9 45 9 89q-1 44 -27 73q-26 28 -63 28t-79 -19q-9 -22 -9 -78zM431 1577
q0 93 57 150t142 57q123 0 164 -84q14 -28 14 -74q0 -98 -56 -152t-137 -54t-119 28q-37 28 -51 56t-14 73z" />
    <glyph glyph-name="AE" unicode="&#xc6;" horiz-adv-x="1782" 
d="M820 535v634l-326 -634h326zM1010 1224v-452h357l34 122l99 -20v-334l-99 -20l-34 123h-357v-514h481l83 193l104 -23l-24 -299h-967l-20 98l153 34v274h-392l-144 -281l108 -27l-20 -98h-364l-20 98l130 31l638 1224h868l24 -300l-103 -22l-83 193h-452z" />
    <glyph glyph-name="Ccedilla" unicode="&#xc7;" horiz-adv-x="1176" 
d="M100 515v89q0 381 154 576t451 195q212 0 363 -59l21 -270l-105 -22l-83 195q-85 27 -197 27q-203 0 -325 -88q-40 -92 -64.5 -220t-24.5 -255v-133q0 -214 117.5 -328.5t310.5 -114.5t374 104v-106q-169 -109 -371 -124l-28 -79q94 -25 128.5 -52.5t49 -56t14.5 -89.5
t-61.5 -111t-162.5 -50q-100 0 -194 47v93q98 -40 166 -40t97 13q14 33 14 69q0 61 -161 99l-34 55l39 102q-488 35 -488 534z" />
    <glyph glyph-name="Egrave" unicode="&#xc8;" horiz-adv-x="1191" 
d="M419 643v-514h481l83 193l104 -23l-24 -299h-967l-20 98l153 34v1089l-153 34l20 98h937l24 -300l-103 -22l-83 193h-452v-452h357l34 122l99 -20v-334l-99 -20l-34 123h-357zM769 1471l-115 -11l-375 248v66l192 10l298 -281v-32z" />
    <glyph glyph-name="Eacute" unicode="&#xc9;" horiz-adv-x="1191" 
d="M419 643v-514h481l83 193l104 -23l-24 -299h-967l-20 98l153 34v1089l-153 34l20 98h937l24 -300l-103 -22l-83 193h-452v-452h357l34 122l99 -20v-334l-99 -20l-34 123h-357zM447 1503l298 281l192 -10v-66l-375 -248l-115 11v32z" />
    <glyph glyph-name="Ecircumflex" unicode="&#xca;" horiz-adv-x="1191" 
d="M419 643v-514h481l83 193l104 -23l-24 -299h-967l-20 98l153 34v1089l-153 34l20 98h937l24 -300l-103 -22l-83 193h-452v-452h357l34 122l99 -20v-334l-99 -20l-34 123h-357zM945 1470l-125 -10l-238 192l-231 -192l-95 10v32l283 292l133 -10l273 -282v-32z" />
    <glyph glyph-name="Edieresis" unicode="&#xcb;" horiz-adv-x="1191" 
d="M419 643v-514h481l83 193l104 -23l-24 -299h-967l-20 98l153 34v1089l-153 34l20 98h937l24 -300l-103 -22l-83 193h-452v-452h357l34 122l99 -20v-334l-99 -20l-34 123h-357zM738 1669q26 38 57 38q57 0 94 -26q36 -26 36 -57q0 -57 -27 -95q-27 -37 -57 -37
q-31 0 -54 7t-39 19q-36 27 -36 70t26 81zM279 1670q27 37 57 37q58 0 93 -26q36 -26 36 -57q0 -56 -26 -94t-57 -38t-54 7t-40 19q-36 26 -36 71q0 44 27 81z" />
    <glyph glyph-name="Igrave" unicode="&#xcc;" horiz-adv-x="643" 
d="M225 1221l-153 34l20 98h455l20 -98l-152 -34v-1089l152 -34l-20 -98h-455l-20 98l153 34v1089zM499 1471l-115 -11l-375 248v66l192 10l298 -281v-32z" />
    <glyph glyph-name="Iacute" unicode="&#xcd;" horiz-adv-x="643" 
d="M225 1221l-153 34l20 98h455l20 -98l-152 -34v-1089l152 -34l-20 -98h-455l-20 98l153 34v1089zM176 1503l298 281l192 -10v-66l-375 -248l-115 11v32z" />
    <glyph glyph-name="Icircumflex" unicode="&#xce;" horiz-adv-x="643" 
d="M225 1221l-153 34l20 98h455l20 -98l-152 -34v-1089l152 -34l-20 -98h-455l-20 98l153 34v1089zM674 1470l-125 -10l-238 192l-231 -192l-95 10v32l283 292l133 -10l273 -282v-32z" />
    <glyph glyph-name="Idieresis" unicode="&#xcf;" horiz-adv-x="643" 
d="M225 1221l-153 34l20 98h455l20 -98l-152 -34v-1089l152 -34l-20 -98h-455l-20 98l153 34v1089zM467 1669q26 38 57 38q57 0 94 -26q36 -26 36 -57q0 -57 -27 -95q-27 -37 -57 -37q-31 0 -54 7q-24 7 -40 19q-36 27 -35 70q0 43 26 81zM8 1670q27 37 57 37q58 0 93 -26
q36 -26 36 -57q0 -56 -26 -94t-57 -38t-54 7t-40 19q-36 26 -36 71q0 44 27 81z" />
    <glyph glyph-name="Eth" unicode="&#xd0;" horiz-adv-x="1362" 
d="M421 1224v-466h290v-129h-290v-500h211q152 0 278 49q40 52 70 115q76 160 76 329v94q0 369 -170.5 438.5t-286.5 69.5h-178zM78 758h153v463l-153 34l20 98h540q456 0 532 -224.5t76 -363.5v-78q0 -317 -155 -502t-430 -185h-563l-20 98l153 34v497h-153v129z" />
    <glyph glyph-name="Ntilde" unicode="&#xd1;" horiz-adv-x="1532" 
d="M1183 136v1085l-154 34l20 98h407l20 -98l-152 -34v-1221h-287l-656 1218h-16v-1086l152 -34l-20 -98h-405l-20 98l153 34v1089l-153 34l20 98h420l655 -1217h16zM975 1617q83 0 83 120l117 10v-47q1 -106 -53 -168t-141 -61q-87 0 -233 66q-147 66 -173 66
q-50 0 -71 -21t-21 -77l-109 -10v25q0 113 58 171t152 58t226 -66q50 -25 93 -45t72 -21z" />
    <glyph glyph-name="Ograve" unicode="&#xd2;" horiz-adv-x="1345" 
d="M1053 783q-1 235 -105 349t-295 114q-89 0 -168 -28t-124 -60q-69 -212 -69 -455v-133q0 -221 112 -342t289 -121q87 1 165 27t127 62q68 212 68 454v133zM683 1375q560 0 560 -548v-78q0 -377 -144 -574t-436 -197q-561 0 -561 547v79q0 389 148 580t433 191zM844 1471
l-115 -11l-375 248v66l192 10l298 -281v-32z" />
    <glyph glyph-name="Oacute" unicode="&#xd3;" horiz-adv-x="1345" 
d="M1053 783q-1 235 -105 349t-295 114q-89 0 -168 -28t-124 -60q-69 -212 -69 -455v-133q0 -221 112 -342t289 -121q87 1 165 27t127 62q68 212 68 454v133zM683 1375q560 0 560 -548v-78q0 -377 -144 -574t-436 -197q-561 0 -561 547v79q0 389 148 580t433 191zM522 1503
l298 281l192 -10v-66l-375 -248l-115 11v32z" />
    <glyph glyph-name="Ocircumflex" unicode="&#xd4;" horiz-adv-x="1345" 
d="M1053 783q-1 235 -105 349t-295 114q-89 0 -168 -28t-124 -60q-69 -212 -69 -455v-133q0 -221 112 -342t289 -121q87 1 165 27t127 62q68 212 68 454v133zM683 1375q560 0 560 -548v-78q0 -377 -144 -574t-436 -197q-561 0 -561 547v79q0 389 148 580t433 191zM1020 1470
l-125 -10l-238 192l-231 -192l-95 10v32l283 292l133 -10l273 -282v-32z" />
    <glyph glyph-name="Otilde" unicode="&#xd5;" horiz-adv-x="1345" 
d="M1053 783q-1 235 -105 349t-295 114q-89 0 -168 -28t-124 -60q-69 -212 -69 -455v-133q0 -221 112 -342t289 -121q87 1 165 27t127 62q68 212 68 454v133zM683 1375q560 0 560 -548v-78q0 -377 -144 -574t-436 -197q-561 0 -561 547v79q0 389 148 580t433 191zM854 1617
q83 0 83 120l117 10v-47q0 -106 -54 -168t-140 -61q-88 0 -234 66q-147 66 -172 66q-50 0 -71 -21t-21 -77l-109 -10v25q1 113 59 171t151 58t225 -66q50 -25 94 -45q43 -20 72 -21z" />
    <glyph glyph-name="Odieresis" unicode="&#xd6;" horiz-adv-x="1345" 
d="M1053 783q-1 235 -105 349t-295 114q-89 0 -168 -28t-124 -60q-69 -212 -69 -455v-133q0 -221 112 -342t289 -121q87 1 165 27t127 62q68 212 68 454v133zM683 1375q560 0 560 -548v-78q0 -377 -144 -574t-436 -197q-561 0 -561 547v79q0 389 148 580t433 191zM813 1669
q26 38 57 38q57 0 94 -26q36 -26 36 -57q0 -57 -27 -95q-27 -37 -57 -37q-31 0 -54 7q-24 7 -40 19q-36 27 -35 70q0 43 26 81zM354 1670q27 37 57 37q58 0 93 -26q36 -26 36 -57q0 -56 -26 -94t-57 -38t-54 7t-40 19q-36 26 -36 71q0 44 27 81z" />
    <glyph glyph-name="multiply" unicode="&#xd7;" horiz-adv-x="1021" 
d="M264 944l246 -247l247 247l104 -104l-247 -247l247 -246l-104 -104l-247 246l-246 -246l-104 104l246 246l-246 247z" />
    <glyph glyph-name="Oslash" unicode="&#xd8;" horiz-adv-x="1345" 
d="M1053 783q0 236 -105 349q-18 21 -40 37l-328 -1048q53 -14 127 -14t151.5 26.5t126.5 62.5q68 212 68 454v133zM644 1246q-80 0 -159 -27.5t-124 -60.5q-69 -212 -69 -455v-133q0 -263 161 -387l328 1047q-57 16 -137 16zM1243 827v-78q0 -377 -144 -574t-436 -197
q-67 0 -126 8l-67 -216h-140v20l71 228q-299 108 -299 507v79q0 389 148 580t433 191q75 0 140 -10l55 175h140v-20l-60 -191q285 -112 285 -502z" />
    <glyph glyph-name="Ugrave" unicode="&#xd9;" horiz-adv-x="1358" 
d="M360 546q0 -223 94 -331t259 -108q79 0 148 23t110 53q78 142 78 338v700l-153 34l20 98h406l20 -98l-152 -34v-677q0 -290 -127 -428t-383 -138t-383 124t-127 389v730l-154 34l20 98h456l20 -98l-152 -34v-675zM886 1471l-115 -11l-375 248v66l192 10l298 -281v-32z
" />
    <glyph glyph-name="Uacute" unicode="&#xda;" horiz-adv-x="1358" 
d="M360 546q0 -223 94 -331t259 -108q79 0 148 23t110 53q78 142 78 338v700l-153 34l20 98h406l20 -98l-152 -34v-677q0 -290 -127 -428t-383 -138t-383 124t-127 389v730l-154 34l20 98h456l20 -98l-152 -34v-675zM564 1503l298 281l192 -10v-66l-375 -248l-115 11v32z
" />
    <glyph glyph-name="Ucircumflex" unicode="&#xdb;" horiz-adv-x="1358" 
d="M360 546q0 -223 94 -331t259 -108q79 0 148 23t110 53q78 142 78 338v700l-153 34l20 98h406l20 -98l-152 -34v-677q0 -290 -127 -428t-383 -138t-383 124t-127 389v730l-154 34l20 98h456l20 -98l-152 -34v-675zM1062 1470l-125 -10l-238 192l-231 -192l-95 10v32
l283 292l133 -10l273 -282v-32z" />
    <glyph glyph-name="Udieresis" unicode="&#xdc;" horiz-adv-x="1358" 
d="M360 546q0 -223 94 -331t259 -108q79 0 148 23t110 53q78 142 78 338v700l-153 34l20 98h406l20 -98l-152 -34v-677q0 -290 -127 -428t-383 -138t-383 124t-127 389v730l-154 34l20 98h456l20 -98l-152 -34v-675zM855 1669q26 38 57 38q57 0 94 -26q36 -26 36 -57
q0 -57 -27 -95q-27 -37 -57 -37q-31 0 -54 7q-24 7 -40 19q-36 27 -35 70q0 43 26 81zM396 1670q27 37 57 37q58 0 93 -26q36 -26 36 -57q0 -56 -26 -94t-57 -38t-54 7t-40 19q-36 26 -36 71q0 44 27 81z" />
    <glyph glyph-name="Yacute" unicode="&#xdd;" horiz-adv-x="1122" 
d="M478 578l-416 648l-114 28l20 99h410l20 -99l-132 -28l321 -504h16l304 504l-125 28l20 99h352l20 -99l-111 -28l-395 -650v-444l152 -34l-20 -98h-455l-20 98l153 34v446zM453 1503l298 281l192 -10v-66l-375 -248l-115 11v32z" />
    <glyph glyph-name="Thorn" unicode="&#xde;" horiz-adv-x="1098" 
d="M826 707q0 236 -291 236h-120v-454h150q133 0 230 38q31 97 31 180zM583 1072q437 0 437 -325q0 -181 -119 -284t-295 -103h-191v-228l212 -34l-20 -98h-515l-20 98l153 34v1089l-153 34l20 98h455l20 -98l-152 -34v-149h168z" />
    <glyph glyph-name="germandbls" unicode="&#xdf;" horiz-adv-x="1289" 
d="M672 1562q382 0 382 -322q0 -188 -91.5 -287t-142.5 -144q160 -95 272 -215.5t112 -278.5t-98 -247.5t-269 -89.5t-297 70v231l111 10l46 -168q53 -23 153.5 -23t151.5 34q22 51 22 108q0 100 -63 211.5t-330 271.5v65q187 165 215 266.5t28 160.5q0 227 -215 227
q-117 0 -199 -47q-21 -81 -21 -260v-1135h-313l-20 98l153 34v821l-163 34l20 98h143v64q0 298 160.5 355.5t252.5 57.5z" />
    <glyph glyph-name="agrave" unicode="&#xe0;" horiz-adv-x="1150" 
d="M759 487q-310 0 -443 -72q-28 -65 -28 -144t55 -126t137 -47t155 38t124 89v262zM108 237q0 370 651 370v95q-1 150 -55 218t-190 67q-75 0 -150 -15l-60 -212l-98 10v283q154 54 343 54q390 0 390 -372v-603l173 -34l-20 -98l-255 -22l-58 177q-145 -177 -360 -177
q-139 0 -225 70t-86 189zM655 1275l-118 -10l-290 329v66l175 10l233 -363v-32z" />
    <glyph glyph-name="aacute" unicode="&#xe1;" horiz-adv-x="1150" 
d="M759 487q-310 0 -443 -72q-28 -65 -28 -144t55 -126t137 -47t155 38t124 89v262zM108 237q0 370 651 370v95q-1 150 -55 218t-190 67q-75 0 -150 -15l-60 -212l-98 10v283q154 54 343 54q390 0 390 -372v-603l173 -34l-20 -98l-255 -22l-58 177q-145 -177 -360 -177
q-139 0 -225 70t-86 189zM470 1307l203 363l182 -10v-66l-280 -329l-105 10v32z" />
    <glyph glyph-name="acircumflex" unicode="&#xe2;" horiz-adv-x="1150" 
d="M759 487q-310 0 -443 -72q-28 -65 -28 -144t55 -126t137 -47t155 38t124 89v262zM108 237q0 370 651 370v95q-1 150 -55 218t-190 67q-75 0 -150 -15l-60 -212l-98 10v283q154 54 343 54q390 0 390 -372v-603l173 -34l-20 -98l-255 -22l-58 177q-145 -177 -360 -177
q-139 0 -225 70t-86 189zM852 1275l-125 -10l-193 252l-186 -252l-95 10v32l233 373l133 -10l233 -363v-32z" />
    <glyph glyph-name="atilde" unicode="&#xe3;" horiz-adv-x="1150" 
d="M759 487q-310 0 -443 -72q-28 -65 -28 -144t55 -126t137 -47t155 38t124 89v262zM108 237q0 370 651 370v95q-1 150 -55 218t-190 67q-75 0 -150 -15l-60 -212l-98 10v283q154 54 343 54q390 0 390 -372v-603l173 -34l-20 -98l-255 -22l-58 177q-145 -177 -360 -177
q-139 0 -225 70t-86 189zM751 1404q83 0 83 120l117 10v-47q1 -105 -53 -167t-141 -62t-233 66q-147 66 -173 66q-50 0 -71 -21t-21 -77l-109 -10v25q0 113 58 171t152 58t226 -66q50 -26 93 -46t72 -20z" />
    <glyph glyph-name="adieresis" unicode="&#xe4;" horiz-adv-x="1150" 
d="M759 487q-310 0 -443 -72q-28 -65 -28 -144t55 -126t137 -47t155 38t124 89v262zM108 237q0 370 651 370v95q-1 150 -55 218t-190 67q-75 0 -150 -15l-60 -212l-98 10v283q154 54 343 54q390 0 390 -372v-603l173 -34l-20 -98l-255 -22l-58 177q-145 -177 -360 -177
q-139 0 -225 70t-86 189zM658 1472q26 38 57 38q58 0 94 -26t36 -58q0 -56 -27 -94q-27 -37 -57 -37q-31 0 -54 7q-23 8 -39 20q-36 27 -36 69q0 43 26 81zM259 1473q27 37 57 37q58 0 94 -27q35 -27 35 -57q0 -55 -26 -93t-57 -38t-54 7q-23 8 -40 20q-36 26 -36 70t27 81z
" />
    <glyph glyph-name="aring" unicode="&#xe5;" horiz-adv-x="1150" 
d="M759 487q-310 0 -443 -72q-28 -65 -28 -144t55 -126t137 -47t155 38t124 89v262zM108 237q0 370 651 370v95q-1 150 -55 218t-190 67q-75 0 -150 -15l-60 -212l-98 10v283q154 54 343 54q390 0 390 -372v-603l173 -34l-20 -98l-255 -22l-58 177q-145 -177 -360 -177
q-139 0 -225 70t-86 189zM500 1374q28 -36 56 -36q57 0 95 19q9 50 9 95q0 74 -28 110t-64 36t-77 -19q-19 -32 -19 -101q0 -68 28 -104zM367 1444q0 105 60 165q60 61 149 61q129 0 173 -93q15 -31 15 -85q0 -110 -58 -169q-58 -58 -150 -58q-130 1 -174 95q-15 32 -15 84z
" />
    <glyph glyph-name="ae" unicode="&#xe6;" horiz-adv-x="1621" 
d="M1367 643q0 263 -72.5 303.5t-121.5 40.5q-113 0 -194 -60q-44 -113 -57 -284h445zM642 149q77 51 118 97q-21 73 -21 168v73q-311 0 -433 -72q-28 -60 -28 -124t16 -97.5t55 -64.5t128 -31q88 0 165 51zM409 -22q-143 0 -227 68.5t-84 190.5q0 370 641 370v95
q0 140 -43 253q-87 32 -167 32t-175 -15l-60 -212l-98 10v283q133 54 303 54q269 0 363 -159q121 159 327 159q207 0 287.5 -111t80.5 -353v-120h-638v-76q0 -177 91 -263t202 -86q152 0 292 65v-96q-147 -89 -347 -89q-277 0 -371 200q-86 -126 -194 -163t-183 -37z" />
    <glyph glyph-name="ccedilla" unicode="&#xe7;" horiz-adv-x="972" 
d="M352 -317q98 -40 166 -40t97 13q14 33 14 69q0 61 -161 99l-34 55l39 103q-161 15 -259 104q-118 109 -118 313v93q0 296 126.5 455.5t349.5 159.5q160 0 305 -63l19 -234l-110 -23l-69 179q-71 21 -141 21q-136 0 -240 -60q-60 -164 -60 -375v-109q0 -160 93 -252.5
t229 -92.5t290 73v-96q-127 -79 -282 -94l-28 -79q94 -25 128.5 -52.5t49 -56t14.5 -89.5t-61.5 -111t-162.5 -50q-100 0 -194 47v93z" />
    <glyph glyph-name="egrave" unicode="&#xe8;" horiz-adv-x="1034" 
d="M764 643q0 182 -52 263t-169 81q-59 0 -116 -18t-91 -42q-47 -121 -57 -284h485zM96 414v83q0 287 128 449t338 161q212 1 302 -103t90 -361v-120h-678v-76q0 -169 92 -259t236 -90q143 0 297 65v-96q-168 -89 -373 -89q-204 0 -318 112t-114 324zM677 1275l-118 -10
l-290 329v66l175 10l233 -363v-32z" />
    <glyph glyph-name="eacute" unicode="&#xe9;" horiz-adv-x="1034" 
d="M764 643q0 182 -52 263t-169 81q-59 0 -116 -18t-91 -42q-47 -121 -57 -284h485zM96 414v83q0 287 128 449t338 161q212 1 302 -103t90 -361v-120h-678v-76q0 -169 92 -259t236 -90q143 0 297 65v-96q-168 -89 -373 -89q-204 0 -318 112t-114 324zM492 1307l203 363
l182 -10v-66l-280 -329l-105 10v32z" />
    <glyph glyph-name="ecircumflex" unicode="&#xea;" horiz-adv-x="1034" 
d="M764 643q0 182 -52 263t-169 81q-59 0 -116 -18t-91 -42q-47 -121 -57 -284h485zM96 414v83q0 287 128 449t338 161q212 1 302 -103t90 -361v-120h-678v-76q0 -169 92 -259t236 -90q143 0 297 65v-96q-168 -89 -373 -89q-204 0 -318 112t-114 324zM874 1275l-125 -10
l-193 252l-186 -252l-95 10v32l233 373l133 -10l233 -363v-32z" />
    <glyph glyph-name="edieresis" unicode="&#xeb;" horiz-adv-x="1034" 
d="M764 643q0 182 -52 263t-169 81q-59 0 -116 -18t-91 -42q-47 -121 -57 -284h485zM96 414v83q0 287 128 449t338 161q212 1 302 -103t90 -361v-120h-678v-76q0 -169 92 -259t236 -90q143 0 297 65v-96q-168 -89 -373 -89q-204 0 -318 112t-114 324zM680 1472q26 38 57 38
q58 0 94 -26t36 -58q0 -56 -27 -94q-27 -37 -57 -37q-31 0 -54 7q-23 8 -39 20q-36 27 -36 69q0 43 26 81zM281 1473q27 37 57 37q58 0 94 -27q35 -27 35 -57q0 -55 -26 -93t-57 -38t-54 7q-23 8 -40 20q-36 26 -36 70t27 81z" />
    <glyph glyph-name="igrave" unicode="&#xec;" horiz-adv-x="660" 
d="M439 132l153 -34l-20 -98h-446l-20 98l153 34v821l-153 34l20 98l313 22v-975zM420 1275l-118 -10l-290 329v66l175 10l233 -363v-32z" />
    <glyph glyph-name="iacute" unicode="&#xed;" horiz-adv-x="660" 
d="M439 132l153 -34l-20 -98h-446l-20 98l153 34v821l-153 34l20 98l313 22v-975zM235 1307l203 363l182 -10v-66l-280 -329l-105 10v32z" />
    <glyph glyph-name="icircumflex" unicode="&#xee;" horiz-adv-x="660" 
d="M439 132l153 -34l-20 -98h-446l-20 98l153 34v821l-153 34l20 98l313 22v-975zM617 1275l-125 -10l-193 252l-186 -252l-95 10v32l233 373l133 -10l233 -363v-32z" />
    <glyph glyph-name="idieresis" unicode="&#xef;" horiz-adv-x="660" 
d="M439 132l153 -34l-20 -98h-446l-20 98l153 34v821l-153 34l20 98l313 22v-975zM423 1472q26 38 57 38q58 0 94 -26t36 -58q0 -56 -27 -94q-27 -37 -57 -37q-31 0 -54 7q-24 8 -40 20q-36 27 -35 69q0 43 26 81zM24 1473q27 37 57 37q58 0 94 -27q35 -27 35 -57
q0 -55 -26 -93t-57 -38t-54 7q-23 8 -40 20q-36 26 -36 70t27 81z" />
    <glyph glyph-name="eth" unicode="&#xf0;" horiz-adv-x="1114" 
d="M838 622q0 199 -88 282t-209 83t-205 -60q-60 -131 -60 -355v-119q0 -177 89 -266t203 -89t210 60q60 120 60 345v119zM1018 656v-94q0 -258 -122.5 -421t-346.5 -163t-338.5 117.5t-114.5 323.5v93q0 281 128 438t333 157q104 0 178 -52q-46 120 -150 240l-252 -120
l-39 84l224 106q-101 97 -225 175l149 22q112 -54 209 -134l235 112l39 -83l-201 -96q235 -238 264.5 -443t29.5 -262z" />
    <glyph glyph-name="ntilde" unicode="&#xf1;" horiz-adv-x="1346" 
d="M768 1107q193 1 278 -93t85 -288v-594l153 -34l-20 -98h-446l-20 98l153 34v550q1 153 -49 229t-185 76t-278 -129v-726l153 -34l-20 -98h-446l-20 98l153 34v821l-153 34l20 98l235 22l58 -178q156 178 349 178zM908 1404q83 0 83 120l117 10v-47q0 -105 -54 -167
t-140 -62q-88 0 -234 66q-147 66 -172 66q-50 0 -71 -21t-21 -77l-109 -10v25q1 113 59 171t151 58t225 -66q50 -26 94 -46q43 -20 72 -20z" />
    <glyph glyph-name="ograve" unicode="&#xf2;" horiz-adv-x="1114" 
d="M838 622q0 170 -78 266t-208 98q-129 2 -216 -59q-60 -136 -60 -355v-119q0 -167 86 -261t203 -94q116 0 213 60q60 126 60 345v119zM548 -22q-218 0 -336 116q-116 116 -116 325v93q0 276 126 436t340 159q212 -1 334 -117t122 -334v-94q0 -264 -126 -424t-344 -160z
M671 1275l-118 -10l-290 329v66l175 10l233 -363v-32z" />
    <glyph glyph-name="oacute" unicode="&#xf3;" horiz-adv-x="1114" 
d="M838 622q0 170 -78 266t-208 98q-129 2 -216 -59q-60 -136 -60 -355v-119q0 -167 86 -261t203 -94q116 0 213 60q60 126 60 345v119zM548 -22q-218 0 -336 116q-116 116 -116 325v93q0 276 126 436t340 159q212 -1 334 -117t122 -334v-94q0 -264 -126 -424t-344 -160z
M486 1307l203 363l182 -10v-66l-280 -329l-105 10v32z" />
    <glyph glyph-name="ocircumflex" unicode="&#xf4;" horiz-adv-x="1114" 
d="M838 622q0 170 -78 266t-208 98q-129 2 -216 -59q-60 -136 -60 -355v-119q0 -167 86 -261t203 -94q116 0 213 60q60 126 60 345v119zM548 -22q-218 0 -336 116q-116 116 -116 325v93q0 276 126 436t340 159q212 -1 334 -117t122 -334v-94q0 -264 -126 -424t-344 -160z
M868 1275l-125 -10l-193 252l-186 -252l-95 10v32l233 373l133 -10l233 -363v-32z" />
    <glyph glyph-name="otilde" unicode="&#xf5;" horiz-adv-x="1114" 
d="M838 622q0 170 -78 266t-208 98q-129 2 -216 -59q-60 -136 -60 -355v-119q0 -167 86 -261t203 -94q116 0 213 60q60 126 60 345v119zM548 -22q-218 0 -336 116q-116 116 -116 325v93q0 276 126 436t340 159q212 -1 334 -117t122 -334v-94q0 -264 -126 -424t-344 -160z
M766 1404q83 0 83 120l117 10v-47q0 -105 -54 -167t-140 -62q-88 0 -234 66q-147 66 -172 66q-50 0 -71 -21t-21 -77l-109 -10v25q1 113 59 171t151 58t225 -66q50 -26 94 -46q43 -20 72 -20z" />
    <glyph glyph-name="odieresis" unicode="&#xf6;" horiz-adv-x="1114" 
d="M838 622q0 170 -78 266t-208 98q-129 2 -216 -59q-60 -136 -60 -355v-119q0 -167 86 -261t203 -94q116 0 213 60q60 126 60 345v119zM548 -22q-218 0 -336 116q-116 116 -116 325v93q0 276 126 436t340 159q212 -1 334 -117t122 -334v-94q0 -264 -126 -424t-344 -160z
M674 1472q26 38 57 38q58 0 94 -26t36 -58q0 -56 -27 -94q-27 -37 -57 -37q-31 0 -54 7q-23 8 -39 20q-36 27 -36 69q0 43 26 81zM275 1473q27 37 57 37q58 0 94 -27q35 -27 35 -57q0 -55 -26 -93t-57 -38t-54 7q-23 8 -40 20q-36 26 -36 70t27 81z" />
    <glyph glyph-name="divide" unicode="&#xf7;" horiz-adv-x="1173" 
d="M511 1044q24 41 55 41q60 0 99.5 -24.5t39.5 -55.5q0 -57 -24 -98t-55 -41q-32 0 -56.5 6.5t-53.5 23.5t-29 62t24 86zM511 279q24 41 55 41q60 0 99.5 -24.5t39.5 -55.5q0 -57 -24 -98t-55 -41q-32 0 -56.5 6.5t-53.5 23.5t-29 62t24 86zM160 667h853v-147h-853v147z
" />
    <glyph glyph-name="oslash" unicode="&#xf8;" horiz-adv-x="1114" 
d="M276 572v-119q0 -176 94 -270l247 794q-94 23 -169.5 -1t-111.5 -49q-60 -136 -60 -355zM838 622q0 171 -79 266q-13 17 -29 30l-251 -805q45 -15 97 -15q106 0 202 60q60 126 60 345v119zM1018 656v-94q0 -265 -126 -424.5t-345 -159.5q-58 0 -108 8l-66 -212h-125v20
l71 227q-223 102 -223 398v93q0 276 126.5 435.5t334.5 159.5q52 0 99 -7l66 211h125v-20l-70 -223q241 -103 241 -412z" />
    <glyph glyph-name="ugrave" unicode="&#xf9;" horiz-adv-x="1262" 
d="M191 359v594l-153 34l20 98l313 22v-704q0 -157 55 -231t196 -74t261 127v728l-183 34l20 98l343 22v-975l153 -34l-20 -98l-235 -22l-58 178q-152 -178 -371 -178q-341 0 -341 381zM712 1275l-118 -10l-290 329v66l175 10l233 -363v-32z" />
    <glyph glyph-name="uacute" unicode="&#xfa;" horiz-adv-x="1262" 
d="M191 359v594l-153 34l20 98l313 22v-704q0 -157 55 -231t196 -74t261 127v728l-183 34l20 98l343 22v-975l153 -34l-20 -98l-235 -22l-58 178q-152 -178 -371 -178q-341 0 -341 381zM527 1307l203 363l182 -10v-66l-280 -329l-105 10v32z" />
    <glyph glyph-name="ucircumflex" unicode="&#xfb;" horiz-adv-x="1262" 
d="M191 359v594l-153 34l20 98l313 22v-704q0 -157 55 -231t196 -74t261 127v728l-183 34l20 98l343 22v-975l153 -34l-20 -98l-235 -22l-58 178q-152 -178 -371 -178q-341 0 -341 381zM909 1275l-125 -10l-193 252l-186 -252l-95 10v32l233 373l133 -10l233 -363v-32z" />
    <glyph glyph-name="udieresis" unicode="&#xfc;" horiz-adv-x="1262" 
d="M191 359v594l-153 34l20 98l313 22v-704q0 -157 55 -231t196 -74t261 127v728l-183 34l20 98l343 22v-975l153 -34l-20 -98l-235 -22l-58 178q-152 -178 -371 -178q-341 0 -341 381zM715 1472q26 38 57 38q58 0 94 -26t36 -58q0 -56 -27 -94q-27 -37 -57 -37q-31 0 -54 7
q-24 8 -40 20q-36 27 -35 69q0 43 26 81zM316 1473q27 37 57 37q58 0 94 -27q35 -27 35 -57q0 -55 -26 -93t-57 -38t-54 7q-23 8 -40 20q-36 26 -36 70t27 81z" />
    <glyph glyph-name="yacute" unicode="&#xfd;" horiz-adv-x="1106" 
d="M490 -352q-88 -105 -212 -105q-125 0 -230 47l36 131q140 -51 270 -51q87 60 140 205l-407 1093l-97 19l20 98h370l20 -98l-125 -19l295 -836h16l296 836l-125 19l20 98h325l20 -98l-97 -19l-357 -966q-90 -249 -178 -354zM508 1307l203 363l182 -10v-66l-280 -329
l-105 10v32z" />
    <glyph glyph-name="thorn" unicode="&#xfe;" horiz-adv-x="1134" 
d="M337 125q108 -27 214 -27q152 0 250 60q57 157 57 345v119q0 286 -102.5 325.5t-170 39.5t-167.5 -65q-43 -28 -81 -64v-733zM665 1107q268 0 320.5 -165.5t52.5 -285.5v-94q0 -268 -120.5 -426t-337.5 -158q-107 0 -243 25v-305l153 -34l-20 -99h-446l-20 99l153 34
v1710l-153 34l20 98l313 22v-610q142 155 328 155z" />
    <glyph glyph-name="ydieresis" unicode="&#xff;" horiz-adv-x="1106" 
d="M490 -352q-88 -105 -212 -105q-125 0 -230 47l36 131q140 -51 270 -51q87 60 140 205l-407 1093l-97 19l20 98h370l20 -98l-125 -19l295 -836h16l296 836l-125 19l20 98h325l20 -98l-97 -19l-357 -966q-90 -249 -178 -354zM696 1472q26 38 57 38q58 0 94 -26t36 -58
q0 -56 -27 -94q-27 -37 -57 -37q-31 0 -54 7q-23 8 -39 20q-36 27 -36 69q0 43 26 81zM297 1473q27 37 57 37q58 0 94 -27q35 -27 35 -57q0 -55 -26 -93t-57 -38t-54 7q-23 8 -40 20q-36 26 -36 70t27 81z" />
    <glyph glyph-name="Amacron" unicode="&#x100;" horiz-adv-x="1218" 
d="M389 535h402l-194 569h-10zM-8 98l108 29l440 1226h149l429 -1226l108 -29l-20 -98h-385l-20 98l128 29l-94 279h-491l-96 -279l128 -29l-20 -98h-344zM254 1660h771l-20 -120h-770z" />
    <glyph glyph-name="amacron" unicode="&#x101;" horiz-adv-x="1150" 
d="M759 487q-310 0 -443 -72q-28 -65 -28 -144t55 -126t137 -47t155 38t124 89v262zM108 237q0 370 651 370v95q-1 150 -55 218t-190 67q-75 0 -150 -15l-60 -212l-98 10v283q154 54 343 54q390 0 390 -372v-603l173 -34l-20 -98l-255 -22l-58 177q-145 -177 -360 -177
q-139 0 -225 70t-86 189zM216 1473h711l-20 -120h-710z" />
    <glyph glyph-name="Abreve" unicode="&#x102;" horiz-adv-x="1218" 
d="M389 535h402l-194 569h-10zM-8 98l108 29l440 1226h149l429 -1226l108 -29l-20 -98h-385l-20 98l128 29l-94 279h-491l-96 -279l128 -29l-20 -98h-344zM612 1472q-151 0 -243 85q-93 85 -93 192l97 10q-1 -44 39 -82q40 -37 86 -56t114 -19q120 0 179 56q60 56 60 101
l97 -10q0 -107 -93 -192q-92 -85 -243 -85z" />
    <glyph glyph-name="abreve" unicode="&#x103;" horiz-adv-x="1150" 
d="M759 487q-310 0 -443 -72q-28 -65 -28 -144t55 -126t137 -47t155 38t124 89v262zM108 237q0 370 651 370v95q-1 150 -55 218t-190 67q-75 0 -150 -15l-60 -212l-98 10v283q154 54 343 54q390 0 390 -372v-603l173 -34l-20 -98l-255 -22l-58 177q-145 -177 -360 -177
q-139 0 -225 70t-86 189zM547 1295q-133 0 -219 91q-87 91 -87 206l97 10q0 -47 38 -91q38 -43 76 -65q40 -22 95 -21q97 0 153 65t56 112l97 -10q0 -115 -87 -206q-86 -91 -219 -91z" />
    <glyph glyph-name="Aogonek" unicode="&#x104;" horiz-adv-x="1218" 
d="M389 535h402l-194 569h-10zM858 -357q65 0 160 80v-93q-84 -87 -210 -87q-79 0 -118.5 28.5t-39.5 98.5q0 178 202 353q44 37 89 71l-106 312h-491l-96 -279l128 -29l-20 -98h-344l-20 98l108 29l440 1226h149l429 -1226l108 -29l-20 -98h-233q-81 -58 -131.5 -139
t-50.5 -136t18 -68.5t49 -13.5z" />
    <glyph glyph-name="aogonek" unicode="&#x105;" horiz-adv-x="1150" 
d="M759 487q-310 0 -443 -72q-28 -65 -28 -144t55 -126t137 -47t155 37.5t124 89.5v262zM549 1107q390 0 390 -372v-603l173 -34l-20 -98q-81 -58 -131.5 -139t-50.5 -136t18 -68.5t49 -13.5q65 0 160 80v-93q-84 -87 -210 -87q-79 0 -118.5 29t-39.5 104q0 164 178 312
l-110 -10l-58 177q-145 -177 -360 -177q-140 0 -225.5 70t-85.5 189q0 370 651 370v95q0 150 -54.5 217.5t-190.5 67.5q-75 0 -150 -15l-60 -212l-98 10v283q154 54 343 54z" />
    <glyph glyph-name="Cacute" unicode="&#x106;" horiz-adv-x="1176" 
d="M100 515v89q0 381 154 576t451 195q212 0 363 -59l21 -270l-105 -22l-83 195q-85 27 -197 27q-203 0 -325 -88q-41 -92 -65 -220t-24 -255v-133q0 -214 118 -328t310 -115q193 0 374 104v-106q-197 -127 -429 -127q-563 0 -563 537zM537 1503l298 281l192 -10v-66
l-375 -248l-115 11v32z" />
    <glyph glyph-name="cacute" unicode="&#x107;" horiz-adv-x="972" 
d="M96 399v93q0 296 126 456t350 159q160 0 305 -63l19 -234l-110 -23l-69 179q-71 21 -141 21q-136 0 -240 -60q-60 -164 -60 -375v-109q0 -161 93 -253t229 -92t290 73v-96q-156 -97 -355 -97q-201 0 -319 108t-118 313zM495 1307l203 363l182 -10v-66l-280 -329l-105 10
v32z" />
    <glyph glyph-name="Ccircumflex" unicode="&#x108;" horiz-adv-x="1176" 
d="M100 515v89q0 381 154 576t451 195q212 0 363 -59l21 -270l-105 -22l-83 195q-85 27 -197 27q-203 0 -325 -88q-41 -92 -65 -220t-24 -255v-133q0 -214 118 -328t310 -115q193 0 374 104v-106q-197 -127 -429 -127q-563 0 -563 537zM1035 1470l-125 -10l-238 192
l-231 -192l-95 10v32l283 292l133 -10l273 -282v-32z" />
    <glyph glyph-name="ccircumflex" unicode="&#x109;" horiz-adv-x="972" 
d="M96 399v93q0 296 126 456t350 159q160 0 305 -63l19 -234l-110 -23l-69 179q-71 21 -141 21q-136 0 -240 -60q-60 -164 -60 -375v-109q0 -161 93 -253t229 -92t290 73v-96q-156 -97 -355 -97q-201 0 -319 108t-118 313zM877 1275l-125 -10l-193 252l-186 -252l-95 10v32
l233 373l133 -10l233 -363v-32z" />
    <glyph glyph-name="Cdotaccent" unicode="&#x10a;" horiz-adv-x="1176" 
d="M100 515v89q0 381 154 576t451 195q212 0 363 -59l21 -270l-105 -22l-83 195q-85 27 -197 27q-203 0 -325 -88q-41 -92 -65 -220t-24 -255v-133q0 -214 118 -328t310 -115q193 0 374 104v-106q-197 -127 -429 -127q-563 0 -563 537zM598 1696q29 41 64 41q63 -1 103 -29
t40 -63q0 -63 -29 -104t-64 -41q-34 0 -59 8t-44 22q-40 28 -40 76q0 49 29 90z" />
    <glyph glyph-name="cdotaccent" unicode="&#x10b;" horiz-adv-x="972" 
d="M96 399v93q0 296 126 456t350 159q160 0 305 -63l19 -234l-110 -23l-69 179q-71 21 -141 21q-136 0 -240 -60q-60 -164 -60 -375v-109q0 -161 93 -253t229 -92t290 73v-96q-156 -97 -355 -97q-201 0 -319 108t-118 313zM498 1499q29 41 64 41q63 0 103 -28t40 -64
q0 -63 -29 -104t-64 -41q-34 0 -59 8q-25 7 -44 21q-40 28 -40 77t29 90z" />
    <glyph glyph-name="Ccaron" unicode="&#x10c;" horiz-adv-x="1176" 
d="M100 515v89q0 381 154 576t451 195q212 0 363 -59l21 -270l-105 -22l-83 195q-85 27 -197 27q-203 0 -325 -88q-41 -92 -65 -220t-24 -255v-133q0 -214 118 -328t310 -115q193 0 374 104v-106q-197 -127 -429 -127q-563 0 -563 537zM336 1784l125 10l238 -192l231 192
l95 -10v-32l-283 -292l-133 10l-273 282v32z" />
    <glyph glyph-name="ccaron" unicode="&#x10d;" horiz-adv-x="972" 
d="M96 399v93q0 296 126 456t350 159q160 0 305 -63l19 -234l-110 -23l-69 179q-71 21 -141 21q-136 0 -240 -60q-60 -164 -60 -375v-109q0 -161 93 -253t229 -92t290 73v-96q-156 -97 -355 -97q-201 0 -319 108t-118 313zM281 1660l125 10l193 -252l186 252l95 -10v-32
l-233 -373l-133 10l-233 363v32z" />
    <glyph glyph-name="Dcaron" unicode="&#x10e;" horiz-adv-x="1362" 
d="M421 1224v-1095h211q156 0 278 49q62 77 104 195t42 249v94q0 240 -116 374t-341 134h-178zM638 1353q302 1 455 -151t153 -437v-78q0 -319 -155 -503t-430 -184h-563l-20 98l153 34v1089l-153 34l20 98h540zM234 1784l125 10l238 -192l231 192l95 -10v-32l-283 -292
l-133 10l-273 282v32z" />
    <glyph glyph-name="dcaron" unicode="&#x10f;" horiz-adv-x="1186" 
d="M278 553v-119q0 -164 70 -250t187 -86q73 0 145 40t119 87v735q-130 27 -219 27q-156 0 -252 -67q-50 -163 -50 -367zM98 413v93q0 281 126 441t352 160q90 0 223 -24v325l-153 34l20 98l313 22v-1430l153 -34l-20 -98l-235 -22l-58 177q-139 -181 -339 -177
q-178 0 -280 112t-102 323zM1123 1540h166v-42l-63 -341h-103v383z" />
    <glyph glyph-name="Dcroat" unicode="&#x110;" horiz-adv-x="1362" 
d="M421 1224v-466h290v-129h-290v-500h211q152 0 278 49q40 52 70 115q76 160 76 329v94q0 369 -170.5 438.5t-286.5 69.5h-178zM78 758h153v463l-153 34l20 98h540q456 0 532 -224.5t76 -363.5v-78q0 -317 -155 -502t-430 -185h-563l-20 98l153 34v497h-153v129z" />
    <glyph glyph-name="dcroat" unicode="&#x111;" horiz-adv-x="1186" 
d="M278 553v-119q0 -175 73.5 -255.5t196.5 -80.5q124 0 251 127v735q-129 27 -213 27q-161 0 -258 -67q-50 -157 -50 -367zM564 1107q105 0 235 -24v150h-360v100h360v75l-153 34l20 98l313 22v-229h153v-100h-153v-1101l153 -34l-20 -98l-235 -22l-58 177
q-138 -177 -339 -177q-271 0 -326.5 162t-55.5 273v93q0 278 91 397t180.5 161.5t194.5 42.5z" />
    <glyph glyph-name="Emacron" unicode="&#x112;" horiz-adv-x="1191" 
d="M419 643v-514h481l83 193l104 -23l-24 -299h-967l-20 98l153 34v1089l-153 34l20 98h937l24 -300l-103 -22l-83 193h-452v-452h357l34 122l99 -20v-334l-99 -20l-34 123h-357zM229 1660h771l-20 -120h-770z" />
    <glyph glyph-name="emacron" unicode="&#x113;" horiz-adv-x="1034" 
d="M764 643q0 182 -52 263t-169 81q-59 0 -116 -18t-91 -42q-47 -121 -57 -284h485zM96 414v83q0 287 128 449t338 161q212 1 302 -103t90 -361v-120h-678v-76q0 -169 92 -259t236 -90q143 0 297 65v-96q-168 -89 -373 -89q-204 0 -318 112t-114 324zM238 1473h711l-20 -120
h-710z" />
    <glyph glyph-name="Ebreve" unicode="&#x114;" horiz-adv-x="1191" 
d="M419 643v-514h481l83 193l104 -23l-24 -299h-967l-20 98l153 34v1089l-153 34l20 98h937l24 -300l-103 -22l-83 193h-452v-452h357l34 122l99 -20v-334l-99 -20l-34 123h-357zM587 1472q-151 0 -243 85q-93 85 -93 192l97 10q0 -44 40 -82q40 -37 85 -56q46 -19 114 -19
q120 0 179 56q60 56 60 101l97 -10q0 -107 -93 -192q-92 -85 -243 -85z" />
    <glyph glyph-name="ebreve" unicode="&#x115;" horiz-adv-x="1034" 
d="M764 643q0 182 -52 263t-169 81q-59 0 -116 -18t-91 -42q-47 -121 -57 -284h485zM96 414v83q0 287 128 449t338 161q212 1 302 -103t90 -361v-120h-678v-76q0 -169 92 -259t236 -90q143 0 297 65v-96q-168 -89 -373 -89q-204 0 -318 112t-114 324zM569 1295
q-133 0 -219 91q-87 91 -87 206l97 10q0 -47 38 -91q38 -43 76 -65q40 -22 95 -21q97 0 153 65t56 112l97 -10q0 -115 -87 -206q-86 -91 -219 -91z" />
    <glyph glyph-name="Edotaccent" unicode="&#x116;" horiz-adv-x="1191" 
d="M419 643v-514h481l83 193l104 -23l-24 -299h-967l-20 98l153 34v1089l-153 34l20 98h937l24 -300l-103 -22l-83 193h-452v-452h357l34 122l99 -20v-334l-99 -20l-34 123h-357zM508 1696q29 41 64 41q63 -1 103 -29t40 -63q0 -63 -29 -104t-64 -41q-34 0 -59 8t-44 22
q-40 28 -40 76q0 49 29 90z" />
    <glyph glyph-name="edotaccent" unicode="&#x117;" horiz-adv-x="1034" 
d="M764 643q0 182 -52 263t-169 81q-59 0 -116 -18t-91 -42q-47 -121 -57 -284h485zM96 414v83q0 287 128 449t338 161q212 1 302 -103t90 -361v-120h-678v-76q0 -169 92 -259t236 -90q143 0 297 65v-96q-168 -89 -373 -89q-204 0 -318 112t-114 324zM495 1499q29 41 64 41
q63 0 103 -28t40 -64q0 -63 -29 -104t-64 -41q-34 0 -59 8q-25 7 -44 21q-40 28 -40 77t29 90z" />
    <glyph glyph-name="Eogonek" unicode="&#x118;" horiz-adv-x="1191" 
d="M740 -324q0 160 176 324h-820l-20 98l153 34v1089l-153 34l20 98h937l24 -300l-103 -22l-83 193h-452v-452h357l34 122l99 -20v-334l-99 -20l-34 123h-357v-514h481l83 193l104 -23l-24 -299q-81 -58 -131.5 -139t-50.5 -136t18 -68.5t49 -13.5q65 0 160 80v-93
q-84 -87 -210 -87q-79 0 -118.5 29t-39.5 104z" />
    <glyph glyph-name="eogonek" unicode="&#x119;" horiz-adv-x="1034" 
d="M764 643q0 182 -52.5 263t-168.5 81q-59 0 -116 -18t-91 -42q-47 -121 -57 -284h485zM736 -357q65 0 160 80v-93q-84 -87 -210 -87q-79 0 -118.5 28.5t-39.5 98.5q0 149 161 324q-81 -16 -160 -16q-206 0 -319.5 112t-113.5 324v83q0 287 127 448.5t339 161.5t302 -103.5
t90 -360.5v-120h-678v-76q0 -168 92.5 -258.5t235.5 -90.5t297 65v-96q-102 -62 -167 -171.5t-65 -187.5q0 -38 18 -51.5t49 -13.5z" />
    <glyph glyph-name="Ecaron" unicode="&#x11a;" horiz-adv-x="1191" 
d="M419 643v-514h481l83 193l104 -23l-24 -299h-967l-20 98l153 34v1089l-153 34l20 98h937l24 -300l-103 -22l-83 193h-452v-452h357l34 122l99 -20v-334l-99 -20l-34 123h-357zM246 1784l125 10l238 -192l231 192l95 -10v-32l-283 -292l-133 10l-273 282v32z" />
    <glyph glyph-name="ecaron" unicode="&#x11b;" horiz-adv-x="1034" 
d="M764 643q0 182 -52 263t-169 81q-59 0 -116 -18t-91 -42q-47 -121 -57 -284h485zM96 414v83q0 287 128 449t338 161q212 1 302 -103t90 -361v-120h-678v-76q0 -169 92 -259t236 -90q143 0 297 65v-96q-168 -89 -373 -89q-204 0 -318 112t-114 324zM278 1660l125 10
l193 -252l186 252l95 -10v-32l-233 -373l-133 10l-233 363v32z" />
    <glyph glyph-name="Gcircumflex" unicode="&#x11c;" horiz-adv-x="1300" 
d="M102 505v89q0 378 158 580t454 201q213 0 363 -57l21 -270l-105 -22l-82 193q-93 27 -200 27q-200 0 -320 -88q-99 -200 -99 -475v-133q0 -211 121 -327t290 -116q98 0 199 36v361l-153 34l20 108h455l20 -108l-152 -34v-399q-207 -127 -454 -127q-248 0 -392 135
t-144 392zM1051 1470l-125 -10l-238 192l-231 -192l-95 10v32l283 292l133 -10l273 -282v-32z" />
    <glyph glyph-name="gcircumflex" unicode="&#x11d;" horiz-adv-x="1075" 
d="M747 764q0 105 -66 164t-158 59t-156 -30q-40 -103 -40 -213v-38q0 -98 71 -158t159 -60t150 30q40 75 40 208v38zM252 -215q0 -71 74 -97t204 -25q230 0 350 51q37 52 37 134q-1 82 -73 117t-250 35h-183q-159 -118 -159 -215zM547 1107q67 0 153 -22h314l18 -107h-208
l-4 -10q43 -29 75 -87t32 -121v-25q1 -167 -109 -267t-291 -100q-65 0 -119 12q-121 -112 -121 -166t71 -54h224q238 0 356 -69t119 -224q-1 -155 -139 -239t-376 -85q-238 0 -344 47t-106 151q0 132 209 268q-154 30 -154 150t173 250q-86 41 -130 111t-43 150v26
q0 196 109 304t291 107zM854 1275l-125 -10l-193 252l-186 -252l-95 10v32l233 373l133 -10l233 -363v-32z" />
    <glyph glyph-name="Gbreve" unicode="&#x11e;" horiz-adv-x="1300" 
d="M102 505v89q0 378 158 580t454 201q213 0 363 -57l21 -270l-105 -22l-82 193q-93 27 -200 27q-200 0 -320 -88q-99 -200 -99 -475v-133q0 -211 121 -327t290 -116q98 0 199 36v361l-153 34l20 108h455l20 -108l-152 -34v-399q-207 -127 -454 -127q-248 0 -392 135
t-144 392zM693 1472q-151 0 -243 85q-93 85 -93 192l97 10q0 -44 40 -82q40 -37 85 -56q46 -19 114 -19q120 0 179 56q60 56 60 101l97 -10q0 -107 -93 -192q-92 -85 -243 -85z" />
    <glyph glyph-name="gbreve" unicode="&#x11f;" horiz-adv-x="1075" 
d="M747 764q0 105 -66 164t-158 59t-156 -30q-40 -103 -40 -213v-38q0 -98 71 -158t159 -60t150 30q40 75 40 208v38zM252 -215q0 -71 74 -97t204 -25q230 0 350 51q37 52 37 134q-1 82 -73 117t-250 35h-183q-159 -118 -159 -215zM547 1107q67 0 153 -22h314l18 -107h-208
l-4 -10q43 -29 75 -87t32 -121v-25q1 -167 -109 -267t-291 -100q-65 0 -119 12q-121 -112 -121 -166t71 -54h224q238 0 356 -69t119 -224q-1 -155 -139 -239t-376 -85q-238 0 -344 47t-106 151q0 132 209 268q-154 30 -154 150t173 250q-86 41 -130 111t-43 150v26
q0 196 109 304t291 107zM549 1295q-133 0 -219 91q-87 91 -87 206l97 10q0 -47 38 -91q38 -43 76 -65q40 -22 95 -21q97 0 153 65t56 112l97 -10q0 -115 -87 -206q-86 -91 -219 -91z" />
    <glyph glyph-name="Gdotaccent" unicode="&#x120;" horiz-adv-x="1300" 
d="M102 505v89q0 378 158 580t454 201q213 0 363 -57l21 -270l-105 -22l-82 193q-93 27 -200 27q-200 0 -320 -88q-99 -200 -99 -475v-133q0 -211 121 -327t290 -116q98 0 199 36v361l-153 34l20 108h455l20 -108l-152 -34v-399q-207 -127 -454 -127q-248 0 -392 135
t-144 392zM614 1696q29 41 64 41q63 -1 103 -29t40 -63q0 -63 -29 -104t-64 -41q-34 0 -59 8t-44 22q-40 28 -40 76q0 49 29 90z" />
    <glyph glyph-name="gdotaccent" unicode="&#x121;" horiz-adv-x="1075" 
d="M747 764q0 105 -66 164t-158 59t-156 -30q-40 -103 -40 -213v-38q0 -98 71 -158t159 -60t150 30q40 75 40 208v38zM252 -215q0 -71 74 -97t204 -25q230 0 350 51q37 52 37 134q-1 82 -73 117t-250 35h-183q-159 -118 -159 -215zM547 1107q67 0 153 -22h314l18 -107h-208
l-4 -10q43 -29 75 -87t32 -121v-25q1 -167 -109 -267t-291 -100q-65 0 -119 12q-121 -112 -121 -166t71 -54h224q238 0 356 -69t119 -224q-1 -155 -139 -239t-376 -85q-238 0 -344 47t-106 151q0 132 209 268q-154 30 -154 150t173 250q-86 41 -130 111t-43 150v26
q0 196 109 304t291 107zM475 1499q29 41 64 41q63 0 103 -28t40 -64q0 -63 -29 -104t-64 -41q-34 0 -59 8q-25 7 -44 21q-40 28 -40 77t29 90z" />
    <glyph glyph-name="Gcommaaccent" unicode="&#x122;" horiz-adv-x="1300" 
d="M102 505v89q0 378 158 580t454 201q213 0 363 -57l21 -270l-105 -22l-82 193q-93 27 -200 27q-200 0 -320 -88q-99 -200 -99 -475v-133q0 -211 121 -327t290 -116q98 0 199 36v361l-153 34l20 108h455l20 -108l-152 -34v-399q-207 -127 -454 -127q-248 0 -392 135
t-144 392zM581 -128h166v-42l-63 -341h-103v383z" />
    <glyph glyph-name="gcommaaccent" unicode="&#x123;" horiz-adv-x="1075" 
d="M747 764q0 105 -66 164t-158 59t-156 -30q-40 -103 -40 -213v-38q0 -98 71 -158t159 -60t150 30q40 75 40 208v38zM252 -215q0 -71 74 -97t204 -25q230 0 350 51q37 52 37 134q-1 82 -73 117t-250 35h-183q-159 -118 -159 -215zM547 1107q67 0 153 -22h314l18 -107h-208
l-4 -10q43 -29 75 -87t32 -121v-25q1 -167 -109 -267t-291 -100q-65 0 -119 12q-121 -112 -121 -166t71 -54h224q238 0 356 -69t119 -224q-1 -155 -139 -239t-376 -85q-238 0 -344 47t-106 151q0 132 209 268q-154 30 -154 150t173 250q-86 41 -130 111t-43 150v26
q0 196 109 304t291 107zM617 1265h-166v42l63 341h103v-383z" />
    <glyph glyph-name="Hcircumflex" unicode="&#x124;" horiz-adv-x="1459" 
d="M415 778h624v443l-152 34l20 98h456l20 -98l-154 -34v-1089l154 -34l-20 -98h-456l-20 98l152 34v517h-624v-517l152 -34l-20 -98h-455l-20 98l153 34v1089l-153 34l20 98h455l20 -98l-152 -34v-443zM1086 1470l-125 -10l-238 192l-231 -192l-95 10v32l283 292l133 -10
l273 -282v-32z" />
    <glyph glyph-name="hcircumflex" unicode="&#x125;" horiz-adv-x="1324" 
d="M750 1107q190 0 274 -94t84 -287v-594l153 -34l-20 -98h-446l-20 98l153 34v560q0 159 -54 227t-172 68q-76 0 -154 -43t-132 -106v-706l153 -34l-20 -98h-446l-20 98l153 34v1276l-153 34l20 98l313 22v-615l14 -6q131 166 320 166zM649 1680l-125 -10l-238 192
l-231 -192l-95 10v32l283 292l133 -10l273 -282v-32z" />
    <glyph glyph-name="Hbar" unicode="&#x126;" horiz-adv-x="1459" 
d="M1039 778v178h-624v-178h624zM84 1085h141v136l-153 34l20 98h455l20 -98l-152 -34v-136h624v136l-152 34l20 98h456l20 -98l-154 -34v-136h166v-129h-166v-824l154 -34l-20 -98h-456l-20 98l152 34v517h-624v-517l152 -34l-20 -98h-455l-20 98l153 34v824h-141v129z" />
    <glyph glyph-name="hbar" unicode="&#x127;" horiz-adv-x="1324" 
d="M750 1107q189 0 273.5 -94t84.5 -287v-594l153 -34l-20 -98h-446l-20 98l153 34v560q0 159 -53.5 227t-172.5 68q-76 0 -153.5 -43t-132.5 -106v-706l153 -34l-20 -98h-446l-20 98l153 34v1071h-153v120h153v85l-153 34l20 98l313 22v-239h360v-120h-360v-256l14 -6
q131 166 320 166z" />
    <glyph glyph-name="Itilde" unicode="&#x128;" horiz-adv-x="643" 
d="M225 1221l-153 34l20 98h455l20 -98l-152 -34v-1089l152 -34l-20 -98h-455l-20 98l153 34v1089zM529 1617q83 0 83 120l117 10v-47q1 -106 -53 -168t-141 -61q-87 0 -233 66q-147 66 -173 66q-50 0 -71 -21t-21 -77l-109 -10v25q0 113 58 171t152 58t226 -66
q50 -25 93 -45t72 -21z" />
    <glyph glyph-name="itilde" unicode="&#x129;" horiz-adv-x="660" 
d="M439 132l153 -34l-20 -98h-446l-20 98l153 34v821l-153 34l20 98l313 22v-975zM515 1404q83 0 83 120l117 10v-47q1 -105 -53 -167t-141 -62t-233 66q-147 66 -173 66q-50 0 -71 -21t-21 -77l-109 -10v25q0 113 58 171t152 58t226 -66q50 -26 93 -46t72 -20z" />
    <glyph glyph-name="Imacron" unicode="&#x12a;" horiz-adv-x="643" 
d="M225 1221l-153 34l20 98h455l20 -98l-152 -34v-1089l152 -34l-20 -98h-455l-20 98l153 34v1089zM-42 1660h771l-20 -120h-770z" />
    <glyph glyph-name="imacron" unicode="&#x12b;" horiz-adv-x="660" 
d="M439 132l153 -34l-20 -98h-446l-20 98l153 34v821l-153 34l20 98l313 22v-975zM-19 1473h711l-20 -120h-710z" />
    <glyph glyph-name="Ibreve" unicode="&#x12c;" horiz-adv-x="643" 
d="M225 1221l-153 34l20 98h455l20 -98l-152 -34v-1089l152 -34l-20 -98h-455l-20 98l153 34v1089zM316 1472q-151 0 -243 85q-93 85 -93 192l97 10q-1 -44 39 -82q40 -37 86 -56t114 -19q120 0 179 56q60 56 60 101l97 -10q0 -107 -93 -192q-92 -85 -243 -85z" />
    <glyph glyph-name="ibreve" unicode="&#x12d;" horiz-adv-x="660" 
d="M439 132l153 -34l-20 -98h-446l-20 98l153 34v821l-153 34l20 98l313 22v-975zM312 1295q-133 0 -219 91q-87 91 -87 206l97 10q-1 -47 37 -91q38 -43 78 -65t94 -21q97 0 153 65t56 112l97 -10q0 -115 -87 -206q-86 -91 -219 -91z" />
    <glyph glyph-name="Iogonek" unicode="&#x12e;" horiz-adv-x="643" 
d="M48 -324q0 160 176 324h-132l-20 98l153 34v1089l-153 34l20 98h455l20 -98l-152 -34v-1089l152 -34l-20 -98h-176q-81 -58 -131.5 -139t-50.5 -136t18 -68.5t49 -13.5q65 0 160 80v-93q-84 -87 -210 -87q-79 0 -118.5 29t-39.5 104z" />
    <glyph glyph-name="iogonek" unicode="&#x12f;" horiz-adv-x="660" 
d="M212 1409q0 48 29.5 89.5t77.5 41.5t88.5 -29t40.5 -77t-29 -89.5t-77 -41.5t-89 29t-41 77zM92 -324q0 160 176 324h-142l-20 98l153 34v821l-153 34l20 98l313 22v-975l153 -34l-20 -98h-157q-81 -58 -131.5 -139t-50.5 -136t18 -68.5t49 -13.5q65 0 160 80v-93
q-84 -87 -210 -87q-79 0 -118.5 29t-39.5 104z" />
    <glyph glyph-name="Idotaccent" unicode="&#x130;" horiz-adv-x="643" 
d="M225 1221l-153 34l20 98h455l20 -98l-152 -34v-1089l152 -34l-20 -98h-455l-20 98l153 34v1089zM237 1696q29 41 64 41q63 -1 103 -29t40 -63q0 -63 -29 -104t-64 -41q-34 0 -59 8t-44 22q-40 28 -40 76q0 49 29 90z" />
    <glyph glyph-name="dotlessi" unicode="&#x131;" horiz-adv-x="660" 
d="M439 132l153 -34l-20 -98h-446l-20 98l153 34v821l-153 34l20 98l313 22v-975z" />
    <glyph glyph-name="IJ" unicode="&#x132;" horiz-adv-x="1502" 
d="M225 1221l-153 34l20 98h455l20 -98l-152 -34v-1089l152 -34l-20 -98h-455l-20 98l153 34v1089zM1290 336q0 -174 -84 -266t-251 -92q-118 0 -221 53l-21 260l103 22l82 -192q39 -15 83 -15t88 21q31 84 31 242v852l-193 34l20 98h495l20 -98l-152 -34v-885z" />
    <glyph glyph-name="ij" unicode="&#x133;" horiz-adv-x="1229" 
d="M212 1409q0 47 30 89t77 42q49 0 89 -29t40 -77t-30 -90q-30 -41 -76 -41q-48 0 -89 29t-41 77zM259 953l-153 34l20 98l313 22v-975l153 -34l-20 -98h-446l-20 98l153 34v821zM845 1409q-1 47 29 89t78 42t88 -29t41 -77t-29 -90q-30 -41 -78 -41t-88 29q-41 29 -41 77z
M892 -86v1039l-183 34l20 98l343 22v-1154q0 -208 -71 -309t-236 -101q-111 0 -209 37l36 131q154 -41 260 -41q40 84 40 244z" />
    <glyph glyph-name="Jcircumflex" unicode="&#x134;" horiz-adv-x="859" 
d="M647 336q0 -174 -84 -266t-251 -92q-118 0 -221 53l-21 260l103 22l82 -192q39 -15 83 -15t88 21q31 84 31 242v852l-193 34l20 98h495l20 -98l-152 -34v-885zM888 1470l-125 -10l-238 192l-231 -192l-95 10v32l283 292l133 -10l273 -282v-32z" />
    <glyph glyph-name="jcircumflex" unicode="&#x135;" horiz-adv-x="569" 
d="M232 -86v1039l-183 34l20 98l343 22v-1154q0 -329 -180 -391q-57 -20 -151 -19q-94 0 -185 37l36 131q143 -41 260 -41q40 87 40 244zM576 1275l-125 -10l-193 252l-186 -252l-95 10v32l233 373l133 -10l233 -363v-32z" />
    <glyph glyph-name="Kcommaaccent" unicode="&#x136;" horiz-adv-x="1304" 
d="M72 98l153 34v1089l-153 34l20 98h455l20 -98l-152 -34v-557l14 -6l544 575l-110 21l20 99h362l20 -98l-122 -34l-433 -455l456 -633l146 -35l-20 -98h-244l-459 639l-174 -183v-324l152 -34l-20 -98h-455zM576 -128h166v-42l-63 -341h-103v383z" />
    <glyph glyph-name="kcommaaccent" unicode="&#x137;" horiz-adv-x="1185" 
d="M84 98l153 34v1276l-153 34l20 98l313 22v-989l14 -6l429 401l-92 19l20 98h322l20 -98l-87 -19l-359 -325l343 -511l134 -34l-20 -98h-223l-357 532l-144 -130v-270l153 -34l-20 -98h-446zM548 -128h166v-42l-63 -341h-103v383z" />
    <glyph glyph-name="kgreenlandic" unicode="&#x138;" horiz-adv-x="1206" 
d="M804.5 992.5q74.5 114.5 227.5 114.5q107 0 132 -40t25 -65q0 -54 -29 -97t-85 -43q-55 0 -117 56q-21 0 -44 -28t-50 -72.5t-58.5 -99t-68.5 -108.5l315 -480l131 -32l-20 -98h-223l-314 480q-91 -78 -187 -78v-270l153 -34l-20 -98h-446l-20 98l153 34v821l-153 34
l20 98l313 22v-540l10 -4q104 0 192.5 157.5t163 272z" />
    <glyph glyph-name="Lacute" unicode="&#x139;" horiz-adv-x="1018" 
d="M417 129h336l83 193l104 -22l-25 -300h-821l-20 98l153 34v1089l-153 34l20 98h455l20 -98l-152 -34v-1092zM178 1503l298 281l192 -10v-66l-375 -248l-115 11v32z" />
    <glyph glyph-name="lacute" unicode="&#x13a;" horiz-adv-x="642" 
d="M246 1408l-153 34l20 98l313 22v-1430l153 -34l-20 -98h-446l-20 98l153 34v1276zM146 1713l298 281l192 -10v-66l-375 -248l-115 11v32z" />
    <glyph glyph-name="Lcommaaccent" unicode="&#x13b;" horiz-adv-x="1018" 
d="M417 129h336l83 193l104 -22l-25 -300h-821l-20 98l153 34v1089l-153 34l20 98h455l20 -98l-152 -34v-1092zM421 -128h166v-42l-63 -341h-103v383z" />
    <glyph glyph-name="lcommaaccent" unicode="&#x13c;" horiz-adv-x="642" 
d="M246 1408l-153 34l20 98l313 22v-1430l153 -34l-20 -98h-446l-20 98l153 34v1276zM243 -128h166v-42l-63 -341h-103v383z" />
    <glyph glyph-name="Lcaron" unicode="&#x13d;" horiz-adv-x="1018" 
d="M417 129h336l83 193l104 -22l-25 -300h-821l-20 98l153 34v1089l-153 34l20 98h455l20 -98l-152 -34v-1092zM663 1540h166v-42l-63 -341h-103v383z" />
    <glyph glyph-name="lcaron" unicode="&#x13e;" horiz-adv-x="642" 
d="M246 1408l-153 34l20 98l313 22v-1430l153 -34l-20 -98h-446l-20 98l153 34v1276zM565 1539h166v-42l-63 -341h-103v383z" />
    <glyph glyph-name="Ldot" unicode="&#x13f;" horiz-adv-x="1028" 
d="M417 129h336l83 193l104 -22l-25 -300h-821l-20 98l153 34v1089l-153 34l20 98h455l20 -98l-152 -34v-1092zM791 763q27 45 61 45q68 0 112 -27t44 -61q0 -67 -27 -112t-61 -45q-35 0 -63 7q-29 8 -49 20q-44 27 -44 77q0 51 27 96z" />
    <glyph glyph-name="ldot" unicode="&#x140;" horiz-adv-x="792" 
d="M246 1408l-153 34l20 98l313 22v-1430l153 -34l-20 -98h-446l-20 98l153 34v1276zM635 763q27 45 61 45q68 0 112 -27t44 -61q0 -67 -27 -112t-61 -45q-35 0 -63 7q-29 8 -49 20q-44 27 -44 77q0 51 27 96z" />
    <glyph glyph-name="Lslash" unicode="&#x141;" horiz-adv-x="1018" 
d="M417 129h336l83 193l104 -22l-25 -300h-821l-20 98l153 34v394l-200 -116v139l200 116v556l-153 34l20 98h455l20 -98l-152 -34v-446l339 196v-138l-339 -197v-507z" />
    <glyph glyph-name="lslash" unicode="&#x142;" horiz-adv-x="642" 
d="M0 684l246 141v583l-153 34l20 98l313 22v-633l235 135v-138l-235 -136v-658l153 -34l-20 -98h-446l-20 98l153 34v555l-246 -142v139z" />
    <glyph glyph-name="Nacute" unicode="&#x143;" horiz-adv-x="1532" 
d="M1183 136v1085l-154 34l20 98h407l20 -98l-152 -34v-1221h-287l-656 1218h-16v-1086l152 -34l-20 -98h-405l-20 98l153 34v1089l-153 34l20 98h420l655 -1217h16zM643 1503l298 281l192 -10v-66l-375 -248l-115 11v32z" />
    <glyph glyph-name="nacute" unicode="&#x144;" horiz-adv-x="1346" 
d="M768 1107q193 1 278 -93t85 -288v-594l153 -34l-20 -98h-446l-20 98l153 34v550q1 153 -49 229t-185 76t-278 -129v-726l153 -34l-20 -98h-446l-20 98l153 34v821l-153 34l20 98l235 22l58 -178q156 178 349 178zM628 1307l203 363l182 -10v-66l-280 -329l-105 10v32z
" />
    <glyph glyph-name="Ncommaaccent" unicode="&#x145;" horiz-adv-x="1532" 
d="M1183 136v1085l-154 34l20 98h407l20 -98l-152 -34v-1221h-287l-656 1218h-16v-1086l152 -34l-20 -98h-405l-20 98l153 34v1089l-153 34l20 98h420l655 -1217h16zM664 -128h166v-42l-63 -341h-103v383z" />
    <glyph glyph-name="ncommaaccent" unicode="&#x146;" horiz-adv-x="1346" 
d="M768 1107q193 1 278 -93t85 -288v-594l153 -34l-20 -98h-446l-20 98l153 34v550q1 153 -49 229t-185 76t-278 -129v-726l153 -34l-20 -98h-446l-20 98l153 34v821l-153 34l20 98l235 22l58 -178q156 178 349 178zM599 -128h166v-42l-63 -341h-103v383z" />
    <glyph glyph-name="Ncaron" unicode="&#x147;" horiz-adv-x="1532" 
d="M1183 136v1085l-154 34l20 98h407l20 -98l-152 -34v-1221h-287l-656 1218h-16v-1086l152 -34l-20 -98h-405l-20 98l153 34v1089l-153 34l20 98h420l655 -1217h16zM442 1784l125 10l238 -192l231 192l95 -10v-32l-283 -292l-133 10l-273 282v32z" />
    <glyph glyph-name="ncaron" unicode="&#x148;" horiz-adv-x="1346" 
d="M768 1107q193 1 278 -93t85 -288v-594l153 -34l-20 -98h-446l-20 98l153 34v550q1 153 -49 229t-185 76t-278 -129v-726l153 -34l-20 -98h-446l-20 98l153 34v821l-153 34l20 98l235 22l58 -178q156 178 349 178zM414 1660l125 10l193 -252l186 252l95 -10v-32l-233 -373
l-133 10l-233 363v32z" />
    <glyph glyph-name="napostrophe" unicode="&#x149;" horiz-adv-x="1401" 
d="M823 1107q193 1 278 -93t85 -288v-594l153 -34l-20 -98h-446l-20 98l153 34v550q0 153 -50 229t-184 76q-135 0 -278 -129v-726l153 -34l-20 -98h-446l-20 98l153 34v821l-153 34l20 98l235 22l58 -178q156 178 349 178zM53 1273q0 30 -48 43q-48 12 -76 36t-28 54
q0 61 27 108q27 48 65 48q93 0 136 -46q44 -46 44 -148q0 -103 -28 -163q-50 -108 -169 -210l-62 73q139 116 139 205z" />
    <glyph glyph-name="Eng" unicode="&#x14a;" horiz-adv-x="1532" 
d="M1183 -38v38h-146l-656 1218h-16v-1086l152 -34l-20 -98h-405l-20 98l153 34v1089l-153 34l20 98h420l655 -1217h16v1085l-154 34l20 98h407l20 -98l-152 -34v-1221q0 -217 -98.5 -337t-273.5 -120q-126 0 -224 37l36 131q184 -41 318 -41q54 59 77.5 140t23.5 152z" />
    <glyph glyph-name="eng" unicode="&#x14b;" horiz-adv-x="1346" 
d="M782 1107q260 0 304.5 -138t44.5 -243v-773q0 -329 -118.5 -369.5t-212.5 -40.5t-185 37l36 131q144 -41 260 -41q40 87 40 244v768q0 253 -89.5 279t-160.5 26t-177 -65q-46 -28 -85 -64v-726l153 -34l-20 -98h-446l-20 98l153 34v821l-153 34l20 98l235 22l58 -178
q154 178 363 178z" />
    <glyph glyph-name="Omacron" unicode="&#x14c;" horiz-adv-x="1345" 
d="M1053 783q-1 235 -105 349t-295 114q-89 0 -168 -28t-124 -60q-69 -212 -69 -455v-133q0 -221 112 -342t289 -121q87 1 165 27t127 62q68 212 68 454v133zM683 1375q560 0 560 -548v-78q0 -377 -144 -574t-436 -197q-561 0 -561 547v79q0 389 148 580t433 191zM304 1660
h771l-20 -120h-770z" />
    <glyph glyph-name="omacron" unicode="&#x14d;" horiz-adv-x="1114" 
d="M838 622q0 170 -78 266t-208 98q-129 2 -216 -59q-60 -136 -60 -355v-119q0 -167 86 -261t203 -94q116 0 213 60q60 126 60 345v119zM548 -22q-218 0 -336 116q-116 116 -116 325v93q0 276 126 436t340 159q212 -1 334 -117t122 -334v-94q0 -264 -126 -424t-344 -160z
M232 1473h711l-20 -120h-710z" />
    <glyph glyph-name="Obreve" unicode="&#x14e;" horiz-adv-x="1345" 
d="M1053 783q-1 235 -105 349t-295 114q-89 0 -168 -28t-124 -60q-69 -212 -69 -455v-133q0 -221 112 -342t289 -121q87 1 165 27t127 62q68 212 68 454v133zM683 1375q560 0 560 -548v-78q0 -377 -144 -574t-436 -197q-561 0 -561 547v79q0 389 148 580t433 191zM662 1472
q-151 0 -243 85q-93 85 -93 192l97 10q-1 -44 39 -82q40 -37 86 -56t114 -19q120 0 179 56q60 56 60 101l97 -10q0 -107 -93 -192q-92 -85 -243 -85z" />
    <glyph glyph-name="obreve" unicode="&#x14f;" horiz-adv-x="1114" 
d="M838 622q0 170 -78 266t-208 98q-129 2 -216 -59q-60 -136 -60 -355v-119q0 -167 86 -261t203 -94q116 0 213 60q60 126 60 345v119zM548 -22q-218 0 -336 116q-116 116 -116 325v93q0 276 126 436t340 159q212 -1 334 -117t122 -334v-94q0 -264 -126 -424t-344 -160z
M563 1295q-133 0 -219 91q-87 91 -87 206l97 10q0 -47 38 -91q38 -43 76 -65q40 -22 95 -21q97 0 153 65t56 112l97 -10q0 -115 -87 -206q-86 -91 -219 -91z" />
    <glyph glyph-name="Ohungarumlaut" unicode="&#x150;" horiz-adv-x="1345" 
d="M1053 783q-1 235 -105 349t-295 114q-89 0 -168 -28t-124 -60q-69 -212 -69 -455v-133q0 -221 112 -342t289 -121q87 1 165 27t127 62q68 212 68 454v133zM683 1375q560 0 560 -548v-78q0 -377 -144 -574t-436 -197q-561 0 -561 547v79q0 389 148 580t433 191zM768 1503
l298 281l192 -10v-66l-375 -248l-115 11v32zM349 1503l298 281l192 -10v-66l-375 -248l-115 11v32z" />
    <glyph glyph-name="ohungarumlaut" unicode="&#x151;" horiz-adv-x="1114" 
d="M838 622q0 170 -78 266t-208 98q-129 2 -216 -59q-60 -136 -60 -355v-119q0 -167 86 -261t203 -94q116 0 213 60q60 126 60 345v119zM548 -22q-218 0 -336 116q-116 116 -116 325v93q0 276 126 436t340 159q212 -1 334 -117t122 -334v-94q0 -264 -126 -424t-344 -160z
M667 1307l203 363l182 -10v-66l-280 -329l-105 10v32zM289 1307l203 363l182 -10v-66l-280 -329l-105 10v32z" />
    <glyph glyph-name="OE" unicode="&#x152;" horiz-adv-x="1801" 
d="M292 703v-133q0 -227 114 -345t287 -118q75 0 146 20v1084q-82 35 -191 35t-207 -44q-45 -19 -80 -44q-69 -200 -69 -455zM683 1375q109 0 199 -22h761l24 -300l-103 -22l-83 193h-452v-452h357l34 122l99 -20v-334l-99 -20l-34 123h-357v-514h481l83 193l104 -23
l-24 -299h-830q-81 -22 -180 -22q-561 0 -561 547v79q0 771 581 771z" />
    <glyph glyph-name="oe" unicode="&#x153;" horiz-adv-x="1776" 
d="M1506 643q0 182 -52.5 263t-168.5 81q-59 0 -116 -18t-91 -42q-47 -121 -57 -284h485zM838 622q0 171 -78.5 266.5t-207.5 97.5t-216 -59q-60 -136 -60 -355v-119q0 -168 86.5 -261.5t202.5 -93.5t213 60q60 126 60 345v119zM1696 643v-120h-678v-76q0 -168 92.5 -258.5
t235.5 -90.5t297 65v-96q-168 -89 -372 -89q-254 0 -369 172q-5 -6 -10 -13q-126 -159 -344 -159t-335 116.5t-117 324.5v93q0 276 126.5 435.5t334.5 159.5q277 0 393 -182q127 182 363 182q203 0 293 -103.5t90 -360.5z" />
    <glyph glyph-name="Racute" unicode="&#x154;" horiz-adv-x="1205" 
d="M415 1224v-494h123q136 0 251 39q29 119 29 200q0 119 -76 187t-226 68h-101zM584 1353q428 0 428 -343q0 -130 -60 -226t-162 -145l-6 -19l277 -488l146 -34l-20 -98h-249l-340 601h-183v-469l152 -34l-20 -98h-455l-20 98l153 34v1089l-153 34l20 98h492zM379 1503
l298 281l192 -10v-66l-375 -248l-115 11v32z" />
    <glyph glyph-name="racute" unicode="&#x155;" horiz-adv-x="885" 
d="M682 1107q88 0 149 -42l-25 -283h-112l-26 185q-20 8 -58 8q-38 -1 -89 -37t-82 -80v-726l186 -34l-20 -98h-479l-20 98l153 34v821l-153 34l20 98l235 22l58 -178q95 178 263 178zM401 1307l203 363l182 -10v-66l-280 -329l-105 10v32z" />
    <glyph glyph-name="Rcommaaccent" unicode="&#x156;" horiz-adv-x="1205" 
d="M415 1224v-494h123q136 0 251 39q29 119 29 200q0 119 -76 187t-226 68h-101zM584 1353q428 0 428 -343q0 -130 -60 -226t-162 -145l-6 -19l277 -488l146 -34l-20 -98h-249l-340 601h-183v-469l152 -34l-20 -98h-455l-20 98l153 34v1089l-153 34l20 98h492zM544 -128h166
v-42l-63 -341h-103v383z" />
    <glyph glyph-name="rcommaaccent" unicode="&#x157;" horiz-adv-x="885" 
d="M682 1107q88 0 149 -42l-25 -283h-112l-26 185q-20 8 -58 8q-38 -1 -89 -37t-82 -80v-726l186 -34l-20 -98h-479l-20 98l153 34v821l-153 34l20 98l235 22l58 -178q95 178 263 178zM267 -128h166v-42l-63 -341h-103v383z" />
    <glyph glyph-name="Rcaron" unicode="&#x158;" horiz-adv-x="1205" 
d="M415 1224v-494h123q136 0 251 39q29 119 29 200q0 119 -76 187t-226 68h-101zM584 1353q428 0 428 -343q0 -130 -60 -226t-162 -145l-6 -19l277 -488l146 -34l-20 -98h-249l-340 601h-183v-469l152 -34l-20 -98h-455l-20 98l153 34v1089l-153 34l20 98h492zM178 1784
l125 10l238 -192l231 192l95 -10v-32l-283 -292l-133 10l-273 282v32z" />
    <glyph glyph-name="rcaron" unicode="&#x159;" horiz-adv-x="885" 
d="M682 1107q88 0 149 -42l-25 -283h-112l-26 185q-20 8 -58 8q-38 -1 -89 -37t-82 -80v-726l186 -34l-20 -98h-479l-20 98l153 34v821l-153 34l20 98l235 22l58 -178q95 178 263 178zM188 1660l125 10l193 -252l186 252l95 -10v-32l-233 -373l-133 10l-233 363v32z" />
    <glyph glyph-name="Sacute" unicode="&#x15a;" horiz-adv-x="1066" 
d="M980 345q0 -165 -128 -266t-354 -101q-225 0 -368 63l-21 259l117 25l82 -194q81 -24 205 -24t247 38q30 75 30 151t-59 146q-59 68 -284 202t-281 216t-57 179q-1 146 125 241t329 95t350 -52l21 -270l-105 -22l-82 193q-82 22 -201 22t-228 -38q-19 -63 -19 -134
q-1 -70 59 -130t261 -182q189 -110 275 -202t86 -215zM406 1503l298 281l192 -10v-66l-375 -248l-115 11v32z" />
    <glyph glyph-name="sacute" unicode="&#x15b;" horiz-adv-x="970" 
d="M890 271q0 -129 -114 -211t-308 -82q-192 0 -332 70l-10 240l109 20l58 -187q75 -23 185 -23t212 28q20 42 20 106t-64 120t-239 149q-175 92 -232 161t-57 158q0 125 105 206t295 81t324 -68l9 -241l-109 -20l-59 189q-73 20 -173 20t-190 -28q-22 -39 -22 -94
q0 -53 46 -101t240 -148t250 -176t56 -169zM443 1307l203 363l182 -10v-66l-280 -329l-105 10v32z" />
    <glyph glyph-name="Scircumflex" unicode="&#x15c;" horiz-adv-x="1066" 
d="M980 345q0 -165 -128 -266t-354 -101q-225 0 -368 63l-21 259l117 25l82 -194q81 -24 205 -24t247 38q30 75 30 151t-59 146q-59 68 -284 202t-281 216t-57 179q-1 146 125 241t329 95t350 -52l21 -270l-105 -22l-82 193q-82 22 -201 22t-228 -38q-19 -63 -19 -134
q-1 -70 59 -130t261 -182q189 -110 275 -202t86 -215zM904 1470l-125 -10l-238 192l-231 -192l-95 10v32l283 292l133 -10l273 -282v-32z" />
    <glyph glyph-name="scircumflex" unicode="&#x15d;" horiz-adv-x="970" 
d="M890 271q0 -129 -114 -211t-308 -82q-192 0 -332 70l-10 240l109 20l58 -187q75 -23 185 -23t212 28q20 42 20 106t-64 120t-239 149q-175 92 -232 161t-57 158q0 125 105 206t295 81t324 -68l9 -241l-109 -20l-59 189q-73 20 -173 20t-190 -28q-22 -39 -22 -94
q0 -53 46 -101t240 -148t250 -176t56 -169zM825 1275l-125 -10l-193 252l-186 -252l-95 10v32l233 373l133 -10l233 -363v-32z" />
    <glyph glyph-name="Scedilla" unicode="&#x15e;" horiz-adv-x="1066" 
d="M322 -317q98 -40 166 -40t97 13q14 33 14 69q0 61 -161 99l-34 55l38 101q-189 7 -312 61l-21 259l117 25l82 -194q81 -24 205 -24t247 38q30 75 30 151t-59 145t-284 203t-281.5 216t-56.5 179q0 146 125.5 241t328.5 95t350 -52l21 -270l-105 -22l-82 193
q-82 22 -201 22t-228 -38q-19 -63 -19 -134t59.5 -130.5t260.5 -181.5q188 -110 274.5 -201.5t86.5 -215.5q0 -165 -129 -266q-107 -84 -275 -98l-28 -79q94 -25 128.5 -52.5t49 -56t14.5 -89.5t-61.5 -111t-162.5 -50q-100 0 -194 47v93z" />
    <glyph glyph-name="scedilla" unicode="&#x15f;" horiz-adv-x="970" 
d="M280 -317q98 -40 166 -40t97 13q14 33 14 69q0 61 -161 99l-34 55l39 102q-156 12 -265 67l-10 240l109 20l58 -187q75 -23 185 -23t212 28q20 42 20 106t-64 120.5t-239 148.5t-232 161t-57 158q0 125 105 206t295 81t324 -68l9 -241l-109 -20l-59 189q-73 20 -173 20
t-190 -28q-22 -39 -22 -94q0 -54 45.5 -101.5t240.5 -147.5t250.5 -176t55.5 -169q0 -131 -105 -205t-251 -85l-28 -79q94 -25 128.5 -52.5t49 -56t14.5 -89.5t-61.5 -111t-162.5 -50q-100 0 -194 47v93z" />
    <glyph glyph-name="Scaron" unicode="&#x160;" horiz-adv-x="1066" 
d="M980 345q0 -165 -128 -266t-354 -101q-225 0 -368 63l-21 259l117 25l82 -194q81 -24 205 -24t247 38q30 75 30 151t-59 146q-59 68 -284 202t-281 216t-57 179q-1 146 125 241t329 95t350 -52l21 -270l-105 -22l-82 193q-82 22 -201 22t-228 -38q-19 -63 -19 -134
q-1 -70 59 -130t261 -182q189 -110 275 -202t86 -215zM205 1784l125 10l238 -192l231 192l95 -10v-32l-283 -292l-133 10l-273 282v32z" />
    <glyph glyph-name="scaron" unicode="&#x161;" horiz-adv-x="970" 
d="M890 271q0 -129 -114 -211t-308 -82q-192 0 -332 70l-10 240l109 20l58 -187q75 -23 185 -23t212 28q20 42 20 106t-64 120t-239 149q-175 92 -232 161t-57 158q0 125 105 206t295 81t324 -68l9 -241l-109 -20l-59 189q-73 20 -173 20t-190 -28q-22 -39 -22 -94
q0 -53 46 -101t240 -148t250 -176t56 -169zM229 1660l125 10l193 -252l186 252l95 -10v-32l-233 -373l-133 10l-233 363v32z" />
    <glyph glyph-name="Tcommaaccent" unicode="&#x162;" horiz-adv-x="1023" 
d="M303 -317q98 -40 166 -40t97 13q14 33 14 69q0 61 -161 99l-34 55l46 121h-147l-20 98l153 34v1092h-280l-62 -170l-99 9l15 290h1042l14 -290l-98 -9l-63 170h-279v-1092l153 -34l-20 -98h-176l-35 -98q94 -25 128.5 -52.5t49 -56t14.5 -89.5t-61.5 -111t-162.5 -50
q-100 0 -194 47v93z" />
    <glyph glyph-name="tcommaaccent" unicode="&#x163;" horiz-adv-x="742" 
d="M189 270v684l-161 32l20 99h141l73 293l107 -20v-273h290l20 -99l-310 -32v-645q0 -106 31.5 -158.5t112.5 -52.5t167 39v-94q-80 -52 -183 -63l-28 -78q94 -25 128.5 -52.5t49 -56t14.5 -89.5t-61.5 -111t-162.5 -50q-100 0 -194 47v93q98 -40 166 -40t97 13
q14 33 14 69q0 61 -161 99l-34 55l41 108q-177 39 -177 283z" />
    <glyph glyph-name="Tcaron" unicode="&#x164;" horiz-adv-x="1139" 
d="M475 1224h-300l-62 -170l-99 9l15 290h1082l14 -290l-98 -9l-63 170h-299v-1092l153 -34l-20 -98h-456l-20 98l153 34v1092zM224 1784l125 10l238 -192l231 192l95 -10v-32l-283 -292l-133 10l-273 282v32z" />
    <glyph glyph-name="tcaron" unicode="&#x165;" horiz-adv-x="742" 
d="M189 270v684l-161 32l20 99h141l73 293l107 -20v-273h290l20 -99l-310 -32v-645q-1 -107 31 -159t113 -52t167 39v-94q-100 -65 -232 -65q-133 0 -196 72t-63 220zM523 1540h166v-42l-63 -341h-103v383z" />
    <glyph glyph-name="Tbar" unicode="&#x166;" horiz-adv-x="1139" 
d="M475 729v495h-300l-62 -170l-99 9l15 290h1082l14 -290l-98 -9l-63 170h-299v-495h309l-20 -120h-289v-477l153 -34l-20 -98h-456l-20 98l153 34v477h-291l19 120h272z" />
    <glyph glyph-name="tbar" unicode="&#x167;" horiz-adv-x="742" 
d="M189 270v277h-202l19 120h183v287l-161 32l20 99h141l73 293l107 -20v-273h290l20 -99l-310 -32v-287h328l-20 -120h-308v-238q0 -106 31.5 -158.5t112.5 -52.5t167 39v-94q-100 -65 -232 -65q-133 0 -196 72t-63 220z" />
    <glyph glyph-name="Utilde" unicode="&#x168;" horiz-adv-x="1358" 
d="M360 546q0 -223 94 -331t259 -108q79 0 148 23t110 53q78 142 78 338v700l-153 34l20 98h406l20 -98l-152 -34v-677q0 -290 -127 -428t-383 -138t-383 124t-127 389v730l-154 34l20 98h456l20 -98l-152 -34v-675zM896 1617q83 0 83 120l117 10v-47q0 -106 -54 -168
t-140 -61q-88 0 -234 66q-147 66 -172 66q-50 0 -71 -21t-21 -77l-109 -10v25q1 113 59 171t151 58t225 -66q50 -25 94 -45q43 -20 72 -21z" />
    <glyph glyph-name="utilde" unicode="&#x169;" horiz-adv-x="1262" 
d="M191 359v594l-153 34l20 98l313 22v-704q0 -157 55 -231t196 -74t261 127v728l-183 34l20 98l343 22v-975l153 -34l-20 -98l-235 -22l-58 178q-152 -178 -371 -178q-341 0 -341 381zM807 1404q83 0 83 120l117 10v-47q1 -105 -53 -167t-141 -62t-233 66q-147 66 -173 66
q-50 0 -71 -21t-21 -77l-109 -10v25q0 113 58 171t152 58t226 -66q50 -26 93 -46t72 -20z" />
    <glyph glyph-name="Umacron" unicode="&#x16a;" horiz-adv-x="1358" 
d="M360 546q0 -223 94 -331t259 -108q79 0 148 23t110 53q78 142 78 338v700l-153 34l20 98h406l20 -98l-152 -34v-677q0 -290 -127 -428t-383 -138t-383 124t-127 389v730l-154 34l20 98h456l20 -98l-152 -34v-675zM346 1660h771l-20 -120h-770z" />
    <glyph glyph-name="umacron" unicode="&#x16b;" horiz-adv-x="1262" 
d="M191 359v594l-153 34l20 98l313 22v-704q0 -157 55 -231t196 -74t261 127v728l-183 34l20 98l343 22v-975l153 -34l-20 -98l-235 -22l-58 178q-152 -178 -371 -178q-341 0 -341 381zM273 1473h711l-20 -120h-710z" />
    <glyph glyph-name="Ubreve" unicode="&#x16c;" horiz-adv-x="1358" 
d="M360 546q0 -223 94 -331t259 -108q79 0 148 23t110 53q78 142 78 338v700l-153 34l20 98h406l20 -98l-152 -34v-677q0 -290 -127 -428t-383 -138t-383 124t-127 389v730l-154 34l20 98h456l20 -98l-152 -34v-675zM704 1472q-151 0 -243 85q-93 85 -93 192l97 10
q-1 -44 39 -82q40 -37 86 -56t114 -19q120 0 179 56q60 56 60 101l97 -10q0 -107 -93 -192q-92 -85 -243 -85z" />
    <glyph glyph-name="ubreve" unicode="&#x16d;" horiz-adv-x="1262" 
d="M191 359v594l-153 34l20 98l313 22v-704q0 -157 55 -231t196 -74t261 127v728l-183 34l20 98l343 22v-975l153 -34l-20 -98l-235 -22l-58 178q-152 -178 -371 -178q-341 0 -341 381zM604 1295q-133 0 -219 91q-87 91 -87 206l97 10q-1 -47 37 -91q38 -43 78 -65t94 -21
q97 0 153 65t56 112l97 -10q0 -115 -87 -206q-86 -91 -219 -91z" />
    <glyph glyph-name="Uring" unicode="&#x16e;" horiz-adv-x="1358" 
d="M360 546q0 -223 94 -331t259 -108q79 0 148 23t110 53q78 142 78 338v700l-153 34l20 98h406l20 -98l-152 -34v-677q0 -290 -127 -428t-383 -138t-383 124t-127 389v730l-154 34l20 98h456l20 -98l-152 -34v-675zM623 1610q1 -56 27 -84t67 -28t75 19q9 45 9 89
q-1 44 -27 73q-26 28 -63 28t-79 -19q-9 -22 -9 -78zM523 1577q0 93 57 150t142 57q123 0 164 -84q14 -28 14 -74q0 -98 -56 -152t-137 -54t-119 28q-37 28 -51 56t-14 73z" />
    <glyph glyph-name="uring" unicode="&#x16f;" horiz-adv-x="1262" 
d="M191 359v594l-153 34l20 98l313 22v-704q0 -157 55 -231t196 -74t261 127v728l-183 34l20 98l343 22v-975l153 -34l-20 -98l-235 -22l-58 178q-152 -178 -371 -178q-341 0 -341 381zM557 1374q28 -36 56 -36q57 0 95 19q9 50 9 95q0 74 -28 110t-64 36t-77 -19
q-19 -32 -19 -101q0 -68 28 -104zM424 1444q0 105 60 165q60 61 149 61q129 0 173 -93q15 -31 15 -85q0 -110 -58 -169q-58 -58 -150 -58q-130 1 -174 95q-15 32 -15 84z" />
    <glyph glyph-name="Uhungarumlaut" unicode="&#x170;" horiz-adv-x="1358" 
d="M360 546q0 -223 94 -331t259 -108q79 0 148 23t110 53q78 142 78 338v700l-153 34l20 98h406l20 -98l-152 -34v-677q0 -290 -127 -428t-383 -138t-383 124t-127 389v730l-154 34l20 98h456l20 -98l-152 -34v-675zM810 1503l298 281l192 -10v-66l-375 -248l-115 11v32z
M391 1503l298 281l192 -10v-66l-375 -248l-115 11v32z" />
    <glyph glyph-name="uhungarumlaut" unicode="&#x171;" horiz-adv-x="1262" 
d="M191 359v594l-153 34l20 98l313 22v-704q0 -157 55 -231t196 -74t261 127v728l-183 34l20 98l343 22v-975l153 -34l-20 -98l-235 -22l-58 178q-152 -178 -371 -178q-341 0 -341 381zM708 1307l203 363l182 -10v-66l-280 -329l-105 10v32zM330 1307l203 363l182 -10v-66
l-280 -329l-105 10v32z" />
    <glyph glyph-name="Uogonek" unicode="&#x172;" horiz-adv-x="1358" 
d="M532 -323q0 155 167 302q-13 -1 -26 -1q-249 0 -376 124.5t-127 388.5v730l-154 34l20 98h456l20 -98l-152 -34v-675q0 -223 94 -331t259 -108q79 0 148 23t110 53q78 142 78 338v700l-153 34l20 98h406l20 -98l-152 -34v-677q0 -396 -240 -512q-113 -56 -195 -154.5
t-82 -168.5q0 -38 18 -51.5t49 -13.5q65 0 160 80v-93q-84 -87 -210 -87q-79 0 -118.5 29t-39.5 104z" />
    <glyph glyph-name="uogonek" unicode="&#x173;" horiz-adv-x="1262" 
d="M191 359v594l-153 34l20 98l313 22v-704q0 -156 55 -230.5t196 -74.5t261 127v728l-183 34l20 98l343 22v-975l153 -34l-20 -98q-81 -58 -131.5 -139t-50.5 -136t18 -68.5t49 -13.5q65 0 160 80v-93q-84 -87 -210 -87q-79 0 -118.5 28.5t-39.5 98.5q0 167 176 317l-88 -9
l-58 178q-152 -178 -371 -178q-341 0 -341 381z" />
    <glyph glyph-name="Wcircumflex" unicode="&#x174;" horiz-adv-x="1998" 
d="M403 1254l-149 -29l335 -993h16l342 1121h191l334 -1121h16l304 993l-153 29l20 99h363l20 -99l-103 -27l-386 -1227h-191l-333 1107h-16l-337 -1107h-192l-422 1227l-106 27l20 99h407zM1404 1470l-125 -10l-238 192l-231 -192l-95 10v32l283 292l133 -10l273 -282v-32z
" />
    <glyph glyph-name="wcircumflex" unicode="&#x175;" horiz-adv-x="1733" 
d="M1747 987l-94 -18l-295 -969h-212l-258 828h-16l-251 -828h-212l-323 968l-96 19l20 98h371l20 -98l-131 -20l256 -808h16l268 926h183l273 -926h16l233 808l-134 20l20 98h326zM1208 1275l-125 -10l-193 252l-186 -252l-95 10v32l233 373l133 -10l233 -363v-32z" />
    <glyph glyph-name="Ycircumflex" unicode="&#x176;" horiz-adv-x="1122" 
d="M478 578l-416 648l-114 28l20 99h410l20 -99l-132 -28l321 -504h16l304 504l-125 28l20 99h352l20 -99l-111 -28l-395 -650v-444l152 -34l-20 -98h-455l-20 98l153 34v446zM951 1470l-125 -10l-238 192l-231 -192l-95 10v32l283 292l133 -10l273 -282v-32z" />
    <glyph glyph-name="ycircumflex" unicode="&#x177;" horiz-adv-x="1106" 
d="M490 -352q-88 -105 -212 -105q-125 0 -230 47l36 131q140 -51 270 -51q87 60 140 205l-407 1093l-97 19l20 98h370l20 -98l-125 -19l295 -836h16l296 836l-125 19l20 98h325l20 -98l-97 -19l-357 -966q-90 -249 -178 -354zM890 1275l-125 -10l-193 252l-186 -252l-95 10
v32l233 373l133 -10l233 -363v-32z" />
    <glyph glyph-name="Ydieresis" unicode="&#x178;" horiz-adv-x="1122" 
d="M478 578l-416 648l-114 28l20 99h410l20 -99l-132 -28l321 -504h16l304 504l-125 28l20 99h352l20 -99l-111 -28l-395 -650v-444l152 -34l-20 -98h-455l-20 98l153 34v446zM744 1669q26 38 57 38q57 0 94 -26q36 -26 36 -57q0 -57 -27 -95q-27 -37 -57 -37q-31 0 -54 7
t-39 19q-36 27 -36 70t26 81zM285 1670q27 37 57 37q58 0 93 -26q36 -26 36 -57q0 -56 -26 -94t-57 -38t-54 7t-40 19q-36 26 -36 71q0 44 27 81z" />
    <glyph glyph-name="Zacute" unicode="&#x179;" horiz-adv-x="1130" 
d="M1023 1353v-124l-716 -1086l5 -14h557l82 193l103 -22l-24 -300h-948v125l715 1085l-5 14h-516l-82 -193l-104 22l25 300h908zM424 1503l298 281l192 -10v-66l-375 -248l-115 11v32z" />
    <glyph glyph-name="zacute" unicode="&#x17a;" horiz-adv-x="967" 
d="M897 0h-805v95l593 868l-6 12h-400l-52 -190l-104 11v289h782v-83l-601 -880l6 -12h431l52 190l104 -11v-289zM447 1307l203 363l182 -10v-66l-280 -329l-105 10v32z" />
    <glyph glyph-name="Zdotaccent" unicode="&#x17b;" horiz-adv-x="1130" 
d="M1023 1353v-124l-716 -1086l5 -14h557l82 193l103 -22l-24 -300h-948v125l715 1085l-5 14h-516l-82 -193l-104 22l25 300h908zM485 1696q29 41 64 41q63 -1 103 -29t40 -63q0 -63 -29 -104t-64 -41q-34 0 -59 8t-44 22q-40 28 -40 76q0 49 29 90z" />
    <glyph glyph-name="zdotaccent" unicode="&#x17c;" horiz-adv-x="967" 
d="M897 0h-805v95l593 868l-6 12h-400l-52 -190l-104 11v289h782v-83l-601 -880l6 -12h431l52 190l104 -11v-289zM450 1499q29 41 64 41q63 0 103 -28t40 -64q0 -63 -29 -104t-64 -41q-34 0 -59 8q-25 7 -44 21q-40 28 -40 77t29 90z" />
    <glyph glyph-name="Zcaron" unicode="&#x17d;" horiz-adv-x="1130" 
d="M1023 1353v-124l-716 -1086l5 -14h557l82 193l103 -22l-24 -300h-948v125l715 1085l-5 14h-516l-82 -193l-104 22l25 300h908zM223 1784l125 10l238 -192l231 192l95 -10v-32l-283 -292l-133 10l-273 282v32z" />
    <glyph glyph-name="zcaron" unicode="&#x17e;" horiz-adv-x="967" 
d="M897 0h-805v95l593 868l-6 12h-400l-52 -190l-104 11v289h782v-83l-601 -880l6 -12h431l52 190l104 -11v-289zM233 1660l125 10l193 -252l186 252l95 -10v-32l-233 -373l-133 10l-233 363v32z" />
    <glyph glyph-name="longs" unicode="&#x17f;" horiz-adv-x="736" 
d="M439 1209v-1209h-313l-20 98l153 34v821l-163 34l20 98h143v108q0 369 299 369q84 0 177 -37l-43 -131q-130 41 -223 41q-30 -73 -30 -226z" />
    <glyph glyph-name="uni018F" unicode="&#x18f;" horiz-adv-x="1335" 
d="M346 574v-4q0 -242 103.5 -352.5t261.5 -110.5t268 89q53 170 66 378h-699zM687 -22q-531 0 -531 547v192h891v66q0 248 -109.5 355.5t-290.5 107.5q-229 0 -402 -108v126q175 111 432 111q560 0 560 -548v-78q0 -377 -136.5 -574t-413.5 -197z" />
    <glyph glyph-name="florin" unicode="&#x192;" horiz-adv-x="769" 
d="M461 1209v-518h211v-110h-211v-628q0 -329 -118.5 -369.5t-212.5 -40.5t-185 37l36 131q143 -41 260 -41q40 87 40 244v667h-211v110h211v502q0 369 299 369q84 0 177 -37l-43 -131q-130 41 -223 41q-30 -73 -30 -226z" />
    <glyph glyph-name="Ohorn" unicode="&#x1a0;" horiz-adv-x="1379" 
d="M1053 783q0 236 -104.5 349.5t-295.5 113.5q-89 0 -168 -27.5t-124 -60.5q-69 -212 -69 -455v-133q0 -221 112.5 -342t288.5 -121q88 0 165.5 26.5t126.5 62.5q68 212 68 454v133zM1493 1589q87 -109 87 -220t-92 -187.5t-273 -138.5q28 -95 28 -216v-78
q0 -377 -144 -574t-436 -197q-561 0 -561 547v79q0 389 148 580t433 191q367 0 495 -239q118 49 157 80.5t52 59.5t13 64q0 91 -67 162v30z" />
    <glyph glyph-name="ohorn" unicode="&#x1a1;" horiz-adv-x="1138" 
d="M838 622q0 171 -78.5 266.5t-207.5 97.5t-216 -59q-60 -136 -60 -355v-119q0 -168 86.5 -261.5t202.5 -93.5t213 60q60 126 60 345v119zM1145 1432q87 -109 87 -220t-81.5 -179t-196.5 -115q64 -104 64 -262v-94q0 -265 -126 -424.5t-344 -159.5t-335 116.5t-117 324.5
v93q0 276 126 435.5t334 159.5t328 -105q14 6 46 22q122 58 122 169q0 81 -67 152v30z" />
    <glyph glyph-name="Uhorn" unicode="&#x1af;" horiz-adv-x="1570" 
d="M1532 1589q87 -109 87 -220t-97.5 -192.5t-331.5 -155.5v-477q0 -291 -127 -428.5t-383 -137.5t-383 124.5t-127 388.5v730l-154 34l20 98h456l20 -98l-152 -34v-675q0 -223 94 -331t259 -108q79 0 148 23t110 53q78 142 78 338v700l-153 34l20 98h406l20 -98l-152 -34
v-96q139 55 181 89t55 62t13 64q0 91 -67 162v30z" />
    <glyph glyph-name="uhorn" unicode="&#x1b0;" horiz-adv-x="1333" 
d="M1356 1432q87 -109 87 -220t-93 -188.5t-287 -143.5v-748l153 -34l-20 -98l-235 -22l-58 178q-152 -178 -371 -178q-341 0 -341 381v594l-153 34l20 98l313 22v-704q0 -156 55 -230.5t196 -74.5t261 127v728l-183 34l20 98l343 22v-119q157 67 178.5 113t21.5 82
q0 91 -67 162v30z" />
    <glyph glyph-name="uni01CD" unicode="&#x1cd;" horiz-adv-x="1218" 
d="M389 535h402l-194 569h-10zM-8 98l108 29l440 1226h149l429 -1226l108 -29l-20 -98h-385l-20 98l128 29l-94 279h-491l-96 -279l128 -29l-20 -98h-344zM271 1784l125 10l238 -192l231 192l95 -10v-32l-283 -292l-133 10l-273 282v32z" />
    <glyph glyph-name="uni01CE" unicode="&#x1ce;" horiz-adv-x="1150" 
d="M759 487q-310 0 -443 -72q-28 -65 -28 -144t55 -126t137 -47t155 38t124 89v262zM108 237q0 370 651 370v95q-1 150 -55 218t-190 67q-75 0 -150 -15l-60 -212l-98 10v283q154 54 343 54q390 0 390 -372v-603l173 -34l-20 -98l-255 -22l-58 177q-145 -177 -360 -177
q-139 0 -225 70t-86 189zM256 1660l125 10l193 -252l186 252l95 -10v-32l-233 -373l-133 10l-233 363v32z" />
    <glyph glyph-name="uni01CF" unicode="&#x1cf;" horiz-adv-x="643" 
d="M225 1221l-153 34l20 98h455l20 -98l-152 -34v-1089l152 -34l-20 -98h-455l-20 98l153 34v1089zM-25 1784l125 10l238 -192l231 192l95 -10v-32l-283 -292l-133 10l-273 282v32z" />
    <glyph glyph-name="uni01D0" unicode="&#x1d0;" horiz-adv-x="660" 
d="M439 132l153 -34l-20 -98h-446l-20 98l153 34v821l-153 34l20 98l313 22v-975zM21 1660l125 10l193 -252l186 252l95 -10v-32l-233 -373l-133 10l-233 363v32z" />
    <glyph glyph-name="uni01D1" unicode="&#x1d1;" horiz-adv-x="1345" 
d="M1053 783q-1 235 -105 349t-295 114q-89 0 -168 -28t-124 -60q-69 -212 -69 -455v-133q0 -221 112 -342t289 -121q87 1 165 27t127 62q68 212 68 454v133zM683 1375q560 0 560 -548v-78q0 -377 -144 -574t-436 -197q-561 0 -561 547v79q0 389 148 580t433 191zM321 1784
l125 10l238 -192l231 192l95 -10v-32l-283 -292l-133 10l-273 282v32z" />
    <glyph glyph-name="uni01D2" unicode="&#x1d2;" horiz-adv-x="1114" 
d="M838 622q0 170 -78 266t-208 98q-129 2 -216 -59q-60 -136 -60 -355v-119q0 -167 86 -261t203 -94q116 0 213 60q60 126 60 345v119zM548 -22q-218 0 -336 116q-116 116 -116 325v93q0 276 126 436t340 159q212 -1 334 -117t122 -334v-94q0 -264 -126 -424t-344 -160z
M272 1660l125 10l193 -252l186 252l95 -10v-32l-233 -373l-133 10l-233 363v32z" />
    <glyph glyph-name="uni01D3" unicode="&#x1d3;" horiz-adv-x="1358" 
d="M360 546q0 -223 94 -331t259 -108q79 0 148 23t110 53q78 142 78 338v700l-153 34l20 98h406l20 -98l-152 -34v-677q0 -290 -127 -428t-383 -138t-383 124t-127 389v730l-154 34l20 98h456l20 -98l-152 -34v-675zM363 1784l125 10l238 -192l231 192l95 -10v-32l-283 -292
l-133 10l-273 282v32z" />
    <glyph glyph-name="uni01D4" unicode="&#x1d4;" horiz-adv-x="1262" 
d="M191 359v594l-153 34l20 98l313 22v-704q0 -157 55 -231t196 -74t261 127v728l-183 34l20 98l343 22v-975l153 -34l-20 -98l-235 -22l-58 178q-152 -178 -371 -178q-341 0 -341 381zM313 1660l125 10l193 -252l186 252l95 -10v-32l-233 -373l-133 10l-233 363v32z" />
    <glyph glyph-name="uni01D5" unicode="&#x1d5;" horiz-adv-x="1358" 
d="M360 546q0 -223 94 -331t259 -108q79 0 148 23t110 53q78 142 78 338v700l-153 34l20 98h406l20 -98l-152 -34v-677q0 -290 -127 -428t-383 -138t-383 124t-127 389v730l-154 34l20 98h456l20 -98l-152 -34v-675zM364 1912h771l-20 -120h-770zM872 1669q26 38 57 38
q57 0 94 -26q36 -26 36 -57q0 -57 -27 -95q-27 -37 -57 -37q-31 0 -54 7t-39 19q-36 27 -36 70t26 81zM413 1670q27 37 57 37q58 0 93 -26q36 -26 36 -57q0 -56 -26 -94t-57 -38t-54 7t-40 19q-36 26 -36 71q0 44 27 81z" />
    <glyph glyph-name="uni01D6" unicode="&#x1d6;" horiz-adv-x="1262" 
d="M191 359v594l-153 34l20 98l313 22v-704q0 -157 55 -231t196 -74t261 127v728l-183 34l20 98l343 22v-975l153 -34l-20 -98l-235 -22l-58 178q-152 -178 -371 -178q-341 0 -341 381zM264 1760h711l-20 -120h-710zM732 1472q26 38 57 38q58 0 94 -26t36 -58q0 -56 -27 -94
q-27 -37 -57 -37q-31 0 -54 7q-23 8 -39 20q-36 27 -36 69q0 43 26 81zM333 1473q27 37 57 37q58 0 94 -27q35 -27 35 -57q0 -55 -26 -93t-57 -38t-54 7q-23 8 -40 20q-36 26 -36 70t27 81z" />
    <glyph glyph-name="uni01D7" unicode="&#x1d7;" horiz-adv-x="1358" 
d="M360 546q0 -223 94 -331t259 -108q79 0 148 23t110 53q78 142 78 338v700l-153 34l20 98h406l20 -98l-152 -34v-677q0 -290 -127 -428t-383 -138t-383 124t-127 389v730l-154 34l20 98h456l20 -98l-152 -34v-675zM647 1788l298 281l192 -10v-66l-375 -248l-115 11v32z
M879 1669q26 38 57 38q57 0 94 -26q36 -26 36 -57q0 -57 -27 -95q-27 -37 -57 -37q-31 0 -54 7q-24 7 -40 19q-36 27 -35 70q0 43 26 81zM420 1670q27 37 57 37q58 0 93 -26q36 -26 36 -57q0 -56 -26 -94t-57 -38t-54 7t-40 19q-36 26 -36 71q0 44 27 81z" />
    <glyph glyph-name="uni01D8" unicode="&#x1d8;" horiz-adv-x="1262" 
d="M191 359v594l-153 34l20 98l313 22v-704q0 -157 55 -231t196 -74t261 127v728l-183 34l20 98l343 22v-975l153 -34l-20 -98l-235 -22l-58 178q-152 -178 -371 -178q-341 0 -341 381zM539 1644l203 363l182 -10v-66l-280 -329l-105 10v32zM728 1472q26 38 57 38
q58 0 94 -26t36 -58q0 -56 -27 -94q-27 -37 -57 -37q-31 0 -54 7q-23 8 -39 20q-36 27 -36 69q0 43 26 81zM329 1473q27 37 57 37q58 0 94 -27q35 -27 35 -57q0 -55 -26 -93t-57 -38t-54 7q-23 8 -40 20q-36 26 -36 70t27 81z" />
    <glyph glyph-name="uni01D9" unicode="&#x1d9;" horiz-adv-x="1358" 
d="M360 546q0 -223 94 -331t259 -108q79 0 148 23t110 53q78 142 78 338v700l-153 34l20 98h406l20 -98l-152 -34v-677q0 -290 -127 -428t-383 -138t-383 124t-127 389v730l-154 34l20 98h456l20 -98l-152 -34v-675zM868 1669q26 38 57 38q57 0 94 -26q36 -26 36 -57
q0 -57 -27 -95q-27 -37 -57 -37q-31 0 -54 7t-39 19q-36 27 -36 70t26 81zM409 1670q27 37 57 37q58 0 93 -26q36 -26 36 -57q0 -56 -26 -94t-57 -38t-54 7t-40 19q-36 26 -36 71q0 44 27 81zM377 2069l125 10l238 -192l231 192l95 -10v-32l-283 -292l-133 10l-273 282v32z
" />
    <glyph glyph-name="uni01DA" unicode="&#x1da;" horiz-adv-x="1262" 
d="M191 359v594l-153 34l20 98l313 22v-704q0 -157 55 -231t196 -74t261 127v728l-183 34l20 98l343 22v-975l153 -34l-20 -98l-235 -22l-58 178q-152 -178 -371 -178q-341 0 -341 381zM717 1472q26 38 57 38q58 0 94 -26t36 -58q0 -56 -27 -94q-27 -37 -57 -37q-31 0 -54 7
q-24 8 -40 20q-36 27 -35 69q0 43 26 81zM318 1473q27 37 57 37q58 0 94 -27q35 -27 35 -57q0 -55 -26 -93t-57 -38t-54 7q-23 8 -40 20q-36 26 -36 70t27 81zM298 1997l125 10l193 -252l186 252l95 -10v-32l-233 -373l-133 10l-233 363v32z" />
    <glyph glyph-name="uni01DB" unicode="&#x1db;" horiz-adv-x="1358" 
d="M360 546q0 -223 94 -331t259 -108q79 0 148 23t110 53q78 142 78 338v700l-153 34l20 98h406l20 -98l-152 -34v-677q0 -290 -127 -428t-383 -138t-383 124t-127 389v730l-154 34l20 98h456l20 -98l-152 -34v-675zM802 1756l-115 -11l-375 248v66l192 10l298 -281v-32z
M861 1669q26 38 57 38q57 0 94 -26q36 -26 36 -57q0 -57 -27 -95q-27 -37 -57 -37q-31 0 -54 7q-24 7 -40 19q-36 27 -35 70q0 43 26 81zM402 1670q27 37 57 37q58 0 93 -26q36 -26 36 -57q0 -56 -26 -94t-57 -38t-54 7t-40 19q-36 26 -36 71q0 44 27 81z" />
    <glyph glyph-name="uni01DC" unicode="&#x1dc;" horiz-adv-x="1262" 
d="M191 359v594l-153 34l20 98l313 22v-704q0 -157 55 -231t196 -74t261 127v728l-183 34l20 98l343 22v-975l153 -34l-20 -98l-235 -22l-58 178q-152 -178 -371 -178q-341 0 -341 381zM688 1612l-118 -10l-290 329v66l175 10l233 -363v-32zM726 1472q26 38 57 38
q58 0 94 -26t36 -58q0 -56 -27 -94q-27 -37 -57 -37q-31 0 -54 7q-23 8 -39 20q-36 27 -36 69q0 43 26 81zM327 1473q27 37 57 37q58 0 94 -27q35 -27 35 -57q0 -55 -26 -93t-57 -38t-54 7q-23 8 -40 20q-36 26 -36 70t27 81z" />
    <glyph glyph-name="Gcaron" unicode="&#x1e6;" horiz-adv-x="1300" 
d="M102 505v89q0 378 158 580t454 201q213 0 363 -57l21 -270l-105 -22l-82 193q-93 27 -200 27q-200 0 -320 -88q-99 -200 -99 -475v-133q0 -211 121 -327t290 -116q98 0 199 36v361l-153 34l20 108h455l20 -108l-152 -34v-399q-207 -127 -454 -127q-248 0 -392 135
t-144 392zM352 1784l125 10l238 -192l231 192l95 -10v-32l-283 -292l-133 10l-273 282v32z" />
    <glyph glyph-name="gcaron" unicode="&#x1e7;" horiz-adv-x="1075" 
d="M747 764q0 105 -66 164t-158 59t-156 -30q-40 -103 -40 -213v-38q0 -98 71 -158t159 -60t150 30q40 75 40 208v38zM252 -215q0 -71 74 -97t204 -25q230 0 350 51q37 52 37 134q-1 82 -73 117t-250 35h-183q-159 -118 -159 -215zM547 1107q67 0 153 -22h314l18 -107h-208
l-4 -10q43 -29 75 -87t32 -121v-25q1 -167 -109 -267t-291 -100q-65 0 -119 12q-121 -112 -121 -166t71 -54h224q238 0 356 -69t119 -224q-1 -155 -139 -239t-376 -85q-238 0 -344 47t-106 151q0 132 209 268q-154 30 -154 150t173 250q-86 41 -130 111t-43 150v26
q0 196 109 304t291 107zM258 1660l125 10l193 -252l186 252l95 -10v-32l-233 -373l-133 10l-233 363v32z" />
    <glyph glyph-name="jcaron" unicode="&#x1f0;" horiz-adv-x="569" 
d="M232 -86v1039l-183 34l20 98l343 22v-1154q0 -329 -180 -391q-57 -20 -151 -19q-94 0 -185 37l36 131q143 -41 260 -41q40 87 40 244zM-20 1660l125 10l193 -252l186 252l95 -10v-32l-233 -373l-133 10l-233 363v32z" />
    <glyph glyph-name="Gacute" unicode="&#x1f4;" horiz-adv-x="1300" 
d="M102 505v89q0 378 158 580t454 201q213 0 363 -57l21 -270l-105 -22l-82 193q-93 27 -200 27q-200 0 -320 -88q-99 -200 -99 -475v-133q0 -211 121 -327t290 -116q98 0 199 36v361l-153 34l20 108h455l20 -108l-152 -34v-399q-207 -127 -454 -127q-248 0 -392 135
t-144 392zM553 1503l298 281l192 -10v-66l-375 -248l-115 11v32z" />
    <glyph glyph-name="gacute" unicode="&#x1f5;" horiz-adv-x="1075" 
d="M747 764q0 105 -66 164t-158 59t-156 -30q-40 -103 -40 -213v-38q0 -98 71 -158t159 -60t150 30q40 75 40 208v38zM252 -215q0 -71 74 -97t204 -25q230 0 350 51q37 52 37 134q-1 82 -73 117t-250 35h-183q-159 -118 -159 -215zM547 1107q67 0 153 -22h314l18 -107h-208
l-4 -10q43 -29 75 -87t32 -121v-25q1 -167 -109 -267t-291 -100q-65 0 -119 12q-121 -112 -121 -166t71 -54h224q238 0 356 -69t119 -224q-1 -155 -139 -239t-376 -85q-238 0 -344 47t-106 151q0 132 209 268q-154 30 -154 150t173 250q-86 41 -130 111t-43 150v26
q0 196 109 304t291 107zM472 1307l203 363l182 -10v-66l-280 -329l-105 10v32z" />
    <glyph glyph-name="Aringacute" unicode="&#x1fa;" horiz-adv-x="1218" 
d="M389 535h402l-194 569h-10zM-8 98l108 29l440 1226h149l429 -1226l108 -29l-20 -98h-385l-20 98l128 29l-94 279h-491l-96 -279l128 -29l-20 -98h-344zM531 1610q1 -56 27 -84t67 -28t75 19q9 45 9 89q-1 44 -27 73q-26 28 -63 28t-79 -19q-9 -22 -9 -78zM431 1577
q0 93 57 150t142 57q123 0 164 -84q14 -28 14 -74q0 -98 -56 -152t-137 -54t-119 28q-37 28 -51 56t-14 73zM534 1882l298 281l192 -10v-66l-375 -248l-115 11v32z" />
    <glyph glyph-name="aringacute" unicode="&#x1fb;" horiz-adv-x="1150" 
d="M759 487q-310 0 -443 -72q-28 -65 -28 -144t55 -126t137 -47t155 38t124 89v262zM108 237q0 370 651 370v95q-1 150 -55 218t-190 67q-75 0 -150 -15l-60 -212l-98 10v283q154 54 343 54q390 0 390 -372v-603l173 -34l-20 -98l-255 -22l-58 177q-145 -177 -360 -177
q-139 0 -225 70t-86 189zM500 1374q28 -36 56 -36q57 0 95 19q9 50 9 95q0 74 -28 110t-64 36t-77 -19q-19 -32 -19 -101q0 -68 28 -104zM367 1444q0 105 60 165q60 61 149 61q129 0 173 -93q15 -31 15 -85q0 -110 -58 -169q-58 -58 -150 -58q-130 1 -174 95q-15 32 -15 84z
M503 1804l203 363l182 -10v-66l-280 -329l-105 10v32z" />
    <glyph glyph-name="AEacute" unicode="&#x1fc;" horiz-adv-x="1782" 
d="M820 535v634l-326 -634h326zM1010 1224v-452h357l34 122l99 -20v-334l-99 -20l-34 123h-357v-514h481l83 193l104 -23l-24 -299h-967l-20 98l153 34v274h-392l-144 -281l108 -27l-20 -98h-364l-20 98l130 31l638 1224h868l24 -300l-103 -22l-83 193h-452zM934 1503
l298 281l192 -10v-66l-375 -248l-115 11v32z" />
    <glyph glyph-name="aeacute" unicode="&#x1fd;" horiz-adv-x="1621" 
d="M1367 643q-1 263 -107 323q-38 22 -87 21q-113 0 -194 -60q-44 -113 -57 -284h445zM642 149q77 51 118 97q-21 73 -21 168v73q-311 0 -433 -72q-28 -60 -28 -124q0 -63 16 -97t42 -55q52 -41 141 -41q88 0 165 51zM409 -22q-143 0 -227 68t-84 191q0 370 641 370v95
q0 140 -43 253q-87 32 -167 32t-175 -15l-60 -212l-98 10v283q133 54 303 54q269 0 363 -159q121 159 327 159q207 0 287 -111t81 -353v-120h-638v-76q-1 -177 101 -273q81 -76 192 -76q152 0 292 65v-96q-147 -89 -347 -89q-277 0 -371 200q-86 -126 -238 -178
q-64 -22 -139 -22zM786 1307l203 363l182 -10v-66l-280 -329l-105 10v32z" />
    <glyph glyph-name="Oslashacute" unicode="&#x1fe;" horiz-adv-x="1345" 
d="M1053 783q0 236 -105 349q-18 21 -40 37l-328 -1048q53 -14 127 -14q73 1 151 27t127 62q68 212 68 454v133zM644 1246q-80 0 -159 -28t-124 -60q-69 -212 -69 -455v-133q0 -263 161 -387l328 1047q-57 16 -137 16zM1243 827v-78q0 -377 -144 -574t-436 -197
q-67 0 -126 8l-67 -216h-140v20l71 228q-299 108 -299 507v79q0 389 148 580t433 191q75 0 140 -10l55 175h140v-20l-60 -191q285 -112 285 -502zM522 1503l298 281l192 -10v-66l-375 -248l-115 11v32z" />
    <glyph glyph-name="oslashacute" unicode="&#x1ff;" horiz-adv-x="1114" 
d="M276 572v-119q0 -176 94 -270l247 794q-94 23 -170 -1q-75 -24 -111 -49q-60 -136 -60 -355zM838 622q0 171 -79 266q-13 17 -29 30l-251 -805q45 -15 97 -15q106 0 202 60q60 126 60 345v119zM1018 656v-94q0 -264 -126 -424t-345 -160q-58 0 -108 8l-66 -212h-125v20
l71 227q-223 102 -223 398v93q0 276 126 436t335 159q52 0 99 -7l66 211h125v-20l-70 -223q241 -103 241 -412zM486 1307l203 363l182 -10v-66l-280 -329l-105 10v32z" />
    <glyph glyph-name="Scommaaccent" unicode="&#x218;" horiz-adv-x="1066" 
d="M980 345q0 -165 -128 -266t-354 -101q-225 0 -368 63l-21 259l117 25l82 -194q81 -24 205 -24t247 38q30 75 30 151t-59 146q-59 68 -284 202t-281 216t-57 179q-1 146 125 241t329 95t350 -52l21 -270l-105 -22l-82 193q-82 22 -201 22t-228 -38q-19 -63 -19 -134
q-1 -70 59 -130t261 -182q189 -110 275 -202t86 -215zM454 -128h166v-42l-63 -341h-103v383z" />
    <glyph glyph-name="scommaaccent" unicode="&#x219;" horiz-adv-x="970" 
d="M890 271q0 -129 -114 -211t-308 -82q-192 0 -332 70l-10 240l109 20l58 -187q75 -23 185 -23t212 28q20 42 20 106t-64 120t-239 149q-175 92 -232 161t-57 158q0 125 105 206t295 81t324 -68l9 -241l-109 -20l-59 189q-73 20 -173 20t-190 -28q-22 -39 -22 -94
q0 -53 46 -101t240 -148t250 -176t56 -169zM412 -128h166v-42l-63 -341h-103v383z" />
    <glyph glyph-name="uni021A" unicode="&#x21a;" horiz-adv-x="1139" 
d="M475 1224h-300l-62 -170l-99 9l15 290h1082l14 -290l-98 -9l-63 170h-299v-1092l153 -34l-20 -98h-456l-20 98l153 34v1092zM493 -128h166v-42l-63 -341h-103v383z" />
    <glyph glyph-name="uni021B" unicode="&#x21b;" horiz-adv-x="742" 
d="M189 270v684l-161 32l20 99h141l73 293l107 -20v-273h290l20 -99l-310 -32v-645q-1 -107 31 -159t113 -52t167 39v-94q-100 -65 -232 -65q-133 0 -196 72t-63 220zM375 -128h166v-42l-63 -341h-103v383z" />
    <glyph glyph-name="uni0237" unicode="&#x237;" horiz-adv-x="569" 
d="M232 -86v1039l-183 34l20 98l343 22v-1154q0 -329 -118.5 -369.5t-212.5 -40.5t-185 37l36 131q143 -41 260 -41q40 87 40 244z" />
    <glyph glyph-name="uni0251" unicode="&#x251;" horiz-adv-x="1162" 
d="M278 461q0 -271 61 -308t105 -37t84 20t74 51t73 85t47 70l39 87v531q-29 15 -96 24t-109 9q-106 0 -205 -50q-73 -139 -73 -351v-131zM575 1107q139 0 366 -78v-897l146 -34v-98l-234 -22l-92 78v216q-35 -83 -128.5 -188.5t-223.5 -105.5q-162 0 -236.5 90t-74.5 305
v188q0 239 84 349t169 153.5t224 43.5z" />
    <glyph glyph-name="uni0259" unicode="&#x259;" horiz-adv-x="1068" 
d="M269 442q0 -246 89 -295t168 -49q124 0 205 54q41 119 53 290h-515zM484 987q-167 0 -322 -65v96q160 89 363 89t322.5 -114t119.5 -322v-83q0 -468 -178 -539t-299 -71q-229 0 -315 113.5t-86 350.5v120h698v76q0 170 -98 259.5t-205 89.5z" />
    <glyph glyph-name="uni0261" unicode="&#x261;" horiz-adv-x="1059" 
d="M278 461q0 -271 61 -308t105 -37t84 20t74 51t73 85t47 70l39 87v531q-29 15 -96 24t-109 9q-106 0 -205 -50q-73 -139 -73 -351v-131zM298 -309q59 -28 150 -28q126 0 215 50q98 152 98 376v183q-35 -83 -128.5 -188.5t-223.5 -105.5q-162 0 -236.5 90t-74.5 305v188
q0 239 117 392.5t336 153.5q163 0 390 -78v-900q0 -285 -130 -435.5t-342 -150.5q-213 0 -324 52l23 267l104 10z" />
    <glyph glyph-name="uni02BB" unicode="&#x2bb;" horiz-adv-x="394" 
d="M175 1284q0 -30 48 -43q48 -12 76 -35.5t28 -53.5q0 -61 -27 -109t-65 -48q-136 0 -158 68.5t-22 120.5q0 108 39 192t158 186l62 -73q-139 -116 -139 -205z" />
    <glyph glyph-name="uni02BC" unicode="&#x2bc;" horiz-adv-x="404" 
d="M249 1273q0 30 -48 43q-48 12 -76 36t-28 54q0 61 27 108.5t65 47.5q93 0 136 -46q44 -46 44 -148q0 -103 -39 -187t-158 -186l-62 73q139 116 139 205z" />
    <glyph glyph-name="uni02BE" unicode="&#x2be;" horiz-adv-x="548" 
d="M368 1455q0 143 -94 143v72q136 0 167 -70t31 -124q0 -105 -55.5 -158t-142.5 -53v73q47 0 85 19q9 50 9 98z" />
    <glyph glyph-name="uni02BF" unicode="&#x2bf;" horiz-adv-x="548" 
d="M274 1265q-138 0 -168.5 70.5t-30.5 122.5q0 101 57 156.5t142 55.5v-72q-41 0 -75 -19q-19 -28 -19 -80q0 -86 27 -123.5t67 -37.5v-73z" />
    <glyph glyph-name="circumflex" unicode="&#x2c6;" horiz-adv-x="999" 
d="M799 1275l-125 -10l-193 252l-186 -252l-95 10v32l233 373l133 -10l233 -363v-32z" />
    <glyph glyph-name="caron" unicode="&#x2c7;" horiz-adv-x="999" 
d="M200 1660l125 10l193 -252l186 252l95 -10v-32l-233 -373l-133 10l-233 363v32z" />
    <glyph glyph-name="uni02C8" unicode="&#x2c8;" horiz-adv-x="718" 
d="M300 1670h118v-404h-118v404z" />
    <glyph glyph-name="uni02C9" unicode="&#x2c9;" horiz-adv-x="1030" 
d="M170 1473h710l-21 -120h-709z" />
    <glyph glyph-name="uni02CA" unicode="&#x2ca;" horiz-adv-x="1052" 
d="M397 1307l203 363l182 -10v-66l-280 -329l-105 10v32z" />
    <glyph glyph-name="uni02CB" unicode="&#x2cb;" horiz-adv-x="1052" 
d="M549 1275l-118 -10l-290 329v66l175 10l233 -363v-32z" />
    <glyph glyph-name="uni02CC" unicode="&#x2cc;" horiz-adv-x="718" 
d="M300 -189h118v-404h-118v404z" />
    <glyph glyph-name="breve" unicode="&#x2d8;" horiz-adv-x="1012" 
d="M506 1295q-133 0 -219.5 91t-86.5 206l97 10q0 -47 37.5 -90.5t77 -65t115.5 -21.5t132 65t56 112l97 -10q0 -115 -86.5 -206t-219.5 -91z" />
    <glyph glyph-name="dotaccent" unicode="&#x2d9;" horiz-adv-x="736" 
d="M279.5 1498.5q29.5 41.5 63.5 41.5q63 0 103 -28.5t40 -63.5q0 -63 -29.5 -104t-63.5 -41t-59 8t-54.5 29t-29.5 69t29.5 89.5z" />
    <glyph glyph-name="ring" unicode="&#x2da;" horiz-adv-x="797" 
d="M333 1373.5q28 -35.5 56 -35.5q57 0 95 19q9 50 9 95q0 74 -28 110t-64 36t-77 -19q-19 -32 -19 -101t28 -104.5zM200 1444q0 105 60 165.5t149 60.5q129 0 158.5 -62t29.5 -116q0 -110 -58 -168.5t-150 -58.5q-130 0 -159.5 63.5t-29.5 115.5z" />
    <glyph glyph-name="ogonek" unicode="&#x2db;" horiz-adv-x="768" 
d="M408 -357q65 0 160 80v-93q-84 -87 -210 -87q-79 0 -118.5 28.5t-39.5 98.5q0 125 88 234t235 213v-117q-81 -58 -131.5 -139t-50.5 -136t18 -68.5t49 -13.5z" />
    <glyph glyph-name="tilde" unicode="&#x2dc;" horiz-adv-x="1101" 
d="M751 1404q83 0 83 120l117 10v-47q0 -106 -53.5 -167.5t-140.5 -61.5t-233.5 66t-172.5 66q-50 0 -71 -21t-21 -77l-109 -10v25q0 113 58.5 171t151.5 58t184.5 -45.5t134.5 -66t72 -20.5z" />
    <glyph glyph-name="hungarumlaut" unicode="&#x2dd;" horiz-adv-x="1063" 
d="M528 1307l203 363l182 -10v-66l-280 -329l-105 10v32zM150 1307l203 363l182 -10v-66l-280 -329l-105 10v32z" />
    <glyph glyph-name="uni02F3" unicode="&#x2f3;" horiz-adv-x="476" 
d="M158 -464.5q28 -35.5 56 -35.5q57 0 95 19q9 49 9 95q0 74 -28 110t-64 36t-77 -19q-19 -32 -19 -101t28 -104.5zM25 -394q0 105 59.5 165.5t149.5 60.5q129 0 158.5 -62t29.5 -116q0 -110 -58 -168.5t-150 -58.5q-130 0 -159.5 63.5t-29.5 115.5z" />
    <glyph glyph-name="gravecomb" unicode="&#x300;" horiz-adv-x="0" 
d="M-318 1275l-118 -10l-290 329v66l175 10l233 -363v-32z" />
    <glyph glyph-name="acutecomb" unicode="&#x301;" horiz-adv-x="0" 
d="M-655 1307l203 363l182 -10v-66l-280 -329l-105 10v32z" />
    <glyph glyph-name="uni0302" unicode="&#x302;" horiz-adv-x="0" 
d="M-148 1275l-125 -10l-193 252l-186 -252l-95 10v32l233 373l133 -10l233 -363v-32z" />
    <glyph glyph-name="tildecomb" unicode="&#x303;" horiz-adv-x="0" 
d="M-414 1404q83 0 83 120l117 10v-47q0 -106 -53.5 -167.5t-140.5 -61.5t-233.5 66t-172.5 66q-50 0 -71 -21t-21 -77l-109 -10v25q0 113 58.5 171t151.5 58t184.5 -45.5t134.5 -66t72 -20.5z" />
    <glyph glyph-name="uni0304" unicode="&#x304;" horiz-adv-x="0" 
d="M-860 1473h710l-21 -120h-709z" />
    <glyph glyph-name="uni0306" unicode="&#x306;" horiz-adv-x="0" 
d="M-426 1295q-133 0 -219.5 91t-86.5 206l97 10q0 -47 37.5 -90.5t77 -65t115.5 -21.5t132 65t56 112l97 -10q0 -115 -86.5 -206t-219.5 -91z" />
    <glyph glyph-name="uni0307" unicode="&#x307;" horiz-adv-x="0" 
d="M-327.5 1498.5q29.5 41.5 63.5 41.5q63 0 103 -28.5t40 -63.5q0 -63 -29.5 -104t-63.5 -41t-59 8t-54.5 29t-29.5 69t29.5 89.5z" />
    <glyph glyph-name="uni0308" unicode="&#x308;" horiz-adv-x="0" 
d="M-227 1472.5q26 37.5 57 37.5q58 0 94 -26.5t36 -57.5q0 -56 -26.5 -93.5t-57.5 -37.5t-54 7t-49 26.5t-26 62.5q0 44 26 81.5zM-626.5 1472.5q26.5 37.5 57.5 37.5q58 0 93.5 -26.5t35.5 -57.5q0 -55 -26 -93t-57 -38t-54 7t-49.5 26.5t-26.5 63.5q0 43 26.5 80.5z" />
    <glyph glyph-name="hookabovecomb" unicode="&#x309;" horiz-adv-x="0" 
d="M-386 1670q193 0 193 -130q0 -51 -27.5 -85.5t-73.5 -67.5t-55.5 -46t-9.5 -31t10 -39l-92 -27q-35 46 -35 80t14.5 57t47.5 47q58 42 76.5 62.5t18.5 45.5q0 50 -66 50q-45 0 -85 -18l-24 -81l-78 5v123q88 55 186 55z" />
    <glyph glyph-name="uni030A" unicode="&#x30a;" horiz-adv-x="0" 
d="M-340 1373.5q28 -35.5 56 -35.5q57 0 95 19q9 50 9 95q0 74 -28 110t-64 36t-77 -19q-19 -32 -19 -101t28 -104.5zM-473 1444q0 105 59.5 165.5t149.5 60.5q129 0 158.5 -62t29.5 -116q0 -110 -58 -168.5t-150 -58.5q-130 0 -159.5 63.5t-29.5 115.5z" />
    <glyph glyph-name="uni030B" unicode="&#x30b;" horiz-adv-x="0" 
d="M-484 1307l203 363l182 -10v-66l-280 -329l-105 10v32zM-862 1307l203 363l182 -10v-66l-280 -329l-105 10v32z" />
    <glyph glyph-name="uni030C" unicode="&#x30c;" horiz-adv-x="0" 
d="M-761 1660l125 10l193 -252l186 252l95 -10v-32l-233 -373l-133 10l-233 363v32z" />
    <glyph glyph-name="uni030F" unicode="&#x30f;" horiz-adv-x="1052" 
d="M418 1275l-118 -10l-290 329v66l175 10l233 -363v-32zM808 1275l-118 -10l-290 329v66l175 10l233 -363v-32z" />
    <glyph glyph-name="uni031B" unicode="&#x31b;" horiz-adv-x="0" 
d="M-283 1432q87 -109 87 -220t-100 -194t-350 -160v102q158 62 201 96.5t56 62.5t13 64q0 91 -67 162v30z" />
    <glyph glyph-name="dotbelowcomb" unicode="&#x323;" horiz-adv-x="0" 
d="M-458.5 -229.5q29.5 41.5 63.5 41.5q63 0 103 -28.5t40 -63.5q0 -63 -29.5 -104t-63.5 -41t-59 8t-54.5 29t-29.5 69t29.5 89.5z" />
    <glyph glyph-name="uni0324" unicode="&#x324;" horiz-adv-x="0" 
d="M-336 -177.5q26 37.5 57 37.5q58 0 94 -26.5t36 -57.5q0 -56 -26.5 -93.5t-57.5 -37.5t-54 7t-49 26.5t-26 62.5q0 44 26 81.5zM-735.5 -177.5q26.5 37.5 57.5 37.5q58 0 93.5 -26.5t35.5 -57.5q0 -55 -26 -93t-57 -38t-54 7t-49.5 26.5t-26.5 63.5q0 43 26.5 80.5z" />
    <glyph glyph-name="uni0326" unicode="&#x326;" horiz-adv-x="0" 
d="M-378 -128h166v-42l-63 -341h-103v383z" />
    <glyph glyph-name="uni0327" unicode="&#x327;" horiz-adv-x="0" 
d="M-593 -275q0 61 -161 99l-34 55l61 158h132l-49 -135q94 -25 128.5 -52.5t49 -56t14.5 -89.5t-61.5 -111t-162.5 -50q-100 0 -194 47v93q98 -40 166 -40t97 13q14 33 14 69z" />
    <glyph glyph-name="uni0328" unicode="&#x328;" horiz-adv-x="0" 
d="M-653 -357q65 0 160 80v-93q-84 -87 -210 -87q-79 0 -118.5 28.5t-39.5 98.5q0 125 88 234t235 213v-117q-81 -58 -131.5 -139t-50.5 -136t18 -68.5t49 -13.5z" />
    <glyph glyph-name="uni032E" unicode="&#x32e;" horiz-adv-x="0" 
d="M-502 -355q97 0 153 65t56 112l97 -10q0 -115 -86.5 -206t-219.5 -91t-219.5 91t-86.5 206l97 10q0 -47 56 -112t153 -65z" />
    <glyph glyph-name="uni0331" unicode="&#x331;" horiz-adv-x="0" 
d="M-854 -194h710l-20 -120h-710z" />
    <glyph glyph-name="uni03BC" unicode="&#x3bc;" horiz-adv-x="1242" 
d="M371 403q0 -248 90.5 -276.5t144.5 -28.5q141 0 257 127v728l-183 34l20 98l343 22v-975l153 -34l-20 -98q-60 -22 -124 -22q-116 0 -169 178q-65 -79 -143.5 -128.5t-207.5 -49.5q-130 0 -200 89l-10 -6l49 -496l-180 -22v1410l-153 34l20 98l313 22v-704z" />
    <glyph glyph-name="pi" unicode="&#x3c0;" horiz-adv-x="1492" 
d="M561 1107q76 0 306.5 -16t310.5 -16t127 10l38 72l78 -22q-16 -105 -70 -172.5t-189 -67.5h-31v-725l186 -34l-20 -136q-44 -22 -100 -22q-110 0 -178 62.5t-68 174.5v688q-147 9 -242 16q-19 -473 -89 -671t-97 -248l-181 -22l-20 90q143 213 198 449.5t67 408.5l-41 1
q-96 0 -149.5 -26.5t-86.5 -109.5l-74 17q33 150 105.5 224.5t219.5 74.5z" />
    <glyph glyph-name="uni1E00" unicode="&#x1e00;" horiz-adv-x="1218" 
d="M389 535h402l-194 569h-10zM-8 98l108 29l440 1226h149l429 -1226l108 -29l-20 -98h-385l-20 98l128 29l-94 279h-491l-96 -279l128 -29l-20 -98h-344zM537 -464q28 -36 56 -36q57 0 95 19q9 50 9 95q0 74 -28 110q-47 59 -141 17q-19 -32 -19 -101q0 -68 28 -104z
M404 -394q0 105 60 165q60 61 149 61q129 0 173 -93q15 -31 15 -85q0 -110 -58 -169q-58 -58 -150 -58q-130 1 -174 95q-15 32 -15 84z" />
    <glyph glyph-name="uni1E01" unicode="&#x1e01;" horiz-adv-x="1150" 
d="M759 487q-310 0 -443 -72q-28 -65 -28 -144t55 -126t137 -47t155 38t124 89v262zM108 237q0 370 651 370v95q-1 150 -55 218t-190 67q-75 0 -150 -15l-60 -212l-98 10v283q154 54 343 54q390 0 390 -372v-603l173 -34l-20 -98l-255 -22l-58 177q-145 -177 -360 -177
q-139 0 -225 70t-86 189zM474 -464q28 -36 56 -36q57 0 95 19q9 50 9 95q0 74 -28 110q-47 59 -141 17q-19 -32 -19 -101q0 -68 28 -104zM341 -394q0 105 60 165q60 61 149 61q129 0 173 -93q15 -31 15 -85q0 -110 -58 -169q-58 -58 -150 -58q-130 1 -174 95q-15 32 -15 84z
" />
    <glyph glyph-name="Ddotaccent" unicode="&#x1e0a;" horiz-adv-x="1362" 
d="M421 1224v-1095h211q156 0 278 49q62 77 104 195t42 249v94q0 240 -116 374t-341 134h-178zM638 1353q302 1 455 -151t153 -437v-78q0 -319 -155 -503t-430 -184h-563l-20 98l153 34v1089l-153 34l20 98h540zM496 1696q29 41 64 41q63 -1 103 -29t40 -63q0 -63 -29 -104
t-64 -41q-34 0 -59 8t-44 22q-40 28 -40 76q0 49 29 90z" />
    <glyph glyph-name="uni1E0C" unicode="&#x1e0c;" horiz-adv-x="1362" 
d="M421 1224v-1095h211q156 0 278 49q62 77 104 195t42 249v94q0 240 -116 374t-341 134h-178zM638 1353q302 1 455 -151t153 -437v-78q0 -319 -155 -503t-430 -184h-563l-20 98l153 34v1089l-153 34l20 98h540zM498 -229q29 41 64 41q63 0 103 -28t40 -64q0 -63 -29 -104
t-64 -41q-34 0 -59 8q-25 7 -44 21q-40 28 -40 77t29 90z" />
    <glyph glyph-name="uni1E0D" unicode="&#x1e0d;" horiz-adv-x="1186" 
d="M278 553v-119q0 -164 70 -250t187 -86q73 0 145 40t119 87v735q-130 27 -219 27q-156 0 -252 -67q-50 -163 -50 -367zM98 413v93q0 281 126 441t352 160q90 0 223 -24v325l-153 34l20 98l313 22v-1430l153 -34l-20 -98l-235 -22l-58 177q-139 -181 -339 -177
q-178 0 -280 112t-102 323zM458 -229q29 41 64 41q63 0 103 -28t40 -64q0 -63 -29 -104t-64 -41q-34 0 -59 8q-25 7 -44 21q-40 28 -40 77t29 90z" />
    <glyph glyph-name="uni1E0E" unicode="&#x1e0e;" horiz-adv-x="1362" 
d="M421 1224v-1095h211q156 0 278 49q62 77 104 195t42 249v94q0 240 -116 374t-341 134h-178zM638 1353q302 1 455 -151t153 -437v-78q0 -319 -155 -503t-430 -184h-563l-20 98l153 34v1089l-153 34l20 98h540zM234 -194h710l-20 -120h-710z" />
    <glyph glyph-name="uni1E0F" unicode="&#x1e0f;" horiz-adv-x="1186" 
d="M278 553v-119q0 -164 70 -250t187 -86q73 0 145 40t119 87v735q-130 27 -219 27q-156 0 -252 -67q-50 -163 -50 -367zM98 413v93q0 281 126 441t352 160q90 0 223 -24v325l-153 34l20 98l313 22v-1430l153 -34l-20 -98l-235 -22l-58 177q-139 -181 -339 -177
q-178 0 -280 112t-102 323zM194 -194h710l-20 -120h-710z" />
    <glyph glyph-name="uni1E20" unicode="&#x1e20;" horiz-adv-x="1300" 
d="M102 505v89q0 378 158 580t454 201q213 0 363 -57l21 -270l-105 -22l-82 193q-93 27 -200 27q-200 0 -320 -88q-99 -200 -99 -475v-133q0 -211 121 -327t290 -116q98 0 199 36v361l-153 34l20 108h455l20 -108l-152 -34v-399q-207 -127 -454 -127q-248 0 -392 135
t-144 392zM335 1660h771l-20 -120h-770z" />
    <glyph glyph-name="uni1E21" unicode="&#x1e21;" horiz-adv-x="1075" 
d="M747 764q0 105 -66 164t-158 59t-156 -30q-40 -103 -40 -213v-38q0 -98 71 -158t159 -60t150 30q40 75 40 208v38zM252 -215q0 -71 74 -97t204 -25q230 0 350 51q37 52 37 134q-1 82 -73 117t-250 35h-183q-159 -118 -159 -215zM547 1107q67 0 153 -22h314l18 -107h-208
l-4 -10q43 -29 75 -87t32 -121v-25q1 -167 -109 -267t-291 -100q-65 0 -119 12q-121 -112 -121 -166t71 -54h224q238 0 356 -69t119 -224q-1 -155 -139 -239t-376 -85q-238 0 -344 47t-106 151q0 132 209 268q-154 30 -154 150t173 250q-86 41 -130 111t-43 150v26
q0 196 109 304t291 107zM218 1473h711l-20 -120h-710z" />
    <glyph glyph-name="uni1E24" unicode="&#x1e24;" horiz-adv-x="1459" 
d="M415 778h624v443l-152 34l20 98h456l20 -98l-154 -34v-1089l154 -34l-20 -98h-456l-20 98l152 34v517h-624v-517l152 -34l-20 -98h-455l-20 98l153 34v1089l-153 34l20 98h455l20 -98l-152 -34v-443zM640 -229q29 41 64 41q63 0 103 -28t40 -64q0 -63 -29 -104t-64 -41
q-34 0 -59 8q-25 7 -44 21q-40 28 -40 77t29 90z" />
    <glyph glyph-name="uni1E25" unicode="&#x1e25;" horiz-adv-x="1324" 
d="M750 1107q190 0 274 -94t84 -287v-594l153 -34l-20 -98h-446l-20 98l153 34v560q0 159 -54 227t-172 68q-76 0 -154 -43t-132 -106v-706l153 -34l-20 -98h-446l-20 98l153 34v1276l-153 34l20 98l313 22v-615l14 -6q131 166 320 166zM586 -229q29 41 64 41q63 0 103 -28
t40 -64q0 -63 -29 -104t-64 -41q-34 0 -59 8q-25 7 -44 21q-40 28 -40 77t29 90z" />
    <glyph glyph-name="uni1E2A" unicode="&#x1e2a;" horiz-adv-x="1459" 
d="M415 778h624v443l-152 34l20 98h456l20 -98l-154 -34v-1089l154 -34l-20 -98h-456l-20 98l152 34v517h-624v-517l152 -34l-20 -98h-455l-20 98l153 34v1089l-153 34l20 98h455l20 -98l-152 -34v-443zM733 -355q97 0 153 65t56 112l97 -10q0 -115 -87 -206t-219 -91
q-133 0 -219 91q-87 91 -87 206l97 10q0 -47 38 -91q74 -86 171 -86z" />
    <glyph glyph-name="uni1E2B" unicode="&#x1e2b;" horiz-adv-x="1324" 
d="M750 1107q190 0 274 -94t84 -287v-594l153 -34l-20 -98h-446l-20 98l153 34v560q0 159 -54 227t-172 68q-76 0 -154 -43t-132 -106v-706l153 -34l-20 -98h-446l-20 98l153 34v1276l-153 34l20 98l313 22v-615l14 -6q131 166 320 166zM679 -355q97 0 153 65t56 112l97 -10
q0 -115 -87 -206t-219 -91q-133 0 -219 91q-87 91 -87 206l97 10q0 -47 38 -91q74 -86 171 -86z" />
    <glyph glyph-name="uni1E36" unicode="&#x1e36;" horiz-adv-x="1018" 
d="M417 129h336l83 193l104 -22l-25 -300h-821l-20 98l153 34v1089l-153 34l20 98h455l20 -98l-152 -34v-1092zM423 -229q29 41 64 41q63 0 103 -28t40 -64q0 -63 -29 -104t-64 -41q-34 0 -59 8q-25 7 -44 21q-40 28 -40 77t29 90z" />
    <glyph glyph-name="uni1E37" unicode="&#x1e37;" horiz-adv-x="642" 
d="M246 1408l-153 34l20 98l313 22v-1430l153 -34l-20 -98h-446l-20 98l153 34v1276zM245 -229q29 41 64 41q63 0 103 -28t40 -64q0 -63 -29 -104t-64 -41q-34 0 -59 8q-25 7 -44 21q-40 28 -40 77t29 90z" />
    <glyph glyph-name="uni1E38" unicode="&#x1e38;" horiz-adv-x="1018" 
d="M417 129h336l83 193l104 -22l-25 -300h-821l-20 98l153 34v1089l-153 34l20 98h455l20 -98l-152 -34v-1092zM423 -229q29 41 64 41q63 0 103 -28t40 -64q0 -63 -29 -104t-64 -41q-34 0 -59 8q-25 7 -44 21q-40 28 -40 77t29 90zM-40 1660h771l-20 -120h-770z" />
    <glyph glyph-name="uni1E39" unicode="&#x1e39;" horiz-adv-x="642" 
d="M246 1408l-153 34l20 98l313 22v-1430l153 -34l-20 -98h-446l-20 98l153 34v1276zM245 -229q29 41 64 41q63 0 103 -28t40 -64q0 -63 -29 -104t-64 -41q-34 0 -59 8q-25 7 -44 21q-40 28 -40 77t29 90zM-72 1870h771l-20 -120h-770z" />
    <glyph glyph-name="uni1E3A" unicode="&#x1e3a;" horiz-adv-x="1018" 
d="M417 129h336l83 193l104 -22l-25 -300h-821l-20 98l153 34v1089l-153 34l20 98h455l20 -98l-152 -34v-1092zM159 -194h710l-20 -120h-710z" />
    <glyph glyph-name="uni1E3B" unicode="&#x1e3b;" horiz-adv-x="642" 
d="M246 1408l-153 34l20 98l313 22v-1430l153 -34l-20 -98h-446l-20 98l153 34v1276zM-19 -194h710l-20 -120h-710z" />
    <glyph glyph-name="uni1E3E" unicode="&#x1e3e;" horiz-adv-x="1922" 
d="M1504 1210h-16l-492 -1210h-105l-510 1210h-16v-1078l152 -34l-20 -98h-405l-20 98l153 34v1089l-153 34l20 98h427l436 -1042h16l418 1042h437l20 -98l-152 -34v-1089l152 -34l-20 -98h-455l-20 98l153 34v1078zM838 1503l298 281l192 -10v-66l-375 -248l-115 11v32z
" />
    <glyph glyph-name="uni1E3F" unicode="&#x1e3f;" horiz-adv-x="2034" 
d="M713 987q-129 0 -276 -129v-726l153 -34l-20 -98h-446l-20 98l153 34v821l-153 34l20 98l235 22l58 -178q71 86 167 132t196 46q251 0 318 -178q171 178 361 178q191 -1 277 -95t85 -286v-594l153 -34l-20 -98h-446l-20 98l153 34v550q1 155 -55 230t-184 75t-273 -129
v-726l153 -34l-20 -98h-446l-20 98l153 34v550q1 156 -53 230t-183 75zM1007 1307l203 363l182 -10v-66l-280 -329l-105 10v32z" />
    <glyph glyph-name="uni1E42" unicode="&#x1e42;" horiz-adv-x="1922" 
d="M1504 1210h-16l-492 -1210h-105l-510 1210h-16v-1078l152 -34l-20 -98h-405l-20 98l153 34v1089l-153 34l20 98h427l436 -1042h16l418 1042h437l20 -98l-152 -34v-1089l152 -34l-20 -98h-455l-20 98l153 34v1078zM856 -229q29 41 64 41q63 0 103 -28t40 -64
q0 -63 -29 -104t-64 -41q-34 0 -59 8q-25 7 -44 21q-40 28 -40 77t29 90z" />
    <glyph glyph-name="uni1E43" unicode="&#x1e43;" horiz-adv-x="2034" 
d="M713 987q-129 0 -276 -129v-726l153 -34l-20 -98h-446l-20 98l153 34v821l-153 34l20 98l235 22l58 -178q71 86 167 132t196 46q251 0 318 -178q171 178 361 178q191 -1 277 -95t85 -286v-594l153 -34l-20 -98h-446l-20 98l153 34v550q1 155 -55 230t-184 75t-273 -129
v-726l153 -34l-20 -98h-446l-20 98l153 34v550q1 156 -53 230t-183 75zM949 -229q29 41 64 41q63 0 103 -28t40 -64q0 -63 -29 -104t-64 -41q-34 0 -59 8q-25 7 -44 21q-40 28 -40 77t29 90z" />
    <glyph glyph-name="uni1E44" unicode="&#x1e44;" horiz-adv-x="1532" 
d="M1183 136v1085l-154 34l20 98h407l20 -98l-152 -34v-1221h-287l-656 1218h-16v-1086l152 -34l-20 -98h-405l-20 98l153 34v1089l-153 34l20 98h420l655 -1217h16zM704 1696q29 41 64 41q63 -1 103 -29t40 -63q0 -63 -29 -104t-64 -41q-34 0 -59 8t-44 22q-40 28 -40 76
q0 49 29 90z" />
    <glyph glyph-name="uni1E45" unicode="&#x1e45;" horiz-adv-x="1346" 
d="M768 1107q193 1 278 -93t85 -288v-594l153 -34l-20 -98h-446l-20 98l153 34v550q1 153 -49 229t-185 76t-278 -129v-726l153 -34l-20 -98h-446l-20 98l153 34v821l-153 34l20 98l235 22l58 -178q156 178 349 178zM631 1499q29 41 64 41q63 0 103 -28t40 -64
q0 -63 -29 -104t-64 -41q-34 0 -59 8q-25 7 -44 21q-40 28 -40 77t29 90z" />
    <glyph glyph-name="uni1E46" unicode="&#x1e46;" horiz-adv-x="1532" 
d="M1183 136v1085l-154 34l20 98h407l20 -98l-152 -34v-1221h-287l-656 1218h-16v-1086l152 -34l-20 -98h-405l-20 98l153 34v1089l-153 34l20 98h420l655 -1217h16zM666 -229q29 41 64 41q63 0 103 -28t40 -64q0 -63 -29 -104t-64 -41q-34 0 -59 8q-25 7 -44 21
q-40 28 -40 77t29 90z" />
    <glyph glyph-name="uni1E47" unicode="&#x1e47;" horiz-adv-x="1346" 
d="M768 1107q193 1 278 -93t85 -288v-594l153 -34l-20 -98h-446l-20 98l153 34v550q1 153 -49 229t-185 76t-278 -129v-726l153 -34l-20 -98h-446l-20 98l153 34v821l-153 34l20 98l235 22l58 -178q156 178 349 178zM601 -229q29 41 64 41q63 0 103 -28t40 -64
q0 -63 -29 -104t-64 -41q-34 0 -59 8q-25 7 -44 21q-40 28 -40 77t29 90z" />
    <glyph glyph-name="uni1E48" unicode="&#x1e48;" horiz-adv-x="1532" 
d="M1183 136v1085l-154 34l20 98h407l20 -98l-152 -34v-1221h-287l-656 1218h-16v-1086l152 -34l-20 -98h-405l-20 98l153 34v1089l-153 34l20 98h420l655 -1217h16zM402 -194h710l-20 -120h-710z" />
    <glyph glyph-name="uni1E49" unicode="&#x1e49;" horiz-adv-x="1346" 
d="M768 1107q193 1 278 -93t85 -288v-594l153 -34l-20 -98h-446l-20 98l153 34v550q1 153 -49 229t-185 76t-278 -129v-726l153 -34l-20 -98h-446l-20 98l153 34v821l-153 34l20 98l235 22l58 -178q156 178 349 178zM337 -194h710l-20 -120h-710z" />
    <glyph glyph-name="rdotaccent" unicode="&#x1e59;" horiz-adv-x="885" 
d="M682 1107q88 0 149 -42l-25 -283h-112l-26 185q-20 8 -58 8q-38 -1 -89 -37t-82 -80v-726l186 -34l-20 -98h-479l-20 98l153 34v821l-153 34l20 98l235 22l58 -178q95 178 263 178zM404 1499q29 41 64 41q63 0 103 -28t40 -64q0 -63 -29 -104t-64 -41q-34 0 -59 8
q-25 7 -44 21q-40 28 -40 77t29 90z" />
    <glyph glyph-name="uni1E5A" unicode="&#x1e5a;" horiz-adv-x="1205" 
d="M415 1224v-494h123q136 0 251 39q29 119 29 200q0 119 -76 187t-226 68h-101zM584 1353q428 0 428 -343q0 -130 -60 -226t-162 -145l-6 -19l277 -488l146 -34l-20 -98h-249l-340 601h-183v-469l152 -34l-20 -98h-455l-20 98l153 34v1089l-153 34l20 98h492zM546 -229
q29 41 64 41q63 0 103 -28t40 -64q0 -63 -29 -104t-64 -41q-34 0 -59 8q-25 7 -44 21q-40 28 -40 77t29 90z" />
    <glyph glyph-name="uni1E5B" unicode="&#x1e5b;" horiz-adv-x="885" 
d="M682 1107q88 0 149 -42l-25 -283h-112l-26 185q-20 8 -58 8q-38 -1 -89 -37t-82 -80v-726l186 -34l-20 -98h-479l-20 98l153 34v821l-153 34l20 98l235 22l58 -178q95 178 263 178zM269 -229q29 41 64 41q63 0 103 -28t40 -64q0 -63 -29 -104t-64 -41q-34 0 -59 8
q-25 7 -44 21q-40 28 -40 77t29 90z" />
    <glyph glyph-name="uni1E5C" unicode="&#x1e5c;" horiz-adv-x="1205" 
d="M415 1224v-494h123q136 0 251 39q29 119 29 200q0 119 -76 187t-226 68h-101zM584 1353q428 0 428 -343q0 -130 -60 -226t-162 -145l-6 -19l277 -488l146 -34l-20 -98h-249l-340 601h-183v-469l152 -34l-20 -98h-455l-20 98l153 34v1089l-153 34l20 98h492zM546 -229
q29 41 64 41q63 0 103 -28t40 -64q0 -63 -29 -104t-64 -41q-34 0 -59 8q-25 7 -44 21q-40 28 -40 77t29 90zM161 1660h771l-20 -120h-770z" />
    <glyph glyph-name="uni1E5D" unicode="&#x1e5d;" horiz-adv-x="885" 
d="M682 1107q88 0 149 -42l-25 -283h-112l-26 185q-20 8 -58 8q-38 -1 -89 -37t-82 -80v-726l186 -34l-20 -98h-479l-20 98l153 34v821l-153 34l20 98l235 22l58 -178q95 178 263 178zM269 -229q29 41 64 41q63 0 103 -28t40 -64q0 -63 -29 -104t-64 -41q-34 0 -59 8
q-25 7 -44 21q-40 28 -40 77t29 90zM148 1473h710l-21 -120h-709z" />
    <glyph glyph-name="uni1E5E" unicode="&#x1e5e;" horiz-adv-x="1205" 
d="M415 1224v-494h123q136 0 251 39q29 119 29 200q0 119 -76 187t-226 68h-101zM584 1353q428 0 428 -343q0 -130 -60 -226t-162 -145l-6 -19l277 -488l146 -34l-20 -98h-249l-340 601h-183v-469l152 -34l-20 -98h-455l-20 98l153 34v1089l-153 34l20 98h492zM282 -194h710
l-20 -120h-710z" />
    <glyph glyph-name="uni1E5F" unicode="&#x1e5f;" horiz-adv-x="885" 
d="M682 1107q88 0 149 -42l-25 -283h-112l-26 185q-20 8 -58 8q-38 -1 -89 -37t-82 -80v-726l186 -34l-20 -98h-479l-20 98l153 34v821l-153 34l20 98l235 22l58 -178q95 178 263 178zM5 -194h710l-20 -120h-710z" />
    <glyph glyph-name="uni1E60" unicode="&#x1e60;" horiz-adv-x="1066" 
d="M980 345q0 -165 -128 -266t-354 -101q-225 0 -368 63l-21 259l117 25l82 -194q81 -24 205 -24t247 38q30 75 30 151t-59 146q-59 68 -284 202t-281 216t-57 179q-1 146 125 241t329 95t350 -52l21 -270l-105 -22l-82 193q-82 22 -201 22t-228 -38q-19 -63 -19 -134
q-1 -70 59 -130t261 -182q189 -110 275 -202t86 -215zM467 1696q29 41 64 41q63 -1 103 -29t40 -63q0 -63 -29 -104t-64 -41q-34 0 -59 8t-44 22q-40 28 -40 76q0 49 29 90z" />
    <glyph glyph-name="uni1E61" unicode="&#x1e61;" horiz-adv-x="970" 
d="M890 271q0 -129 -114 -211t-308 -82q-192 0 -332 70l-10 240l109 20l58 -187q75 -23 185 -23t212 28q20 42 20 106t-64 120t-239 149q-175 92 -232 161t-57 158q0 125 105 206t295 81t324 -68l9 -241l-109 -20l-59 189q-73 20 -173 20t-190 -28q-22 -39 -22 -94
q0 -53 46 -101t240 -148t250 -176t56 -169zM446 1499q29 41 64 41q63 0 103 -28t40 -64q0 -63 -29 -104t-64 -41q-34 0 -59 8q-25 7 -44 21q-40 28 -40 77t29 90z" />
    <glyph glyph-name="uni1E62" unicode="&#x1e62;" horiz-adv-x="1066" 
d="M980 345q0 -165 -128 -266t-354 -101q-225 0 -368 63l-21 259l117 25l82 -194q81 -24 205 -24t247 38q30 75 30 151t-59 146q-59 68 -284 202t-281 216t-57 179q-1 146 125 241t329 95t350 -52l21 -270l-105 -22l-82 193q-82 22 -201 22t-228 -38q-19 -63 -19 -134
q-1 -70 59 -130t261 -182q189 -110 275 -202t86 -215zM456 -229q29 41 64 41q63 0 103 -28t40 -64q0 -63 -29 -104t-64 -41q-34 0 -59 8q-25 7 -44 21q-40 28 -40 77t29 90z" />
    <glyph glyph-name="uni1E63" unicode="&#x1e63;" horiz-adv-x="970" 
d="M890 271q0 -129 -114 -211t-308 -82q-192 0 -332 70l-10 240l109 20l58 -187q75 -23 185 -23t212 28q20 42 20 106t-64 120t-239 149q-175 92 -232 161t-57 158q0 125 105 206t295 81t324 -68l9 -241l-109 -20l-59 189q-73 20 -173 20t-190 -28q-22 -39 -22 -94
q0 -53 46 -101t240 -148t250 -176t56 -169zM414 -229q29 41 64 41q63 0 103 -28t40 -64q0 -63 -29 -104t-64 -41q-34 0 -59 8q-25 7 -44 21q-40 28 -40 77t29 90z" />
    <glyph glyph-name="uni1E6C" unicode="&#x1e6c;" horiz-adv-x="1139" 
d="M475 1224h-300l-62 -170l-99 9l15 290h1082l14 -290l-98 -9l-63 170h-299v-1092l153 -34l-20 -98h-456l-20 98l153 34v1092zM485 -229q29 41 64 41q63 0 103 -28t40 -64q0 -63 -29 -104t-64 -41q-34 0 -59 8q-25 7 -44 21q-40 28 -40 77t29 90z" />
    <glyph glyph-name="uni1E6D" unicode="&#x1e6d;" horiz-adv-x="742" 
d="M189 270v684l-161 32l20 99h141l73 293l107 -20v-273h290l20 -99l-310 -32v-645q-1 -107 31 -159t113 -52t167 39v-94q-100 -65 -232 -65q-133 0 -196 72t-63 220zM377 -229q29 41 64 41q63 0 103 -28t40 -64q0 -63 -29 -104t-64 -41q-34 0 -59 8q-25 7 -44 21
q-40 28 -40 77t29 90z" />
    <glyph glyph-name="uni1E6E" unicode="&#x1e6e;" horiz-adv-x="1139" 
d="M475 1224h-300l-62 -170l-99 9l15 290h1082l14 -290l-98 -9l-63 170h-299v-1092l153 -34l-20 -98h-456l-20 98l153 34v1092zM223 -194h710l-20 -120h-710z" />
    <glyph glyph-name="uni1E6F" unicode="&#x1e6f;" horiz-adv-x="742" 
d="M189 270v684l-161 32l20 99h141l73 293l107 -20v-273h290l20 -99l-310 -32v-645q-1 -107 31 -159t113 -52t167 39v-94q-100 -65 -232 -65q-133 0 -196 72t-63 220zM113 -194h710l-20 -120h-710z" />
    <glyph glyph-name="Wgrave" unicode="&#x1e80;" horiz-adv-x="1998" 
d="M403 1254l-149 -29l335 -993h16l342 1121h191l334 -1121h16l304 993l-153 29l20 99h363l20 -99l-103 -27l-386 -1227h-191l-333 1107h-16l-337 -1107h-192l-422 1227l-106 27l20 99h407zM1228 1471l-115 -11l-375 248v66l192 10l298 -281v-32z" />
    <glyph glyph-name="wgrave" unicode="&#x1e81;" horiz-adv-x="1733" 
d="M1747 987l-94 -18l-295 -969h-212l-258 828h-16l-251 -828h-212l-323 968l-96 19l20 98h371l20 -98l-131 -20l256 -808h16l268 926h183l273 -926h16l233 808l-134 20l20 98h326zM1011 1275l-118 -10l-290 329v66l175 10l233 -363v-32z" />
    <glyph glyph-name="Wacute" unicode="&#x1e82;" horiz-adv-x="1998" 
d="M403 1254l-149 -29l335 -993h16l342 1121h191l334 -1121h16l304 993l-153 29l20 99h363l20 -99l-103 -27l-386 -1227h-191l-333 1107h-16l-337 -1107h-192l-422 1227l-106 27l20 99h407zM906 1503l298 281l192 -10v-66l-375 -248l-115 11v32z" />
    <glyph glyph-name="wacute" unicode="&#x1e83;" horiz-adv-x="1733" 
d="M1747 987l-94 -18l-295 -969h-212l-258 828h-16l-251 -828h-212l-323 968l-96 19l20 98h371l20 -98l-131 -20l256 -808h16l268 926h183l273 -926h16l233 808l-134 20l20 98h326zM826 1307l203 363l182 -10v-66l-280 -329l-105 10v32z" />
    <glyph glyph-name="Wdieresis" unicode="&#x1e84;" horiz-adv-x="1998" 
d="M403 1254l-149 -29l335 -993h16l342 1121h191l334 -1121h16l304 993l-153 29l20 99h363l20 -99l-103 -27l-386 -1227h-191l-333 1107h-16l-337 -1107h-192l-422 1227l-106 27l20 99h407zM1197 1669q26 38 57 38q57 0 94 -26q36 -26 36 -57q0 -57 -27 -95q-27 -37 -57 -37
q-31 0 -54 7q-24 7 -40 19q-36 27 -35 70q0 43 26 81zM738 1670q27 37 57 37q58 0 93 -26q36 -26 36 -57q0 -56 -26 -94t-57 -38t-54 7t-40 19q-36 26 -36 71q0 44 27 81z" />
    <glyph glyph-name="wdieresis" unicode="&#x1e85;" horiz-adv-x="1733" 
d="M1747 987l-94 -18l-295 -969h-212l-258 828h-16l-251 -828h-212l-323 968l-96 19l20 98h371l20 -98l-131 -20l256 -808h16l268 926h183l273 -926h16l233 808l-134 20l20 98h326zM1014 1472q26 38 57 38q58 0 94 -26t36 -58q0 -56 -27 -94q-27 -37 -57 -37q-31 0 -54 7
q-23 8 -39 20q-36 27 -36 69q0 43 26 81zM615 1473q27 37 57 37q58 0 94 -27q35 -27 35 -57q0 -55 -26 -93t-57 -38t-54 7q-23 8 -40 20q-36 26 -36 70t27 81z" />
    <glyph glyph-name="Wdotaccent" unicode="&#x1e86;" horiz-adv-x="1998" 
d="M403 1254l-149 -29l335 -993h16l342 1121h191l334 -1121h16l304 993l-153 29l20 99h363l20 -99l-103 -27l-386 -1227h-191l-333 1107h-16l-337 -1107h-192l-422 1227l-106 27l20 99h407zM967 1696q29 41 64 41q63 -1 103 -29t40 -63q0 -63 -29 -104t-64 -41q-34 0 -59 8
t-44 22q-40 28 -40 76q0 49 29 90z" />
    <glyph glyph-name="wdotaccent" unicode="&#x1e87;" horiz-adv-x="1733" 
d="M1747 987l-94 -18l-295 -969h-212l-258 828h-16l-251 -828h-212l-323 968l-96 19l20 98h371l20 -98l-131 -20l256 -808h16l268 926h183l273 -926h16l233 808l-134 20l20 98h326zM829 1499q29 41 64 41q63 0 103 -28t40 -64q0 -63 -29 -104t-64 -41q-34 0 -59 8
q-25 7 -44 21q-40 28 -40 77t29 90z" />
    <glyph glyph-name="uni1E8E" unicode="&#x1e8e;" horiz-adv-x="1122" 
d="M478 578l-416 648l-114 28l20 99h410l20 -99l-132 -28l321 -504h16l304 504l-125 28l20 99h352l20 -99l-111 -28l-395 -650v-444l152 -34l-20 -98h-455l-20 98l153 34v446zM514 1696q29 41 64 41q63 -1 103 -29t40 -63q0 -63 -29 -104t-64 -41q-34 0 -59 8t-44 22
q-40 28 -40 76q0 49 29 90z" />
    <glyph glyph-name="uni1E8F" unicode="&#x1e8f;" horiz-adv-x="1106" 
d="M490 -352q-88 -105 -212 -105q-125 0 -230 47l36 131q140 -51 270 -51q87 60 140 205l-407 1093l-97 19l20 98h370l20 -98l-125 -19l295 -836h16l296 836l-125 19l20 98h325l20 -98l-97 -19l-357 -966q-90 -249 -178 -354zM511 1499q29 41 64 41q63 0 103 -28t40 -64
q0 -63 -29 -104t-64 -41q-34 0 -59 8q-25 7 -44 21q-40 28 -40 77t29 90z" />
    <glyph glyph-name="Zcircumflex" unicode="&#x1e90;" horiz-adv-x="1130" 
d="M1023 1353v-124l-716 -1086l5 -14h557l82 193l103 -22l-24 -300h-948v125l715 1085l-5 14h-516l-82 -193l-104 22l25 300h908zM922 1470l-125 -10l-238 192l-231 -192l-95 10v32l283 292l133 -10l273 -282v-32z" />
    <glyph glyph-name="zcircumflex" unicode="&#x1e91;" horiz-adv-x="967" 
d="M897 0h-805v95l593 868l-6 12h-400l-52 -190l-104 11v289h782v-83l-601 -880l6 -12h431l52 190l104 -11v-289zM829 1275l-125 -10l-193 252l-186 -252l-95 10v32l233 373l133 -10l233 -363v-32z" />
    <glyph glyph-name="uni1E92" unicode="&#x1e92;" horiz-adv-x="1130" 
d="M1023 1353v-124l-716 -1086l5 -14h557l82 193l103 -22l-24 -300h-948v125l715 1085l-5 14h-516l-82 -193l-104 22l25 300h908zM474 -229q29 41 64 41q63 0 103 -28t40 -64q0 -63 -29 -104t-64 -41q-34 0 -59 8q-25 7 -44 21q-40 28 -40 77t29 90z" />
    <glyph glyph-name="uni1E93" unicode="&#x1e93;" horiz-adv-x="967" 
d="M897 0h-805v95l593 868l-6 12h-400l-52 -190l-104 11v289h782v-83l-601 -880l6 -12h431l52 190l104 -11v-289zM400 -229q29 41 64 41q63 0 103 -28t40 -64q0 -63 -29 -104t-64 -41q-34 0 -59 8q-25 7 -44 21q-40 28 -40 77t29 90z" />
    <glyph glyph-name="uni1E97" unicode="&#x1e97;" horiz-adv-x="742" 
d="M189 270v684l-161 32l20 99h141l73 293l107 -20v-273h290l20 -99l-310 -32v-645q-1 -107 31 -159t113 -52t167 39v-94q-100 -65 -232 -65q-133 0 -196 72t-63 220zM475 1669q26 38 57 38q57 0 94 -26q36 -26 36 -57q0 -57 -27 -95q-27 -37 -57 -37q-31 0 -54 7
q-24 7 -40 19q-36 27 -35 70q0 43 26 81zM16 1670q27 37 57 37q58 0 93 -26q36 -26 36 -57q0 -56 -26 -94t-57 -38t-54 7t-40 19q-36 26 -36 71q0 44 27 81z" />
    <glyph glyph-name="wring" unicode="&#x1e98;" horiz-adv-x="1733" 
d="M1747 987l-94 -18l-295 -969h-212l-258 828h-16l-251 -828h-212l-323 968l-96 19l20 98h371l20 -98l-131 -20l256 -808h16l268 926h183l273 -926h16l233 808l-134 20l20 98h326zM856 1374q28 -36 56 -36q57 0 95 19q9 50 9 95q0 74 -28 110t-64 36t-77 -19
q-19 -32 -19 -101q0 -68 28 -104zM723 1444q0 105 60 165q60 61 149 61q129 0 173 -93q15 -31 15 -85q0 -110 -58 -169q-58 -58 -150 -58q-130 1 -174 95q-15 32 -15 84z" />
    <glyph glyph-name="yring" unicode="&#x1e99;" horiz-adv-x="1106" 
d="M490 -352q-88 -105 -212 -105q-125 0 -230 47l36 131q140 -51 270 -51q87 60 140 205l-407 1093l-97 19l20 98h370l20 -98l-125 -19l295 -836h16l296 836l-125 19l20 98h325l20 -98l-97 -19l-357 -966q-90 -249 -178 -354zM538 1374q28 -36 56 -36q57 0 95 19q9 50 9 95
q0 74 -28 110t-64 36t-77 -19q-19 -32 -19 -101q0 -68 28 -104zM405 1444q0 105 60 165q60 61 149 61q129 0 173 -93q15 -31 15 -85q0 -110 -58 -169q-58 -58 -150 -58q-130 1 -174 95q-15 32 -15 84z" />
    <glyph glyph-name="uni1E9E" unicode="&#x1e9e;" horiz-adv-x="1367" 
d="M1164 1353v-94l-316 -422l106 -75q172 -122 246.5 -205.5t74.5 -229.5t-98.5 -247.5t-287.5 -101.5t-304 63l-21 259l117 25l82 -194q102 -45 247 -10q25 6 45 14q30 79 30 148t-19.5 106.5t-62.5 82t-192 155.5l-151 112v61l319 424h-558v-1224h-323l-20 98l153 34v1089
l-153 34l20 98h1066z" />
    <glyph glyph-name="uni1EA0" unicode="&#x1ea0;" horiz-adv-x="1218" 
d="M389 535h402l-194 569h-10zM-8 98l108 29l440 1226h149l429 -1226l108 -29l-20 -98h-385l-20 98l128 29l-94 279h-491l-96 -279l128 -29l-20 -98h-344zM523 -229q29 41 64 41q63 0 103 -28t40 -64q0 -63 -29 -104t-64 -41q-34 0 -59 8q-25 7 -44 21q-40 28 -40 77t29 90z
" />
    <glyph glyph-name="uni1EA1" unicode="&#x1ea1;" horiz-adv-x="1150" 
d="M759 487q-310 0 -443 -72q-28 -65 -28 -144t55 -126t137 -47t155 38t124 89v262zM108 237q0 370 651 370v95q-1 150 -55 218t-190 67q-75 0 -150 -15l-60 -212l-98 10v283q154 54 343 54q390 0 390 -372v-603l173 -34l-20 -98l-255 -22l-58 177q-145 -177 -360 -177
q-139 0 -225 70t-86 189zM490 -229q29 41 64 41q63 0 103 -28t40 -64q0 -63 -29 -104t-64 -41q-34 0 -59 8q-25 7 -44 21q-40 28 -40 77t29 90z" />
    <glyph glyph-name="uni1EA2" unicode="&#x1ea2;" horiz-adv-x="1218" 
d="M389 535h402l-194 569h-10zM-8 98l108 29l440 1226h149l429 -1226l108 -29l-20 -98h-385l-20 98l128 29l-94 279h-491l-96 -279l128 -29l-20 -98h-344zM635 1865q193 0 193 -130q0 -51 -27 -85q-27 -35 -74 -68q-45 -33 -55 -46q-10 -14 -10 -32t10 -38l-92 -27
q-35 46 -35 80q1 34 15 57t47 47q58 42 77 63q18 20 18 45q0 50 -66 50q-45 0 -85 -18l-24 -81l-78 5v123q88 55 186 55z" />
    <glyph glyph-name="uni1EA3" unicode="&#x1ea3;" horiz-adv-x="1150" 
d="M759 487q-310 0 -443 -72q-28 -65 -28 -144t55 -126t137 -47t155 38t124 89v262zM108 237q0 370 651 370v95q-1 150 -55 218t-190 67q-75 0 -150 -15l-60 -212l-98 10v283q154 54 343 54q390 0 390 -372v-603l173 -34l-20 -98l-255 -22l-58 177q-145 -177 -360 -177
q-139 0 -225 70t-86 189zM559 1670q193 0 193 -130q0 -51 -27 -85q-27 -35 -74 -68q-45 -33 -55 -46t-10 -31t10 -39l-92 -27q-35 46 -35 80q1 34 15 57t47 47q58 42 77 63q18 20 18 45q0 50 -66 50q-45 0 -85 -18l-24 -81l-78 5v123q88 55 186 55z" />
    <glyph glyph-name="uni1EA4" unicode="&#x1ea4;" horiz-adv-x="1218" 
d="M389 535h402l-194 569h-10zM-8 98l108 29l440 1226h149l429 -1226l108 -29l-20 -98h-385l-20 98l128 29l-94 279h-491l-96 -279l128 -29l-20 -98h-344zM835 1734l193 182l142 -10v-66l-250 -149l-85 11v32zM969 1470l-125 -10l-238 192l-231 -192l-95 10v32l283 292
l133 -10l273 -282v-32z" />
    <glyph glyph-name="uni1EA5" unicode="&#x1ea5;" horiz-adv-x="1150" 
d="M759 487q-310 0 -443 -72q-28 -65 -28 -144t55 -126t137 -47t155 38t124 89v262zM108 237q0 370 651 370v95q-1 150 -55 218t-190 67q-75 0 -150 -15l-60 -212l-98 10v283q154 54 343 54q390 0 390 -372v-603l173 -34l-20 -98l-255 -22l-58 177q-145 -177 -360 -177
q-139 0 -225 70t-86 189zM763 1572l133 237l132 -10v-66l-190 -203l-75 10v32zM853 1275l-125 -10l-193 252l-186 -252l-95 10v32l233 373l133 -10l233 -363v-32z" />
    <glyph glyph-name="uni1EA6" unicode="&#x1ea6;" horiz-adv-x="1218" 
d="M389 535h402l-194 569h-10zM-8 98l108 29l440 1226h149l429 -1226l108 -29l-20 -98h-385l-20 98l128 29l-94 279h-491l-96 -279l128 -29l-20 -98h-344zM414 1702l-85 -11l-240 149v66l132 10l193 -182v-32zM969 1470l-125 -10l-238 192l-231 -192l-95 10v32l283 292
l133 -10l273 -282v-32z" />
    <glyph glyph-name="uni1EA7" unicode="&#x1ea7;" horiz-adv-x="1150" 
d="M759 487q-310 0 -443 -72q-28 -65 -28 -144t55 -126t137 -47t155 38t124 89v262zM108 237q0 370 651 370v95q-1 150 -55 218t-190 67q-75 0 -150 -15l-60 -212l-98 10v283q154 54 343 54q390 0 390 -372v-603l173 -34l-20 -98l-255 -22l-58 177q-145 -177 -360 -177
q-139 0 -225 70t-86 189zM340 1540l-88 -10l-217 203v66l135 10l170 -237v-32zM853 1275l-125 -10l-193 252l-186 -252l-95 10v32l233 373l133 -10l233 -363v-32z" />
    <glyph glyph-name="uni1EA8" unicode="&#x1ea8;" horiz-adv-x="1218" 
d="M389 535h402l-194 569h-10zM-8 98l108 29l440 1226h149l429 -1226l108 -29l-20 -98h-385l-20 98l128 29l-94 279h-491l-96 -279l128 -29l-20 -98h-344zM948 2101q193 0 193 -130q0 -51 -27 -85q-27 -35 -74 -68q-46 -33 -56 -46q-10 -14 -9 -32q0 -18 10 -38l-92 -27
q-35 46 -35 80t14 57t48 47q58 42 77 63q18 20 18 45q0 50 -66 50q-45 0 -85 -18l-24 -81l-78 5v123q88 55 186 55zM969 1470l-125 -10l-238 192l-231 -192l-95 10v32l283 292l133 -10l273 -282v-32z" />
    <glyph glyph-name="uni1EA9" unicode="&#x1ea9;" horiz-adv-x="1150" 
d="M759 487q-310 0 -443 -72q-28 -65 -28 -144t55 -126t137 -47t155 38t124 89v262zM108 237q0 370 651 370v95q-1 150 -55 218t-190 67q-75 0 -150 -15l-60 -212l-98 10v283q154 54 343 54q390 0 390 -372v-603l173 -34l-20 -98l-255 -22l-58 177q-145 -177 -360 -177
q-139 0 -225 70t-86 189zM863 1939q193 0 193 -130q0 -51 -27 -85q-27 -35 -74 -68q-45 -33 -55 -46q-10 -14 -10 -32t10 -38l-92 -27q-35 46 -35 80q1 34 15 57t47 47q58 42 77 63q18 20 18 45q0 50 -66 50q-45 0 -85 -18l-24 -81l-78 5v123q88 55 186 55zM853 1275
l-125 -10l-193 252l-186 -252l-95 10v32l233 373l133 -10l233 -363v-32z" />
    <glyph glyph-name="uni1EAA" unicode="&#x1eaa;" horiz-adv-x="1218" 
d="M389 535h402l-194 569h-10zM-8 98l108 29l440 1226h149l429 -1226l108 -29l-20 -98h-385l-20 98l128 29l-94 279h-491l-96 -279l128 -29l-20 -98h-344zM969 1470l-125 -10l-238 192l-231 -192l-95 10v32l283 292l133 -10l273 -282v-32zM810 2026q83 0 83 120l117 10v-47
q0 -105 -54 -167t-140 -62q-88 0 -234 66q-147 66 -172 66q-50 0 -71 -21t-21 -77l-109 -10v25q1 113 59 171t151 58t225 -66q50 -26 94 -46q43 -20 72 -20z" />
    <glyph glyph-name="uni1EAB" unicode="&#x1eab;" horiz-adv-x="1150" 
d="M759 487q-310 0 -443 -72q-28 -65 -28 -144t55 -126t137 -47t155 38t124 89v262zM108 237q0 370 651 370v95q-1 150 -55 218t-190 67q-75 0 -150 -15l-60 -212l-98 10v283q154 54 343 54q390 0 390 -372v-603l173 -34l-20 -98l-255 -22l-58 177q-145 -177 -360 -177
q-139 0 -225 70t-86 189zM853 1275l-125 -10l-193 252l-186 -252l-95 10v32l233 373l133 -10l233 -363v-32zM745 1917q83 0 83 120l117 10v-47q1 -106 -53 -168t-141 -61q-87 0 -233 66q-147 66 -173 66q-50 0 -71 -21t-21 -77l-109 -10v25q0 113 58 171t152 58t226 -66
q50 -25 93 -45t72 -21z" />
    <glyph glyph-name="uni1EAC" unicode="&#x1eac;" horiz-adv-x="1218" 
d="M389 535h402l-194 569h-10zM-8 98l108 29l440 1226h149l429 -1226l108 -29l-20 -98h-385l-20 98l128 29l-94 279h-491l-96 -279l128 -29l-20 -98h-344zM523 -229q29 41 64 41q63 0 103 -28t40 -64q0 -63 -29 -104t-64 -41q-34 0 -59 8q-25 7 -44 21q-40 28 -40 77t29 90z
M970 1470l-125 -10l-238 192l-231 -192l-95 10v32l283 292l133 -10l273 -282v-32z" />
    <glyph glyph-name="uni1EAD" unicode="&#x1ead;" horiz-adv-x="1150" 
d="M759 487q-310 0 -443 -72q-28 -65 -28 -144t55 -126t137 -47t155 38t124 89v262zM108 237q0 370 651 370v95q-1 150 -55 218t-190 67q-75 0 -150 -15l-60 -212l-98 10v283q154 54 343 54q390 0 390 -372v-603l173 -34l-20 -98l-255 -22l-58 177q-145 -177 -360 -177
q-139 0 -225 70t-86 189zM470 -229q29 41 64 41q63 0 103 -28t40 -64q0 -63 -29 -104t-64 -41q-34 0 -59 8q-25 7 -44 21q-40 28 -40 77t29 90zM864 1275l-125 -10l-193 252l-186 -252l-95 10v32l233 373l133 -10l233 -363v-32z" />
    <glyph glyph-name="uni1EAE" unicode="&#x1eae;" horiz-adv-x="1218" 
d="M389 535h402l-194 569h-10zM-8 98l108 29l440 1226h149l429 -1226l108 -29l-20 -98h-385l-20 98l128 29l-94 279h-491l-96 -279l128 -29l-20 -98h-344zM525 1782l298 281l192 -10v-66l-375 -248l-115 11v32zM605 1472q-151 0 -243 85q-93 85 -93 192l97 10q0 -44 40 -82
q40 -37 85 -56q46 -19 114 -19q120 0 179 56q60 56 60 101l97 -10q0 -107 -93 -192q-92 -85 -243 -85z" />
    <glyph glyph-name="uni1EAF" unicode="&#x1eaf;" horiz-adv-x="1150" 
d="M759 487q-310 0 -443 -72q-28 -65 -28 -144t55 -126t137 -47t155 38t124 89v262zM108 237q0 370 651 370v95q-1 150 -55 218t-190 67q-75 0 -150 -15l-60 -212l-98 10v283q154 54 343 54q390 0 390 -372v-603l173 -34l-20 -98l-255 -22l-58 177q-145 -177 -360 -177
q-139 0 -225 70t-86 189zM472 1632l203 363l182 -10v-66l-280 -329l-105 10v32zM539 1295q-133 0 -219 91q-87 91 -87 206l97 10q0 -47 38 -91q38 -43 76 -65q40 -22 95 -21q97 0 153 65t56 112l97 -10q0 -115 -87 -206q-86 -91 -219 -91z" />
    <glyph glyph-name="uni1EB0" unicode="&#x1eb0;" horiz-adv-x="1218" 
d="M389 535h402l-194 569h-10zM-8 98l108 29l440 1226h149l429 -1226l108 -29l-20 -98h-385l-20 98l128 29l-94 279h-491l-96 -279l128 -29l-20 -98h-344zM700 1750l-115 -11l-375 248v66l192 10l298 -281v-32zM605 1472q-151 0 -243 85q-93 85 -93 192l97 10q0 -44 40 -82
q40 -37 85 -56q46 -19 114 -19q120 0 179 56q60 56 60 101l97 -10q0 -107 -93 -192q-92 -85 -243 -85z" />
    <glyph glyph-name="uni1EB1" unicode="&#x1eb1;" horiz-adv-x="1150" 
d="M759 487q-310 0 -443 -72q-28 -65 -28 -144t55 -126t137 -47t155 38t124 89v262zM108 237q0 370 651 370v95q-1 150 -55 218t-190 67q-75 0 -150 -15l-60 -212l-98 10v283q154 54 343 54q390 0 390 -372v-603l173 -34l-20 -98l-255 -22l-58 177q-145 -177 -360 -177
q-139 0 -225 70t-86 189zM629 1600l-118 -10l-290 329v66l175 10l233 -363v-32zM539 1295q-133 0 -219 91q-87 91 -87 206l97 10q0 -47 38 -91q38 -43 76 -65q40 -22 95 -21q97 0 153 65t56 112l97 -10q0 -115 -87 -206q-86 -91 -219 -91z" />
    <glyph glyph-name="uni1EB2" unicode="&#x1eb2;" horiz-adv-x="1218" 
d="M389 535h402l-194 569h-10zM-8 98l108 29l440 1226h149l429 -1226l108 -29l-20 -98h-385l-20 98l128 29l-94 279h-491l-96 -279l128 -29l-20 -98h-344zM623 2142q193 0 193 -130q0 -51 -27 -85q-27 -35 -74 -68q-45 -33 -55 -46t-10 -31t10 -39l-92 -27q-35 46 -35 80
q1 34 15 57t47 47q58 42 77 63q18 20 18 45q0 50 -66 50q-45 0 -85 -18l-24 -81l-78 5v123q88 55 186 55zM605 1472q-151 0 -243 85q-93 85 -93 192l97 10q0 -44 40 -82q40 -37 85 -56q46 -19 114 -19q120 0 179 56q60 56 60 101l97 -10q0 -107 -93 -192q-92 -85 -243 -85z
" />
    <glyph glyph-name="uni1EB3" unicode="&#x1eb3;" horiz-adv-x="1150" 
d="M759 487q-310 0 -443 -72q-28 -65 -28 -144t55 -126t137 -47t155 38t124 89v262zM108 237q0 370 651 370v95q-1 150 -55 218t-190 67q-75 0 -150 -15l-60 -212l-98 10v283q154 54 343 54q390 0 390 -372v-603l173 -34l-20 -98l-255 -22l-58 177q-145 -177 -360 -177
q-139 0 -225 70t-86 189zM540 1995q193 0 193 -130q0 -51 -27 -85q-27 -35 -74 -68q-46 -33 -56 -46q-10 -14 -9 -32q0 -18 10 -38l-92 -27q-35 46 -35 80t14 57t48 47q58 42 77 63q18 20 18 45q0 50 -66 50q-45 0 -85 -18l-24 -81l-78 5v123q88 55 186 55zM539 1295
q-133 0 -219 91q-87 91 -87 206l97 10q0 -47 38 -91q38 -43 76 -65q40 -22 95 -21q97 0 153 65t56 112l97 -10q0 -115 -87 -206q-86 -91 -219 -91z" />
    <glyph glyph-name="uni1EB4" unicode="&#x1eb4;" horiz-adv-x="1218" 
d="M389 535h402l-194 569h-10zM-8 98l108 29l440 1226h149l429 -1226l108 -29l-20 -98h-385l-20 98l128 29l-94 279h-491l-96 -279l128 -29l-20 -98h-344zM806 1956q83 0 83 120l117 10v-47q0 -105 -54 -167t-140 -62q-88 0 -234 66q-147 66 -172 66q-50 0 -71 -21t-21 -77
l-109 -10v25q1 113 59 171t151 58t225 -66q50 -26 94 -46q43 -20 72 -20zM605 1472q-151 0 -243 85q-93 85 -93 192l97 10q0 -44 40 -82q40 -37 85 -56q46 -19 114 -19q120 0 179 56q60 56 60 101l97 -10q0 -107 -93 -192q-92 -85 -243 -85z" />
    <glyph glyph-name="uni1EB5" unicode="&#x1eb5;" horiz-adv-x="1150" 
d="M759 487q-310 0 -443 -72q-28 -65 -28 -144t55 -126t137 -47t155 38t124 89v262zM108 237q0 370 651 370v95q-1 150 -55 218t-190 67q-75 0 -150 -15l-60 -212l-98 10v283q154 54 343 54q390 0 390 -372v-603l173 -34l-20 -98l-255 -22l-58 177q-145 -177 -360 -177
q-139 0 -225 70t-86 189zM738 1809q83 0 83 120l117 10v-47q0 -106 -54 -168t-140 -61q-88 0 -234 66q-147 66 -172 66q-50 0 -71 -21t-21 -77l-109 -10v25q1 113 59 171t151 58t225 -66q50 -25 94 -45q43 -20 72 -21zM539 1295q-133 0 -219 91q-87 91 -87 206l97 10
q0 -47 38 -91q38 -43 76 -65q40 -22 95 -21q97 0 153 65t56 112l97 -10q0 -115 -87 -206q-86 -91 -219 -91z" />
    <glyph glyph-name="uni1EB6" unicode="&#x1eb6;" horiz-adv-x="1218" 
d="M389 535h402l-194 569h-10zM-8 98l108 29l440 1226h149l429 -1226l108 -29l-20 -98h-385l-20 98l128 29l-94 279h-491l-96 -279l128 -29l-20 -98h-344zM523 -229q29 41 64 41q63 0 103 -28t40 -64q0 -63 -29 -104t-64 -41q-34 0 -59 8q-25 7 -44 21q-40 28 -40 77t29 90z
M612 1472q-151 0 -243 85q-93 85 -93 192l97 10q-1 -44 39 -82q40 -37 86 -56t114 -19q120 0 179 56q60 56 60 101l97 -10q0 -107 -93 -192q-92 -85 -243 -85z" />
    <glyph glyph-name="uni1EB7" unicode="&#x1eb7;" horiz-adv-x="1150" 
d="M759 487q-310 0 -443 -72q-28 -65 -28 -144t55 -126t137 -47t155 38t124 89v262zM108 237q0 370 651 370v95q-1 150 -55 218t-190 67q-75 0 -150 -15l-60 -212l-98 10v283q154 54 343 54q390 0 390 -372v-603l173 -34l-20 -98l-255 -22l-58 177q-145 -177 -360 -177
q-139 0 -225 70t-86 189zM490 -229q29 41 64 41q63 0 103 -28t40 -64q0 -63 -29 -104t-64 -41q-34 0 -59 8q-25 7 -44 21q-40 28 -40 77t29 90zM547 1295q-133 0 -219 91q-87 91 -87 206l97 10q0 -47 38 -91q38 -43 76 -65q40 -22 95 -21q97 0 153 65t56 112l97 -10
q0 -115 -87 -206q-86 -91 -219 -91z" />
    <glyph glyph-name="uni1EB8" unicode="&#x1eb8;" horiz-adv-x="1191" 
d="M419 643v-514h481l83 193l104 -23l-24 -299h-967l-20 98l153 34v1089l-153 34l20 98h937l24 -300l-103 -22l-83 193h-452v-452h357l34 122l99 -20v-334l-99 -20l-34 123h-357zM517 -229q29 41 64 41q63 0 103 -28t40 -64q0 -63 -29 -104t-64 -41q-34 0 -59 8
q-25 7 -44 21q-40 28 -40 77t29 90z" />
    <glyph glyph-name="uni1EB9" unicode="&#x1eb9;" horiz-adv-x="1034" 
d="M764 643q0 182 -52 263t-169 81q-59 0 -116 -18t-91 -42q-47 -121 -57 -284h485zM96 414v83q0 287 128 449t338 161q212 1 302 -103t90 -361v-120h-678v-76q0 -169 92 -259t236 -90q143 0 297 65v-96q-168 -89 -373 -89q-204 0 -318 112t-114 324zM466 -229q29 41 64 41
q63 0 103 -28t40 -64q0 -63 -29 -104t-64 -41q-34 0 -59 8q-25 7 -44 21q-40 28 -40 77t29 90z" />
    <glyph glyph-name="uni1EBA" unicode="&#x1eba;" horiz-adv-x="1191" 
d="M419 643v-514h481l83 193l104 -23l-24 -299h-967l-20 98l153 34v1089l-153 34l20 98h937l24 -300l-103 -22l-83 193h-452v-452h357l34 122l99 -20v-334l-99 -20l-34 123h-357zM610 1865q193 0 193 -130q0 -51 -27 -85q-27 -35 -74 -68q-46 -33 -56 -46q-10 -14 -9 -32
q0 -18 10 -38l-92 -27q-35 46 -35 80t14 57t48 47q58 42 77 63q18 20 18 45q0 50 -66 50q-45 0 -85 -18l-24 -81l-78 5v123q88 55 186 55z" />
    <glyph glyph-name="uni1EBB" unicode="&#x1ebb;" horiz-adv-x="1034" 
d="M764 643q0 182 -52 263t-169 81q-59 0 -116 -18t-91 -42q-47 -121 -57 -284h485zM96 414v83q0 287 128 449t338 161q212 1 302 -103t90 -361v-120h-678v-76q0 -169 92 -259t236 -90q143 0 297 65v-96q-168 -89 -373 -89q-204 0 -318 112t-114 324zM581 1670
q193 0 193 -130q0 -51 -27 -85q-27 -35 -74 -68q-45 -33 -55 -46t-10 -31t10 -39l-92 -27q-35 46 -35 80q1 34 15 57t47 47q58 42 77 63q18 20 18 45q0 50 -66 50q-45 0 -85 -18l-24 -81l-78 5v123q88 55 186 55z" />
    <glyph glyph-name="uni1EBC" unicode="&#x1ebc;" horiz-adv-x="1191" 
d="M419 643v-514h481l83 193l104 -23l-24 -299h-967l-20 98l153 34v1089l-153 34l20 98h937l24 -300l-103 -22l-83 193h-452v-452h357l34 122l99 -20v-334l-99 -20l-34 123h-357zM779 1617q83 0 83 120l117 10v-47q1 -106 -53 -168t-141 -61q-87 0 -233 66q-147 66 -173 66
q-50 0 -71 -21t-21 -77l-109 -10v25q0 113 58 171t152 58t226 -66q50 -25 93 -45t72 -21z" />
    <glyph glyph-name="uni1EBD" unicode="&#x1ebd;" horiz-adv-x="1034" 
d="M764 643q0 182 -52 263t-169 81q-59 0 -116 -18t-91 -42q-47 -121 -57 -284h485zM96 414v83q0 287 128 449t338 161q212 1 302 -103t90 -361v-120h-678v-76q0 -169 92 -259t236 -90q143 0 297 65v-96q-168 -89 -373 -89q-204 0 -318 112t-114 324zM772 1404q83 0 83 120
l117 10v-47q0 -105 -54 -167t-140 -62q-88 0 -234 66q-147 66 -172 66q-50 0 -71 -21t-21 -77l-109 -10v25q1 113 59 171t151 58t225 -66q50 -26 94 -46q43 -20 72 -20z" />
    <glyph glyph-name="uni1EBE" unicode="&#x1ebe;" horiz-adv-x="1191" 
d="M419 643v-514h481l83 193l104 -23l-24 -299h-967l-20 98l153 34v1089l-153 34l20 98h937l24 -300l-103 -22l-83 193h-452v-452h357l34 122l99 -20v-334l-99 -20l-34 123h-357zM810 1734l193 182l142 -10v-66l-250 -149l-85 11v32zM944 1470l-125 -10l-238 192l-231 -192
l-95 10v32l283 292l133 -10l273 -282v-32z" />
    <glyph glyph-name="uni1EBF" unicode="&#x1ebf;" horiz-adv-x="1034" 
d="M764 643q0 182 -52 263t-169 81q-59 0 -116 -18t-91 -42q-47 -121 -57 -284h485zM96 414v83q0 287 128 449t338 161q212 1 302 -103t90 -361v-120h-678v-76q0 -169 92 -259t236 -90q143 0 297 65v-96q-168 -89 -373 -89q-204 0 -318 112t-114 324zM785 1572l133 237
l132 -10v-66l-190 -203l-75 10v32zM875 1275l-125 -10l-193 252l-186 -252l-95 10v32l233 373l133 -10l233 -363v-32z" />
    <glyph glyph-name="uni1EC0" unicode="&#x1ec0;" horiz-adv-x="1191" 
d="M419 643v-514h481l83 193l104 -23l-24 -299h-967l-20 98l153 34v1089l-153 34l20 98h937l24 -300l-103 -22l-83 193h-452v-452h357l34 122l99 -20v-334l-99 -20l-34 123h-357zM389 1702l-85 -11l-240 149v66l132 10l193 -182v-32zM944 1470l-125 -10l-238 192l-231 -192
l-95 10v32l283 292l133 -10l273 -282v-32z" />
    <glyph glyph-name="uni1EC1" unicode="&#x1ec1;" horiz-adv-x="1034" 
d="M764 643q0 182 -52 263t-169 81q-59 0 -116 -18t-91 -42q-47 -121 -57 -284h485zM96 414v83q0 287 128 449t338 161q212 1 302 -103t90 -361v-120h-678v-76q0 -169 92 -259t236 -90q143 0 297 65v-96q-168 -89 -373 -89q-204 0 -318 112t-114 324zM362 1540l-88 -10
l-217 203v66l135 10l170 -237v-32zM875 1275l-125 -10l-193 252l-186 -252l-95 10v32l233 373l133 -10l233 -363v-32z" />
    <glyph glyph-name="uni1EC2" unicode="&#x1ec2;" horiz-adv-x="1191" 
d="M419 643v-514h481l83 193l104 -23l-24 -299h-967l-20 98l153 34v1089l-153 34l20 98h937l24 -300l-103 -22l-83 193h-452v-452h357l34 122l99 -20v-334l-99 -20l-34 123h-357zM923 2101q193 0 193 -130q0 -51 -27 -85q-27 -35 -74 -68q-45 -33 -55 -46q-10 -14 -10 -32
t10 -38l-92 -27q-35 46 -35 80q1 34 15 57t47 47q58 42 77 63q18 20 18 45q0 50 -66 50q-45 0 -85 -18l-24 -81l-78 5v123q88 55 186 55zM944 1470l-125 -10l-238 192l-231 -192l-95 10v32l283 292l133 -10l273 -282v-32z" />
    <glyph glyph-name="uni1EC3" unicode="&#x1ec3;" horiz-adv-x="1034" 
d="M764 643q0 182 -52 263t-169 81q-59 0 -116 -18t-91 -42q-47 -121 -57 -284h485zM96 414v83q0 287 128 449t338 161q212 1 302 -103t90 -361v-120h-678v-76q0 -169 92 -259t236 -90q143 0 297 65v-96q-168 -89 -373 -89q-204 0 -318 112t-114 324zM885 1939
q193 0 193 -130q0 -51 -27 -85q-27 -35 -74 -68q-45 -33 -55 -46q-10 -14 -10 -32t10 -38l-92 -27q-35 46 -35 80q1 34 15 57t47 47q58 42 77 63q18 20 18 45q0 50 -66 50q-45 0 -85 -18l-24 -81l-78 5v123q88 55 186 55zM875 1275l-125 -10l-193 252l-186 -252l-95 10v32
l233 373l133 -10l233 -363v-32z" />
    <glyph glyph-name="uni1EC4" unicode="&#x1ec4;" horiz-adv-x="1191" 
d="M419 643v-514h481l83 193l104 -23l-24 -299h-967l-20 98l153 34v1089l-153 34l20 98h937l24 -300l-103 -22l-83 193h-452v-452h357l34 122l99 -20v-334l-99 -20l-34 123h-357zM944 1470l-125 -10l-238 192l-231 -192l-95 10v32l283 292l133 -10l273 -282v-32zM785 2026
q83 0 83 120l117 10v-47q1 -105 -53 -167t-141 -62t-233 66q-147 66 -173 66q-50 0 -71 -21t-21 -77l-109 -10v25q0 113 58 171t152 58t226 -66q50 -26 93 -46t72 -20z" />
    <glyph glyph-name="uni1EC5" unicode="&#x1ec5;" horiz-adv-x="1034" 
d="M764 643q0 182 -52 263t-169 81q-59 0 -116 -18t-91 -42q-47 -121 -57 -284h485zM96 414v83q0 287 128 449t338 161q212 1 302 -103t90 -361v-120h-678v-76q0 -169 92 -259t236 -90q143 0 297 65v-96q-168 -89 -373 -89q-204 0 -318 112t-114 324zM875 1275l-125 -10
l-193 252l-186 -252l-95 10v32l233 373l133 -10l233 -363v-32zM767 1917q83 0 83 120l117 10v-47q1 -106 -53 -168t-141 -61q-87 0 -233 66q-147 66 -173 66q-50 0 -71 -21t-21 -77l-109 -10v25q0 113 58 171t152 58t226 -66q50 -25 93 -45t72 -21z" />
    <glyph glyph-name="uni1EC6" unicode="&#x1ec6;" horiz-adv-x="1191" 
d="M419 643v-514h481l83 193l104 -23l-24 -299h-967l-20 98l153 34v1089l-153 34l20 98h937l24 -300l-103 -22l-83 193h-452v-452h357l34 122l99 -20v-334l-99 -20l-34 123h-357zM517 -229q29 41 64 41q63 0 103 -28t40 -64q0 -63 -29 -104t-64 -41q-34 0 -59 8
q-25 7 -44 21q-40 28 -40 77t29 90zM945 1470l-125 -10l-238 192l-231 -192l-95 10v32l283 292l133 -10l273 -282v-32z" />
    <glyph glyph-name="uni1EC7" unicode="&#x1ec7;" horiz-adv-x="1034" 
d="M764 643q0 182 -52 263t-169 81q-59 0 -116 -18t-91 -42q-47 -121 -57 -284h485zM96 414v83q0 287 128 449t338 161q212 1 302 -103t90 -361v-120h-678v-76q0 -169 92 -259t236 -90q143 0 297 65v-96q-168 -89 -373 -89q-204 0 -318 112t-114 324zM466 -229q29 41 64 41
q63 0 103 -28t40 -64q0 -63 -29 -104t-64 -41q-34 0 -59 8q-25 7 -44 21q-40 28 -40 77t29 90zM840 1275l-125 -10l-193 252l-186 -252l-95 10v32l233 373l133 -10l233 -363v-32z" />
    <glyph glyph-name="uni1EC8" unicode="&#x1ec8;" horiz-adv-x="643" 
d="M225 1221l-153 34l20 98h455l20 -98l-152 -34v-1089l152 -34l-20 -98h-455l-20 98l153 34v1089zM339 1865q193 0 193 -130q0 -51 -27 -85q-27 -35 -74 -68q-45 -33 -55 -46q-10 -14 -10 -32t10 -38l-92 -27q-35 46 -35 80q1 34 15 57t47 47q58 42 77 63q18 20 18 45
q0 50 -66 50q-45 0 -85 -18l-24 -81l-78 5v123q88 55 186 55z" />
    <glyph glyph-name="uni1EC9" unicode="&#x1ec9;" horiz-adv-x="660" 
d="M439 132l153 -34l-20 -98h-446l-20 98l153 34v821l-153 34l20 98l313 22v-975zM323 1670q193 0 193 -130q0 -51 -27 -85q-27 -35 -74 -68q-45 -33 -55 -46t-10 -31t10 -39l-92 -27q-35 46 -35 80q1 34 15 57t47 47q58 42 77 63q18 20 18 45q0 50 -66 50q-45 0 -85 -18
l-24 -81l-78 5v123q88 55 186 55z" />
    <glyph glyph-name="uni1ECA" unicode="&#x1eca;" horiz-adv-x="643" 
d="M225 1221l-153 34l20 98h455l20 -98l-152 -34v-1089l152 -34l-20 -98h-455l-20 98l153 34v1089zM226 -229q29 41 64 41q63 0 103 -28t40 -64q0 -63 -29 -104t-64 -41q-34 0 -59 8q-25 7 -44 21q-40 28 -40 77t29 90z" />
    <glyph glyph-name="uni1ECB" unicode="&#x1ecb;" horiz-adv-x="660" 
d="M212 1409q0 47 30 89t77 42q49 0 89 -29t40 -77t-30 -90q-30 -41 -76 -41q-48 0 -89 29t-41 77zM259 953l-153 34l20 98l313 22v-975l153 -34l-20 -98h-446l-20 98l153 34v821zM256 -229q29 41 64 41q63 0 103 -28t40 -64q0 -63 -29 -104t-64 -41q-34 0 -59 8
q-25 7 -44 21q-40 28 -40 77t29 90z" />
    <glyph glyph-name="uni1ECC" unicode="&#x1ecc;" horiz-adv-x="1345" 
d="M1053 783q-1 235 -105 349t-295 114q-89 0 -168 -28t-124 -60q-69 -212 -69 -455v-133q0 -221 112 -342t289 -121q87 1 165 27t127 62q68 212 68 454v133zM683 1375q560 0 560 -548v-78q0 -377 -144 -574t-436 -197q-561 0 -561 547v79q0 389 148 580t433 191zM604 -229
q29 41 64 41q63 0 103 -28t40 -64q0 -63 -29 -104t-64 -41q-34 0 -59 8q-25 7 -44 21q-40 28 -40 77t29 90z" />
    <glyph glyph-name="uni1ECD" unicode="&#x1ecd;" horiz-adv-x="1114" 
d="M838 622q0 170 -78 266t-208 98q-129 2 -216 -59q-60 -136 -60 -355v-119q0 -167 86 -261t203 -94q116 0 213 60q60 126 60 345v119zM548 -22q-218 0 -336 116q-116 116 -116 325v93q0 276 126 436t340 159q212 -1 334 -117t122 -334v-94q0 -264 -126 -424t-344 -160z
M477 -229q29 41 64 41q63 0 103 -28t40 -64q0 -63 -29 -104t-64 -41q-34 0 -59 8q-25 7 -44 21q-40 28 -40 77t29 90z" />
    <glyph glyph-name="uni1ECE" unicode="&#x1ece;" horiz-adv-x="1345" 
d="M1053 783q-1 235 -105 349t-295 114q-89 0 -168 -28t-124 -60q-69 -212 -69 -455v-133q0 -221 112 -342t289 -121q87 1 165 27t127 62q68 212 68 454v133zM683 1375q560 0 560 -548v-78q0 -377 -144 -574t-436 -197q-561 0 -561 547v79q0 389 148 580t433 191zM685 1865
q193 0 193 -130q0 -51 -27 -85q-27 -35 -74 -68q-45 -33 -55 -46q-10 -14 -10 -32t10 -38l-92 -27q-35 46 -35 80q1 34 15 57t47 47q58 42 77 63q18 20 18 45q0 50 -66 50q-45 0 -85 -18l-24 -81l-78 5v123q88 55 186 55z" />
    <glyph glyph-name="uni1ECF" unicode="&#x1ecf;" horiz-adv-x="1114" 
d="M838 622q0 170 -78 266t-208 98q-129 2 -216 -59q-60 -136 -60 -355v-119q0 -167 86 -261t203 -94q116 0 213 60q60 126 60 345v119zM548 -22q-218 0 -336 116q-116 116 -116 325v93q0 276 126 436t340 159q212 -1 334 -117t122 -334v-94q0 -264 -126 -424t-344 -160z
M575 1670q193 0 193 -130q0 -51 -27 -85q-27 -35 -74 -68q-45 -33 -55 -46t-10 -31t10 -39l-92 -27q-35 46 -35 80q1 34 15 57t47 47q58 42 77 63q18 20 18 45q0 50 -66 50q-45 0 -85 -18l-24 -81l-78 5v123q88 55 186 55z" />
    <glyph glyph-name="uni1ED0" unicode="&#x1ed0;" horiz-adv-x="1345" 
d="M1053 783q-1 235 -105 349t-295 114q-89 0 -168 -28t-124 -60q-69 -212 -69 -455v-133q0 -221 112 -342t289 -121q87 1 165 27t127 62q68 212 68 454v133zM683 1375q560 0 560 -548v-78q0 -377 -144 -574t-436 -197q-561 0 -561 547v79q0 389 148 580t433 191zM885 1734
l193 182l142 -10v-66l-250 -149l-85 11v32zM1019 1470l-125 -10l-238 192l-231 -192l-95 10v32l283 292l133 -10l273 -282v-32z" />
    <glyph glyph-name="uni1ED1" unicode="&#x1ed1;" horiz-adv-x="1114" 
d="M838 622q0 170 -78 266t-208 98q-129 2 -216 -59q-60 -136 -60 -355v-119q0 -167 86 -261t203 -94q116 0 213 60q60 126 60 345v119zM548 -22q-218 0 -336 116q-116 116 -116 325v93q0 276 126 436t340 159q212 -1 334 -117t122 -334v-94q0 -264 -126 -424t-344 -160z
M779 1572l133 237l132 -10v-66l-190 -203l-75 10v32zM869 1275l-125 -10l-193 252l-186 -252l-95 10v32l233 373l133 -10l233 -363v-32z" />
    <glyph glyph-name="uni1ED2" unicode="&#x1ed2;" horiz-adv-x="1345" 
d="M1053 783q-1 235 -105 349t-295 114q-89 0 -168 -28t-124 -60q-69 -212 -69 -455v-133q0 -221 112 -342t289 -121q87 1 165 27t127 62q68 212 68 454v133zM683 1375q560 0 560 -548v-78q0 -377 -144 -574t-436 -197q-561 0 -561 547v79q0 389 148 580t433 191zM464 1702
l-85 -11l-240 149v66l132 10l193 -182v-32zM1019 1470l-125 -10l-238 192l-231 -192l-95 10v32l283 292l133 -10l273 -282v-32z" />
    <glyph glyph-name="uni1ED3" unicode="&#x1ed3;" horiz-adv-x="1114" 
d="M838 622q0 170 -78 266t-208 98q-129 2 -216 -59q-60 -136 -60 -355v-119q0 -167 86 -261t203 -94q116 0 213 60q60 126 60 345v119zM548 -22q-218 0 -336 116q-116 116 -116 325v93q0 276 126 436t340 159q212 -1 334 -117t122 -334v-94q0 -264 -126 -424t-344 -160z
M356 1540l-88 -10l-217 203v66l135 10l170 -237v-32zM869 1275l-125 -10l-193 252l-186 -252l-95 10v32l233 373l133 -10l233 -363v-32z" />
    <glyph glyph-name="uni1ED4" unicode="&#x1ed4;" horiz-adv-x="1345" 
d="M1053 783q-1 235 -105 349t-295 114q-89 0 -168 -28t-124 -60q-69 -212 -69 -455v-133q0 -221 112 -342t289 -121q87 1 165 27t127 62q68 212 68 454v133zM683 1375q560 0 560 -548v-78q0 -377 -144 -574t-436 -197q-561 0 -561 547v79q0 389 148 580t433 191zM998 2101
q193 0 193 -130q0 -51 -27 -85q-27 -35 -74 -68q-46 -33 -56 -46q-10 -14 -9 -32q0 -18 10 -38l-92 -27q-35 46 -35 80t14 57t48 47q58 42 77 63q18 20 18 45q0 50 -66 50q-45 0 -85 -18l-24 -81l-78 5v123q88 55 186 55zM1019 1470l-125 -10l-238 192l-231 -192l-95 10v32
l283 292l133 -10l273 -282v-32z" />
    <glyph glyph-name="uni1ED5" unicode="&#x1ed5;" horiz-adv-x="1114" 
d="M838 622q0 170 -78 266t-208 98q-129 2 -216 -59q-60 -136 -60 -355v-119q0 -167 86 -261t203 -94q116 0 213 60q60 126 60 345v119zM548 -22q-218 0 -336 116q-116 116 -116 325v93q0 276 126 436t340 159q212 -1 334 -117t122 -334v-94q0 -264 -126 -424t-344 -160z
M879 1939q193 0 193 -130q0 -51 -27 -85q-27 -35 -74 -68q-45 -33 -55 -46q-10 -14 -10 -32t10 -38l-92 -27q-35 46 -35 80q1 34 15 57t47 47q58 42 77 63q18 20 18 45q0 50 -66 50q-45 0 -85 -18l-24 -81l-78 5v123q88 55 186 55zM869 1275l-125 -10l-193 252l-186 -252
l-95 10v32l233 373l133 -10l233 -363v-32z" />
    <glyph glyph-name="uni1ED6" unicode="&#x1ed6;" horiz-adv-x="1345" 
d="M1053 783q-1 235 -105 349t-295 114q-89 0 -168 -28t-124 -60q-69 -212 -69 -455v-133q0 -221 112 -342t289 -121q87 1 165 27t127 62q68 212 68 454v133zM683 1375q560 0 560 -548v-78q0 -377 -144 -574t-436 -197q-561 0 -561 547v79q0 389 148 580t433 191zM1019 1470
l-125 -10l-238 192l-231 -192l-95 10v32l283 292l133 -10l273 -282v-32zM860 2026q83 0 83 120l117 10v-47q0 -105 -54 -167t-140 -62q-88 0 -234 66q-147 66 -172 66q-50 0 -71 -21t-21 -77l-109 -10v25q1 113 59 171t151 58t225 -66q50 -26 94 -46q43 -20 72 -20z" />
    <glyph glyph-name="uni1ED7" unicode="&#x1ed7;" horiz-adv-x="1114" 
d="M838 622q0 170 -78 266t-208 98q-129 2 -216 -59q-60 -136 -60 -355v-119q0 -167 86 -261t203 -94q116 0 213 60q60 126 60 345v119zM548 -22q-218 0 -336 116q-116 116 -116 325v93q0 276 126 436t340 159q212 -1 334 -117t122 -334v-94q0 -264 -126 -424t-344 -160z
M869 1275l-125 -10l-193 252l-186 -252l-95 10v32l233 373l133 -10l233 -363v-32zM761 1917q83 0 83 120l117 10v-47q1 -106 -53 -168t-141 -61q-87 0 -233 66q-147 66 -173 66q-50 0 -71 -21t-21 -77l-109 -10v25q0 113 58 171t152 58t226 -66q50 -25 93 -45t72 -21z" />
    <glyph glyph-name="uni1ED8" unicode="&#x1ed8;" horiz-adv-x="1345" 
d="M1053 783q-1 235 -105 349t-295 114q-89 0 -168 -28t-124 -60q-69 -212 -69 -455v-133q0 -221 112 -342t289 -121q87 1 165 27t127 62q68 212 68 454v133zM683 1375q560 0 560 -548v-78q0 -377 -144 -574t-436 -197q-561 0 -561 547v79q0 389 148 580t433 191zM604 -229
q29 41 64 41q63 0 103 -28t40 -64q0 -63 -29 -104t-64 -41q-34 0 -59 8q-25 7 -44 21q-40 28 -40 77t29 90zM1020 1470l-125 -10l-238 192l-231 -192l-95 10v32l283 292l133 -10l273 -282v-32z" />
    <glyph glyph-name="uni1ED9" unicode="&#x1ed9;" horiz-adv-x="1114" 
d="M838 622q0 170 -78 266t-208 98q-129 2 -216 -59q-60 -136 -60 -355v-119q0 -167 86 -261t203 -94q116 0 213 60q60 126 60 345v119zM548 -22q-218 0 -336 116q-116 116 -116 325v93q0 276 126 436t340 159q212 -1 334 -117t122 -334v-94q0 -264 -126 -424t-344 -160z
M477 -229q29 41 64 41q63 0 103 -28t40 -64q0 -63 -29 -104t-64 -41q-34 0 -59 8q-25 7 -44 21q-40 28 -40 77t29 90zM858 1275l-125 -10l-193 252l-186 -252l-95 10v32l233 373l133 -10l233 -363v-32z" />
    <glyph glyph-name="uni1EDA" unicode="&#x1eda;" horiz-adv-x="1379" 
d="M522 1503l298 281l192 -10v-66l-375 -248l-115 11v32zM1053 783q-1 235 -105 349t-295 114q-89 0 -168 -28t-124 -60q-69 -212 -69 -455v-133q0 -221 112 -342t289 -121q87 1 165 27t127 62q68 212 68 454v133zM1493 1589q87 -109 87 -220t-92 -188q-92 -76 -273 -138
q28 -95 28 -216v-78q0 -377 -144 -574t-436 -197q-561 0 -561 547v79q0 389 148 580t433 191q367 0 495 -239q118 49 157 80q39 32 52 60t13 64q0 91 -67 162v30z" />
    <glyph glyph-name="uni1EDB" unicode="&#x1edb;" horiz-adv-x="1138" 
d="M486 1307l203 363l182 -10v-66l-280 -329l-105 10v32zM838 622q0 170 -78 266t-208 98q-129 2 -216 -59q-60 -136 -60 -355v-119q0 -167 86 -261t203 -94q116 0 213 60q60 126 60 345v119zM1145 1432q87 -109 87 -220q0 -110 -98 -192q-66 -55 -180 -102q64 -104 64 -262
v-94q0 -264 -126 -424t-344 -160t-336 116q-116 116 -116 325v93q0 276 126 436t334 159q208 0 328 -105q14 6 46 22q122 58 122 169q0 81 -67 152v30z" />
    <glyph glyph-name="uni1EDC" unicode="&#x1edc;" horiz-adv-x="1379" 
d="M844 1471l-115 -11l-375 248v66l192 10l298 -281v-32zM1053 783q-1 235 -105 349t-295 114q-89 0 -168 -28t-124 -60q-69 -212 -69 -455v-133q0 -221 112 -342t289 -121q87 1 165 27t127 62q68 212 68 454v133zM1493 1589q87 -109 87 -220t-92 -188q-92 -76 -273 -138
q28 -95 28 -216v-78q0 -377 -144 -574t-436 -197q-561 0 -561 547v79q0 389 148 580t433 191q367 0 495 -239q118 49 157 80q39 32 52 60t13 64q0 91 -67 162v30z" />
    <glyph glyph-name="uni1EDD" unicode="&#x1edd;" horiz-adv-x="1138" 
d="M671 1275l-118 -10l-290 329v66l175 10l233 -363v-32zM838 622q0 170 -78 266t-208 98q-129 2 -216 -59q-60 -136 -60 -355v-119q0 -167 86 -261t203 -94q116 0 213 60q60 126 60 345v119zM1145 1432q87 -109 87 -220q0 -110 -98 -192q-66 -55 -180 -102q64 -104 64 -262
v-94q0 -264 -126 -424t-344 -160t-336 116q-116 116 -116 325v93q0 276 126 436t334 159q208 0 328 -105q14 6 46 22q122 58 122 169q0 81 -67 152v30z" />
    <glyph glyph-name="uni1EDE" unicode="&#x1ede;" horiz-adv-x="1379" 
d="M685 1865q193 0 193 -130q0 -51 -27 -85q-27 -35 -74 -68q-45 -33 -55 -46q-10 -14 -10 -32t10 -38l-92 -27q-35 46 -35 80q1 34 15 57t47 47q58 42 77 63q18 20 18 45q0 50 -66 50q-45 0 -85 -18l-24 -81l-78 5v123q88 55 186 55zM1053 783q-1 235 -105 349t-295 114
q-89 0 -168 -28t-124 -60q-69 -212 -69 -455v-133q0 -221 112 -342t289 -121q87 1 165 27t127 62q68 212 68 454v133zM1493 1589q87 -109 87 -220t-92 -188q-92 -76 -273 -138q28 -95 28 -216v-78q0 -377 -144 -574t-436 -197q-561 0 -561 547v79q0 389 148 580t433 191
q367 0 495 -239q118 49 157 80q39 32 52 60t13 64q0 91 -67 162v30z" />
    <glyph glyph-name="uni1EDF" unicode="&#x1edf;" horiz-adv-x="1138" 
d="M575 1670q193 0 193 -130q0 -51 -27 -85q-27 -35 -74 -68q-45 -33 -55 -46t-10 -31t10 -39l-92 -27q-35 46 -35 80q1 34 15 57t47 47q58 42 77 63q18 20 18 45q0 50 -66 50q-45 0 -85 -18l-24 -81l-78 5v123q88 55 186 55zM838 622q0 170 -78 266t-208 98
q-129 2 -216 -59q-60 -136 -60 -355v-119q0 -167 86 -261t203 -94q116 0 213 60q60 126 60 345v119zM1145 1432q87 -109 87 -220q0 -110 -98 -192q-66 -55 -180 -102q64 -104 64 -262v-94q0 -264 -126 -424t-344 -160t-336 116q-116 116 -116 325v93q0 276 126 436t334 159
q208 0 328 -105q14 6 46 22q122 58 122 169q0 81 -67 152v30z" />
    <glyph glyph-name="uni1EE0" unicode="&#x1ee0;" horiz-adv-x="1379" 
d="M854 1617q83 0 83 120l117 10v-47q0 -106 -54 -168t-140 -61q-88 0 -234 66q-147 66 -172 66q-50 0 -71 -21t-21 -77l-109 -10v25q1 113 59 171t151 58t225 -66q50 -25 94 -45q43 -20 72 -21zM1053 783q-1 235 -105 349t-295 114q-89 0 -168 -28t-124 -60
q-69 -212 -69 -455v-133q0 -221 112 -342t289 -121q87 1 165 27t127 62q68 212 68 454v133zM1493 1589q87 -109 87 -220t-92 -188q-92 -76 -273 -138q28 -95 28 -216v-78q0 -377 -144 -574t-436 -197q-561 0 -561 547v79q0 389 148 580t433 191q367 0 495 -239
q118 49 157 80q39 32 52 60t13 64q0 91 -67 162v30z" />
    <glyph glyph-name="uni1EE1" unicode="&#x1ee1;" horiz-adv-x="1138" 
d="M766 1404q83 0 83 120l117 10v-47q0 -105 -54 -167t-140 -62q-88 0 -234 66q-147 66 -172 66q-50 0 -71 -21t-21 -77l-109 -10v25q1 113 59 171t151 58t225 -66q50 -26 94 -46q43 -20 72 -20zM838 622q0 170 -78 266t-208 98q-129 2 -216 -59q-60 -136 -60 -355v-119
q0 -167 86 -261t203 -94q116 0 213 60q60 126 60 345v119zM1145 1432q87 -109 87 -220q0 -110 -98 -192q-66 -55 -180 -102q64 -104 64 -262v-94q0 -264 -126 -424t-344 -160t-336 116q-116 116 -116 325v93q0 276 126 436t334 159q208 0 328 -105q14 6 46 22
q122 58 122 169q0 81 -67 152v30z" />
    <glyph glyph-name="uni1EE2" unicode="&#x1ee2;" horiz-adv-x="1379" 
d="M604 -229q29 41 64 41q63 0 103 -28t40 -64q0 -63 -29 -104t-64 -41q-34 0 -59 8q-25 7 -44 21q-40 28 -40 77t29 90zM1053 783q-1 235 -105 349t-295 114q-89 0 -168 -28t-124 -60q-69 -212 -69 -455v-133q0 -221 112 -342t289 -121q87 1 165 27t127 62q68 212 68 454
v133zM1493 1589q87 -109 87 -220t-92 -188q-92 -76 -273 -138q28 -95 28 -216v-78q0 -377 -144 -574t-436 -197q-561 0 -561 547v79q0 389 148 580t433 191q367 0 495 -239q118 49 157 80q39 32 52 60t13 64q0 91 -67 162v30z" />
    <glyph glyph-name="uni1EE3" unicode="&#x1ee3;" horiz-adv-x="1138" 
d="M477 -229q29 41 64 41q63 0 103 -28t40 -64q0 -63 -29 -104t-64 -41q-34 0 -59 8q-25 7 -44 21q-40 28 -40 77t29 90zM838 622q0 170 -78 266t-208 98q-129 2 -216 -59q-60 -136 -60 -355v-119q0 -167 86 -261t203 -94q116 0 213 60q60 126 60 345v119zM1145 1432
q87 -109 87 -220q0 -110 -98 -192q-66 -55 -180 -102q64 -104 64 -262v-94q0 -264 -126 -424t-344 -160t-336 116q-116 116 -116 325v93q0 276 126 436t334 159q208 0 328 -105q14 6 46 22q122 58 122 169q0 81 -67 152v30z" />
    <glyph glyph-name="uni1EE4" unicode="&#x1ee4;" horiz-adv-x="1358" 
d="M360 546q0 -223 94 -331t259 -108q79 0 148 23t110 53q78 142 78 338v700l-153 34l20 98h406l20 -98l-152 -34v-677q0 -290 -127 -428t-383 -138t-383 124t-127 389v730l-154 34l20 98h456l20 -98l-152 -34v-675zM619 -229q29 41 64 41q63 0 103 -28t40 -64
q0 -63 -29 -104t-64 -41q-34 0 -59 8q-25 7 -44 21q-40 28 -40 77t29 90z" />
    <glyph glyph-name="uni1EE5" unicode="&#x1ee5;" horiz-adv-x="1262" 
d="M191 359v594l-153 34l20 98l313 22v-704q0 -157 55 -231t196 -74t261 127v728l-183 34l20 98l343 22v-975l153 -34l-20 -98l-235 -22l-58 178q-152 -178 -371 -178q-341 0 -341 381zM563 -229q29 41 64 41q63 0 103 -28t40 -64q0 -63 -29 -104t-64 -41q-34 0 -59 8
q-25 7 -44 21q-40 28 -40 77t29 90z" />
    <glyph glyph-name="uni1EE6" unicode="&#x1ee6;" horiz-adv-x="1358" 
d="M360 546q0 -223 94 -331t259 -108q79 0 148 23t110 53q78 142 78 338v700l-153 34l20 98h406l20 -98l-152 -34v-677q0 -290 -127 -428t-383 -138t-383 124t-127 389v730l-154 34l20 98h456l20 -98l-152 -34v-675zM727 1865q193 0 193 -130q0 -51 -27 -85q-27 -35 -74 -68
q-45 -33 -55 -46q-10 -14 -10 -32t10 -38l-92 -27q-35 46 -35 80q1 34 15 57t47 47q58 42 77 63q18 20 18 45q0 50 -66 50q-45 0 -85 -18l-24 -81l-78 5v123q88 55 186 55z" />
    <glyph glyph-name="uni1EE7" unicode="&#x1ee7;" horiz-adv-x="1262" 
d="M191 359v594l-153 34l20 98l313 22v-704q0 -157 55 -231t196 -74t261 127v728l-183 34l20 98l343 22v-975l153 -34l-20 -98l-235 -22l-58 178q-152 -178 -371 -178q-341 0 -341 381zM616 1670q193 0 193 -130q0 -51 -27 -85q-27 -35 -74 -68q-46 -33 -56 -46t-9 -31
q0 -18 10 -39l-92 -27q-35 46 -35 80t14 57t48 47q58 42 77 63q18 20 18 45q0 50 -66 50q-45 0 -85 -18l-24 -81l-78 5v123q88 55 186 55z" />
    <glyph glyph-name="uni1EE8" unicode="&#x1ee8;" horiz-adv-x="1570" 
d="M564 1503l298 281l192 -10v-66l-375 -248l-115 11v32zM1532 1589q87 -109 87 -220t-98 -193q-98 -81 -331 -155v-477q0 -290 -127 -428t-383 -138t-383 124t-127 389v730l-154 34l20 98h456l20 -98l-152 -34v-675q0 -223 94 -331t259 -108q79 0 148 23t110 53
q78 142 78 338v700l-153 34l20 98h406l20 -98l-152 -34v-96q139 55 181 89t55 62t13 64q0 91 -67 162v30z" />
    <glyph glyph-name="uni1EE9" unicode="&#x1ee9;" horiz-adv-x="1333" 
d="M527 1307l203 363l182 -10v-66l-280 -329l-105 10v32zM1356 1432q87 -109 87 -220t-93 -189q-93 -77 -287 -143v-748l153 -34l-20 -98l-235 -22l-58 178q-152 -178 -371 -178q-341 0 -341 381v594l-153 34l20 98l313 22v-704q0 -157 55 -231t196 -74t261 127v728l-183 34
l20 98l343 22v-119q157 67 187 131q13 28 13 64q0 91 -67 162v30z" />
    <glyph glyph-name="uni1EEA" unicode="&#x1eea;" horiz-adv-x="1570" 
d="M886 1471l-115 -11l-375 248v66l192 10l298 -281v-32zM1532 1589q87 -109 87 -220t-98 -193q-98 -81 -331 -155v-477q0 -290 -127 -428t-383 -138t-383 124t-127 389v730l-154 34l20 98h456l20 -98l-152 -34v-675q0 -223 94 -331t259 -108q79 0 148 23t110 53
q78 142 78 338v700l-153 34l20 98h406l20 -98l-152 -34v-96q139 55 181 89t55 62t13 64q0 91 -67 162v30z" />
    <glyph glyph-name="uni1EEB" unicode="&#x1eeb;" horiz-adv-x="1333" 
d="M712 1275l-118 -10l-290 329v66l175 10l233 -363v-32zM1356 1432q87 -109 87 -220t-93 -189q-93 -77 -287 -143v-748l153 -34l-20 -98l-235 -22l-58 178q-152 -178 -371 -178q-341 0 -341 381v594l-153 34l20 98l313 22v-704q0 -157 55 -231t196 -74t261 127v728l-183 34
l20 98l343 22v-119q157 67 187 131q13 28 13 64q0 91 -67 162v30z" />
    <glyph glyph-name="uni1EEC" unicode="&#x1eec;" horiz-adv-x="1570" 
d="M727 1865q193 0 193 -130q0 -51 -27 -85q-27 -35 -74 -68q-45 -33 -55 -46q-10 -14 -10 -32t10 -38l-92 -27q-35 46 -35 80q1 34 15 57t47 47q58 42 77 63q18 20 18 45q0 50 -66 50q-45 0 -85 -18l-24 -81l-78 5v123q88 55 186 55zM1532 1589q87 -109 87 -220t-98 -193
q-98 -81 -331 -155v-477q0 -290 -127 -428t-383 -138t-383 124t-127 389v730l-154 34l20 98h456l20 -98l-152 -34v-675q0 -223 94 -331t259 -108q79 0 148 23t110 53q78 142 78 338v700l-153 34l20 98h406l20 -98l-152 -34v-96q139 55 181 89t55 62t13 64q0 91 -67 162v30z
" />
    <glyph glyph-name="uni1EED" unicode="&#x1eed;" horiz-adv-x="1333" 
d="M616 1670q193 0 193 -130q0 -51 -27 -85q-27 -35 -74 -68q-46 -33 -56 -46t-9 -31q0 -18 10 -39l-92 -27q-35 46 -35 80t14 57t48 47q58 42 77 63q18 20 18 45q0 50 -66 50q-45 0 -85 -18l-24 -81l-78 5v123q88 55 186 55zM1356 1432q87 -109 87 -220t-93 -189
q-93 -77 -287 -143v-748l153 -34l-20 -98l-235 -22l-58 178q-152 -178 -371 -178q-341 0 -341 381v594l-153 34l20 98l313 22v-704q0 -157 55 -231t196 -74t261 127v728l-183 34l20 98l343 22v-119q157 67 187 131q13 28 13 64q0 91 -67 162v30z" />
    <glyph glyph-name="uni1EEE" unicode="&#x1eee;" horiz-adv-x="1570" 
d="M896 1617q83 0 83 120l117 10v-47q0 -106 -54 -168t-140 -61q-88 0 -234 66q-147 66 -172 66q-50 0 -71 -21t-21 -77l-109 -10v25q1 113 59 171t151 58t225 -66q50 -25 94 -45q43 -20 72 -21zM1532 1589q87 -109 87 -220t-98 -193q-98 -81 -331 -155v-477
q0 -290 -127 -428t-383 -138t-383 124t-127 389v730l-154 34l20 98h456l20 -98l-152 -34v-675q0 -223 94 -331t259 -108q79 0 148 23t110 53q78 142 78 338v700l-153 34l20 98h406l20 -98l-152 -34v-96q139 55 181 89t55 62t13 64q0 91 -67 162v30z" />
    <glyph glyph-name="uni1EEF" unicode="&#x1eef;" horiz-adv-x="1333" 
d="M807 1404q83 0 83 120l117 10v-47q1 -105 -53 -167t-141 -62t-233 66q-147 66 -173 66q-50 0 -71 -21t-21 -77l-109 -10v25q0 113 58 171t152 58t226 -66q50 -26 93 -46t72 -20zM1356 1432q87 -109 87 -220t-93 -189q-93 -77 -287 -143v-748l153 -34l-20 -98l-235 -22
l-58 178q-152 -178 -371 -178q-341 0 -341 381v594l-153 34l20 98l313 22v-704q0 -157 55 -231t196 -74t261 127v728l-183 34l20 98l343 22v-119q157 67 187 131q13 28 13 64q0 91 -67 162v30z" />
    <glyph glyph-name="uni1EF0" unicode="&#x1ef0;" horiz-adv-x="1570" 
d="M619 -229q29 41 64 41q63 0 103 -28t40 -64q0 -63 -29 -104t-64 -41q-34 0 -59 8q-25 7 -44 21q-40 28 -40 77t29 90zM1532 1589q87 -109 87 -220t-98 -193q-98 -81 -331 -155v-477q0 -290 -127 -428t-383 -138t-383 124t-127 389v730l-154 34l20 98h456l20 -98l-152 -34
v-675q0 -223 94 -331t259 -108q79 0 148 23t110 53q78 142 78 338v700l-153 34l20 98h406l20 -98l-152 -34v-96q139 55 181 89t55 62t13 64q0 91 -67 162v30z" />
    <glyph glyph-name="uni1EF1" unicode="&#x1ef1;" horiz-adv-x="1333" 
d="M563 -229q29 41 64 41q63 0 103 -28t40 -64q0 -63 -29 -104t-64 -41q-34 0 -59 8q-25 7 -44 21q-40 28 -40 77t29 90zM1356 1432q87 -109 87 -220t-93 -189q-93 -77 -287 -143v-748l153 -34l-20 -98l-235 -22l-58 178q-152 -178 -371 -178q-341 0 -341 381v594l-153 34
l20 98l313 22v-704q0 -157 55 -231t196 -74t261 127v728l-183 34l20 98l343 22v-119q157 67 187 131q13 28 13 64q0 91 -67 162v30z" />
    <glyph glyph-name="Ygrave" unicode="&#x1ef2;" horiz-adv-x="1122" 
d="M478 578l-416 648l-114 28l20 99h410l20 -99l-132 -28l321 -504h16l304 504l-125 28l20 99h352l20 -99l-111 -28l-395 -650v-444l152 -34l-20 -98h-455l-20 98l153 34v446zM775 1471l-115 -11l-375 248v66l192 10l298 -281v-32z" />
    <glyph glyph-name="ygrave" unicode="&#x1ef3;" horiz-adv-x="1106" 
d="M490 -352q-88 -105 -212 -105q-125 0 -230 47l36 131q140 -51 270 -51q87 60 140 205l-407 1093l-97 19l20 98h370l20 -98l-125 -19l295 -836h16l296 836l-125 19l20 98h325l20 -98l-97 -19l-357 -966q-90 -249 -178 -354zM693 1275l-118 -10l-290 329v66l175 10
l233 -363v-32z" />
    <glyph glyph-name="uni1EF4" unicode="&#x1ef4;" horiz-adv-x="1122" 
d="M478 578l-416 648l-114 28l20 99h410l20 -99l-132 -28l321 -504h16l304 504l-125 28l20 99h352l20 -99l-111 -28l-395 -650v-444l152 -34l-20 -98h-455l-20 98l153 34v446zM485 -229q29 41 64 41q63 0 103 -28t40 -64q0 -63 -29 -104t-64 -41q-34 0 -59 8q-25 7 -44 21
q-40 28 -40 77t29 90z" />
    <glyph glyph-name="uni1EF5" unicode="&#x1ef5;" horiz-adv-x="1106" 
d="M490 -352q-88 -105 -212 -105q-125 0 -230 47l36 131q140 -51 270 -51q87 60 140 205l-407 1093l-97 19l20 98h370l20 -98l-125 -19l295 -836h16l296 836l-125 19l20 98h325l20 -98l-97 -19l-357 -966q-90 -249 -178 -354zM728 -229q29 41 64 41q63 0 103 -28t40 -64
q0 -63 -29 -104t-64 -41q-34 0 -59 8q-25 7 -44 21q-40 28 -40 77t29 90z" />
    <glyph glyph-name="uni1EF6" unicode="&#x1ef6;" horiz-adv-x="1122" 
d="M478 578l-416 648l-114 28l20 99h410l20 -99l-132 -28l321 -504h16l304 504l-125 28l20 99h352l20 -99l-111 -28l-395 -650v-444l152 -34l-20 -98h-455l-20 98l153 34v446zM616 1865q193 0 193 -130q0 -51 -27 -85q-27 -35 -74 -68q-46 -33 -56 -46q-10 -14 -9 -32
q0 -18 10 -38l-92 -27q-35 46 -35 80t14 57t48 47q58 42 77 63q18 20 18 45q0 50 -66 50q-45 0 -85 -18l-24 -81l-78 5v123q88 55 186 55z" />
    <glyph glyph-name="uni1EF7" unicode="&#x1ef7;" horiz-adv-x="1106" 
d="M490 -352q-88 -105 -212 -105q-125 0 -230 47l36 131q140 -51 270 -51q87 60 140 205l-407 1093l-97 19l20 98h370l20 -98l-125 -19l295 -836h16l296 836l-125 19l20 98h325l20 -98l-97 -19l-357 -966q-90 -249 -178 -354zM597 1670q193 0 193 -130q0 -51 -27 -85
q-27 -35 -74 -68q-45 -33 -55 -46t-10 -31t10 -39l-92 -27q-35 46 -35 80q1 34 15 57t47 47q58 42 77 63q18 20 18 45q0 50 -66 50q-45 0 -85 -18l-24 -81l-78 5v123q88 55 186 55z" />
    <glyph glyph-name="uni1EF8" unicode="&#x1ef8;" horiz-adv-x="1122" 
d="M478 578l-416 648l-114 28l20 99h410l20 -99l-132 -28l321 -504h16l304 504l-125 28l20 99h352l20 -99l-111 -28l-395 -650v-444l152 -34l-20 -98h-455l-20 98l153 34v446zM785 1617q83 0 83 120l117 10v-47q1 -106 -53 -168t-141 -61q-87 0 -233 66q-147 66 -173 66
q-50 0 -71 -21t-21 -77l-109 -10v25q0 113 58 171t152 58t226 -66q50 -25 93 -45t72 -21z" />
    <glyph glyph-name="uni1EF9" unicode="&#x1ef9;" horiz-adv-x="1106" 
d="M490 -352q-88 -105 -212 -105q-125 0 -230 47l36 131q140 -51 270 -51q87 60 140 205l-407 1093l-97 19l20 98h370l20 -98l-125 -19l295 -836h16l296 836l-125 19l20 98h325l20 -98l-97 -19l-357 -966q-90 -249 -178 -354zM788 1404q83 0 83 120l117 10v-47
q0 -105 -54 -167t-140 -62q-88 0 -234 66q-147 66 -172 66q-50 0 -71 -21t-21 -77l-109 -10v25q1 113 59 171t151 58t225 -66q50 -26 94 -46q43 -20 72 -20z" />
    <glyph glyph-name="uni2007" unicode="&#x2007;" horiz-adv-x="1100" 
 />
    <glyph glyph-name="uni2010" unicode="&#x2010;" horiz-adv-x="969" 
d="M230 665l589 41l-30 -149l-589 -41z" />
    <glyph glyph-name="figuredash" unicode="&#x2012;" horiz-adv-x="1150" 
d="M163 739h907l-20 -146h-908z" />
    <glyph glyph-name="endash" unicode="&#x2013;" horiz-adv-x="1141" 
d="M90 645h981l-20 -136h-981z" />
    <glyph glyph-name="emdash" unicode="&#x2014;" horiz-adv-x="2035" 
d="M30 645h1975l-20 -136h-1975z" />
    <glyph glyph-name="uni2015" unicode="&#x2015;" horiz-adv-x="2475" 
d="M51 645h2374l-20 -136h-2375z" />
    <glyph glyph-name="quoteleft" unicode="&#x2018;" horiz-adv-x="472" 
d="M180 1284q0 -30 48 -43q48 -12 76 -35.5t28 -53.5q0 -61 -27 -109t-65 -48q-136 0 -158 68.5t-22 120.5q0 108 39 192t158 186l62 -73q-139 -116 -139 -205z" />
    <glyph glyph-name="quoteright" unicode="&#x2019;" horiz-adv-x="386" 
d="M200 1273q0 30 -48 43q-48 12 -76 36t-28 54q0 61 27 108.5t65 47.5q93 0 136 -46q44 -46 44 -148q0 -103 -39 -187t-158 -186l-62 73q139 116 139 205z" />
    <glyph glyph-name="quotesinglbase" unicode="&#x201a;" horiz-adv-x="472" 
d="M272 -59q0 30 -48 43q-48 12 -76 36t-28 54q0 61 27 108.5t65 47.5q93 0 136 -46q44 -46 44 -148q0 -103 -39 -187t-158 -186l-62 73q139 116 139 205z" />
    <glyph glyph-name="quotedblleft" unicode="&#x201c;" horiz-adv-x="822" 
d="M530 1284q0 -30 48 -43q48 -12 76 -35.5t28 -53.5q0 -61 -27 -109t-65 -48q-136 0 -158 68.5t-22 120.5q0 108 39 192t158 186l62 -73q-139 -116 -139 -205zM180 1284q0 -30 48 -43q48 -12 76 -35.5t28 -53.5q0 -61 -27 -109t-65 -48q-136 0 -158 68.5t-22 120.5
q0 108 39 192t158 186l62 -73q-139 -116 -139 -205z" />
    <glyph glyph-name="quotedblright" unicode="&#x201d;" horiz-adv-x="736" 
d="M550 1273q0 30 -48 43q-48 12 -76 36t-28 54q0 61 27 108.5t65 47.5q93 0 136 -46q44 -46 44 -148q0 -103 -39 -187t-158 -186l-62 73q139 116 139 205zM200 1273q0 30 -48 43q-48 12 -76 36t-28 54q0 61 27 108.5t65 47.5q93 0 136 -46q44 -46 44 -148q0 -103 -39 -187
t-158 -186l-62 73q139 116 139 205z" />
    </font>
</defs>
</svg>
