<?xml version="1.0" standalone="no"?>
<!DOCTYPE svg PUBLIC "-//W3C//DTD SVG 1.1//EN" "http://www.w3.org/Graphics/SVG/1.1/DTD/svg11.dtd" >
<svg xmlns="http://www.w3.org/2000/svg">
<metadata>
Created by FontPrep 20130207 at Thu Jul 21 21:11:14 2016
 By Callum Flack
</metadata>
<defs>
<font id="d04fc14e7fb621a36cd158f1166480c2" horiz-adv-x='1024' >
  <font-face 
    font-family="94883357b62aaeb6-subsetofNocturno-Bk"
    font-weight="450"
    font-stretch="normal"
    units-per-em="2048"
    panose-1="2 0 0 0 0 0 0 0 0 0"
    ascent="1573"
    descent="-475"
    x-height="995"
    cap-height="1434"
    bbox="-115 -510 2234 1866"
    underline-thickness="102"
    underline-position="-205"
    unicode-range="U+0020-2122"
  />
<missing-glyph horiz-adv-x="1357" 
d="M680 647l-244 -244l-47 48l244 241l-238 238l45 45l238 -238l244 244l45 -45l-242 -244l246 -246l-45 -45zM41 41h1276v1249h-1276v-1249zM0 1331h1358v-1331h-1358v1331z" />
    <glyph glyph-name=".notdef" horiz-adv-x="1357" 
d="M680 647l-244 -244l-47 48l244 241l-238 238l45 45l238 -238l244 244l45 -45l-242 -244l246 -246l-45 -45zM41 41h1276v1249h-1276v-1249zM0 1331h1358v-1331h-1358v1331z" />
    <glyph glyph-name=".null" horiz-adv-x="0" 
 />
    <glyph glyph-name="nonmarkingreturn" horiz-adv-x="681" 
 />
    <glyph glyph-name="space" unicode=" " horiz-adv-x="460" 
 />
    <glyph glyph-name="exclam" unicode="!" horiz-adv-x="585" 
d="M145 122q0 73 44.5 112.5t108.5 39.5t105 -36.5t41 -110.5t-45 -112t-107 -38t-104.5 36t-42.5 109zM258 459q0 31 -14.5 95t-45 232.5t-30.5 331.5q0 162 21.5 240t102.5 78t101.5 -78t20.5 -214t-14.5 -242.5t-31 -195t-30.5 -153t-14 -94.5h-66z" />
    <glyph glyph-name="quotedbl" unicode="&#x22;" horiz-adv-x="786" 
d="M627 846q-54 -23 -76.5 -15.5t-38.5 15.5l-49 590q49 30 107 30t108 -30zM272 846q-53 -23 -75.5 -15.5t-38.5 15.5l-49 590q49 30 107 30t108 -30z" />
    <glyph glyph-name="numbersign" unicode="#" horiz-adv-x="1288" 
d="M465 440h303l47 254h-303zM745 315h-305l-57 -315h-143l57 315h-209l16 125h218l47 254h-226l19 127h229l53 279h144l-53 -279h305l51 279h143l-53 -279h217l-16 -127h-224l-47 -254h232l-19 -125h-237l-58 -315h-141z" />
    <glyph glyph-name="dollar" unicode="$" horiz-adv-x="1005" 
d="M354 862q0 -37 20.5 -67.5t86.5 -75.5v278q-107 -32 -107 -135zM672 233q0 53 -28 89t-83 75v-307q111 36 111 143zM899 287q0 -127 -92 -207t-246 -96v-115h-100v111q-64 3 -157.5 18.5t-156.5 15.5q-19 169 -53 310h84q53 -119 109 -179.5t174 -64.5v377l-35 20
q-66 39 -120 72t-112.5 87.5t-58.5 170.5q0 115 89 197.5t237 99.5v158h100v-156q74 -4 138.5 -17.5t129.5 -17.5h17l-2 -127l2 -168h-86q-10 37 -34.5 126.5t-164.5 101.5v-349q7 -4 108 -64.5t165.5 -118.5t64.5 -185z" />
    <glyph glyph-name="percent" unicode="%" horiz-adv-x="1374" 
d="M1165 1118.5q0 -20.5 -11 -44t-64 -79.5l-392 -420l-348 -473q-88 -125 -147 -75q-48 42 -4.5 92.5t59.5 68.5l399 439l332 448q42 61 80 86t76 -6q20 -16 20 -36.5zM872 255q0 -179 119 -179t119 179t-119 179t-119 -179zM985 -14q-131 0 -209 63.5t-78 193.5t84 206.5
t222 76.5q192 0 236 -94t44 -162q0 -133 -84 -208.5t-215 -75.5zM506 942q0 178 -119 178t-119 -178t119 -178t119 178zM382 672q-132 0 -210 62.5t-78 194.5t84 207.5t219 75.5q195 0 239 -94t44 -162q0 -131 -83 -207.5t-215 -76.5z" />
    <glyph glyph-name="ampersand" unicode="&#x26;" horiz-adv-x="1878" 
d="M889 1176q0 66 -31 105.5t-94 39.5q-103 0 -133.5 -64.5t-30.5 -120.5q0 -118 55 -249l13 -27q221 130 221 316zM295 391q0 -246 302 -246q133 0 255 76q-234 243 -360 479q-197 -127 -197 -309zM907 166q-229 -193 -421 -193q-299 0 -362 127t-63 243t99 216.5
t301 198.5l-12 26q-58 127 -58 229q0 190 139 317.5t316 127.5q137 0 206.5 -76t69.5 -160t-65 -188.5t-361 -232.5q112 -212 326 -430q66 80 120 183t77 196h-150q-6 36 -6 68t12 67q284 0 680 33q21 -63 21 -103.5t-4 -52.5l-326 -14q-71 -160 -369 -431
q288 -274 498 -274q95 0 172 49l41 -39q-110 -203 -334 -203q-104 0 -251 85.5t-296 230.5z" />
    <glyph glyph-name="quotesingle" unicode="'" horiz-adv-x="432" 
d="M272 846q-53 -23 -75.5 -15.5t-38.5 15.5l-49 590q49 30 107 30t108 -30z" />
    <glyph glyph-name="parenleft" unicode="(" horiz-adv-x="569" 
d="M281 580q0 -295 64 -552.5t173 -389.5l-55 -39q-167 150 -276 407.5t-109 546t109.5 549t279.5 407.5l49 -41q-175 -195 -205 -473t-30 -415z" />
    <glyph glyph-name="parenright" unicode=")" horiz-adv-x="569" 
d="M289 528q0 289 -63.5 549.5t-174.5 392.5l55 39q166 -150 276 -412t110 -545.5t-109 -543.5t-281 -409l-49 41q173 193 204.5 472t31.5 416z" />
    <glyph glyph-name="asterisk" unicode="*" horiz-adv-x="866" 
d="M403 1067l-204 -184l-86 139l284 94l-284 92l84 140l206 -177l-53 252h160l-51 -258l211 183l80 -136l-293 -96l293 -98l-80 -135l-211 180l51 -258h-160z" />
    <glyph glyph-name="plus" unicode="+" horiz-adv-x="997" 
d="M420 494h-322v155h322v324h158v-324h321v-155h-321v-338h-158v338z" />
    <glyph glyph-name="comma" unicode="," horiz-adv-x="552" 
d="M111 98q0 58 44 106t119 48t122.5 -56.5t47.5 -144.5q0 -161 -117.5 -276.5t-289.5 -155.5l-29 66q166 52 212 137.5t50 126.5q-91 0 -125 45.5t-34 103.5z" />
    <glyph glyph-name="hyphen" unicode="-" horiz-adv-x="688" 
d="M561 520q0 -48 -4 -86h-426q-4 18 -4 24v68q0 62 4 82h426q4 -40 4 -88z" />
    <glyph glyph-name="period" unicode="." horiz-adv-x="536" 
d="M159 222q50 48 119 48t108.5 -41t39.5 -89q0 -79 -51 -128t-117 -49t-107.5 41.5t-41.5 105.5t50 112z" />
    <glyph glyph-name="slash" unicode="/" horiz-adv-x="903" 
d="M63 -43l658 1554l119 -43l-660 -1554z" />
    <glyph glyph-name="zero" unicode="0" horiz-adv-x="1282" 
d="M644 78q138 0 211 118.5t73 323.5t-70 314.5t-216 109.5t-220 -119.5t-74 -329.5t79 -313.5t217 -103.5zM1046 906q136 -136 136 -383t-159.5 -394t-399.5 -147t-382.5 126.5t-142.5 372.5t165.5 403.5t406.5 157.5q240 0 376 -136z" />
    <glyph glyph-name="one" unicode="1" horiz-adv-x="815" 
d="M551 576q0 -214 8 -294.5t30.5 -123.5t64.5 -55.5t108 -12.5v-90q-63 0 -119 2h-44h-331q-68 -2 -141 -2v90q63 0 103 14.5t72 78.5t32 313t-41 306.5t-88 72t-117 14.5v84l487 69q-24 -252 -24 -466z" />
    <glyph glyph-name="two" unicode="2" horiz-adv-x="1081" 
d="M449 899q-147 0 -256 -127q-16 4 -36 21.5t-30 33.5q45 90 152.5 152.5t266.5 62.5t252 -89t93 -192t-55.5 -184t-159.5 -170t-346 -210l680 10l-52 -207h-872v90q319 264 435 399t116 223q0 89 -48 138t-140 49z" />
    <glyph glyph-name="three" unicode="3" horiz-adv-x="1042" 
d="M412 -268q304 0 305 256q0 131 -106.5 213t-346.5 88l19 100q186 10 273 91.5t87 191.5t-60.5 168.5t-154.5 58.5q-127 0 -229 -121q-16 4 -37 22.5t-31 35.5q41 88 149.5 147t254.5 59t250 -79t104 -212t-93.5 -227t-267.5 -116q209 -19 322 -131t113 -269
t-130.5 -287.5t-371.5 -130.5q-119 0 -221.5 46.5t-176.5 115.5q17 54 60 84q61 -35 135 -69.5t154 -34.5z" />
    <glyph glyph-name="four" unicode="4" horiz-adv-x="1298" 
d="M715 279v514l-471 -519zM715 76h-670v114l774 848h121v-762h311l-22 -200h-289v-449l-225 -24v473z" />
    <glyph glyph-name="five" unicode="5" horiz-adv-x="1095" 
d="M471 -262q137 0 208 67t71 161t-39 154t-132 123t-405 171l92 612h742l-31 -205h-627l-39 -248q342 -112 512 -231.5t170 -304.5q0 -186 -130.5 -314.5t-352.5 -128.5q-154 0 -274.5 73t-180.5 177q6 16 31 36t41 24q133 -166 344 -166z" />
    <glyph glyph-name="six" unicode="6" horiz-adv-x="1280" 
d="M592 707q-113 0 -236 -60q0 -191 46.5 -334.5t114 -188t127.5 -44.5q109 0 159.5 86.5t50.5 237.5t-74.5 227t-187.5 76zM360 741q160 111 344 111q185 0 288.5 -115t103.5 -291t-124.5 -319t-365.5 -143t-371.5 175.5t-130.5 432.5q0 160 55.5 312.5t174.5 270
t307 190.5t455 73h49q49 0 84 -4q16 -47 0 -101q-634 11 -745 -222.5t-124 -369.5z" />
    <glyph glyph-name="seven" unicode="7" horiz-adv-x="1021" 
d="M1006 1026v-43l-701 -1366h-127l621 1204h-750l33 205h924z" />
    <glyph glyph-name="eight" unicode="8" horiz-adv-x="1191" 
d="M827 1100q0 94 -69.5 152.5t-170 58.5t-157.5 -54.5t-57 -134.5t54 -132t105 -88t117 -83q92 74 135 130.5t43 150.5zM508 635q-189 -149 -189 -289q0 -192 112 -232t174 -40q119 0 185 64t66 128t-27.5 110t-87.5 100.5t-233 158.5zM106 289q0 146 94.5 228.5
t239.5 160.5q-29 20 -159.5 109.5t-130.5 269.5q0 149 135 252.5t323 103.5t304 -87.5t116 -236.5t-124 -214.5t-187 -96.5q53 -35 214 -134.5t161 -295.5q0 -167 -156 -272t-353 -105q-192 0 -334.5 86t-142.5 232z" />
    <glyph glyph-name="nine" unicode="9" horiz-adv-x="1251" 
d="M680 301q113 0 235 57v23q0 348 -97.5 457.5t-173.5 109.5t-151 -53t-75 -280q0 -150 74.5 -232t187.5 -82zM578 158q-197 0 -299.5 119.5t-102.5 299.5t127 323.5t365 143.5t368.5 -175t130.5 -433q0 -160 -55 -312.5t-174 -270t-307.5 -190.5t-454.5 -73h-49
q-49 0 -84 4q-16 47 0 101q621 -11 735.5 214.5t130.5 356.5q-47 -35 -134 -71.5t-197 -36.5z" />
    <glyph glyph-name="colon" unicode=":" horiz-adv-x="583" 
d="M183 951q50 50 119 50t109 -41.5t40 -89.5q0 -80 -51 -129t-117 -49t-108 41.5t-42 104.5t50 113zM133 108.5q0 63.5 50 112.5t119 49t109 -41t40 -89q0 -79 -51 -128t-117 -49t-108 41t-42 104.5z" />
    <glyph glyph-name="semicolon" unicode=";" horiz-adv-x="604" 
d="M145 98q0 58 44 106t118 48t122 -56.5t48 -144.5q0 -161 -117.5 -276.5t-287.5 -155.5l-31 66q106 32 182 108t80 156q-90 0 -124 45.5t-34 103.5zM205 951.5q49 49.5 119 49.5t108.5 -41.5t38.5 -107.5t-51 -113t-116 -47t-106.5 41t-41.5 105t49 113.5z" />
    <glyph glyph-name="less" unicode="&#x3c;" horiz-adv-x="796" 
d="M90 528v70l510 434l92 -104l-411 -363l407 -358l-90 -105z" />
    <glyph glyph-name="equal" unicode="=" horiz-adv-x="1140" 
d="M141 801h860v-144h-860v144zM141 496h860v-144h-860v144z" />
    <glyph glyph-name="greater" unicode="&#x3e;" horiz-adv-x="796" 
d="M199 102l-90 105l407 358l-412 363l93 104l510 -434v-70z" />
    <glyph glyph-name="question" unicode="?" horiz-adv-x="884" 
d="M236 93q0 81 50 129t119 48t108.5 -41t39.5 -89q0 -79 -51 -128t-117 -49q-65 0 -107 42t-42 88zM412 1458q270 0 335.5 -96t65.5 -168t-27.5 -121t-68.5 -87t-89 -68.5t-117 -87.5t-69 -150q0 -51 26 -86t103 -35l-16 -86q-55 -6 -113 -6q-116 0 -172.5 52.5
t-56.5 118.5t26.5 109.5t65.5 79t85 68.5t111.5 92.5t65.5 144.5t-53 114.5t-168 29.5t-233 -43l-33 168q139 57 332 57z" />
    <glyph glyph-name="at" unicode="@" horiz-adv-x="1818" 
d="M1057 436q0 4 2 21q-163 -23 -228 -52.5t-91.5 -61.5t-26.5 -72q0 -70 53.5 -100t118.5 -26q90 0 170 48v21l1 66zM1366 100q109 0 167 136t58 302q0 321 -159.5 500t-471.5 179q-311 0 -514.5 -194t-203.5 -558q0 -201 62.5 -347.5t164.5 -240.5t233.5 -139t268.5 -45
q228 0 448 131l45 -86q-128 -75 -245 -115.5t-282 -40.5t-319.5 58.5t-270.5 169t-182.5 270.5t-66.5 349t55.5 351t163 284t267.5 194.5t348 72.5q367 0 589 -193.5t222 -537.5q0 -252 -118 -436t-341 -184q-183 0 -219 149q-88 -101 -179.5 -126.5t-145.5 -25.5
q-107 0 -181 67.5t-74 159.5q0 93 50.5 149.5t151 100t376.5 87.5q4 58 4 94q2 111 -58.5 164t-156.5 53q-147 0 -274 -113q-36 31 -56 72q125 145 250 179t193 34q145 0 235 -87t88 -259l-14 -305q0 -139 16.5 -206t75.5 -67z" />
    <glyph glyph-name="A" unicode="A" horiz-adv-x="1452" 
d="M719 580q9 0 76 2t94 2l-221 616l-240 -618l205 -2h86zM324 227q0 -71 33.5 -101t105.5 -40v-86l-131 5q-132 5 -357 -5v84q93 24 141 105t76.5 154t71.5 173q244 567 379 916q24 6 96 6t97 -6q72 -193 124 -334.5t95 -256t81 -216t71 -187.5t74 -201.5t159 -150.5v-86
l-68 2l-471 -2v86q111 22 111 100q0 63 -80 285h-17l-73 1l-189 1l-268 -6q-61 -169 -61 -240z" />
    <glyph glyph-name="B" unicode="B" horiz-adv-x="1392" 
d="M522 801h140q123 0 197.5 56.5t74.5 196.5t-79 202.5t-210 62.5q-60 0 -86 -6t-43 -8q-4 -57 -9 -124t-5 -216v-162q16 -2 20 -2zM525 694q-5 0 -23 -2l2 -299q0 -76 3 -129t33 -104t188 -51q159 0 244 61t85 199t-91.5 231.5t-265.5 93.5h-175zM1192 1127
q0 -146 -87 -223t-222 -116q284 -38 361 -171.5t77 -225.5q0 -183 -152.5 -292t-418.5 -109q-86 0 -184.5 8t-215.5 8l-262 -6v82q55 8 89 29.5t52.5 85t24.5 183.5t6 322.5t-6 326.5t-24.5 194.5t-52.5 96.5t-89 32v82q157 -7 287 -7l340 11q215 0 346 -82.5t131 -228.5z
" />
    <glyph glyph-name="C" unicode="C" horiz-adv-x="1474" 
d="M241.5 216q-149.5 142 -149.5 479t223.5 550t561.5 213q110 0 260.5 -29.5t201.5 -29.5h23q-2 -43 -2 -53v-68l2 -260h-94q-38 204 -162 263.5t-226 59.5q-221 0 -369.5 -147t-148.5 -454t162 -478.5t384 -171.5q178 0 254.5 96.5t97 152.5t22.5 87h98q-19 -135 -41 -385
q-51 0 -209.5 -34t-309.5 -34q-152 0 -290.5 50.5t-288 192.5z" />
    <glyph glyph-name="D" unicode="D" horiz-adv-x="1671" 
d="M756 109q104 0 326.5 67.5t222.5 495.5q0 307 -168 476t-437 169q-104 0 -186 -12q-20 -145 -20 -315v-84l2 -492q0 -188 33.5 -234.5t78 -58.5t148.5 -12zM256 596q0 305 -6 433t-24.5 197.5t-52.5 94.5t-89 31v82q165 -7 184 -7h107q89 0 358 7q408 0 625 -183.5
t217 -536.5t-219.5 -534.5t-607.5 -181.5l-381 10q-95 0 -283 -8v82q57 8 91 29.5t57.5 100.5t23.5 384z" />
    <glyph glyph-name="E" unicode="E" 
d="M82 1434q211 -9 597 -9t488 17q-4 -78 -4 -186t4 -203h-86q-27 82 -58.5 134t-100 91t-295.5 39q-71 0 -123 -8q-15 -169 -15 -355v-170q12 -2 15 -2h22q251 0 310 26t73.5 57.5t16.5 78.5h82q-9 -212 -9 -229t9 -238h-82q-2 61 -16.5 98t-69 65t-279.5 28l-72 -2l3 -160
q0 -131 5 -209t34.5 -119t91 -53t155.5 -12t150.5 9t127.5 51t148 208h88l-10 -44q-10 -44 -25 -107t-49 -242q-150 12 -233 12l-279 2h-327l-287 -6v82q55 8 89 29.5t58.5 105.5t24.5 382t-5 427t-23.5 199.5t-52.5 97.5t-91 33v82z" />
    <glyph glyph-name="F" unicode="F" horiz-adv-x="1232" 
d="M641 1317q-83 0 -135 -8q-14 -158 -14 -355v-196h36q256 0 312.5 23.5t71 55t16.5 83.5h82q-9 -212 -9 -224.5t9 -255.5h-82q-2 61 -16.5 101.5t-65.5 72t-266 31.5h-35q-35 0 -53 -2l2 -143q0 -252 50 -334t183 -82v-86q-244 8 -356 8l-287 -6v82q55 8 89 29.5t52.5 85
t24.5 183.5t6 322.5t-6 326.5t-24.5 193.5t-52.5 95t-89 32.5v82q137 -7 158 -7h86l610 7q163 0 231 10q-4 -78 -4 -138v-24l4 -268h-88q-20 86 -48.5 144t-99.5 109.5t-292 51.5z" />
    <glyph glyph-name="G" unicode="G" horiz-adv-x="1564" 
d="M915 662q214 -7 231 -7h155q137 0 198 7v-82q-61 0 -87 -39t-29 -126q-5 -145 -5 -168v-94q0 -71 2 -112q-50 0 -230 -34t-331 -34t-289.5 49.5t-288 191.5t-149.5 466q0 182 63.5 326.5t229 298t498.5 153.5q114 0 270 -29.5t211 -29.5h22q-2 -43 -2 -84v-82l7 -219h-93
q-22 118 -121.5 222.5t-307.5 104.5t-357.5 -148.5t-149.5 -454.5t162 -477t381 -171q139 0 242 68q0 117 -5 196.5t-27.5 128.5t-70 70.5t-129.5 26.5v82z" />
    <glyph glyph-name="H" unicode="H" horiz-adv-x="1716" 
d="M338 1427h86q85 0 246 7v-82q-53 -6 -86 -29t-59.5 -104.5t-26.5 -419.5q172 -4 355.5 -4t365.5 4q-4 339 -29 420t-58.5 104t-84.5 29v82q157 -7 249 -7h88q87 0 244 7v-82q-55 -6 -89 -32t-52.5 -95.5t-24.5 -193.5t-6 -326.5t6 -322.5t24.5 -184.5t52.5 -86t89 -29.5
v-82l-295 6l-286 -6v82q55 8 87.5 29.5t58.5 108t26 456.5q-148 4 -334 4q-185 0 -387 -6q0 -381 24.5 -461t58 -101.5t89.5 -29.5v-82l-295 6l-287 -6v82q55 8 89 29.5t52.5 86t24.5 184.5t6 322.5t-6 326.5t-24.5 193.5t-52.5 95.5t-89 32v82q158 -7 250 -7z" />
    <glyph glyph-name="I" unicode="I" horiz-adv-x="757" 
d="M338 1427h86q85 0 246 7v-82q-55 -6 -89 -32t-52.5 -95.5t-24.5 -193.5t-6 -326.5t6 -322.5t24.5 -184.5t52 -86t89.5 -29.5v-82l-295 6l-287 -6v82q55 8 89 29.5t58.5 105.5t24.5 384t-6 426t-24.5 196.5t-52.5 96.5t-89 32v82q158 -7 250 -7z" />
    <glyph glyph-name="J" unicode="J" horiz-adv-x="720" 
d="M250 352v322q0 215 -3 346t-21.5 202.5t-57.5 97.5t-111 32v82q179 -7 271 -7h87q87 0 224 7v-82q-47 -6 -75.5 -21.5t-50 -84t-21.5 -427.5v-145l6 -414q0 -435 -545 -543q-15 15 -31 78q147 67 237.5 217.5t90.5 339.5z" />
    <glyph glyph-name="K" unicode="K" horiz-adv-x="1497" 
d="M885 88q96 0 96 47t-51 111l-348 416l-70 65l68 57l198 244q144 175 144 254q0 57 -80 61v91q204 -11 336 -11t264 11v-91q-162 -13 -278.5 -84.5t-297.5 -291.5l-118 -146q131 -150 267 -308.5t215 -242.5t129.5 -123t145.5 -59v-88q-236 8 -286 8t-334 -8v88zM338 1427
h86q86 0 240 7v-82q-55 -6 -89 -32t-50.5 -95.5t-21.5 -193.5t-5 -326.5t6 -322.5t24.5 -184.5t52 -86t89.5 -29.5v-82l-295 6l-287 -6v82q55 6 89 27.5t58.5 103t24.5 378.5q0 298 -5 429t-23.5 202.5t-52.5 97.5t-91 32v82q158 -7 250 -7z" />
    <glyph glyph-name="L" unicode="L" horiz-adv-x="1234" 
d="M84 1434q203 -9 283 -9t319 9v-82q-66 -4 -103.5 -30t-63 -119.5t-25.5 -528.5v-174q0 -235 49 -313t190 -78q142 0 231 69.5t166 245.5h89l-12 -51q-11 -51 -26.5 -121t-29.5 -144.5t-23 -121.5q-150 12 -233 12l-279 2l-262 6l-270 -6v82q55 8 89 29.5t52.5 85
t24.5 183.5t6 322.5t-6 326.5t-24.5 194.5t-52.5 96.5t-89 32v82z" />
    <glyph glyph-name="M" unicode="M" horiz-adv-x="2000" 
d="M253 1430h85q84 0 170 4l520 -1139l459 1139q150 -7 213 -7l219 7v-86q-49 -2 -83 -18.5t-63.5 -112t-29.5 -511.5q0 -415 24.5 -495t58.5 -101.5t89 -27.5v-82l-301 6l-279 -6v82q55 6 89 27.5t58.5 103t24.5 461.5v481l-481 -1171q-70 -17 -121 0l-516 1122v-432
q0 -370 33 -456.5t74 -108t106 -27.5v-82l-283 6l-231 -6v82q53 6 87 27.5t59.5 106.5t25.5 384t-8 433t-28.5 204t-54.5 90.5t-85 20.5v86z" />
    <glyph glyph-name="N" unicode="N" horiz-adv-x="1679" 
d="M204 1430h68q67 0 119 4q125 -137 238.5 -264.5t293.5 -329.5t388 -439v336q0 370 -41 465.5t-86 120.5t-113 29v82q165 -7 258 -7h87q86 0 194 7v-82q-57 -8 -91 -34t-57.5 -115.5t-23.5 -524.5v-160q0 -161 8 -553q-18 -4 -45 -4t-45 4q-140 158 -454.5 522.5
t-506.5 571.5v-373q0 -368 41 -459.5t86 -115t113 -29.5v-82l-303 6l-238 -6v82q53 6 87 29.5t59.5 108.5t25.5 375t-9 420t-30.5 201.5t-60.5 97t-96 32.5v88z" />
    <glyph glyph-name="O" unicode="O" horiz-adv-x="1656" 
d="M1174.5 242.5q119.5 150.5 119.5 447.5t-130 474t-351 177q-316 0 -382 -224t-66 -381q0 -309 129.5 -476.5t345.5 -167.5q215 0 334.5 150.5zM842 1458q317 0 521 -184t204 -526q0 -343 -214 -559t-556 -216q-300 0 -501.5 173.5t-201.5 524.5t157 513t296 218t295 56z
" />
    <glyph glyph-name="P" unicode="P" horiz-adv-x="1265" 
d="M494 954v-280q63 -12 128 -12q144 0 237 71t93 227t-84 257.5t-239 101.5q-61 0 -121 -10q-4 -57 -9 -126q-5 -70 -5 -229zM258 702.5q0 202.5 -6 326.5t-24.5 194.5t-52.5 96.5t-89 32v82q203 -9 276 -9l338 9q242 0 379.5 -111t137.5 -331t-167 -330.5t-429 -110.5
q-63 0 -125 6v-57q0 -245 45 -329.5t176 -84.5v-86l-350 6l-281 -6v82q55 8 89 29.5t52.5 85t24.5 183.5t6 322.5z" />
    <glyph glyph-name="Q" unicode="Q" horiz-adv-x="1656" 
d="M1174.5 242.5q119.5 150.5 119.5 447.5t-130 474t-351 177q-316 0 -382 -224t-66 -381q0 -309 129.5 -476.5t345.5 -167.5q215 0 334.5 150.5zM295.5 146.5q-201.5 173.5 -201.5 524.5t211.5 569t532.5 218t525 -184t204 -522q0 -293 -155.5 -496t-422.5 -262l41 -21
q236 -135 371.5 -193.5t288.5 -58.5q66 0 137 13l20 -90q-186 -99 -359 -99t-332 111t-325 319l-34 -2q-300 0 -501.5 173.5z" />
    <glyph glyph-name="R" unicode="R" horiz-adv-x="1429" 
d="M641 702q80 0 146.5 29t112.5 85t46 177q0 223 -107.5 273.5t-189.5 50.5h-47q-48 0 -84 -6q-16 -111 -20 -598q63 -11 143 -11zM498 573q0 -174 5 -269t24.5 -141t58.5 -59.5t104 -21.5v-82l-315 6l-287 -6v82q59 8 93 30.5t51.5 87t21.5 182.5t4 324t-6 331.5
t-23.5 193t-51.5 91.5t-89 30v82q124 -11 161 -11l468 11q251 0 376.5 -115t125.5 -270q0 -154 -92.5 -259.5t-239.5 -144.5q102 -166 264 -349.5t218 -217t122 -53.5v-66q-88 -53 -182 -53q-160 -1 -299 157q-41 46 -141.5 187t-149.5 216t-82 124l-139 2v-19z" />
    <glyph glyph-name="S" unicode="S" horiz-adv-x="1167" 
d="M435 1284q-60 -57 -60 -136t51 -131t194 -139t221.5 -137.5t157 -126t78.5 -221.5q0 -197 -150.5 -308.5t-379.5 -111.5q-71 0 -192 22.5t-201 22.5q-13 125 -70 390h92q65 -148 119.5 -204.5t116.5 -85t132 -28.5q133 0 214.5 53.5t81.5 152.5t-58.5 154.5t-120 93.5
t-145.5 88q-204 122 -290.5 206.5t-86.5 224.5q0 173 136.5 284t345.5 111q84 0 198.5 -24.5t161.5 -26.5h23q-5 -108 -5 -148v-17l5 -214h-95q-14 49 -49 181t-246 132q-119 0 -179 -57z" />
    <glyph glyph-name="T" unicode="T" horiz-adv-x="1394" 
d="M586 615q0 333 -2 486.5t-15 215.5h-92q-175 0 -235 -80t-76 -135t-27 -103h-90l6 289q0 49 -2 80t-4 72q50 -10 71 -10h161l213 -2q212 -3 229 -3l389 5q153 0 231 10q-6 -123 -6 -152l6 -289h-90q-30 143 -91.5 230.5t-225.5 87.5h-92q-21 -173 -21 -514t6.5 -451
t24.5 -168.5t54 -77t98 -24.5v-82l-306 6l-299 -6v82q61 8 98.5 27.5t62 96t24.5 409.5z" />
    <glyph glyph-name="U" unicode="U" horiz-adv-x="1550" 
d="M995 1432q107 -5 228 -5h95q95 0 179 7v-82q-55 -6 -86 -29t-49.5 -100.5t-18.5 -468.5v-291q0 -194 -125 -342t-446 -148q-194 0 -376.5 89t-182.5 362v330q0 190 -3 305t-18.5 177t-45 84.5t-85.5 29.5v82q144 -7 153 -7h114q82 0 329 9v-86q-123 0 -164.5 -72
t-41.5 -309l6 -445q4 -239 111.5 -326t278.5 -87t262 97t93 337v282q0 328 -28.5 404t-69.5 96.5t-109 20.5v86z" />
    <glyph glyph-name="V" unicode="V" horiz-adv-x="1404" 
d="M285 1423q135 0 243 11v-86q-110 -7 -110 -107q0 -45 20.5 -100.5t32.5 -91t24.5 -69.5t21.5 -60t36 -99t60.5 -165.5t70.5 -197t72 -198.5l211 547q114 282 114 401q0 70 -33.5 101.5t-103.5 38.5v86q146 -11 269.5 -11t218.5 11v-84q-95 -25 -146.5 -113.5
t-129.5 -285.5q-77 -197 -153 -388.5t-210 -562.5q-24 -6 -95.5 -6t-95.5 6q-137 384 -245.5 665t-135.5 353t-47 126t-55 117.5t-115 86.5v86q146 -11 281 -11z" />
    <glyph glyph-name="W" unicode="W" horiz-adv-x="2203" 
d="M1255 1249q0 -41 19 -92q3 -24 25 -82.5t32.5 -91.5t20.5 -59t34.5 -96t55.5 -160t65.5 -190.5t69.5 -192.5l182 524q99 284 99 399q0 68 -29 101.5t-94 38.5v86q146 -11 270 -11t219 11v-84q-97 -26 -152.5 -119.5t-128.5 -286.5q-72 -192 -117.5 -320t-82.5 -232.5
t-69 -198t-68 -193.5q-24 -6 -91 -6t-92 6q-31 88 -68.5 198.5t-80.5 230.5t-87 243t-87 237q-64 -176 -188.5 -500.5t-149.5 -408.5q-24 -6 -92 -6t-92 6q-53 156 -95.5 286t-82.5 248.5t-80 236t-78 225.5q-76 213 -112.5 270t-111.5 82v86q157 -11 288 -11t239 11v-86
q-113 -7 -113 -97q0 -43 36.5 -156t47.5 -154q12 -42 35.5 -114.5t53.5 -166t65 -198t67 -200.5l303 809l-10 31q-43 115 -86 175t-108 71v86q151 -11 285.5 -11t246.5 11v-86q-113 -8 -113 -99z" />
    <glyph glyph-name="X" unicode="X" horiz-adv-x="1372" 
d="M1088 8l-287 -10v86q96 18 96 70q0 69 -86 199t-129 194l-33 47l-192 -254q-68 -82 -68 -134t23.5 -81t87.5 -39v-86q-246 11 -348 6q-101 -4 -154 -6v84q92 11 178 102.5t254 309.5l154 198l-209 318q-37 55 -131.5 195.5t-202.5 140.5v86q193 -11 327 -11t242 11v-86
q-94 -18 -94 -70q0 -41 40 -107.5t82 -134.5t59.5 -96.5t33.5 -54.5l137 178q82 103 82 178q0 86 -114 107v86q124 -11 252.5 -11t240.5 11v-84q-121 -25 -232.5 -171.5t-185.5 -240.5l-116 -154q23 -33 36 -54t23 -34l199 -301q102 -150 177.5 -229t147.5 -82v-86z" />
    <glyph glyph-name="Y" unicode="Y" horiz-adv-x="1294" 
d="M1073.5 1423q122.5 0 208.5 11v-84q-99 -28 -156 -108.5t-95 -152t-89 -161.5l-174 -305q0 -347 33 -424.5t69.5 -94t92.5 -22.5v-82l-310 6l-313 -6v82q55 6 92 21.5t70 90.5t33 408v23l-250 407q-68 113 -132.5 200t-152.5 116v86q173 -11 305 -11t240 11v-86
q-115 -18 -115 -76q0 -40 43 -107t77 -121.5t79 -123t96 -146.5l115 203q98 177 98 258q0 51 -34 75.5t-93 37.5v86q140 -11 262.5 -11z" />
    <glyph glyph-name="Z" unicode="Z" horiz-adv-x="1327" 
d="M932 0h-862v68q481 726 788 1249h-156q-295 0 -372.5 -61.5t-97 -116t-35.5 -115.5h-86q4 45 4 62v164q0 147 -4 196q25 -4 55.5 -6t76.5 -5t93 -3h829v-62q-568 -927 -792 -1261h299q250 0 347 85t128 139t55 91h88q-107 -316 -129 -436q-138 12 -229 12z" />
    <glyph glyph-name="bracketleft" unicode="[" horiz-adv-x="647" 
d="M180 1587h422v-106h-254v-1733h254v-106h-422v1945z" />
    <glyph glyph-name="backslash" unicode="\" horiz-adv-x="903" 
d="M721 -86l-660 1554l121 43l658 -1554z" />
    <glyph glyph-name="bracketright" unicode="]" horiz-adv-x="647" 
d="M467 -358h-422v106h254v1733h-254v106h422v-1945z" />
    <glyph glyph-name="underscore" unicode="_" horiz-adv-x="1044" 
d="M53 -100h936v-152h-936v152z" />
    <glyph glyph-name="a" unicode="a" horiz-adv-x="1026" 
d="M631 457q-344 -51 -344 -182q0 -72 51.5 -103t105.5 -29q108 4 185 50q-2 14 -2 17v38l2 155v19q0 20 2 35zM537 1024q147 0 236 -86t89 -260q0 -55 -7 -131t-7 -164q0 -163 35.5 -213.5t148.5 -50.5v-43q-56 -62 -129 -80.5t-104 -18.5q-127 0 -162 152
q-88 -101 -179.5 -126.5t-145.5 -25.5q-107 0 -181 67.5t-74 159.5q0 93 50.5 149.5t151 100t376.5 87.5q4 58 4 94q2 111 -57.5 164t-157.5 53q-147 0 -274 -113q-32 28 -54 72q117 143 245 178t196 35z" />
    <glyph glyph-name="b" unicode="b" horiz-adv-x="1202" 
d="M578 850q-101 0 -216 -43v-305q0 -179 7 -326q87 -82 204 -82q207 0 255.5 143.5t48.5 247.5q0 365 -299 365zM365 887q199 137 355 137q176 0 293 -128.5t117 -354.5q0 -281 -177 -423.5t-403 -142.5t-423 82q2 113 8 270t6 324q0 168 -1 269.5t-7 202t-37.5 139
t-120.5 51.5v73l351 125h47q-8 -48 -8 -624z" />
    <glyph glyph-name="c" unicode="c" horiz-adv-x="1038" 
d="M568 -27q-211 0 -354.5 126.5t-143.5 377.5t177 399t406 148q135 0 232.5 -49t97.5 -123q0 -52 -41 -84.5t-89 -32.5t-76.5 26.5t-56.5 58.5t-63 58.5t-79 26.5q-97 0 -175.5 -85t-78.5 -270q0 -186 100 -286t244 -100t268 90q36 -26 47 -55q-80 -123 -197.5 -174.5
t-217.5 -51.5z" />
    <glyph glyph-name="d" unicode="d" horiz-adv-x="1241" 
d="M637 907q-135 0 -223 -99.5t-88 -283.5t77 -279t218 -95q93 0 221 49v59l-2 236v350q-100 63 -203 63zM1059 1178v-367q0 -484 17.5 -570.5t47 -108t82.5 -23.5v-74l-358 -64q2 23 2 35v115q-193 -148 -370 -148q-178 0 -293 127.5t-115 356.5q0 275 172 421t418 146
q106 0 172 -25q0 202 -24 246.5t-55.5 56t-82.5 11.5v73l350 125h47q-10 -297 -10 -333z" />
    <glyph glyph-name="e" unicode="e" horiz-adv-x="1095" 
d="M766 644v34q-2 109 -53 172t-146 63t-164.5 -77t-80.5 -222l442 13q2 14 2 17zM574 -27q-217 0 -360.5 126.5t-143.5 373.5q0 246 156.5 398.5t364.5 152.5t318.5 -122.5t110.5 -303.5q0 -38 -4 -76l-692 -12q15 -177 109.5 -261.5t251.5 -84.5t296 92q32 -23 45 -57
q-91 -122 -218.5 -174t-233.5 -52z" />
    <glyph glyph-name="f" unicode="f" horiz-adv-x="823" 
d="M215 674v168l-166 6v34q0 33 4 50l162 59q0 272 166 396t381 124q135 0 199.5 -42t64.5 -98t-38 -88t-87 -32t-77.5 20.5t-55.5 46t-58.5 46t-80.5 20.5q-100 0 -144.5 -80.5t-44.5 -248.5v-86h351q0 -58 -9 -119q-132 -8 -342 -8q-2 -102 -2 -124v-216q0 -131 4 -210
t27 -124t71 -63.5t138 -26.5v-78q-228 8 -334 8t-281 -8v76q55 14 85 37.5t45.5 84t18.5 173t3 303.5z" />
    <glyph glyph-name="g" unicode="g" horiz-adv-x="1138" 
d="M334 -53q-70 -57 -70 -145t78.5 -138.5t210.5 -50.5t201 31.5t99 65.5t30 75q0 68 -54.5 96t-160.5 37zM458 918q-132 0 -132 -252q0 -135 54 -209t152 -74q173 0 173 250q0 152 -57.5 218.5t-189.5 66.5zM938 681q0 -156 -87 -260t-253 -126q-146 -45 -174.5 -69.5
t-28.5 -41.5q0 -45 119 -53q35 0 172 -14.5t162 -16.5q129 -16 191.5 -80.5t62.5 -158.5t-54.5 -163t-186 -135.5t-344.5 -66.5t-341.5 64t-128.5 178q0 80 58.5 138t150.5 91q-37 18 -62.5 49t-25.5 69q0 67 69 111t199 95q-240 20 -292 137t-52 203q0 172 127 282.5
t320 110.5q146 0 249 -72l318 31q0 -14 -1 -37.5t-2.5 -61.5t-6.5 -73q-41 6 -98.5 16.5t-110.5 18.5q51 -82 51 -165z" />
    <glyph glyph-name="h" unicode="h" horiz-adv-x="1280" 
d="M1257 0q-227 8 -317 8t-238 -8v76q47 12 81 27.5t68 74.5t34 278q0 220 -49 305t-179 85t-251 -41v-303q0 -133 5 -212t24.5 -124t56 -62.5t100.5 -25.5v-78q-188 8 -305 8l-254 -6v76q55 14 84.5 37.5t45 84t18.5 172t3 279.5t-1 269.5t-7 202t-37.5 139t-120.5 51.5v73
l351 125h47q-2 -10 -2 -48t-1 -93t-2 -121.5t-2 -134t-2 -128t-1 -103.5q109 68 199.5 104.5t193.5 36.5q306 0 308 -392q1 -196 4 -296t17.5 -154.5t44 -75t84.5 -28.5v-78z" />
    <glyph glyph-name="i" unicode="i" horiz-adv-x="638" 
d="M260 1487.5q53 48.5 114 48.5q62 0 101 -40t39 -85q0 -77 -52 -124.5t-112 -47.5q-61 0 -102 39t-41 100t53 109.5zM438 624q0 -231 6.5 -320t25.5 -136t57 -64.5t102 -25.5v-80q-196 8 -314 8l-252 -6v76q55 14 85 35.5t45.5 64.5t18.5 118t3 187t-7 177t-26.5 101
t-51.5 51t-81 21v74l350 125h47q-8 -175 -8 -406z" />
    <glyph glyph-name="j" unicode="j" horiz-adv-x="567" 
d="M241 1487.5q53 48.5 114 48.5q62 0 101.5 -40t39.5 -85q0 -77 -52 -124.5t-112 -47.5q-61 0 -102.5 39t-41.5 100t53 109.5zM193 74v415q0 201 -27 253.5t-59.5 67.5t-81.5 21v74l356 125h47q-8 -175 -8 -483l6 -512q0 -218 -140.5 -350.5t-361.5 -186.5q-24 24 -39 66
q163 142 215 218.5t72.5 142t20.5 149.5z" />
    <glyph glyph-name="k" unicode="k" horiz-adv-x="1218" 
d="M682 80q78 0 78 41q0 27 -25.5 59.5t-48.5 59.5l-211 223l-63 59l75 47l107 97q111 109 111 178q0 59 -87 69v84q252 -8 290 -8t249 8v-84q-131 -11 -208 -63.5t-131 -103t-126 -117.5l-43 -39l369 -371q59 -59 103 -91t98 -48v-80q-188 8 -242.5 8t-294.5 -8v80z
M406 1144v-595q0 -302 20 -366t49 -81.5t76 -23.5v-78q-148 8 -259 8t-259 -8v76q55 14 84.5 37.5t45 84t18.5 173t3 280.5t-1 269.5t-7 202t-37.5 139t-120.5 51.5v73l351 125h47q-10 -297 -10 -367z" />
    <glyph glyph-name="l" unicode="l" horiz-adv-x="616" 
d="M418 1145v-555q0 -166 4 -262.5t23.5 -148.5t58.5 -71.5t106 -29.5v-80q-188 8 -307 8l-258 -6v76q55 14 85 37.5t48.5 98t18.5 341.5q0 266 -1 367.5t-7.5 202.5t-38 139t-119.5 51v73l350 125h47q-10 -297 -10 -366z" />
    <glyph glyph-name="m" unicode="m" horiz-adv-x="1970" 
d="M938 8q-86 0 -217 -8v76q49 12 82 28.5t61.5 73.5t28.5 284t-31 284t-76.5 78.5t-131.5 21.5t-216 -39v-305q0 -264 23.5 -322.5t59.5 -76t97 -25.5v-78q-291 14 -555 0v76q51 12 82 32.5t50.5 71t19.5 216.5q0 167 -5 240t-22.5 114t-50.5 57t-88 24v74l334 125h53
l-8 -151q109 66 200 105.5t197 39.5q194 0 252 -158q100 66 198.5 112t198.5 46t211 -44t111 -346q0 -196 3 -295t17.5 -154.5t44 -76t85.5 -28.5v-80q-228 8 -320 8t-237 -8v76q49 12 83.5 28.5t67.5 78t33 284.5t-31 279.5t-75 78t-135 21.5t-236 -47q15 -62 20 -211
q4 -150 9 -249t21.5 -153.5t49.5 -75t92 -32.5v-78q-264 8 -350 8z" />
    <glyph glyph-name="n" unicode="n" horiz-adv-x="1312" 
d="M1290 0q-228 8 -318 8q-91 0 -239 -8v76q45 12 80 27.5t70 73.5t35 279q0 220 -36 282.5t-84 85t-138 22.5t-222 -39v-305q0 -264 23.5 -322.5t59.5 -76t97 -25.5v-78q-291 14 -555 0v76q51 12 82 32.5t50.5 71t19.5 216.5q0 167 -5 240t-22.5 114t-50.5 57t-88 24v74
l334 125h53l-8 -151q111 70 205 107.5t198 37.5q307 0 309 -390q1 -196 4 -295t17.5 -154.5t44 -76t84.5 -28.5v-80z" />
    <glyph glyph-name="o" unicode="o" horiz-adv-x="1191" 
d="M581 913q-259 0 -259 -411q0 -203 78.5 -308.5t207.5 -105.5t193.5 90t64.5 305t-78.5 322.5t-206.5 107.5zM70 473q0 236 153.5 393.5t388.5 157.5t371.5 -134.5t136.5 -373.5t-148.5 -391t-393.5 -152q-236 0 -372 132t-136 368z" />
    <glyph glyph-name="p" unicode="p" horiz-adv-x="1253" 
d="M623 850q-95 0 -209 -41v-307q0 -186 6 -312q88 -92 209 -92q204 0 251.5 142.5t47.5 246.5q0 168 -72.5 265.5t-232.5 97.5zM767 1024q185 0 300 -129t115 -354q0 -276 -173 -418.5t-413 -142.5q-98 0 -180 20q0 -259 33.5 -310.5t79.5 -64t120 -20.5v-80q-244 8 -354 8
l-252 -6v76q55 14 86 35.5t45 82t17.5 177t3.5 319.5t-3.5 320.5t-19.5 180t-50 83t-95 26.5v74l338 129h47l-9 -151q96 61 183.5 103t180.5 42z" />
    <glyph glyph-name="q" unicode="q" horiz-adv-x="1214" 
d="M630 905q-136 0 -220 -97t-84 -290q0 -364 305 -364q100 0 211 41v634q-76 76 -212 76zM72 461q0 276 171.5 419.5t413.5 143.5q84 0 171 -17q88 -17 169 -18l82 2q-16 -451 -16 -725t3 -383.5t18.5 -167t45 -78t84.5 -34.5v-76l-251 6q-115 0 -355 -8v80q82 8 127 25.5
t67.5 65.5t28 136t9.5 236v49q-195 -137 -363 -137t-286.5 127t-118.5 354z" />
    <glyph glyph-name="r" unicode="r" horiz-adv-x="909" 
d="M743 1024q59 0 97.5 -30t38.5 -88t-36 -99t-90 -41t-107.5 24.5t-96.5 24.5t-113 -41v-272q0 -133 6.5 -212t31 -124t70.5 -62.5t126 -25.5v-78q-244 8 -352 8t-255 -8v76q51 12 82 32.5t50.5 71t19.5 216.5q0 167 -5 240t-22.5 114t-50.5 57t-88 24v74q163 56 338 125
h47l-8 -180q174 174 317 174z" />
    <glyph glyph-name="s" unicode="s" horiz-adv-x="925" 
d="M805 842v-62q0 -61 2 -90h-80q-33 187 -109 209.5t-134 22.5t-111.5 -32t-53.5 -87t39.5 -87.5t136.5 -79.5q97 -48 156.5 -80t127 -89.5t67.5 -177.5q0 -158 -123.5 -237t-284.5 -79q-57 0 -168.5 19.5t-158.5 19.5q-9 153 -39 326h80q40 -122 99.5 -188t187.5 -66
t162 52t34 86t-14.5 55.5t-46 43t-84 47t-113.5 57.5q-141 74 -206 138t-65 156q0 157 115.5 231t280.5 74q66 0 157 -15t150 -18q-4 -91 -4 -149z" />
    <glyph glyph-name="t" unicode="t" horiz-adv-x="827" 
d="M33 858v70q162 129 225.5 197.5t103.5 115.5h56l-10 -256h387q0 -70 -9 -119q-196 -8 -378 -8v-524q0 -100 37.5 -149.5t110.5 -49.5q73 1 131 21q59 20 85 39q28 -37 37 -78q-91 -80 -198 -112t-184 -32q-144 0 -196.5 69t-52.5 239v19l4 558h-149z" />
    <glyph glyph-name="u" unicode="u" horiz-adv-x="1265" 
d="M479 -27q-156 0 -232.5 102.5t-76.5 319.5v99q0 209 -21.5 256t-51 60t-79.5 21v74l351 125h47q-23 -234 -23 -417t8.5 -251.5t46 -141.5t179.5 -73q102 0 237 50l-2 235q0 254 -24.5 308.5t-60.5 68.5t-97 22v74l369 125h47q-11 -336 -11 -484q0 -259 26 -348t120 -89
v-74l-361 -64v7v37l2 110q-109 -70 -198.5 -111t-194.5 -41z" />
    <glyph glyph-name="v" unicode="v" horiz-adv-x="1148" 
d="M-6 997q141 -6 154 -6h128q114 0 218 4v-80q-103 -12 -103 -69q0 -58 90 -264.5t156 -352.5l115 308q86 235 86 276t-27 66.5t-102 35.5v82q141 -6 154 -6h103q90 0 189 6v-82q-41 -6 -72.5 -28.5t-73.5 -92.5t-163 -356l-191 -442q-31 -8 -81 -8t-74 8l-213 481
q-105 242 -150 313.5t-76.5 97t-66.5 27.5v82z" />
    <glyph glyph-name="w" unicode="w" horiz-adv-x="1781" 
d="M998 991q18 0 132 4v-80q-53 -8 -80.5 -22t-27.5 -58t69.5 -189.5t186.5 -405.5l111 299q41 115 62.5 178t21.5 102t-28 62.5t-106 33.5v82q141 -6 154 -6h103q91 0 190 6v-82q-41 -4 -72 -28.5t-73.5 -94.5t-163.5 -360l-183 -438q-32 -8 -82 -8t-73 8l-252 588
l-240 -588q-31 -8 -81 -8t-74 8l-205 477q-107 252 -155 325.5t-76.5 96t-59.5 22.5v82q141 -6 154 -6h128q114 0 218 4v-80q-105 -15 -105 -69q0 -50 61 -198.5t179 -407.5l196 465q-63 128 -91.5 165t-86.5 45v82q135 -6 143 -6h206z" />
    <glyph glyph-name="x" unicode="x" horiz-adv-x="1189" 
d="M698 995q135 -6 148 -6h95q83 0 194 6v-77q-104 -24 -184 -83.5t-220 -224.5l-39 -45l207 -256q88 -116 151 -167.5t136 -67.5v-74l-68 2l-475 -2v74q84 10 84 61q0 36 -176 260l-4 4l-15 -16q-133 -149 -133 -240q0 -63 70 -69v-74l-67 2l-394 -2v74q146 19 262.5 149.5
t178.5 202.5l40 47l-196 260q-75 96 -115.5 129t-130.5 56v77q165 -6 179 -6h102q88 0 223 6v-77q-68 0 -68 -39q0 -52 140 -226l12 -18l2 2q129 152 129 221q0 51 -68 60v77z" />
    <glyph glyph-name="y" unicode="y" horiz-adv-x="1157" 
d="M0 997q141 -6 154 -6h128q114 0 218 4v-80q-53 -8 -78 -22t-25 -58t71 -201t181 -413l115 318q80 232 80 270.5t-31 67t-98 38.5v82q141 -6 154 -6h105q91 0 187 6v-82q-43 -6 -74.5 -31.5t-71 -89.5t-165.5 -362l-191 -450q-98 -236 -201.5 -364t-238.5 -128
q-72 0 -100.5 34t-28.5 82q0 110 148 112q186 2 282 237l-231 516q-124 274 -160.5 332.5t-66 85t-62.5 26.5v82z" />
    <glyph glyph-name="z" unicode="z" horiz-adv-x="1034" 
d="M379 0h-326q-8 25 0 57l578 836h-180q-123 0 -176.5 -43.5t-108.5 -187.5h-70q13 240 13 344q88 -13 548 -13h275q6 -27 0 -53l-584 -844h33q272 0 344 33t108.5 78t86.5 121h77q-71 -197 -102 -342q-39 5 -148.5 6.5t-225 4.5t-142.5 3z" />
    <glyph glyph-name="braceleft" unicode="{" horiz-adv-x="673" 
d="M578 -358q-288 0 -326.5 134t-38.5 214l18 422q0 82 -45 112.5t-98 30.5h-43v88h43q53 0 98 34t45 116l-18 454q-2 162 80 249t285 87h49v-96h-31q-129 0 -167 -52t-38 -186l19 -336q2 -133 -41 -212.5t-164 -96.5q121 -16 164 -91t41 -196l-19 -329q0 -138 29 -177.5
t68.5 -56t107.5 -16.5h31v-96h-49z" />
    <glyph glyph-name="bar" unicode="|" horiz-adv-x="497" 
d="M184 1548h127v-1642h-127v1642z" />
    <glyph glyph-name="braceright" unicode="}" horiz-adv-x="673" 
d="M94 1583q288 0 326.5 -134t38.5 -214l-19 -422q0 -82 45 -112.5t99 -30.5h43v-88h-43q-53 0 -98.5 -34t-45.5 -116l19 -455q2 -164 -80 -249.5t-285 -85.5h-49v96h31q128 0 166.5 53t38.5 184l-19 336q-2 131 41 212t164 98q-121 14 -164 89.5t-41 196.5l19 330
q0 136 -29 176.5t-69 57t-107 16.5h-31v96h49z" />
    <glyph glyph-name="exclamdown" unicode="&#xa1;" horiz-adv-x="530" 
d="M414 880q0 -73 -44 -113t-108 -40t-105.5 36.5t-41.5 110.5t45 112t107 38t104.5 -35.5t42.5 -108.5zM301 543q0 -31 14.5 -95.5t45 -232t30.5 -331.5q0 -163 -21.5 -240.5t-102.5 -77.5t-101.5 77t-20.5 213t14.5 243.5t31 195.5t31 152.5t14.5 95.5h65z" />
    <glyph glyph-name="cent" unicode="&#xa2;" horiz-adv-x="1126" 
d="M356 557q0 -145 55.5 -232t137.5 -128v700q-127 -36 -160 -148t-33 -192zM662 -172h-113v147q-187 13 -317 139t-130 349q0 224 128.5 365t318.5 182v170h113v-156h24q133 0 231.5 -48.5t98.5 -123.5q0 -53 -42 -85t-86 -32t-69.5 19.5t-49.5 45t-49.5 52.5t-57.5 41
v-727q10 -2 12 -2h26q143 0 269 90q36 -26 47 -55q-71 -107 -166.5 -158t-187.5 -61v-152z" />
    <glyph glyph-name="sterling" unicode="&#xa3;" horiz-adv-x="1036" 
d="M687 993q-101 0 -156.5 -54t-55.5 -191v-136h305v-110h-305v-56q0 -96 -44 -162.5t-165 -101.5h307q210 0 240.5 37t40.5 55l104 -65q-25 -126 -136 -167.5t-212 -41.5h-512v150q72 4 114 73.5t42 153.5v125h-148v110h148v152q0 172 113 257t280 85q116 0 234 -35v-168
q-93 90 -194 90z" />
    <glyph glyph-name="currency" unicode="&#xa4;" horiz-adv-x="1095" 
d="M410 533q0 -60 39.5 -103t99 -43t99.5 43t40 103t-40 103.5t-99.5 43.5t-99 -43.5t-39.5 -103.5zM248 536q0 90 49 162l-186 183l86 96l192 -186q72 47 159 47t159 -47l192 186l88 -96l-188 -183q51 -74 51 -164t-51 -165l188 -183l-88 -96l-194 189q-74 -45 -157 -45
t-157 45l-194 -189l-86 96l186 185q-49 75 -49 165z" />
    <glyph glyph-name="yen" unicode="&#xa5;" horiz-adv-x="1204" 
d="M985.5 1083q46.5 0 136.5 9v-76q-81 -17 -125.5 -76t-75 -112.5t-69.5 -120.5l-53 -89h243v-129h-319l-8 -16v-46q0 -46 2 -73h325v-129h-317q15 -124 64 -134.5t79 -14.5v-76q-37 0 -73 2h-39h-305q-53 -2 -107 -2v76q72 9 102 34t41 115h-305v129h314q2 23 2 30v91
l-11 14h-305v129h224l-107 168q-77 121 -116 166t-107 62v78q239 -9 283.5 -9t179.5 9v-78q-90 -12 -90 -51q0 -27 30 -70l178 -275h29l72 127q70 131 70 179t-27 65t-74 25v78q212 -9 258.5 -9z" />
    <glyph glyph-name="section" unicode="&#xa7;" horiz-adv-x="1040" 
d="M322.5 1214.5q-46.5 -47.5 -46.5 -111.5t37 -157.5t117 -243.5q80 -149 125 -237t45 -172t-57 -156q20 -4 53 -4q74 0 119 61.5t45 135.5t-40 162t-118 225t-121 218t-43 170t66 155q-34 6 -55 6q-80 -4 -126.5 -51.5zM350 147q109 0 109 129q0 99 -129 320
q-41 72 -128 216t-87 272q0 168 125.5 271t332.5 103q158 0 248 -37t127 -63l-74 -199q-92 84 -182 84q-59 0 -85.5 -37.5t-26.5 -93.5t43 -140.5t117 -216.5t130 -254t56 -204q0 -154 -128 -259.5t-341 -105.5t-365 103l76 198q94 -86 182 -86z" />
    <glyph glyph-name="copyright" unicode="&#xa9;" horiz-adv-x="1275" 
d="M453 532q0 -136 65 -203t147 -67t119 45.5t37 87.5h56q-13 -86 -19 -166q-41 0 -89 -14t-126 -14q-154 0 -241 80.5t-87 225.5t98.5 237t243.5 92q66 0 116 -13.5t85 -13.5h10v-162h-53q-12 56 -45 90.5t-113 34.5q-204 0 -204 -240zM1047 510q0 193 -113 315.5
t-298 122.5t-297 -121.5t-112 -316.5t112.5 -314.5t298.5 -119.5q187 0 298 120.5t111 313.5zM263 885.5q154 152.5 378 152.5q225 0 373.5 -152.5t148.5 -375.5t-150.5 -373.5t-376.5 -150.5t-376.5 149.5t-150.5 373.5t154 376.5z" />
    <glyph glyph-name="guillemotleft" unicode="&#xab;" horiz-adv-x="940" 
d="M727 100l-297 422l297 424h94l-155 -418l155 -428h-94zM387 100l-297 422l297 424h94l-155 -418l155 -428h-94z" />
    <glyph glyph-name="registered" unicode="&#xae;" horiz-adv-x="1275" 
d="M594 973q113 1 113 121q0 32 -19.5 65t-85.5 33h-18q-19 0 -27 -2q-6 -30 -6 -215q10 -2 13 -2h30zM373 1247q46 -4 55 -4h68l139 4q104 0 150 -46t46 -102t-35.5 -96t-90.5 -57q65 -106 151 -184q38 -34 78 -47v-33q-37 -20 -97 -20t-108 61q-57 65 -143 201l-35 2v-6
q0 -129 9 -149.5t24.5 -25t40.5 -8.5v-39h-43h-20h-146h-43v39q31 4 47 27.5t16 95.5v213q0 78 -16.5 104.5t-46.5 28.5v41zM934.5 1251q-107.5 117 -296.5 117t-297 -117.5t-108 -308t109 -307.5t296 -117t295.5 116.5t108.5 308t-107.5 308.5zM272.5 577.5
q-147.5 147.5 -147.5 364.5t148.5 365.5t367 148.5t364.5 -148t146 -364.5t-148.5 -365t-365.5 -148.5t-364.5 147.5z" />
    <glyph glyph-name="guillemotright" unicode="&#xbb;" horiz-adv-x="940" 
d="M213 946l297 -422l-297 -424h-94l155 418l-155 428h94zM553 946l297 -422l-297 -424h-94l155 418l-155 428h94z" />
    <glyph glyph-name="questiondown" unicode="&#xbf;" horiz-adv-x="868" 
d="M641 894q0 -80 -50.5 -128.5t-119.5 -48.5q-68 0 -107.5 41t-39.5 89q0 80 50.5 128.5t116.5 48.5t108 -42t42 -88zM63 -207q0 72 28 121t69 87t89 68.5t116.5 87.5t68.5 150q0 51 -25.5 86t-103.5 35l17 86q54 6 112 6q117 0 173.5 -54t56.5 -119q0 -64 -27 -107
t-66 -79t-85 -69t-111.5 -92.5t-65.5 -144.5t53.5 -114.5t168.5 -29.5t233 43l33 -168q-139 -57 -332 -57q-271 0 -336.5 96t-65.5 168z" />
    <glyph glyph-name="Agrave" unicode="&#xc0;" horiz-adv-x="1452" 
d="M825 1628q-3 -26 -20 -65l-383 73q-85 13 -49 113q23 70 50.5 82t55.5 -4zM719 580q9 0 76 2t94 2l-221 616l-240 -618l205 -2h86zM324 227q0 -71 33.5 -101t105.5 -40v-86l-131 5q-132 5 -357 -5v84q93 24 141 105t76.5 154t71.5 173q244 567 379 916q24 6 96 6t97 -6
q72 -193 124 -334.5t95 -256t81 -216t71 -187.5t74 -201.5t159 -150.5v-86l-68 2l-471 -2v86q111 22 111 100q0 63 -80 285h-17l-73 1l-189 1l-268 -6q-61 -169 -61 -240z" />
    <glyph glyph-name="AE" unicode="&#xc6;" horiz-adv-x="1994" 
d="M546 580h31l334 6v633l-403 -637q31 -2 38 -2zM1821 1255.5q0 -108.5 4 -202.5h-86q-25 80 -55.5 131t-98 92t-282.5 41q-98 0 -142 -8q-14 -172 -14 -355v-170q12 -2 15 -2h22q250 0 309 26t73.5 57.5t16.5 78.5h82q-8 -188 -8 -229.5t8 -237.5h-82q-2 59 -16.5 96
t-66.5 66t-265 29h-88l2 -162q0 -129 5 -208t31.5 -120t82.5 -54t150 -13t156 8t133 49t153 213h88l-11 -44q-45 -197 -71 -351q-150 12 -234 12l-278 2h-310l-305 -6v82q45 6 77 21.5t58.5 72.5t34.5 301h-17l-68 1l-173 1q-106 0 -211 -6q-94 -166 -94 -256
q0 -104 129 -125v-86q-265 10 -271 10t-231 -10v84q82 22 166 135t189 293q63 100 139 221t225 357.5t213 339.5l6 -3v3q122 -5 135 -5h56l491 5q135 3 232 12q-4 -78 -4 -186.5z" />
    <glyph glyph-name="Ccedilla" unicode="&#xc7;" horiz-adv-x="1476" 
d="M1075 -262q0 -103 -77.5 -148t-172.5 -45t-172 31q0 66 23 121q72 -27 117 -27q94 0 94 60q0 39 -44 62.5t-110 45.5l43 137q-312 16 -498 207t-186 500q0 350 223.5 563t561.5 213q110 0 260.5 -29.5t201.5 -29.5h23q-2 -43 -2 -53v-68l2 -260h-94q-38 204 -162 263.5
t-226 59.5q-221 0 -369.5 -147t-148.5 -454t162 -478.5t384 -171.5q178 0 254.5 96.5t97 152.5t22.5 87h98q-11 -74 -41 -385q-61 0 -205.5 -32.5t-252.5 -35.5l-31 -45q98 -27 161.5 -77.5t63.5 -112.5z" />
    <glyph glyph-name="Egrave" unicode="&#xc8;" 
d="M858 1628q-3 -26 -20 -65l-383 73q-85 13 -49 113q23 70 50 82t56 -4zM82 1434q211 -9 597 -9t488 17q-4 -78 -4 -186t4 -203h-86q-27 82 -58.5 134t-100 91t-295.5 39q-71 0 -123 -8q-15 -169 -15 -355v-170q12 -2 15 -2h22q251 0 310 26t73.5 57.5t16.5 78.5h82
q-9 -212 -9 -229t9 -238h-82q-2 61 -16.5 98t-69 65t-279.5 28l-72 -2l3 -160q0 -131 5 -209t34.5 -119t91 -53t155.5 -12t150.5 9t127.5 51t148 208h88l-10 -44q-10 -44 -25 -107t-49 -242q-150 12 -233 12l-279 2h-327l-287 -6v82q55 8 89 29.5t58.5 105.5t24.5 382
t-5 427t-23.5 199.5t-52.5 97.5t-91 33v82z" />
    <glyph glyph-name="Eacute" unicode="&#xc9;" 
d="M563 1563q-17 39 -20 65l346 199q69 38 104 -70t-47 -121zM82 1434q211 -9 597 -9t488 17q-4 -78 -4 -186t4 -203h-86q-27 82 -58.5 134t-100 91t-295.5 39q-71 0 -123 -8q-15 -169 -15 -355v-170q12 -2 15 -2h22q251 0 310 26t73.5 57.5t16.5 78.5h82q-9 -212 -9 -229
t9 -238h-82q-2 61 -16.5 98t-69 65t-279.5 28l-72 -2l3 -160q0 -131 5 -209t34.5 -119t91 -53t155.5 -12t150.5 9t127.5 51t148 208h88l-10 -44q-10 -44 -25 -107t-49 -242q-150 12 -233 12l-279 2h-327l-287 -6v82q55 8 89 29.5t58.5 105.5t24.5 382t-5 427t-23.5 199.5
t-52.5 97.5t-91 33v82z" />
    <glyph glyph-name="Ecircumflex" unicode="&#xca;" 
d="M1012 1628q-49 -71 -101 -110l-223 170l-211 -179q-34 17 -82 80l305 277zM82 1434q211 -9 597 -9t488 17q-4 -78 -4 -186t4 -203h-86q-27 82 -58.5 134t-100 91t-295.5 39q-71 0 -123 -8q-15 -169 -15 -355v-170q12 -2 15 -2h22q251 0 310 26t73.5 57.5t16.5 78.5h82
q-9 -212 -9 -229t9 -238h-82q-2 61 -16.5 98t-69 65t-279.5 28l-72 -2l3 -160q0 -131 5 -209t34.5 -119t91 -53t155.5 -12t150.5 9t127.5 51t148 208h88l-10 -44q-10 -44 -25 -107t-49 -242q-150 12 -233 12l-279 2h-327l-287 -6v82q55 8 89 29.5t58.5 105.5t24.5 382
t-5 427t-23.5 199.5t-52.5 97.5t-91 33v82z" />
    <glyph glyph-name="Edieresis" unicode="&#xcb;" 
d="M417 1775q46 42 103 42t92 -35t35 -76q0 -68 -44 -112t-101 -44t-94 35t-37 92q0 56 46 98zM800 1775q46 42 103 42t92 -35t35 -90t-44 -98.5t-100 -43.5t-94 35t-38 92q0 56 46 98zM82 1434q211 -9 597 -9t488 17q-4 -78 -4 -186t4 -203h-86q-27 82 -58.5 134t-100 91
t-295.5 39q-71 0 -123 -8q-15 -169 -15 -355v-170q12 -2 15 -2h22q251 0 310 26t73.5 57.5t16.5 78.5h82q-9 -212 -9 -229t9 -238h-82q-2 61 -16.5 98t-69 65t-279.5 28l-72 -2l3 -160q0 -131 5 -209t34.5 -119t91 -53t155.5 -12t150.5 9t127.5 51t148 208h88l-10 -44
q-10 -44 -25 -107t-49 -242q-150 12 -233 12l-279 2h-327l-287 -6v82q55 8 89 29.5t58.5 105.5t24.5 382t-5 427t-23.5 199.5t-52.5 97.5t-91 33v82z" />
    <glyph glyph-name="Idieresis" unicode="&#xcf;" horiz-adv-x="757" 
d="M484.5 1774.5q46.5 42.5 103.5 42.5t92 -35t35 -90t-44.5 -98.5t-100.5 -43.5t-94 35t-38 91t46.5 98.5zM101.5 1774.5q46.5 42.5 103.5 42.5t92 -35t35 -76q0 -67 -44.5 -111.5t-101.5 -44.5t-94 35t-37 91t46.5 98.5zM338 1427h86q85 0 246 7v-82q-55 -6 -89 -32
t-52.5 -95.5t-24.5 -193.5t-6 -326.5t6 -322.5t24.5 -184.5t52 -86t89.5 -29.5v-82l-295 6l-287 -6v82q55 8 89 29.5t58.5 105.5t24.5 384t-6 426t-24.5 196.5t-52.5 96.5t-89 32v82q158 -7 250 -7z" />
    <glyph glyph-name="Ntilde" unicode="&#xd1;" horiz-adv-x="1679" 
d="M204 1430h68q67 0 119 4q125 -137 238.5 -264.5t293.5 -329.5t388 -439v336q0 370 -41 465.5t-86 120.5t-113 29v82q165 -7 258 -7h87q86 0 194 7v-82q-57 -8 -91 -34t-57.5 -115.5t-23.5 -524.5v-160q0 -161 8 -553q-18 -4 -45 -4t-45 4q-140 158 -454.5 522.5
t-506.5 571.5v-373q0 -368 41 -459.5t86 -115t113 -29.5v-82l-303 6l-238 -6v82q53 6 87 29.5t59.5 108.5t25.5 375t-9 420t-30.5 201.5t-60.5 97t-96 32.5v88zM492 1632q61 135 177 135q63 0 162.5 -21.5t133.5 -21.5q69 0 102 64q49 -23 72 -64q-41 -151 -189 -151
q-44 0 -146 25.5t-130 25.5q-72 0 -107 -57q-47 21 -75 65z" />
    <glyph glyph-name="Ocircumflex" unicode="&#xd4;" horiz-adv-x="1656" 
d="M1133 1628q-49 -71 -101 -110l-223 170l-211 -179q-38 20 -82 80l305 277zM1174.5 242.5q119.5 150.5 119.5 447.5t-130 474t-351 177q-316 0 -382 -224t-66 -381q0 -309 129.5 -476.5t345.5 -167.5q215 0 334.5 150.5zM842 1458q317 0 521 -184t204 -526
q0 -343 -214 -559t-556 -216q-300 0 -501.5 173.5t-201.5 524.5t157 513t296 218t295 56z" />
    <glyph glyph-name="Odieresis" unicode="&#xd6;" horiz-adv-x="1656" 
d="M1174.5 242.5q119.5 150.5 119.5 447.5t-130 474t-351 177q-316 0 -382 -224t-66 -381q0 -309 129.5 -476.5t345.5 -167.5q215 0 334.5 150.5zM842 1458q317 0 521 -184t204 -526q0 -343 -214 -559t-556 -216q-300 0 -501.5 173.5t-201.5 524.5t157 513t296 218t295 56z
M918.5 1774.5q46.5 42.5 103.5 42.5t92 -35t35 -90t-44.5 -98.5t-100.5 -43.5t-94 35t-38 91t46.5 98.5zM535.5 1774.5q46.5 42.5 103.5 42.5t92 -35t35 -76q0 -67 -44.5 -111.5t-101.5 -44.5t-94 35t-37 91t46.5 98.5z" />
    <glyph glyph-name="agrave" unicode="&#xe0;" horiz-adv-x="1026" 
d="M207 1356q-1 34 33 82t66 49.5t54 -21.5l275 -284q-5 -11 -41 -58l-346 181q-41 18 -41 51zM631 457q-344 -51 -344 -182q0 -72 51.5 -103t105.5 -29q108 4 185 50q-2 14 -2 17v38l2 155v19q0 20 2 35zM537 1024q147 0 236 -86t89 -260q0 -55 -7 -131t-7 -164
q0 -163 35.5 -213.5t148.5 -50.5v-43q-56 -62 -129 -80.5t-104 -18.5q-127 0 -162 152q-88 -101 -179.5 -126.5t-145.5 -25.5q-107 0 -181 67.5t-74 159.5q0 93 50.5 149.5t151 100t376.5 87.5q4 58 4 94q2 111 -57.5 164t-157.5 53q-147 0 -274 -113q-32 28 -54 72
q117 143 245 178t196 35z" />
    <glyph glyph-name="ae" unicode="&#xe6;" horiz-adv-x="1650" 
d="M293 259q0 -52 42 -80.5t102 -27.5q107 2 235 78q-47 96 -47 228q-163 -22 -223 -52t-84.5 -62t-24.5 -84zM1321 642v34q-2 109 -54.5 173t-142.5 64q-149 0 -194 -108.5t-51 -188.5l438 11q4 12 4 15zM528 1024q185 0 273 -133q145 133 350 133q204 0 315 -125t107 -309
q0 -34 -4 -68l-690 -10q14 -182 113.5 -265t251.5 -83t292 92q32 -23 45 -57q-96 -123 -222 -174.5t-246 -51.5t-228.5 47.5t-175.5 147.5q-177 -191 -375 -191q-129 0 -200 69t-71 160q0 161 145.5 227t416.5 108l8 92q2 113 -59.5 166t-157.5 53q-143 0 -273 -113
q-34 30 -55 72q117 143 244.5 178t195.5 35z" />
    <glyph glyph-name="ccedilla" unicode="&#xe7;" horiz-adv-x="1040" 
d="M809 -264q0 -103 -77.5 -148t-172.5 -45t-172 31q0 66 23 121q72 -27 117 -27q94 0 94 60q0 39 -44.5 62.5t-109.5 45.5l45 139q-186 13 -314 139t-128 351q0 263 177 411t406 148q135 0 232.5 -49t97.5 -123q0 -52 -41 -84.5t-89 -32.5t-76.5 26.5t-56.5 58.5t-63 58.5
t-79 26.5q-97 0 -175.5 -85t-78.5 -270q0 -186 100 -286t244 -100t268 90q36 -26 47 -55q-67 -106 -168.5 -158.5t-196.5 -63.5l-34 -51q98 -27 161.5 -77.5t63.5 -112.5z" />
    <glyph glyph-name="egrave" unicode="&#xe8;" horiz-adv-x="1097" 
d="M231 1356q0 34 34 82t65.5 49.5t54.5 -21.5l274 -284q-8 -19 -41 -58l-346 181q-41 18 -41 51zM766 644v34q-2 109 -53 172t-146 63t-164.5 -77t-80.5 -222l442 13q2 14 2 17zM574 -27q-217 0 -360.5 126.5t-143.5 373.5q0 246 156.5 398.5t364.5 152.5t318.5 -122.5
t110.5 -303.5q0 -38 -4 -76l-692 -12q15 -177 109.5 -261.5t251.5 -84.5t296 92q32 -23 45 -57q-91 -122 -218.5 -174t-233.5 -52z" />
    <glyph glyph-name="eacute" unicode="&#xe9;" horiz-adv-x="1097" 
d="M475 1124q-34 41 -41 58l275 284q60 60 124 -34t-12 -127zM766 644v34q-2 109 -53 172t-146 63t-164.5 -77t-80.5 -222l442 13q2 14 2 17zM574 -27q-217 0 -360.5 126.5t-143.5 373.5q0 246 156.5 398.5t364.5 152.5t318.5 -122.5t110.5 -303.5q0 -38 -4 -76l-692 -12
q15 -177 109.5 -261.5t251.5 -84.5t296 92q32 -23 45 -57q-91 -122 -218.5 -174t-233.5 -52z" />
    <glyph glyph-name="ecircumflex" unicode="&#xea;" horiz-adv-x="1097" 
d="M358 1137q-57 27 -84 80l295 301l301 -273q-23 -31 -46 -58.5t-58 -49.5l-209 180zM766 644v34q-2 109 -53 172t-146 63t-164.5 -77t-80.5 -222l442 13q2 14 2 17zM574 -27q-217 0 -360.5 126.5t-143.5 373.5q0 246 156.5 398.5t364.5 152.5t318.5 -122.5t110.5 -303.5
q0 -38 -4 -76l-692 -12q15 -177 109.5 -261.5t251.5 -84.5t296 92q32 -23 45 -57q-91 -122 -218.5 -174t-233.5 -52z" />
    <glyph glyph-name="edieresis" unicode="&#xeb;" horiz-adv-x="1097" 
d="M288 1402q46 42 102 42t91 -35t35 -76q0 -68 -43 -111.5t-101 -43.5t-94 34.5t-36 91.5q0 56 46 98zM669 1402q46 42 103 42t92 -35t35 -90t-44 -98t-100 -43t-94 34.5t-38 91.5q0 56 46 98zM766 644v34q-2 109 -53 172t-146 63t-164.5 -77t-80.5 -222l442 13q2 14 2 17z
M574 -27q-217 0 -360.5 126.5t-143.5 373.5q0 246 156.5 398.5t364.5 152.5t318.5 -122.5t110.5 -303.5q0 -38 -4 -76l-692 -12q15 -177 109.5 -261.5t251.5 -84.5t296 92q32 -23 45 -57q-91 -122 -218.5 -174t-233.5 -52z" />
    <glyph glyph-name="idieresis" unicode="&#xef;" horiz-adv-x="638" 
d="M438 624q0 -231 6.5 -320t25.5 -136t57 -64.5t102 -25.5v-80q-196 8 -314 8l-252 -6v76q55 14 85 35.5t45.5 64.5t18.5 118t3 187t-7 177t-26.5 101t-51.5 51t-81 21v74l350 125h47q-8 -175 -8 -406zM386.5 1401.5q46.5 42.5 103.5 42.5t91.5 -35t34.5 -90t-44 -98
t-100 -43t-94 34.5t-38 90.5t46.5 98.5zM5.5 1401.5q46.5 42.5 102.5 42.5t90.5 -35t34.5 -76q0 -68 -43.5 -111.5t-101.5 -43.5t-93.5 34.5t-35.5 90.5t46.5 98.5z" />
    <glyph glyph-name="ntilde" unicode="&#xf1;" horiz-adv-x="1312" 
d="M322 1270q61 135 177 135q50 0 156 -21.5t140 -21.5q68 -4 102 63q49 -23 72 -63q-23 -84 -75 -118t-100 -34t-85 8.5t-75 17.5t-72 17.5t-58 8.5q-72 0 -107 -58q-48 21 -75 66zM1290 0q-228 8 -318 8q-91 0 -239 -8v76q45 12 80 27.5t70 73.5t35 279q0 220 -36 282.5
t-84 85t-138 22.5t-222 -39v-305q0 -264 23.5 -322.5t59.5 -76t97 -25.5v-78q-291 14 -555 0v76q51 12 82 32.5t50.5 71t19.5 216.5q0 167 -5 240t-22.5 114t-50.5 57t-88 24v74l334 125h53l-8 -151q111 70 205 107.5t198 37.5q307 0 309 -390q1 -196 4 -295t17.5 -154.5
t44 -76t84.5 -28.5v-80z" />
    <glyph glyph-name="ocircumflex" unicode="&#xf4;" horiz-adv-x="1191" 
d="M581 913q-259 0 -259 -411q0 -203 78.5 -308.5t207.5 -105.5t193.5 90t64.5 305t-78.5 322.5t-206.5 107.5zM70 473q0 236 153.5 393.5t388.5 157.5t371.5 -134.5t136.5 -373.5t-148.5 -391t-393.5 -152q-236 0 -372 132t-136 368zM887 1245q-58 -79 -105 -108l-209 180
l-198 -180q-57 27 -84 80l295 301z" />
    <glyph glyph-name="odieresis" unicode="&#xf6;" horiz-adv-x="1191" 
d="M581 913q-259 0 -259 -411q0 -203 78.5 -308.5t207.5 -105.5t193.5 90t64.5 305t-78.5 322.5t-206.5 107.5zM70 473q0 236 153.5 393.5t388.5 157.5t371.5 -134.5t136.5 -373.5t-148.5 -391t-393.5 -152q-236 0 -372 132t-136 368zM685.5 1401.5q46.5 42.5 103.5 42.5
t91.5 -35t34.5 -90t-44 -98t-100 -43t-94 34.5t-38 90.5t46.5 98.5zM304.5 1401.5q46.5 42.5 102.5 42.5t90.5 -35t34.5 -76q0 -68 -43 -111.5t-101 -43.5t-94 34.5t-36 90.5t46.5 98.5z" />
    <glyph glyph-name="OE" unicode="&#x152;" horiz-adv-x="2226" 
d="M822 92q160 0 270 55q41 80 45 247.5t4 345.5q0 402 -39 511q-115 90 -268 90q-333 0 -401 -224t-68 -381t34.5 -277.5t98 -202.5t151.5 -123t173 -41zM1253 1425q699 0 801 17q-4 -78 -4 -186t4 -203h-86q-27 82 -58.5 134t-100 91t-296.5 39q-74 0 -122 -8
q-15 -169 -15 -355v-170q12 -2 14 -2h23q251 0 310 26t73 57.5t16 78.5h82q-8 -188 -8 -229.5t8 -237.5h-82q-2 61 -16 98t-68.5 65t-279.5 28l-72 -2l2 -160q0 -131 5.5 -209t35 -119t90.5 -53t155 -12t151 9t128 51t148 208h88l-10 -44q-10 -44 -31.5 -136t-42.5 -213
q-150 12 -233 12l-279 2h-328l-225 -2q-124 -27 -247 -27t-250 39t-283 175t-156 487t212 567.5t550 216.5q123 0 240 -31q37 -2 46 -2h111z" />
    <glyph glyph-name="oe" unicode="&#x153;" horiz-adv-x="1896" 
d="M1565 644v34q-2 109 -53.5 172t-145.5 63t-164 -76.5t-82 -222.5l443 13q2 14 2 17zM581 913q-259 0 -259 -411q0 -203 78.5 -308.5t207.5 -105.5t193.5 90t64.5 305t-78.5 322.5t-206.5 107.5zM979 133q-152 -160 -394 -160q-243 0 -379 132t-136 368t153.5 393.5
t402.5 157.5t386 -166q154 166 389 166q197 0 307.5 -123t110.5 -303q0 -38 -4 -76l-693 -12q15 -176 110 -261t252 -85t296 92q32 -23 45 -57q-91 -122 -218.5 -174t-244.5 -52q-246 0 -383 160z" />
    <glyph glyph-name="endash" unicode="&#x2013;" horiz-adv-x="1122" 
d="M145 598h828v-143h-828v143z" />
    <glyph glyph-name="emdash" unicode="&#x2014;" horiz-adv-x="2033" 
d="M137 596h1761v-143h-1761v143z" />
    <glyph glyph-name="quoteleft" unicode="&#x2018;" horiz-adv-x="542" 
d="M414 1063q0 -55 -42 -99t-113 -44t-116 53t-45 136q0 153 113 264t270 145l27 -70q-102 -33 -172 -98.5t-76 -143.5q90 0 122 -44t32 -99z" />
    <glyph glyph-name="quoteright" unicode="&#x2019;" horiz-adv-x="579" 
d="M186 1374q0 55 43 99.5t113 44.5t115 -53.5t45 -136.5q0 -153 -113 -264t-270 -144l-27 69q101 32 172.5 100t75.5 142q-88 0 -121 44t-33 99z" />
    <glyph glyph-name="quotedblleft" unicode="&#x201c;" horiz-adv-x="942" 
d="M813 1063q0 -55 -42 -99t-113 -44t-115.5 53t-44.5 136q0 155 113.5 265t269.5 144l26 -70q-102 -33 -171.5 -98.5t-76.5 -143.5q90 0 122 -44t32 -99zM414 1063q0 -55 -42 -99t-113 -44t-116 53t-45 136q0 153 113 264t270 145l27 -70q-102 -33 -172 -98.5t-76 -143.5
q90 0 122 -44t32 -99z" />
    <glyph glyph-name="quotedblright" unicode="&#x201d;" horiz-adv-x="978" 
d="M186 1374q0 55 43 99.5t113 44.5t115 -53.5t45 -136.5q0 -153 -113 -264t-270 -144l-27 69q101 32 172.5 100t75.5 142q-88 0 -121 44t-33 99zM588 1374q0 55 42 99.5t112 44.5t114.5 -53.5t44.5 -136.5q0 -155 -113.5 -265t-269.5 -143l-26 69q158 49 201.5 126
t45.5 116q-89 0 -120 44t-31 99z" />
    <glyph glyph-name="dagger" unicode="&#x2020;" horiz-adv-x="1222" 
d="M204 823q-104 0 -104 90q0 45 28 72t106 27t138 -14.5t126 -30.5l45 45q-12 59 -22.5 104t-19.5 99t-9 117t34.5 93.5t79.5 30.5t79 -30t34 -82t-3 -83.5t-10.5 -66.5t-17.5 -79t-22 -105l47 -45q72 14 139.5 30.5t143.5 16.5t102 -25t26 -69q0 -94 -96 -95
q-96 0 -166.5 16.5t-156.5 34.5l-48 -47q16 -154 37 -306.5t21 -284.5t-33 -235t-57 -222h-39q-12 60 -51 189t-39 261t20.5 286.5t36.5 309.5l-49 47q-68 -16 -132 -32.5t-168 -16.5z" />
    <glyph glyph-name="bullet" unicode="&#x2022;" horiz-adv-x="731" 
d="M176 526q0 39 15.5 74t41 60.5t60.5 41t74 15.5t73.5 -15.5t60 -41t41 -60.5t15.5 -74t-15.5 -73.5t-41 -60t-60 -41t-73.5 -15.5t-74 15.5t-60.5 41t-41 60t-15.5 73.5z" />
    <glyph glyph-name="perthousand" unicode="&#x2030;" horiz-adv-x="1984" 
d="M707 575l-349 -473q-90 -129 -147 -75q-51 41 -7 92t60 69l402 439l329 448q92 133 156 80q51 -41 8 -91t-61 -69zM1503 255q0 -179 119 -179t119 179t-119 179t-119 -179zM1617 -14q-132 0 -210 63.5t-78 193.5t84 206.5t213 76.5t209 -64t80 -193q0 -130 -83 -206.5
t-215 -76.5zM877 255q-1 -179 117 -179t118 179t-117.5 179t-117.5 -179zM989 -14q-131 0 -209 63.5t-78 193.5t83 206.5t221 76.5q194 0 238 -94t44 -162q0 -131 -84 -207.5t-215 -76.5zM508 942q0 178 -118 178t-118 -178t118 -178t118 178zM385 672q-131 0 -209 62.5
t-78 194.5t83 207.5t212 75.5t209 -64t80 -193q0 -130 -83 -206.5t-214 -76.5z" />
    <glyph glyph-name="guilsinglleft" unicode="&#x2039;" horiz-adv-x="600" 
d="M387 100l-297 422l297 424h94l-155 -418l155 -428h-94z" />
    <glyph glyph-name="guilsinglright" unicode="&#x203a;" horiz-adv-x="600" 
d="M119 100l155 428l-155 418h94l297 -424l-297 -422h-94z" />
    <glyph glyph-name="Euro" unicode="&#x20ac;" horiz-adv-x="1331" 
d="M92 367v110h135v43q0 43 2 60h-137v110h156q50 196 201.5 307t373.5 111q89 0 200 -22.5t146 -22.5h19q-2 -33 -2 -41v-53l2 -205h-84q-47 242 -287 242q-204 0 -268 -114t-76 -202h440l-16 -110h-430q0 -57 6 -103h404l-17 -110h-362q47 -147 144.5 -217t191.5 -70
t180.5 53t99.5 199h88q-12 -91 -33 -301q-37 0 -146.5 -25.5t-227.5 -25.5q-236 0 -374 102t-179 285h-150z" />
    <glyph glyph-name="trademark" unicode="&#x2122;" horiz-adv-x="2363" 
d="M1268 1440q29 0 61 2l318 -684l284 684q33 -2 79 -2h27h77l120 2v-56q-27 -2 -69.5 -17t-42.5 -271v-133q0 -237 16 -288.5t36.5 -65t55.5 -17.5v-51q-33 0 -67 2l-133 2l-132 -2q-33 -2 -63 -2v51q35 4 56.5 17.5t37 68t15.5 285.5v297l-302 -732q-16 -4 -44.5 -4
t-43.5 4l-321 707v-272q0 -238 20.5 -289t46 -64.5t66.5 -17.5v-51q-27 0 -57 2l-123 2l-117 -2q-27 -2 -49 -2v51q35 4 56.5 17.5t37.5 65t16 288.5v133q0 244 -43 265t-69 23v56h7h38zM475 1077q0 233 -10 281h-57q-159 0 -183 -81t-30 -112h-62l1 35l3 152q0 46 -4 96
q62 -8 108 -8h23l164 -1q143 -1 156 -1h68l188 2q77 0 147 8q-4 -50 -4 -81v-15l4 -187h-61q-16 85 -57 139t-144 54h-57q-15 -154 -15 -339q0 -186 4.5 -254.5t16.5 -105t34.5 -49t61.5 -16.5v-51q-33 0 -68 2l-133 2l-139 -2q-37 -2 -74 -2v51q39 4 62.5 16.5t36 50
t16.5 110.5t4 306z" />
    </font>
</defs>
</svg>
