<?xml version="1.0" standalone="no"?>
<!DOCTYPE svg PUBLIC "-//W3C//DTD SVG 1.1//EN" "http://www.w3.org/Graphics/SVG/1.1/DTD/svg11.dtd" >
<svg xmlns="http://www.w3.org/2000/svg">
<metadata>
Created by FontPrep 20130207 at Tue Jul  1 22:44:37 2014
 By Callum Flack
(c)2009 Kai Bernau and Commercial Type.
</metadata>
<defs>
<font id="2c0dc6e6cdc91b8259cef1ba0b2dcd7e" >
  <font-face 
    font-family="LyonText-Regular"
    font-weight="400"
    font-stretch="normal"
    units-per-em="2048"
    panose-1="2 0 5 3 7 0 0 2 0 4"
    ascent="1556"
    descent="-492"
    x-height="963"
    cap-height="1360"
    bbox="-346 -547 2529.01 2249"
    underline-thickness="102"
    underline-position="-102"
    unicode-range="U+0020-FB04"
  />
<missing-glyph horiz-adv-x="1024" 
 />
    <glyph glyph-name="f_f" unicode="ff" horiz-adv-x="1286" 
d="M780 963q0 129 37 233l-55 150q-61 39 -123 38q-115 0 -192 -92t-76 -319v-10h409zM664 0v70l116 43v753h-409v-753l116 -43v-70h-419v70l129 43v747h-148v84l150 41q4 199 154 343q151 144 320 144t242 -96q127 152 297 152q115 0 189 -56t74 -129q0 -43 -30 -75
t-77 -31l-49 8l-49 170q-37 25 -94 25q-100 0 -160 -78t-62 -238v-161h279v-97h-279v-753l185 -43v-70h-475z" />
    <glyph glyph-name="f_i" unicode="fi" horiz-adv-x="1167" 
d="M684 0v70l113 43v753h-426v-753l135 -43v-70h-438v70l129 43v747h-148v84l146 41q16 246 155 394t330 149q117 0 196 -58t78 -131q0 -45 -30 -73t-82 -29l-51 8l-50 168q-43 29 -112 29q-258 0 -258 -432v-47h473l123 26v-876l153 -43v-70h-436z" />
    <glyph glyph-name="f_l" unicode="fl" horiz-adv-x="1196" 
d="M371 1053v-90h432v385q-79 94 -189 94t-176 -84t-67 -305zM684 0v70l119 43v753h-432v-753l135 -43v-70h-438v70l129 43v747h-148v84l146 41q14 248 145 395t336 148q96 0 168 -39l131 39v-1415l151 -43v-70h-442z" />
    <glyph glyph-name="f_f_i" unicode="ffi" horiz-adv-x="1751" 
d="M371 963h409v18q-2 119 35 219l-53 146q-61 39 -123 38q-115 0 -192 -92t-76 -319v-10zM1268 0v70l112 43v753h-426v-753l136 -43v-70h-439v70l129 43v753h-409v-753l116 -43v-70h-419v70l129 43v747h-148v84l150 41q4 199 154 343q151 144 322 144t245 -100
q139 156 344 156q118 0 196 -58t78 -131q0 -45 -31 -73t-82 -29l-51 8l-49 168q-43 29 -113 29q-258 0 -258 -432v-47h473l123 26v-876l154 -43v-70h-436z" />
    <glyph glyph-name="f_f_l" unicode="ffl" horiz-adv-x="1779" 
d="M780 973q0 123 35 223l-53 150q-61 39 -123 38q-115 0 -192 -92t-76 -319v-10h409v10zM954 1053v-90h432v385q-80 94 -192 94t-176 -83t-64 -306zM1268 0v70l118 43v753h-432v-753l138 -43v-70h-428v70l116 43v753h-409v-753l116 -43v-70h-419v70l129 43v747h-148v84
l150 41q4 199 154 343q151 144 319 144t246 -96q129 152 319 152q113 0 188 -41l134 41v-1415l151 -43v-70h-442z" />
    <glyph glyph-name="f_b" unicode="fb" horiz-adv-x="1738" 
d="M1186 57q121 1 210 107t89 290t-84 292q-84 106 -206 106t-220 -92v-621q90 -82 211 -82zM68 0v70l129 43v747h-148v84l146 41q14 248 145 395t336 148q94 0 168 -39l131 39v-697q113 158 301 158q160 0 274 -116t115 -349q0 -233 -165 -395t-380 -162q-150 0 -243 39
l-76 33v1311q-81 92 -189 92t-175 -84t-66 -305v-90h278v-105h-278v-745l184 -43v-70h-487z" />
    <glyph glyph-name="f_f_b" unicode="ffb" horiz-adv-x="2322" 
d="M780 963q0 127 35 235l-53 148q-61 39 -123 38q-115 0 -192 -92t-76 -319v-10h409zM1770 57q120 1 209 107t89 290t-84 292q-84 106 -206 106t-219 -92v-621q91 -82 211 -82zM780 866h-409v-753l116 -43v-70h-419v70l129 43v747h-148v84l150 41q4 199 154 343
q151 144 320 144t242 -96q133 152 345 152q94 0 167 -39l132 39v-697q113 158 301 158q160 0 274 -116t115 -349q0 -233 -165 -395t-380 -162q-150 0 -244 39l-76 33v1311q-82 92 -190 92t-174 -84t-66 -305v-90h279v-97h-279v-753l185 -43v-70h-475v70l116 43v753z" />
    <glyph glyph-name="f_f_h" unicode="ffh" horiz-adv-x="2357" 
d="M780 963q0 127 35 235l-53 148q-61 39 -123 38q-115 0 -192 -92t-76 -319v-10h409zM1272 0v70l112 45v1235q-82 92 -190 92t-174 -84t-66 -305v-90h279v-97h-279v-753l131 -43v-70h-421v70l116 43v753h-409v-753l116 -43v-70h-419v70l129 43v747h-148v84l150 41
q4 199 154 343q151 144 320 144t242 -96q133 152 345 152q96 0 170 -39l129 39v-725q29 35 65 69t113 76q78 41 155 41q147 0 213 -76t66 -268v-534l133 -43v-68h-424v70l117 41v518q-6 115 -48 169t-141 54q-59 0 -121 -29q-61 -29 -95 -57t-33 -31v-624l135 -41v-70h-422z
" />
    <glyph glyph-name="f_f_j" unicode="ffj" horiz-adv-x="1726" 
d="M371 973v-10h409v18q-2 119 35 219l-53 146q-61 39 -123 38q-115 0 -191 -92t-77 -319zM780 866h-409v-753l116 -43v-70h-419v70l129 43v747h-148v84l150 41q4 199 154 343q151 144 322 144t245 -100q139 156 344 156q118 0 196 -58t78 -131q0 -45 -31 -73t-82 -29l-51 8
l-49 168q-43 29 -113 29q-258 0 -258 -432v-47h473l123 26v-936q0 -225 -63 -354q-43 -88 -120 -144t-169 -69l-10 59q102 33 147 156t45 352v813h-426v-753l185 -43v-70h-488v70l129 43v753z" />
    <glyph glyph-name="f_f_k" unicode="ffk" horiz-adv-x="2263" 
d="M780 963q0 127 35 235l-53 148q-61 39 -123 38q-115 0 -192 -92t-76 -319v-10h409zM1804 963h414v-58l-137 -35l-332 -280l489 -580q-30 -43 -106 -45q-96 -4 -211 144l-352 460v4l73 23l287 262l-125 41v64zM1272 0v70l112 45v1235q-82 92 -190 92t-174 -84t-66 -305
v-90h279v-97h-279v-753l131 -43v-70h-421v70l116 43v753h-409v-753l116 -43v-70h-419v70l129 43v747h-148v84l150 41q4 199 154 343q151 144 320 144t242 -96q133 152 345 152q96 0 170 -39l129 39v-1417l135 -41v-70h-422z" />
    <glyph glyph-name="f_h" unicode="fh" horiz-adv-x="1773" 
d="M688 0v70l113 45v1235q-81 92 -189 92t-175 -84t-66 -305v-90h278v-105h-278v-745l131 -43v-70h-434v70l129 43v747h-148v84l146 41q14 248 145 395t336 148q96 0 170 -39l129 39v-725q29 35 65 69t113 76q78 41 156 41q147 0 213 -76t65 -268v-534l133 -43v-68h-424v70
l117 41v518q-6 115 -48 169t-140 54q-59 0 -121 -29t-96 -57q-33 -28 -33 -31v-624l135 -41v-70h-422z" />
    <glyph glyph-name="f_j" unicode="fj" horiz-adv-x="1142" 
d="M797 53v813h-426v-753l184 -43v-70h-487v70l129 43v747h-148v84l146 41q16 246 155 394t330 149q117 0 196 -58t78 -131q0 -45 -30 -73t-82 -29l-51 8l-50 168q-43 29 -112 29q-258 0 -258 -432v-47h473l123 26v-936q0 -225 -64 -354q-43 -89 -120 -145t-169 -68l-10 59
q102 33 148 156q45 123 45 352z" />
    <glyph glyph-name="f_k" unicode="fk" horiz-adv-x="1679" 
d="M1221 963h413v-58l-137 -35l-332 -280l490 -580q-31 -43 -107 -45q-96 -4 -211 144l-352 460v4l74 23l287 262l-125 41v64zM688 0v70l113 45v1235q-81 92 -189 92t-175 -84t-66 -305v-90h278v-105h-278v-745l131 -43v-70h-434v70l129 43v747h-148v84l146 41
q14 248 145 395t336 148q96 0 170 -39l129 39v-1417l135 -41v-70h-422z" />
    <glyph glyph-name=".notdef" horiz-adv-x="1024" 
 />
    <glyph glyph-name=".null" horiz-adv-x="0" 
 />
    <glyph glyph-name="nonmarkingreturn" horiz-adv-x="681" 
 />
    <glyph glyph-name="space" unicode=" " horiz-adv-x="405" 
 />
    <glyph glyph-name="exclam" unicode="!" horiz-adv-x="583" 
d="M292 -14q-52 0 -90 39t-38 90t38 89t90 38t90 -37t38 -90t-38 -91t-90 -38zM193 1423h198l-51 -1028h-96z" />
    <glyph glyph-name="quotedbl" unicode="&#x22;" horiz-adv-x="964" 
d="M633 1034l-76 590h234l-99 -590h-59zM250 1034l-76 590h234l-99 -590h-59z" />
    <glyph glyph-name="numbersign" unicode="#" horiz-adv-x="1214" 
d="M489 784l-61 -356h301l62 356h-302zM168 784v119h225l56 314h118l-55 -314h301l55 314h119l-55 -314h217v-119h-240l-61 -356h211v-119h-234l-53 -309h-119l54 309h-301l-54 -309h-119l54 309h-209v119h231l62 356h-203z" />
    <glyph glyph-name="dollar" unicode="$" horiz-adv-x="1187" 
d="M336 1008q0 -164 196 -215l31 -9v457q-99 -17 -163 -81t-64 -152zM674 555l-27 6v-489q100 18 164 83q63 65 63 164q1 191 -200 236zM563 -256v233h-2q-100 0 -216 29t-187 74l-27 340h78l113 -279q109 -74 241 -75v516l-104 26q-297 80 -297 334q0 135 109 246
q110 111 292 135v283h84v-277h2q89 -1 185 -25t151 -55l12 -317h-69l-105 260q-78 47 -176 53v-485l125 -33q293 -80 293 -324q0 -155 -128 -271t-290 -146v-242h-84z" />
    <glyph glyph-name="percent" unicode="%" horiz-adv-x="1830" 
d="M1389 625q-84 0 -129 -82q-46 -82 -46 -198t50 -208t139 -92q88 0 133 82q45 83 45 201t-54 208t-138 89zM1412 709q150 0 235 -108q86 -109 86 -265q1 -156 -99 -266t-244 -109q-144 0 -236 98q-91 98 -91 263t99 276q100 111 250 111zM428 1155q-84 0 -129 -82
q-45 -81 -45 -197t50 -208t138 -92t134 81q44 82 44 201t-54 208t-138 89zM373 -102l962 1392h121l-962 -1392h-121zM450 1239q150 1 236 -107t86 -264t-99 -267q-99 -109 -243 -109t-236 98t-92 263t100 275q98 110 248 111z" />
    <glyph glyph-name="ampersand" unicode="&#x26;" horiz-adv-x="1560" 
d="M457 1008q37 -48 65 -76l66 -66q180 135 180 271q0 84 -47 133t-121 49q-74 -1 -127 -49t-53 -131t37 -131zM877 242q-187 246 -412 485q-96 -66 -153 -137q-56 -72 -56 -184t89 -205q89 -92 250 -92t282 133zM514 -41q-219 0 -331 114q-111 114 -111 270t109 260
q109 105 233 177q-90 94 -126 154t-34 143q2 150 113 234t257 84q146 1 231 -63t85 -168t-72 -182q-72 -77 -231 -167q123 -131 175 -195t108 -137q56 -72 67 -86q37 63 76 146l147 311l-147 45v64h446v-64l-182 -47l-194 -373q-35 -68 -91 -153q88 -106 148 -156t114 -55
q56 -3 97 23t57 55l15 28l47 -31q-38 -75 -90 -124q-105 -97 -196 -94q-92 4 -154 50t-150 154q-197 -217 -416 -217z" />
    <glyph glyph-name="quotesingle" unicode="'" horiz-adv-x="581" 
d="M250 1034l-76 590h234l-99 -590h-59z" />
    <glyph glyph-name="parenleft" unicode="(" horiz-adv-x="702" 
d="M360 564q0 -278 79 -494t251 -439h-112q-392 414 -392 930t402 938h110q-176 -225 -257 -441t-81 -494z" />
    <glyph glyph-name="parenright" unicode=")" horiz-adv-x="702" 
d="M514 569q0 -516 -401 -938h-111q176 225 257 441t81 494t-79 494t-251 439h113q391 -414 391 -930z" />
    <glyph glyph-name="asterisk" unicode="*" horiz-adv-x="841" 
d="M764 1055l-266 -17l30 -266l-51 -12l-92 254l-246 -113l-26 43l213 166l-181 197l31 36l223 -145l133 232l43 -17l-69 -258l260 -51z" />
    <glyph glyph-name="plus" unicode="+" horiz-adv-x="1142" 
d="M1057 426h-422v-426h-127v426h-422v119h422v426h127v-426h422v-119z" />
    <glyph glyph-name="comma" unicode="," horiz-adv-x="552" 
d="M274 -72q0 160 -153 197q-16 72 13 130q30 58 106 58q76 -1 132 -65t56 -196t-83 -266t-214 -204q-35 43 -39 51q90 61 136 141t46 154z" />
    <glyph glyph-name="hyphen" unicode="-" horiz-adv-x="702" 
d="M80 471v158h543v-158h-543z" />
    <glyph glyph-name="period" unicode="." horiz-adv-x="532" 
d="M408 135q0 -57 -42 -100t-101 -43q-58 0 -100 43t-42 100t42 99t99 42q56 0 100 -42t44 -99z" />
    <glyph glyph-name="slash" unicode="/" horiz-adv-x="1032" 
d="M152 -416l-99 43l826 1895l98 -43z" />
    <glyph glyph-name="zero" unicode="0" horiz-adv-x="1310" 
d="M652 -39q-230 1 -381 149t-151 380t160 398q159 165 388 165t375 -155q147 -155 147 -383t-154 -391t-384 -163zM326 551q0 -119 30 -225t113 -192q84 -86 214 -85q130 0 216 115q86 114 86 314t-97 341q-98 141 -240 141t-232 -112q-90 -113 -90 -297z" />
    <glyph glyph-name="one" unicode="1" horiz-adv-x="843" 
d="M535 1040v-931l239 -33v-76h-668v76l250 30v762h-266v86l436 86h9z" />
    <glyph glyph-name="two" unicode="2" horiz-adv-x="899" 
d="M819 147v-147h-760v53l74 80q311 328 352 411t41 164q0 82 -55 142t-150 61q-95 0 -198 -118l-51 36q72 109 150 166q79 57 206 57t204 -74q77 -76 77 -190t-76 -226t-246 -288l-123 -127h555z" />
    <glyph glyph-name="three" unicode="3" horiz-adv-x="864" 
d="M219 -418q-68 0 -121 34t-53 96t84 85l145 -127q141 0 229 88q87 88 87 220t-112 220t-279 74v90l75 37q129 63 198 149t69 172q1 87 -53 138t-140 51q-111 0 -211 -118l-51 40q72 105 151 163t207 58t204 -74q77 -75 77 -192q0 -70 -39 -136t-77 -100q-38 -36 -113 -95
l-60 -49v-7q137 -23 234 -115q96 -93 96 -243q0 -187 -173 -323t-374 -136z" />
    <glyph glyph-name="four" unicode="4" horiz-adv-x="1134" 
d="M657 150v620l-483 -620h483zM657 -399v430h-639v61l766 959h47v-901h285v-119h-285v-430h-174z" />
    <glyph glyph-name="five" unicode="5" horiz-adv-x="856" 
d="M240 694q465 -238 465 -575q1 -160 -91 -283q-92 -122 -216 -188t-240 -66q-66 0 -120 33t-54 97t84 85l145 -127q147 23 230 118q83 94 83 230t-92 264t-336 285l193 459h473v-170h-459z" />
    <glyph glyph-name="six" unicode="6" horiz-adv-x="1173" 
d="M577 715q-128 0 -227 -84q-25 -82 -24 -170q0 -205 82 -311t200 -106t187 75q67 77 67 239t-78 260t-207 97zM686 838q166 0 272 -111t106 -294t-129 -329q-130 -146 -338 -145q-208 0 -342 122t-134 351q0 186 86 354q156 304 553 506q176 90 370 142l17 -68
q-227 -82 -451 -257t-317 -396q141 125 307 125z" />
    <glyph glyph-name="seven" unicode="7" horiz-adv-x="1044" 
d="M102 846v180h897v-18l-647 -1131l-157 -297l-144 60l768 1206h-717z" />
    <glyph glyph-name="eight" unicode="8" horiz-adv-x="1048" 
d="M745 1063q0 117 -59 183q-60 66 -152 67q-92 -1 -152 -61t-60 -145t46 -146t140 -134l92 -73q145 141 145 309zM534 41q120 0 182 61t62 131t-15 97t-22 43q-6 16 -28 39q-23 24 -31 34t-39 36t-39 33t-45 36t-43 35l-57 45q-101 -80 -141 -149t-40 -170t68 -186t188 -85
zM954 315q0 -160 -126 -258t-310 -98t-304 95q-122 95 -122 239t90 229q90 84 219 156l-75 61q-180 143 -180 297t118 256q119 102 287 102t270 -84q103 -85 103 -208t-79 -222t-188 -171l41 -31q88 -70 133 -111t84 -109t39 -143z" />
    <glyph glyph-name="nine" unicode="9" horiz-adv-x="1173" 
d="M603 287q130 0 218 73q23 94 23 187q0 205 -81 311t-199 106t-189 -76q-70 -77 -70 -239t84 -262t214 -100zM88 -358q137 55 264 134t254 212t187 284q-131 -108 -295 -108t-277 115t-113 297t131 326q129 146 335 146t342 -127q136 -128 136 -328t-76 -367
q-77 -167 -209 -292q-271 -256 -663 -360z" />
    <glyph glyph-name="colon" unicode=":" horiz-adv-x="534" 
d="M430 834q0 -56 -42 -100t-100 -44t-101 42q-42 42 -42 100t43 101q42 42 100 42t100 -42t42 -99zM283 -8q-57 0 -100 43q-42 43 -42 100t42 99q41 42 99 42t101 -42t43 -99t-43 -100t-100 -43z" />
    <glyph glyph-name="semicolon" unicode=";" horiz-adv-x="544" 
d="M295 -72q0 160 -154 197q-16 72 14 130q29 58 105 58q76 -1 132 -65t56 -196t-82 -266q-83 -134 -214 -204q-35 43 -39 51q90 61 136 141t46 154zM438 834q0 -56 -42 -100t-100 -44t-100 42t-42 100t43 101q43 42 100 42t99 -42t42 -99z" />
    <glyph glyph-name="less" unicode="&#x3c;" horiz-adv-x="1142" 
d="M1053 856l-820 -375l820 -368v-142l-967 451v121l967 450v-137z" />
    <glyph glyph-name="equal" unicode="=" horiz-adv-x="1142" 
d="M86 301v113h971v-113h-971zM86 600v113h971v-113h-971z" />
    <glyph glyph-name="greater" unicode="&#x3e;" horiz-adv-x="1142" 
d="M88 109l819 374l-819 369v141l967 -450v-121l-967 -451v138z" />
    <glyph glyph-name="question" unicode="?" horiz-adv-x="831" 
d="M312 -14q-52 0 -90 39t-38 90t38 89t90 38t90 -37t38 -90t-38 -91t-90 -38zM729 915q0 -184 -201 -260l-168 -61l9 -199h-93l-47 334l238 84q86 31 121 67t35 87q0 85 -110 151t-275 86l-50 6v213l60 -10q106 -18 214 -83q108 -64 188 -176t79 -239z" />
    <glyph glyph-name="at" unicode="@" horiz-adv-x="1957" 
d="M803 158q75 0 231 221t193 340l22 72q-59 74 -131 73q-127 0 -254 -206t-127 -404q0 -96 66 -96zM716 16q-83 0 -126 50t-45 129q-2 172 105 351q108 179 256 289t272 109q88 0 145 -49l18 74h121l-198 -656q-33 -125 -17 -174t72 -49q127 0 264 166t137 416t-175 423
t-445 173q-330 0 -563 -253t-234 -624q0 -315 193 -492t499 -178q139 0 293 37v-51q-178 -68 -389 -67q-344 0 -550 200t-206 512q0 205 87 391q86 187 226 317t319 207t362 76q330 -1 519 -193t189 -464q0 -141 -54 -269q-102 -241 -324 -350q-101 -51 -207 -51t-158 74
q-51 74 -6 217l26 84h-12l-47 -69q-115 -170 -189 -238t-158 -68z" />
    <glyph glyph-name="A" unicode="A" horiz-adv-x="1380" 
d="M649 1176l-207 -580h412l-203 580h-2zM6 0v66l119 47l498 1257l69 10l72 21l471 -1288l139 -45v-68h-526v68l174 47l-125 358h-500l-118 -334l196 -71v-68h-469z" />
    <glyph glyph-name="B" unicode="B" horiz-adv-x="1308" 
d="M924 1034q0 268 -451 262v-534q451 4 451 272zM473 678v-514q21 -43 77 -71t136 -27q119 0 207 78t88 212q0 135 -84 217t-217 105h-207zM1124 1058q0 -154 -110 -229q-110 -76 -285 -92v-4q199 -10 330 -98t131 -263q0 -176 -158 -280t-430 -100l-502 8v68l174 47v1126
l-174 53v66l473 6q267 4 409 -75t142 -233z" />
    <glyph glyph-name="C" unicode="C" horiz-adv-x="1466" 
d="M809 -51q-187 0 -329 60q-142 61 -222 161q-158 198 -158 463q0 326 222 544t555 218q229 0 428 -111l12 -342h-76l-113 275q-117 78 -270 77q-227 0 -380 -164t-152 -425q0 -307 154 -481q155 -173 394 -173q154 0 281 92l154 289h75l-53 -344q-268 -139 -522 -139z" />
    <glyph glyph-name="D" unicode="D" horiz-adv-x="1583" 
d="M1473 694q-1 -308 -231 -507q-230 -198 -624 -193l-518 6v68l174 47v1126l-174 53v66l615 8q358 4 558 -181t200 -493zM1255 653q0 179 -62 311t-173 202q-215 135 -547 118v-1094q12 -116 255 -110t385 170t142 403z" />
    <glyph glyph-name="E" unicode="E" horiz-adv-x="1294" 
d="M473 657v-561h479l166 271h76l-66 -367h-1028v68l174 47v1124l-174 55v66h842l178 8v-362h-73l-111 262h-463v-516h266l60 168h65v-418h-71l-54 155h-266z" />
    <glyph glyph-name="F" unicode="F" horiz-adv-x="1181" 
d="M473 653v-538l209 -39v-76h-582v68l174 47v1124l-174 55v66h840l180 8v-362h-73l-113 262h-461v-520h268l58 167h65v-417h-73l-50 155h-268z" />
    <glyph glyph-name="G" unicode="G" horiz-adv-x="1540" 
d="M849 -51q-405 0 -584 215q-163 196 -163 489t234 517t573 225q225 0 416 -111l12 -332h-80l-114 271q-111 72 -273 71q-250 0 -397 -182t-147 -458t164 -440q164 -163 399 -163q143 0 244 45v418l-191 53v58h504v-68l-117 -33v-424l-63 -34q-207 -117 -417 -117z" />
    <glyph glyph-name="H" unicode="H" horiz-adv-x="1624" 
d="M977 0v68l174 47v547h-678v-547l174 -49v-66h-547v68l174 47v1126l-174 53v66h547v-66l-174 -53v-483h678v483l-174 53v66h547v-66l-174 -53v-1126l174 -49v-66h-547z" />
    <glyph glyph-name="I" unicode="I" horiz-adv-x="724" 
d="M100 0v68l174 47v1126l-174 53v66h547v-66l-174 -53v-1126l174 -49v-66h-547z" />
    <glyph glyph-name="J" unicode="J" horiz-adv-x="708" 
d="M481 104q0 -120 -18 -206q-17 -86 -65 -164q-98 -160 -365 -180l-13 69q175 36 224 162q25 66 31 128q7 62 8 167v1163l-191 43v74h563v-66l-174 -53v-1137z" />
    <glyph glyph-name="K" unicode="K" horiz-adv-x="1394" 
d="M862 1360h428v-66l-166 -53l-434 -450l531 -685l153 -40v-66h-313l-572 735v8l58 27l459 471l-144 59v60zM100 0v68l174 47v1126l-174 53v66h547v-66l-174 -53v-1126l174 -49v-66h-547z" />
    <glyph glyph-name="L" unicode="L" horiz-adv-x="1216" 
d="M473 96h451l166 312h75l-73 -408h-992v68l174 47v1124l-174 55v66h582v-66l-209 -53v-1145z" />
    <glyph glyph-name="M" unicode="M" horiz-adv-x="1869" 
d="M94 0v66l174 49l6 1126l-172 53v66h408l451 -1014l376 916l9 98h428v-66l-175 -53l7 -1126l174 -49v-66h-555v68l182 47l6 1085l-430 -1022l-37 -108h-74l-38 108l-453 996v-1031l225 -75v-68h-512z" />
    <glyph glyph-name="N" unicode="N" horiz-adv-x="1591" 
d="M627 0h-506v68l174 47v1106l-195 73v66h328l807 -987v839l-219 80v68h506v-68l-174 -51v-1001l4 -263h-47l-897 1094v-928l219 -75v-68z" />
    <glyph glyph-name="O" unicode="O" horiz-adv-x="1609" 
d="M803 1395q174 -1 312 -61t219 -162q165 -207 165 -482q-1 -340 -195 -540t-498 -201q-304 1 -500 195t-196 520t195 529q195 202 498 202zM822 35q158 0 266 96q200 177 200 508q0 270 -144 470t-358 200q-119 1 -211 -53t-145 -142q-110 -183 -108 -395q0 -164 53 -316
t171 -260t276 -108z" />
    <glyph glyph-name="P" unicode="P" horiz-adv-x="1222" 
d="M473 1292v-1177l260 -47v-68h-633v68l174 47v1126l-174 53v66l449 4q303 2 464 -97t161 -270q0 -145 -96 -247t-232 -144q-135 -42 -279 -31v68q184 14 290 96q105 83 105 225t-122 235q-123 93 -367 93z" />
    <glyph glyph-name="Q" unicode="Q" horiz-adv-x="1609" 
d="M786 1309q-119 1 -211 -53t-145 -142q-110 -183 -108 -395q0 -164 53 -316q53 -153 172 -261t275 -108t266 97q200 177 200 508q0 270 -144 470q-145 200 -358 200zM803 1395q174 1 312 -59q248 -107 342 -383q42 -122 42 -255q0 -302 -160 -500t-415 -237
q209 -151 354 -221q144 -70 328 -70t366 123l41 -45q-131 -132 -218 -164q-137 -52 -268 -51q-248 0 -474 132q-121 71 -209 134t-234 178q-225 59 -362 243t-137 442q1 334 195 534t497 199z" />
    <glyph glyph-name="R" unicode="R" horiz-adv-x="1363" 
d="M473 702h170q127 14 211 92t84 195q0 151 -123 231t-342 74v-592zM100 0v68l174 47v1126l-174 53v66l471 6q287 2 433 -87t147 -249q0 -252 -309 -352l399 -563l178 -47v-68h-332l-358 506l-80 119l-176 -11v-499l174 -49v-66h-547z" />
    <glyph glyph-name="S" unicode="S" horiz-adv-x="1058" 
d="M498 53q130 0 206 70t76 184q0 178 -196 260l-209 88q-141 61 -210 145t-69 208q0 168 136 280t331 113q195 0 332 -84l12 -338h-69l-107 278q-85 57 -191 57t-179 -68q-73 -69 -72 -161q0 -156 174 -233l244 -111q145 -65 208 -151t64 -205q0 -182 -153 -303t-337 -121
q-101 0 -207 30t-178 77l-26 362h78l112 -295q100 -82 230 -82z" />
    <glyph glyph-name="T" unicode="T" horiz-adv-x="1325" 
d="M762 1268v-1153l192 -47v-68h-585v68l194 47v1153h-317l-111 -262h-74l19 370l139 -16h887l137 16l21 -370h-74l-111 262h-317z" />
    <glyph glyph-name="U" unicode="U" horiz-adv-x="1513" 
d="M219 520v721l-174 53v66h553v-66l-174 -53v-670q0 -504 367 -503q209 0 305 120t94 373l-6 662l-238 71v66h539v-66l-174 -53v-721q-2 -184 -82 -316q-153 -253 -460 -253q-306 0 -428 147t-122 422z" />
    <glyph glyph-name="V" unicode="V" horiz-adv-x="1341" 
d="M-2 1360h522v-66l-174 -53l369 -973h4l356 955l-221 67v70h489v-66l-135 -61l-493 -1258h-86l-500 1266l-131 53v66z" />
    <glyph glyph-name="W" unicode="W" horiz-adv-x="1982" 
d="M-2 1360h522v-66l-176 -53l287 -1046l309 909l-45 137l-176 53v66h553v-70l-172 -49l334 -1032l286 1014l-213 67v70h478v-66l-136 -61l-376 -1247h-152l-328 960l-336 -960h-149l-381 1255l-129 53v66z" />
    <glyph glyph-name="X" unicode="X" horiz-adv-x="1460" 
d="M39 0v68l154 45l460 573l-385 555l-153 53v66h561v-66l-174 -53l289 -412h4l301 394l-209 67v70h518v-66l-154 -53l-403 -493l430 -633l143 -47v-68h-553v68l174 47l-329 493h-4l-359 -489l174 -51v-68h-485z" />
    <glyph glyph-name="Y" unicode="Y" horiz-adv-x="1290" 
d="M938 0h-586v68l195 47v422l-402 704l-131 53v66h514v-66l-153 -53l317 -586h8l324 568l-193 67v70h445v-66l-135 -61l-396 -660v-458l193 -47v-68z" />
    <glyph glyph-name="Z" unicode="Z" horiz-adv-x="1269" 
d="M63 0v51l855 1215h-596l-132 -285h-73l43 391l153 -12h899v-6l-880 -1258h637l168 312h75l-75 -418l-160 10h-914z" />
    <glyph glyph-name="bracketleft" unicode="[" horiz-adv-x="727" 
d="M635 -371h-373v1872h373v-80h-205v-1712h205v-80z" />
    <glyph glyph-name="backslash" unicode="\" horiz-adv-x="1032" 
d="M977 -373l-98 -43l-826 1895l99 43z" />
    <glyph glyph-name="bracketright" unicode="]" horiz-adv-x="727" 
d="M92 1501h373v-1872h-373v80h205v1712h-205v80z" />
    <glyph glyph-name="asciicircum" unicode="^" horiz-adv-x="868" 
d="M156 958h-95l312 590h123l311 -590h-100l-279 443z" />
    <glyph glyph-name="underscore" unicode="_" horiz-adv-x="835" 
d="M8 -420v121h819v-121h-819z" />
    <glyph glyph-name="grave" unicode="`" horiz-adv-x="819" 
d="M262 1548h164l125 -420h-84l-205 381v39z" />
    <glyph glyph-name="a" unicode="a" horiz-adv-x="1028" 
d="M455 109q113 0 186 110v270l-197 -65q-80 -27 -118 -62q-38 -34 -39 -102q0 -68 49 -110t119 -41zM100 211q0 115 81 181t249 110l211 55v107q-2 115 -56 177q-53 62 -131 62t-137 -37l-8 -202q-51 -6 -82 -7q-98 0 -98 88q0 78 121 161q120 83 272 83q152 1 224 -71
t71 -226v-553q0 -33 13 -44t55 -11h102v-57q-229 -98 -305 -8q-37 44 -37 116h-6q-6 -6 -32 -31t-47 -46q-20 -21 -32 -27q-12 -5 -29 -19t-27 -16t-26 -10q-37 -17 -115 -17q-77 -1 -154 63t-77 179z" />
    <glyph glyph-name="b" unicode="b" horiz-adv-x="1118" 
d="M868 461q0 185 -84 291t-208 106t-222 -98v-621q90 -82 211 -82t212 110t91 294zM500 -33q-150 0 -244 39l-76 33v1313l-127 39v65l301 72v-697q113 158 301 158q160 0 275 -116q114 -116 114 -349t-164 -395t-380 -162z" />
    <glyph glyph-name="c" unicode="c" horiz-adv-x="960" 
d="M512 -33q-184 0 -312 127q-128 126 -128 358t157 385q158 153 357 152q125 0 211 -59t86 -146q0 -48 -29 -80t-80 -32l-69 6l-31 190q-49 33 -123 33q-129 0 -214 -106q-85 -107 -85 -275t100 -289t254 -120q66 -1 125 31t88 65l27 33l41 -27q-34 -85 -120 -160
q-39 -33 -107 -59t-148 -27z" />
    <glyph glyph-name="d" unicode="d" horiz-adv-x="1167" 
d="M572 106q108 0 188 54v608q-8 14 -26 37t-74 61q-58 38 -123 37q-125 0 -208 -99t-83 -272q0 -110 28 -200t110 -158q80 -68 188 -68zM487 -33q-203 0 -308 137t-105 324q0 248 144 405t366 156q90 0 176 -20v407l-185 33v64l359 55v-1409l166 -41v-68l-275 -39l-49 140
q-72 -70 -138 -107t-151 -37z" />
    <glyph glyph-name="e" unicode="e" horiz-adv-x="1026" 
d="M513 899q-95 0 -168 -74t-95 -190h463q-1 113 -53 189t-147 75zM240 555v-20q0 -189 98 -301t260 -111q78 0 148 38t104 77l33 38l41 -24q-12 -35 -54 -98q-126 -187 -366 -187q-104 0 -195 49q-92 49 -140 125q-97 154 -95 303q0 230 135 388t348 157q172 -1 266 -113
t95 -321h-678z" />
    <glyph glyph-name="f" unicode="f" horiz-adv-x="702" 
d="M68 0v70l129 43v747h-148v84l146 41v8q0 219 132 377t302 158q117 0 189 -56t73 -129q0 -43 -29 -75t-78 -31l-49 8l-49 170q-37 25 -94 25q-96 0 -158 -76t-63 -240v-161h278v-105h-278v-745l184 -43v-70h-487z" />
    <glyph glyph-name="g" unicode="g" horiz-adv-x="1058" 
d="M231 -228q0 -80 69 -136q68 -56 228 -56t251 67t91 148q1 113 -163 125l-388 25q-88 -93 -88 -173zM486 909q-196 0 -197 -262q1 -133 59 -218t150 -85t148 69t56 204t-61 213t-155 79zM481 256q-76 0 -147 25q-72 -55 -72 -103q0 -24 22 -46t54 -23l387 -23
q147 -8 220 -70t73 -159q0 -141 -166 -260t-434 -119q-154 0 -262 62t-109 169q0 59 39 117t111 98l49 27v4l-146 139q49 125 162 219q-162 98 -162 301q0 166 113 270t281 105q96 0 241 -51l285 31v-125l-234 12l-2 -6q104 -88 104 -238t-122 -254q-123 -102 -285 -102z
" />
    <glyph glyph-name="h" unicode="h" horiz-adv-x="1155" 
d="M678 0v70l117 41v518q-7 115 -49 169t-140 54q-60 0 -122 -29t-95 -57t-33 -31v-624l136 -41v-70h-439v70l129 45v1251l-137 53v56l311 53v-725q29 35 65 69t114 76q78 41 155 41q147 0 213 -76t66 -268v-534l133 -43v-68h-424z" />
    <glyph glyph-name="i" unicode="i" horiz-adv-x="571" 
d="M271 1278q-50 0 -88 37t-38 88t38 88t88 37t88 -37t38 -88t-38 -88t-88 -37zM63 0v70l138 45v700l-121 43v72l291 59v-876l153 -43v-70h-461z" />
    <glyph glyph-name="j" unicode="j" horiz-adv-x="534" 
d="M259 1278q-50 0 -88 37t-38 88t38 88t88 37t88 -37t38 -88t-38 -88t-88 -37zM186 53v750l-120 55v72l292 59v-936q0 -363 -185 -498q-77 -57 -169 -69l-10 59q102 33 147 156t45 352z" />
    <glyph glyph-name="k" unicode="k" horiz-adv-x="1067" 
d="M608 963h414v-58l-137 -35l-332 -280l489 -580q-30 -43 -106 -45q-96 -4 -211 144l-352 460v4l73 23l287 262l-125 41v64zM498 0h-439v70l129 45v1237l-135 53v55l309 68v-1417l136 -41v-70z" />
    <glyph glyph-name="l" unicode="l" horiz-adv-x="571" 
d="M59 0v70l129 43v1239l-131 39v65l305 72v-1417l140 -41v-70h-443z" />
    <glyph glyph-name="m" unicode="m" horiz-adv-x="1779" 
d="M1305 0v70l116 41v518q-6 115 -48 169t-130 54t-156 -39t-104 -78v-624l133 -43v-68h-424v70l117 41v518q-6 115 -48 169t-140 54q-59 0 -121 -29t-96 -57t-33 -31v-624l135 -41v-70h-438v70l129 43v690l-138 33v55l252 98h11l45 -186h2q158 186 336 186q127 0 186 -50
t74 -153h4q34 42 94 97q119 108 260 107t207 -78t65 -267v-534l134 -43v-68h-424z" />
    <glyph glyph-name="n" unicode="n" horiz-adv-x="1167" 
d="M68 0v70l129 43v690l-138 33v55l252 98h11l45 -186h2q158 186 336 186q147 0 213 -76t65 -268v-534l133 -43v-68h-424v70l117 41v518q-6 115 -48 169t-140 54q-59 0 -121 -29t-96 -57t-33 -31v-624l135 -41v-70h-438z" />
    <glyph glyph-name="o" unicode="o" horiz-adv-x="1097" 
d="M538 -33q-212 -1 -338 143t-126 359t138 370t347 155t337 -131q128 -130 128 -357t-137 -383t-349 -156zM536 905q-132 0 -204 -104q-72 -105 -72 -245q0 -289 135 -425q75 -74 187 -74q112 1 184 107t72 268q0 221 -85 347t-217 126z" />
    <glyph glyph-name="p" unicode="p" horiz-adv-x="1089" 
d="M840 460q0 184 -82 290t-204 106t-218 -86v-641q72 -72 197 -72t216 110t91 293zM33 -492v70l129 45v1180l-137 33v55l251 98h11l39 -164q131 164 302 164q172 0 280 -115t108 -348t-167 -396t-380 -163q-66 0 -133 21v-361l186 -55v-64h-489z" />
    <glyph glyph-name="q" unicode="q" horiz-adv-x="1083" 
d="M608 98q76 0 152 45v664q-88 94 -217 94q-129 1 -208 -111t-79 -274t88 -290t264 -128zM559 -492v64l201 57v449q-125 -111 -256 -111q-199 1 -315 143q-115 142 -115 363t153 369q154 147 353 147q150 0 239 -65l94 69h21v-1370l129 -45v-70h-504z" />
    <glyph glyph-name="r" unicode="r" horiz-adv-x="770" 
d="M646 993q102 0 102 -108q0 -53 -66 -135l-158 53q-92 -76 -155 -156v-541l180 -34v-72h-481v70l129 45v688l-138 26v62l279 98h10l12 -256h5l65 88q74 98 120 135t96 37z" />
    <glyph glyph-name="s" unicode="s" horiz-adv-x="856" 
d="M780 264q0 -125 -118 -214t-260 -89q-144 0 -275 80l-33 287h68l104 -226q72 -61 159 -61t136 43q49 44 49 108t-44 113t-154 98l-82 37q-111 48 -161 110t-50 169t105 191q104 84 236 83q132 0 253 -65l10 -244h-61l-84 178q-62 51 -136 51t-116 -40t-41 -101
q0 -61 37 -104t129 -84l88 -39q131 -57 186 -125t55 -156z" />
    <glyph glyph-name="t" unicode="t" horiz-adv-x="679" 
d="M381 -23q-211 0 -207 224l6 659h-143v86l149 37l90 244h70v-264h275v-109h-271v-571q0 -113 34 -145t103 -32l154 15l12 -51q-39 -32 -120 -63q-82 -30 -152 -30z" />
    <glyph glyph-name="u" unicode="u" horiz-adv-x="1132" 
d="M442 -35q-136 0 -204 94t-68 271v504l-141 40v76l315 31v-633q8 -244 215 -244q55 0 109 24t82 48l26 25v633l-166 36v76l340 31v-858l166 -41v-68l-272 -41l-60 166q-152 -170 -342 -170z" />
    <glyph glyph-name="v" unicode="v" horiz-adv-x="1026" 
d="M-2 963h436v-64l-149 -39l237 -645l19 -57h4q12 35 20 57l248 635l-145 49v64h348v-64l-94 -39l-361 -897h-108l-361 897l-94 39v64z" />
    <glyph glyph-name="w" unicode="w" horiz-adv-x="1513" 
d="M1153 963h354v-64l-94 -39l-278 -893h-123l-232 664l-22 74h-2q-12 -41 -23 -74l-225 -664h-131l-277 893l-94 39v64h436v-64l-149 -39l188 -680h4q8 33 21 68l237 731h99l241 -731l21 -68h4q8 33 18 68l179 600l-152 51v64z" />
    <glyph glyph-name="x" unicode="x" horiz-adv-x="1052" 
d="M1032 0h-465v70l117 41l-197 305h-4l-215 -305l115 -41v-70h-363v70l127 39l289 383l-258 370l-123 37v64h451v-64l-117 -22l168 -273h4l197 273l-109 22v64h336v-64l-115 -22l-262 -345l291 -421l133 -43v-68z" />
    <glyph glyph-name="y" unicode="y" horiz-adv-x="1019" 
d="M678 963h344v-64l-94 -41l-455 -1134q-51 -130 -97 -186t-108 -56t-101 33q-38 33 -38 81t29 76q30 28 82 27q52 0 92 -74h4l121 283l-363 952l-96 39v64h444v-64l-149 -39l254 -717h6l266 707l-141 51v62z" />
    <glyph glyph-name="z" unicode="z" horiz-adv-x="929" 
d="M57 0v70l559 804h-362l-90 -215h-64v316l152 -12h614v-31l-585 -844h393l117 242h65l-29 -338l-153 8h-617z" />
    <glyph glyph-name="braceleft" unicode="{" horiz-adv-x="727" 
d="M696 -305v-66h-30q-207 0 -282 86t-73 273l2 356q0 80 -39 125t-104 47l-78 2v94l78 2q66 2 104 48t39 124l-2 357q-2 186 73 272t282 86h30v-65q-116 0 -156 -52t-48 -221l-21 -360q-6 -97 -46 -149t-128 -87v-4q88 -35 128 -86t46 -149l21 -361q8 -170 48 -221t156 -51
z" />
    <glyph glyph-name="bar" unicode="|" horiz-adv-x="507" 
d="M313 -414h-118v1915h118v-1915z" />
    <glyph glyph-name="braceright" unicode="}" horiz-adv-x="727" 
d="M31 1501h30q207 0 282 -86t73 -272l-2 -357q0 -80 39 -124t104 -48l78 -2v-94l-78 -2q-67 -2 -105 -47t-38 -125l2 -356q2 -186 -73 -272t-282 -87h-30v66q117 0 157 51t48 221l20 361q6 98 46 149t128 86v4q-88 35 -128 86t-46 150l-20 360q-8 170 -48 221t-157 52v65z
" />
    <glyph glyph-name="asciitilde" unicode="~" horiz-adv-x="868" 
d="M131 424l-63 27l10 28q35 99 91 151q96 88 241 27l120 -55q105 -49 151 -18q26 16 41 42t38 74l61 -24l-12 -35q-57 -160 -147 -200t-199 20l-125 57q-92 45 -134 14q-24 -16 -38 -38t-35 -70z" />
    <glyph glyph-name="exclamdown" unicode="&#xa1;" horiz-adv-x="583" 
d="M292 1182q52 0 90 -39t38 -90t-38 -89t-90 -38t-90 37t-38 90t38 91t90 38zM391 -256h-198l51 1028h96z" />
    <glyph glyph-name="cent" unicode="&#xa2;" horiz-adv-x="960" 
d="M252 535q0 -138 54 -241t153 -153l67 762q-118 -16 -196 -123t-78 -245zM72 450q0 210 138 358t322 175l25 270h84l-25 -264q119 -4 199 -62t80 -143q0 -96 -104 -96l-64 6l-20 174q-61 31 -97 35l-69 -790q37 -7 87 -7t110 33t91 66l31 35l41 -27q-36 -90 -119 -160
q-38 -33 -106 -59t-148 -27l-18 -223h-84l18 229q-164 25 -268 146t-104 331z" />
    <glyph glyph-name="sterling" unicode="&#xa3;" horiz-adv-x="1294" 
d="M1257 -147q0 -83 -85 -175t-234 -92q-92 0 -154 30q-63 30 -96 47q-95 49 -319 231l-123 94q-74 -27 -137 -27q-109 0 -109 68q0 35 43 61t103 25q60 0 155 -33q72 61 119 225l57 215h-225v90h250l61 230q61 225 212 360t257 135q80 0 142 -54t63 -142q0 -35 -37 -62
t-98 -32q-35 203 -133 202q-106 0 -197 -334l-82 -303h393v-90h-417l-7 -28q-82 -301 -284 -441q115 -53 221 -127l102 -71q152 -103 220 -141t105 -38t53 8q42 23 42 114v49l-4 98q143 0 143 -92z" />
    <glyph glyph-name="yen" unicode="&#xa5;" horiz-adv-x="1249" 
d="M168 508v90h356l-352 586l-131 53v66h514v-66l-154 -53l269 -488h8l278 469l-192 68v70h444v-66l-135 -61l-352 -578h358v-90h-362v-154h362v-90h-362v-149l198 -47v-68h-581v68l201 47v149h-367v90h367v154h-367z" />
    <glyph glyph-name="brokenbar" unicode="&#xa6;" horiz-adv-x="507" 
d="M313 -414h-118v863h118v-863zM313 641h-118v860h118v-860z" />
    <glyph glyph-name="section" unicode="&#xa7;" horiz-adv-x="1169" 
d="M313 851q0 -140 144 -392l108 -193q90 -162 120 -230t30 -114q0 -45 -10 -100h8q96 106 96 248t-139 393l-109 192q-88 156 -120 227q-33 71 -31 117t12 101h-10q-99 -109 -99 -249zM608 -210q0 83 -67 203q-20 36 -51 85t-50 84l-139 233q-141 233 -141 359t72 242
q72 114 176 192t213 127t181 49t110 -33t38 -75t-26 -68t-64 -27l-155 82q-92 -10 -175 -53q-14 -43 -14 -77t25 -98q28 -72 145 -255l139 -234q139 -236 139 -381t-117 -287q-118 -142 -266 -222t-259 -78q-68 0 -105 32t-37 75q0 42 24 68t64 25l154 -80q86 6 172 54
q14 32 14 58z" />
    <glyph glyph-name="dieresis" unicode="&#xa8;" horiz-adv-x="819" 
d="M610 1241q-47 0 -82 34t-34 81q0 47 34 82q35 35 82 35t82 -35t35 -82t-35 -81t-82 -34zM207 1241q-47 0 -81 34t-34 81t34 82t81 35t82 -35t35 -82t-35 -81t-82 -34z" />
    <glyph glyph-name="copyright" unicode="&#xa9;" horiz-adv-x="1660" 
d="M838 270q-201 0 -300 115q-100 115 -100 281t122 285q122 118 306 118q96 0 201 -46q41 -17 47 -19l4 -209h-51l-68 147q-69 57 -165 57q-96 1 -166 -81t-70 -239t76 -246t198 -89q86 0 148 51l74 156h51l-17 -207q-4 -2 -31 -12t-49 -20q-22 -9 -30 -11t-26 -8t-29 -8
q-10 -3 -38 -9q-29 -6 -87 -6zM190 670q0 -268 188 -456t451 -189q264 0 452 188q187 189 187 457t-187 456t-451 188t-452 -188t-188 -456zM829 -37q-295 0 -501 206t-205 502q0 295 207 501q206 206 500 206t501 -207t207 -501t-207 -501q-207 -206 -502 -206z" />
    <glyph glyph-name="ordfeminine" unicode="&#xaa;" horiz-adv-x="874" 
d="M375 600q90 0 153 76v219l-153 -47q-129 -43 -129 -123q0 -57 38 -91t91 -34zM82 678q0 92 65 143q66 51 205 86l176 45v76q-2 88 -45 139t-109 51t-106 -26l-6 -162q-10 -10 -74 -10q-82 0 -82 76q0 63 102 130q102 66 230 66q130 0 188 -60t58 -188v-415q0 -29 11 -39
t46 -10h82v-50q-100 -45 -166 -45q-121 0 -125 129h-12q-20 -15 -63 -57t-58 -48q-16 -5 -39 -17t-87 -11q-63 1 -127 53t-64 144z" />
    <glyph glyph-name="guillemotleft" unicode="&#xab;" horiz-adv-x="1247" 
d="M1006 944l57 -51l-287 -422l285 -401l-55 -54l-414 439v34zM557 944l57 -51l-286 -422l284 -401l-55 -54l-414 439v34z" />
    <glyph glyph-name="logicalnot" unicode="&#xac;" horiz-adv-x="1142" 
d="M86 545h971v-422h-127v303h-844v119z" />
    <glyph glyph-name="registered" unicode="&#xae;" horiz-adv-x="833" 
d="M356 1163h66q32 4 56 27t24 53q-1 90 -146 84v-164zM207 950v33l57 14v322l-57 16v31h174q219 0 219 -113q0 -78 -106 -114v-2l102 -142l63 -12v-33h-139l-121 170h-43v-123l54 -14v-33h-203zM76 1148q0 -144 98 -244t242 -99q144 0 243 98q99 99 99 243t-98 244t-243 99
q-144 0 -243 -98q-98 -99 -98 -243zM12 1146q0 166 120 282t288 116t285 -114t117 -282q0 -167 -121 -282q-119 -114 -287 -114t-285 114t-117 280z" />
    <glyph glyph-name="macron" unicode="&#xaf;" horiz-adv-x="819" 
d="M113 1284v123h594v-123h-594z" />
    <glyph glyph-name="degree" unicode="&#xb0;" horiz-adv-x="608" 
d="M106 1235q0 -91 56 -151t143 -60q86 0 142 60q57 60 57 150t-56 151t-143 61t-143 -60t-56 -151zM0 1235q0 127 89 215t215 88t215 -89t89 -215t-88 -215t-215 -89t-216 89t-89 216z" />
    <glyph glyph-name="plusminus" unicode="&#xb1;" horiz-adv-x="1140" 
d="M1057 0h-971v119h971v-119zM1057 692h-422v-426h-127v426h-422v119h422v426h127v-426h422v-119z" />
    <glyph glyph-name="acute" unicode="&#xb4;" horiz-adv-x="819" 
d="M555 1548v-39l-203 -381h-84l123 420h164z" />
    <glyph glyph-name="paragraph" unicode="&#xb6;" horiz-adv-x="1103" 
d="M889 4q1 -214 -107 -320t-260 -106t-244 82q-93 82 -94 186q0 70 37 106t89 36t84 -30t40 -81l-63 -143v-13q53 -71 167 -71t174 86t60 246v1296h-108v-860h-117q-195 0 -333 138t-138 333t138 333t333 138h516v-68l-174 -51v-1237z" />
    <glyph glyph-name="periodcentered" unicode="&#xb7;" horiz-adv-x="694" 
d="M347 414q-58 0 -100 43t-42 100t42 99t99 42t100 -42t43 -99t-42 -100t-100 -43z" />
    <glyph glyph-name="cedilla" unicode="&#xb8;" horiz-adv-x="819" 
d="M426 -317q0 78 -109 118l129 207h78l-82 -137q66 -6 106 -44t40 -98q0 -59 -34 -107q-76 -106 -304 -148l-10 59q55 15 87 29q31 14 65 46t34 75z" />
    <glyph glyph-name="ordmasculine" unicode="&#xba;" horiz-adv-x="929" 
d="M473 1296q175 0 281 -105t106 -287t-114 -305q-114 -124 -291 -124q-176 0 -281 115q-104 114 -104 286t114 296q115 124 289 124zM624 1123q-70 97 -174 95t-160 -86q-56 -86 -54 -226t65 -247q63 -106 173 -104t166 88q56 87 54 235t-70 245z" />
    <glyph glyph-name="guillemotright" unicode="&#xbb;" horiz-adv-x="1245" 
d="M688 16l-57 52l284 421l-282 402l55 53l414 -438v-35zM242 16l-58 52l285 421l-283 402l56 53l413 -438v-35z" />
    <glyph glyph-name="onequarter" unicode="&#xbc;" horiz-adv-x="1853" 
d="M1452 293v305l-272 -305h272zM1040 188v48l510 571l62 -4v-510h203v-105h-203v-188h-160v188h-412zM457 -176l-90 63l1103 1602l91 -59zM459 1366v-711l205 -20v-70h-590v70l213 22v555h-226v62l385 92h13z" />
    <glyph glyph-name="onehalf" unicode="&#xbd;" horiz-adv-x="1937" 
d="M1212 0v66l93 77q233 197 291 263t57 132q0 66 -46 110t-114 44q-115 0 -225 -121l-51 50q73 96 149 148t188 52t187 -60q74 -60 76 -169q-1 -59 -15 -87t-23 -45t-33 -42t-37 -39t-54 -50t-97 -79q-55 -43 -75 -60l-74 -59h459v-131h-656zM457 -176l-90 63l1103 1602
l91 -59zM459 1366v-711l205 -20v-70h-590v70l213 22v555h-226v62l385 92h13z" />
    <glyph glyph-name="threequarters" unicode="&#xbe;" horiz-adv-x="1906" 
d="M1505 293v305l-272 -305h272zM1094 188v48l510 571l61 -4v-510h203v-105h-203v-188h-160v188h-411zM514 -176l-90 63l1104 1602l90 -59zM354 528q-146 0 -213 42q-68 42 -67 102q0 78 98 92l100 -139q47 -15 120 -15t128 39t55 118t-77 125q-78 46 -228 38v67l35 11
q217 63 217 180q0 42 -34 66t-100 24t-122 -30q-55 -30 -121 -89l-47 47q162 180 359 180q106 0 174 -44q67 -44 67 -111t-62 -121t-151 -88v-6q133 -14 198 -72t65 -133q0 -117 -124 -200t-270 -83z" />
    <glyph glyph-name="questiondown" unicode="&#xbf;" horiz-adv-x="831" 
d="M519 1182q52 0 90 -39t38 -90t-38 -89t-90 -38t-90 37t-38 90t38 91t90 38zM102 252q0 184 201 260l168 61l-8 199h92l47 -334l-237 -84q-86 -30 -121 -66t-35 -87q-1 -84 109 -151t276 -87l49 -6v-213l-59 10q-106 18 -214 83t-188 177t-80 238z" />
    <glyph glyph-name="Agrave" unicode="&#xc0;" horiz-adv-x="1380" 
d="M399 1792h191l162 -285h-107l-246 244v41zM649 1176l-207 -580h412l-203 580h-2zM6 0v66l119 47l498 1257l69 10l72 21l471 -1288l139 -45v-68h-526v68l174 47l-125 358h-500l-118 -334l196 -71v-68h-469z" />
    <glyph glyph-name="Aacute" unicode="&#xc1;" horiz-adv-x="1380" 
d="M975 1792v-41l-246 -244h-106l161 285h191zM649 1176l-207 -580h412l-203 580h-2zM6 0v66l119 47l498 1257l69 10l72 21l471 -1288l139 -45v-68h-526v68l174 47l-125 358h-500l-118 -334l196 -71v-68h-469z" />
    <glyph glyph-name="Acircumflex" unicode="&#xc2;" horiz-adv-x="1380" 
d="M457 1507h-92l227 265h199l227 -265h-96l-234 160zM649 1176l-207 -580h412l-203 580h-2zM6 0v66l119 47l498 1257l69 10l72 21l471 -1288l139 -45v-68h-526v68l174 47l-125 358h-500l-118 -334l196 -71v-68h-469z" />
    <glyph glyph-name="Atilde" unicode="&#xc3;" horiz-adv-x="1380" 
d="M731 1544l-86 37q-102 51 -150 44t-89 -103l-62 26l10 27q57 143 131 178t172 -12l107 -43q78 -39 124 -22t89 118l61 -27l-10 -26q-59 -156 -128 -200t-169 3zM649 1176l-207 -580h412l-203 580h-2zM6 0v66l119 47l498 1257l69 10l72 21l471 -1288l139 -45v-68h-526v68
l174 47l-125 358h-500l-118 -334l196 -71v-68h-469z" />
    <glyph glyph-name="Adieresis" unicode="&#xc4;" horiz-adv-x="1380" 
d="M915 1559q-47 -1 -81 33t-35 81q0 47 35 82q36 35 82 35t81 -35t35 -82t-35 -81t-82 -33zM463 1559q-47 -1 -81 33t-34 81t34 82t81 35t82 -35t35 -82t-35 -81t-82 -33zM649 1176l-207 -580h412l-203 580h-2zM6 0v66l119 47l498 1257l69 10l72 21l471 -1288l139 -45v-68
h-526v68l174 47l-125 358h-500l-118 -334l196 -71v-68h-469z" />
    <glyph glyph-name="Aring" unicode="&#xc5;" horiz-adv-x="1380" 
d="M545 1694q0 -66 42 -108t103 -42t104 42q42 42 42 108t-42 108t-104 41q-62 1 -103 -41q-42 -42 -42 -108zM451 1693q0 99 69 167q70 68 171 68t170 -68q69 -66 69 -165t-70 -167t-171 -68t-170 67q-68 67 -68 166zM649 1176l-207 -580h412l-203 580h-2zM6 0v66l119 47
l498 1257l69 10l72 21l471 -1288l139 -45v-68h-526v68l174 47l-125 358h-500l-118 -334l196 -71v-68h-469z" />
    <glyph glyph-name="AE" unicode="&#xc6;" horiz-adv-x="1964" 
d="M952 1268h-20l-314 -531h334v531zM1143 645v-549h479l166 271h76l-66 -367h-1020v68l174 47v530h-387l-272 -506l199 -71v-68h-484v66l131 59l643 1100l-202 69v66h1032l178 8v-362h-74l-110 262h-463v-529h266l59 168h66v-418h-72l-53 156h-266z" />
    <glyph glyph-name="Ccedilla" unicode="&#xc7;" horiz-adv-x="1466" 
d="M100 633q0 326 222 544t555 218q229 0 428 -111l12 -342h-76l-113 275q-117 78 -270 77q-227 0 -380 -164t-152 -425q0 -307 154 -481q155 -173 394 -173q154 0 281 92l154 289h75l-53 -344q-248 -129 -477 -137l-55 -96q69 -4 111 -42q42 -39 42 -99q0 -123 -128 -185
q-104 -52 -218 -72l-10 60q55 16 87 29t66 45t33 75q0 78 -108 119l102 166q-178 6 -313 67q-135 60 -212 160q-151 196 -151 455z" />
    <glyph glyph-name="Egrave" unicode="&#xc8;" horiz-adv-x="1294" 
d="M393 1792h191l161 -285h-106l-246 244v41zM473 657v-561h479l166 271h76l-66 -367h-1028v68l174 47v1124l-174 55v66h842l178 8v-362h-73l-111 262h-463v-516h266l60 168h65v-418h-71l-54 155h-266z" />
    <glyph glyph-name="Eacute" unicode="&#xc9;" horiz-adv-x="1294" 
d="M969 1792v-41l-246 -244h-107l162 285h191zM473 657v-561h479l166 271h76l-66 -367h-1028v68l174 47v1124l-174 55v66h842l178 8v-362h-73l-111 262h-463v-516h266l60 168h65v-418h-71l-54 155h-266z" />
    <glyph glyph-name="Ecircumflex" unicode="&#xca;" horiz-adv-x="1294" 
d="M451 1507h-93l228 265h198l228 -265h-97l-233 160zM473 657v-561h479l166 271h76l-66 -367h-1028v68l174 47v1124l-174 55v66h842l178 8v-362h-73l-111 262h-463v-516h266l60 168h65v-418h-71l-54 155h-266z" />
    <glyph glyph-name="Edieresis" unicode="&#xcb;" horiz-adv-x="1294" 
d="M909 1559q-47 -1 -82 33t-34 81q0 47 34 82q35 35 82 35t82 -35t35 -82t-35 -81t-82 -33zM457 1559q-47 -1 -81 33t-34 81t34 82t81 35t82 -35t35 -82t-35 -81q-35 -33 -82 -33zM473 657v-561h479l166 271h76l-66 -367h-1028v68l174 47v1124l-174 55v66h842l178 8v-362
h-73l-111 262h-463v-516h266l60 168h65v-418h-71l-54 155h-266z" />
    <glyph glyph-name="Igrave" unicode="&#xcc;" horiz-adv-x="724" 
d="M82 1792h190l162 -285h-106l-246 244v41zM100 0v68l174 47v1126l-174 53v66h547v-66l-174 -53v-1126l174 -49v-66h-547z" />
    <glyph glyph-name="Iacute" unicode="&#xcd;" horiz-adv-x="724" 
d="M657 1792v-41l-245 -244h-107l162 285h190zM100 0v68l174 47v1126l-174 53v66h547v-66l-174 -53v-1126l174 -49v-66h-547z" />
    <glyph glyph-name="Icircumflex" unicode="&#xce;" horiz-adv-x="724" 
d="M139 1507h-92l227 265h199l227 -265h-96l-233 160zM100 0v68l174 47v1126l-174 53v66h547v-66l-174 -53v-1126l174 -49v-66h-547z" />
    <glyph glyph-name="Idieresis" unicode="&#xcf;" horiz-adv-x="724" 
d="M598 1559q-47 -1 -82 33t-35 81t35 82t82 35t82 -35t35 -82t-35 -81t-82 -33zM145 1559q-47 -1 -81 33t-33 81q0 47 34 82q35 35 81 35t81 -35t35 -82t-35 -81t-82 -33zM100 0v68l174 47v1126l-174 53v66h547v-66l-174 -53v-1126l174 -49v-66h-547z" />
    <glyph glyph-name="Eth" unicode="&#xd0;" horiz-adv-x="1583" 
d="M831 627h-358v-437q12 -116 255 -110t385 170t142 403q0 179 -62 311t-173 202q-218 137 -547 118v-565h358v-92zM274 627h-202v92h202v522l-174 53v66l615 8q358 4 558 -181t200 -493q-1 -308 -231 -507q-230 -198 -624 -193l-518 6v68l174 47v512z" />
    <glyph glyph-name="Ntilde" unicode="&#xd1;" horiz-adv-x="1591" 
d="M897 1544l-86 37q-103 51 -151 44t-89 -103l-61 26l10 27q57 143 131 178t172 -12l107 -43q78 -39 124 -22t89 118l61 -27l-10 -26q-59 -156 -128 -200t-169 3zM627 0h-506v68l174 47v1106l-195 73v66h328l807 -987v839l-219 80v68h506v-68l-174 -51v-1001l4 -263h-47
l-897 1094v-928l219 -75v-68z" />
    <glyph glyph-name="Ograve" unicode="&#xd2;" horiz-adv-x="1609" 
d="M514 1792h191l161 -285h-106l-246 244v41zM803 1395q174 -1 312 -61t219 -162q165 -207 165 -482q-1 -340 -195 -540t-498 -201q-304 1 -500 195t-196 520t195 529q195 202 498 202zM822 35q158 0 266 96q200 177 200 508q0 270 -144 470t-358 200q-119 1 -211 -53
t-145 -142q-110 -183 -108 -395q0 -164 53 -316t171 -260t276 -108z" />
    <glyph glyph-name="Oacute" unicode="&#xd3;" horiz-adv-x="1609" 
d="M1090 1792v-41l-246 -244h-107l162 285h191zM803 1395q174 -1 312 -61t219 -162q165 -207 165 -482q-1 -340 -195 -540t-498 -201q-304 1 -500 195t-196 520t195 529q195 202 498 202zM822 35q158 0 266 96q200 177 200 508q0 270 -144 470t-358 200q-119 1 -211 -53
t-145 -142q-110 -183 -108 -395q0 -164 53 -316t171 -260t276 -108z" />
    <glyph glyph-name="Ocircumflex" unicode="&#xd4;" horiz-adv-x="1609" 
d="M571 1507h-92l228 265h198l228 -265h-97l-233 160zM803 1395q174 -1 312 -61t219 -162q165 -207 165 -482q-1 -340 -195 -540t-498 -201q-304 1 -500 195t-196 520t195 529q195 202 498 202zM822 35q158 0 266 96q200 177 200 508q0 270 -144 470t-358 200
q-119 1 -211 -53t-145 -142q-110 -183 -108 -395q0 -164 53 -316t171 -260t276 -108z" />
    <glyph glyph-name="Otilde" unicode="&#xd5;" horiz-adv-x="1609" 
d="M846 1544l-86 37q-102 51 -150 44t-90 -103l-61 26l10 27q57 143 131 178t172 -12l107 -43q77 -39 123 -22t90 118l61 -27l-10 -26q-59 -156 -128 -200t-169 3zM803 1395q174 -1 312 -61t219 -162q165 -207 165 -482q-1 -340 -195 -540t-498 -201q-304 1 -500 195
t-196 520t195 529q195 202 498 202zM822 35q158 0 266 96q200 177 200 508q0 270 -144 470t-358 200q-119 1 -211 -53t-145 -142q-110 -183 -108 -395q0 -164 53 -316t171 -260t276 -108z" />
    <glyph glyph-name="Odieresis" unicode="&#xd6;" horiz-adv-x="1609" 
d="M1030 1559q-47 -1 -82 33t-35 81t35 82t82 35t82 -35t35 -82t-35 -81t-82 -33zM578 1559q-47 -1 -81 33t-34 81t34 82t81 35q48 0 82 -35t34 -82t-34 -81t-82 -33zM803 1395q174 -1 312 -61t219 -162q165 -207 165 -482q-1 -340 -195 -540t-498 -201q-304 1 -500 195
t-196 520t195 529q195 202 498 202zM822 35q158 0 266 96q200 177 200 508q0 270 -144 470t-358 200q-119 1 -211 -53t-145 -142q-110 -183 -108 -395q0 -164 53 -316t171 -260t276 -108z" />
    <glyph glyph-name="multiply" unicode="&#xd7;" horiz-adv-x="1142" 
d="M938 25l-375 376l-368 -376l-84 84l374 376l-374 375l88 88l372 -375l375 385l82 -84l-375 -382l375 -379z" />
    <glyph glyph-name="Oslash" unicode="&#xd8;" horiz-adv-x="1609" 
d="M788 1305q-118 -1 -210 -55t-144 -142q-108 -180 -106 -389q0 -258 98 -434l678 886q-128 134 -316 134zM1282 639q0 274 -119 457l-684 -893q133 -164 348 -164q150 0 256 95q199 178 199 505zM803 1395q229 0 393 -105l115 152h116l-157 -207q113 -99 171 -243t58 -302
q-1 -340 -195 -540t-499 -201q-242 0 -422 129l-113 -150h-116l159 209q-203 197 -203 525t195 531q195 202 498 202z" />
    <glyph glyph-name="Ugrave" unicode="&#xd9;" horiz-adv-x="1513" 
d="M494 1792h190l162 -285h-107l-245 244v41zM219 520v721l-174 53v66h553v-66l-174 -53v-670q0 -504 367 -503q209 0 305 120t94 373l-6 662l-238 71v66h539v-66l-174 -53v-721q-2 -184 -82 -316q-153 -253 -460 -253q-306 0 -428 147t-122 422z" />
    <glyph glyph-name="Uacute" unicode="&#xda;" horiz-adv-x="1513" 
d="M1069 1792v-41l-246 -244h-106l162 285h190zM219 520v721l-174 53v66h553v-66l-174 -53v-670q0 -504 367 -503q209 0 305 120t94 373l-6 662l-238 71v66h539v-66l-174 -53v-721q-2 -184 -82 -316q-153 -253 -460 -253q-306 0 -428 147t-122 422z" />
    <glyph glyph-name="Ucircumflex" unicode="&#xdb;" horiz-adv-x="1513" 
d="M551 1507h-92l227 265h199l227 -265h-96l-234 160zM219 520v721l-174 53v66h553v-66l-174 -53v-670q0 -504 367 -503q209 0 305 120t94 373l-6 662l-238 71v66h539v-66l-174 -53v-721q-2 -184 -82 -316q-153 -253 -460 -253q-306 0 -428 147t-122 422z" />
    <glyph glyph-name="Udieresis" unicode="&#xdc;" horiz-adv-x="1513" 
d="M1010 1559q-47 -1 -82 33t-35 81t35 82t82 35t82 -35q34 -35 34 -82t-34 -81q-35 -33 -82 -33zM557 1559q-47 -1 -81 33t-34 81t34 82t81 35t82 -35t35 -82t-35 -81t-82 -33zM219 520v721l-174 53v66h553v-66l-174 -53v-670q0 -504 367 -503q209 0 305 120t94 373l-6 662
l-238 71v66h539v-66l-174 -53v-721q-2 -184 -82 -316q-153 -253 -460 -253q-306 0 -428 147t-122 422z" />
    <glyph glyph-name="Yacute" unicode="&#xdd;" horiz-adv-x="1290" 
d="M971 1792v-41l-246 -244h-107l162 285h191zM938 0h-586v68l195 47v422l-402 704l-131 53v66h514v-66l-153 -53l317 -586h8l324 568l-193 67v70h445v-66l-135 -61l-396 -660v-458l193 -47v-68z" />
    <glyph glyph-name="Thorn" unicode="&#xde;" horiz-adv-x="1234" 
d="M100 0v68l174 47v1126l-174 53v66h547v-66l-174 -53v-190l76 2q307 2 466 -85t159 -249q0 -139 -98 -233q-182 -176 -509 -152v65q395 31 396 289q0 133 -121 214t-369 81v-868l174 -49v-66h-547z" />
    <glyph glyph-name="germandbls" unicode="&#xdf;" horiz-adv-x="1247" 
d="M68 0v63l133 46v751h-148v84l146 41q17 218 130 372q127 171 391 171q144 0 248 -74t105 -188q0 -114 -66 -177t-179 -140t-113 -163q1 -53 31 -87t96 -70l133 -76q109 -61 153 -126t43 -151q1 -129 -119 -222t-264 -93t-270 80l4 272h58l77 -209q55 -57 151 -57
q192 0 193 160q0 131 -180 223l-104 57q-170 92 -170 240q0 115 135 215q109 76 157 136t48 152t-66 152q-67 60 -181 60t-190 -94t-75 -267v-1081h-307z" />
    <glyph glyph-name="agrave" unicode="&#xe0;" horiz-adv-x="1028" 
d="M262 1548h164l125 -420h-84l-205 381v39zM455 109q113 0 186 110v270l-197 -65q-80 -27 -118 -62q-38 -34 -39 -102q0 -68 49 -110t119 -41zM100 211q0 115 81 181t249 110l211 55v107q-2 115 -56 177q-53 62 -131 62t-137 -37l-8 -202q-51 -6 -82 -7q-98 0 -98 88
q0 78 121 161q120 83 272 83q152 1 224 -71t71 -226v-553q0 -33 13 -44t55 -11h102v-57q-229 -98 -305 -8q-37 44 -37 116h-6q-6 -6 -32 -31t-47 -46q-20 -21 -32 -27q-12 -5 -29 -19t-27 -16t-26 -10q-37 -17 -115 -17q-77 -1 -154 63t-77 179z" />
    <glyph glyph-name="aacute" unicode="&#xe1;" horiz-adv-x="1028" 
d="M733 1548v-39l-203 -381h-84l123 420h164zM455 109q113 0 186 110v270l-197 -65q-80 -27 -118 -62q-38 -34 -39 -102q0 -68 49 -110t119 -41zM100 211q0 115 81 181t249 110l211 55v107q-2 115 -56 177q-53 62 -131 62t-137 -37l-8 -202q-51 -6 -82 -7q-98 0 -98 88
q0 78 121 161q120 83 272 83q152 1 224 -71t71 -226v-553q0 -33 13 -44t55 -11h102v-57q-229 -98 -305 -8q-37 44 -37 116h-6q-6 -6 -32 -31t-47 -46q-20 -21 -32 -27q-12 -5 -29 -19t-27 -16t-26 -10q-37 -17 -115 -17q-77 -1 -154 63t-77 179z" />
    <glyph glyph-name="acircumflex" unicode="&#xe2;" horiz-adv-x="1028" 
d="M336 1128h-96l206 420h117l207 -420h-100l-170 269zM455 109q113 0 186 110v270l-197 -65q-80 -27 -118 -62q-38 -34 -39 -102q0 -68 49 -110t119 -41zM100 211q0 115 81 181t249 110l211 55v107q-2 115 -56 177q-53 62 -131 62t-137 -37l-8 -202q-51 -6 -82 -7
q-98 0 -98 88q0 78 121 161q120 83 272 83q152 1 224 -71t71 -226v-553q0 -33 13 -44t55 -11h102v-57q-229 -98 -305 -8q-37 44 -37 116h-6q-6 -6 -32 -31t-47 -46q-20 -21 -32 -27q-12 -5 -29 -19t-27 -16t-26 -10q-37 -17 -115 -17q-77 -1 -154 63t-77 179z" />
    <glyph glyph-name="atilde" unicode="&#xe3;" horiz-adv-x="1028" 
d="M528 1239l-79 47q-99 59 -145 47t-89 -114l-61 26l10 27q113 283 315 170l99 -56q76 -45 120 -22t88 127l62 -27l-10 -26q-119 -312 -310 -199zM455 109q113 0 186 110v270l-197 -65q-80 -27 -118 -62q-38 -34 -39 -102q0 -68 49 -110t119 -41zM100 211q0 115 81 181
t249 110l211 55v107q-2 115 -56 177q-53 62 -131 62t-137 -37l-8 -202q-51 -6 -82 -7q-98 0 -98 88q0 78 121 161q120 83 272 83q152 1 224 -71t71 -226v-553q0 -33 13 -44t55 -11h102v-57q-229 -98 -305 -8q-37 44 -37 116h-6q-6 -6 -32 -31t-47 -46q-20 -21 -32 -27
q-12 -5 -29 -19t-27 -16t-26 -10q-37 -17 -115 -17q-77 -1 -154 63t-77 179z" />
    <glyph glyph-name="adieresis" unicode="&#xe4;" horiz-adv-x="1028" 
d="M702 1241q-48 0 -82 34t-34 81t35 82t81 35t82 -35q35 -35 35 -82t-35 -81t-82 -34zM299 1241q-47 0 -81 34t-34 81t34 82t81 35t82 -35t35 -82t-35 -81t-82 -34zM455 109q113 0 186 110v270l-197 -65q-80 -27 -118 -62q-38 -34 -39 -102q0 -68 49 -110t119 -41zM100 211
q0 115 81 181t249 110l211 55v107q-2 115 -56 177q-53 62 -131 62t-137 -37l-8 -202q-51 -6 -82 -7q-98 0 -98 88q0 78 121 161q120 83 272 83q152 1 224 -71t71 -226v-553q0 -33 13 -44t55 -11h102v-57q-229 -98 -305 -8q-37 44 -37 116h-6q-6 -6 -32 -31t-47 -46
q-20 -21 -32 -27q-12 -5 -29 -19t-27 -16t-26 -10q-37 -17 -115 -17q-77 -1 -154 63t-77 179z" />
    <glyph glyph-name="aring" unicode="&#xe5;" horiz-adv-x="1028" 
d="M356 1380q0 -66 42 -108t104 -41q62 0 103 42q42 41 42 107t-42 108t-103 42q-62 0 -104 -42t-42 -108zM262 1379q0 99 70 167t171 68t170 -67t69 -166t-70 -167t-171 -68t-170 68q-69 66 -69 165zM455 109q113 0 186 110v270l-197 -65q-80 -27 -118 -62
q-38 -34 -39 -102q0 -68 49 -110t119 -41zM100 211q0 115 81 181t249 110l211 55v107q-2 115 -56 177q-53 62 -131 62t-137 -37l-8 -202q-51 -6 -82 -7q-98 0 -98 88q0 78 121 161q120 83 272 83q152 1 224 -71t71 -226v-553q0 -33 13 -44t55 -11h102v-57q-229 -98 -305 -8
q-37 44 -37 116h-6q-6 -6 -32 -31t-47 -46q-20 -21 -32 -27q-12 -5 -29 -19t-27 -16t-26 -10q-37 -17 -115 -17q-77 -1 -154 63t-77 179z" />
    <glyph glyph-name="ae" unicode="&#xe6;" horiz-adv-x="1552" 
d="M1059 901q-84 0 -154 -91t-71 -237l409 82q-2 104 -51 175t-133 71zM453 109q133 0 223 141q-18 57 -19 129v92l-192 -41q-178 -41 -178 -164q0 -76 47 -116t119 -41zM354 -31q-100 -1 -177 63t-77 180t75 182t249 100l233 43v127q-2 115 -59 177t-139 62t-142 -37
l-8 -202q-51 -6 -82 -7q-98 0 -98 88q0 76 125 160t274 84q195 0 267 -162q41 70 134 117t193 47q146 0 232 -95t94 -280l-614 -112v-84q8 -131 88 -214t204 -83q70 0 141 38t105 77l37 38l41 -24q-11 -34 -52 -91q-40 -56 -82 -94t-113 -69t-166 -31q-95 1 -190 59
t-147 160q-92 -111 -168 -164q-78 -53 -178 -53z" />
    <glyph glyph-name="ccedilla" unicode="&#xe7;" horiz-adv-x="960" 
d="M453 -307q0 78 -109 119l100 161q-162 21 -267 145t-105 345t157 374q158 153 357 152q125 0 211 -59t86 -146q0 -48 -29 -80t-80 -32l-69 6l-31 190q-49 33 -123 33q-129 0 -214 -106q-85 -107 -85 -275t100 -289t254 -120q66 -1 125 31t88 65l27 33l41 -27
q-34 -85 -118 -158q-39 -33 -105 -59t-144 -29l-51 -86q65 -6 105 -44t40 -98q0 -122 -124 -183q-98 -51 -214 -72l-10 59q55 15 87 29t66 46t34 75z" />
    <glyph glyph-name="egrave" unicode="&#xe8;" horiz-adv-x="1026" 
d="M293 1548h164l125 -420h-84l-205 381v39zM513 899q-95 0 -168 -74t-95 -190h463q-1 113 -53 189t-147 75zM240 555v-20q0 -189 98 -301t260 -111q78 0 148 38t104 77l33 38l41 -24q-12 -35 -54 -98q-126 -187 -366 -187q-104 0 -195 49q-92 49 -140 125q-97 154 -95 303
q0 230 135 388t348 157q172 -1 266 -113t95 -321h-678z" />
    <glyph glyph-name="eacute" unicode="&#xe9;" horiz-adv-x="1026" 
d="M772 1548v-39l-203 -381h-84l123 420h164zM513 899q-95 0 -168 -74t-95 -190h463q-1 113 -53 189t-147 75zM240 555v-20q0 -189 98 -301t260 -111q78 0 148 38t104 77l33 38l41 -24q-12 -35 -54 -98q-126 -187 -366 -187q-104 0 -195 49q-92 49 -140 125q-97 154 -95 303
q0 230 135 388t348 157q172 -1 266 -113t95 -321h-678z" />
    <glyph glyph-name="ecircumflex" unicode="&#xea;" horiz-adv-x="1026" 
d="M350 1128h-96l207 420h117l206 -420h-100l-170 269zM513 899q-95 0 -168 -74t-95 -190h463q-1 113 -53 189t-147 75zM240 555v-20q0 -189 98 -301t260 -111q78 0 148 38t104 77l33 38l41 -24q-12 -35 -54 -98q-126 -187 -366 -187q-104 0 -195 49q-92 49 -140 125
q-97 154 -95 303q0 230 135 388t348 157q172 -1 266 -113t95 -321h-678z" />
    <glyph glyph-name="edieresis" unicode="&#xeb;" horiz-adv-x="1026" 
d="M737 1241q-47 0 -82 34t-34 81q0 47 34 82q35 35 82 35t82 -35t35 -82t-35 -81t-82 -34zM334 1241q-47 0 -81 34t-34 81t34 82t81 35t82 -35t35 -82t-35 -81t-82 -34zM513 899q-95 0 -168 -74t-95 -190h463q-1 113 -53 189t-147 75zM240 555v-20q0 -189 98 -301t260 -111
q78 0 148 38t104 77l33 38l41 -24q-12 -35 -54 -98q-126 -187 -366 -187q-104 0 -195 49q-92 49 -140 125q-97 154 -95 303q0 230 135 388t348 157q172 -1 266 -113t95 -321h-678z" />
    <glyph glyph-name="igrave" unicode="&#xec;" horiz-adv-x="571" 
d="M37 1548h164l125 -420h-84l-205 381v39zM63 0v70l138 45v700l-121 43v72l291 59v-876l153 -43v-70h-461z" />
    <glyph glyph-name="iacute" unicode="&#xed;" horiz-adv-x="571" 
d="M526 1548v-39l-202 -381h-84l122 420h164zM63 0v70l138 45v700l-121 43v72l291 59v-876l153 -43v-70h-461z" />
    <glyph glyph-name="icircumflex" unicode="&#xee;" horiz-adv-x="571" 
d="M111 1128h-97l207 420h117l207 -420h-101l-170 269zM63 0v70l138 45v700l-121 43v72l291 59v-876l153 -43v-70h-461z" />
    <glyph glyph-name="idieresis" unicode="&#xef;" horiz-adv-x="571" 
d="M63 0v70l138 45v700l-121 43v72l291 59v-876l153 -43v-70h-461zM463 1241q-47 0 -82 34t-35 81t35 82t82 35t82 -35t35 -82t-35 -81t-82 -34zM100 1241q-47 0 -81 34t-33 81q0 47 33 82q34 35 81 35t82 -35t35 -82t-35 -81t-82 -34z" />
    <glyph glyph-name="eth" unicode="&#xf0;" horiz-adv-x="1110" 
d="M260 535q0 -268 136 -404q74 -74 186 -74q114 -1 185 109t71 302t-62 363q-110 78 -234 78t-203 -99t-79 -275zM1024 528q0 -236 -135 -399q-135 -162 -349 -162q-214 -1 -340 143t-126 356t143 367t332 154q104 0 186 -55q-82 174 -237 325l-271 -153l-39 67l248 142
q-111 98 -264 192l31 54q195 -82 340 -185l241 139l39 -67l-213 -123q414 -326 414 -795z" />
    <glyph glyph-name="ntilde" unicode="&#xf1;" horiz-adv-x="1167" 
d="M596 1239l-80 47q-98 59 -144 47t-89 -114l-62 26l10 27q113 283 316 170l98 -56q76 -45 120 -22t89 127l61 -27l-10 -26q-61 -160 -137 -208t-172 9zM68 0v70l129 43v690l-138 33v55l252 98h11l45 -186h2q158 186 336 186q147 0 213 -76t65 -268v-534l133 -43v-68h-424
v70l117 41v518q-6 115 -48 169t-140 54q-59 0 -121 -29t-96 -57t-33 -31v-624l135 -41v-70h-438z" />
    <glyph glyph-name="ograve" unicode="&#xf2;" horiz-adv-x="1097" 
d="M299 1548h164l125 -420h-84l-205 381v39zM538 -33q-212 -1 -338 143t-126 359t138 370t347 155t337 -131q128 -130 128 -357t-137 -383t-349 -156zM536 905q-132 0 -204 -104q-72 -105 -72 -245q0 -289 135 -425q75 -74 187 -74q112 1 184 107t72 268q0 221 -85 347
t-217 126z" />
    <glyph glyph-name="oacute" unicode="&#xf3;" horiz-adv-x="1097" 
d="M791 1548v-39l-203 -381h-84l123 420h164zM538 -33q-212 -1 -338 143t-126 359t138 370t347 155t337 -131q128 -130 128 -357t-137 -383t-349 -156zM536 905q-132 0 -204 -104q-72 -105 -72 -245q0 -289 135 -425q75 -74 187 -74q112 1 184 107t72 268q0 221 -85 347
t-217 126z" />
    <glyph glyph-name="ocircumflex" unicode="&#xf4;" horiz-adv-x="1097" 
d="M379 1128h-96l206 420h117l207 -420h-100l-170 269zM538 -33q-212 -1 -338 143t-126 359t138 370t347 155t337 -131q128 -130 128 -357t-137 -383t-349 -156zM536 905q-132 0 -204 -104q-72 -105 -72 -245q0 -289 135 -425q75 -74 187 -74q112 1 184 107t72 268
q0 221 -85 347t-217 126z" />
    <glyph glyph-name="otilde" unicode="&#xf5;" horiz-adv-x="1097" 
d="M600 1239l-80 47q-98 59 -144 47t-89 -114l-62 26l11 27q113 283 315 170l98 -56q76 -45 120 -22t89 127l62 -27l-11 -26q-61 -160 -137 -208t-172 9zM538 -33q-212 -1 -338 143t-126 359t138 370t347 155t337 -131q128 -130 128 -357t-137 -383t-349 -156zM536 905
q-132 0 -204 -104q-72 -105 -72 -245q0 -289 135 -425q75 -74 187 -74q112 1 184 107t72 268q0 221 -85 347t-217 126z" />
    <glyph glyph-name="odieresis" unicode="&#xf6;" horiz-adv-x="1097" 
d="M743 1241q-47 0 -81 34t-35 81q0 47 35 82q36 35 82 35t81 -35t35 -82t-35 -81t-82 -34zM340 1241q-47 0 -81 34t-34 81t34 82t81 35t82 -35t35 -82t-35 -81t-82 -34zM538 -33q-212 -1 -338 143t-126 359t138 370t347 155t337 -131q128 -130 128 -357t-137 -383
t-349 -156zM536 905q-132 0 -204 -104q-72 -105 -72 -245q0 -289 135 -425q75 -74 187 -74q112 1 184 107t72 268q0 221 -85 347t-217 126z" />
    <glyph glyph-name="divide" unicode="&#xf7;" horiz-adv-x="1142" 
d="M572 692q-58 0 -100 43t-42 101t42 99q42 42 99 42t101 -42t43 -99q0 -57 -42 -101q-43 -43 -101 -43zM569 -8q-57 0 -99 43t-42 100t42 99t99 42t101 -42t43 -99q1 -57 -43 -100t-101 -43zM1057 426h-971v119h971v-119z" />
    <glyph glyph-name="oslash" unicode="&#xf8;" horiz-adv-x="1097" 
d="M534 909q-128 -1 -202 -111t-74 -281t49 -284l434 580q-78 96 -207 96zM560 55q130 0 205 113t75 286t-52 281l-436 -581q78 -99 208 -99zM74 466q0 218 138 373t337 154q156 0 270 -75l111 145h104l-149 -199q139 -135 139 -360t-137 -381t-338 -156q-150 0 -275 84
l-104 -139h-104l145 194q-137 142 -137 360z" />
    <glyph glyph-name="ugrave" unicode="&#xf9;" horiz-adv-x="1132" 
d="M352 1548h164l125 -420h-84l-205 381v39zM442 -35q-136 0 -204 94t-68 271v504l-141 40v76l315 31v-633q8 -244 215 -244q55 0 109 24t82 48l26 25v633l-166 36v76l340 31v-858l166 -41v-68l-272 -41l-60 166q-152 -170 -342 -170z" />
    <glyph glyph-name="uacute" unicode="&#xfa;" horiz-adv-x="1132" 
d="M799 1548v-39l-203 -381h-84l123 420h164zM442 -35q-136 0 -204 94t-68 271v504l-141 40v76l315 31v-633q8 -244 215 -244q55 0 109 24t82 48l26 25v633l-166 36v76l340 31v-858l166 -41v-68l-272 -41l-60 166q-152 -170 -342 -170z" />
    <glyph glyph-name="ucircumflex" unicode="&#xfb;" horiz-adv-x="1132" 
d="M377 1128h-96l206 420h117l207 -420h-100l-170 269zM442 -35q-136 0 -204 94t-68 271v504l-141 40v76l315 31v-633q8 -244 215 -244q55 0 109 24t82 48l26 25v633l-166 36v76l340 31v-858l166 -41v-68l-272 -41l-60 166q-152 -170 -342 -170z" />
    <glyph glyph-name="udieresis" unicode="&#xfc;" horiz-adv-x="1132" 
d="M752 1241q-47 0 -82 34t-35 81t35 82t82 35t82 -35q34 -35 34 -82t-34 -81t-82 -34zM348 1241q-47 0 -81 34t-34 81t34 82t81 35t82 -35t35 -82t-35 -81t-82 -34zM442 -35q-136 0 -204 94t-68 271v504l-141 40v76l315 31v-633q8 -244 215 -244q55 0 109 24t82 48l26 25
v633l-166 36v76l340 31v-858l166 -41v-68l-272 -41l-60 166q-152 -170 -342 -170z" />
    <glyph glyph-name="yacute" unicode="&#xfd;" horiz-adv-x="1019" 
d="M795 1548v-39l-203 -381h-84l123 420h164zM678 963h344v-64l-94 -41l-455 -1134q-51 -130 -97 -186t-108 -56t-101 33q-38 33 -38 81t29 76q30 28 82 27q52 0 92 -74h4l121 283l-363 952l-96 39v64h444v-64l-149 -39l254 -717h6l266 707l-141 51v62z" />
    <glyph glyph-name="thorn" unicode="&#xfe;" horiz-adv-x="1089" 
d="M533 57q125 1 213 107t90 290q0 184 -82 292q-82 106 -206 106t-212 -84v-639q72 -72 197 -72zM1016 525q0 -234 -163 -396t-384 -162q-66 0 -133 21v-361l186 -55v-64h-489v70l129 45v1729l-127 39v65l301 72v-690q129 152 296 152q168 0 276 -116q108 -115 108 -349z
" />
    <glyph glyph-name="ydieresis" unicode="&#xff;" horiz-adv-x="1019" 
d="M764 1241q-47 0 -82 34t-35 81t35 82t82 35t82 -35t35 -82t-35 -81t-82 -34zM360 1241q-46 0 -80 34t-34 81t34 82t80 35t82 -35q35 -35 35 -82t-35 -81t-82 -34zM678 963h344v-64l-94 -41l-455 -1134q-51 -130 -97 -186t-108 -56t-101 33q-38 33 -38 81t29 76
q30 28 82 27q52 0 92 -74h4l121 283l-363 952l-96 39v64h444v-64l-149 -39l254 -717h6l266 707l-141 51v62z" />
    <glyph glyph-name="Amacron" unicode="&#x100;" horiz-adv-x="1380" 
d="M393 1602v122h594v-122h-594zM649 1176l-207 -580h412l-203 580h-2zM6 0v66l119 47l498 1257l69 10l72 21l471 -1288l139 -45v-68h-526v68l174 47l-125 358h-500l-118 -334l196 -71v-68h-469z" />
    <glyph glyph-name="amacron" unicode="&#x101;" horiz-adv-x="1028" 
d="M205 1284v123h594v-123h-594zM455 109q113 0 186 110v270l-197 -65q-80 -27 -118 -62q-38 -34 -39 -102q0 -68 49 -110t119 -41zM100 211q0 115 81 181t249 110l211 55v107q-2 115 -56 177q-53 62 -131 62t-137 -37l-8 -202q-51 -6 -82 -7q-98 0 -98 88q0 78 121 161
q120 83 272 83q152 1 224 -71t71 -226v-553q0 -33 13 -44t55 -11h102v-57q-229 -98 -305 -8q-37 44 -37 116h-6q-6 -6 -32 -31t-47 -46q-20 -21 -32 -27q-12 -5 -29 -19t-27 -16t-26 -10q-37 -17 -115 -17q-77 -1 -154 63t-77 179z" />
    <glyph glyph-name="Abreve" unicode="&#x102;" horiz-adv-x="1380" 
d="M680 1499q-148 0 -217 80q-68 80 -62 193h60q33 -142 227 -142t227 142h60q9 -109 -69 -191t-226 -82zM649 1176l-207 -580h412l-203 580h-2zM6 0v66l119 47l498 1257l69 10l72 21l471 -1288l139 -45v-68h-526v68l174 47l-125 358h-500l-118 -334l196 -71v-68h-469z" />
    <glyph glyph-name="abreve" unicode="&#x103;" horiz-adv-x="1028" 
d="M494 1161q-240 0 -254 332h73q15 -88 65 -147q50 -60 129 -60t126 60t61 147h72q-6 -160 -68 -246t-204 -86zM455 109q113 0 186 110v270l-197 -65q-80 -27 -118 -62q-38 -34 -39 -102q0 -68 49 -110t119 -41zM100 211q0 115 81 181t249 110l211 55v107q-2 115 -56 177
q-53 62 -131 62t-137 -37l-8 -202q-51 -6 -82 -7q-98 0 -98 88q0 78 121 161q120 83 272 83q152 1 224 -71t71 -226v-553q0 -33 13 -44t55 -11h102v-57q-229 -98 -305 -8q-37 44 -37 116h-6q-6 -6 -32 -31t-47 -46q-20 -21 -32 -27q-12 -5 -29 -19t-27 -16t-26 -10
q-37 -17 -115 -17q-77 -1 -154 63t-77 179z" />
    <glyph glyph-name="Aogonek" unicode="&#x104;" horiz-adv-x="1380" 
d="M649 1176l-207 -580h410l-201 580h-2zM6 0v66l119 47l498 1257l69 10l72 21l471 -1288l139 -45v-68h-256q-223 -129 -223 -266q0 -57 30 -91t82 -34t88 19t91 75l35 -35q-57 -90 -123 -144t-159 -54t-144 51t-51 130t58 153t144 154q86 82 96 93l-147 422h-498l-118 -334
l196 -71v-68h-469z" />
    <glyph glyph-name="aogonek" unicode="&#x105;" horiz-adv-x="1028" 
d="M455 109q113 0 186 110v270l-197 -65q-80 -27 -118 -62q-38 -34 -39 -102q0 -68 49 -110t119 -41zM987 84v-49q-324 -203 -323 -324q0 -102 106 -102q51 0 89 19t91 75l35 -35q-57 -90 -123 -144t-160 -54t-147 50t-53 132t68 158q69 76 231 163v4q-150 0 -156 158h-6
q-6 -6 -32 -31t-47 -46q-20 -21 -32 -27q-12 -5 -29 -19t-27 -16t-36 -14q-27 -12 -105 -13q-77 -1 -154 63t-77 179t81 181t249 110l211 55v107q-2 115 -56 177q-53 62 -131 62t-137 -37l-8 -202q-51 -6 -82 -7q-98 0 -98 88q0 78 121 161q120 83 272 83q152 1 224 -71
t71 -226v-553q0 -33 13 -44t55 -11h102z" />
    <glyph glyph-name="Cacute" unicode="&#x106;" horiz-adv-x="1466" 
d="M1141 1792v-41l-246 -244h-107l162 285h191zM809 -51q-187 0 -329 60q-142 61 -222 161q-158 198 -158 463q0 326 222 544t555 218q229 0 428 -111l12 -342h-76l-113 275q-117 78 -270 77q-227 0 -380 -164t-152 -425q0 -307 154 -481q155 -173 394 -173q154 0 281 92
l154 289h75l-53 -344q-268 -139 -522 -139z" />
    <glyph glyph-name="cacute" unicode="&#x107;" horiz-adv-x="960" 
d="M768 1548v-39l-203 -381h-84l123 420h164zM512 -33q-184 0 -312 127q-128 126 -128 358t157 385q158 153 357 152q125 0 211 -59t86 -146q0 -48 -29 -80t-80 -32l-69 6l-31 190q-49 33 -123 33q-129 0 -214 -106q-85 -107 -85 -275t100 -289t254 -120q66 -1 125 31t88 65
l27 33l41 -27q-34 -85 -120 -160q-39 -33 -107 -59t-148 -27z" />
    <glyph glyph-name="Ccircumflex" unicode="&#x108;" horiz-adv-x="1466" 
d="M623 1507h-93l228 265h198l228 -265h-97l-233 160zM809 -51q-187 0 -329 60q-142 61 -222 161q-158 198 -158 463q0 326 222 544t555 218q229 0 428 -111l12 -342h-76l-113 275q-117 78 -270 77q-227 0 -380 -164t-152 -425q0 -307 154 -481q155 -173 394 -173
q154 0 281 92l154 289h75l-53 -344q-268 -139 -522 -139z" />
    <glyph glyph-name="ccircumflex" unicode="&#x109;" horiz-adv-x="960" 
d="M371 1128h-97l207 420h117l207 -420h-100l-170 269zM512 -33q-184 0 -312 127q-128 126 -128 358t157 385q158 153 357 152q125 0 211 -59t86 -146q0 -48 -29 -80t-80 -32l-69 6l-31 190q-49 33 -123 33q-129 0 -214 -106q-85 -107 -85 -275t100 -289t254 -120
q66 -1 125 31t88 65l27 33l41 -27q-34 -85 -120 -160q-39 -33 -107 -59t-148 -27z" />
    <glyph glyph-name="Cdotaccent" unicode="&#x10a;" horiz-adv-x="1466" 
d="M856 1546q-53 0 -90 38t-37 89t37 89t90 38t90 -38t37 -89t-37 -89t-90 -38zM809 -51q-187 0 -329 60q-142 61 -222 161q-158 198 -158 463q0 326 222 544t555 218q229 0 428 -111l12 -342h-76l-113 275q-117 78 -270 77q-227 0 -380 -164t-152 -425q0 -307 154 -481
q155 -173 394 -173q154 0 281 92l154 289h75l-53 -344q-268 -139 -522 -139z" />
    <glyph glyph-name="cdotaccent" unicode="&#x10b;" horiz-adv-x="960" 
d="M537 1206q-53 0 -91 38q-37 38 -36 89q0 51 36 89t90 38t91 -38t37 -89t-37 -89t-90 -38zM512 -33q-184 0 -312 127q-128 126 -128 358t157 385q158 153 357 152q125 0 211 -59t86 -146q0 -48 -29 -80t-80 -32l-69 6l-31 190q-49 33 -123 33q-129 0 -214 -106
q-85 -107 -85 -275t100 -289t254 -120q66 -1 125 31t88 65l27 33l41 -27q-34 -85 -120 -160q-39 -33 -107 -59t-148 -27z" />
    <glyph glyph-name="Ccaron" unicode="&#x10c;" horiz-adv-x="1466" 
d="M1085 1772h93l-228 -265h-198l-228 265h97l233 -160zM809 -51q-187 0 -329 60q-142 61 -222 161q-158 198 -158 463q0 326 222 544t555 218q229 0 428 -111l12 -342h-76l-113 275q-117 78 -270 77q-227 0 -380 -164t-152 -425q0 -307 154 -481q155 -173 394 -173
q154 0 281 92l154 289h75l-53 -344q-268 -139 -522 -139z" />
    <glyph glyph-name="ccaron" unicode="&#x10d;" horiz-adv-x="960" 
d="M707 1548h96l-207 -420h-117l-207 420h101l168 -268zM512 -33q-184 0 -312 127q-128 126 -128 358t157 385q158 153 357 152q125 0 211 -59t86 -146q0 -48 -29 -80t-80 -32l-69 6l-31 190q-49 33 -123 33q-129 0 -214 -106q-85 -107 -85 -275t100 -289t254 -120
q66 -1 125 31t88 65l27 33l41 -27q-34 -85 -120 -160q-39 -33 -107 -59t-148 -27z" />
    <glyph glyph-name="Dcaron" unicode="&#x10e;" horiz-adv-x="1583" 
d="M958 1772h93l-228 -265h-198l-228 265h97l233 -160zM1473 694q-1 -308 -231 -507q-230 -198 -624 -193l-518 6v68l174 47v1126l-174 53v66l615 8q358 4 558 -181t200 -493zM1255 653q0 179 -62 311t-173 202q-215 135 -547 118v-1094q12 -116 255 -110t385 170t142 403z
" />
    <glyph glyph-name="dcaron" unicode="&#x10f;" horiz-adv-x="1167" 
d="M1300 1526v-17l-153 -413h-60l31 430h182zM572 106q108 0 188 54v608q-8 14 -26 37t-74 61q-58 38 -123 37q-125 0 -208 -99t-83 -272q0 -110 28 -200t110 -158q80 -68 188 -68zM487 -33q-203 0 -308 137t-105 324q0 248 144 405t366 156q90 0 176 -20v407l-185 33v64
l359 55v-1409l166 -41v-68l-275 -39l-49 140q-72 -70 -138 -107t-151 -37z" />
    <glyph glyph-name="Dcroat" unicode="&#x110;" horiz-adv-x="1583" 
d="M831 627h-358v-437q12 -116 255 -110t385 170t142 403q0 179 -62 311t-173 202q-218 137 -547 118v-565h358v-92zM274 627h-202v92h202v522l-174 53v66l615 8q358 4 558 -181t200 -493q-1 -308 -231 -507q-230 -198 -624 -193l-518 6v68l174 47v512z" />
    <glyph glyph-name="dcroat" unicode="&#x111;" horiz-adv-x="1167" 
d="M572 106q108 0 188 54v608q-8 14 -26 37t-74 61q-58 38 -123 37q-125 0 -208 -99t-83 -272q0 -110 28 -200t110 -158q80 -68 188 -68zM934 1223h176v-97h-176v-1007l166 -41v-68l-275 -39l-49 140q-72 -70 -138 -107t-151 -37q-203 0 -308 137t-105 324q0 248 144 405
t366 156q90 0 176 -20v157h-398v97h398v153l-185 33v64l359 55v-305z" />
    <glyph glyph-name="Emacron" unicode="&#x112;" horiz-adv-x="1294" 
d="M387 1602v122h594v-122h-594zM473 657v-561h479l166 271h76l-66 -367h-1028v68l174 47v1124l-174 55v66h842l178 8v-362h-73l-111 262h-463v-516h266l60 168h65v-418h-71l-54 155h-266z" />
    <glyph glyph-name="emacron" unicode="&#x113;" horiz-adv-x="1026" 
d="M246 1284v123h594v-123h-594zM513 899q-95 0 -168 -74t-95 -190h463q-1 113 -53 189t-147 75zM240 555v-20q0 -189 98 -301t260 -111q78 0 148 38t104 77l33 38l41 -24q-12 -35 -54 -98q-126 -187 -366 -187q-104 0 -195 49q-92 49 -140 125q-97 154 -95 303
q0 230 135 388t348 157q172 -1 266 -113t95 -321h-678z" />
    <glyph glyph-name="Ebreve" unicode="&#x114;" horiz-adv-x="1294" 
d="M674 1499q-148 0 -217 80q-68 80 -62 193h60q33 -142 227 -142t227 142h60q9 -109 -69 -191t-226 -82zM473 657v-561h479l166 271h76l-66 -367h-1028v68l174 47v1124l-174 55v66h842l178 8v-362h-73l-111 262h-463v-516h266l60 168h65v-418h-71l-54 155h-266z" />
    <glyph glyph-name="ebreve" unicode="&#x115;" horiz-adv-x="1026" 
d="M535 1161q-240 0 -254 332h73q14 -88 64 -147q50 -60 130 -60q79 0 126 60t61 147h72q-7 -160 -69 -246t-203 -86zM513 899q-95 0 -168 -74t-95 -190h463q-1 113 -53 189t-147 75zM240 555v-20q0 -189 98 -301t260 -111q78 0 148 38t104 77l33 38l41 -24q-12 -35 -54 -98
q-126 -187 -366 -187q-104 0 -195 49q-92 49 -140 125q-97 154 -95 303q0 230 135 388t348 157q172 -1 266 -113t95 -321h-678z" />
    <glyph glyph-name="Edotaccent" unicode="&#x116;" horiz-adv-x="1294" 
d="M684 1546q-53 0 -90 38t-37 89t37 89t90 38t90 -38t37 -89t-37 -89t-90 -38zM473 657v-561h479l166 271h76l-66 -367h-1028v68l174 47v1124l-174 55v66h842l178 8v-362h-73l-111 262h-463v-516h266l60 168h65v-418h-71l-54 155h-266z" />
    <glyph glyph-name="edotaccent" unicode="&#x117;" horiz-adv-x="1026" 
d="M543 1206q-51 0 -89 38t-38 89t38 89t89 38t89 -38t38 -89t-38 -89t-89 -38zM513 899q-95 0 -168 -74t-95 -190h463q-1 113 -53 189t-147 75zM240 555v-20q0 -189 98 -301t260 -111q78 0 148 38t104 77l33 38l41 -24q-12 -35 -54 -98q-126 -187 -366 -187q-104 0 -195 49
q-92 49 -140 125q-97 154 -95 303q0 230 135 388t348 157q172 -1 266 -113t95 -321h-678z" />
    <glyph glyph-name="Eogonek" unicode="&#x118;" horiz-adv-x="1294" 
d="M100 0v68l174 47v1124l-174 55v66h842l178 8v-362h-73l-111 262h-463v-516h266l60 168h65v-418h-71l-54 155h-266v-561h479l166 271h76l-66 -367h-149q-92 -94 -126 -131q-85 -92 -85 -158q0 -102 106 -102q52 0 90 19t91 75l35 -35q-57 -90 -123 -144t-159 -54t-148 49
q-54 49 -54 131t60 150t227 200h-793z" />
    <glyph glyph-name="eogonek" unicode="&#x119;" horiz-adv-x="1026" 
d="M513 899q-95 0 -168 -74t-95 -190h463q-1 113 -53 189t-147 75zM522 -33q-121 0 -213 49t-140 125q-97 154 -95 303q0 230 135 388t348 157q172 -1 266 -113t95 -321h-678v-20q0 -189 98 -301t260 -111q78 0 148 38t104 77l33 38l41 -24q-29 -84 -113 -172t-137 -139
q-152 -148 -152 -230q0 -102 107 -102q51 0 89 19t91 75l35 -35q-57 -90 -123 -144t-159 -54t-147 49q-55 49 -55 130t56 147t202 181q-51 -10 -96 -10z" />
    <glyph glyph-name="Ecaron" unicode="&#x11a;" horiz-adv-x="1294" 
d="M913 1772h93l-228 -265h-198l-228 265h97l233 -160zM473 657v-561h479l166 271h76l-66 -367h-1028v68l174 47v1124l-174 55v66h842l178 8v-362h-73l-111 262h-463v-516h266l60 168h65v-418h-71l-54 155h-266z" />
    <glyph glyph-name="ecaron" unicode="&#x11b;" horiz-adv-x="1026" 
d="M713 1548h96l-207 -420h-117l-206 420h100l168 -268zM513 899q-95 0 -168 -74t-95 -190h463q-1 113 -53 189t-147 75zM240 555v-20q0 -189 98 -301t260 -111q78 0 148 38t104 77l33 38l41 -24q-12 -35 -54 -98q-126 -187 -366 -187q-104 0 -195 49q-92 49 -140 125
q-97 154 -95 303q0 230 135 388t348 157q172 -1 266 -113t95 -321h-678z" />
    <glyph glyph-name="Gcircumflex" unicode="&#x11c;" horiz-adv-x="1540" 
d="M635 1507h-92l227 265h199l227 -265h-96l-234 160zM849 -51q-405 0 -584 215q-163 196 -163 489t234 517t573 225q225 0 416 -111l12 -332h-80l-114 271q-111 72 -273 71q-250 0 -397 -182t-147 -458t164 -440q164 -163 399 -163q143 0 244 45v418l-191 53v58h504v-68
l-117 -33v-424l-63 -34q-207 -117 -417 -117z" />
    <glyph glyph-name="gcircumflex" unicode="&#x11d;" horiz-adv-x="1058" 
d="M344 1128h-96l207 420h116l207 -420h-100l-170 269zM231 -228q0 -80 69 -136q68 -56 228 -56t251 67t91 148q1 113 -163 125l-388 25q-88 -93 -88 -173zM486 909q-196 0 -197 -262q1 -133 59 -218t150 -85t148 69t56 204t-61 213t-155 79zM481 256q-76 0 -147 25
q-72 -55 -72 -103q0 -24 22 -46t54 -23l387 -23q147 -8 220 -70t73 -159q0 -141 -166 -260t-434 -119q-154 0 -262 62t-109 169q0 59 39 117t111 98l49 27v4l-146 139q49 125 162 219q-162 98 -162 301q0 166 113 270t281 105q96 0 241 -51l285 31v-125l-234 12l-2 -6
q104 -88 104 -238t-122 -254q-123 -102 -285 -102z" />
    <glyph glyph-name="Gbreve" unicode="&#x11e;" horiz-adv-x="1540" 
d="M858 1499q-148 0 -217 80q-68 80 -61 193h59q33 -142 227 -142t228 142h59q9 -109 -69 -191t-226 -82zM849 -51q-405 0 -584 215q-163 196 -163 489t234 517t573 225q225 0 416 -111l12 -332h-80l-114 271q-111 72 -273 71q-250 0 -397 -182t-147 -458t164 -440
q164 -163 399 -163q143 0 244 45v418l-191 53v58h504v-68l-117 -33v-424l-63 -34q-207 -117 -417 -117z" />
    <glyph glyph-name="gbreve" unicode="&#x11f;" horiz-adv-x="1058" 
d="M502 1161q-240 0 -254 332h74q14 -88 64 -147q50 -60 129 -60t126 60t61 147h72q-6 -160 -68 -246t-204 -86zM231 -228q0 -80 69 -136q68 -56 228 -56t251 67t91 148q1 113 -163 125l-388 25q-88 -93 -88 -173zM486 909q-196 0 -197 -262q1 -133 59 -218t150 -85t148 69
t56 204t-61 213t-155 79zM481 256q-76 0 -147 25q-72 -55 -72 -103q0 -24 22 -46t54 -23l387 -23q147 -8 220 -70t73 -159q0 -141 -166 -260t-434 -119q-154 0 -262 62t-109 169q0 59 39 117t111 98l49 27v4l-146 139q49 125 162 219q-162 98 -162 301q0 166 113 270
t281 105q96 0 241 -51l285 31v-125l-234 12l-2 -6q104 -88 104 -238t-122 -254q-123 -102 -285 -102z" />
    <glyph glyph-name="Gdotaccent" unicode="&#x120;" horiz-adv-x="1540" 
d="M868 1546q-53 0 -90 38t-37 89t37 89t90 38t90 -38t37 -89t-37 -89t-90 -38zM849 -51q-405 0 -584 215q-163 196 -163 489t234 517t573 225q225 0 416 -111l12 -332h-80l-114 271q-111 72 -273 71q-250 0 -397 -182t-147 -458t164 -440q164 -163 399 -163q143 0 244 45
v418l-191 53v58h504v-68l-117 -33v-424l-63 -34q-207 -117 -417 -117z" />
    <glyph glyph-name="gdotaccent" unicode="&#x121;" horiz-adv-x="1058" 
d="M510 1206q-51 0 -89 38t-38 89t38 89t89 38t89 -38t38 -89t-38 -89t-89 -38zM231 -228q0 -80 69 -136q68 -56 228 -56t251 67t91 148q1 113 -163 125l-388 25q-88 -93 -88 -173zM486 909q-196 0 -197 -262q1 -133 59 -218t150 -85t148 69t56 204t-61 213t-155 79z
M481 256q-76 0 -147 25q-72 -55 -72 -103q0 -24 22 -46t54 -23l387 -23q147 -8 220 -70t73 -159q0 -141 -166 -260t-434 -119q-154 0 -262 62t-109 169q0 59 39 117t111 98l49 27v4l-146 139q49 125 162 219q-162 98 -162 301q0 166 113 270t281 105q96 0 241 -51l285 31
v-125l-234 12l-2 -6q104 -88 104 -238t-122 -254q-123 -102 -285 -102z" />
    <glyph glyph-name="Gcommaaccent" unicode="&#x122;" horiz-adv-x="1540" 
d="M856 -342q0 41 -38 67t-93 29v4q16 113 139 113q68 0 105 -41t37 -104q0 -191 -322 -273l-16 55q188 59 188 150zM849 -51q-405 0 -584 215q-163 196 -163 489t234 517t573 225q225 0 416 -111l12 -332h-80l-114 271q-111 72 -273 71q-250 0 -397 -182t-147 -458
t164 -440q164 -163 399 -163q143 0 244 45v418l-191 53v58h504v-68l-117 -33v-424l-63 -34q-207 -117 -417 -117z" />
    <glyph glyph-name="gcommaaccent" unicode="&#x123;" horiz-adv-x="1058" 
d="M494 1419q0 -41 38 -67t93 -29v-4q-16 -113 -140 -113q-69 0 -105 41t-36 105q0 190 322 272l16 -55q-188 -59 -188 -150zM231 -228q0 -80 69 -136q68 -56 228 -56t251 67t91 148q1 113 -163 125l-388 25q-88 -93 -88 -173zM486 909q-196 0 -197 -262q1 -133 59 -218
t150 -85t148 69t56 204t-61 213t-155 79zM481 256q-76 0 -147 25q-72 -55 -72 -103q0 -24 22 -46t54 -23l387 -23q147 -8 220 -70t73 -159q0 -141 -166 -260t-434 -119q-154 0 -262 62t-109 169q0 59 39 117t111 98l49 27v4l-146 139q49 125 162 219q-162 98 -162 301
q0 166 113 270t281 105q96 0 241 -51l285 31v-125l-234 12l-2 -6q104 -88 104 -238t-122 -254q-123 -102 -285 -102z" />
    <glyph glyph-name="Hcircumflex" unicode="&#x124;" horiz-adv-x="1624" 
d="M578 1507h-93l228 265h198l228 -265h-97l-233 160zM977 0v68l174 47v547h-678v-547l174 -49v-66h-547v68l174 47v1126l-174 53v66h547v-66l-174 -53v-483h678v483l-174 53v66h547v-66l-174 -53v-1126l174 -49v-66h-547z" />
    <glyph glyph-name="hcircumflex" unicode="&#x125;" horiz-adv-x="1155" 
d="M352 1671h-92l227 264h199l227 -264h-96l-233 160zM678 0v70l117 41v518q-7 115 -49 169t-140 54q-60 0 -122 -29t-95 -57t-33 -31v-624l136 -41v-70h-439v70l129 45v1251l-137 53v56l311 53v-725q29 35 65 69t114 76q78 41 155 41q147 0 213 -76t66 -268v-534l133 -43
v-68h-424z" />
    <glyph glyph-name="Hbar" unicode="&#x126;" horiz-adv-x="1624" 
d="M473 975v-217h678v217h-678zM977 0v68l174 47v547h-678v-547l174 -49v-66h-547v68l174 47v860h-204v86h204v180l-174 53v66h547v-66l-174 -53v-180h678v180l-174 53v66h547v-66l-174 -53v-180h204v-86h-204v-860l174 -49v-66h-547z" />
    <glyph glyph-name="hbar" unicode="&#x127;" horiz-adv-x="1155" 
d="M6 1126v97h176v143l-137 53v56l311 53v-305h398v-97h-398v-323q29 35 65 69t114 76q78 41 155 41q147 0 213 -76t66 -268v-534l133 -43v-68h-424v70l117 41v518q-7 115 -49 169t-140 54q-60 0 -122 -29t-95 -57t-33 -31v-624l136 -41v-70h-439v70l129 45v1011h-176z" />
    <glyph glyph-name="Itilde" unicode="&#x128;" horiz-adv-x="724" 
d="M100 0v68l174 47v1126l-174 53v66h547v-66l-174 -53v-1126l174 -49v-66h-547zM414 1544l-86 37q-102 51 -150 44t-90 -103l-61 26l10 27q57 143 131 178t172 -12l106 -43q78 -39 124 -22t89 118l62 -27l-10 -26q-59 -156 -128 -200t-169 3z" />
    <glyph glyph-name="itilde" unicode="&#x129;" horiz-adv-x="571" 
d="M63 0v70l138 45v700l-121 43v72l291 59v-876l153 -43v-70h-461zM274 1255l-38 23q-80 55 -130 46t-90 -105l-61 26l10 27q109 270 324 149l51 -28q117 -86 195 98l61 -27l-10 -26q-62 -158 -138 -201t-174 18z" />
    <glyph glyph-name="Imacron" unicode="&#x12a;" horiz-adv-x="724" 
d="M76 1602v122h594v-122h-594zM100 0v68l174 47v1126l-174 53v66h547v-66l-174 -53v-1126l174 -49v-66h-547z" />
    <glyph glyph-name="imacron" unicode="&#x12b;" horiz-adv-x="571" 
d="M63 0v70l138 45v700l-121 43v72l291 59v-876l153 -43v-70h-461zM8 1284v123h512v-123h-512z" />
    <glyph glyph-name="Ibreve" unicode="&#x12c;" horiz-adv-x="724" 
d="M364 1499q-148 0 -217 80q-68 80 -61 193h59q33 -142 228 -142t227 142h59q9 -109 -69 -191t-226 -82zM100 0v68l174 47v1126l-174 53v66h547v-66l-174 -53v-1126l174 -49v-66h-547z" />
    <glyph glyph-name="ibreve" unicode="&#x12d;" horiz-adv-x="571" 
d="M285 1161q-240 0 -254 332h73q14 -88 64 -147q50 -60 130 -60q79 0 126 60t61 147h72q-7 -160 -69 -246t-203 -86zM63 0v70l138 45v700l-121 43v72l291 59v-876l153 -43v-70h-461z" />
    <glyph glyph-name="Iogonek" unicode="&#x12e;" horiz-adv-x="724" 
d="M100 0v68l174 47v1126l-174 53v66h547v-66l-174 -53v-1126l174 -49v-66h-235q-74 -127 -97 -181t-22 -108q0 -102 106 -102q51 0 89 19t92 75l34 -35q-56 -90 -122 -144t-159 -54t-148 49q-54 49 -54 114q-1 65 15 99q47 101 109 176q9 12 34 45t35 47h-224z" />
    <glyph glyph-name="iogonek" unicode="&#x12f;" horiz-adv-x="571" 
d="M271 1278q-50 0 -88 37t-38 88t38 88t88 37t88 -37t38 -88t-38 -88t-88 -37zM63 0v70l138 45v700l-121 43v72l291 59v-876l153 -43v-70h-196q-38 -69 -50 -88q-12 -18 -25 -42t-26 -47t-15 -37q-3 -13 -8 -30t-5 -45q0 -102 106 -102q49 0 84 18t88 76l35 -35
q-39 -59 -68 -95t-86 -70q-57 -33 -135 -33t-132 49t-54 121t33 125t48 75t60 80q45 57 62 80h-177z" />
    <glyph glyph-name="Idotaccent" unicode="&#x130;" horiz-adv-x="724" 
d="M373 1546q-53 0 -90 38t-37 89t37 89t90 38t90 -38t37 -89t-37 -89t-90 -38zM100 0v68l174 47v1126l-174 53v66h547v-66l-174 -53v-1126l174 -49v-66h-547z" />
    <glyph glyph-name="dotlessi" unicode="&#x131;" horiz-adv-x="571" 
d="M63 0v70l138 45v700l-121 43v72l291 59v-876l153 -43v-70h-461z" />
    <glyph glyph-name="IJ" unicode="&#x132;" horiz-adv-x="1413" 
d="M1186 104q0 -120 -18 -206t-66 -164q-97 -160 -365 -180l-12 69q174 36 223 162q25 66 32 128t7 167v1163l-190 43v74h563v-66l-174 -53v-1137zM100 0v68l174 47v1126l-174 53v66h547v-66l-174 -53v-1126l174 -49v-66h-547z" />
    <glyph glyph-name="ij" unicode="&#x133;" horiz-adv-x="1105" 
d="M830 1528q50 0 88 -37t38 -88t-38 -88t-88 -37t-88 37t-37 88q0 51 37 88q38 37 88 37zM758 53v750l-121 55v72l293 59v-936q0 -363 -186 -498q-77 -57 -169 -69l-10 59q102 33 148 156q45 123 45 352zM271 1278q-50 0 -88 37t-38 88t38 88t88 37t88 -37t38 -88t-38 -88
t-88 -37zM63 0v70l138 45v700l-121 43v72l291 59v-876l153 -43v-70h-461z" />
    <glyph glyph-name="Jcircumflex" unicode="&#x134;" horiz-adv-x="708" 
d="M145 1507h-92l228 265h198l228 -265h-97l-233 160zM481 104q0 -120 -18 -206q-17 -86 -65 -164q-98 -160 -365 -180l-13 69q175 36 224 162q25 66 31 128q7 62 8 167v1163l-191 43v74h563v-66l-174 -53v-1137z" />
    <glyph glyph-name="jcircumflex" unicode="&#x135;" horiz-adv-x="534" 
d="M104 1128h-96l207 420h117l207 -420h-101l-170 269zM186 53v750l-120 55v72l292 59v-936q0 -363 -185 -498q-77 -57 -169 -69l-10 59q102 33 147 156t45 352z" />
    <glyph glyph-name="Kcommaaccent" unicode="&#x136;" horiz-adv-x="1394" 
d="M762 -129q68 0 104 -41t37 -104q1 -191 -321 -273l-17 55q188 59 189 150q0 41 -38 67t-93 29v4q16 113 139 113zM862 1360h428v-66l-166 -53l-434 -450l531 -685l153 -40v-66h-313l-572 735v8l58 27l459 471l-144 59v60zM100 0v68l174 47v1126l-174 53v66h547v-66
l-174 -53v-1126l174 -49v-66h-547z" />
    <glyph glyph-name="kcommaaccent" unicode="&#x137;" horiz-adv-x="1067" 
d="M567 -342q0 41 -38 67t-93 29v4q16 113 139 113q68 0 105 -41t37 -104q0 -191 -322 -273l-16 55q188 59 188 150zM608 963h414v-58l-137 -35l-332 -280l489 -580q-30 -43 -106 -45q-96 -4 -211 144l-352 460v4l73 23l287 262l-125 41v64zM498 0h-439v70l129 45v1237
l-135 53v55l309 68v-1417l136 -41v-70z" />
    <glyph glyph-name="kgreenlandic" unicode="&#x138;" horiz-adv-x="1071" 
d="M612 963h414v-58l-137 -35l-330 -315l488 -547q-31 -41 -107 -43q-96 -4 -211 135l-352 437v4l76 22l284 295l-125 41v64zM371 989v-878l135 -41v-70h-438v70l129 43v690l-138 33v55l301 98h11z" />
    <glyph glyph-name="Lacute" unicode="&#x139;" horiz-adv-x="1216" 
d="M676 1792v-41l-246 -244h-106l161 285h191zM473 96h451l166 312h75l-73 -408h-992v68l174 47v1124l-174 55v66h582v-66l-209 -53v-1145z" />
    <glyph glyph-name="lacute" unicode="&#x13a;" horiz-adv-x="571" 
d="M563 1927v-41l-246 -244h-106l162 285h190zM59 0v70l129 43v1239l-131 39v65l305 72v-1417l140 -41v-70h-443z" />
    <glyph glyph-name="Lcommaaccent" unicode="&#x13b;" horiz-adv-x="1216" 
d="M653 -342q0 41 -38 67t-93 29v4q16 113 140 113q68 0 104 -41t37 -104q0 -191 -322 -273l-16 55q188 59 188 150zM473 96h451l166 312h75l-73 -408h-992v68l174 47v1124l-174 55v66h582v-66l-209 -53v-1145z" />
    <glyph glyph-name="lcommaaccent" unicode="&#x13c;" horiz-adv-x="571" 
d="M266 -342q0 41 -38 67t-93 29v4q16 113 139 113q68 0 105 -41t37 -104q0 -191 -322 -273l-16 55q188 59 188 150zM59 0v70l129 43v1239l-131 39v65l305 72v-1417l140 -41v-70h-443z" />
    <glyph glyph-name="Lcaron" unicode="&#x13d;" horiz-adv-x="1216" 
d="M1047 1401v-17l-154 -413h-59l30 430h183zM473 96h451l166 312h75l-73 -408h-992v68l174 47v1124l-174 55v66h582v-66l-209 -53v-1145z" />
    <glyph glyph-name="lcaron" unicode="&#x13e;" horiz-adv-x="571" 
d="M725 1528v-17l-154 -413h-59l31 430h182zM59 0v70l129 43v1239l-131 39v65l305 72v-1417l140 -41v-70h-443z" />
    <glyph glyph-name="Ldot" unicode="&#x13f;" horiz-adv-x="1216" 
d="M990 647q-54 0 -94 40t-40 94q0 55 40 95t94 40t94 -40t40 -94t-40 -95q-40 -40 -94 -40zM473 96h451l166 312h75l-73 -408h-992v68l174 47v1124l-174 55v66h582v-66l-209 -53v-1145z" />
    <glyph glyph-name="ldot" unicode="&#x140;" horiz-adv-x="702" 
d="M59 0v70l129 43v1239l-131 39v65l305 72v-1417l140 -41v-70h-443zM764 751q0 -55 -40 -95t-94 -40t-94 40t-40 94t40 95q40 40 94 40t94 -40t40 -94z" />
    <glyph glyph-name="Lslash" unicode="&#x141;" horiz-adv-x="1216" 
d="M100 1360h582v-66l-209 -53v-536l451 129v-84l-451 -129v-525h451l166 312h75l-73 -408h-992v68l174 47v450l-174 -49v84l174 49v590l-174 55v66z" />
    <glyph glyph-name="lslash" unicode="&#x142;" horiz-adv-x="571" 
d="M502 0h-443v70l129 43v549l-168 -95v103l168 94v588l-131 39v65l305 72v-668l185 105v-103l-185 -104v-647l140 -41v-70z" />
    <glyph glyph-name="Nacute" unicode="&#x143;" horiz-adv-x="1591" 
d="M1114 1792v-41l-246 -244h-106l162 285h190zM627 0h-506v68l174 47v1106l-195 73v66h328l807 -987v839l-219 80v68h506v-68l-174 -51v-1001l4 -263h-47l-897 1094v-928l219 -75v-68z" />
    <glyph glyph-name="nacute" unicode="&#x144;" horiz-adv-x="1167" 
d="M817 1548v-39l-203 -381h-84l123 420h164zM68 0v70l129 43v690l-138 33v55l252 98h11l45 -186h2q158 186 336 186q147 0 213 -76t65 -268v-534l133 -43v-68h-424v70l117 41v518q-6 115 -48 169t-140 54q-59 0 -121 -29t-96 -57t-33 -31v-624l135 -41v-70h-438z" />
    <glyph glyph-name="Ncommaaccent" unicode="&#x145;" horiz-adv-x="1591" 
d="M852 -129q68 0 104 -41t37 -104q1 -191 -321 -273l-17 55q188 59 189 150q0 41 -38 67t-93 29v4q16 113 139 113zM627 0h-506v68l174 47v1106l-195 73v66h328l807 -987v839l-219 80v68h506v-68l-174 -51v-1001l4 -263h-47l-897 1094v-928l219 -75v-68z" />
    <glyph glyph-name="ncommaaccent" unicode="&#x146;" horiz-adv-x="1167" 
d="M596 -129q68 0 104 -41t37 -104q1 -191 -321 -273l-17 55q188 59 189 150q0 41 -38 67t-93 29v4q16 113 139 113zM68 0v70l129 43v690l-138 33v55l252 98h11l45 -186h2q158 186 336 186q147 0 213 -76t65 -268v-534l133 -43v-68h-424v70l117 41v518q-6 115 -48 169
t-140 54q-59 0 -121 -29t-96 -57t-33 -31v-624l135 -41v-70h-438z" />
    <glyph glyph-name="Ncaron" unicode="&#x147;" horiz-adv-x="1591" 
d="M1085 1772h93l-228 -265h-198l-228 265h97l233 -160zM627 0h-506v68l174 47v1106l-195 73v66h328l807 -987v839l-219 80v68h506v-68l-174 -51v-1001l4 -263h-47l-897 1094v-928l219 -75v-68z" />
    <glyph glyph-name="ncaron" unicode="&#x148;" horiz-adv-x="1167" 
d="M750 1548h96l-207 -420h-117l-207 420h101l168 -268zM68 0v70l129 43v690l-138 33v55l252 98h11l45 -186h2q158 186 336 186q147 0 213 -76t65 -268v-534l133 -43v-68h-424v70l117 41v518q-6 115 -48 169t-140 54q-59 0 -121 -29t-96 -57t-33 -31v-624l135 -41v-70h-438z
" />
    <glyph glyph-name="napostrophe" unicode="&#x149;" horiz-adv-x="1167" 
d="M131 1311q0 41 -38 67t-93 29v4q16 113 139 113q68 0 105 -41t37 -105q0 -190 -322 -272l-16 55q188 59 188 150zM68 0v70l129 43v690l-138 33v55l252 98h11l45 -186h2q158 186 336 186q147 0 213 -76t65 -268v-534l133 -43v-68h-424v70l117 41v518q-6 115 -48 169
t-140 54q-59 0 -121 -29t-96 -57t-33 -31v-624l135 -41v-70h-438z" />
    <glyph glyph-name="Eng" unicode="&#x14a;" horiz-adv-x="1591" 
d="M1348 23q0 -232 -84 -371q-96 -160 -365 -180l-12 69q200 36 259 163q50 103 50 263v142l-788 962v-928l219 -75v-68h-506v68l174 47v1106l-195 73v66h328l807 -987v839l-219 80v68h506v-68l-174 -51v-1218z" />
    <glyph glyph-name="eng" unicode="&#x14b;" horiz-adv-x="1167" 
d="M811 53v576q-6 113 -49 168t-141 55q-59 0 -121 -29t-96 -57t-33 -31v-624l135 -41v-70h-438v70l129 43v690l-138 33v55l252 98h11l45 -186h2q158 186 336 186q147 0 213 -76t65 -268v-592q0 -363 -185 -498q-77 -56 -169 -69l-11 59q102 33 148 156q45 123 45 352z" />
    <glyph glyph-name="Omacron" unicode="&#x14c;" horiz-adv-x="1609" 
d="M508 1602v122h594v-122h-594zM803 1395q174 -1 312 -61t219 -162q165 -207 165 -482q-1 -340 -195 -540t-498 -201q-304 1 -500 195t-196 520t195 529q195 202 498 202zM822 35q158 0 266 96q200 177 200 508q0 270 -144 470t-358 200q-119 1 -211 -53t-145 -142
q-110 -183 -108 -395q0 -164 53 -316t171 -260t276 -108z" />
    <glyph glyph-name="omacron" unicode="&#x14d;" horiz-adv-x="1097" 
d="M252 1284v123h594v-123h-594zM538 -33q-212 -1 -338 143t-126 359t138 370t347 155t337 -131q128 -130 128 -357t-137 -383t-349 -156zM536 905q-132 0 -204 -104q-72 -105 -72 -245q0 -289 135 -425q75 -74 187 -74q112 1 184 107t72 268q0 221 -85 347t-217 126z" />
    <glyph glyph-name="Obreve" unicode="&#x14e;" horiz-adv-x="1609" 
d="M794 1499q-148 0 -216 80t-62 193h59q33 -142 228 -142t227 142h60q8 -109 -70 -191t-226 -82zM803 1395q174 -1 312 -61t219 -162q165 -207 165 -482q-1 -340 -195 -540t-498 -201q-304 1 -500 195t-196 520t195 529q195 202 498 202zM822 35q158 0 266 96
q200 177 200 508q0 270 -144 470t-358 200q-119 1 -211 -53t-145 -142q-110 -183 -108 -395q0 -164 53 -316t171 -260t276 -108z" />
    <glyph glyph-name="obreve" unicode="&#x14f;" horiz-adv-x="1097" 
d="M541 1161q-240 0 -254 332h73q14 -88 64 -147q50 -60 130 -60q79 0 126 60t61 147h72q-7 -160 -69 -246t-203 -86zM538 -33q-212 -1 -338 143t-126 359t138 370t347 155t337 -131q128 -130 128 -357t-137 -383t-349 -156zM536 905q-132 0 -204 -104q-72 -105 -72 -245
q0 -289 135 -425q75 -74 187 -74q112 1 184 107t72 268q0 221 -85 347t-217 126z" />
    <glyph glyph-name="Ohungarumlaut" unicode="&#x150;" horiz-adv-x="1609" 
d="M1186 1792v-39l-213 -246h-107l156 285h164zM897 1792v-39l-213 -246h-106l155 285h164zM803 1395q174 -1 312 -61t219 -162q165 -207 165 -482q-1 -340 -195 -540t-498 -201q-304 1 -500 195t-196 520t195 529q195 202 498 202zM822 35q158 0 266 96q200 177 200 508
q0 270 -144 470t-358 200q-119 1 -211 -53t-145 -142q-110 -183 -108 -395q0 -164 53 -316t171 -260t276 -108z" />
    <glyph glyph-name="ohungarumlaut" unicode="&#x151;" horiz-adv-x="1097" 
d="M907 1548v-39l-182 -381h-84l107 420h159zM616 1548v-39l-182 -381h-84l107 420h159zM538 -33q-212 -1 -338 143t-126 359t138 370t347 155t337 -131q128 -130 128 -357t-137 -383t-349 -156zM536 905q-132 0 -204 -104q-72 -105 -72 -245q0 -289 135 -425
q75 -74 187 -74q112 1 184 107t72 268q0 221 -85 347t-217 126z" />
    <glyph glyph-name="OE" unicode="&#x152;" horiz-adv-x="2091" 
d="M1079 324v938q-119 16 -243 16q-232 0 -370 -153t-138 -414q0 -352 217 -534q117 -97 273 -97t209 51q52 52 52 193zM1454 1360h285l178 8v-362h-74l-110 262h-463v-516h266l59 168h66v-418h-72l-53 155h-266v-561h479l166 271h76l-66 -367h-629l-452 -10
q-340 0 -537 187t-197 493t211 504q210 198 545 198q59 0 219 -6t369 -6z" />
    <glyph glyph-name="oe" unicode="&#x153;" horiz-adv-x="1798" 
d="M1285 899q-95 0 -168 -74t-95 -190h463q-1 113 -53 189t-147 75zM573 57q119 1 191 107t72 292t-86 317q-86 132 -216 132t-202 -104q-70 -104 -70 -273t80 -320t231 -151zM1294 -33q-266 0 -370 236q-58 -111 -154 -173t-221 -63q-223 -1 -349 143t-126 359t138 370
t337 154q295 0 397 -237q125 233 383 233q172 -1 266 -113t95 -321h-678v-20q0 -189 98 -301t260 -111q78 0 149 38t103 77l33 38l41 -24q-12 -35 -49 -91t-79 -94t-115 -69t-159 -31z" />
    <glyph glyph-name="Racute" unicode="&#x154;" horiz-adv-x="1363" 
d="M930 1792v-41l-246 -244h-106l161 285h191zM473 702h170q127 14 211 92t84 195q0 151 -123 231t-342 74v-592zM100 0v68l174 47v1126l-174 53v66l471 6q287 2 433 -87t147 -249q0 -252 -309 -352l399 -563l178 -47v-68h-332l-358 506l-80 119l-176 -11v-499l174 -49v-66
h-547z" />
    <glyph glyph-name="racute" unicode="&#x155;" horiz-adv-x="770" 
d="M655 1548v-39l-202 -381h-84l123 420h163zM646 993q102 0 102 -108q0 -53 -66 -135l-158 53q-92 -76 -155 -156v-541l180 -34v-72h-481v70l129 45v688l-138 26v62l279 98h10l12 -256h5l65 88q74 98 120 135t96 37z" />
    <glyph glyph-name="Rcommaaccent" unicode="&#x156;" horiz-adv-x="1363" 
d="M768 -342q0 41 -38 67t-93 29v4q16 113 139 113q68 0 105 -41t37 -104q0 -191 -322 -273l-16 55q188 59 188 150zM473 702h170q127 14 211 92t84 195q0 151 -123 231t-342 74v-592zM100 0v68l174 47v1126l-174 53v66l471 6q287 2 433 -87t147 -249q0 -252 -309 -352
l399 -563l178 -47v-68h-332l-358 506l-80 119l-176 -11v-499l174 -49v-66h-547z" />
    <glyph glyph-name="rcommaaccent" unicode="&#x157;" horiz-adv-x="770" 
d="M264 -342q0 41 -38 67t-93 29v4q16 113 139 113q68 0 105 -41t37 -104q0 -191 -322 -273l-16 55q188 59 188 150zM646 993q102 0 102 -108q0 -53 -66 -135l-158 53q-92 -76 -155 -156v-541l180 -34v-72h-481v70l129 45v688l-138 26v62l279 98h10l12 -256h5l65 88
q74 98 120 135t96 37z" />
    <glyph glyph-name="Rcaron" unicode="&#x158;" horiz-adv-x="1363" 
d="M874 1772h93l-228 -265h-198l-228 265h97l233 -160zM473 702h170q127 14 211 92t84 195q0 151 -123 231t-342 74v-592zM100 0v68l174 47v1126l-174 53v66l471 6q287 2 433 -87t147 -249q0 -252 -309 -352l399 -563l178 -47v-68h-332l-358 506l-80 119l-176 -11v-499
l174 -49v-66h-547z" />
    <glyph glyph-name="rcaron" unicode="&#x159;" horiz-adv-x="770" 
d="M594 1548h96l-207 -420h-116l-207 420h100l168 -268zM646 993q102 0 102 -108q0 -53 -66 -135l-158 53q-92 -76 -155 -156v-541l180 -34v-72h-481v70l129 45v688l-138 26v62l279 98h10l12 -256h5l65 88q74 98 120 135t96 37z" />
    <glyph glyph-name="Sacute" unicode="&#x15a;" horiz-adv-x="1058" 
d="M797 1792v-41l-246 -244h-107l162 285h191zM498 53q130 0 206 70t76 184q0 178 -196 260l-209 88q-141 61 -210 145t-69 208q0 168 136 280t331 113q195 0 332 -84l12 -338h-69l-107 278q-85 57 -191 57t-179 -68q-73 -69 -72 -161q0 -156 174 -233l244 -111
q145 -65 208 -151t64 -205q0 -182 -153 -303t-337 -121q-101 0 -207 30t-178 77l-26 362h78l112 -295q100 -82 230 -82z" />
    <glyph glyph-name="sacute" unicode="&#x15b;" horiz-adv-x="856" 
d="M668 1548v-39l-203 -381h-84l123 420h164zM780 264q0 -125 -118 -214t-260 -89q-144 0 -275 80l-33 287h68l104 -226q72 -61 159 -61t136 43q49 44 49 108t-44 113t-154 98l-82 37q-111 48 -161 110t-50 169t105 191q104 84 236 83q132 0 253 -65l10 -244h-61l-84 178
q-62 51 -136 51t-116 -40t-41 -101q0 -61 37 -104t129 -84l88 -39q131 -57 186 -125t55 -156z" />
    <glyph glyph-name="Scircumflex" unicode="&#x15c;" horiz-adv-x="1058" 
d="M344 1507h-92l227 265h199l227 -265h-96l-234 160zM498 53q130 0 206 70t76 184q0 178 -196 260l-209 88q-141 61 -210 145t-69 208q0 168 136 280t331 113q195 0 332 -84l12 -338h-69l-107 278q-85 57 -191 57t-179 -68q-73 -69 -72 -161q0 -156 174 -233l244 -111
q145 -65 208 -151t64 -205q0 -182 -153 -303t-337 -121q-101 0 -207 30t-178 77l-26 362h78l112 -295q100 -82 230 -82z" />
    <glyph glyph-name="scircumflex" unicode="&#x15d;" horiz-adv-x="856" 
d="M270 1128h-96l207 420h117l207 -420h-101l-170 269zM780 264q0 -125 -118 -214t-260 -89q-144 0 -275 80l-33 287h68l104 -226q72 -61 159 -61t136 43q49 44 49 108t-44 113t-154 98l-82 37q-111 48 -161 110t-50 169t105 191q104 84 236 83q132 0 253 -65l10 -244h-61
l-84 178q-62 51 -136 51t-116 -40t-41 -101q0 -61 37 -104t129 -84l88 -39q131 -57 186 -125t55 -156z" />
    <glyph glyph-name="Scedilla" unicode="&#x15e;" horiz-adv-x="1058" 
d="M492 -317q0 78 -109 118l98 160q-223 4 -377 107l-26 362h78l112 -295q100 -82 230 -82t206 70t76 184q0 178 -196 260l-209 88q-141 61 -210 145t-69 208q0 168 136 280t331 113q195 0 332 -84l12 -338h-69l-107 278q-85 57 -191 57t-179 -68q-73 -69 -72 -161
q0 -156 174 -233l244 -111q145 -65 208 -151t64 -205q0 -163 -124 -277t-290 -141l-57 -96q66 -6 106 -44t39 -98q0 -121 -124 -184q-95 -49 -214 -71l-10 59q55 15 87 29t66 46t34 75z" />
    <glyph glyph-name="scedilla" unicode="&#x15f;" horiz-adv-x="856" 
d="M408 -307q0 78 -109 119l92 149q-133 0 -264 80l-33 287h68l104 -226q72 -61 159 -61t136 43q49 44 49 108t-44 113t-154 98l-82 37q-111 48 -161 110t-50 169t105 191q104 84 236 83q132 0 253 -65l10 -244h-61l-84 178q-62 51 -136 51t-116 -40t-41 -101q0 -61 37 -104
t129 -84l88 -39q131 -57 186 -125t55 -166t-88 -180q-88 -80 -217 -105l-51 -88q66 -6 106 -44t39 -98q0 -122 -124 -183q-98 -51 -214 -72l-10 59q55 15 87 29t66 46t34 75z" />
    <glyph glyph-name="Scaron" unicode="&#x160;" horiz-adv-x="1058" 
d="M807 1772h92l-227 -265h-199l-227 265h96l233 -160zM498 53q130 0 206 70t76 184q0 178 -196 260l-209 88q-141 61 -210 145t-69 208q0 168 136 280t331 113q195 0 332 -84l12 -338h-69l-107 278q-85 57 -191 57t-179 -68q-73 -69 -72 -161q0 -156 174 -233l244 -111
q145 -65 208 -151t64 -205q0 -182 -153 -303t-337 -121q-101 0 -207 30t-178 77l-26 362h78l112 -295q100 -82 230 -82z" />
    <glyph glyph-name="scaron" unicode="&#x161;" horiz-adv-x="856" 
d="M606 1548h96l-206 -420h-117l-207 420h100l168 -268zM780 264q0 -125 -118 -214t-260 -89q-144 0 -275 80l-33 287h68l104 -226q72 -61 159 -61t136 43q49 44 49 108t-44 113t-154 98l-82 37q-111 48 -161 110t-50 169t105 191q104 84 236 83q132 0 253 -65l10 -244h-61
l-84 178q-62 51 -136 51t-116 -40t-41 -101q0 -61 37 -104t129 -84l88 -39q131 -57 186 -125t55 -156z" />
    <glyph glyph-name="Tcommaaccent" unicode="&#x162;" horiz-adv-x="1325" 
d="M649 -342q0 41 -38 67t-93 29v4q16 113 139 113q68 0 105 -41t37 -104q0 -191 -322 -273l-16 55q188 59 188 150zM762 1268v-1153l192 -47v-68h-585v68l194 47v1153h-317l-111 -262h-74l19 370l139 -16h887l137 16l21 -370h-74l-111 262h-317z" />
    <glyph glyph-name="tcommaaccent" unicode="&#x163;" horiz-adv-x="679" 
d="M373 -129q69 0 105 -41t36 -104q1 -191 -321 -273l-17 55q188 59 189 150q0 41 -38 67t-94 29v4q16 113 140 113zM381 -23q-211 0 -207 224l6 659h-143v86l149 37l90 244h70v-264h275v-109h-271v-571q0 -113 34 -145t103 -32l154 15l12 -51q-39 -32 -120 -63
q-82 -30 -152 -30z" />
    <glyph glyph-name="Tcaron" unicode="&#x164;" horiz-adv-x="1325" 
d="M891 1772h92l-227 -265h-199l-227 265h96l233 -160zM762 1268v-1153l192 -47v-68h-585v68l194 47v1153h-317l-111 -262h-74l19 370l139 -16h887l137 16l21 -370h-74l-111 262h-317z" />
    <glyph glyph-name="tcaron" unicode="&#x165;" horiz-adv-x="679" 
d="M739 1534v-16l-153 -414h-60l31 430h182zM381 -23q-211 0 -207 224l6 659h-143v86l149 37l90 244h70v-264h275v-109h-271v-571q0 -113 34 -145t103 -32l154 15l12 -51q-39 -32 -120 -63q-82 -30 -152 -30z" />
    <glyph glyph-name="Tbar" unicode="&#x166;" horiz-adv-x="1325" 
d="M215 713v90h348v465h-317l-111 -262h-74l19 370l139 -16h887l137 16l21 -370h-74l-111 262h-317v-465h344v-90h-344v-598l194 -47v-68h-587v68l194 47v598h-348z" />
    <glyph glyph-name="tbar" unicode="&#x167;" horiz-adv-x="679" 
d="M37 553v102h141l2 205h-143v86l149 37l90 244h70v-264h275v-109h-271v-199h271v-102h-271v-270q0 -113 34 -145t103 -32l154 15l12 -51q-39 -32 -121 -63q-82 -30 -151 -30q-211 0 -207 224l2 352h-139z" />
    <glyph glyph-name="Utilde" unicode="&#x168;" horiz-adv-x="1513" 
d="M825 1544l-86 37q-102 51 -150 44t-89 -103l-62 26l11 27q57 143 131 178t172 -12l106 -43q78 -39 124 -22t89 118l62 -27l-11 -26q-59 -156 -128 -200t-169 3zM219 520v721l-174 53v66h553v-66l-174 -53v-670q0 -504 367 -503q209 0 305 120t94 373l-6 662l-238 71v66
h539v-66l-174 -53v-721q-2 -184 -82 -316q-153 -253 -460 -253q-306 0 -428 147t-122 422z" />
    <glyph glyph-name="utilde" unicode="&#x169;" horiz-adv-x="1132" 
d="M586 1239l-80 47q-98 59 -144 47t-90 -114l-61 26l10 27q113 283 316 170l98 -56q76 -45 120 -22t89 127l61 -27l-10 -26q-61 -160 -137 -208t-172 9zM442 -35q-136 0 -204 94t-68 271v504l-141 40v76l315 31v-633q8 -244 215 -244q55 0 109 24t82 48l26 25v633l-166 36
v76l340 31v-858l166 -41v-68l-272 -41l-60 166q-152 -170 -342 -170z" />
    <glyph glyph-name="Umacron" unicode="&#x16a;" horiz-adv-x="1513" 
d="M487 1602v122h594v-122h-594zM219 520v721l-174 53v66h553v-66l-174 -53v-670q0 -504 367 -503q209 0 305 120t94 373l-6 662l-238 71v66h539v-66l-174 -53v-721q-2 -184 -82 -316q-153 -253 -460 -253q-306 0 -428 147t-122 422z" />
    <glyph glyph-name="umacron" unicode="&#x16b;" horiz-adv-x="1132" 
d="M262 1284v123h594v-123h-594zM442 -35q-136 0 -204 94t-68 271v504l-141 40v76l315 31v-633q8 -244 215 -244q55 0 109 24t82 48l26 25v633l-166 36v76l340 31v-858l166 -41v-68l-272 -41l-60 166q-152 -170 -342 -170z" />
    <glyph glyph-name="Ubreve" unicode="&#x16c;" horiz-adv-x="1513" 
d="M774 1499q-148 0 -217 80q-68 80 -61 193h59q33 -142 227 -142t228 142h59q9 -109 -69 -191t-226 -82zM219 520v721l-174 53v66h553v-66l-174 -53v-670q0 -504 367 -503q209 0 305 120t94 373l-6 662l-238 71v66h539v-66l-174 -53v-721q-2 -184 -82 -316
q-153 -253 -460 -253q-306 0 -428 147t-122 422z" />
    <glyph glyph-name="ubreve" unicode="&#x16d;" horiz-adv-x="1132" 
d="M551 1161q-240 0 -254 332h74q14 -88 64 -147q50 -60 129 -60t126 60t62 147h71q-7 -160 -69 -246t-203 -86zM442 -35q-136 0 -204 94t-68 271v504l-141 40v76l315 31v-633q8 -244 215 -244q55 0 109 24t82 48l26 25v633l-166 36v76l340 31v-858l166 -41v-68l-272 -41
l-60 166q-152 -170 -342 -170z" />
    <glyph glyph-name="Uring" unicode="&#x16e;" horiz-adv-x="1513" 
d="M639 1673q0 -65 42 -107t103 -42t104 42q42 42 42 108t-42 107q-42 42 -104 42t-103 -42q-42 -42 -42 -108zM545 1672q0 99 69 167q70 68 171 68t170 -67t69 -166t-70 -167q-70 -67 -171 -67t-170 66q-68 67 -68 166zM219 520v721l-174 53v66h553v-66l-174 -53v-670
q0 -504 367 -503q209 0 305 120t94 373l-6 662l-238 71v66h539v-66l-174 -53v-721q-2 -184 -82 -316q-153 -253 -460 -253q-306 0 -428 147t-122 422z" />
    <glyph glyph-name="uring" unicode="&#x16f;" horiz-adv-x="1132" 
d="M414 1380q0 -66 42 -108t103 -41q61 0 104 42q42 41 42 107t-42 108q-41 42 -103 42t-104 -42t-42 -108zM319 1379q0 99 70 167t171 68t170 -67t69 -166t-70 -167t-171 -68t-170 68q-69 66 -69 165zM442 -35q-136 0 -204 94t-68 271v504l-141 40v76l315 31v-633
q8 -244 215 -244q55 0 109 24t82 48l26 25v633l-166 36v76l340 31v-858l166 -41v-68l-272 -41l-60 166q-152 -170 -342 -170z" />
    <glyph glyph-name="Uhungarumlaut" unicode="&#x170;" horiz-adv-x="1513" 
d="M1165 1792v-39l-213 -246h-106l155 285h164zM877 1792v-39l-213 -246h-107l156 285h164zM219 520v721l-174 53v66h553v-66l-174 -53v-670q0 -504 367 -503q209 0 305 120t94 373l-6 662l-238 71v66h539v-66l-174 -53v-721q-2 -184 -82 -316q-153 -253 -460 -253
q-306 0 -428 147t-122 422z" />
    <glyph glyph-name="uhungarumlaut" unicode="&#x171;" horiz-adv-x="1132" 
d="M918 1548v-39l-183 -381h-84l107 420h160zM627 1548v-39l-183 -381h-84l107 420h160zM442 -35q-136 0 -204 94t-68 271v504l-141 40v76l315 31v-633q8 -244 215 -244q55 0 109 24t82 48l26 25v633l-166 36v76l340 31v-858l166 -41v-68l-272 -41l-60 166
q-152 -170 -342 -170z" />
    <glyph glyph-name="Uogonek" unicode="&#x172;" horiz-adv-x="1513" 
d="M811 -391q51 0 89 19t91 75l35 -35q-57 -90 -123 -144t-159 -54t-147 49t-54 127t50 142t173 163q-307 2 -427 148t-120 421v721l-174 53v66h553v-66l-174 -53v-670q0 -504 367 -503q209 0 305 120t94 373l-6 662l-238 71v66h539v-66l-174 -53v-721q-2 -238 -126 -382
t-311 -177q-98 -102 -134 -152t-35 -98q0 -102 106 -102z" />
    <glyph glyph-name="uogonek" unicode="&#x173;" horiz-adv-x="1132" 
d="M756 -289q0 -102 106 -102q51 0 89 19t91 75l35 -35q-57 -90 -123 -144t-158 -54t-148 49q-54 49 -54 129t55 146t195 177l-60 164q-152 -170 -342 -170q-136 0 -204 94t-68 271v504l-141 40v76l315 31v-633q8 -244 215 -244q55 0 109 24t82 48l26 25v633l-166 36v76
l340 31v-858l166 -41v-68l-164 -24q-120 -123 -158 -174t-38 -101z" />
    <glyph glyph-name="Wcircumflex" unicode="&#x174;" horiz-adv-x="1982" 
d="M782 1507h-92l228 265h198l227 -265h-96l-233 160zM-2 1360h522v-66l-176 -53l287 -1046l309 909l-45 137l-176 53v66h553v-70l-172 -49l334 -1032l286 1014l-213 67v70h478v-66l-136 -61l-376 -1247h-152l-328 960l-336 -960h-149l-381 1255l-129 53v66z" />
    <glyph glyph-name="wcircumflex" unicode="&#x175;" horiz-adv-x="1513" 
d="M623 1128h-97l207 420h117l207 -420h-101l-170 269zM1153 963h354v-64l-94 -39l-278 -893h-123l-232 664l-22 74h-2q-12 -41 -23 -74l-225 -664h-131l-277 893l-94 39v64h436v-64l-149 -39l188 -680h4q8 33 21 68l237 731h99l241 -731l21 -68h4q8 33 18 68l179 600
l-152 51v64z" />
    <glyph glyph-name="Ycircumflex" unicode="&#x176;" horiz-adv-x="1290" 
d="M453 1507h-93l228 265h198l228 -265h-96l-234 160zM938 0h-586v68l195 47v422l-402 704l-131 53v66h514v-66l-153 -53l317 -586h8l324 568l-193 67v70h445v-66l-135 -61l-396 -660v-458l193 -47v-68z" />
    <glyph glyph-name="ycircumflex" unicode="&#x177;" horiz-adv-x="1019" 
d="M397 1128h-96l207 420h117l206 -420h-100l-170 269zM678 963h344v-64l-94 -41l-455 -1134q-51 -130 -97 -186t-108 -56t-101 33q-38 33 -38 81t29 76q30 28 82 27q52 0 92 -74h4l121 283l-363 952l-96 39v64h444v-64l-149 -39l254 -717h6l266 707l-141 51v62z" />
    <glyph glyph-name="Ydieresis" unicode="&#x178;" horiz-adv-x="1290" 
d="M911 1559q-47 -1 -82 33t-34 81q0 47 34 82q35 35 82 35t82 -35t35 -82t-35 -81t-82 -33zM459 1559q-47 -1 -81 33t-34 81t34 82t81 35t82 -35t35 -82t-35 -81q-35 -33 -82 -33zM938 0h-586v68l195 47v422l-402 704l-131 53v66h514v-66l-153 -53l317 -586h8l324 568
l-193 67v70h445v-66l-135 -61l-396 -660v-458l193 -47v-68z" />
    <glyph glyph-name="Zacute" unicode="&#x179;" horiz-adv-x="1269" 
d="M922 1792v-41l-246 -244h-107l162 285h191zM63 0v51l855 1215h-596l-132 -285h-73l43 391l153 -12h899v-6l-880 -1258h637l168 312h75l-75 -418l-160 10h-914z" />
    <glyph glyph-name="zacute" unicode="&#x17a;" horiz-adv-x="929" 
d="M692 1548v-39l-203 -381h-83l122 420h164zM57 0v70l559 804h-362l-90 -215h-64v316l152 -12h614v-31l-585 -844h393l117 242h65l-29 -338l-153 8h-617z" />
    <glyph glyph-name="Zdotaccent" unicode="&#x17b;" horiz-adv-x="1269" 
d="M637 1546q-51 0 -89 38t-38 89t38 89t89 38t89 -38t38 -89t-38 -89t-89 -38zM63 0v51l855 1215h-596l-132 -285h-73l43 391l153 -12h899v-6l-880 -1258h637l168 312h75l-75 -418l-160 10h-914z" />
    <glyph glyph-name="zdotaccent" unicode="&#x17c;" horiz-adv-x="929" 
d="M461 1206q-51 0 -89 38t-38 89t38 89t89 38t89 -38t38 -89t-38 -89t-89 -38zM57 0v70l559 804h-362l-90 -215h-64v316l152 -12h614v-31l-585 -844h393l117 242h65l-29 -338l-153 8h-617z" />
    <glyph glyph-name="Zcaron" unicode="&#x17d;" horiz-adv-x="1269" 
d="M866 1772h92l-227 -265h-199l-227 265h96l234 -160zM63 0v51l855 1215h-596l-132 -285h-73l43 391l153 -12h899v-6l-880 -1258h637l168 312h75l-75 -418l-160 10h-914z" />
    <glyph glyph-name="zcaron" unicode="&#x17e;" horiz-adv-x="929" 
d="M631 1548h96l-207 -420h-117l-206 420h100l168 -268zM57 0v70l559 804h-362l-90 -215h-64v316l152 -12h614v-31l-585 -844h393l117 242h65l-29 -338l-153 8h-617z" />
    <glyph glyph-name="florin" unicode="&#x192;" horiz-adv-x="933" 
d="M809 1237q69 0 103 -33t34 -81t-63 -128q-43 47 -65 67q-70 65 -128 64q-30 0 -52 -15q-65 -43 -119 -207q-34 -101 -70 -255h266l-21 -90h-266l-109 -528q-29 -139 -77 -247t-100 -166q-50 -58 -122 -104t-135 -46t-108 32t-45 84q0 27 15 58t36 45q129 -119 183 -119
t86 73t65 234l135 684h-176l12 90h186q68 252 218 420t317 168z" />
    <glyph glyph-name="Aringacute" unicode="&#x1fa;" horiz-adv-x="1380" 
d="M649 1176l-207 -580h412l-203 580h-2zM6 0v66l119 47l498 1257l69 10l72 21l471 -1288l139 -45v-68h-526v68l174 47l-125 358h-500l-118 -334l196 -71v-68h-469zM989 2249v-41l-246 -244h-106l162 285h190zM545 1675q0 -65 42 -107t103 -42t104 42q42 42 42 108t-42 107
q-42 42 -104 42t-103 -42q-42 -42 -42 -108zM451 1674q0 99 69 167q70 68 171 68t170 -67t69 -166t-70 -167q-70 -67 -171 -67t-170 66q-68 67 -68 166z" />
    <glyph glyph-name="aringacute" unicode="&#x1fb;" horiz-adv-x="1028" 
d="M801 1948v-41l-246 -244h-106l161 285h191zM356 1319q0 -66 42 -108t104 -42t103 42q42 42 42 108q0 65 -42 107t-103 42q-62 0 -104 -42t-42 -107zM262 1318q0 99 70 167q70 67 171 67t170 -66t69 -166q0 -99 -70 -167t-171 -68t-170 67t-69 166zM455 109q113 0 186 110
v270l-197 -65q-80 -27 -118 -62q-38 -34 -39 -102q0 -68 49 -110t119 -41zM100 211q0 115 81 181t249 110l211 55v107q-2 115 -56 177q-53 62 -131 62t-137 -37l-8 -202q-51 -6 -82 -7q-98 0 -98 88q0 78 121 161q120 83 272 83q152 1 224 -71t71 -226v-553q0 -33 13 -44
t55 -11h102v-57q-229 -98 -305 -8q-37 44 -37 116h-6q-6 -6 -32 -31t-47 -46q-20 -21 -32 -27q-12 -5 -29 -19t-27 -16t-26 -10q-37 -17 -115 -17q-77 -1 -154 63t-77 179z" />
    <glyph glyph-name="AEacute" unicode="&#x1fc;" horiz-adv-x="1964" 
d="M1331 1792v-41l-246 -244h-106l162 285h190zM952 1268h-20l-314 -531h334v531zM1143 645v-549h479l166 271h76l-66 -367h-1020v68l174 47v530h-387l-272 -506l199 -71v-68h-484v66l131 59l643 1100l-202 69v66h1032l178 8v-362h-74l-110 262h-463v-529h266l59 168h66
v-418h-72l-53 156h-266z" />
    <glyph glyph-name="aeacute" unicode="&#x1fd;" horiz-adv-x="1552" 
d="M1034 1548v-39l-203 -381h-83l122 420h164zM1059 901q-84 0 -154 -91t-71 -237l409 82q-2 104 -51 175t-133 71zM453 109q133 0 223 141q-18 57 -19 129v92l-192 -41q-178 -41 -178 -164q0 -76 47 -116t119 -41zM354 -31q-100 -1 -177 63t-77 180t75 182t249 100l233 43
v127q-2 115 -59 177t-139 62t-142 -37l-8 -202q-51 -6 -82 -7q-98 0 -98 88q0 76 125 160t274 84q195 0 267 -162q41 70 134 117t193 47q146 0 232 -95t94 -280l-614 -112v-84q8 -131 88 -214t204 -83q70 0 141 38t105 77l37 38l41 -24q-11 -34 -52 -91q-40 -56 -82 -94
t-113 -69t-166 -31q-95 1 -190 59t-147 160q-92 -111 -168 -164q-78 -53 -178 -53z" />
    <glyph glyph-name="Oslashacute" unicode="&#x1fe;" horiz-adv-x="1609" 
d="M1090 1792v-41l-246 -244h-107l162 285h191zM788 1305q-118 -1 -210 -55t-144 -142q-108 -180 -106 -389q0 -258 98 -434l678 886q-128 134 -316 134zM1282 639q0 274 -119 457l-684 -893q133 -164 348 -164q150 0 256 95q199 178 199 505zM803 1395q229 0 393 -105
l115 152h116l-157 -207q113 -99 171 -243t58 -302q-1 -340 -195 -540t-499 -201q-242 0 -422 129l-113 -150h-116l159 209q-203 197 -203 525t195 531q195 202 498 202z" />
    <glyph glyph-name="oslashacute" unicode="&#x1ff;" horiz-adv-x="1097" 
d="M780 1548v-39l-202 -381h-84l122 420h164zM534 909q-128 -1 -202 -111t-74 -281t49 -284l434 580q-78 96 -207 96zM560 55q130 0 205 113t75 286t-52 281l-436 -581q78 -99 208 -99zM74 466q0 218 138 373t337 154q156 0 270 -75l111 145h104l-149 -199
q139 -135 139 -360t-137 -381t-338 -156q-150 0 -275 84l-104 -139h-104l145 194q-137 142 -137 360z" />
    <glyph glyph-name="Scommaaccent" unicode="&#x218;" horiz-adv-x="1058" 
d="M516 -129q68 0 105 -41t36 -104q1 -191 -321 -273l-17 55q188 59 189 150q0 41 -38 67t-93 29v4q16 113 139 113zM498 53q130 0 206 70t76 184q0 178 -196 260l-209 88q-141 61 -210 145t-69 208q0 168 136 280t331 113q195 0 332 -84l12 -338h-69l-107 278
q-85 57 -191 57t-179 -68q-73 -69 -72 -161q0 -156 174 -233l244 -111q145 -65 208 -151t64 -205q0 -182 -153 -303t-337 -121q-101 0 -207 30t-178 77l-26 362h78l112 -295q100 -82 230 -82z" />
    <glyph glyph-name="scommaaccent" unicode="&#x219;" horiz-adv-x="856" 
d="M424 -342q0 41 -38 67t-93 29v4q16 113 139 113q68 0 105 -41t36 -104q1 -191 -321 -273l-16 55q188 59 188 150zM780 264q0 -125 -118 -214t-260 -89q-144 0 -275 80l-33 287h68l104 -226q72 -61 159 -61t136 43q49 44 49 108t-44 113t-154 98l-82 37q-111 48 -161 110
t-50 169t105 191q104 84 236 83q132 0 253 -65l10 -244h-61l-84 178q-62 51 -136 51t-116 -40t-41 -101q0 -61 37 -104t129 -84l88 -39q131 -57 186 -125t55 -156z" />
    <glyph glyph-name="uni0237" unicode="&#x237;" horiz-adv-x="534" 
d="M186 53v750l-120 55v72l292 59v-936q0 -363 -185 -498q-77 -57 -169 -69l-10 59q102 33 147 156t45 352z" />
    <glyph glyph-name="circumflex" unicode="&#x2c6;" horiz-adv-x="819" 
d="M240 1128h-97l207 420h117l207 -420h-101l-170 269z" />
    <glyph glyph-name="caron" unicode="&#x2c7;" horiz-adv-x="819" 
d="M578 1548h96l-207 -420h-117l-207 420h101l168 -268z" />
    <glyph glyph-name="breve" unicode="&#x2d8;" horiz-adv-x="819" 
d="M399 1161q-240 0 -254 332h74q15 -88 65 -147q50 -60 129 -60t126 60t61 147h72q-6 -160 -69 -246t-204 -86z" />
    <glyph glyph-name="dotaccent" unicode="&#x2d9;" horiz-adv-x="819" 
d="M410 1206q-53 0 -91 38q-37 38 -36 89q0 51 36 89q37 38 91 38t90 -38q37 -38 37 -89t-37 -89t-90 -38z" />
    <glyph glyph-name="ring" unicode="&#x2da;" horiz-adv-x="819" 
d="M264 1380q0 -66 42 -108t104 -41q62 0 103 42q42 41 42 107t-42 108t-103 42q-62 0 -104 -42t-42 -108zM170 1379q0 99 70 167t171 68t170 -67t69 -166t-70 -167t-171 -68t-170 68q-69 66 -69 165z" />
    <glyph glyph-name="ogonek" unicode="&#x2db;" horiz-adv-x="819" 
d="M436 -391q51 0 89 19t91 75l35 -35q-57 -90 -123 -144t-158 -54t-148 49q-54 49 -54 131t60 150t227 200h86q-92 -94 -126 -131q-87 -94 -85 -158q0 -102 106 -102z" />
    <glyph glyph-name="tilde" unicode="&#x2dc;" horiz-adv-x="819" 
d="M436 1239l-80 47q-98 59 -144 47t-89 -114l-62 26l11 27q113 283 315 170l98 -56q76 -45 120 -22t89 127l62 -27l-11 -26q-61 -160 -137 -208t-172 9z" />
    <glyph glyph-name="hungarumlaut" unicode="&#x2dd;" horiz-adv-x="819" 
d="M690 1548v-39l-182 -381h-84l106 420h160zM399 1548v-39l-182 -381h-84l107 420h159z" />
    <glyph glyph-name="Wgrave" unicode="&#x1e80;" horiz-adv-x="1982" 
d="M725 1792h190l162 -285h-106l-246 244v41zM-2 1360h522v-66l-176 -53l287 -1046l309 909l-45 137l-176 53v66h553v-70l-172 -49l334 -1032l286 1014l-213 67v70h478v-66l-136 -61l-376 -1247h-152l-328 960l-336 -960h-149l-381 1255l-129 53v66z" />
    <glyph glyph-name="wgrave" unicode="&#x1e81;" horiz-adv-x="1513" 
d="M549 1548h164l125 -420h-84l-205 381v39zM1153 963h354v-64l-94 -39l-278 -893h-123l-232 664l-22 74h-2q-12 -41 -23 -74l-225 -664h-131l-277 893l-94 39v64h436v-64l-149 -39l188 -680h4q8 33 21 68l237 731h99l241 -731l21 -68h4q8 33 18 68l179 600l-152 51v64z" />
    <glyph glyph-name="Wacute" unicode="&#x1e82;" horiz-adv-x="1982" 
d="M1300 1792v-41l-245 -244h-107l162 285h190zM-2 1360h522v-66l-176 -53l287 -1046l309 909l-45 137l-176 53v66h553v-70l-172 -49l334 -1032l286 1014l-213 67v70h478v-66l-136 -61l-376 -1247h-152l-328 960l-336 -960h-149l-381 1255l-129 53v66z" />
    <glyph glyph-name="wacute" unicode="&#x1e83;" horiz-adv-x="1513" 
d="M1020 1548v-39l-203 -381h-84l123 420h164zM1153 963h354v-64l-94 -39l-278 -893h-123l-232 664l-22 74h-2q-12 -41 -23 -74l-225 -664h-131l-277 893l-94 39v64h436v-64l-149 -39l188 -680h4q8 33 21 68l237 731h99l241 -731l21 -68h4q8 33 18 68l179 600l-152 51v64z
" />
    <glyph glyph-name="Wdieresis" unicode="&#x1e84;" horiz-adv-x="1982" 
d="M1241 1559q-47 -1 -82 33t-35 81t35 82t82 35t82 -35t35 -82t-35 -81t-82 -33zM788 1559q-46 -1 -80 33t-34 81t34 82t80 35t82 -35q35 -35 35 -82t-35 -81t-82 -33zM-2 1360h522v-66l-176 -53l287 -1046l309 909l-45 137l-176 53v66h553v-70l-172 -49l334 -1032
l286 1014l-213 67v70h478v-66l-136 -61l-376 -1247h-152l-328 960l-336 -960h-149l-381 1255l-129 53v66z" />
    <glyph glyph-name="wdieresis" unicode="&#x1e85;" horiz-adv-x="1513" 
d="M989 1241q-47 0 -82 34t-35 81t35 82t82 35t82 -35t35 -82t-35 -81t-82 -34zM586 1241q-47 0 -81 34t-34 81t34 82t81 35t82 -35q34 -35 34 -82t-34 -81t-82 -34zM1153 963h354v-64l-94 -39l-278 -893h-123l-232 664l-22 74h-2q-12 -41 -23 -74l-225 -664h-131l-277 893
l-94 39v64h436v-64l-149 -39l188 -680h4q8 33 21 68l237 731h99l241 -731l21 -68h4q8 33 18 68l179 600l-152 51v64z" />
    <glyph glyph-name="Ygrave" unicode="&#x1ef2;" horiz-adv-x="1290" 
d="M395 1792h191l162 -285h-107l-246 244v41zM938 0h-586v68l195 47v422l-402 704l-131 53v66h514v-66l-153 -53l317 -586h8l324 568l-193 67v70h445v-66l-135 -61l-396 -660v-458l193 -47v-68z" />
    <glyph glyph-name="ygrave" unicode="&#x1ef3;" horiz-adv-x="1019" 
d="M324 1548h163l125 -420h-84l-204 381v39zM678 963h344v-64l-94 -41l-455 -1134q-51 -130 -97 -186t-108 -56t-101 33q-38 33 -38 81t29 76q30 28 82 27q52 0 92 -74h4l121 283l-363 952l-96 39v64h444v-64l-149 -39l254 -717h6l266 707l-141 51v62z" />
    <glyph glyph-name="uni2009" unicode="&#x2009;" horiz-adv-x="184" 
 />
    <glyph glyph-name="endash" unicode="&#x2013;" horiz-adv-x="835" 
d="M8 547v104h819v-104h-819z" />
    <glyph glyph-name="emdash" unicode="&#x2014;" horiz-adv-x="1654" 
d="M8 547v104h1639v-104h-1639z" />
    <glyph glyph-name="quoteleft" unicode="&#x2018;" horiz-adv-x="595" 
d="M309 1026q-68 0 -118 57t-50 177t71 233t185 178q35 -45 39 -51q-158 -117 -158 -251t152 -167q14 -82 -20 -129t-101 -47z" />
    <glyph glyph-name="quoteright" unicode="&#x2019;" horiz-adv-x="595" 
d="M287 1634q67 0 117 -57t50 -177t-70 -233q-71 -113 -185 -178q-35 45 -39 51q158 117 158 251t-152 167q-14 82 19 129q34 47 102 47z" />
    <glyph glyph-name="quotesinglbase" unicode="&#x201a;" horiz-adv-x="616" 
d="M299 27q0 125 -152 157q-14 82 20 129q33 47 101 47t118 -57t50 -177t-70 -232t-186 -179q-35 46 -39 52q158 117 158 260z" />
    <glyph glyph-name="quotedblleft" unicode="&#x201c;" horiz-adv-x="1042" 
d="M725 1360q0 -125 152 -158q14 -82 -20 -129q-33 -47 -101 -47t-118 57t-50 177t70 233q71 113 186 178q35 -45 39 -51q-158 -117 -158 -260zM309 1026q-68 0 -118 57t-50 177t71 233t185 178q35 -45 39 -51q-158 -117 -158 -251t152 -167q14 -82 -20 -129t-101 -47z" />
    <glyph glyph-name="quotedblright" unicode="&#x201d;" horiz-adv-x="1042" 
d="M764 1300q0 125 -152 158q-14 82 20 129t102 47t117 -57q50 -57 50 -177t-71 -233t-185 -178q-35 45 -39 51q158 117 158 260zM287 1634q67 0 117 -57t50 -177t-70 -233q-71 -113 -185 -178q-35 45 -39 51q158 117 158 251t-152 167q-14 82 19 129q34 47 102 47z" />
    <glyph glyph-name="quotedblbase" unicode="&#x201e;" horiz-adv-x="1062" 
d="M715 360q68 0 118 -57t50 -177t-71 -232t-185 -179q-35 46 -39 52q158 117 158 251t-152 166q-14 82 19 129q34 47 102 47zM299 27q0 125 -152 157q-14 82 20 129q33 47 101 47t118 -57t50 -177t-70 -232t-186 -179q-35 46 -39 52q158 117 158 260z" />
    <glyph glyph-name="dagger" unicode="&#x2020;" horiz-adv-x="606" 
d="M31 1167v111l221 -8l-10 231h120l-10 -231l223 8v-111l-225 9l12 -564l-120 -2l10 566z" />
    <glyph glyph-name="daggerdbl" unicode="&#x2021;" horiz-adv-x="606" 
d="M31 1167v111l221 -8l-10 231h120l-10 -231l223 8v-111l-225 9v-230l225 8v-110l-223 8l10 -240l-120 -2l10 242l-221 -8v110l223 -8v230z" />
    <glyph glyph-name="bullet" unicode="&#x2022;" horiz-adv-x="694" 
d="M347 367q-77 0 -133 57t-56 133t56 132t133 56t133 -55t56 -133t-56 -134t-133 -56z" />
    <glyph glyph-name="ellipsis" unicode="&#x2026;" horiz-adv-x="1447" 
d="M1200 -8q-57 0 -99 43t-42 100t42 99t99 42t100 -42t43 -99t-43 -100t-100 -43zM724 -8q-58 0 -100 43t-42 100t42 99t99 42t100 -42t43 -99t-42 -100t-100 -43zM246 -8q-57 0 -100 43q-42 43 -42 100t42 99t100 42t100 -42q43 -42 43 -99t-43 -100t-100 -43z" />
    <glyph glyph-name="perthousand" unicode="&#x2030;" horiz-adv-x="2631" 
d="M373 -102l962 1392h121l-962 -1392h-121zM2185 625q-84 0 -129 -82t-45 -198t50 -208q51 -92 139 -92t133 82q45 83 45 201t-54 208t-139 89zM2208 709q150 0 236 -108q86 -109 85 -265q0 -156 -99 -266q-100 -110 -244 -109q-144 0 -235 98t-91 263t99 276t249 111z
M1389 625q-84 0 -129 -82q-46 -82 -46 -198t50 -208t139 -92q88 0 133 82q45 83 45 201t-54 208t-138 89zM1412 709q150 0 235 -108q86 -109 86 -265q1 -156 -99 -266t-244 -109q-144 0 -236 98q-91 98 -91 263t99 276q100 111 250 111zM428 1155q-84 0 -129 -82
q-45 -81 -45 -197t50 -208t138 -92t134 81q44 82 44 201t-54 208t-138 89zM450 1239q150 1 236 -107t86 -264t-99 -267q-99 -109 -243 -109t-236 98t-92 263t100 275q98 110 248 111z" />
    <glyph glyph-name="minute" unicode="&#x2032;" horiz-adv-x="587" 
d="M434 1528v-17l-194 -483h-70l80 500h184z" />
    <glyph glyph-name="second" unicode="&#x2033;" horiz-adv-x="954" 
d="M801 1528v-17l-195 -483h-69l79 500h185zM434 1528v-17l-194 -483h-70l80 500h184z" />
    <glyph glyph-name="guilsinglleft" unicode="&#x2039;" horiz-adv-x="798" 
d="M557 944l57 -51l-286 -422l284 -401l-55 -54l-414 439v34z" />
    <glyph glyph-name="guilsinglright" unicode="&#x203a;" horiz-adv-x="798" 
d="M242 16l-58 52l285 421l-283 402l56 53l413 -438v-35z" />
    <glyph glyph-name="fraction" unicode="&#x2044;" horiz-adv-x="501" 
d="M-256 -176l-90 63l1104 1602l90 -59z" />
    <glyph glyph-name="Euro" unicode="&#x20ac;" horiz-adv-x="1308" 
d="M877 1237q111 0 207 -49t96 -122t-97 -140q-68 115 -140 164q-73 49 -187 49q-114 -1 -212 -105q-97 -104 -128 -274h512l-10 -90h-512v-45q0 -55 6 -109h483l-10 -90h-459q39 -166 145 -254t269 -88t288 111l41 -45q-154 -197 -394 -197t-378 131q-137 131 -170 342
h-182l10 90h162v41q0 57 6 113h-145l10 90h154q61 223 238 350t397 127z" />
    <glyph glyph-name="trademark" unicode="&#x2122;" horiz-adv-x="1708" 
d="M438 1292v-553l92 -20v-60h-323v60l94 20v553h-129l-55 -153h-56l9 221h596l10 -221h-55l-56 153h-127zM735 659v60l78 18v539l-78 20v64h295l172 -465h6l170 465h275v-64l-78 -20v-539l82 -18v-60h-307v62l88 18v545h-8l-216 -577h-84l-221 577h-8v-539l107 -28v-58
h-273z" />
    <glyph glyph-name="onethird" unicode="&#x2153;" horiz-adv-x="1947" 
d="M1490 -37q-146 0 -212 42q-68 42 -68 101q0 78 99 93l100 -140q47 -14 120 -14t128 39t55 118t-78 125t-227 38v67l35 10q217 63 217 181q0 41 -34 65q-35 24 -101 25q-66 0 -121 -30t-121 -89l-47 47q162 180 358 180q106 0 174 -44q68 -43 68 -111t-62 -122t-151 -87
v-6q133 -15 198 -73t64 -132q0 -117 -124 -200t-270 -83zM457 -176l-90 63l1103 1602l91 -59zM459 1366v-711l205 -20v-70h-590v70l213 22v555h-226v62l385 92h13z" />
    <glyph glyph-name="twothirds" unicode="&#x2154;" horiz-adv-x="1994" 
d="M1538 -37q-146 0 -213 42q-68 42 -68 101q0 78 99 93l100 -140q47 -14 120 -14t128 39t55 118t-78 125t-227 38v67l35 10q217 63 217 181q0 41 -34 65t-100 25q-66 0 -122 -30q-55 -30 -121 -89l-47 47q162 180 358 180q106 0 174 -44q68 -43 68 -111t-62 -122t-151 -87
v-6q133 -15 198 -73t64 -132q1 -117 -123 -200t-270 -83zM528 -176l-90 63l1104 1602l90 -59zM59 565v66l93 78q232 197 290 262t58 131t-46 111q-46 44 -114 44q-115 0 -225 -120l-52 49q72 96 149 148q78 52 190 52t186 -60t76 -169q0 -55 -14 -85t-24 -47q-9 -17 -33 -42
t-37 -39t-54 -50q-41 -34 -97 -78l-75 -60l-74 -60h459v-131h-656z" />
    <glyph glyph-name="oneeighth" unicode="&#x215b;" horiz-adv-x="1982" 
d="M1704 612q0 62 -40 102t-112 40t-112 -35t-39 -81q0 -46 32 -78t128 -73l55 -24q88 57 88 149zM1563 33q86 0 132 38t46 90t-38 85t-149 80l-81 34q-106 -61 -107 -163q0 -76 56 -120t141 -44zM1888 219q0 -109 -99 -183t-247 -73q-148 0 -244 57q-94 56 -94 140t50 131
t157 94v4q-162 74 -162 197q0 104 89 170q90 66 230 66t215 -56q75 -55 75 -135q0 -113 -181 -191v-4q119 -47 165 -93t46 -124zM457 -176l-90 63l1103 1602l91 -59zM459 1366v-711l205 -20v-70h-590v70l213 22v555h-226v62l385 92h13z" />
    <glyph glyph-name="threeeighths" unicode="&#x215c;" horiz-adv-x="2007" 
d="M1577 754q-72 0 -112 -35t-40 -81t32 -78t128 -73l55 -24q88 57 89 149q0 62 -40 102t-112 40zM1587 33q86 0 132 38t46 90t-38 85t-148 80l-82 34q-106 -61 -106 -163q0 -76 55 -120t141 -44zM1913 219q0 -109 -99 -183q-100 -74 -248 -73q-148 0 -243 57
q-94 56 -94 140t50 131t157 94v4q-162 74 -162 197q0 104 89 170t229 66t215 -56q75 -55 75 -135q0 -113 -180 -191v-4q119 -47 165 -93t46 -124zM494 -176l-91 63l1104 1602l90 -59zM354 528q-146 0 -213 42q-68 42 -67 102q0 78 98 92l100 -139q47 -15 120 -15t128 39
t55 118t-77 125q-78 46 -228 38v67l35 11q217 63 217 180q0 42 -34 66t-100 24t-122 -30q-55 -30 -121 -89l-47 47q162 180 359 180q106 0 174 -44q67 -44 67 -111t-62 -121t-151 -88v-6q133 -14 198 -72t65 -133q0 -117 -124 -200t-270 -83z" />
    <glyph glyph-name="fiveeighths" unicode="&#x215d;" horiz-adv-x="1996" 
d="M1718 612q0 62 -40 102t-112 40t-111 -35q-40 -35 -40 -81t32 -78t128 -73l55 -24q88 57 88 149zM1577 33q86 0 132 38t46 90t-38 85t-148 80l-82 34q-106 -61 -107 -163q0 -76 56 -120t141 -44zM1903 219q1 -109 -99 -183t-248 -73q-148 0 -243 57q-94 56 -94 140
t50 131t156 94v4q-162 74 -161 197q0 104 89 170t229 66t215 -56q75 -55 75 -135q0 -113 -180 -191v-4q119 -47 165 -93t46 -124zM473 -176l-90 63l1104 1602l90 -59zM723 823q-1 -131 -125 -213t-256 -82t-197 38q-66 38 -65 104q0 38 31 62t73 28l103 -133q29 -16 78 -17
q102 0 157 45q56 45 56 124t-65 124t-175 45t-186 -51h-23v465h547v-133h-461v-180q80 35 204 35t214 -66q90 -64 90 -195z" />
    <glyph glyph-name="seveneighths" unicode="&#x215e;" horiz-adv-x="1884" 
d="M1606 612q0 62 -40 102t-112 40t-112 -35t-40 -81t32 -78t128 -73l56 -24q88 57 88 149zM1464 33q86 0 132 38t46 90t-37 85q-38 33 -149 80l-82 34q-106 -61 -106 -163q0 -76 55 -120t141 -44zM1790 219q0 -109 -99 -183t-247 -73q-148 0 -244 57q-94 56 -94 140t50 131
t157 94v4q-162 74 -162 197q0 104 89 170q90 66 230 66t214 -56q74 -55 75 -135q0 -113 -180 -191v-4q119 -47 165 -93t46 -124zM299 -176l-90 63l1104 1602l90 -59zM57 1221v141h648v-25l-445 -772h-151l442 656h-494z" />
    <glyph glyph-name="minus" unicode="&#x2212;" horiz-adv-x="1142" 
d="M1057 426h-971v119h971v-119z" />
    <glyph glyph-name="approxequal" unicode="&#x2248;" horiz-adv-x="1142" 
d="M344 479q57 0 156 -22l135 -33q141 -33 185 -33t75 29t66 92l92 -37q-47 -100 -107 -149q-60 -50 -142 -50q-83 0 -206 31l-133 35q-94 25 -138 25t-76 -32t-67 -95l-92 36q94 203 252 203zM344 807q57 0 156 -23l135 -32q141 -33 185 -33t75 29t66 92l92 -37
q-47 -99 -107 -149t-142 -50q-83 0 -206 31l-133 35q-94 24 -138 24t-76 -32t-67 -95l-92 37q94 203 252 203z" />
    <glyph glyph-name="notequal" unicode="&#x2260;" horiz-adv-x="1142" 
d="M86 600v113h606l203 225h125l-205 -225h242v-113h-342l-168 -186h510v-113h-613l-202 -225h-119l201 225h-238v113h340l166 186h-506z" />
    <glyph glyph-name="lessequal" unicode="&#x2264;" horiz-adv-x="1142" 
d="M1053 0h-967v119h967v-119zM1053 938l-787 -293l787 -291v-137l-967 369v121l967 368v-137z" />
    <glyph glyph-name="greaterequal" unicode="&#x2265;" horiz-adv-x="1142" 
d="M1053 0h-967v119h967v-119zM872 645l-786 293v137l967 -368v-121l-967 -369v137z" />
    <glyph glyph-name="Pcircle" unicode="&#x24c5;" horiz-adv-x="1660" 
d="M1075 819q0 84 -76 134t-225 51v-635l160 -29v-55h-410v55l109 29v606l-109 31v55h299q193 3 299 -59t106 -178t-117 -181q-118 -66 -267 -59v51q231 16 231 184zM190 670q0 -268 188 -456t451 -189q264 0 452 188q187 189 187 457t-187 456t-451 188t-452 -188
t-188 -456zM829 -37q-295 0 -501 206t-205 502q0 295 207 501q206 206 500 206t501 -207t207 -501t-207 -501q-207 -206 -502 -206z" />
    <glyph glyph-name="space_uni0326" horiz-adv-x="819" 
d="M428 -129q68 0 104 -41t37 -104q1 -191 -321 -273l-17 55q188 59 189 150q0 41 -38 67t-93 29v4q16 113 139 113z" />
    <glyph glyph-name="caron.alt" horiz-adv-x="819" 
d="M535 1528v-17l-154 -413h-59l30 430h183z" />
    <glyph glyph-name="space_uni0326.alt" horiz-adv-x="819" 
d="M414 1419q0 -41 38 -67t93 -29v-4q-16 -113 -139 -113q-68 0 -105 41t-37 105q0 190 322 272l16 -55q-188 -59 -188 -150z" />
    <glyph glyph-name="grave.uc" horiz-adv-x="819" 
d="M188 1792h191l162 -285h-107l-246 244v41z" />
    <glyph glyph-name="dieresis.uc" horiz-adv-x="819" 
d="M635 1559q-47 -1 -82 33t-35 81t35 82t82 35t82 -35t35 -82t-35 -81t-82 -33zM182 1559q-47 -1 -81 33t-33 81q0 47 33 82q34 35 81 35t82 -35t35 -82t-35 -81t-82 -33z" />
    <glyph glyph-name="macron.uc" horiz-adv-x="819" 
d="M113 1602v122h594v-122h-594z" />
    <glyph glyph-name="acute.uc" horiz-adv-x="819" 
d="M631 1792v-41l-246 -244h-106l161 285h191z" />
    <glyph glyph-name="circumflex.uc" horiz-adv-x="819" 
d="M174 1507h-92l227 265h199l227 -265h-96l-233 160z" />
    <glyph glyph-name="caron.uc" horiz-adv-x="819" 
d="M643 1772h92l-227 -265h-199l-227 265h96l234 -160z" />
    <glyph glyph-name="breve.uc" horiz-adv-x="819" 
d="M400 1499q-148 0 -216 80t-61 193h59q33 -142 228 -142t227 142h59q8 -109 -70 -191t-226 -82z" />
    <glyph glyph-name="dotaccent.uc" horiz-adv-x="819" 
d="M410 1546q-53 0 -91 38q-37 38 -36 89q0 51 36 89q37 38 91 38t90 -38q37 -38 37 -89t-37 -89t-90 -38z" />
    <glyph glyph-name="ring.uc" horiz-adv-x="819" 
d="M264 1673q0 -65 42 -107t104 -42t103 42q42 42 42 108t-42 107q-42 42 -103 42q-62 0 -104 -42t-42 -108zM170 1672q0 99 70 167t171 68t170 -67t69 -166t-70 -167q-70 -67 -171 -67t-170 66t-69 166z" />
    <glyph glyph-name="tilde.uc" horiz-adv-x="819" 
d="M449 1544l-87 37q-102 51 -150 44t-89 -103l-62 26l11 27q57 143 131 178t172 -12l106 -43q78 -39 124 -22t89 118l62 -27l-11 -26q-59 -156 -127 -200t-169 3z" />
    <glyph glyph-name="hungarumlaut.uc" horiz-adv-x="819" 
d="M745 1792v-39l-213 -246h-106l156 285h163zM457 1792v-39l-213 -246h-107l156 285h164z" />
    <glyph glyph-name="cedilla.uc" horiz-adv-x="819" 
d="M426 -317q0 78 -109 118l129 207h78l-82 -137q68 -4 111 -42t43 -98q0 -61 -35 -109q-78 -108 -311 -148l-10 59q55 15 87 29q31 14 65 46t34 75z" />
    <glyph glyph-name="idotaccent" horiz-adv-x="571" 
d="M271 1278q-50 0 -88 37t-38 88t38 88t88 37t88 -37t38 -88t-38 -88t-88 -37zM63 0v70l138 45v700l-121 43v72l291 59v-876l153 -43v-70h-461z" />
    <glyph glyph-name="dollar.lin" horiz-adv-x="1067" 
d="M268 1042q0 -174 193 -225l31 -8v467q-100 -16 -162 -80t-62 -154zM600 582l-25 6v-502q100 18 163 85q62 67 63 169q0 193 -201 242zM492 -256v246h-3q-100 0 -216 30t-187 74l-27 346h78l113 -282q104 -76 242 -78v528l-111 29q-301 76 -301 336q0 154 116 258t296 129
v246h83v-240h3q90 0 186 -26t149 -56l13 -323h-70l-104 266q-78 47 -177 53v-496l132 -34q297 -84 297 -332q0 -160 -130 -276t-299 -144v-254h-83z" />
    <glyph glyph-name="Euro.lin" horiz-adv-x="1308" 
d="M915 1397q127 -1 229 -59t101 -132q0 -74 -96 -141q-72 121 -147 177t-187 56q-139 0 -251 -130t-144 -337h508l-10 -90h-508v-47q0 -68 6 -127h479l-10 -90h-457q39 -193 151 -290q111 -97 287 -97t303 121l48 -47q-156 -211 -414 -211t-401 145q-142 145 -175 379h-182
l10 90h162v51q0 68 8 123h-147l10 90h152q61 260 250 413t425 153z" />
    <glyph glyph-name="sterling.lin" horiz-adv-x="1294" 
d="M254 532v91h244l75 340q59 270 197 400t274 130q86 0 156 -58t70 -149q0 -34 -46 -66t-110 -38q-37 223 -145 223q-49 0 -90 -70t-86 -264l-103 -448h395v-91h-415l-2 -14q-68 -299 -295 -452q137 -53 227 -105l70 -37q178 -96 241 -124t99 -27q68 0 87 103t-3 173
q158 10 157 -94q0 -86 -92 -184q-92 -99 -232 -99t-284 78q-61 34 -102 54t-164 102l-146 88q-92 -33 -161 -33q-100 0 -101 86q0 37 34 64q72 57 282 -15q119 100 157 275l35 161h-223z" />
    <glyph glyph-name="yen.lin" horiz-adv-x="1249" 
d="M164 528v90h366l-358 623l-131 53v66h514v-66l-154 -53l269 -528h8l278 510l-192 67v70h444v-66l-135 -61l-354 -610v-5h364v-90h-364v-153h364v-90h-364v-170l194 -47v-68h-577v68l196 47v170h-368v90h368v153h-368z" />
    <glyph glyph-name="florin.lin" horiz-adv-x="933" 
d="M840 1391q68 0 102 -33t35 -81q0 -48 -64 -128q-43 47 -64 68q-69 63 -128 63q-31 0 -57 -19q-108 -81 -218 -612h269l-21 -90h-266l-109 -528q-29 -139 -77 -247t-100 -166q-50 -58 -122 -104t-135 -46t-108 32t-45 84q0 27 15 58t36 45q129 -119 183 -119t86 73t65 234
l135 684h-176l12 90h182l17 78q55 279 214 471t339 193z" />
    <glyph glyph-name="zero.lin" horiz-adv-x="1349" 
d="M658 1305q-104 -1 -181 -95q-141 -171 -141 -507q0 -337 158 -544q84 -110 194 -110t186 94q142 176 142 502q0 168 -45 319t-127 246t-186 95zM674 1395q180 -1 307 -105q236 -194 238 -594q0 -334 -154 -534q-155 -200 -391 -199q-236 0 -390 194t-153 516t153 522
t390 200z" />
    <glyph glyph-name="one.lin" horiz-adv-x="884" 
d="M557 1397v-1280l231 -41v-76h-655v76l238 39v1063l-242 -64l-25 84l433 199h20z" />
    <glyph glyph-name="two.lin" horiz-adv-x="1034" 
d="M975 168v-168h-895v100l90 93q62 63 154 153t142 139q139 136 207 246t67 233q-1 124 -80 196t-174 73q-95 0 -167 -50t-151 -151l-66 45q178 317 441 318q178 -1 283 -101t109 -238t-76 -287q-29 -50 -103 -133q-161 -179 -291 -288l-195 -180h705z" />
    <glyph glyph-name="three.lin" horiz-adv-x="1015" 
d="M463 57q117 0 199 74t81 195q0 152 -132 236t-328 85v94q381 135 381 330q0 78 -54 127t-141 49q-135 0 -305 -160l-53 60q96 119 195 183t236 65q136 0 224 -78t88 -199t-95 -205q-88 -76 -229 -153v-6q156 -23 275 -118t119 -239q0 -176 -163 -303t-362 -127
q-131 0 -216 51t-85 132q0 50 35 78t86 32l146 -188q47 -15 98 -15z" />
    <glyph glyph-name="four.lin" horiz-adv-x="1185" 
d="M659 506v573l-426 -573h426zM846 506h280v-135h-280v-256l174 -49v-66h-535v68l174 47v256h-571v78l692 921l66 -16v-848z" />
    <glyph glyph-name="five.lin" horiz-adv-x="1024" 
d="M864 1180h-622v-361q113 53 233 53q207 0 334 -114t127 -312q0 -200 -170 -340t-371 -139q-127 0 -214 52t-87 131q0 50 35 78t86 32l147 -190q45 -10 87 -11q139 0 222 88q83 89 83 231t-89 237t-235 95t-262 -67h-14v717h710v-180z" />
    <glyph glyph-name="six.lin" horiz-adv-x="1200" 
d="M598 737q-135 0 -256 -86q-12 -74 -12 -151q0 -199 83 -325t240 -126q111 0 181 87q70 86 70 236t-86 258q-85 108 -220 107zM683 862q171 0 292 -118t121 -312q0 -147 -75 -258t-180 -163t-216 -52q-227 0 -362 143q-134 143 -134 371q0 176 58 329q59 153 149 256
t209 184q206 140 452 196l19 -72q-177 -61 -364 -204q-97 -74 -175 -184t-115 -237q150 121 321 121z" />
    <glyph glyph-name="seven.lin" horiz-adv-x="950" 
d="M41 1180v180h879v-27l-605 -1333h-170l605 1180h-709z" />
    <glyph glyph-name="eight.lin" horiz-adv-x="1099" 
d="M326 1089q0 -92 39 -148t118 -103l131 -82q166 150 166 325q0 111 -61 170t-161 59t-166 -64q-66 -65 -66 -157zM293 327q0 -101 75 -195q76 -94 202 -93q126 0 187 71q60 72 60 164t-65 164q-66 72 -199 154l-82 49q-100 -81 -139 -147t-39 -167zM98 315q0 50 18 100
t45 79q26 29 39 43t50 41q37 26 50 34t57 36t53 32l-25 16q-117 74 -175 154t-58 188q0 150 126 253t302 103t279 -80q103 -81 104 -214q0 -205 -277 -389h2q162 -99 235 -183t72 -192q0 -170 -132 -274t-324 -103q-192 0 -317 99q-124 99 -124 257z" />
    <glyph glyph-name="nine.lin" horiz-adv-x="1198" 
d="M602 618q134 0 248 84q14 86 14 154q0 209 -79 331t-238 122q-113 0 -185 -92t-72 -242q0 -149 90 -253q88 -104 222 -104zM98 924q0 147 75 258t180 163t216 52q225 0 361 -150t137 -373q0 -172 -56 -318q-55 -146 -143 -246t-206 -178q-205 -137 -457 -193l-19 71
q183 70 348 189q99 72 178 178t117 235q-135 -119 -288 -118q-190 0 -317 116q-126 117 -126 314z" />
    <glyph glyph-name="percent.lin" horiz-adv-x="1835" 
d="M1336 625q-83 0 -126 -82t-43 -198q-1 -116 49 -208t137 -92t130 82q43 83 43 201t-53 208q-54 89 -137 89zM1360 709q150 0 238 -108q88 -109 88 -265t-102 -266t-246 -109q-144 0 -237 98t-93 263t100 276q102 111 252 111zM672 1014q0 118 -54 208t-136 89
q-83 0 -126 -82t-43 -198t49 -208q48 -92 136 -92t131 82q43 83 43 201zM317 -102l1088 1566h127l-1088 -1566h-127zM154 1008q0 166 100 276t252 111q150 0 238 -108q88 -109 87 -265q0 -156 -101 -266q-102 -110 -246 -109q-144 0 -237 98q-93 97 -93 263z" />
    <glyph glyph-name="perthousand.lin" horiz-adv-x="2660" 
d="M2351 328q0 118 -53 208t-136 89q-83 0 -126 -82t-43 -198t49 -208t136 -92t130 82q43 83 43 201zM2184 709q150 0 239 -108q88 -109 88 -265q1 -156 -101 -266t-246 -109q-144 0 -238 98q-93 98 -93 263t100 276q101 111 251 111zM1336 625q-83 0 -126 -82t-43 -198
q-1 -116 49 -208t137 -92t130 82q43 83 43 201t-53 208q-54 89 -137 89zM1360 709q150 0 238 -108q88 -109 88 -265t-102 -266t-246 -109q-144 0 -237 98t-93 263t100 276q102 111 252 111zM672 1014q0 118 -54 208t-136 89q-83 0 -126 -82t-43 -198t49 -208q48 -92 136 -92
t131 82q43 83 43 201zM317 -102l1088 1566h127l-1088 -1566h-127zM154 1008q0 166 100 276t252 111q150 0 238 -108q88 -109 87 -265q0 -156 -101 -266q-102 -110 -246 -109q-144 0 -237 98q-93 97 -93 263z" />
    <glyph glyph-name="plus.lin" horiz-adv-x="1142" 
d="M1057 549h-422v-426h-127v426h-422v119h422v426h127v-426h422v-119z" />
    <glyph glyph-name="minus.lin" horiz-adv-x="1142" 
d="M1057 549h-971v119h971v-119z" />
    <glyph glyph-name="multiply.lin" horiz-adv-x="1142" 
d="M938 147l-375 377l-368 -377l-84 84l374 377l-374 375l88 88l372 -375l375 385l82 -84l-375 -383l375 -378z" />
    <glyph glyph-name="divide.lin" horiz-adv-x="1142" 
d="M571 1100q57 0 101 -42t43 -100t-43 -100q-42 -43 -100 -43t-100 43t-42 100q0 58 42 100t99 42zM569 115q-57 0 -99 43t-42 100t42 99t99 42t101 -42t43 -99q1 -57 -43 -100t-101 -43zM1057 549h-971v119h971v-119z" />
    <glyph glyph-name="equal.lin" horiz-adv-x="1142" 
d="M86 424v113h971v-113h-971zM86 723v113h971v-113h-971z" />
    <glyph glyph-name="less.lin" horiz-adv-x="1142" 
d="M1053 979l-820 -375l820 -368v-142l-967 451v121l967 450v-137z" />
    <glyph glyph-name="greater.lin" horiz-adv-x="1142" 
d="M88 231l819 375l-819 369v141l967 -450v-121l-967 -451v137z" />
    <glyph glyph-name="plusminus.lin" horiz-adv-x="1140" 
d="M1057 0h-971v119h971v-119zM1057 817h-422v-426h-127v426h-422v119h422v426h127v-426h422v-119z" />
    <glyph glyph-name="notequal.lin" horiz-adv-x="1142" 
d="M86 723v113h606l203 225h125l-205 -225h242v-113h-342l-168 -186h510v-113h-613l-202 -225h-119l201 225h-238v113h340l166 186h-506z" />
    <glyph glyph-name="approxequal.lin" horiz-adv-x="1142" 
d="M344 602q57 0 156 -22l135 -33q141 -33 185 -33t75 29t66 92l92 -37q-47 -100 -107 -149t-142 -49q-83 0 -206 30l-133 35q-94 25 -138 25t-76 -33q-32 -32 -67 -95l-92 37q94 203 252 203zM344 930q57 0 156 -23l135 -33q141 -32 185 -32t75 28t66 93l92 -37
q-47 -100 -107 -150t-142 -49q-83 0 -206 31l-133 35q-94 25 -138 25t-76 -33q-32 -32 -67 -95l-92 37q94 203 252 203z" />
    <glyph glyph-name="lessequal.lin" horiz-adv-x="1142" 
d="M1053 0h-967v119h967v-119zM1053 1061l-787 -293l787 -291v-137l-967 369v120l967 369v-137z" />
    <glyph glyph-name="greaterequal.lin" horiz-adv-x="1142" 
d="M1053 0h-967v119h967v-119zM872 768l-786 293v137l967 -369v-120l-967 -369v137z" />
    <glyph glyph-name="numbersign.lin" horiz-adv-x="1214" 
d="M489 866l-61 -356h301l62 356h-302zM168 866v119h225l56 313h118l-55 -313h301l55 313h119l-55 -313h217v-119h-240l-61 -356h211v-119h-234l-53 -309h-119l54 309h-301l-54 -309h-119l54 309h-209v119h231l62 356h-203z" />
    <glyph glyph-name="ordfeminine.lin" horiz-adv-x="874" 
d="M375 709q90 0 153 75v220l-153 -48q-129 -43 -129 -122q0 -57 38 -91t91 -34zM82 786q0 92 65 144q66 51 205 86l176 45v76q-2 88 -45 139t-109 51t-106 -27l-6 -161q-10 -10 -74 -11q-82 0 -82 76q0 63 102 130t230 67q130 -1 188 -61t58 -187v-416q0 -29 11 -39t46 -10
h82v-49q-100 -45 -166 -45q-121 0 -125 129h-12q-8 -7 -24 -23t-35 -34t-28 -23q-9 -6 -22 -16q-13 -9 -21 -13t-31 -14q-22 -10 -86 -10t-128 52q-63 52 -63 144z" />
    <glyph glyph-name="ordmasculine.lin" horiz-adv-x="929" 
d="M473 1401q175 1 281 -105t106 -287t-114 -305t-291 -124q-176 0 -281 114q-104 115 -104 287t114 296q115 124 289 124zM290 1236q-56 -86 -54 -226t65 -246t173 -104t166 88t54 234t-70 246q-70 97 -174 95t-160 -87z" />
    <glyph glyph-name="dollar.tab" 
d="M360 1008q0 -164 197 -215l31 -9v457q-100 -17 -164 -81t-64 -152zM899 319q0 191 -201 236l-26 6v-489q100 18 164 83q63 65 63 164zM588 -256v233h-2q-100 0 -216 29t-188 74l-26 340h77l113 -279q109 -74 242 -75v516l-105 26q-297 80 -297 334q0 135 110 246t292 135
v283h84v-277h2q90 -1 185 -25t151 -55l12 -317h-70l-104 260q-78 47 -176 53v-485l125 -33q293 -80 293 -324q0 -155 -128 -271t-290 -146v-242h-84z" />
    <glyph glyph-name="Euro.tab" 
d="M866 1237q111 0 207 -49t96 -122t-96 -140q-68 115 -140 164q-73 49 -187 49q-114 -1 -212 -105q-97 -104 -128 -274h512l-11 -90h-512v-45q0 -55 6 -109h484l-11 -90h-458q39 -166 145 -254t268 -88t289 111l41 -45q-154 -197 -394 -197t-378 131q-137 131 -170 342
h-172l10 90h152v41q0 57 6 113h-135l10 90h143q61 223 239 350t396 127z" />
    <glyph glyph-name="sterling.tab" 
d="M225 522v90h269l61 230q61 227 212 361t257 134q80 0 142 -54t63 -142q0 -35 -37 -62t-98 -32q-35 203 -133 202q-100 0 -197 -334l-82 -303h344v-90h-369l-6 -28q-80 -297 -297 -445q139 -51 240 -102l104 -53q44 -23 96 -50t105 -56t94 -28q94 0 66 273q143 0 143 -94
q0 -87 -84 -177t-223 -90q-227 0 -543 238l-106 80q-72 -29 -133 -29q-98 0 -99 78q0 35 30 55t74 20t165 -38q82 63 133 246l53 200h-244z" />
    <glyph glyph-name="yen.tab" 
d="M174 508v90h350l-346 586l-131 53v66h514v-66l-153 -53l258 -469h8l268 450l-192 68v70h444v-66l-135 -61l-346 -576v-2h352v-90h-352v-154h352v-90h-352v-149l198 -47v-68h-581v68l200 47v149h-356v90h356v154h-356z" />
    <glyph glyph-name="florin.tab" 
d="M1032 1237q68 0 103 -33t35 -81t-64 -128q-43 47 -65 67q-70 65 -128 64q-29 0 -51 -15q-65 -43 -120 -207q-34 -101 -70 -255h307l-21 -90h-307l-108 -528q-29 -139 -78 -247t-99 -166t-122 -104t-136 -46q-63 0 -108 32t-45 84q0 27 15 58t36 45q129 -119 183 -119
t86 73t65 234l135 684h-258l12 90h269q68 252 217 420q150 168 317 168z" />
    <glyph glyph-name="zero.tab" 
d="M611 -39q-217 1 -359 149t-141 380q0 232 149 398q150 165 368 165t354 -153t136 -383t-145 -393t-362 -163zM313 566q0 -152 32 -258t112 -183q81 -76 195 -76t189 114q75 115 75 323t-97 341q-96 133 -237 134q-117 0 -193 -121q-76 -122 -76 -274z" />
    <glyph glyph-name="one.tab" 
d="M752 1040v-921l288 -33v-86h-790v86l323 31v751h-307v86l477 86h9z" />
    <glyph glyph-name="two.tab" 
d="M1010 147v-147h-822v51l86 74q279 241 376 349q98 108 98 210t-58 162t-153 61q-141 0 -269 -145l-57 41q166 250 393 250q150 0 236 -82t86 -202q0 -119 -90 -235t-271 -272l-135 -115h580z" />
    <glyph glyph-name="three.tab" 
d="M403 -418q-88 0 -146 33t-58 92q0 66 88 90l151 -127q154 0 250 86t96 219t-122 222q-123 88 -304 75v86l88 45q279 141 279 332q0 80 -55 127t-148 47q-152 0 -248 -135l-57 41q66 104 167 171q102 67 236 67t213 -75t79 -175t-57 -178q-56 -78 -179 -170l-64 -47v-7
q148 -20 250 -114t103 -246q1 -183 -183 -321t-379 -138z" />
    <glyph glyph-name="four.tab" 
d="M686 150v620l-483 -620h483zM686 -399v430h-639v61l766 959h47v-901h285v-119h-285v-430h-174z" />
    <glyph glyph-name="five.tab" 
d="M340 -418q-70 0 -127 35t-57 103t88 92l155 -142q156 16 255 112q100 96 100 229q0 134 -100 261t-390 295l193 459h534v-170h-520l-63 -160q524 -240 524 -585q0 -213 -186 -371t-406 -158z" />
    <glyph glyph-name="six.tab" 
d="M587 715q-118 0 -210 -78q-29 -98 -29 -191q0 -182 82 -292t192 -111q110 0 176 82q66 81 66 239t-80 254t-197 97zM711 834q135 0 245 -104t111 -301q0 -198 -136 -334t-329 -136t-326 127t-133 360q0 330 279 595t686 380l20 -71q-242 -94 -438 -262t-282 -369
q131 115 303 115z" />
    <glyph glyph-name="seven.tab" 
d="M201 846v180h938v-18l-647 -1131l-158 -297l-144 60l768 1206h-757z" />
    <glyph glyph-name="eight.tab" 
d="M401 1106q0 -145 193 -279l98 -71q154 145 154 307q0 115 -65 183t-157 67q-92 1 -157 -59q-66 -60 -66 -148zM358 312q0 -99 69 -185t194 -86t191 63t67 155q0 92 -75 165t-194 162l-61 45q-103 -82 -147 -151t-44 -168zM172 309q0 103 75 187t242 180l-75 57
q-188 137 -189 309q0 144 124 248t292 104q167 0 275 -85q108 -86 108 -215q0 -199 -274 -383l38 -27q129 -92 198 -175t69 -183q0 -166 -130 -266t-316 -101q-185 0 -311 97t-126 253z" />
    <glyph glyph-name="nine.tab" 
d="M635 287q123 0 211 75q23 86 22 181q0 205 -81 313t-194 109q-113 0 -179 -82t-66 -240t82 -257t205 -99zM1077 561q0 -227 -130 -433t-336 -342t-461 -206l-17 70q225 96 415 253q189 157 271 369q-123 -109 -266 -108q-178 0 -290 118q-111 118 -111 300t123 324
q124 142 327 142t339 -129q136 -130 136 -358z" />
    <glyph glyph-name="cent.tab" 
d="M383 535q0 -138 54 -241t153 -153l67 762q-117 -16 -195 -123t-79 -245zM203 450q0 210 138 358t323 175l24 270h84l-24 -264q118 -4 198 -62t80 -143q0 -96 -104 -96l-64 6l-20 174q-61 31 -97 35l-69 -790q37 -7 87 -7t110 33t92 66l30 35l41 -27q-36 -90 -119 -160
q-39 -33 -107 -59t-147 -27l-18 -223h-84l18 229q-164 25 -268 146t-104 331z" />
    <glyph glyph-name="percent.tab" horiz-adv-x="1843" 
d="M1376 625q-80 0 -123 -82t-43 -198t48 -208t132 -92t127 82q42 83 42 201q1 118 -51 208t-132 89zM1398 709q142 0 224 -108q82 -109 82 -265t-95 -266t-231 -109q-136 0 -224 98q-87 98 -87 263t94 276q95 111 237 111zM449 1155q-80 0 -123 -82q-43 -81 -43 -197
t48 -208t132 -92t127 81q43 82 43 201t-52 208t-132 89zM377 -102l962 1392h121l-962 -1392h-121zM139 853q1 165 95 275t236 111t224 -107t82 -264t-94 -267q-94 -109 -231 -109t-225 98q-87 98 -87 263z" />
    <glyph glyph-name="perthousand.tab" horiz-adv-x="2457" 
d="M2044 625q-80 0 -123 -82t-43 -198t47 -208t131 -92t127 82q43 83 43 201t-51 208t-131 89zM2064 709q142 0 224 -108q82 -109 82 -265t-94 -266t-232 -109q-137 0 -223 98t-86 263t93 276q94 111 236 111zM1286 625q-80 0 -123 -82t-43 -198t48 -208t132 -92t126 82
q42 83 42 201t-51 208t-131 89zM1308 709q142 0 224 -108q82 -109 82 -265t-95 -266t-231 -109q-136 0 -224 98q-87 98 -87 263t94 276q95 111 237 111zM358 1155q-80 0 -122 -82q-42 -81 -43 -197q0 -116 48 -208t132 -92t126 81q42 82 42 201q1 119 -51 208t-132 89z
M287 -102l962 1392h121l-962 -1392h-121zM49 853q1 165 95 275t236 111t224 -107t82 -264t-95 -267q-95 -109 -231 -109t-224 98q-87 98 -87 263z" />
    <glyph glyph-name="plus.tab" 
d="M1100 426h-422v-426h-127v426h-422v119h422v426h127v-426h422v-119z" />
    <glyph glyph-name="minus.tab" 
d="M1100 426h-971v119h971v-119z" />
    <glyph glyph-name="multiply.tab" 
d="M985 25l-375 376l-368 -376l-84 84l374 376l-374 375l88 88l372 -375l375 385l82 -84l-375 -382l375 -379z" />
    <glyph glyph-name="divide.tab" 
d="M614 692q-57 0 -99 43t-42 101t42 99q42 42 99 42q56 0 100 -42t44 -99t-43 -101q-44 -43 -101 -43zM756 135q0 -57 -42 -100t-101 -43q-58 0 -100 43t-42 100t42 99t99 42q56 0 100 -42t44 -99zM1100 426h-971v119h971v-119z" />
    <glyph glyph-name="equal.tab" 
d="M129 301v113h971v-113h-971zM129 600v113h971v-113h-971z" />
    <glyph glyph-name="less.tab" 
d="M1096 856l-820 -375l820 -368v-142l-967 451v121l967 450v-137z" />
    <glyph glyph-name="greater.tab" 
d="M131 109l819 374l-819 369v141l967 -450v-121l-967 -451v138z" />
    <glyph glyph-name="plusminus.tab" 
d="M1100 0h-971v119h971v-119zM1100 692h-422v-426h-127v426h-422v119h422v426h127v-426h422v-119z" />
    <glyph glyph-name="notequal.tab" 
d="M129 600v113h606l203 225h125l-205 -225h242v-113h-342l-168 -186h510v-113h-613l-202 -225h-119l201 225h-238v113h340l166 186h-506z" />
    <glyph glyph-name="approxequal.tab" 
d="M387 479q57 0 156 -22l135 -33q141 -33 185 -33t75 29t66 92l92 -37q-46 -100 -106 -149q-60 -50 -143 -50t-206 31l-133 35q-94 25 -138 25t-76 -32t-67 -95l-92 36q94 203 252 203zM387 807q57 0 156 -23l135 -32q141 -33 185 -33t75 29t66 92l92 -37
q-46 -99 -106 -149t-143 -50t-206 31l-133 35q-94 24 -138 24t-76 -32t-67 -95l-92 37q94 203 252 203z" />
    <glyph glyph-name="lessequal.tab" 
d="M1096 0h-967v119h967v-119zM1096 938l-787 -293l787 -291v-137l-967 369v121l967 368v-137z" />
    <glyph glyph-name="greaterequal.tab" 
d="M1096 0h-967v119h967v-119zM915 645l-786 293v137l967 -368v-121l-967 -369v137z" />
    <glyph glyph-name="parenleft.tab" horiz-adv-x="614" 
d="M195 561q0 516 401 938h111q-176 -225 -257 -441t-81 -494q1 -278 79 -494t250 -439h-112q-391 414 -391 930z" />
    <glyph glyph-name="parenright.tab" horiz-adv-x="614" 
d="M420 569q0 -516 -402 -938h-110q176 225 257 441t81 494t-79 494t-251 439h113q391 -414 391 -930z" />
    <glyph glyph-name="bracketleft.tab" horiz-adv-x="614" 
d="M588 -371h-373v1872h373v-80h-205v-1712h205v-80z" />
    <glyph glyph-name="bracketright.tab" horiz-adv-x="614" 
d="M27 1501h372v-1872h-372v80h204v1712h-204v80z" />
    <glyph glyph-name="braceleft.tab" horiz-adv-x="614" 
d="M662 -305v-66h-31q-207 0 -282 86t-73 273l3 356q0 80 -39 125t-105 47l-78 2v94l78 2q66 2 105 48t39 124l-3 357q-2 186 73 272t282 86h31v-65q-117 0 -157 -52t-48 -221l-21 -360q-6 -97 -46 -149t-128 -87v-4q88 -35 128 -86t46 -149l21 -361q8 -170 48 -221t157 -51
z" />
    <glyph glyph-name="braceright.tab" horiz-adv-x="614" 
d="M-37 1501h31q208 0 282 -86t72 -272l-2 -357q0 -80 39 -124t104 -48l78 -2v-94l-78 -2q-67 -2 -105 -47t-38 -125l2 -356q2 -186 -73 -272t-281 -87h-31v66q117 0 157 51t48 221l20 361q6 98 46 149t128 86v4q-88 35 -128 86t-46 150l-20 360q-8 170 -48 221t-157 52v65z
" />
    <glyph glyph-name="numbersign.tab" 
d="M498 784l-62 -356h301l62 356h-301zM176 784v119h225l56 314h118l-55 -314h301l56 314h118l-55 -314h217v-119h-239l-62 -356h211v-119h-233l-54 -309h-118l53 309h-301l-54 -309h-118l53 309h-209v119h231l62 356h-203z" />
    <glyph glyph-name="period.tab" horiz-adv-x="614" 
d="M449 135q-1 -57 -43 -100t-100 -43t-100 43t-42 100t42 99t99 42t101 -42t43 -99z" />
    <glyph glyph-name="comma.tab" horiz-adv-x="614" 
d="M301 -72q0 160 -154 197q-16 72 14 130q29 58 105 58q76 -1 132 -65t56 -196t-82 -266q-83 -134 -214 -204q-35 43 -39 51q90 61 136 141t46 154z" />
    <glyph glyph-name="colon.tab" horiz-adv-x="614" 
d="M308 690q-58 0 -100 42t-42 100t43 101q43 42 100 42t99 -42t43 -99q0 -57 -42 -101q-43 -43 -101 -43zM303 -8q-57 0 -99 43t-42 100t42 99t99 42t100 -42t43 -99t-43 -100t-100 -43z" />
    <glyph glyph-name="semicolon.tab" horiz-adv-x="614" 
d="M326 -72q0 160 -154 197q-16 72 13 130q30 58 106 58q76 -1 132 -65t56 -196t-83 -266t-214 -204q-35 43 -39 51q91 61 137 141t46 154zM328 690q-57 0 -101 42q-43 42 -43 100t43 101q43 42 101 42t99 -42q42 -42 42 -99q0 -56 -42 -100t-99 -44z" />
    <glyph glyph-name="space.tab" horiz-adv-x="614" 
 />
    <glyph glyph-name="dollar.lintab" 
d="M352 1042q0 -174 193 -225l30 -8v467q-99 -16 -161 -80t-62 -154zM684 582l-25 6v-502q100 18 163 85q62 67 63 169q0 193 -201 242zM575 -256v246h-2q-100 0 -216 30t-187 74l-27 346h78l113 -282q104 -76 241 -78v528l-110 29q-301 76 -301 336q0 154 116 258t295 129
v246h84v-240h3q90 0 186 -26t149 -56l13 -323h-70l-104 266q-78 47 -177 53v-496l132 -34q297 -84 296 -332q0 -160 -130 -276t-298 -144v-254h-84z" />
    <glyph glyph-name="Euro.lintab" 
d="M870 1397q111 -1 206 -55t95 -136t-104 -147q-127 227 -293 227q-122 0 -230 -128t-138 -327h468l-12 -90h-467v-47q0 -68 6 -127h441l-13 -90h-415q39 -203 144 -295t243 -92q186 0 317 125l43 -51q-156 -211 -394 -211t-381 139q-142 139 -175 385h-139l10 90h121v51
q0 68 8 123h-107l11 90h112q61 250 243 408t400 158z" />
    <glyph glyph-name="sterling.lintab" 
d="M1178 -45q0 -92 -82 -187q-82 -96 -216 -96t-262 62q-127 62 -290 176l-123 86q-76 -35 -127 -35q-98 0 -98 84q0 37 30 59t81 23q50 0 161 -39q117 98 147 283l27 161h-236v91h250l58 340q46 273 177 401q131 129 255 129q84 0 156 -57t71 -138q0 -88 -143 -116
q-47 223 -154 223q-47 0 -84 -70t-69 -264l-76 -448h360v-91h-375q-43 -299 -290 -473q98 -39 233 -106l55 -29q182 -98 246 -127t96 -28q95 0 78 196q-4 45 -14 84q158 10 158 -94z" />
    <glyph glyph-name="yen.lintab" 
d="M154 528v90h366l-358 623l-131 53v66h514v-66l-154 -53l268 -528h9l278 510l-192 67v70h444v-66l-135 -61l-354 -610v-5h364v-90h-364v-153h364v-90h-364v-170l194 -47v-68h-577v68l196 47v170h-368v90h368v153h-368z" />
    <glyph glyph-name="florin.lintab" 
d="M1016 1391q68 0 102 -33t35 -81q0 -48 -63 -128q-43 47 -65 67q-68 64 -128 64q-31 0 -57 -19q-72 -53 -134 -271q-40 -134 -83 -341h319l-20 -90h-318l-108 -528q-29 -139 -78 -247q-50 -108 -100 -166t-122 -104t-135 -46t-108 32t-45 84q0 27 15 58t36 45
q129 -119 183 -119t86 73t65 234l135 684h-278l12 90h284l17 78q55 279 214 471t339 193z" />
    <glyph glyph-name="zero.lintab" 
d="M612 1395q164 -1 286 -101q237 -195 239 -598q1 -336 -147 -534t-376 -199q-228 0 -376 193t-148 516t146 523t376 200zM934 654q0 278 -97 466t-235 188t-222 -161q-85 -161 -85 -441t94 -466q93 -186 235 -186t226 161t84 439z" />
    <glyph glyph-name="one.lintab" 
d="M748 1397v-1272l333 -37v-88h-860v88l340 35v1067l-338 -27l-14 82l518 152h21z" />
    <glyph glyph-name="two.lintab" 
d="M1036 168v-168h-895v100l90 93q61 63 153 153t143 139q139 136 207 245q67 109 67 233q0 125 -79 197t-174 73q-95 0 -167 -50t-152 -151l-65 45q178 317 440 318q178 -1 284 -101t109 -239q4 -139 -76 -286q-28 -50 -103 -133q-163 -181 -292 -288l-194 -180h704z" />
    <glyph glyph-name="three.lintab" 
d="M557 57q117 0 199 74t82 195q0 152 -132 236t-329 85v94q381 135 381 330q0 78 -53 127t-142 49q-135 0 -305 -160l-53 60q96 119 195 183q98 64 236 65q138 0 225 -78t87 -199t-95 -205q-71 -62 -145 -104q-73 -43 -83 -49v-6q157 -23 275 -118t118 -239
q0 -176 -163 -303t-361 -127q-131 0 -216 51t-85 132q1 50 35 78t85 32l146 -188q47 -15 98 -15z" />
    <glyph glyph-name="four.lintab" 
d="M657 506v577l-428 -577h428zM840 506h280v-135h-280v-256l174 -49v-66h-531v68l174 47v256h-575v78l692 921l66 -16v-848z" />
    <glyph glyph-name="five.lintab" 
d="M952 1180h-602v-361q113 53 213 53q207 0 334 -114t127 -314t-161 -338t-359 -139q-127 0 -214 52t-87 131q0 50 35 78t86 32l147 -190q45 -10 86 -11q137 0 211 86q74 87 74 231t-89 239t-247 96q-113 0 -230 -68h-14v717h690v-180z" />
    <glyph glyph-name="six.lintab" 
d="M662 49q110 0 178 88q68 89 68 237t-85 256q-84 108 -214 107q-130 0 -242 -86q-12 -70 -13 -151q0 -197 82 -324t226 -127zM692 862q168 0 288 -118t120 -322t-146 -334q-146 -129 -319 -129q-223 0 -352 144t-129 370q0 176 56 328t143 254t203 182q199 137 445 193
l19 -72q-180 -63 -356 -200q-94 -72 -168 -182t-111 -237q139 123 307 123z" />
    <glyph glyph-name="seven.lintab" 
d="M207 1180v180h878v-27l-604 -1333h-170l604 1180h-708z" />
    <glyph glyph-name="eight.lintab" 
d="M395 1089q0 -92 39 -148t119 -103l131 -82q166 150 166 325q0 111 -62 170t-161 59q-100 0 -166 -64q-66 -65 -66 -157zM362 327q0 -101 75 -195t202 -93q127 0 187 71q60 72 60 164t-64 164q-66 72 -199 154l-82 49q-99 -81 -139 -147t-40 -167zM168 315q0 108 62 179
q26 29 39 43t50 41q37 26 51 34t57 36q44 28 52 32l-24 16q-117 74 -175 154t-59 188q0 150 126 253q127 103 303 103t279 -80q103 -81 103 -214q0 -205 -276 -389h2q162 -99 234 -183t73 -192q0 -170 -132 -274q-133 -104 -325 -103q-192 0 -316 99t-124 257z" />
    <glyph glyph-name="nine.lintab" 
d="M643 618q104 0 227 87q12 72 13 151q0 201 -80 327t-223 126q-109 0 -180 -92q-70 -92 -70 -242q0 -149 87 -253t226 -104zM137 934q1 207 147 335t320 128q213 0 347 -151t134 -372q0 -172 -54 -317t-138 -243t-200 -177q-199 -134 -449 -190l-19 71q135 50 243 119
q108 70 172 131q64 60 122 152q57 92 88 196q-76 -68 -138 -96t-147 -26q-180 0 -304 116t-124 324z" />
    <glyph glyph-name="percent.lintab" horiz-adv-x="1843" 
d="M1325 625q-80 0 -123 -82t-43 -198t48 -208q49 -92 133 -92t126 82q42 83 41 201q0 118 -51 208t-131 89zM1346 709q142 0 227 -108q84 -109 84 -265t-96 -266q-97 -110 -235 -109q-138 0 -226 98t-88 263t96 276t238 111zM500 1311q-80 0 -123 -82t-43 -198t48 -208
t132 -92t127 82q43 83 43 201t-52 208t-132 89zM322 -102l1087 1566h125l-1088 -1566h-124zM186 1008q0 166 96 276t240 111q142 0 226 -108q84 -109 84 -265t-97 -266q-96 -110 -234 -109q-138 0 -227 98q-88 97 -88 263z" />
    <glyph glyph-name="perthousand.lintab" horiz-adv-x="2457" 
d="M2200 328q0 118 -52 208t-130 89q-79 0 -121 -82t-42 -198q-1 -116 47 -208t132 -92t125 82q41 83 41 201zM2042 709q142 0 224 -108q82 -109 83 -265q0 -156 -96 -266q-97 -110 -233 -109q-136 0 -224 98t-88 263t95 276q97 111 239 111zM1256 45q84 0 124 82
q40 83 41 201q0 118 -51 208t-130 89q-79 0 -121 -82t-42 -198t47 -208q48 -92 132 -92zM1262 709q142 0 226 -108q83 -109 83 -265t-96 -266q-97 -110 -233 -109q-136 0 -224 98t-88 263t95 276t237 111zM420 1311q-80 0 -122 -82t-42 -198t47 -208t131 -92t126 82
q42 83 42 201t-51 208t-131 89zM240 -102l1087 1566h125l-1087 -1566h-125zM109 1008q0 166 95 276q96 110 238 111q142 0 225 -108q83 -109 83 -265t-96 -266t-232 -109q-137 0 -225 98q-88 97 -88 263z" />
    <glyph glyph-name="numbersign.lintab" 
d="M475 866l-61 -356h301l61 356h-301zM154 866v119h225l55 313h119l-55 -313h301l55 313h119l-55 -313h217v-119h-240l-61 -356h210v-119h-233l-53 -309h-119l53 309h-301l-53 -309h-119l53 309h-209v119h232l61 356h-202z" />
    <glyph glyph-name="plus.lintab" 
d="M1100 569h-422v-426h-127v426h-422v119h422v426h127v-426h422v-119z" />
    <glyph glyph-name="minus.lintab" 
d="M1100 569h-971v119h971v-119z" />
    <glyph glyph-name="multiply.lintab" 
d="M985 168l-375 377l-368 -377l-84 84l374 377l-374 375l88 88l372 -375l375 385l82 -84l-375 -383l375 -379z" />
    <glyph glyph-name="divide.lintab" 
d="M614 836q-57 0 -99 43t-42 100t42 99t99 42q56 0 100 -42t44 -99t-44 -100t-100 -43zM613 135q-58 0 -100 43q-42 42 -42 100t42 100t99 42q56 0 100 -42t44 -99t-42 -101q-43 -43 -101 -43zM1100 569h-971v119h971v-119z" />
    <glyph glyph-name="equal.lintab" 
d="M129 444v113h971v-113h-971zM129 743v113h971v-113h-971z" />
    <glyph glyph-name="less.lintab" 
d="M1096 999l-820 -374l820 -369v-141l-967 450v121l967 451v-138z" />
    <glyph glyph-name="greater.lintab" 
d="M131 252l819 375l-819 368v142l967 -451v-121l-967 -450v137z" />
    <glyph glyph-name="plusminus.lintab" 
d="M1100 0h-971v119h971v-119zM1100 817h-422v-426h-127v426h-422v119h422v426h127v-426h422v-119z" />
    <glyph glyph-name="notequal.lintab" 
d="M129 743v113h606l203 225h125l-205 -225h242v-113h-342l-168 -186h510v-113h-613l-202 -225h-119l201 225h-238v113h340l166 186h-506z" />
    <glyph glyph-name="approxequal.lintab" 
d="M387 623q57 0 156 -23l135 -33q141 -33 185 -33t75 30q31 28 66 91l92 -37q-46 -100 -106 -149t-143 -49t-206 31l-133 34q-94 25 -138 25t-76 -32t-67 -95l-92 37q94 203 252 203zM863 862q44 0 75 29t66 92l92 -37q-46 -100 -106 -149t-143 -49t-206 30l-133 35
q-94 25 -138 25t-76 -32t-67 -95l-92 37q94 203 252 202q57 0 156 -22l135 -33q141 -33 185 -33z" />
    <glyph glyph-name="lessequal.lintab" 
d="M1096 0h-967v119h967v-119zM1096 1061l-787 -293l787 -291v-137l-967 369v120l967 369v-137z" />
    <glyph glyph-name="greaterequal.lintab" 
d="M1096 0h-967v119h967v-119zM915 768l-786 293v137l967 -369v-120l-967 -369v137z" />
    <glyph glyph-name="parenleft.uctab" horiz-adv-x="614" 
d="M184 643q0 516 402 938h110q-176 -225 -257 -441t-81 -494t79 -494t251 -439h-113q-391 414 -391 930z" />
    <glyph glyph-name="parenright.uctab" horiz-adv-x="614" 
d="M430 651q0 -516 -401 -938h-111q176 225 257 441t81 494t-79 494t-251 439h113q391 -414 391 -930z" />
    <glyph glyph-name="bracketleft.uctab" horiz-adv-x="614" 
d="M573 -289h-372v1872h372v-80h-204v-1712h204v-80z" />
    <glyph glyph-name="bracketright.uctab" horiz-adv-x="614" 
d="M31 1583h372v-1872h-372v80h205v1712h-205v80z" />
    <glyph glyph-name="braceleft.uctab" horiz-adv-x="614" 
d="M645 -223v-66h-31q-208 0 -282 86t-72 273l2 356q0 80 -39 125t-104 47l-78 2v94l78 2q67 2 105 47t38 125l-2 357q-2 186 73 272t281 86h31v-65q-117 0 -157 -52t-48 -221l-20 -360q-6 -97 -46 -149t-128 -87v-4q88 -35 128 -86t46 -149l20 -361q8 -170 48 -221t157 -51
z" />
    <glyph glyph-name="braceright.uctab" horiz-adv-x="614" 
d="M-31 1583h31q207 0 282 -86t72 -272l-2 -357q0 -80 39 -125t105 -47l77 -2v-94l-77 -2q-66 -2 -105 -47t-39 -125l2 -356q2 -186 -72 -273q-75 -86 -282 -86h-31v66q117 0 157 51t48 221l21 361q6 98 46 149t128 86v4q-88 35 -128 86t-46 150l-21 360q-8 170 -48 221
t-157 52v65z" />
    <glyph glyph-name="zero.num" horiz-adv-x="1044" 
d="M100 954q0 180 121 306t309 126t302 -128q112 -128 112 -304t-122 -300q-122 -126 -302 -126t-300 123t-120 303zM508 1307q-110 -1 -164 -93q-55 -92 -57 -228q-1 -136 67 -255t182 -121t167 84q54 86 55 211q4 170 -68 286t-182 116z" />
    <glyph glyph-name="one.num" horiz-adv-x="722" 
d="M469 1366v-711l205 -20v-70h-590v70l213 22v555h-225v62l385 92h12z" />
    <glyph glyph-name="two.num" horiz-adv-x="784" 
d="M59 565v66l93 78q232 197 290 262t58 131t-46 111q-46 44 -114 44q-115 0 -225 -120l-52 49q72 96 149 148q78 52 190 52t186 -60t76 -169q0 -55 -14 -85t-24 -47q-9 -17 -33 -42t-37 -39t-54 -50q-41 -34 -97 -78l-75 -60l-74 -60h459v-131h-656z" />
    <glyph glyph-name="three.num" horiz-adv-x="811" 
d="M354 528q-146 0 -213 42q-68 42 -67 102q0 78 98 92l100 -139q47 -15 120 -15t128 39t55 118t-77 125q-78 46 -228 38v67l35 11q217 63 217 180q0 42 -34 66t-100 24t-122 -30q-55 -30 -121 -89l-47 47q162 180 359 180q106 0 174 -44q67 -44 67 -111t-62 -121t-151 -88
v-6q133 -14 198 -72t65 -133q0 -117 -124 -200t-270 -83z" />
    <glyph glyph-name="four.num" horiz-adv-x="843" 
d="M442 858v305l-272 -305h272zM31 754v47l510 571l61 -4v-510h203v-104h-203v-189h-160v189h-411z" />
    <glyph glyph-name="five.num" horiz-adv-x="817" 
d="M723 823q-1 -131 -125 -213t-256 -82t-197 38q-66 38 -65 104q0 38 31 62t73 28l103 -133q29 -16 78 -17q102 0 157 45q56 45 56 124t-65 124t-175 45t-186 -51h-23v465h547v-133h-461v-180q80 35 204 35t214 -66q90 -64 90 -195z" />
    <glyph glyph-name="six.num" horiz-adv-x="905" 
d="M469 606q88 0 130 52t42 142t-50 147q-50 59 -137 59t-173 -60q-4 -49 -5 -76q0 -116 52 -190t141 -74zM442 528q-154 0 -247 98q-95 98 -95 244q-1 265 214 395q191 114 419 142l21 -68q-117 -31 -196 -63t-156 -100t-105 -162q98 74 224 74t210 -72q84 -70 84 -192
t-109 -210q-110 -86 -264 -86z" />
    <glyph glyph-name="seven.num" horiz-adv-x="749" 
d="M82 1221v141h647v-25l-444 -772h-152l442 656h-493z" />
    <glyph glyph-name="eight.num" horiz-adv-x="868" 
d="M590 1178q0 63 -40 102t-112 39t-112 -35t-39 -81q-1 -46 31 -78t128 -72l56 -25q88 57 88 150zM252 762q0 -76 56 -120t141 -44q86 0 132 38t46 90t-38 85t-149 80l-82 35q-106 -61 -106 -164zM774 784q0 -108 -99 -182t-247 -74t-244 58q-94 58 -94 140q0 83 50 130
t157 94v4q-162 74 -162 197q0 104 89 170q90 65 230 65t215 -55t74 -135q0 -113 -180 -190v-5q119 -47 165 -93t46 -124z" />
    <glyph glyph-name="nine.num" horiz-adv-x="905" 
d="M436 1309q-88 -1 -130 -53t-42 -140t47 -144t127 -57q115 0 187 54q4 45 4 69q0 123 -52 197q-53 74 -141 74zM464 1386q154 0 247 -100q94 -100 94 -268q0 -125 -57 -221q-56 -97 -156 -153q-192 -109 -440 -136l-21 67q201 47 320 116t159 210q-98 -74 -225 -74
t-211 71q-84 72 -84 194t110 208t264 86z" />
    <glyph glyph-name="zero.den" horiz-adv-x="1044" 
d="M520 -37q-180 0 -300 123t-120 303t121 306t309 126t302 -128q112 -128 112 -304t-122 -301t-302 -125zM344 649q-55 -93 -57 -229q-1 -136 67 -254t182 -121q114 -2 167 84q54 86 55 211q4 170 -68 286t-182 116t-164 -93z" />
    <glyph glyph-name="one.den" horiz-adv-x="722" 
d="M469 801v-711l205 -20v-70h-590v70l213 22v555h-225v62l385 92h12z" />
    <glyph glyph-name="two.den" horiz-adv-x="784" 
d="M59 0v66l93 77q232 197 290 263t58 132t-46 110t-114 44q-115 0 -225 -121l-52 50q72 96 149 148q78 52 190 52t186 -60t76 -169q0 -56 -14 -86t-24 -46q-9 -17 -33 -42t-37 -39q-13 -13 -54 -49q-41 -35 -97 -79q-55 -44 -75 -61l-74 -59h459v-131h-656z" />
    <glyph glyph-name="three.den" horiz-adv-x="811" 
d="M354 -37q-146 0 -213 42q-68 42 -67 101q0 78 98 93l100 -140q47 -14 120 -14t128 39t55 118t-77 125q-78 46 -228 38v67l35 10q217 63 217 181q0 41 -34 65t-100 25q-66 0 -122 -30q-55 -30 -121 -89l-47 47q162 180 359 180q106 0 174 -44q67 -43 67 -111t-62 -122
t-151 -87v-6q133 -15 198 -73t65 -132q0 -117 -124 -200t-270 -83z" />
    <glyph glyph-name="four.den" horiz-adv-x="843" 
d="M442 293v305l-272 -305h272zM31 188v48l510 571l61 -4v-510h203v-105h-203v-188h-160v188h-411z" />
    <glyph glyph-name="five.den" horiz-adv-x="817" 
d="M419 518q124 0 214 -64t90 -196q-1 -131 -125 -213t-256 -82t-197 38q-66 38 -65 103q0 39 31 63t73 28l103 -134q29 -16 78 -16q102 0 157 45q56 45 56 124t-65 124t-175 45t-186 -51h-23v465h547v-133h-461v-181q80 35 204 35z" />
    <glyph glyph-name="six.den" horiz-adv-x="905" 
d="M469 41q88 0 130 52t42 141q0 90 -50 148t-137 58t-173 -59q-4 -49 -5 -76q0 -117 52 -191t141 -73zM815 258q1 -123 -109 -209t-264 -86t-247 98q-94 98 -95 265q0 123 58 219t156 154q193 116 419 143l21 -68q-117 -30 -196 -62t-156 -101t-105 -162q98 73 224 73
t210 -70t84 -194z" />
    <glyph glyph-name="seven.den" horiz-adv-x="811" 
d="M143 655v142h648v-25l-445 -772h-151l442 655h-494z" />
    <glyph glyph-name="eight.den" horiz-adv-x="868" 
d="M590 612q0 62 -40 102t-112 40t-112 -35t-39 -81q-1 -46 31 -78t128 -73l56 -24q88 57 88 149zM252 197q0 -76 56 -120t141 -44q86 0 132 38t46 90t-38 85t-149 80l-82 34q-106 -61 -106 -163zM774 219q0 -109 -99 -183t-247 -73q-148 0 -244 57q-94 56 -94 140t50 131
t157 94v4q-162 74 -162 197q0 104 89 170q90 66 230 66t215 -56q75 -55 74 -135q0 -113 -180 -191v-4q119 -47 165 -93t46 -124z" />
    <glyph glyph-name="nine.den" horiz-adv-x="905" 
d="M436 743q-88 0 -130 -52t-42 -140t47 -144t127 -57q115 0 187 53q4 45 4 70q0 123 -52 197q-53 73 -141 73zM464 821q154 0 247 -100q94 -100 94 -268q0 -125 -57 -221q-56 -96 -156 -153q-193 -109 -440 -136l-21 67q201 47 320 116t159 210q-98 -74 -225 -74t-211 71
t-84 193t110 209q110 86 264 86z" />
    <glyph glyph-name="zero.sub" horiz-adv-x="1044" 
d="M520 -303q-180 0 -300 123t-120 303t121 306t309 126t302 -128q112 -128 112 -304t-122 -301t-302 -125zM508 475q-110 0 -164 -92q-55 -93 -57 -229q-1 -136 67 -254t182 -121q114 -2 167 84q54 86 55 211q4 170 -68 286t-182 115z" />
    <glyph glyph-name="one.sub" horiz-adv-x="722" 
d="M469 535v-711l205 -21v-69h-590v69l213 23v555h-225v61l385 93h12z" />
    <glyph glyph-name="two.sub" horiz-adv-x="784" 
d="M59 -266v65l93 78q232 197 290 263t58 131q0 67 -46 111t-114 44q-115 0 -225 -121l-52 49q72 96 149 148q78 52 190 53q112 0 186 -60t76 -169q0 -55 -14 -86q-14 -30 -24 -46q-9 -16 -33 -42q-24 -25 -37 -39q-30 -32 -226 -189l-74 -59h459v-131h-656z" />
    <glyph glyph-name="three.sub" horiz-adv-x="811" 
d="M354 -303q-146 0 -213 42q-68 42 -67 101q0 78 98 92l100 -139q47 -14 120 -14t128 39q55 40 55 118t-77 124q-78 46 -228 38v68l35 10q217 63 217 180q0 41 -34 66q-34 24 -100 24t-122 -30q-55 -30 -121 -88l-47 47q162 180 359 180q106 0 174 -44q67 -43 67 -111
t-62 -122t-151 -88v-6q133 -14 198 -72t65 -132q0 -117 -124 -200t-270 -83z" />
    <glyph glyph-name="four.sub" horiz-adv-x="843" 
d="M442 27v305l-272 -305h272zM31 -78v47l510 572l61 -4v-510h203v-105h-203v-188h-160v188h-411z" />
    <glyph glyph-name="five.sub" horiz-adv-x="817" 
d="M723 -8q-1 -130 -125 -213q-124 -82 -256 -82t-197 38q-66 38 -65 103q0 39 31 63t73 27l103 -133q29 -16 78 -16q102 0 157 45q56 45 56 124t-65 124t-175 45t-186 -51h-23v464h547v-133h-461v-180q80 35 204 35t214 -65t90 -195z" />
    <glyph glyph-name="six.sub" horiz-adv-x="905" 
d="M469 -225q88 0 130 52t42 141q0 90 -50 148t-137 58t-173 -59q-4 -49 -5 -76q0 -117 52 -191t141 -73zM815 -8q1 -122 -109 -209q-110 -86 -264 -86t-247 98q-95 99 -95 243q-1 267 214 395q191 114 419 142l21 -67q-117 -31 -196 -63q-79 -33 -156 -101t-105 -162
q98 74 224 74t210 -71t84 -193z" />
    <glyph glyph-name="seven.sub" horiz-adv-x="811" 
d="M143 389v141h648v-24l-445 -772h-151l442 655h-494z" />
    <glyph glyph-name="eight.sub" horiz-adv-x="868" 
d="M590 346q0 62 -40 102t-112 40t-112 -36q-40 -34 -39 -80q-1 -46 31 -78t128 -73l56 -24q88 57 88 149zM252 -70q0 -76 56 -120t141 -43q86 -1 132 37t46 90t-38 86q-38 33 -149 79l-82 35q-106 -61 -106 -164zM774 -47q0 -109 -99 -183t-247 -73q-148 0 -244 57
q-94 56 -94 140t50 131t157 94v4q-162 74 -162 196q0 104 89 170q90 66 230 66t215 -55t74 -135q0 -113 -180 -191v-4q119 -47 165 -93t46 -124z" />
    <glyph glyph-name="nine.sub" horiz-adv-x="905" 
d="M629 207q-1 123 -53 197t-140 73q-88 0 -130 -52t-42 -140q0 -89 47 -145t145 -56t169 53q4 45 4 70zM464 555q154 0 247 -100q94 -100 94 -269q0 -125 -57 -221q-56 -96 -156 -152q-191 -108 -440 -137l-21 68q129 32 212 62t161 98t106 166q-98 -74 -225 -74t-211 71
t-84 193t110 209q110 86 264 86z" />
    <glyph glyph-name="plus.sub" horiz-adv-x="905" 
d="M393 -219v313h-309v111h309v313h119v-313h309v-111h-309v-313h-119z" />
    <glyph glyph-name="minus.sub" horiz-adv-x="905" 
d="M821 94h-737v111h737v-111z" />
    <glyph glyph-name="zero.sup" horiz-adv-x="1044" 
d="M520 598q-180 0 -300 123t-120 303t121 306t309 126t302 -128q112 -128 112 -304t-122 -301t-302 -125zM344 1284q-55 -92 -57 -228q-1 -136 67 -256q68 -118 182 -120t167 84q54 86 55 211q4 170 -68 286q-72 115 -182 115t-164 -92z" />
    <glyph glyph-name="one.sup" horiz-adv-x="722" 
d="M469 1436v-711l205 -20v-70h-590v70l213 22v555h-225v61l385 93h12z" />
    <glyph glyph-name="two.sup" horiz-adv-x="784" 
d="M59 635v65l93 78q232 196 290 262t58 132t-46 111q-46 44 -114 44q-115 0 -225 -121l-52 49q72 97 149 149q78 52 190 52t186 -60t76 -169q0 -55 -14 -85t-24 -47q-9 -17 -33 -42t-37 -39t-54 -50q-41 -34 -97 -78q-55 -44 -75 -61l-74 -59h459v-131h-656z" />
    <glyph glyph-name="three.sup" horiz-adv-x="811" 
d="M354 598q-146 0 -213 42q-68 42 -67 101q0 78 98 93l100 -140q47 -14 120 -14t128 39t55 118t-77 125q-78 46 -228 37v68l35 10q217 63 217 180q0 41 -34 66t-100 25t-122 -30q-55 -30 -121 -89l-47 47q162 180 359 180q106 0 174 -44q67 -44 67 -112t-62 -121
q-62 -54 -151 -87v-7q133 -14 198 -72t65 -132q0 -117 -124 -200t-270 -83z" />
    <glyph glyph-name="four.sup" horiz-adv-x="843" 
d="M442 928v305l-272 -305h272zM31 823v47l510 572l61 -4v-510h203v-105h-203v-188h-160v188h-411z" />
    <glyph glyph-name="five.sup" horiz-adv-x="817" 
d="M419 1153q124 -1 214 -65t90 -195q-1 -131 -125 -213t-256 -82t-197 38q-66 38 -65 103q0 39 31 63t73 27l103 -133q29 -16 78 -16q102 0 157 45q56 45 56 124t-65 124t-175 45t-186 -51h-23v465h547v-134h-461v-180q80 35 204 35z" />
    <glyph glyph-name="six.sup" horiz-adv-x="905" 
d="M469 676q88 0 130 52t42 141t-50 147t-137 59q-87 0 -173 -59q-4 -49 -5 -76q0 -116 52 -190t141 -74zM815 892q1 -122 -109 -208t-264 -86t-247 98q-94 98 -95 265q0 326 415 466q103 35 218 50l21 -68q-117 -31 -196 -63t-156 -100q-77 -69 -105 -163q98 74 224 74
t210 -71q84 -72 84 -194z" />
    <glyph glyph-name="seven.sup" horiz-adv-x="749" 
d="M82 1290v142h647v-25l-444 -772h-152l442 655h-493z" />
    <glyph glyph-name="eight.sup" horiz-adv-x="868" 
d="M590 1247q0 63 -40 103t-112 39q-72 0 -112 -35t-39 -81q-1 -46 31 -78t128 -73l56 -24q88 57 88 149zM252 831q0 -75 56 -119t141 -44q86 0 132 38t46 90t-38 85t-149 80l-82 34q-106 -61 -106 -164zM774 854q0 -108 -99 -182t-247 -74t-244 57q-94 57 -94 141t50 130
q50 47 157 94v4q-162 74 -162 197q0 104 89 170q90 65 230 65t215 -55t74 -135q0 -113 -180 -191v-4q119 -47 165 -93t46 -124z" />
    <glyph glyph-name="nine.sup" horiz-adv-x="905" 
d="M436 1378q-88 0 -130 -52t-42 -140t47 -144t145 -57q98 0 169 53q4 45 4 70q0 123 -52 197q-53 73 -141 73zM464 1456q154 0 247 -100q94 -100 94 -269q0 -125 -57 -221q-56 -96 -156 -152q-193 -109 -440 -136l-21 67q201 47 320 116t159 210q-98 -74 -225 -74t-211 71
q-84 72 -84 194t110 208t264 86z" />
    <glyph glyph-name="plus.sup" horiz-adv-x="905" 
d="M393 682v313h-309v111h309v313h119v-313h309v-111h-309v-313h-119z" />
    <glyph glyph-name="minus.sup" horiz-adv-x="905" 
d="M821 995h-737v111h737v-111z" />
    <glyph glyph-name="a.ord" horiz-adv-x="874" 
d="M385 616q88 0 150 74v213l-150 -45q-63 -24 -95 -50t-32 -77t38 -83t89 -32zM203 1026q-80 0 -80 74q0 63 99 128q99 64 224 64q126 0 184 -58t58 -183v-408q0 -29 11 -38t44 -9h80v-49q-98 -43 -161 -43q-119 0 -123 127h-11q-96 -96 -140 -113q-45 -18 -105 -18
t-122 51q-63 51 -63 141t65 140t199 83l173 46v73q-3 86 -45 136t-106 50t-103 -26l-7 -158q-10 -10 -71 -10z" />
    <glyph glyph-name="b.ord" horiz-adv-x="946" 
d="M487 1180q-96 0 -174 -66v-483q70 -59 165 -59t166 82q71 84 71 224t-66 221t-162 81zM424 498q-125 0 -203 34l-59 23v983l-105 29v57l256 53v-503q31 46 93 82t149 36q129 0 221 -90t92 -270t-134 -307t-310 -127z" />
    <glyph glyph-name="c.ord" horiz-adv-x="815" 
d="M78 877q0 179 127 299t289 118q102 0 171 -49t68 -117q1 -42 -23 -68t-67 -26l-59 6l-25 158q-45 23 -94 23q-100 0 -167 -81t-67 -208t80 -217t203 -90q51 -1 99 23t71 48l21 23l32 -27q-18 -49 -61 -96q-89 -98 -242 -98q-152 0 -254 100t-102 279z" />
    <glyph glyph-name="d.ord" horiz-adv-x="985" 
d="M500 616q70 0 131 35v467q-13 31 -61 66t-130 35t-146 -73q-65 -73 -65 -209q0 -137 65 -229t206 -92zM78 860q0 195 118 314t298 118q72 0 137 -16v276l-152 29v55l303 41v-1054l133 -31v-57l-229 -33l-41 108q-117 -113 -235 -112q-160 0 -246 105t-86 257z" />
    <glyph glyph-name="e.ord" horiz-adv-x="870" 
d="M434 1217q-76 -1 -133 -57t-74 -144h365q-2 84 -42 142t-116 59zM435 498q-91 0 -165 37q-124 62 -173 213q-19 61 -19 120q0 186 111 307q112 120 282 119q139 0 216 -92t79 -256h-545q2 -147 81 -231t208 -84q62 -1 118 27t83 55l26 28l33 -24q-8 -37 -74 -116
q-36 -43 -104 -73q-66 -30 -157 -30z" />
    <glyph glyph-name="f.ord" horiz-adv-x="612" 
d="M72 522v60l104 30v576h-117v69l115 31v6q0 162 106 278t250 116q94 0 154 -46t59 -95q1 -47 -23 -73t-65 -26l-41 8l-41 139q-17 17 -83 17t-114 -56t-48 -176v-108h221v-88h-221v-572l147 -32v-58h-403z" />
    <glyph glyph-name="g.ord" horiz-adv-x="897" 
d="M213 375q0 -55 55 -96t181 -41t198 46t72 103q0 76 -127 82l-318 18q-61 -57 -61 -112zM307 866q47 -61 119 -59t115 55q43 54 41 152t-50 156t-122 56t-114 -52q-40 -51 -38 -149t49 -159zM741 1000q0 -112 -99 -189q-99 -78 -232 -78q-61 0 -117 19q-59 -39 -59 -79
t63 -44l307 -15q121 -8 179 -57t59 -127q0 -104 -140 -196t-346 -91q-127 -1 -214 49t-87 134q0 43 34 85t91 68l37 17v8l-117 98q41 100 133 174q-135 76 -135 232q0 124 93 204t229 80q84 0 196 -41l232 27v-104l-189 10l-2 -4q84 -68 84 -180z" />
    <glyph glyph-name="h.ord" horiz-adv-x="980" 
d="M662 1004q-8 172 -142 172q-68 0 -124 -27q-54 -27 -77 -49v-488l107 -30v-60h-365v60l105 32v932l-111 39v51l264 41v-524q119 141 267 141q119 0 173 -60t54 -204v-418l107 -30v-60h-353v62l95 28v392z" />
    <glyph glyph-name="i.ord" horiz-adv-x="514" 
d="M250 1481q-43 -1 -75 31t-32 74t32 74t75 32t75 -32q31 -32 31 -74t-31 -74q-32 -31 -75 -31zM76 522v62l108 30v535l-96 31v61l246 53v-682l121 -28v-62h-379z" />
    <glyph glyph-name="j.ord" horiz-adv-x="448" 
d="M334 1586q0 -42 -32 -74t-76 -31q-44 -1 -74 31t-31 74q0 42 32 74q33 32 75 32t74 -32t32 -74zM162 604v537l-99 39v61l248 53v-684q0 -182 -55 -286q-72 -146 -238 -164l-10 53q80 29 117 121t37 270z" />
    <glyph glyph-name="k.ord" horiz-adv-x="913" 
d="M514 1272h344v-51l-113 -29l-256 -211l385 -444q-24 -39 -99 -41t-167 112l-276 353v6l71 22l215 195l-104 33v55zM430 522h-362v60l102 32v924l-109 39v49l263 51v-1065l106 -30v-60z" />
    <glyph glyph-name="l.ord" horiz-adv-x="507" 
d="M68 522v60l102 30v908l-104 28v58l258 53v-1047l110 -30v-60h-366z" />
    <glyph glyph-name="m.ord" horiz-adv-x="1482" 
d="M1071 522v62l94 28v394q-4 86 -38 128q-33 42 -123 42t-181 -78v-486l105 -30v-60h-350v62l92 28v394q-4 86 -37 128t-103 42t-126 -29q-54 -29 -76 -51v-484l106 -30v-60h-362v62l104 28v529l-110 24v52l215 77h8l30 -149h7q123 150 270 149q102 0 150 -37t61 -114h10
q119 152 275 151q115 0 170 -57t55 -203v-422l106 -30v-60h-352z" />
    <glyph glyph-name="n.ord" horiz-adv-x="989" 
d="M670 1004q-8 172 -142 172q-70 0 -124 -30q-56 -30 -76 -52v-482l106 -30v-60h-362v60l104 30v529l-110 24v52l215 77h8l30 -149h7q22 29 52 57t93 61q63 32 127 31q117 0 171 -60t54 -204v-418l107 -30v-60h-352v62l92 28v392z" />
    <glyph glyph-name="o.ord" horiz-adv-x="929" 
d="M852 914q0 -176 -112 -298q-112 -120 -283 -120q-172 0 -276 111q-103 112 -103 280t112 289q113 120 283 120q171 0 275 -103t104 -279zM294 1136q-54 -83 -52 -220q2 -136 64 -240t168 -102t161 85t53 229t-68 240q-68 94 -170 92t-156 -84z" />
    <glyph glyph-name="p.ord" horiz-adv-x="929" 
d="M474 1178q-93 0 -171 -58v-491q49 -55 151 -55t173 81t71 221t-65 221q-66 81 -159 81zM47 174v62l105 30v875l-111 24v52l213 77h8l29 -139h2q109 137 246 137t225 -89t88 -270t-134 -308t-308 -127q-49 0 -107 14v-244l154 -37v-57h-410z" />
    <glyph glyph-name="q.ord" horiz-adv-x="923" 
d="M512 610q57 0 119 31v504q-68 72 -169 72q-100 0 -162 -80t-62 -208q0 -127 68 -223t206 -96zM467 174v57l164 39v314q-100 -86 -209 -86q-158 0 -251 108t-93 283q0 174 125 289q125 114 273 114t208 -53l84 57h14v-1030l105 -30v-62h-420z" />
    <glyph glyph-name="r.ord" horiz-adv-x="669" 
d="M72 522v60l104 32v527l-110 20v56l231 77h10l12 -188h5l47 55q59 76 97 106q38 29 79 29t63 -24t23 -76q0 -51 -58 -109l-133 54q-66 -45 -114 -97v-436l145 -24v-62h-401z" />
    <glyph glyph-name="s.ord" horiz-adv-x="737" 
d="M657 735q0 -99 -95 -171t-213 -72t-230 63l-25 229h53l89 -172q55 -51 125 -51q71 0 109 31t38 79t-34 84t-122 72l-69 31q-88 39 -128 88t-40 133t85 151q85 66 194 66t208 -55l10 -194h-51l-63 135q-50 45 -112 45t-95 -30t-33 -74q0 -45 29 -75t102 -61l74 -33
q106 -47 150 -98t44 -121z" />
    <glyph glyph-name="t.ord" horiz-adv-x="589" 
d="M326 504q-172 0 -168 178l4 506h-115v69l119 31l84 195h57v-211h219v-90h-215v-437q0 -83 28 -107t83 -24l119 11l10 -50q-96 -71 -225 -71z" />
    <glyph glyph-name="u.ord" horiz-adv-x="964" 
d="M379 496q-223 0 -223 274v397l-113 29v64l266 28v-489q6 -184 168 -185q98 0 168 70v483l-131 27v63l285 27v-661l129 -29v-59l-226 -37l-51 133q-117 -135 -272 -135z" />
    <glyph glyph-name="v.ord" horiz-adv-x="874" 
d="M20 1272h363v-58l-121 -26l187 -483l14 -39h4q8 25 14 39l195 473l-115 36v58h285v-58l-76 -26l-289 -690h-98l-287 690l-76 26v58z" />
    <glyph glyph-name="w.ord" horiz-adv-x="1273" 
d="M958 1272h291v-58l-78 -26l-225 -688h-108l-183 485l-16 55h-2l-197 -540h-116l-222 688l-77 26v58h364v-58l-121 -26l148 -510h4q6 27 16 51l193 553h84l207 -602h4q6 25 14 49l141 445l-121 40v58z" />
    <glyph glyph-name="x.ord" horiz-adv-x="897" 
d="M860 522h-385v60l92 28l-153 228h-4l-166 -226l90 -30v-60h-295v60l100 28l230 293l-207 287l-96 24v58h372v-58l-92 -16l133 -205h2l154 203l-86 18v58h274v-58l-92 -18l-209 -264l232 -322l106 -28v-60z" />
    <glyph glyph-name="y.ord" horiz-adv-x="868" 
d="M569 1272h279v-58l-76 -28l-348 -834q-45 -112 -85 -156t-94 -44t-83 26t-29 69t27 67q26 24 70 24t77 -64h2l80 175l-293 739l-76 26v58h367v-58l-119 -26l199 -533h10l205 523l-113 36v58z" />
    <glyph glyph-name="z.ord" horiz-adv-x="798" 
d="M68 522v60l444 616h-283l-75 -172h-54l2 256l125 -10h500v-29l-467 -645h309l95 188h55l-25 -270l-125 6h-501z" />
    <glyph glyph-name="egrave.ord" horiz-adv-x="870" 
d="M258 1714h129l102 -319h-69l-162 291v28zM434 1217q-76 -1 -133 -57t-74 -144h365q-2 84 -42 142t-116 59zM435 498q-91 0 -165 37q-124 62 -173 213q-19 61 -19 120q0 186 111 307q112 120 282 119q139 0 216 -92t79 -256h-545q2 -147 81 -231t208 -84q62 -1 118 27
t83 55l26 28l33 -24q-8 -37 -74 -116q-36 -43 -104 -73q-66 -30 -157 -30z" />
    <glyph glyph-name="uacute.ord" horiz-adv-x="964" 
d="M657 1714v-28l-161 -291h-68l98 319h131zM379 496q-223 0 -223 274v397l-113 29v64l266 28v-489q6 -184 168 -185q98 0 168 70v483l-131 27v63l285 27v-661l129 -29v-59l-226 -37l-51 133q-117 -135 -272 -135z" />
    <glyph glyph-name="bullet.alt" horiz-adv-x="681" 
d="M260 1391q0 41 31 71t76 29q45 0 79 -28q34 -27 33 -73q0 -46 -100 -157h-37q-2 4 -17 24t-40 56q-25 37 -25 78zM47 1184q0 49 34 78q34 28 67 28t53 -7t33 -13q14 -6 32 -26t24 -27q6 -6 27 -36q20 -30 25 -36h29q10 11 29 31l26 26l20 20t20 17q6 4 18 11q11 8 28 12
t52 4q34 0 64 -35t30 -86t-36 -88q-34 -37 -82 -37t-74 20q-25 20 -52 40q-27 22 -43 32h-13q-24 -41 -24 -85t28 -75t95 -67q133 -76 133 -178q0 -53 -36 -87t-99 -34q-33 -47 -90 -47t-109 75q-8 12 -25 39q-45 76 -89 76t-66 -26t-19 -56h-24q-13 16 -13 61t37 77t89 32
q77 0 157 -98q27 -33 53 -33q56 0 56 53t-77 108q-29 23 -53 61t-24 82t43 130l-10 2q-104 -43 -145 -43t-70 28t-29 77z" />
    <glyph glyph-name="Q.short" horiz-adv-x="1609" 
d="M786 1309q-119 1 -211 -53t-145 -142q-110 -183 -108 -395q0 -164 53 -316q53 -153 172 -261t275 -108t266 97q200 177 200 508q0 270 -144 470q-145 200 -358 200zM803 1395q174 1 312 -59q248 -107 342 -383q42 -122 42 -255q0 -304 -163 -502t-425 -235
q117 -90 183 -136t154 -85t174 -39q87 0 196 57l31 -47q-113 -79 -183 -101t-153 -22q-158 0 -305 89t-394 300q-227 57 -365 241t-138 444q1 334 195 534t497 199z" />
    <glyph glyph-name="f.short" horiz-adv-x="702" 
d="M68 0v70l129 43v747h-148v84l146 41v76q0 205 116 336q117 131 264 131q77 0 133 -42t56 -98t-34 -80q-34 -26 -83 -26h-22l-70 158q-6 6 -29 6q-57 0 -110 -65t-51 -195l4 -223h280v-105h-278v-745l184 -50v-63h-487z" />
    <glyph glyph-name="f_f.short" horiz-adv-x="1286" 
d="M371 973v-10h409v14q0 133 31 233l-49 136q-61 39 -123 38q-115 0 -191 -92t-77 -319zM664 0v70l116 43v753h-409v-753l116 -43v-70h-419v70l129 43v747h-148v84l150 41q4 199 154 343q151 144 333 145q135 0 215 -80q106 135 256 135q80 0 135 -42q56 -42 56 -98
t-34 -80q-34 -26 -83 -26h-23l-69 158q-6 6 -29 6q-56 0 -110 -64t-52 -196l4 -223h281v-97h-279v-753l185 -50v-63h-475z" />
    <glyph glyph-name="i.ger" horiz-adv-x="571" 
d="M271 1231q-50 0 -88 37t-38 88t38 88t88 37t88 -37t38 -88t-38 -88t-88 -37zM63 0v70l138 45v700l-121 43v72l291 59v-876l153 -43v-70h-461z" />
    <glyph glyph-name="j.ger" horiz-adv-x="534" 
d="M259 1231q-50 0 -88 37t-38 88t38 88t88 37t88 -37t38 -88t-38 -88t-88 -37zM186 53v750l-120 55v72l292 59v-936q0 -363 -185 -498q-77 -57 -169 -69l-10 59q102 33 147 156t45 352z" />
    <glyph glyph-name="questiondown.uc" horiz-adv-x="831" 
d="M519 1401q52 0 90 -39t38 -90t-38 -89t-90 -38t-90 37t-38 90t38 91t90 38zM102 471q0 184 201 260l168 62l2 198h92l37 -334l-237 -84q-86 -31 -121 -67t-35 -86q-1 -84 109 -151t276 -87l49 -6v-213l-59 10q-106 18 -214 83q-108 64 -188 176t-80 239z" />
    <glyph glyph-name="exclamdown.uc" horiz-adv-x="583" 
d="M292 1401q52 0 90 -39t38 -90t-38 -89t-90 -38t-90 37t-38 90t38 91t90 38zM391 -37h-198l51 1028h96z" />
    <glyph glyph-name="hyphen.uc" horiz-adv-x="702" 
d="M80 553v158h543v-158h-543z" />
    <glyph glyph-name="endash.uc" horiz-adv-x="835" 
d="M8 659v105h819v-105h-819z" />
    <glyph glyph-name="emdash.uc" horiz-adv-x="1654" 
d="M8 659v105h1639v-105h-1639z" />
    <glyph glyph-name="guilsinglleft.uc" horiz-adv-x="798" 
d="M557 1026l57 -51l-286 -422l284 -401l-55 -54l-414 439v34z" />
    <glyph glyph-name="guilsinglright.uc" horiz-adv-x="798" 
d="M242 98l-58 52l285 421l-283 402l56 53l413 -438v-35z" />
    <glyph glyph-name="guillemotleft.uc" horiz-adv-x="1247" 
d="M1006 1026l57 -51l-287 -422l285 -401l-55 -54l-414 439v34zM557 1026l57 -51l-286 -422l284 -401l-55 -54l-414 439v34z" />
    <glyph glyph-name="guillemotright.uc" horiz-adv-x="1245" 
d="M688 98l-57 52l284 421l-282 402l55 53l414 -438v-35zM242 98l-58 52l285 421l-283 402l56 53l413 -438v-35z" />
    <glyph glyph-name="parenleft.uc" horiz-adv-x="702" 
d="M360 646q0 -278 79 -494t251 -439h-112q-392 414 -392 930t402 938h110q-176 -225 -257 -441t-81 -494z" />
    <glyph glyph-name="parenright.uc" horiz-adv-x="702" 
d="M514 651q0 -516 -401 -938h-111q176 225 257 441t81 494t-79 494t-251 439h113q391 -414 391 -930z" />
    <glyph glyph-name="bracketleft.uc" horiz-adv-x="727" 
d="M635 -289h-373v1872h373v-80h-205v-1712h205v-80z" />
    <glyph glyph-name="bracketright.uc" horiz-adv-x="727" 
d="M92 1583h373v-1872h-373v80h205v1712h-205v80z" />
    <glyph glyph-name="braceleft.uc" horiz-adv-x="727" 
d="M696 -223v-66h-30q-207 0 -282 86t-73 273l2 356q0 80 -39 125t-104 47l-78 2v94l78 2q66 2 104 47t39 125l-2 357q-2 186 73 272t282 86h30v-65q-116 0 -156 -52t-48 -221l-21 -360q-6 -97 -46 -149t-128 -87v-4q88 -35 128 -86t46 -149l21 -361q8 -170 48 -221t156 -51
z" />
    <glyph glyph-name="braceright.uc" horiz-adv-x="727" 
d="M31 1583h30q207 0 282 -86t73 -272l-2 -357q0 -80 39 -125t104 -47l78 -2v-94l-78 -2q-67 -2 -105 -47t-38 -125l2 -356q2 -186 -73 -272t-282 -87h-30v66q117 0 157 51t48 221l20 361q6 98 46 149t128 86v4q-88 35 -128 86t-46 150l-20 360q-8 170 -48 221t-157 52v65z
" />
    <glyph glyph-name="slash.uc" horiz-adv-x="1032" 
d="M152 -334l-99 43l826 1895l98 -43z" />
    <glyph glyph-name="backslash.uc" horiz-adv-x="1032" 
d="M977 -291l-98 -43l-826 1895l99 43z" />
    <glyph glyph-name="bar.uc" horiz-adv-x="507" 
d="M195 1583h118v-1913l-118 -2v1915z" />
    <glyph glyph-name="at.uc" horiz-adv-x="1957" 
d="M803 301q75 0 231 221t193 340l22 72q-59 74 -131 74q-127 0 -254 -206t-127 -405q0 -96 66 -96zM716 160q-83 0 -126 49t-45 129q-2 172 105 351q108 179 256 289t272 109q88 0 145 -49l18 74h121l-198 -655q-33 -125 -17 -174t72 -50q127 0 264 166t137 416t-175 423
t-445 173q-330 0 -563 -253t-234 -623q0 -315 193 -493t499 -177q139 0 293 37v-52q-178 -68 -389 -67q-344 0 -550 201t-206 512q0 205 87 391q86 186 226 316t319 207t362 77q330 0 519 -193t189 -465q0 -141 -54 -269q-102 -241 -324 -350q-101 -50 -207 -50t-158 74
q-51 74 -6 217l26 84h-12l-47 -70q-115 -169 -189 -237t-158 -68z" />
    <glyph glyph-name="A.sc" horiz-adv-x="1271" 
d="M592 913l-184 -454h368l-182 454h-2zM35 0v68l108 32l424 973l68 12l70 21l415 -1010l125 -26v-70h-479v70l156 30l-105 260h-450l-101 -249l180 -41v-70h-411z" />
    <glyph glyph-name="B.sc" horiz-adv-x="1118" 
d="M414 1012v-420q192 8 280 63t88 164q1 203 -368 193zM414 520v-395q60 -61 180 -61t191 58t71 160t-74 164t-188 74h-180zM975 838q0 -199 -328 -258v-5q164 5 282 -69t118 -197q1 -155 -137 -235t-357 -78l-467 4v70l145 39v856l-145 43v67l432 4q207 2 332 -58
t125 -183z" />
    <glyph glyph-name="C.sc" horiz-adv-x="1263" 
d="M102 494q0 264 178 433t453 169q97 0 155 -16t84 -24t68 -24t56 -20l10 -299h-64l-110 227q-92 72 -232 72q-174 0 -288 -123t-113 -351q0 -228 123 -362q123 -133 326 -133q109 0 208 68l123 237h64l-27 -301q-251 -94 -415 -94q-165 0 -283 49q-209 87 -283 301
q-33 92 -33 191z" />
    <glyph glyph-name="D.sc" horiz-adv-x="1337" 
d="M1235 567q-1 -264 -191 -419t-542 -152l-416 4v70l145 39v856l-145 43v67l475 4q303 2 489 -140t185 -372zM414 1001v-864q63 -61 204 -57q201 4 314 132q112 128 112 286t-45 256q-80 178 -328 227q-107 20 -257 20z" />
    <glyph glyph-name="E.sc" horiz-adv-x="1144" 
d="M414 506v-416h440l150 240h69l-67 -330h-920v70l145 39v856l-145 43v67h768l152 8v-303h-66l-94 211h-432v-399h258l57 151h57v-372h-65l-49 135h-258z" />
    <glyph glyph-name="F.sc" horiz-adv-x="1040" 
d="M414 496v-394l178 -22v-80h-506v70l145 39v856l-145 43v67h727l154 8v-313h-62l-96 221h-395v-416h233l51 150h56v-375h-64l-43 146h-233z" />
    <glyph glyph-name="G.sc" horiz-adv-x="1304" 
d="M707 -37q-301 0 -453 156q-152 155 -152 395t188 416t478 176q168 0 336 -84l8 -291h-65l-101 213q-96 74 -215 74q-211 0 -323 -133t-111 -355q0 -222 134 -347q134 -126 333 -126q92 0 174 41v289l-164 33v59h438v-63l-98 -25v-323l-57 -27q-166 -78 -350 -78z" />
    <glyph glyph-name="H.sc" horiz-adv-x="1394" 
d="M838 0v70l145 39v393h-569v-393l143 -39v-70h-471v70l145 39v856l-145 43v67h471v-67l-143 -43v-371h569v371l-145 43v67h471v-67l-146 -43v-856l146 -39v-70h-471z" />
    <glyph glyph-name="I.sc" horiz-adv-x="643" 
d="M86 0v70l145 39v856l-145 43v67h471v-67l-143 -43v-856l143 -39v-70h-471z" />
    <glyph glyph-name="J.sc" horiz-adv-x="647" 
d="M428 166q0 -254 -97 -384t-372 -169l-14 61q303 55 303 463v828l-168 43v67h493v-67l-145 -43v-799z" />
    <glyph glyph-name="K.sc" horiz-adv-x="1241" 
d="M774 1075h391v-65l-141 -41l-403 -359l450 -512l139 -28v-70h-292l-492 561v17l61 24l416 367l-129 41v65zM86 0v70l145 39v856l-145 43v67h471v-67l-143 -43v-856l143 -39v-70h-471z" />
    <glyph glyph-name="L.sc" horiz-adv-x="1050" 
d="M414 90h370l160 287h64l-68 -377h-854v70l145 39v856l-145 43v67h504v-67l-176 -41v-877z" />
    <glyph glyph-name="M.sc" horiz-adv-x="1624" 
d="M72 0v70l143 39l29 856l-152 43v67h352l377 -751l318 680l14 71h377v-67l-144 -43l17 -856l145 -39v-70h-483v72l158 37l-6 841l-379 -798l-35 -89h-64l-37 89l-366 720l-17 -757l195 -56v-59h-442z" />
    <glyph glyph-name="N.sc" horiz-adv-x="1370" 
d="M524 0h-432v70l146 39v837l-152 62v67h274l682 -766v637l-186 64v65h432v-67l-143 -43v-793l6 -170l-57 -20l-754 839v-696l184 -57v-68z" />
    <glyph glyph-name="O.sc" horiz-adv-x="1316" 
d="M657 -39q-247 0 -401 154q-154 153 -154 405t156 419t402 167q245 0 400 -156q154 -156 154 -406t-156 -417q-156 -166 -401 -166zM702 47q135 0 223 113q87 114 87 332t-110 376t-270 158t-246 -117q-85 -117 -85 -311q0 -299 171 -461q95 -90 230 -90z" />
    <glyph glyph-name="P.sc" horiz-adv-x="1067" 
d="M821 758q0 114 -103 180q-103 68 -304 68v-897l215 -39v-70h-543v70l145 39v856l-145 43v67l393 2q259 2 397 -78t138 -221q0 -114 -80 -196q-152 -155 -434 -142v60q154 10 238 77t83 181z" />
    <glyph glyph-name="Q.sc" horiz-adv-x="1316" 
d="M1012 492q0 218 -110 376t-270 158q-161 0 -246 -117t-85 -311q0 -299 171 -461q95 -90 230 -90t223 113q87 114 87 332zM102 518q0 254 157 421t401 167t400 -156q155 -156 154 -405q0 -195 -116 -351t-301 -204q121 -92 191 -140t174 -94q103 -45 192 -45q166 0 323 84
l31 -35q-111 -94 -207 -132q-97 -38 -213 -38t-236 54t-214 120t-169 126t-89 69q-14 10 -29 23q-203 33 -326 179t-123 357z" />
    <glyph glyph-name="R.sc" horiz-adv-x="1202" 
d="M414 543h155q104 14 173 73t69 156q0 240 -397 234v-463zM86 0v70l145 39v856l-145 43v67l412 4q240 1 372 -69t134 -211q0 -111 -88 -186t-197 -111v-4l311 -402l141 -26v-70h-299l-268 346l-84 115h-106v-352l143 -39v-70h-471z" />
    <glyph glyph-name="S.sc" horiz-adv-x="952" 
d="M511 1106q165 0 310 -57l10 -295h-59l-94 207q-72 63 -177 63t-167 -49t-64 -124q0 -75 35 -115t131 -68l146 -47q168 -51 230 -120t62 -175q0 -154 -126 -256t-308 -102t-334 77l-24 315h70l110 -247q86 -61 202 -61t178 50q62 51 63 146q0 135 -170 186l-177 55
q-139 39 -196 112q-58 73 -58 193t121 216t286 96z" />
    <glyph glyph-name="T.sc" horiz-adv-x="1159" 
d="M670 991v-882l161 -39v-70h-503v70l161 39v882h-253l-111 -229h-64l15 323l131 -10h745l129 10l17 -323h-64l-108 229h-256z" />
    <glyph glyph-name="U.sc" horiz-adv-x="1368" 
d="M670 -37q-224 0 -338 112t-115 355v535l-145 43v67h473v-67l-146 -41v-518q0 -199 78 -282q77 -83 233 -83q330 0 330 373l-2 491l-178 62v65h436v-67l-145 -47l-4 -531q-2 -223 -127 -345q-126 -122 -350 -122z" />
    <glyph glyph-name="V.sc" horiz-adv-x="1208" 
d="M20 1075h463v-65l-149 -39l311 -746l309 731l-188 52v67h422v-65l-117 -43l-424 -985h-84l-430 991l-113 37v65z" />
    <glyph glyph-name="W.sc" horiz-adv-x="1769" 
d="M27 1075h460v-65l-155 -37l252 -785l252 666l-45 119l-129 37v65h495v-67l-172 -35l291 -783l242 764l-181 54v67h406v-65l-119 -45l-324 -979h-135l-280 739l-281 -739h-137l-328 987l-112 37v65z" />
    <glyph glyph-name="X.sc" horiz-adv-x="1273" 
d="M770 1075h434v-67l-131 -35l-336 -389l381 -486l115 -28v-70h-494v72l150 28l-287 369h-4l-291 -360l144 -39v-70h-414v72l131 28l375 439l-342 434l-121 35v67h502v-67l-146 -35l246 -320h4l252 314l-168 41v67z" />
    <glyph glyph-name="Y.sc" horiz-adv-x="1126" 
d="M815 0h-504v70l162 39v268l-338 596l-115 37v65h451v-63l-131 -37l258 -477h2l279 465l-166 47v65h393v-63l-117 -45l-336 -549v-309l162 -39v-70z" />
    <glyph glyph-name="Z.sc" horiz-adv-x="1130" 
d="M74 0v55l706 932h-479l-113 -250h-61l31 348l131 -10h772v-14l-735 -969h514l155 262h64l-70 -362l-137 8h-778z" />
    <glyph glyph-name="Oslash.sc" horiz-adv-x="1316" 
d="M623 1026q-152 0 -237 -116t-85 -314q0 -197 78 -340l502 641q-106 129 -258 129zM702 47q135 0 223 113q87 112 87 316t-88 358l-502 -644q106 -143 280 -143zM102 516q0 256 157 423t400 167q176 0 316 -88l100 127h92l-133 -170q180 -158 180 -420t-156 -428
t-399 -166q-195 0 -337 100l-101 -129h-94l137 177q-162 151 -162 407z" />
    <glyph glyph-name="AE.sc" horiz-adv-x="1699" 
d="M827 989h-18l-262 -416h280v416zM1001 494v-404h408l150 240h69l-67 -330h-877v70l143 34v392h-329l-234 -385l176 -39v-72h-420v68l107 32l561 863l-182 47v65h901l154 8v-303h-66l-94 211h-400v-418h232l53 150h55v-373h-61l-47 144h-232z" />
    <glyph glyph-name="OE.sc" horiz-adv-x="1806" 
d="M934 244v702q-72 68 -242 68t-282 -114t-113 -328t107 -366t309 -151q121 -1 171 49t50 140zM102 522q0 252 180 410t468 158q66 0 180 -8t223 -7h354l160 8l-2 -303h-63l-95 211h-407l6 -401h233l54 149h51v-372h-58l-47 143h-233v-420h412l145 240h72l-68 -330h-577
l-369 -18q-291 0 -455 144t-164 396z" />
    <glyph glyph-name="Eth.sc" horiz-adv-x="1337" 
d="M696 492h-282v-355q63 -61 204 -57q201 4 314 132q112 128 112 286t-45 256q-80 178 -328 227q-108 20 -257 20v-430h282v-79zM231 492h-184v79h184v394l-145 43v67l475 4q303 2 489 -140t185 -372q-1 -264 -191 -419t-542 -152l-416 4v70l145 39v383z" />
    <glyph glyph-name="Dcroat.sc" horiz-adv-x="1337" 
d="M696 492h-282v-355q63 -61 204 -57q201 4 314 132q112 128 112 286t-45 256q-80 178 -328 227q-108 20 -257 20v-430h282v-79zM231 492h-184v79h184v394l-145 43v67l475 4q303 2 489 -140t185 -372q-1 -264 -191 -419t-542 -152l-416 4v70l145 39v383z" />
    <glyph glyph-name="Eng.sc" horiz-adv-x="1370" 
d="M1145 166q0 -254 -97 -384t-372 -169l-14 61q326 51 354 394l-676 753v-696l184 -57v-68h-432v70l146 39v837l-152 62v67h274l682 -766v637l-186 64v65h432v-67l-143 -43v-799z" />
    <glyph glyph-name="IJ.sc" horiz-adv-x="1290" 
d="M1071 166q0 -254 -97 -384t-372 -169l-14 61q303 55 303 463v828l-168 43v67h494v-67l-146 -43v-799zM86 0v70l145 39v856l-145 43v67h471v-67l-143 -43v-856l143 -39v-70h-471z" />
    <glyph glyph-name="uni0237.sc" horiz-adv-x="647" 
d="M428 166q0 -254 -97 -384t-372 -169l-14 61q303 55 303 463v828l-168 43v67h493v-67l-145 -43v-799z" />
    <glyph glyph-name="Aacute.sc" horiz-adv-x="1271" 
d="M879 1630v-39l-203 -381h-84l123 420h164zM592 913l-184 -454h368l-182 454h-2zM35 0v68l108 32l424 973l68 12l70 21l415 -1010l125 -26v-70h-479v70l156 30l-105 260h-450l-101 -249l180 -41v-70h-411z" />
    <glyph glyph-name="Abreve.sc" horiz-adv-x="1271" 
d="M639 1243q-240 0 -254 332h74q14 -87 64 -147t129 -60t126 60t62 147h71q-7 -160 -69 -246t-203 -86zM592 913l-184 -454h368l-182 454h-2zM35 0v68l108 32l424 973l68 12l70 21l415 -1010l125 -26v-70h-479v70l156 30l-105 260h-450l-101 -249l180 -41v-70h-411z" />
    <glyph glyph-name="Acircumflex.sc" horiz-adv-x="1271" 
d="M481 1210h-96l207 420h117l206 -420h-100l-170 269zM592 913l-184 -454h368l-182 454h-2zM35 0v68l108 32l424 973l68 12l70 21l415 -1010l125 -26v-70h-479v70l156 30l-105 260h-450l-101 -249l180 -41v-70h-411z" />
    <glyph glyph-name="Adieresis.sc" horiz-adv-x="1271" 
d="M848 1323q-47 0 -82 34t-35 81t35 82q35 34 82 34t82 -34t35 -82q0 -47 -35 -81t-82 -34zM444 1323q-46 0 -80 34t-34 81t34 82q34 34 80 34t82 -34q35 -34 35 -82q0 -47 -35 -81t-82 -34zM592 913l-184 -454h368l-182 454h-2zM35 0v68l108 32l424 973l68 12l70 21
l415 -1010l125 -26v-70h-479v70l156 30l-105 260h-450l-101 -249l180 -41v-70h-411z" />
    <glyph glyph-name="Agrave.sc" horiz-adv-x="1271" 
d="M408 1630h163l125 -420h-84l-204 381v39zM592 913l-184 -454h368l-182 454h-2zM35 0v68l108 32l424 973l68 12l70 21l415 -1010l125 -26v-70h-479v70l156 30l-105 260h-450l-101 -249l180 -41v-70h-411z" />
    <glyph glyph-name="Amacron.sc" horiz-adv-x="1271" 
d="M350 1366v123h594v-123h-594zM592 913l-184 -454h368l-182 454h-2zM35 0v68l108 32l424 973l68 12l70 21l415 -1010l125 -26v-70h-479v70l156 30l-105 260h-450l-101 -249l180 -41v-70h-411z" />
    <glyph glyph-name="Aogonek.sc" horiz-adv-x="1271" 
d="M592 913l-184 -454h368l-182 454h-2zM35 0v68l108 32l424 973l68 12l70 21l415 -1010l125 -26v-70h-237q-223 -129 -224 -266q0 -57 30 -91t82 -34t88 19t91 75l35 -35q-57 -90 -123 -144t-159 -54t-144 51t-51 131q0 45 21 98t150 178q36 35 134 129l-121 303h-450
l-101 -249l180 -41v-70h-411z" />
    <glyph glyph-name="Aring.sc" horiz-adv-x="1271" 
d="M502 1483q0 -66 42 -108t103 -42t104 42q42 42 42 108q0 65 -42 107q-41 42 -103 42t-104 -42t-42 -107zM408 1482q0 99 69 167q70 67 171 67t170 -66t69 -166q0 -99 -70 -167t-171 -68t-170 67q-68 67 -68 166zM592 913l-184 -454h368l-182 454h-2zM35 0v68l108 32
l424 973l68 12l70 21l415 -1010l125 -26v-70h-479v70l156 30l-105 260h-450l-101 -249l180 -41v-70h-411z" />
    <glyph glyph-name="Aringacute.sc" horiz-adv-x="1271" 
d="M961 2021v-41l-246 -243h-107l162 284h191zM498 1417q0 -65 42 -107t103 -42t103 42t42 108t-42 107q-42 42 -103 42t-103 -42t-42 -108zM403 1416q0 99 70 167t171 68t170 -67t69 -166t-70 -167q-70 -67 -171 -67t-170 66t-69 166zM592 913l-184 -454h368l-182 454h-2z
M35 0v68l108 32l424 973l68 12l70 21l415 -1010l125 -26v-70h-479v70l156 30l-105 260h-450l-101 -249l180 -41v-70h-411z" />
    <glyph glyph-name="AEacute.sc" horiz-adv-x="1699" 
d="M1165 1630v-39l-202 -381h-84l122 420h164zM827 989h-18l-262 -416h280v416zM1001 494v-404h408l150 240h69l-67 -330h-877v70l143 34v392h-329l-234 -385l176 -39v-72h-420v68l107 32l561 863l-182 47v65h901l154 8v-303h-66l-94 211h-400v-418h232l53 150h55v-373h-61
l-47 144h-232z" />
    <glyph glyph-name="Atilde.sc" horiz-adv-x="1271" 
d="M674 1321l-80 47q-98 59 -144 47t-90 -115l-61 27l10 27q113 283 316 170l98 -56q76 -45 120 -22t89 127l61 -27l-10 -26q-61 -160 -137 -208t-172 9zM592 913l-184 -454h368l-182 454h-2zM35 0v68l108 32l424 973l68 12l70 21l415 -1010l125 -26v-70h-479v70l156 30
l-105 260h-450l-101 -249l180 -41v-70h-411z" />
    <glyph glyph-name="Cacute.sc" horiz-adv-x="1263" 
d="M932 1630v-39l-203 -381h-84l123 420h164zM102 494q0 264 178 433t453 169q97 0 155 -16t84 -24t68 -24t56 -20l10 -299h-64l-110 227q-92 72 -232 72q-174 0 -288 -123t-113 -351q0 -228 123 -362q123 -133 326 -133q109 0 208 68l123 237h64l-27 -301
q-251 -94 -415 -94q-165 0 -283 49q-209 87 -283 301q-33 92 -33 191z" />
    <glyph glyph-name="Ccaron.sc" horiz-adv-x="1263" 
d="M870 1630h97l-207 -420h-117l-207 420h101l168 -268zM102 494q0 264 178 433t453 169q97 0 155 -16t84 -24t68 -24t56 -20l10 -299h-64l-110 227q-92 72 -232 72q-174 0 -288 -123t-113 -351q0 -228 123 -362q123 -133 326 -133q109 0 208 68l123 237h64l-27 -301
q-251 -94 -415 -94q-165 0 -283 49q-209 87 -283 301q-33 92 -33 191z" />
    <glyph glyph-name="Ccedilla.sc" horiz-adv-x="1263" 
d="M690 -47q-154 0 -272 49q-209 87 -283 301q-33 92 -33 191q0 264 178 433t453 169q97 0 155 -16t84 -24t68 -24t56 -20l10 -299h-64l-110 227q-92 72 -232 72q-174 0 -288 -123t-113 -351q0 -228 123 -362q123 -133 326 -133q109 0 208 68l123 237h64l-27 -301
q-205 -78 -336 -90l-51 -86q66 -6 106 -44q39 -38 39 -98q-1 -121 -123 -184q-95 -49 -214 -71l-11 59q55 15 87 29t66 46t34 75q0 78 -109 118l94 152h-8z" />
    <glyph glyph-name="Ccircumflex.sc" horiz-adv-x="1263" 
d="M535 1210h-97l207 420h117l207 -420h-101l-170 269zM102 494q0 264 178 433t453 169q97 0 155 -16t84 -24t68 -24t56 -20l10 -299h-64l-110 227q-92 72 -232 72q-174 0 -288 -123t-113 -351q0 -228 123 -362q123 -133 326 -133q109 0 208 68l123 237h64l-27 -301
q-251 -94 -415 -94q-165 0 -283 49q-209 87 -283 301q-33 92 -33 191z" />
    <glyph glyph-name="Cdotaccent.sc" horiz-adv-x="1263" 
d="M700 1288q-53 0 -90 38t-37 89t37 89t90 38q52 0 90 -38t38 -89t-38 -89q-37 -38 -90 -38zM102 494q0 264 178 433t453 169q97 0 155 -16t84 -24t68 -24t56 -20l10 -299h-64l-110 227q-92 72 -232 72q-174 0 -288 -123t-113 -351q0 -228 123 -362q123 -133 326 -133
q109 0 208 68l123 237h64l-27 -301q-251 -94 -415 -94q-165 0 -283 49q-209 87 -283 301q-33 92 -33 191z" />
    <glyph glyph-name="Dcaron.sc" horiz-adv-x="1337" 
d="M776 1630h96l-206 -420h-117l-207 420h100l168 -268zM1235 567q-1 -264 -191 -419t-542 -152l-416 4v70l145 39v856l-145 43v67l475 4q303 2 489 -140t185 -372zM414 1001v-864q63 -61 204 -57q201 4 314 132q112 128 112 286t-45 256q-80 178 -328 227q-107 20 -257 20z
" />
    <glyph glyph-name="Eacute.sc" horiz-adv-x="1144" 
d="M836 1630v-39l-203 -381h-84l123 420h164zM414 506v-416h440l150 240h69l-67 -330h-920v70l145 39v856l-145 43v67h768l152 8v-303h-66l-94 211h-432v-399h258l57 151h57v-372h-65l-49 135h-258z" />
    <glyph glyph-name="Ebreve.sc" horiz-adv-x="1144" 
d="M596 1243q-240 0 -254 332h74q14 -87 64 -147t129 -60t126 60t62 147h71q-6 -160 -68 -246t-204 -86zM414 506v-416h440l150 240h69l-67 -330h-920v70l145 39v856l-145 43v67h768l152 8v-303h-66l-94 211h-432v-399h258l57 151h57v-372h-65l-49 135h-258z" />
    <glyph glyph-name="Ecaron.sc" horiz-adv-x="1144" 
d="M774 1630h96l-206 -420h-117l-207 420h100l168 -268zM414 506v-416h440l150 240h69l-67 -330h-920v70l145 39v856l-145 43v67h768l152 8v-303h-66l-94 211h-432v-399h258l57 151h57v-372h-65l-49 135h-258z" />
    <glyph glyph-name="Ecircumflex.sc" horiz-adv-x="1144" 
d="M436 1210h-96l207 420h117l206 -420h-100l-170 269zM414 506v-416h440l150 240h69l-67 -330h-920v70l145 39v856l-145 43v67h768l152 8v-303h-66l-94 211h-432v-399h258l57 151h57v-372h-65l-49 135h-258z" />
    <glyph glyph-name="Edieresis.sc" horiz-adv-x="1144" 
d="M801 1323q-47 0 -82 34t-35 81t35 82q35 34 82 34t82 -34t35 -82q0 -47 -35 -81t-82 -34zM397 1323q-47 0 -81 34t-33 81q0 47 33 82q34 34 81 34t82 -34t35 -82q0 -47 -35 -81t-82 -34zM414 506v-416h440l150 240h69l-67 -330h-920v70l145 39v856l-145 43v67h768l152 8
v-303h-66l-94 211h-432v-399h258l57 151h57v-372h-65l-49 135h-258z" />
    <glyph glyph-name="Edotaccent.sc" horiz-adv-x="1144" 
d="M604 1288q-51 0 -89 38t-38 89t38 89t89 38t89 -38t38 -89t-38 -89t-89 -38zM414 506v-416h440l150 240h69l-67 -330h-920v70l145 39v856l-145 43v67h768l152 8v-303h-66l-94 211h-432v-399h258l57 151h57v-372h-65l-49 135h-258z" />
    <glyph glyph-name="Egrave.sc" horiz-adv-x="1144" 
d="M365 1630h163l125 -420h-84l-204 381v39zM414 506v-416h440l150 240h69l-67 -330h-920v70l145 39v856l-145 43v67h768l152 8v-303h-66l-94 211h-432v-399h258l57 151h57v-372h-65l-49 135h-258z" />
    <glyph glyph-name="Emacron.sc" horiz-adv-x="1144" 
d="M301 1366v123h594v-123h-594zM414 506v-416h440l150 240h69l-67 -330h-920v70l145 39v856l-145 43v67h768l152 8v-303h-66l-94 211h-432v-399h258l57 151h57v-372h-65l-49 135h-258z" />
    <glyph glyph-name="Eogonek.sc" horiz-adv-x="1144" 
d="M86 0v70l145 39v856l-145 43v67h768l152 8v-303h-66l-94 211h-432v-399h258l57 151h57v-372h-65l-49 135h-258v-416h440l150 240h69l-67 -330h-160q-92 -94 -126 -131q-87 -94 -85 -158q0 -102 106 -102q51 0 89 19t92 75l34 -35q-56 -90 -122 -144t-159 -54t-148 49
q-54 49 -54 131q1 82 61 150t226 200h-674z" />
    <glyph glyph-name="Gbreve.sc" horiz-adv-x="1304" 
d="M702 1243q-240 0 -253 332h73q14 -87 64 -147t130 -60q79 0 126 60t61 147h72q-6 -160 -69 -246t-204 -86zM707 -37q-301 0 -453 156q-152 155 -152 395t188 416t478 176q168 0 336 -84l8 -291h-65l-101 213q-96 74 -215 74q-211 0 -323 -133t-111 -355q0 -222 134 -347
q134 -126 333 -126q92 0 174 41v289l-164 33v59h438v-63l-98 -25v-323l-57 -27q-166 -78 -350 -78z" />
    <glyph glyph-name="Gcircumflex.sc" horiz-adv-x="1304" 
d="M545 1210h-96l206 420h117l207 -420h-100l-170 269zM707 -37q-301 0 -453 156q-152 155 -152 395t188 416t478 176q168 0 336 -84l8 -291h-65l-101 213q-96 74 -215 74q-211 0 -323 -133t-111 -355q0 -222 134 -347q134 -126 333 -126q92 0 174 41v289l-164 33v59h438
v-63l-98 -25v-323l-57 -27q-166 -78 -350 -78z" />
    <glyph glyph-name="Gcommaaccent.sc" horiz-adv-x="1304" 
d="M698 -342q0 41 -38 67t-93 29v4q16 113 140 113q69 0 105 -41t36 -104q0 -191 -322 -273l-16 55q188 59 188 150zM707 -37q-301 0 -453 156q-152 155 -152 395t188 416t478 176q168 0 336 -84l8 -291h-65l-101 213q-96 74 -215 74q-211 0 -323 -133t-111 -355
q0 -222 134 -347q134 -126 333 -126q92 0 174 41v289l-164 33v59h438v-63l-98 -25v-323l-57 -27q-166 -78 -350 -78z" />
    <glyph glyph-name="Gdotaccent.sc" horiz-adv-x="1304" 
d="M711 1288q-51 0 -89 38t-38 89t38 89t89 38t89 -38t38 -89t-38 -89t-89 -38zM707 -37q-301 0 -453 156q-152 155 -152 395t188 416t478 176q168 0 336 -84l8 -291h-65l-101 213q-96 74 -215 74q-211 0 -323 -133t-111 -355q0 -222 134 -347q134 -126 333 -126
q92 0 174 41v289l-164 33v59h438v-63l-98 -25v-323l-57 -27q-166 -78 -350 -78z" />
    <glyph glyph-name="Hbar.sc" horiz-adv-x="1394" 
d="M414 760v-166h569v166h-569zM838 0v70l145 39v393h-569v-393l143 -39v-70h-471v70l145 39v651h-165v84h165v121l-145 43v67h471v-67l-143 -43v-121h569v121l-145 43v67h471v-67l-146 -43v-121h166v-84h-166v-651l146 -39v-70h-471z" />
    <glyph glyph-name="Hcircumflex.sc" horiz-adv-x="1394" 
d="M530 1210h-96l207 420h117l207 -420h-101l-170 269zM838 0v70l145 39v393h-569v-393l143 -39v-70h-471v70l145 39v856l-145 43v67h471v-67l-143 -43v-371h569v371l-145 43v67h471v-67l-146 -43v-856l146 -39v-70h-471z" />
    <glyph glyph-name="Idotaccent.sc" horiz-adv-x="643" 
d="M324 1298q-53 0 -91 37q-37 37 -36 90q0 53 36 91q37 36 91 36t90 -36q37 -36 37 -90t-37 -91t-90 -37zM86 0v70l145 39v856l-145 43v67h471v-67l-143 -43v-856l143 -39v-70h-471z" />
    <glyph glyph-name="Iacute.sc" horiz-adv-x="643" 
d="M553 1630v-39l-203 -381h-84l123 420h164zM86 0v70l145 39v856l-145 43v67h471v-67l-143 -43v-856l143 -39v-70h-471z" />
    <glyph glyph-name="Ibreve.sc" horiz-adv-x="643" 
d="M313 1243q-240 0 -254 332h74q15 -87 65 -147t129 -60t126 60t61 147h72q-6 -160 -69 -246t-204 -86zM86 0v70l145 39v856l-145 43v67h471v-67l-143 -43v-856l143 -39v-70h-471z" />
    <glyph glyph-name="Icircumflex.sc" horiz-adv-x="643" 
d="M156 1210h-97l207 420h117l207 -420h-101l-170 269zM86 0v70l145 39v856l-145 43v67h471v-67l-143 -43v-856l143 -39v-70h-471z" />
    <glyph glyph-name="Idieresis.sc" horiz-adv-x="643" 
d="M86 0v70l145 39v856l-145 43v67h471v-67l-143 -43v-856l143 -39v-70h-471zM510 1323q-47 0 -82 34t-35 81t35 82q35 34 82 34t82 -34t35 -82q0 -47 -35 -81t-82 -34zM131 1323q-47 0 -81 34t-34 81t34 82q34 34 81 34t82 -34t35 -82q0 -47 -35 -81t-82 -34z" />
    <glyph glyph-name="Igrave.sc" horiz-adv-x="643" 
d="M82 1630h164l125 -420h-84l-205 381v39zM86 0v70l145 39v856l-145 43v67h471v-67l-143 -43v-856l143 -39v-70h-471z" />
    <glyph glyph-name="Imacron.sc" horiz-adv-x="643" 
d="M84 1366v123h475v-123h-475zM86 0v70l145 39v856l-145 43v67h471v-67l-143 -43v-856l143 -39v-70h-471z" />
    </font>
</defs>
</svg>
