<?xml version="1.0" standalone="no"?>
<!DOCTYPE svg PUBLIC "-//W3C//DTD SVG 1.1//EN" "http://www.w3.org/Graphics/SVG/1.1/DTD/svg11.dtd" >
<svg xmlns="http://www.w3.org/2000/svg">
<metadata>
Created by FontPrep 20130207 at Tue Jul  1 22:44:46 2014
 By Callum Flack
(c)2009 Kai Bernau and Commercial Type.
</metadata>
<defs>
<font id="4bc875fe59f650df25cb65ba0ff6caaa" >
  <font-face 
    font-family="LyonText-RegularItalic"
    font-weight="400"
    font-style="italic"
    font-stretch="normal"
    units-per-em="2048"
    panose-1="2 0 5 3 7 0 0 9 0 4"
    ascent="1556"
    descent="-492"
    x-height="991"
    cap-height="1360"
    bbox="-369 -547 2523.01 2247"
    underline-thickness="102"
    underline-position="-102"
    slope="-12"
    unicode-range="U+0020-FB04"
  />
<missing-glyph horiz-adv-x="1024" 
 />
    <glyph glyph-name="f_f" unicode="ff" horiz-adv-x="1234" 
d="M903 940q43 158 127 285q-41 45 -101 81t-112 35q-201 0 -321 -401h407zM896 1438q130 0 224 -99q172 188 363 189q72 0 125 -35t53 -81t-64 -126q-51 55 -119 93t-126 38q-150 0 -273 -477h264l-20 -90h-264q-6 -25 -15 -64l-143 -684q-29 -138 -78 -246
q-83 -181 -205 -260q-89 -57 -152 -57q-62 0 -108 32q-45 32 -45 85q-1 28 15 58t37 44q129 -118 183 -118t86 72t64 235l183 903h-410l-172 -819q-29 -139 -78 -247t-99 -166t-122 -104t-136 -46q-63 0 -108 32t-45 84q0 27 16 58q15 31 35 45q130 -119 184 -119t86 73
t64 234l195 959l2 16h-176l12 90h188q43 127 118 228q75 100 159 156q172 114 302 114z" />
    <glyph glyph-name="f_i" unicode="fi" horiz-adv-x="1189" 
d="M977 1528q72 0 125 -35t53 -81t-63 -126q-51 55 -119 93t-110 38t-78 -18q-36 -17 -88 -63q-115 -101 -203 -396h428l51 53h69l-202 -866l6 -2q62 19 122 75t101 126l41 -13q-40 -119 -148 -227t-181 -109q-73 1 -97 55t0 152l162 666h-375q-4 -16 -14 -64l-158 -755
q-29 -139 -78 -247t-99 -166t-122 -104t-136 -46q-63 0 -108 32t-45 84q0 27 16 58q15 31 35 45q130 -119 184 -119t86 73t64 234l197 975h-176l12 90h186q74 236 268 412t394 176z" />
    <glyph glyph-name="f_l" unicode="fl" horiz-adv-x="1144" 
d="M770 1419q-164 0 -278 -479h368l101 403q-89 76 -191 76zM772 -23q-72 1 -96 55t0 152l162 666h-367l-172 -819q-29 -139 -78 -247t-99 -166t-122 -104t-136 -46q-63 0 -108 32t-45 84q0 27 16 58q15 31 35 45q130 -119 184 -119t86 73t64 234l197 975h-176l12 90h186
q43 164 124 288t166 184q164 116 262 116q97 0 145 -47l151 47l-332 -1401l7 -2q62 19 122 75t101 126l41 -13q-39 -119 -148 -227q-110 -108 -182 -109z" />
    <glyph glyph-name="f_f_i" unicode="ffi" horiz-adv-x="1779" 
d="M817 1341q-205 0 -321 -401h407q49 150 139 270q-40 47 -104 89t-121 42zM899 1438q71 0 137 -36t101 -81q207 207 428 207q72 0 125 -35t53 -81t-64 -126q-51 55 -119 93t-109 38q-42 0 -78 -18q-36 -17 -88 -63q-113 -99 -204 -396h459l51 53h70l-203 -866l6 -2
q62 19 122 75t102 126l41 -13q-39 -119 -148 -227t-181 -109q-72 1 -98 55q-24 54 1 152l161 666h-405q-4 -16 -15 -64l-143 -684q-29 -138 -78 -246q-83 -181 -205 -260q-89 -57 -152 -57q-62 0 -108 32q-45 32 -45 85q-1 28 15 58t37 44q129 -118 183 -118t86 72t64 235
l183 903h-410l-172 -819q-29 -139 -78 -247t-99 -166t-122 -104t-136 -46q-63 0 -108 32t-45 84q0 27 16 58q15 31 35 45q130 -119 184 -119t86 73t64 234l195 959l2 16h-176l12 90h188q43 127 118 228q75 100 159 156q172 114 305 114z" />
    <glyph glyph-name="f_f_l" unicode="ffl" horiz-adv-x="1732" 
d="M817 1341q-205 0 -321 -401h405q41 152 127 285q-42 45 -100 81t-111 35zM1358 1419q-164 0 -279 -479h369l100 403q-88 76 -190 76zM896 1438q130 0 222 -97q90 95 186 141t150 46q98 0 145 -47l152 47l-332 -1401l6 -2q63 19 123 75t101 126l41 -13q-39 -119 -148 -227
q-110 -108 -182 -109q-72 1 -96 55t0 152l161 666h-366l-158 -748q-29 -138 -78 -246q-83 -181 -205 -260q-89 -57 -152 -57q-62 0 -108 32q-45 32 -45 85q-1 28 15 58t37 44q129 -118 183 -118t86 72t64 235l183 903h-410l-172 -819q-29 -139 -78 -247t-99 -166t-122 -104
t-136 -46q-63 0 -108 32t-45 84q0 27 16 58q15 31 35 45q130 -119 184 -119t86 73t64 234l195 959l2 16h-176l12 90h188q43 127 118 228q75 100 159 156q172 114 302 114z" />
    <glyph glyph-name="f_b" unicode="fb" horiz-adv-x="1630" 
d="M991 39q90 0 181 111q92 112 148 268t56 262t-28 136t-66 30q-76 0 -168 -104t-158 -236t-90 -234l-26 -106q14 -47 54 -87t97 -40zM1567 722q0 -136 -80 -314q-80 -176 -222 -308t-302 -131q-160 0 -281 135l-18 21l294 1218q-84 76 -188 76q-164 0 -278 -479h192
l-20 -90h-193l-172 -819q-29 -139 -78 -247t-99 -166t-122 -104t-136 -46q-63 0 -108 32t-45 84q0 27 16 58q15 31 35 45q130 -119 184 -119t86 73t64 234l197 975h-176l12 90h186q43 164 124 288t166 184q164 116 260 116q95 0 147 -45l155 45l-227 -926h10q80 154 197 272
t217 119q203 1 203 -271z" />
    <glyph glyph-name="f_f_b" unicode="ffb" horiz-adv-x="2217" 
d="M817 1341q-205 0 -321 -401h405q41 152 127 285q-42 45 -100 81t-111 35zM1579 39q90 0 181 111q92 112 148 268t56 262t-29 136t-65 30q-76 0 -168 -104t-158 -236t-90 -234l-27 -106q15 -47 55 -87t97 -40zM1952 993q202 1 202 -271q0 -136 -80 -314
q-80 -176 -222 -308t-302 -131q-160 0 -280 135l-19 21l295 1218q-84 76 -188 76q-164 0 -279 -479h193l-21 -90h-192l-158 -748q-29 -138 -78 -246q-83 -181 -205 -260q-89 -57 -152 -57q-62 0 -108 32q-45 32 -45 85q-1 28 15 58t37 44q129 -118 183 -118t86 72t64 235
l183 903h-410l-172 -819q-29 -139 -78 -247t-99 -166t-122 -104t-136 -46q-63 0 -108 32t-45 84q0 27 16 58q15 31 35 45q130 -119 184 -119t86 73t64 234l195 959l2 16h-176l12 90h188q43 127 118 228q75 100 159 156q172 114 302 114t222 -97q90 95 186 141t170 46
t125 -45l156 45l-227 -926h10q80 154 197 272t217 119z" />
    <glyph glyph-name="f_f_h" unicode="ffh" horiz-adv-x="2273" 
d="M817 1341q-205 0 -321 -401h405q41 152 127 285q-42 45 -100 81t-111 35zM896 1438q130 0 222 -97q90 95 186 141t172 46q74 0 126 -47l155 47l-244 -993h9q213 332 366 416q72 40 140 40q145 0 92 -217l-162 -647l6 -2q125 37 221 201l41 -13q-38 -119 -146 -227
t-182 -109q-74 1 -100 55t2 154l154 574q20 82 -39 82q-78 0 -188 -128q-111 -128 -195 -301t-111 -307l-18 -92l-154 -43l-26 27l323 1345q-84 76 -188 76q-164 0 -279 -479h193l-21 -90h-192l-158 -748q-29 -138 -78 -246q-83 -181 -205 -260q-89 -57 -152 -57
q-62 0 -108 32q-45 32 -45 85q-1 28 15 58t37 44q129 -118 183 -118t86 72t64 235l183 903h-410l-172 -819q-29 -139 -78 -247t-99 -166t-122 -104t-136 -46q-63 0 -108 32t-45 84q0 27 16 58q15 31 35 45q130 -119 184 -119t86 73t64 234l195 959l2 16h-176l12 90h188
q43 127 118 228q75 100 159 156q172 114 302 114z" />
    <glyph glyph-name="f_f_j" unicode="ffj" horiz-adv-x="1697" 
d="M817 1341q-205 0 -321 -401h407q49 150 139 270q-40 47 -104 89t-121 42zM899 1438q71 0 137 -36t101 -81q207 207 428 207q72 0 125 -35t53 -81t-64 -126q-51 55 -119 93t-109 38q-42 0 -78 -18q-36 -17 -88 -63q-113 -99 -204 -396h459l51 53h70l-170 -821
q-51 -242 -180 -402t-273 -159q-47 0 -93 30q-46 31 -46 71t16 72t39 46q122 -119 178 -119t88 70t70 237l174 832h-405q-4 -16 -15 -64l-143 -684q-29 -138 -78 -246q-83 -181 -205 -260q-89 -57 -152 -57q-62 0 -108 32q-45 32 -45 85q0 28 16 58t36 44q129 -118 183 -118
t86 72t64 235l183 903h-410l-172 -819q-29 -139 -78 -247t-99 -166t-122 -104t-136 -46q-63 0 -108 32t-45 84q0 27 16 58q15 31 35 45q130 -119 184 -119t86 73t64 234l195 959l2 16h-176l12 90h188q43 127 118 228q75 100 159 156q172 114 305 114z" />
    <glyph glyph-name="f_f_k" unicode="ffk" horiz-adv-x="2162" 
d="M1896 850q-92 0 -210 -145t-199 -334q219 59 349 179t130 222q0 78 -70 78zM817 1341q-205 0 -321 -401h405q41 152 127 285q-42 45 -100 81t-111 35zM896 1438q130 0 222 -97q90 95 186 141t170 46t125 -45l154 45l-225 -944h10q111 195 213 301t219 106q74 0 117 -47
t43 -117q0 -147 -144 -270t-337 -186l436 -418v-10q-29 -25 -89 -25t-102 25q-41 25 -114 98l-303 305q-37 -98 -54 -184l-26 -150l-150 -41l-26 27l325 1345q-84 76 -188 76q-164 0 -279 -479h193l-21 -90h-192l-158 -748q-29 -138 -78 -246q-83 -181 -205 -260
q-89 -57 -152 -57q-62 0 -108 32q-45 32 -45 85q-1 28 15 58t37 44q129 -118 183 -118t86 72t64 235l183 903h-410l-172 -819q-29 -139 -78 -247t-99 -166t-122 -104t-136 -46q-63 0 -108 32t-45 84q0 27 16 58q15 31 35 45q130 -119 184 -119t86 73t64 234l195 959l2 16
h-176l12 90h188q43 127 118 228q75 100 159 156q172 114 302 114z" />
    <glyph glyph-name="f_h" unicode="fh" horiz-adv-x="1679" 
d="M1434 991q145 0 92 -217l-162 -647l6 -2q125 37 221 201l41 -13q-38 -119 -146 -227t-182 -109q-74 1 -99 55q-26 54 1 154l154 574q20 82 -39 82q-77 0 -187 -128t-195 -301t-112 -307l-18 -92l-154 -43l-26 27l325 1350q-84 72 -184 71q-164 0 -278 -479h192l-20 -90
h-193l-172 -819q-29 -139 -78 -247t-99 -166t-122 -104t-136 -46q-63 0 -108 32t-45 84q0 27 16 58q15 31 35 45q130 -119 184 -119t86 73t64 234l197 975h-176l12 90h186q43 164 124 288t166 184q164 116 261 116q96 0 146 -45l151 45l-243 -993h8q213 332 366 416
q72 40 140 40z" />
    <glyph glyph-name="f_j" unicode="fj" horiz-adv-x="1191" 
d="M-159 -532q-40 0 -85 32t-45 84q0 27 16 58q15 31 35 45q130 -119 184 -119t86 73t64 234l197 975h-176l12 90h186q74 236 268 412t394 176q72 0 125 -35t53 -81t-63 -126q-51 55 -119 93t-110 38t-78 -18q-36 -17 -88 -63q-115 -101 -203 -396h458l52 53h69l-184 -893
q-57 -244 -184 -402t-269 -159q-47 0 -93 30t-46 71q0 85 55 118q123 -118 178 -118t87 70t71 237l189 903h-406q-4 -16 -14 -64l-158 -755q-29 -139 -78 -247t-99 -166t-122 -104t-159 -46z" />
    <glyph glyph-name="f_k" unicode="fk" horiz-adv-x="1572" 
d="M1307 850q-92 0 -211 -145t-199 -334q219 59 349 179t130 222q1 78 -69 78zM1406 -82q-60 0 -102 25q-40 25 -114 98l-303 305q-37 -98 -53 -184l-27 -150l-150 -41l-26 27l325 1348q-86 74 -186 73q-164 0 -278 -479h192l-20 -90h-193l-172 -819q-29 -139 -78 -247
t-99 -166t-122 -104t-136 -46q-63 0 -108 32t-45 84q0 27 16 58q15 31 35 45q130 -119 184 -119t86 73t64 234l197 975h-176l12 90h186q43 164 124 288t166 184q164 116 260 116q95 0 147 -45l151 45l-225 -944h10q111 195 213 301t219 106q74 0 117 -47t43 -117
q0 -147 -144 -270t-337 -186l436 -418v-10q-29 -25 -89 -25z" />
    <glyph glyph-name=".notdef" horiz-adv-x="1024" 
 />
    <glyph glyph-name=".null" horiz-adv-x="0" 
 />
    <glyph glyph-name="nonmarkingreturn" horiz-adv-x="681" 
 />
    <glyph glyph-name="space" unicode=" " horiz-adv-x="393" 
 />
    <glyph glyph-name="exclam" unicode="!" horiz-adv-x="593" 
d="M225 -8q-51 0 -88 37t-37 88t37 88t88 37t88 -37t37 -88t-37 -88t-88 -37zM375 1423h200l-256 -1028h-92z" />
    <glyph glyph-name="quotedbl" unicode="&#x22;" horiz-adv-x="804" 
d="M633 1034l45 590h229l-217 -590h-57zM256 1034l47 590h229l-217 -590h-59z" />
    <glyph glyph-name="numbersign" unicode="#" horiz-adv-x="1214" 
d="M526 784l-133 -356h297l133 356h-297zM211 784l25 119h219l118 314h115l-117 -314h295l119 314h115l-117 -314h215l-24 -119h-236l-133 -356h209l-25 -119h-229l-115 -309h-115l115 309h-295l-114 -309h-117l114 309h-206l24 119h228l133 356h-201z" />
    <glyph glyph-name="dollar" unicode="$" horiz-adv-x="1187" 
d="M602 1179q-63 -63 -66 -142q-4 -79 24 -127t122 -105l86 444q-102 -8 -166 -70zM879 322q6 139 -164 243l-101 -504q106 10 184 76q77 66 81 185zM199 420h73l50 -285q92 -63 213 -76l108 545l-45 27q-119 63 -178 136q-58 73 -56 197t120 231q118 108 300 128l56 283h82
l-56 -277q106 -2 301 -55l-57 -342h-63l-52 246q-63 57 -145 69l-96 -483q176 -96 246 -177t68 -221q-3 -140 -141 -250t-327 -132l-47 -240h-80l45 233q-121 0 -366 80z" />
    <glyph glyph-name="percent" unicode="%" horiz-adv-x="1830" 
d="M1296 -35q-128 0 -206 88t-78 219q0 168 127 303t288 136q127 0 205 -88t78 -220q0 -172 -125 -305t-289 -133zM1417 631q-100 0 -177 -116t-77 -275q0 -86 38 -140t104 -55q98 0 176 111t78 278q0 88 -38 142t-104 55zM395 494q-129 0 -207 88t-77 219q0 168 127 303
t288 135q127 0 205 -88t78 -219q0 -172 -125 -305t-289 -133zM516 1159q-100 0 -177 -116t-77 -275q0 -86 38 -140t103 -55q98 0 177 111q78 111 77 279q0 88 -37 142q-38 54 -104 54zM225 -102l1225 1392h131l-1225 -1392h-131z" />
    <glyph glyph-name="ampersand" unicode="&#x26;" horiz-adv-x="2068" 
d="M291 586q0 -86 20 -154l334 430q17 45 -11 90t-91 45q-90 0 -171 -104t-81 -307zM1276 985q-68 0 -104 -40q-34 -40 -34 -76q1 -77 49 -119q22 -21 51 -39q28 -18 32 -23q-31 -35 -43 -48q-39 -42 -88 -42q-20 0 -40 10q-19 10 -39 51t-20 111t38 152t123 146t187 60
t232 -88q131 -84 174 -106t76 -25q33 -2 47 21t16 67q2 96 -53 205q31 18 82 18t79 -37q28 -36 27 -81q0 -130 -99 -230t-214 -96q-80 2 -227 92q-31 -406 -251 -670t-554 -266q-262 0 -412 148q-149 148 -149 396q0 247 148 449t339 201q74 0 142 -65q219 311 253 377
l17 30h33l61 -61l-817 -1047q55 -120 170 -188q114 -68 282 -68t319 113t239 294t110 398q-114 76 -182 76z" />
    <glyph glyph-name="quotesingle" unicode="'" horiz-adv-x="430" 
d="M256 1034l47 590h229l-217 -590h-59z" />
    <glyph glyph-name="parenleft" unicode="(" horiz-adv-x="677" 
d="M465 -369h-100q-295 422 -187 973q47 236 192 468q144 232 359 427h113q-211 -225 -331 -437t-173 -478q-52 -304 -22 -516t149 -437z" />
    <glyph glyph-name="parenright" unicode=")" horiz-adv-x="677" 
d="M219 1499h100q295 -422 187 -973q-48 -236 -192 -468t-359 -427h-113q211 225 331 437t173 479q53 305 23 516q-31 211 -150 436z" />
    <glyph glyph-name="asterisk" unicode="*" horiz-adv-x="806" 
d="M846 1055l-266 -17l30 -266l-51 -12l-92 254l-246 -113l-26 43l213 166l-181 197l31 36l223 -145l133 232l43 -17l-69 -258l260 -51z" />
    <glyph glyph-name="plus" unicode="+" horiz-adv-x="1142" 
d="M1051 426h-422v-426h-127v426h-422v119h422v426h127v-426h422v-119z" />
    <glyph glyph-name="comma" unicode="," horiz-adv-x="552" 
d="M184 -20q0 117 -118 172q0 66 34 114t102 49q68 0 114 -55t46 -154q0 -156 -112 -298t-277 -193q-26 49 -28 59q119 50 179 136t60 170z" />
    <glyph glyph-name="hyphen" unicode="-" horiz-adv-x="702" 
d="M82 471l33 158h516l-31 -158h-518z" />
    <glyph glyph-name="period" unicode="." horiz-adv-x="532" 
d="M205 -8q-57 0 -100 43q-42 43 -42 100t42 99q41 42 99 42t101 -42t43 -99t-43 -100t-100 -43z" />
    <glyph glyph-name="slash" unicode="/" horiz-adv-x="995" 
d="M-70 -416l-96 47l1159 1895l94 -47z" />
    <glyph glyph-name="zero" unicode="0" horiz-adv-x="1282" 
d="M557 -31q-184 0 -314 124q-130 123 -130 351t184 414t428 186q197 0 321 -135t123 -327q0 -244 -181 -428t-431 -185zM719 961q-162 0 -283 -171t-121 -411q1 -143 61 -237t204 -93q144 0 266 164q121 164 121 412q1 152 -65 244t-183 92z" />
    <glyph glyph-name="one" unicode="1" horiz-adv-x="854" 
d="M647 1040l-184 -931l217 -33l-14 -76h-635l14 76l242 30l149 762h-262l8 86l457 86h8z" />
    <glyph glyph-name="two" unicode="2" horiz-adv-x="915" 
d="M0 0v49l199 170q255 219 333 313t78 180t-53 140q-53 55 -135 55q-106 0 -225 -129l-54 51q158 223 344 224q139 0 219 -78t78 -201q0 -124 -96 -240t-360 -311l-80 -59h553l-31 -164h-770z" />
    <glyph glyph-name="three" unicode="3" horiz-adv-x="823" 
d="M459 47q0 109 -72 181t-209 73h-16l16 102l96 41q111 49 193 124t82 158t-47 132q-46 49 -116 49q-70 -1 -118 -31t-114 -96l-52 49q154 223 336 224q125 0 205 -67q80 -68 80 -184t-81 -200t-236 -170l-21 -12q115 -29 189 -115q74 -87 73 -199q0 -218 -202 -367
q-177 -132 -453 -220l-29 69q496 195 496 459z" />
    <glyph glyph-name="four" unicode="4" horiz-adv-x="1167" 
d="M168 190h457l106 560zM512 -399l86 450h-629l11 62l929 923h45l-166 -846h308l-23 -139h-311l-86 -450h-164z" />
    <glyph glyph-name="five" unicode="5" horiz-adv-x="833" 
d="M406 136q0 108 -56 220t-227 283l178 360l502 27l-33 -170l-471 -25l-29 -61q180 -176 253 -303t73 -287q0 -438 -664 -661l-28 69q131 54 251 129q251 160 251 419z" />
    <glyph glyph-name="six" unicode="6" horiz-adv-x="1157" 
d="M610 743q-112 0 -256 -129q-47 -123 -47 -256q0 -317 213 -317q133 0 225 124t93 316q0 117 -58 189t-170 73zM1030 471q0 -189 -141 -351t-389 -161q-170 0 -279 117t-109 300t75 341q75 157 187 267t266 203t291 148q136 55 283 99l15 -68q-340 -134 -603 -374
q-153 -140 -233 -294h4q135 139 299 140q130 0 232 -89t102 -278z" />
    <glyph glyph-name="seven" unicode="7" horiz-adv-x="1003" 
d="M63 -420l-120 60l837 1206h-663l35 180h852l-3 -18l-741 -1114z" />
    <glyph glyph-name="eight" unicode="8" horiz-adv-x="1048" 
d="M455 1060q0 -114 125 -235l59 -59q219 178 219 352q0 84 -46 135t-129 51t-155 -64q-72 -66 -73 -180zM254 276q0 -100 54 -168t169 -67q115 0 181 79t65 173q0 55 -32 113t-56 84t-94 98l-49 47q-122 -88 -180 -174q-58 -85 -58 -185zM72 236q0 190 177 324
q84 64 195 122l-53 53q-61 61 -88 119t-27 143q0 141 128 267t288 127q160 0 252 -78t92 -201q0 -193 -346 -397l41 -39q63 -61 92 -94t56 -87t26 -112q0 -182 -142 -303q-141 -121 -317 -121t-275 75t-99 202z" />
    <glyph glyph-name="nine" unicode="9" horiz-adv-x="1157" 
d="M539 258q135 0 252 115q59 145 59 291q0 303 -213 303q-127 0 -222 -124t-96 -306q0 -129 59 -204t161 -75zM469 162q-185 0 -285 159q-57 91 -57 215t60 236q59 112 187 195q128 82 291 82t271 -115t108 -292t-72 -336q-72 -160 -185 -274q-115 -114 -267 -209
q-268 -167 -598 -255l-14 74q266 96 488 257t341 365h-2q-127 -102 -266 -102z" />
    <glyph glyph-name="colon" unicode=":" horiz-adv-x="532" 
d="M339 678q-58 0 -100 43t-42 100t42 99t99 43q57 0 100 -42q43 -43 43 -101t-42 -100t-100 -42zM205 -8q-57 0 -100 43q-42 43 -42 100t42 99q41 42 99 42t101 -42t43 -99t-43 -100t-100 -43z" />
    <glyph glyph-name="semicolon" unicode=";" horiz-adv-x="544" 
d="M332 678q-57 0 -100 43q-42 43 -42 100t42 99t100 43q58 0 100 -42q43 -43 43 -101t-43 -100t-100 -42zM178 -20q0 117 -119 172q0 66 34 114t103 49q68 0 114 -55t46 -154q0 -156 -112 -298t-277 -193l-28 59q119 50 179 136t60 170z" />
    <glyph glyph-name="less" unicode="&#x3c;" horiz-adv-x="1142" 
d="M1047 862l-826 -379l826 -372v-140l-967 451v121l967 450v-131z" />
    <glyph glyph-name="equal" unicode="=" horiz-adv-x="1142" 
d="M80 301v113h971v-113h-971zM80 600v113h971v-113h-971z" />
    <glyph glyph-name="greater" unicode="&#x3e;" horiz-adv-x="1142" 
d="M82 106l825 377l-825 371v139l967 -450v-121l-967 -451v135z" />
    <glyph glyph-name="question" unicode="?" horiz-adv-x="817" 
d="M225 -8q-51 0 -88 37t-37 88t37 88t88 37t88 -37t37 -88t-37 -88t-88 -37zM807 899q0 -242 -215 -283l-217 -38l-58 -183h-94l64 346l258 39q164 25 164 150q0 152 -342 254l-48 14l29 211l66 -23q152 -53 272 -184t121 -303z" />
    <glyph glyph-name="at" unicode="@" horiz-adv-x="1896" 
d="M793 158q75 0 231 221t193 340l22 72q-59 74 -131 73q-127 0 -254 -206t-127 -404q0 -96 66 -96zM705 16q-82 0 -125 50t-45 129q-2 172 105 351q108 179 256 289t271 109q88 0 146 -49l18 74h121l-199 -656q-33 -125 -17 -174t73 -49q127 0 264 166t137 416t-175 423
t-445 173q-330 0 -564 -253t-233 -624q1 -315 193 -492t499 -178q139 0 293 37v-51q-178 -68 -389 -67q-344 0 -550 200t-206 512q0 205 87 391q170 364 545 524q179 77 361 76q330 0 520 -192q189 -193 189 -465q0 -141 -54 -269q-55 -128 -139 -214t-185 -136
q-101 -51 -207 -51t-158 74t-7 217l27 84h-12q-10 -12 -40 -59t-50 -76q-164 -240 -305 -240z" />
    <glyph glyph-name="A" unicode="A" horiz-adv-x="1380" 
d="M756 1186l-310 -580h394l-82 580h-2zM-84 0l12 66l119 47l723 1247l68 10l71 21l187 -1285l127 -40l-13 -66h-489l14 68l174 47l-53 368h-475l-193 -360l183 -55l-15 -68h-440z" />
    <glyph glyph-name="B" unicode="B" horiz-adv-x="1232" 
d="M600 1286l-104 -522h157q141 14 226 89q84 75 84 198q-1 249 -363 235zM589 76q135 0 239 74t104 230q0 158 -128 230t-325 78l-108 -551q84 -61 218 -61zM1137 397q-1 -197 -177 -302t-473 -101l-495 6l14 68l172 47l221 1126l-153 53l12 66l438 2q236 2 351 -83
t115 -214t-125 -224q-124 -95 -287 -114v-4q162 -20 274 -101t113 -225z" />
    <glyph glyph-name="C" unicode="C" horiz-adv-x="1443" 
d="M739 -35q-274 0 -449 160t-175 469q0 141 58 280q59 139 165 256t277 189t365 72t388 -109l-35 -364h-71l-58 296q-108 88 -272 88t-306 -112q-142 -113 -215 -277t-71 -333q2 -262 116 -394t310 -133q137 0 252 64l203 313h73l-110 -369l-102 -34q-184 -62 -343 -62z
" />
    <glyph glyph-name="D" unicode="D" horiz-adv-x="1521" 
d="M1475 756q0 -222 -123 -400t-323 -271t-435 -91l-584 6l15 68l172 47l221 1126l-154 53l12 66l422 4q367 4 572 -156t205 -452zM616 1288l-206 -1046q-18 -94 34 -130t150 -34q223 2 380 103q290 186 294 581q2 258 -172 392q-175 134 -480 134z" />
    <glyph glyph-name="E" unicode="E" horiz-adv-x="1234" 
d="M748 657h-275l-108 -561h495l180 271h74l-94 -367h-1028l12 68l176 47l221 1124l-155 55l12 66h817l152 8l-88 -362h-70l-18 262h-457l-100 -516h272l92 168h62l-84 -418h-68z" />
    <glyph glyph-name="F" unicode="F" horiz-adv-x="1191" 
d="M758 653h-285l-106 -538l190 -39l-14 -76h-551l12 68l174 47l221 1124l-153 55l12 66h815l156 8l-82 -362h-70l-20 262h-465l-103 -520h287l86 167h64l-88 -446h-62z" />
    <glyph glyph-name="G" unicode="G" horiz-adv-x="1445" 
d="M775 53q208 0 245 189l49 254l-174 41l12 59h479l-14 -68l-115 -32l-81 -416q-16 -6 -94 -41q-162 -72 -343 -74q-274 0 -449 160t-175 471q0 144 61 286q133 309 449 439q168 70 356 70t379 -107l-35 -354h-72l-59 289q-114 84 -274 84t-302 -112t-214 -277
q-73 -165 -70 -334q2 -262 118 -394t323 -133z" />
    <glyph glyph-name="H" unicode="H" horiz-adv-x="1562" 
d="M823 0l13 68l176 47l106 547h-645l-106 -547l155 -49l-12 -66h-518l14 68l170 47l223 1126l-153 53l12 66h520l-10 -66l-180 -53l-96 -483h645l96 483l-154 53l13 66h520l-13 -66l-176 -53l-223 -1126l156 -49l-13 -66h-520z" />
    <glyph glyph-name="I" unicode="I" horiz-adv-x="727" 
d="M-8 0l14 68l170 47l223 1126l-153 53l12 66h518l-12 -66l-176 -53l-223 -1126l155 -49l-12 -66h-516z" />
    <glyph glyph-name="J" unicode="J" horiz-adv-x="708" 
d="M639 1241l-223 -1137q-51 -258 -174 -392t-361 -158l-10 63q172 66 242 168t108 295l232 1163l-177 43l15 74h536l-12 -66z" />
    <glyph glyph-name="K" unicode="K" horiz-adv-x="1351" 
d="M1264 45l-19 -65q-219 0 -310 85q-100 93 -328 505q-13 24 -36 63t-43 74l2 18l76 35l529 495l-154 39l12 66h443l-11 -66l-157 -45l-555 -499q293 -473 327 -525q90 -127 170 -162q23 -10 54 -18zM-8 0l12 68l174 47l221 1126l-153 53l12 66h520l-12 -66l-176 -53
l-223 -1126l155 -49l-12 -66h-518z" />
    <glyph glyph-name="L" unicode="L" horiz-adv-x="1196" 
d="M367 96h434l190 312h72l-109 -408h-962l14 68l170 47l223 1124l-153 55l12 66h555l-12 -66l-211 -53z" />
    <glyph glyph-name="M" unicode="M" horiz-adv-x="1804" 
d="M-53 0l14 68l170 47l285 1126l-152 53l12 66h388l200 -995l566 995h395l-13 -66l-176 -53l-161 -1126l155 -49l-12 -66h-526l14 68l180 47l166 1091l-590 -1028l-57 -108h-74l-14 108l-217 1016l-258 -1071l200 -55l-14 -68h-481z" />
    <glyph glyph-name="N" unicode="N" horiz-adv-x="1519" 
d="M1169 -23h-71l-615 1141l-194 -989l227 -61l-14 -68h-510l12 68l172 47l219 1106l-168 73l11 66h335l545 -1016l174 887l-229 61l14 68h512l-14 -68l-174 -51l-189 -962z" />
    <glyph glyph-name="O" unicode="O" horiz-adv-x="1509" 
d="M1249 866q0 188 -88 311q-89 123 -247 123t-294 -110t-222 -299q-86 -188 -85 -392q0 -204 86 -328t258 -124t313 133q140 134 210 316t69 370zM946 1391q203 0 356 -160t152 -418q0 -153 -57 -305q-125 -332 -425 -474q-162 -77 -360 -77t-351 160t-152 420
q0 150 54 299q120 334 418 477q162 78 365 78z" />
    <glyph glyph-name="P" unicode="P" horiz-adv-x="1181" 
d="M995 1014q0 129 -96 205t-297 67l-235 -1171l235 -47l-12 -68h-598l10 68l176 47l221 1126l-155 53l12 66h504q196 -6 324 -93t128 -253q0 -136 -101 -232q-191 -182 -552 -168l19 72q287 7 380 170q37 66 37 158z" />
    <glyph glyph-name="Q" unicode="Q" horiz-adv-x="1507" 
d="M1249 866q0 188 -88 311q-89 123 -247 123t-294 -110t-222 -299q-86 -188 -85 -392q0 -204 86 -328t258 -124t313 133q140 134 210 316t69 370zM946 1391q203 0 356 -160t152 -418q0 -184 -82 -361q-82 -176 -246 -310t-374 -165q201 -166 272 -208q164 -98 367 -99
q143 0 344 123l28 -45q-67 -57 -115 -94t-146 -79t-192 -42q-255 0 -508 188q-139 105 -321 273q-160 51 -266 196t-106 347q0 150 54 299q120 334 418 477q162 78 365 78z" />
    <glyph glyph-name="R" unicode="R" horiz-adv-x="1349" 
d="M985 1020q0 136 -95 206t-292 62l-113 -567q246 -8 373 77t127 222zM743 1360q205 0 332 -81t127 -220q0 -231 -269 -336q-65 -25 -138 -39q211 -403 287 -511t188 -130l-17 -61q-169 0 -257 51t-185 233q-65 120 -193 377h-147l-104 -528l213 -54l-11 -61h-577l12 68
l174 47l221 1126l-153 53l14 66h483z" />
    <glyph glyph-name="S" unicode="S" horiz-adv-x="1058" 
d="M457 47q123 0 209 71t90 216q-2 82 -49 145t-170 139l-64 39q-123 76 -181 153t-59 187q1 164 141 279t345 115q109 0 325 -52l-92 -376h-80v284q-92 63 -206 63t-187 -68q-73 -69 -73 -154t32 -138t135 -119l70 -45q166 -108 234 -186t67 -194q0 -190 -159 -316
t-369 -125q-86 1 -134 11q-148 32 -255 67l55 403h78l39 -319q135 -80 258 -80z" />
    <glyph glyph-name="T" unicode="T" horiz-adv-x="1325" 
d="M375 1360h864l133 16l-84 -370h-69l-23 262h-324l-225 -1153l172 -47l-14 -68h-555l14 68l195 47l225 1153h-301l-127 -262h-70l62 370z" />
    <glyph glyph-name="U" unicode="U" horiz-adv-x="1474" 
d="M631 -49q-231 0 -353 144q-121 144 -65 478l135 668l-155 53l12 66h526l-12 -66l-176 -53l-142 -711q-43 -221 36 -342q79 -120 247 -120t290 116t171 389l119 664l-222 57l13 66h512l-13 -66l-174 -53l-129 -688q-55 -291 -222 -447t-398 -155z" />
    <glyph glyph-name="V" unicode="V" horiz-adv-x="1312" 
d="M485 -25l-227 1272l-117 47l13 66h493l-12 -66l-176 -53l162 -999h2l540 999l-213 49l15 70h471l-13 -66l-129 -43l-727 -1276h-82z" />
    <glyph glyph-name="W" unicode="W" horiz-adv-x="1886" 
d="M1126 -14l-120 960l-510 -960h-111l-125 1261l-119 47l15 66h495l-14 -66l-178 -53l80 -993l448 858l-16 135l-158 53l14 66h525l-15 -70l-172 -49l109 -987l459 985l-211 51l12 70h475l-14 -66l-131 -43l-625 -1265h-113z" />
    <glyph glyph-name="X" unicode="X" horiz-adv-x="1501" 
d="M-8 0l14 68l150 45l536 573l-256 555l-135 53l12 66h531l-13 -66l-178 -53l189 -420h4l346 402l-164 67l14 70h471l-12 -66l-155 -53l-465 -504l284 -622l129 -47l-14 -68h-518l14 68l172 47l-217 489h-4l-418 -485l156 -51l-14 -68h-459z" />
    <glyph glyph-name="Y" unicode="Y" horiz-adv-x="1284" 
d="M1268 1249l-520 -704l-86 -430l176 -47l-15 -68h-557l15 68l192 47l80 403l-260 731l-113 45l13 66h493l-12 -66l-180 -43l202 -620h6l435 610l-174 53l14 66h422l-13 -66z" />
    <glyph glyph-name="Z" unicode="Z" horiz-adv-x="1224" 
d="M-31 0v51l1035 1215h-558l-157 -285h-70l88 391l144 -12h841v-21l-1054 -1243h598l190 312h72l-123 -418l-150 10h-856z" />
    <glyph glyph-name="bracketleft" unicode="[" horiz-adv-x="696" 
d="M408 -371h-357l371 1872h354l-14 -80h-195l-338 -1712h195z" />
    <glyph glyph-name="backslash" unicode="\" horiz-adv-x="960" 
d="M778 -391l-98 -21l-414 1899l103 22z" />
    <glyph glyph-name="bracketright" unicode="]" horiz-adv-x="696" 
d="M270 1501h355l-371 -1872h-352l16 80h195l338 1712h-197z" />
    <glyph glyph-name="asciicircum" unicode="^" horiz-adv-x="860" 
d="M231 958h-96l402 590h120l185 -590h-90l-179 461z" />
    <glyph glyph-name="underscore" unicode="_" horiz-adv-x="835" 
d="M-143 -420l24 121h776l-22 -121h-778z" />
    <glyph glyph-name="grave" unicode="`" horiz-adv-x="819" 
d="M293 1548h147l84 -420h-90l-141 381v39z" />
    <glyph glyph-name="a" unicode="a" horiz-adv-x="1097" 
d="M313 125q59 0 162 117q102 117 187 260q84 143 110 231l25 78q-63 82 -141 82t-175 -98q-96 -98 -166 -257t-69 -309q-1 -104 67 -104zM713 975q86 0 145 -39l19 70h124l-233 -879l6 -2q62 17 122 75t99 126l41 -13q-45 -127 -148 -231t-176 -104t-97 56t12 175l61 211
h-6q-10 -14 -81 -120t-114 -160t-121 -111t-151 -57q-74 0 -118 54t-46 138q-2 182 104 375q105 193 262 315t296 121z" />
    <glyph glyph-name="b" unicode="b" horiz-adv-x="1036" 
d="M397 39q90 0 182 111q91 112 147 268t56 262t-28 136t-66 30q-76 0 -168 -104t-158 -236t-90 -234l-26 -106q14 -47 54 -87t97 -40zM973 722q0 -136 -80 -314q-80 -176 -222 -308t-302 -131q-160 0 -281 135l-18 21l303 1253l-121 49l14 46l307 55l-227 -926h10
q80 154 197 272t217 119q203 1 203 -271z" />
    <glyph glyph-name="c" unicode="c" horiz-adv-x="843" 
d="M264 311q0 -205 133 -205q63 0 159 68t161 160l37 -25q-56 -109 -184 -223t-242 -115q-114 0 -185 83q-69 82 -69 226t82 312t238 285t261 116q76 0 135 -30q58 -31 58 -66q0 -68 -40 -125q-13 -20 -17 -20q-17 9 -55 36q-125 91 -197 91q-99 0 -187 -198t-88 -370z" />
    <glyph glyph-name="d" unicode="d" horiz-adv-x="1136" 
d="M637 928q-92 0 -182 -112q-89 -112 -141 -262t-52 -294q0 -142 78 -141q90 0 244 222q153 222 194 398l17 72q-27 45 -72 81t-86 36zM659 993q82 0 168 -47l107 432l-121 49l14 46l301 55l-333 -1401l6 -2q63 19 123 75t100 126l41 -13q-39 -119 -147 -227t-185 -109
q-145 0 -84 232l49 188h-6q-10 -12 -98 -145t-169 -207t-169 -74q-88 1 -140 61t-53 177q0 176 79 356t220 304t297 124z" />
    <glyph glyph-name="e" unicode="e" horiz-adv-x="827" 
d="M596 918q-82 0 -180 -115t-144 -275q131 18 252 120t121 208q0 62 -49 62zM318 -23q-124 -1 -186 87t-62 208q0 366 306 608q144 114 269 113q170 0 170 -143q0 -136 -162 -242t-395 -137q-10 -66 -10 -121q0 -240 139 -239q69 0 139 49t115 114l41 -24
q-40 -90 -140 -182t-224 -91z" />
    <glyph glyph-name="f" unicode="f" horiz-adv-x="647" 
d="M895 1528q72 0 125 -35t53 -81t-63 -126q-51 55 -119 93t-127 38q-150 0 -272 -477h264l-21 -90h-264q-6 -25 -14 -64l-158 -755q-29 -139 -78 -247t-99 -166t-122 -104t-136 -46q-63 0 -108 32t-45 84q0 27 16 58q15 31 35 45q130 -119 184 -119t86 73t64 234l197 975
h-176l12 90h186q70 250 235 419t345 169z" />
    <glyph glyph-name="g" unicode="g" horiz-adv-x="860" 
d="M254 475q0 -147 90 -147q100 -2 185 154t85 306q0 59 -24 99q-25 39 -72 39q-98 2 -181 -151t-83 -300zM469 -164l-141 68q-170 -45 -244 -84t-73 -109q1 -69 94 -115t231 -48t212 42q75 45 75 103q2 35 -30 67t-124 76zM539 991q51 0 147 -20l254 10l-27 -137l-188 49
v-6q51 -63 51 -154q0 -169 -130 -321t-310 -150q-23 0 -33 2q-55 -43 -55 -84t71 -78l318 -157q139 -70 143 -176q0 -119 -154 -210t-360 -91q-208 0 -324 57t-114 145q2 164 424 267v4l-19 8q-125 66 -124 151q0 106 135 176v5q-70 29 -111 95t-43 144q-2 174 122 322
t327 149z" />
    <glyph glyph-name="h" unicode="h" horiz-adv-x="1089" 
d="M844 991q145 0 92 -217l-162 -647l6 -2q125 37 221 201l41 -13q-38 -119 -146 -227t-182 -109q-74 1 -99 55q-26 54 1 154l154 574q20 82 -39 82q-77 0 -187 -128t-195 -301t-111 -307l-19 -92l-153 -43l-27 27l334 1380l-121 49l14 46l307 55l-243 -993h8
q213 333 367 416q72 40 139 40z" />
    <glyph glyph-name="i" unicode="i" horiz-adv-x="600" 
d="M348 1393q0 45 32 77t77 31q45 0 77 -32q32 -33 32 -77t-32 -76t-77 -32t-77 32t-32 77zM350 993q129 0 80 -213l-151 -653l6 -2q63 19 123 75t100 126l41 -13q-39 -119 -148 -227t-181 -109q-72 1 -98 55q-24 54 1 152l153 627l-174 39v10q12 14 35 37t89 59t124 37z
" />
    <glyph glyph-name="j" unicode="j" horiz-adv-x="534" 
d="M373 1393q-1 45 31 77t77 31q45 0 77 -32q32 -33 32 -77t-32 -76t-77 -32t-77 32q-31 32 -31 77zM360 993q150 0 95 -229l-176 -735q-57 -244 -185 -403t-268 -158q-47 0 -93 30t-46 70q0 41 16 73t39 46q123 -119 178 -119t87 68t73 239l221 936l-176 39v10
q45 52 113 93q69 40 122 40z" />
    <glyph glyph-name="k" unicode="k" horiz-adv-x="980" 
d="M715 850q-92 0 -211 -145t-199 -334q219 59 349 179t130 222q1 78 -69 78zM814 -82q-60 0 -102 25q-40 25 -114 98l-303 305q-37 -98 -53 -184l-27 -150l-149 -41l-27 27l334 1380l-121 49l14 46l305 55l-225 -944h10q111 195 213 301t219 106q74 0 117 -47t43 -117
q0 -147 -144 -270t-337 -186l436 -418v-10q-29 -25 -89 -25z" />
    <glyph glyph-name="l" unicode="l" horiz-adv-x="548" 
d="M176 -23q-72 1 -96 55t0 152l293 1194l-121 49l14 46l301 55l-331 -1401l6 -2q62 19 122 75t101 126l41 -13q-39 -119 -148 -227q-110 -108 -182 -109z" />
    <glyph glyph-name="m" unicode="m" horiz-adv-x="1652" 
d="M336 993q162 0 90 -250l-55 -190h8q229 331 359 402q65 36 130 36q160 0 88 -248l-55 -190h8q228 333 361 402q68 36 137 36q145 0 92 -217l-164 -647l8 -2q121 35 222 201l41 -13q-39 -119 -148 -227t-182 -109q-152 0 -96 209l153 574q20 82 -37 82q-84 0 -192 -127
t-190 -298q-83 -171 -113 -311l-21 -92l-153 -43l-27 27l205 764q18 80 -39 80q-84 0 -192 -127t-190 -298t-114 -311l-20 -92l-154 -43l-26 27l215 821l-174 31v10q12 14 33 37q22 23 82 59t110 37z" />
    <glyph glyph-name="n" unicode="n" horiz-adv-x="1122" 
d="M336 993q160 0 90 -250l-55 -190h8q225 330 362 402q68 36 136 36q145 0 92 -217l-164 -647l6 -2q123 35 223 201l41 -13q-39 -119 -147 -227t-183 -109q-75 1 -99 55t3 154l154 574q20 82 -37 82q-84 0 -192 -127t-190 -298t-114 -311l-20 -92l-154 -43l-26 27l215 821
l-174 31v10q12 14 33 37q22 23 82 59t110 37z" />
    <glyph glyph-name="o" unicode="o" horiz-adv-x="976" 
d="M612 993q154 0 225 -100t71 -248q0 -149 -64 -301q-62 -152 -192 -260t-282 -107t-227 103q-73 102 -73 253t63 299t193 254q132 106 286 107zM252 281q0 -242 113 -242q86 0 171 105q85 106 135 254t50 280q0 254 -121 254q-88 0 -172 -114t-130 -264t-46 -273z" />
    <glyph glyph-name="p" unicode="p" horiz-adv-x="1019" 
d="M418 37q84 0 170 104q86 103 138 251t52 276q0 215 -203 215q-51 0 -122 -21l-174 -729q20 -41 58 -69t81 -27zM676 991q152 0 222 -77t69 -197q0 -170 -82 -344t-218 -288t-280 -114q-70 0 -137 43l-103 -426h277l-18 -80h-594l6 46q94 14 174 61l276 1163
q-57 -31 -202 -123l-25 41q125 98 248 168l47 193h125l-31 -123q139 57 246 57z" />
    <glyph glyph-name="q" unicode="q" horiz-adv-x="991" 
d="M317 119q90 0 243 222t196 398l16 72q-27 45 -72 81t-86 36q-92 0 -182 -112t-141 -262t-51 -278q-1 -157 77 -157zM41 209q0 176 79 356t220 304t297 124q100 0 205 -67l16 69h123l-340 -1407h193l-13 -80h-518l6 46q82 8 176 61l164 678l27 104h-6q-18 -23 -76 -109
t-102 -148q-45 -60 -118 -114t-151 -54t-130 60t-52 177z" />
    <glyph glyph-name="r" unicode="r" horiz-adv-x="831" 
d="M319 993q141 0 78 -223l-108 -369h28q143 326 237 459t210 133q43 1 71 -25q27 -26 27 -77t-34 -107t-68 -88h-70q27 45 21 85t-41 42q-117 -57 -299 -444q-78 -166 -135 -365l-148 -43l-27 27l62 242l135 579l-164 31v10q12 14 34 37t81 59t110 37z" />
    <glyph glyph-name="s" unicode="s" horiz-adv-x="704" 
d="M340 88q38 0 64 24t26 79t-59 135l-105 145q-61 86 -82 127q-20 41 -20 84q0 119 122 216t226 97q72 -1 125 -31t53 -71q0 -63 -39 -119l-6 -2q-166 106 -246 107q-39 0 -65 -24t-25 -76q0 -52 58 -134l114 -162q45 -66 59 -86q40 -60 40 -116q0 -105 -111 -207
t-244 -103q-88 0 -151 45q-64 45 -64 102t37 101h2q207 -131 291 -131z" />
    <glyph glyph-name="t" unicode="t" horiz-adv-x="696" 
d="M166 -25q-55 1 -83 51t-9 128l172 696h-160l12 90h174l95 254h127l-62 -254h268l-12 -90h-274l-168 -707l8 -6q76 29 163 101t132 135l41 -15q-54 -121 -196 -252t-228 -131z" />
    <glyph glyph-name="u" unicode="u" horiz-adv-x="1103" 
d="M346 993q133 0 82 -211l-145 -598q-14 -61 26 -61q69 0 181 132t197 285t101 228l41 182l152 43l27 -26l-205 -840l6 -2q63 19 123 75t100 126l41 -13q-39 -119 -147 -227t-185 -109q-139 0 -86 216l64 251h-6q-31 -37 -107 -140q-76 -102 -125 -162t-127 -114t-153 -55
q-139 0 -82 236l157 610l-176 31v10q12 14 35 37t87 59t124 37z" />
    <glyph glyph-name="v" unicode="v" horiz-adv-x="911" 
d="M628 858q-54 0 -112 -16v24q133 127 225 127q150 0 150 -167t-117 -335q-117 -167 -285 -354l-147 -166h-18l-70 29l-37 811q-37 43 -98 43t-101 -12v24q121 127 215 127q136 0 144 -182l29 -653h6q154 154 248 308t96 239t-36 119t-92 34z" />
    <glyph glyph-name="w" unicode="w" horiz-adv-x="1343" 
d="M1188 731q0 127 -144 127q-41 0 -98 -16v26q127 125 208 125q163 0 167 -182q2 -145 -101 -307t-290 -373l-144 -160h-18l-63 29l-5 422h-4q-37 -43 -127 -155t-151 -183l-96 -113h-19l-70 29l-18 811q-37 43 -97 43t-100 -12v26q119 125 215 125q141 0 144 -182l14 -647
h10q143 159 250 311l39 53l-2 271q-35 55 -125 55q-55 0 -98 -12v26q127 125 217 125q156 0 158 -182l14 -647h10q152 135 238 295t86 272z" />
    <glyph glyph-name="x" unicode="x" horiz-adv-x="1042" 
d="M628 -23q-70 0 -93 91l-76 305l-101 -148q-100 -147 -155 -200t-109 -53t-84 29q-32 30 -30 78t30 95l78 -22q91 -46 169 50q42 52 132 191l47 74l-65 268q-11 53 -25 73t-42 19q-28 0 -66 -57t-58 -164h-49q4 160 76 273t164 112q65 0 97 -43t56 -149l43 -189l146 207
q123 178 221 174q90 -4 90 -94q0 -59 -38 -117t-81 -84h-39q16 41 12 82t-38 41q-33 1 -119 -113t-131 -192l90 -389h8q64 17 124 75t101 126l41 -13q-39 -119 -147 -227q-109 -108 -179 -109z" />
    <glyph glyph-name="y" unicode="y" horiz-adv-x="960" 
d="M520 440q0 -268 -71 -454h8q281 319 340 626q4 166 -72 338q57 31 98 31q113 0 113 -157q0 -158 -85 -352q-153 -351 -493 -683q-147 -145 -283 -231q-137 -86 -207 -86t-110 32q-39 33 -39 84t34 85t85 34q86 0 119 -129h6q115 46 198 146t123 227q74 235 74 441
t-34 321q-35 115 -86 114q-44 0 -80 -55t-56 -166h-49q4 158 75 272t170 114q98 0 160 -142t62 -410z" />
    <glyph glyph-name="z" unicode="z" horiz-adv-x="929" 
d="M226 588q-44 0 -68 30t-25 82q0 88 93 192t198 103q66 0 145 -30l222 -93l110 123l74 -55l-682 -694l278 -103q93 -33 139 -23t91 64l41 -12q-47 -104 -83 -144q-54 -60 -153 -63q-55 0 -145 37l-293 117l-115 -133l-76 55l689 702l-242 91q-137 52 -170 -4t86 -146
q-70 -96 -114 -96z" />
    <glyph glyph-name="braceleft" unicode="{" horiz-adv-x="727" 
d="M424 -371q-199 1 -250 95t-4 315l70 326q39 186 -99 190l-73 2l18 94l72 2q143 2 170 150l67 379q27 158 115 238t283 81h30l-14 -65q-111 0 -161 -52t-89 -221l-74 -321q-27 -116 -75 -172t-140 -70v-4q76 -31 104 -91t9 -175l-59 -363q-25 -170 3 -221t138 -51l-12 -66
h-29z" />
    <glyph glyph-name="bar" unicode="|" horiz-adv-x="507" 
d="M129 -412l-111 -2l381 1915h107z" />
    <glyph glyph-name="braceright" unicode="}" horiz-adv-x="727" 
d="M276 1501q199 0 250 -94t4 -315l-69 -326q-39 -186 98 -191l74 -2l-19 -94l-71 -2q-143 -2 -170 -149l-68 -379q-27 -158 -115 -239t-282 -81h-31l14 66q111 0 161 51t89 221l74 322q27 115 75 171t140 70v5q-76 31 -104 91t-9 175l60 362q25 170 -3 221t-138 52l12 65
h28z" />
    <glyph glyph-name="asciitilde" unicode="~" horiz-adv-x="868" 
d="M147 434l-59 27l10 28q96 272 332 168l125 -55q142 -67 191 24q15 26 38 74l58 -24l-13 -35q-76 -214 -208 -205q-61 4 -138 35l-129 57q-94 40 -134 14q-24 -15 -38 -39t-35 -69z" />
    <glyph glyph-name="exclamdown" unicode="&#xa1;" horiz-adv-x="583" 
d="M406 1176q51 0 88 -37q36 -37 36 -88t-36 -88t-88 -37q-51 0 -89 37q-37 37 -36 88q0 51 36 88q38 37 89 37zM250 -256h-189l250 1028h92z" />
    <glyph glyph-name="cent" unicode="&#xa2;" horiz-adv-x="849" 
d="M264 321q0 -184 88 -215l217 779q-121 -10 -213 -195t-92 -369zM854 894q0 -66 -44 -123q-15 -22 -19 -21q-94 94 -144 118l-213 -764q66 18 150 86t139 150l37 -25q-46 -88 -150 -190t-209 -135l-67 -246h-84l65 233q-106 7 -171 89q-64 82 -64 222t81 305t240 284
q94 72 197 104l76 272h82l-74 -260q70 -4 121 -35q51 -32 51 -64z" />
    <glyph glyph-name="sterling" unicode="&#xa3;" horiz-adv-x="1318" 
d="M979 1337q80 0 142 -54t63 -142q0 -35 -37 -62t-98 -32q-35 203 -134 202q-109 0 -198 -334l-82 -303h401l-14 -90h-412l-6 -28q-82 -301 -285 -441q109 -49 222 -127l102 -71q139 -95 212 -137t130 -42q102 0 72 271q145 0 145 -94q0 -83 -85 -175t-229 -92t-303 109
q-101 67 -180 128q-80 62 -90 71l-122 94q-74 -27 -138 -27q-109 0 -108 68q0 35 43 61q42 26 104 25q62 0 154 -35q72 66 119 227l57 215h-234l15 90h244l61 230q61 225 212 360t257 135z" />
    <glyph glyph-name="yen" unicode="&#xa5;" horiz-adv-x="1263" 
d="M127 508l18 90h402l-256 594l-113 45l12 66h494l-12 -66l-180 -43l210 -502h7l401 492l-174 53l14 66h422l-12 -66l-119 -45l-491 -594h413l-18 -90h-416l-33 -154h418l-18 -92h-418l-29 -147l176 -47l-14 -68h-557l14 68l193 47l28 147h-409l16 92h412l31 154h-412z" />
    <glyph glyph-name="brokenbar" unicode="&#xa6;" horiz-adv-x="507" 
d="M125 -414h-107l170 863h107zM336 641h-107l170 860h107z" />
    <glyph glyph-name="section" unicode="&#xa7;" horiz-adv-x="1075" 
d="M358 750q0 -100 68 -291l70 -193q74 -203 73 -311q0 -57 -30 -133h6q160 145 160 350q0 100 -68 291l-70 192q-74 203 -73 312q0 57 30 133h-6q-160 -145 -160 -350zM412 -266q32 51 32 107t-25 132t-44 123q-20 47 -27 66l-90 233q-68 178 -68 301t89 251
q153 222 462 361q127 56 199 56t110 -31q36 -31 36 -71t-30 -70q-28 -29 -69 -29q-6 9 -16 21t-50 32t-106 21q-66 0 -166 -49q-31 -50 -31 -94t6 -72t17 -64q12 -38 19 -60q8 -22 28 -71t27 -67l90 -234q67 -178 67 -301t-88 -251q-153 -223 -462 -360q-128 -56 -200 -56
t-109 30q-36 31 -36 72t29 70t70 28q6 -8 16 -20t50 -32t106 -21q66 0 164 49z" />
    <glyph glyph-name="dieresis" unicode="&#xa8;" horiz-adv-x="819" 
d="M479 1319q0 43 30 73t73 30q44 0 74 -30t30 -73t-31 -72t-73 -29t-73 30q-30 28 -30 71zM131 1319q0 43 30 73q31 30 73 30t73 -30t31 -73t-31 -72t-74 -29t-73 30q-30 28 -29 71z" />
    <glyph glyph-name="copyright" unicode="&#xa9;" horiz-adv-x="1665" 
d="M817 270q-161 0 -269 91t-108 261t140 309q140 138 362 138q109 0 242 -53l-29 -221h-57l-33 166q-78 39 -170 38q-139 0 -218 -99q-79 -98 -79 -242t76 -230t180 -86q51 0 96 16l121 193h59l-59 -234q-141 -47 -254 -47zM821 23q264 0 456 189q191 190 203 458t-169 457
t-445 189t-456 -188q-192 -190 -203 -458q-10 -268 170 -458t444 -189zM871 1378q294 0 493 -207t186 -501q-8 -295 -223 -501t-509 -206t-492 205t-191 502q12 296 227 502t509 206z" />
    <glyph glyph-name="ordfeminine" unicode="&#xaa;" horiz-adv-x="929" 
d="M317 610q72 0 202 171t167 292l23 74q-49 63 -111 63t-141 -80q-78 -80 -134 -204t-57 -238q0 -78 51 -78zM642 479q-129 0 -71 189l47 153h-6q-12 -17 -52 -75q-140 -204 -232 -249q-46 -24 -102 -24t-93 44t-37 112q-2 151 85 305t216 250t246 96q66 0 117 -29l16 52
h113l-191 -691l7 -2q51 14 98 56t78 96l34 -14q-39 -100 -125 -185q-88 -84 -148 -84z" />
    <glyph glyph-name="guillemotleft" unicode="&#xab;" horiz-adv-x="1275" 
d="M1143 944l47 -53l-404 -418l265 -403l-56 -45l-401 432v41zM711 944l47 -53l-404 -418l264 -403l-55 -45l-401 432v41z" />
    <glyph glyph-name="registered" unicode="&#xae;" horiz-adv-x="819" 
d="M647 1253q0 80 -127 74l-33 -164h72q88 25 88 90zM561 1366q182 0 182 -104q0 -82 -131 -123q78 -127 90 -140q16 -12 56 -20l-8 -33q-88 0 -123 26t-99 148h-49l-24 -127l47 -14l-6 -29h-193l8 31l58 14l65 328l-55 12l8 31h174zM197 1148q0 -144 98 -244
q99 -100 243 -99q144 0 242 98q98 99 98 243t-98 244q-100 100 -243 99q-143 0 -242 -98q-98 -99 -98 -243zM133 1146q0 166 120 282t288 116q169 0 285 -114t116 -282q0 -167 -120 -282q-120 -114 -288 -114t-284 114q-117 114 -117 280z" />
    <glyph glyph-name="macron" unicode="&#xaf;" horiz-adv-x="819" 
d="M106 1284l27 123h578l-27 -123h-578z" />
    <glyph glyph-name="degree" unicode="&#xb0;" horiz-adv-x="698" 
d="M248 1235q0 -91 56 -151t142 -60t143 60q56 60 56 150t-56 151q-57 61 -143 61t-142 -60t-56 -151zM141 1233q0 127 91 216q90 89 218 89t214 -88t86 -215t-90 -216t-219 -89q-128 0 -214 88t-86 215z" />
    <glyph glyph-name="plusminus" unicode="&#xb1;" horiz-adv-x="1140" 
d="M1055 0h-971v115h971v-115zM1055 692h-422v-426h-127v426h-422v119h422v426h127v-426h422v-119z" />
    <glyph glyph-name="acute" unicode="&#xb4;" horiz-adv-x="819" 
d="M584 1548v-39l-254 -381h-94l202 420h146z" />
    <glyph glyph-name="paragraph" unicode="&#xb6;" horiz-adv-x="1204" 
d="M356 -426q-141 0 -236 77t-95 226q-1 111 73 187t189 75q65 0 101 -40t36 -93t-37 -92t-94 -43l-137 80h-15q-14 -16 -14 -76q0 -105 63 -165q64 -60 192 -60t207 87t116 267l251 1274h-108l-170 -860h-117q-167 0 -275 112t-110 271q-2 229 179 394t393 165h516l-13 -62
l-186 -57l-242 -1223q-86 -444 -467 -444z" />
    <glyph glyph-name="periodcentered" unicode="&#xb7;" horiz-adv-x="532" 
d="M412 557q0 -57 -42 -100t-101 -43q-58 0 -100 43t-42 100t42 99t99 42q56 0 100 -42t44 -99z" />
    <glyph glyph-name="cedilla" unicode="&#xb8;" horiz-adv-x="819" 
d="M436 -303q0 68 -82 104l164 207h74l-105 -137q100 -43 101 -131q-1 -196 -361 -266v53q209 63 209 170z" />
    <glyph glyph-name="ordmasculine" unicode="&#xba;" horiz-adv-x="837" 
d="M573 1294q123 0 183 -82t61 -204q0 -122 -52 -243q-52 -120 -161 -204t-236 -84t-189 83t-62 212q1 194 127 358t329 164zM276 715q0 -182 91 -183q69 0 137 88t108 208t41 223q0 188 -96 188q-73 0 -139 -92t-104 -213t-38 -219z" />
    <glyph glyph-name="guillemotright" unicode="&#xbb;" horiz-adv-x="1273" 
d="M563 25l-47 53l402 416l-263 405l56 45l401 -432v-41zM133 25l-47 53l401 416l-262 405l56 45l401 -432v-41z" />
    <glyph glyph-name="onequarter" unicode="&#xbc;" horiz-adv-x="1820" 
d="M1155 289h250l59 299zM1350 0l36 188h-385l9 52l587 567l62 -6l-105 -512h189l-17 -101h-190l-35 -188h-151zM354 -178l-78 65l1235 1600l80 -64zM92 565l14 68l197 33l109 546h-211l6 70l377 84h12l-137 -702l176 -31l-14 -68h-529z" />
    <glyph glyph-name="onehalf" unicode="&#xbd;" horiz-adv-x="1873" 
d="M1597 549q-1 69 -39 109t-108 40q-96 0 -211 -118l-49 49q47 59 83 95t98 67t150 31t160 -61t72 -159t-70 -181t-288 -228l-99 -66h437l-25 -127h-631l10 68l119 84q213 150 302 238t89 159zM362 -178l-77 65l1235 1600l79 -64zM92 565l14 68l197 33l109 546h-211l6 70
l377 84h12l-137 -702l176 -31l-14 -68h-529z" />
    <glyph glyph-name="threequarters" unicode="&#xbe;" horiz-adv-x="1841" 
d="M1176 289h249l60 299zM1370 0l37 188h-385l8 52l588 567l61 -6l-104 -512h188l-16 -101h-191l-34 -188h-152zM416 -178l-78 65l1235 1600l80 -64zM386 528q-134 0 -212 43t-78 103t88 110q80 -176 246 -176q74 0 118 44t44 116q0 178 -266 162l12 61l47 19
q227 84 227 177q0 43 -32 69t-86 26q-56 0 -107 -27t-121 -94l-49 47q88 100 164 140t175 38q99 0 159 -41q59 -42 59 -111t-60 -116t-177 -104v-6q106 -10 162 -64t57 -123q0 -125 -118 -209t-252 -84z" />
    <glyph glyph-name="questiondown" unicode="&#xbf;" horiz-adv-x="864" 
d="M653 1182q51 0 88 -37t37 -88t-37 -88t-88 -37t-88 37t-37 88t37 88t88 37zM72 268q0 242 215 283l217 39l57 182h94l-63 -346l-258 -39q-164 -25 -164 -149q0 -152 342 -254l47 -15l-29 -211l-65 23q-153 53 -273 184t-120 303z" />
    <glyph glyph-name="Agrave" unicode="&#xc0;" horiz-adv-x="1380" 
d="M612 1792h191l100 -285h-106l-185 244v41zM756 1186l-310 -580h394l-82 580h-2zM-84 0l12 66l119 47l723 1247l68 10l71 21l187 -1285l127 -40l-13 -66h-489l14 68l174 47l-53 368h-475l-193 -360l183 -55l-15 -68h-440z" />
    <glyph glyph-name="Aacute" unicode="&#xc1;" horiz-adv-x="1380" 
d="M1155 1792v-41l-276 -244h-107l193 285h190zM756 1186l-310 -580h394l-82 580h-2zM-84 0l12 66l119 47l723 1247l68 10l71 21l187 -1285l127 -40l-13 -66h-489l14 68l174 47l-53 368h-475l-193 -360l183 -55l-15 -68h-440z" />
    <glyph glyph-name="Acircumflex" unicode="&#xc2;" horiz-adv-x="1380" 
d="M684 1507h-109l238 265h156l133 -265h-94l-134 162zM756 1186l-310 -580h394l-82 580h-2zM-84 0l12 66l119 47l723 1247l68 10l71 21l187 -1285l127 -40l-13 -66h-489l14 68l174 47l-53 368h-475l-193 -360l183 -55l-15 -68h-440z" />
    <glyph glyph-name="Atilde" unicode="&#xc3;" horiz-adv-x="1380" 
d="M854 1575l-51 24q-129 63 -169 11q-17 -23 -46 -86l-60 26l11 29q35 100 88 146t112 45t138 -37l47 -23q119 -60 163 -33q27 16 41 39t37 74l58 -25l-13 -34q-57 -162 -145 -195t-211 39zM756 1186l-310 -580h394l-82 580h-2zM-84 0l12 66l119 47l723 1247l68 10l71 21
l187 -1285l127 -40l-13 -66h-489l14 68l174 47l-53 368h-475l-193 -360l183 -55l-15 -68h-440z" />
    <glyph glyph-name="Adieresis" unicode="&#xc4;" horiz-adv-x="1380" 
d="M1102 1559q-47 -1 -82 33t-35 81t35 82t82 35t82 -35t35 -82t-35 -81t-82 -33zM649 1559q-47 -1 -81 33t-33 81q0 47 33 82q34 35 81 35t82 -35t35 -82t-35 -81t-82 -33zM756 1186l-310 -580h394l-82 580h-2zM-84 0l12 66l119 47l723 1247l68 10l71 21l187 -1285l127 -40
l-13 -66h-489l14 68l174 47l-53 368h-475l-193 -360l183 -55l-15 -68h-440z" />
    <glyph glyph-name="Aring" unicode="&#xc5;" horiz-adv-x="1380" 
d="M731 1673q0 -65 42 -107q41 -42 103 -42t104 42t42 108t-42 107q-42 42 -103 42t-103 -42t-43 -108zM637 1672q0 99 70 167t171 68t170 -67q68 -67 68 -166t-70 -167q-70 -67 -170 -67q-101 0 -170 66t-69 166zM756 1186l-310 -580h394l-82 580h-2zM-84 0l12 66l119 47
l723 1247l68 10l71 21l187 -1285l127 -40l-13 -66h-489l14 68l174 47l-53 368h-475l-193 -360l183 -55l-15 -68h-440z" />
    <glyph glyph-name="AE" unicode="&#xc6;" horiz-adv-x="1884" 
d="M1057 1268h-41l-373 -516h311zM1403 655l-281 2l-108 -561h495l181 271h73l-94 -367h-1028l12 68l176 47l107 542h-361l-366 -534l176 -55l-14 -68h-455l12 66l117 47l832 1128h-3l-176 53l13 66h1011l152 8l-84 -362h-70l-22 262h-455l-100 -516h272l92 168h62l-84 -418
l-62 -2z" />
    <glyph glyph-name="Ccedilla" unicode="&#xc7;" horiz-adv-x="1443" 
d="M662 -303q0 68 -82 104l129 164q-262 10 -428 169t-166 460q0 141 58 280q59 139 165 256t277 189t365 72t388 -109l-35 -364h-71l-58 296q-108 88 -272 88t-306 -112q-142 -113 -215 -277t-71 -333q2 -262 116 -394t310 -133q137 0 252 64l203 313h73l-110 -369
q-212 -85 -400 -94l-71 -96q100 -43 100 -131q0 -196 -360 -266v53q209 63 209 170z" />
    <glyph glyph-name="Egrave" unicode="&#xc8;" horiz-adv-x="1234" 
d="M600 1792h191l100 -285h-107l-184 244v41zM748 657h-275l-108 -561h495l180 271h74l-94 -367h-1028l12 68l176 47l221 1124l-155 55l12 66h817l152 8l-88 -362h-70l-18 262h-457l-100 -516h272l92 168h62l-84 -418h-68z" />
    <glyph glyph-name="Eacute" unicode="&#xc9;" horiz-adv-x="1234" 
d="M1143 1792v-41l-277 -244h-106l192 285h191zM748 657h-275l-108 -561h495l180 271h74l-94 -367h-1028l12 68l176 47l221 1124l-155 55l12 66h817l152 8l-88 -362h-70l-18 262h-457l-100 -516h272l92 168h62l-84 -418h-68z" />
    <glyph glyph-name="Ecircumflex" unicode="&#xca;" horiz-adv-x="1234" 
d="M655 1507h-108l237 265h156l133 -265h-94l-133 162zM748 657h-275l-108 -561h495l180 271h74l-94 -367h-1028l12 68l176 47l221 1124l-155 55l12 66h817l152 8l-88 -362h-70l-18 262h-457l-100 -516h272l92 168h62l-84 -418h-68z" />
    <glyph glyph-name="Edieresis" unicode="&#xcb;" horiz-adv-x="1234" 
d="M1071 1559q-47 -1 -82 33t-35 81t35 82t82 35t82 -35t35 -82t-35 -81t-82 -33zM618 1559q-46 -1 -80 33t-34 81t34 82t80 35t82 -35q35 -35 35 -82t-35 -81t-82 -33zM748 657h-275l-108 -561h495l180 271h74l-94 -367h-1028l12 68l176 47l221 1124l-155 55l12 66h817
l152 8l-88 -362h-70l-18 262h-457l-100 -516h272l92 168h62l-84 -418h-68z" />
    <glyph glyph-name="Igrave" unicode="&#xcc;" horiz-adv-x="727" 
d="M319 1792h191l100 -285h-106l-185 244v41zM-8 0l14 68l170 47l223 1126l-153 53l12 66h518l-12 -66l-176 -53l-223 -1126l155 -49l-12 -66h-516z" />
    <glyph glyph-name="Iacute" unicode="&#xcd;" horiz-adv-x="727" 
d="M862 1792v-41l-276 -244h-107l193 285h190zM-8 0l14 68l170 47l223 1126l-153 53l12 66h518l-12 -66l-176 -53l-223 -1126l155 -49l-12 -66h-516z" />
    <glyph glyph-name="Icircumflex" unicode="&#xce;" horiz-adv-x="727" 
d="M391 1507h-108l237 265h156l133 -265h-94l-133 162zM-8 0l14 68l170 47l223 1126l-153 53l12 66h518l-12 -66l-176 -53l-223 -1126l155 -49l-12 -66h-516z" />
    <glyph glyph-name="Idieresis" unicode="&#xcf;" horiz-adv-x="727" 
d="M811 1559q-47 -1 -82 33t-35 81t35 82t82 35t82 -35t35 -82t-35 -81t-82 -33zM358 1559q-46 -1 -80 33t-34 81t34 82t80 35t82 -35q35 -35 35 -82t-35 -81t-82 -33zM-8 0l14 68l170 47l223 1126l-153 53l12 66h518l-12 -66l-176 -53l-223 -1126l155 -49l-12 -66h-516z
" />
    <glyph glyph-name="Eth" unicode="&#xd0;" horiz-adv-x="1521" 
d="M840 627h-355l-75 -385q-18 -94 34 -130t150 -34q223 2 380 103q290 186 294 581q2 258 -172 392t-480 134l-112 -569h354zM1475 756q0 -222 -123 -400t-323 -271t-435 -91l-584 6l15 68l172 47l100 512h-201l19 92h200l103 522l-154 53l12 66l422 4q367 4 572 -156
t205 -452z" />
    <glyph glyph-name="Ntilde" unicode="&#xd1;" horiz-adv-x="1519" 
d="M954 1575l-51 24q-127 62 -169 11q-17 -23 -46 -86l-59 26l10 29q35 100 88 146t113 45t137 -37l47 -23q61 -31 99 -40t65 7t41 39t37 74l57 -25l-12 -34q-57 -162 -145 -195t-212 39zM1169 -23h-71l-615 1141l-194 -989l227 -61l-14 -68h-510l12 68l172 47l219 1106
l-168 73l11 66h335l545 -1016l174 887l-229 61l14 68h512l-14 -68l-174 -51l-189 -962z" />
    <glyph glyph-name="Ograve" unicode="&#xd2;" horiz-adv-x="1509" 
d="M733 1792h191l100 -285h-106l-185 244v41zM1249 866q0 188 -88 311q-89 123 -247 123t-294 -110t-222 -299q-86 -188 -85 -392q0 -204 86 -328t258 -124t313 133q140 134 210 316t69 370zM946 1391q203 0 356 -160t152 -418q0 -153 -57 -305q-125 -332 -425 -474
q-162 -77 -360 -77t-351 160t-152 420q0 150 54 299q120 334 418 477q162 78 365 78z" />
    <glyph glyph-name="Oacute" unicode="&#xd3;" horiz-adv-x="1509" 
d="M1276 1792v-41l-277 -244h-106l192 285h191zM1249 866q0 188 -88 311q-89 123 -247 123t-294 -110t-222 -299q-86 -188 -85 -392q0 -204 86 -328t258 -124t313 133q140 134 210 316t69 370zM946 1391q203 0 356 -160t152 -418q0 -153 -57 -305q-125 -332 -425 -474
q-162 -77 -360 -77t-351 160t-152 420q0 150 54 299q120 334 418 477q162 78 365 78z" />
    <glyph glyph-name="Ocircumflex" unicode="&#xd4;" horiz-adv-x="1509" 
d="M805 1507h-109l238 265h156l133 -265h-95l-133 162zM1249 866q0 188 -88 311q-89 123 -247 123t-294 -110t-222 -299q-86 -188 -85 -392q0 -204 86 -328t258 -124t313 133q140 134 210 316t69 370zM946 1391q203 0 356 -160t152 -418q0 -153 -57 -305
q-125 -332 -425 -474q-162 -77 -360 -77t-351 160t-152 420q0 150 54 299q120 334 418 477q162 78 365 78z" />
    <glyph glyph-name="Otilde" unicode="&#xd5;" horiz-adv-x="1509" 
d="M975 1575l-51 24q-129 63 -169 11q-17 -23 -46 -86l-60 26l10 29q35 100 89 146t112 45q59 -1 137 -37l47 -23q119 -61 164 -33q27 16 41 39t37 74l57 -25l-12 -34q-57 -162 -145 -195t-211 39zM1249 866q0 188 -88 311q-89 123 -247 123t-294 -110t-222 -299
q-86 -188 -85 -392q0 -204 86 -328t258 -124t313 133q140 134 210 316t69 370zM946 1391q203 0 356 -160t152 -418q0 -153 -57 -305q-125 -332 -425 -474q-162 -77 -360 -77t-351 160t-152 420q0 150 54 299q120 334 418 477q162 78 365 78z" />
    <glyph glyph-name="Odieresis" unicode="&#xd6;" horiz-adv-x="1509" 
d="M1223 1559q-47 -1 -82 33t-35 81t35 82t82 35t82 -35t35 -82t-35 -81q-35 -33 -82 -33zM770 1559q-47 -1 -81 33t-34 81t34 82t81 35t82 -35t35 -82t-35 -81t-82 -33zM1249 866q0 188 -88 311q-89 123 -247 123t-294 -110t-222 -299q-86 -188 -85 -392q0 -204 86 -328
t258 -124t313 133q140 134 210 316t69 370zM946 1391q203 0 356 -160t152 -418q0 -153 -57 -305q-125 -332 -425 -474q-162 -77 -360 -77t-351 160t-152 420q0 150 54 299q120 334 418 477q162 78 365 78z" />
    <glyph glyph-name="multiply" unicode="&#xd7;" horiz-adv-x="1142" 
d="M932 25l-375 376l-369 -376l-84 84l375 376l-375 375l89 88l372 -375l375 385l82 -84l-375 -382l375 -379z" />
    <glyph glyph-name="Oslash" unicode="&#xd8;" horiz-adv-x="1509" 
d="M313 469q0 -139 35 -229l770 995q-78 66 -203 65q-240 0 -421 -244t-181 -587zM1249 872q0 190 -73 302l-783 -1014q84 -113 260 -113t317 132q140 131 210 317t69 376zM940 1391q129 0 244 -72l125 162h104l-162 -209q203 -174 203 -459q0 -153 -57 -305
q-125 -332 -425 -474q-161 -77 -336 -77t-314 111l-132 -170h-104l176 227q-154 170 -153 412q0 149 54 299q121 334 419 477q162 78 358 78z" />
    <glyph glyph-name="Ugrave" unicode="&#xd9;" horiz-adv-x="1474" 
d="M698 1792h191l100 -285h-106l-185 244v41zM631 -49q-231 0 -353 144q-121 144 -65 478l135 668l-155 53l12 66h526l-12 -66l-176 -53l-142 -711q-43 -221 36 -342q79 -120 247 -120t290 116t171 389l119 664l-222 57l13 66h512l-13 -66l-174 -53l-129 -688
q-55 -291 -222 -447t-398 -155z" />
    <glyph glyph-name="Uacute" unicode="&#xda;" horiz-adv-x="1474" 
d="M1241 1792v-41l-276 -244h-107l193 285h190zM631 -49q-231 0 -353 144q-121 144 -65 478l135 668l-155 53l12 66h526l-12 -66l-176 -53l-142 -711q-43 -221 36 -342q79 -120 247 -120t290 116t171 389l119 664l-222 57l13 66h512l-13 -66l-174 -53l-129 -688
q-55 -291 -222 -447t-398 -155z" />
    <glyph glyph-name="Ucircumflex" unicode="&#xdb;" horiz-adv-x="1474" 
d="M770 1507h-108l237 265h156l133 -265h-94l-133 162zM631 -49q-231 0 -353 144q-121 144 -65 478l135 668l-155 53l12 66h526l-12 -66l-176 -53l-142 -711q-43 -221 36 -342q79 -120 247 -120t290 116t171 389l119 664l-222 57l13 66h512l-13 -66l-174 -53l-129 -688
q-55 -291 -222 -447t-398 -155z" />
    <glyph glyph-name="Udieresis" unicode="&#xdc;" horiz-adv-x="1474" 
d="M1188 1559q-47 -1 -82 33t-35 81t35 82t82 35t82 -35t35 -82t-35 -81t-82 -33zM735 1559q-47 -1 -81 33t-33 81q0 47 33 82q34 35 81 35t82 -35t35 -82t-35 -81t-82 -33zM631 -49q-231 0 -353 144q-121 144 -65 478l135 668l-155 53l12 66h526l-12 -66l-176 -53
l-142 -711q-43 -221 36 -342q79 -120 247 -120t290 116t171 389l119 664l-222 57l13 66h512l-13 -66l-174 -53l-129 -688q-55 -291 -222 -447t-398 -155z" />
    <glyph glyph-name="Yacute" unicode="&#xdd;" horiz-adv-x="1284" 
d="M1171 1792v-41l-276 -244h-107l193 285h190zM1268 1249l-520 -704l-86 -430l176 -47l-15 -68h-557l15 68l192 47l80 403l-260 731l-113 45l13 66h493l-12 -66l-180 -43l202 -620h6l435 610l-174 53l14 66h422l-13 -66z" />
    <glyph glyph-name="Thorn" unicode="&#xde;" horiz-adv-x="1183" 
d="M1159 739q-1 -111 -65 -195q-112 -146 -379 -195q-111 -19 -217 -13l14 63q213 9 327 93q113 84 113 210t-104 204t-311 77l-170 -868l155 -49l-12 -66h-518l14 68l170 47l223 1126l-153 53l12 66h520l-10 -66l-180 -53l-39 -190l76 2q250 2 392 -86t142 -228z" />
    <glyph glyph-name="germandbls" unicode="&#xdf;" horiz-adv-x="1015" 
d="M1081 1301q0 -87 -40 -149t-96 -100t-112 -71q-137 -81 -137 -156q0 -53 52 -153l63 -117q102 -189 102 -289q-1 -100 -111 -197t-239 -98q-80 0 -126 34t-46 86t21 87q152 -92 256 -92q50 0 78 29t28 77t-57 154l-86 158q-86 156 -86 230t40 130q40 57 97 95
q56 38 114 75q138 88 138 213q0 72 -44 113t-98 41q-54 1 -92 -15q-39 -16 -87 -60q-104 -95 -175 -300q-41 -119 -65 -270l-123 -725q-25 -141 -72 -249t-97 -165t-126 -103t-140 -46q-63 0 -108 32t-45 84q0 27 15 58t36 45q129 -119 185 -119q98 0 149 307l143 842
q29 176 114 335q148 276 378 417q94 58 156 59q123 0 183 -70t60 -157z" />
    <glyph glyph-name="agrave" unicode="&#xe0;" horiz-adv-x="1097" 
d="M594 1548h147l84 -420h-90l-141 381v39zM313 125q59 0 162 117q102 117 187 260q84 143 110 231l25 78q-63 82 -141 82t-175 -98q-96 -98 -166 -257t-69 -309q-1 -104 67 -104zM713 975q86 0 145 -39l19 70h124l-233 -879l6 -2q62 17 122 75t99 126l41 -13
q-45 -127 -148 -231t-176 -104t-97 56t12 175l61 211h-6q-10 -14 -81 -120t-114 -160t-121 -111t-151 -57q-74 0 -118 54t-46 138q-2 182 104 375q105 193 262 315t296 121z" />
    <glyph glyph-name="aacute" unicode="&#xe1;" horiz-adv-x="1097" 
d="M1049 1548v-39l-254 -381h-95l203 420h146zM313 125q59 0 162 117q102 117 187 260q84 143 110 231l25 78q-63 82 -141 82t-175 -98q-96 -98 -166 -257t-69 -309q-1 -104 67 -104zM713 975q86 0 145 -39l19 70h124l-233 -879l6 -2q62 17 122 75t99 126l41 -13
q-45 -127 -148 -231t-176 -104t-97 56t12 175l61 211h-6q-10 -14 -81 -120t-114 -160t-121 -111t-151 -57q-74 0 -118 54t-46 138q-2 182 104 375q105 193 262 315t296 121z" />
    <glyph glyph-name="acircumflex" unicode="&#xe2;" horiz-adv-x="1097" 
d="M598 1128h-90l285 420h114l105 -420h-86l-101 289zM313 125q59 0 162 117q102 117 187 260q84 143 110 231l25 78q-63 82 -141 82t-175 -98q-96 -98 -166 -257t-69 -309q-1 -104 67 -104zM713 975q86 0 145 -39l19 70h124l-233 -879l6 -2q62 17 122 75t99 126l41 -13
q-45 -127 -148 -231t-176 -104t-97 56t12 175l61 211h-6q-10 -14 -81 -120t-114 -160t-121 -111t-151 -57q-74 0 -118 54t-46 138q-2 182 104 375q105 193 262 315t296 121z" />
    <glyph glyph-name="atilde" unicode="&#xe3;" horiz-adv-x="1097" 
d="M766 1272l-51 24q-129 63 -169 11q-17 -23 -46 -86l-60 26l11 29q35 100 88 146t112 45t137 -37l48 -23q119 -60 163 -33q27 16 41 39t37 74l58 -25l-13 -35q-57 -163 -145 -195t-211 40zM313 125q59 0 162 117q102 117 187 260q84 143 110 231l25 78q-63 82 -141 82
t-175 -98q-96 -98 -166 -257t-69 -309q-1 -104 67 -104zM713 975q86 0 145 -39l19 70h124l-233 -879l6 -2q62 17 122 75t99 126l41 -13q-45 -127 -148 -231t-176 -104t-97 56t12 175l61 211h-6q-10 -14 -81 -120t-114 -160t-121 -111t-151 -57q-74 0 -118 54t-46 138
q-2 182 104 375q105 193 262 315t296 121z" />
    <glyph glyph-name="adieresis" unicode="&#xe4;" horiz-adv-x="1097" 
d="M811 1319q0 43 30 73q31 30 73 30t73 -30t31 -73t-31 -72t-74 -29t-73 30q-30 28 -29 71zM463 1319q0 43 30 73q31 30 73 30t73 -30t31 -73t-31 -72t-74 -29t-73 30q-30 28 -29 71zM313 125q59 0 162 117q102 117 187 260q84 143 110 231l25 78q-63 82 -141 82t-175 -98
q-96 -98 -166 -257t-69 -309q-1 -104 67 -104zM713 975q86 0 145 -39l19 70h124l-233 -879l6 -2q62 17 122 75t99 126l41 -13q-45 -127 -148 -231t-176 -104t-97 56t12 175l61 211h-6q-10 -14 -81 -120t-114 -160t-121 -111t-151 -57q-74 0 -118 54t-46 138q-2 182 104 375
q105 193 262 315t296 121z" />
    <glyph glyph-name="aring" unicode="&#xe5;" horiz-adv-x="1097" 
d="M674 1380q0 -66 42 -108t103 -41q61 0 104 42q42 41 42 107t-42 108q-41 42 -103 42t-104 -42t-42 -108zM580 1379q0 99 69 167q70 68 171 68t170 -67t69 -166t-70 -167t-171 -68t-170 67q-68 67 -68 166zM313 125q59 0 162 117q102 117 187 260q84 143 110 231l25 78
q-63 82 -141 82t-175 -98q-96 -98 -166 -257t-69 -309q-1 -104 67 -104zM713 975q86 0 145 -39l19 70h124l-233 -879l6 -2q62 17 122 75t99 126l41 -13q-45 -127 -148 -231t-176 -104t-97 56t12 175l61 211h-6q-10 -14 -81 -120t-114 -160t-121 -111t-151 -57q-74 0 -118 54
t-46 138q-2 182 104 375q105 193 262 315t296 121z" />
    <glyph glyph-name="ae" unicode="&#xe6;" horiz-adv-x="1249" 
d="M995 913q-78 1 -167 -115t-132 -282q367 121 367 324q0 73 -68 73zM298 92q56 0 110 50q53 50 86 104q-3 65 24 198l-139 -47q-186 -61 -191 -182q-2 -51 26 -87t84 -36zM739 -23q-193 0 -235 173q-76 -84 -143 -128t-149 -44t-143 46q-62 48 -63 156q0 168 246 244
l280 86l13 55q23 135 -9 233t-114 99q-59 0 -107 -41l-39 -205q-38 -10 -64 -10t-41 3q-15 4 -29 20t-15 47q0 80 118 179t234 103q105 -2 165 -60t69 -145h4q135 205 327 205t193 -143q0 -242 -557 -401q-10 -61 -10 -115q-6 -223 141 -223q63 0 135 49t117 114l41 -24
q-42 -100 -146 -186t-219 -87z" />
    <glyph glyph-name="ccedilla" unicode="&#xe7;" horiz-adv-x="843" 
d="M260 -303q0 68 -82 104l133 170q-106 4 -172 87q-65 82 -65 224t82 310t238 285t261 116q76 0 135 -30q58 -31 58 -66q0 -68 -40 -125q-13 -20 -17 -20q-17 9 -55 36q-119 87 -197 91q-99 0 -187 -198t-88 -370q0 -205 133 -205q63 0 159 68t161 160l37 -25
q-44 -90 -148 -191t-209 -134l-86 -113q100 -43 101 -131q-1 -196 -361 -266v53q209 63 209 170z" />
    <glyph glyph-name="egrave" unicode="&#xe8;" horiz-adv-x="827" 
d="M446 1548h148l84 -420h-90l-142 381v39zM596 918q-82 0 -180 -115t-144 -275q131 18 252 120t121 208q0 62 -49 62zM318 -23q-124 -1 -186 87t-62 208q0 366 306 608q144 114 269 113q170 0 170 -143q0 -136 -162 -242t-395 -137q-10 -66 -10 -121q0 -240 139 -239
q69 0 139 49t115 114l41 -24q-40 -90 -140 -182t-224 -91z" />
    <glyph glyph-name="eacute" unicode="&#xe9;" horiz-adv-x="827" 
d="M918 1548v-39l-254 -381h-95l203 420h146zM596 918q-82 0 -180 -115t-144 -275q131 18 252 120t121 208q0 62 -49 62zM318 -23q-124 -1 -186 87t-62 208q0 366 306 608q144 114 269 113q170 0 170 -143q0 -136 -162 -242t-395 -137q-10 -66 -10 -121q0 -240 139 -239
q69 0 139 49t115 114l41 -24q-40 -90 -140 -182t-224 -91z" />
    <glyph glyph-name="ecircumflex" unicode="&#xea;" horiz-adv-x="827" 
d="M455 1128h-90l284 420h115l104 -420h-86l-100 289zM596 918q-82 0 -180 -115t-144 -275q131 18 252 120t121 208q0 62 -49 62zM318 -23q-124 -1 -186 87t-62 208q0 366 306 608q144 114 269 113q170 0 170 -143q0 -136 -162 -242t-395 -137q-10 -66 -10 -121
q0 -240 139 -239q69 0 139 49t115 114l41 -24q-40 -90 -140 -182t-224 -91z" />
    <glyph glyph-name="edieresis" unicode="&#xeb;" horiz-adv-x="827" 
d="M737 1319q0 43 30 73t73 30q44 0 74 -30t30 -73t-31 -72t-73 -29t-73 30q-30 28 -30 71zM389 1319q0 43 30 73t73 30q44 0 74 -30t30 -73t-31 -72t-73 -29t-73 30q-30 28 -30 71zM596 918q-82 0 -180 -115t-144 -275q131 18 252 120t121 208q0 62 -49 62zM318 -23
q-124 -1 -186 87t-62 208q0 366 306 608q144 114 269 113q170 0 170 -143q0 -136 -162 -242t-395 -137q-10 -66 -10 -121q0 -240 139 -239q69 0 139 49t115 114l41 -24q-40 -90 -140 -182t-224 -91z" />
    <glyph glyph-name="igrave" unicode="&#xec;" horiz-adv-x="600" 
d="M225 1548h148l84 -420h-90l-142 381v39zM220 -23q-72 1 -98 55q-24 54 1 152l153 627l-174 39v10q12 14 35 37t89 59t124 37q129 0 80 -213l-151 -653l6 -2q63 19 123 75t100 126l41 -13q-39 -119 -148 -227t-181 -109z" />
    <glyph glyph-name="iacute" unicode="&#xed;" horiz-adv-x="600" 
d="M696 1548v-39l-254 -381h-94l203 420h145zM220 -23q-72 1 -98 55q-24 54 1 152l153 627l-174 39v10q12 14 35 37t89 59t124 37q129 0 80 -213l-151 -653l6 -2q63 19 123 75t100 126l41 -13q-39 -119 -148 -227t-181 -109z" />
    <glyph glyph-name="icircumflex" unicode="&#xee;" horiz-adv-x="600" 
d="M233 1128h-90l285 420h115l104 -420h-86l-100 289zM220 -23q-72 1 -98 55q-24 54 1 152l153 627l-174 39v10q12 14 35 37t89 59t124 37q129 0 80 -213l-151 -653l6 -2q63 19 123 75t100 126l41 -13q-39 -119 -148 -227t-181 -109z" />
    <glyph glyph-name="idieresis" unicode="&#xef;" horiz-adv-x="600" 
d="M220 -23q-72 1 -98 55q-24 54 1 152l153 627l-174 39v10q12 14 35 37t89 59t124 37q129 0 80 -213l-151 -653l6 -2q63 19 123 75t100 126l41 -13q-39 -119 -148 -227t-181 -109zM604 1219q-43 1 -73 29t-29 71q0 43 29 73q30 30 73 30t74 -30t31 -73t-31 -71t-74 -29z
M256 1219q-43 1 -73 29t-29 71q0 43 29 73q30 30 73 30t74 -30q30 -30 30 -73t-30 -72q-31 -28 -74 -28z" />
    <glyph glyph-name="eth" unicode="&#xf0;" horiz-adv-x="976" 
d="M367 39q86 0 172 105t137 260t51 294v23q-6 211 -127 211q-88 0 -172 -112t-130 -262t-46 -277q0 -242 115 -242zM909 717q1 -182 -67 -350t-197 -279t-279 -111q-150 1 -223 103t-73 253t62 298t190 253t290 105q37 0 86 -22q-41 162 -137 305l-272 -146l-29 66l260 137
q-59 82 -149 176l39 54q129 -78 219 -173l252 136l28 -66l-229 -123q229 -268 229 -616z" />
    <glyph glyph-name="ntilde" unicode="&#xf1;" horiz-adv-x="1122" 
d="M717 1272l-51 24q-129 63 -169 11q-17 -23 -46 -86l-60 26l10 29q35 100 88 146t113 45t137 -37l47 -23q119 -61 164 -33q27 16 41 39t37 74l57 -25l-12 -35q-57 -163 -145 -195t-211 40zM336 993q160 0 90 -250l-55 -190h8q225 330 362 402q68 36 136 36q145 0 92 -217
l-164 -647l6 -2q123 35 223 201l41 -13q-39 -119 -147 -227t-183 -109q-75 1 -99 55t3 154l154 574q20 82 -37 82q-84 0 -192 -127t-190 -298t-114 -311l-20 -92l-154 -43l-26 27l215 821l-174 31v10q12 14 33 37q22 23 82 59t110 37z" />
    <glyph glyph-name="ograve" unicode="&#xf2;" horiz-adv-x="976" 
d="M440 1548h148l84 -420h-90l-142 381v39zM612 993q154 0 225 -100t71 -248q0 -149 -64 -301q-62 -152 -192 -260t-282 -107t-227 103q-73 102 -73 253t63 299t193 254q132 106 286 107zM252 281q0 -242 113 -242q86 0 171 105q85 106 135 254t50 280q0 254 -121 254
q-88 0 -172 -114t-130 -264t-46 -273z" />
    <glyph glyph-name="oacute" unicode="&#xf3;" horiz-adv-x="976" 
d="M911 1548v-39l-254 -381h-94l203 420h145zM612 993q154 0 225 -100t71 -248q0 -149 -64 -301q-62 -152 -192 -260t-282 -107t-227 103q-73 102 -73 253t63 299t193 254q132 106 286 107zM252 281q0 -242 113 -242q86 0 171 105q85 106 135 254t50 280q0 254 -121 254
q-88 0 -172 -114t-130 -264t-46 -273z" />
    <glyph glyph-name="ocircumflex" unicode="&#xf4;" horiz-adv-x="976" 
d="M449 1128h-91l285 420h115l104 -420h-86l-100 289zM612 993q154 0 225 -100t71 -248q0 -149 -64 -301q-62 -152 -192 -260t-282 -107t-227 103q-73 102 -73 253t63 299t193 254q132 106 286 107zM252 281q0 -242 113 -242q86 0 171 105q85 106 135 254t50 280
q0 254 -121 254q-88 0 -172 -114t-130 -264t-46 -273z" />
    <glyph glyph-name="otilde" unicode="&#xf5;" horiz-adv-x="976" 
d="M643 1272l-51 24q-129 63 -169 11q-17 -23 -46 -86l-60 26l11 29q35 100 88 146t112 45t138 -37l47 -23q61 -31 99 -40t65 7t41 39t36 74l58 -25l-13 -35q-57 -163 -145 -195t-211 40zM252 281q0 -242 113 -242q86 0 171 105q85 106 135 254t50 280q0 254 -121 254
q-88 0 -172 -114t-130 -264t-46 -273zM612 993q154 0 225 -100t71 -248q0 -149 -64 -301q-62 -152 -192 -260t-282 -107t-227 103q-73 102 -73 253t63 299t193 254q132 106 286 107z" />
    <glyph glyph-name="odieresis" unicode="&#xf6;" horiz-adv-x="976" 
d="M729 1319q0 43 30 73q31 30 73 30t73 -30t31 -73t-31 -72t-74 -29t-73 30q-30 28 -29 71zM381 1319q0 43 30 73q31 30 73 30t73 -30t31 -73t-31 -72t-74 -29t-73 30q-30 28 -29 71zM612 993q154 0 225 -100t71 -248q0 -149 -64 -301q-62 -152 -192 -260t-282 -107
t-227 103q-73 102 -73 253t63 299t193 254q132 106 286 107zM252 281q0 -242 113 -242q86 0 171 105q85 106 135 254t50 280q0 254 -121 254q-88 0 -172 -114t-130 -264t-46 -273z" />
    <glyph glyph-name="divide" unicode="&#xf7;" horiz-adv-x="1142" 
d="M565 692q-57 0 -99 43t-42 101t42 99q42 42 99 42t101 -42t43 -99q0 -57 -43 -101q-44 -43 -101 -43zM707 135q-1 -57 -43 -100t-100 -43t-100 43t-42 100t42 99t99 42t101 -42t43 -99zM1051 426h-971v119h971v-119z" />
    <glyph glyph-name="oslash" unicode="&#xf8;" horiz-adv-x="976" 
d="M242 268v-30l467 622q-31 72 -114 72t-169 -116t-135 -270t-49 -278zM731 702q0 43 -2 64l-473 -631q27 -96 112 -96q85 1 172 109t139 264t52 290zM621 993q84 0 149 -49l100 133h93l-140 -184q84 -100 84 -248q0 -149 -63 -301q-62 -152 -192 -260t-294 -107
q-96 0 -170 68l-110 -147h-92l153 202q-69 98 -69 241t63 291t193 254t295 107z" />
    <glyph glyph-name="ugrave" unicode="&#xf9;" horiz-adv-x="1103" 
d="M494 1548h147l84 -420h-90l-141 381v39zM346 993q133 0 82 -211l-145 -598q-14 -61 26 -61q69 0 181 132t197 285t101 228l41 182l152 43l27 -26l-205 -840l6 -2q63 19 123 75t100 126l41 -13q-39 -119 -147 -227t-185 -109q-139 0 -86 216l64 251h-6q-31 -37 -107 -140
q-76 -102 -125 -162t-127 -114t-153 -55q-139 0 -82 236l157 610l-176 31v10q12 14 35 37t87 59t124 37z" />
    <glyph glyph-name="uacute" unicode="&#xfa;" horiz-adv-x="1103" 
d="M967 1548v-39l-254 -381h-95l203 420h146zM346 993q133 0 82 -211l-145 -598q-14 -61 26 -61q69 0 181 132t197 285t101 228l41 182l152 43l27 -26l-205 -840l6 -2q63 19 123 75t100 126l41 -13q-39 -119 -147 -227t-185 -109q-139 0 -86 216l64 251h-6
q-31 -37 -107 -140q-76 -102 -125 -162t-127 -114t-153 -55q-139 0 -82 236l157 610l-176 31v10q12 14 35 37t87 59t124 37z" />
    <glyph glyph-name="ucircumflex" unicode="&#xfb;" horiz-adv-x="1103" 
d="M502 1128h-90l284 420h115l104 -420h-86l-100 289zM346 993q133 0 82 -211l-145 -598q-14 -61 26 -61q69 0 181 132t197 285t101 228l41 182l152 43l27 -26l-205 -840l6 -2q63 19 123 75t100 126l41 -13q-39 -119 -147 -227t-185 -109q-139 0 -86 216l64 251h-6
q-31 -37 -107 -140q-76 -102 -125 -162t-127 -114t-153 -55q-139 0 -82 236l157 610l-176 31v10q12 14 35 37t87 59t124 37z" />
    <glyph glyph-name="udieresis" unicode="&#xfc;" horiz-adv-x="1103" 
d="M784 1319q0 43 30 73t73 30t74 -30t31 -73t-32 -72q-30 -29 -73 -29t-73 30q-30 28 -30 71zM436 1319q0 43 30 73t73 30t73 -30t31 -73q0 -43 -31 -72q-32 -29 -74 -29t-72 30q-30 28 -30 71zM346 993q133 0 82 -211l-145 -598q-14 -61 26 -61q69 0 181 132t197 285
t101 228l41 182l152 43l27 -26l-205 -840l6 -2q63 19 123 75t100 126l41 -13q-39 -119 -147 -227t-185 -109q-139 0 -86 216l64 251h-6q-31 -37 -107 -140q-76 -102 -125 -162t-127 -114t-153 -55q-139 0 -82 236l157 610l-176 31v10q12 14 35 37t87 59t124 37z" />
    <glyph glyph-name="yacute" unicode="&#xfd;" horiz-adv-x="960" 
d="M893 1548v-39l-254 -381h-94l203 420h145zM520 440q0 -268 -71 -454h8q281 319 340 626q4 166 -72 338q57 31 98 31q113 0 113 -157q0 -158 -85 -352q-153 -351 -493 -683q-147 -145 -283 -231q-137 -86 -207 -86t-110 32q-39 33 -39 84t34 85t85 34q86 0 119 -129h6
q115 46 198 146t123 227q74 235 74 441t-34 321q-35 115 -86 114q-44 0 -80 -55t-56 -166h-49q4 158 75 272t170 114q98 0 160 -142t62 -410z" />
    <glyph glyph-name="thorn" unicode="&#xfe;" horiz-adv-x="1036" 
d="M397 39q90 0 182 111q91 112 147 268t56 262t-28 136t-66 30q-76 0 -168 -104t-158 -236t-90 -234l-26 -106q14 -47 54 -87t97 -40zM770 993q203 1 203 -271q0 -136 -80 -314q-80 -176 -222 -308t-298 -131q-90 0 -170 41l-101 -422h277l-19 -80h-593l6 46q94 14 174 61
l426 1763l-121 49l14 46l307 55l-227 -926h10q80 154 197 272t217 119z" />
    <glyph glyph-name="ydieresis" unicode="&#xff;" horiz-adv-x="960" 
d="M711 1319q0 43 29 73q30 30 73 30t74 -30t31 -73t-31 -72t-74 -29t-73 29q-29 29 -29 72zM362 1319q0 43 30 73t73 30t74 -30t31 -73t-32 -72q-30 -29 -73 -29t-73 30q-30 28 -30 71zM520 440q0 -268 -71 -454h8q281 319 340 626q4 166 -72 338q57 31 98 31
q113 0 113 -157q0 -158 -85 -352q-153 -351 -493 -683q-147 -145 -283 -231q-137 -86 -207 -86t-110 32q-39 33 -39 84t34 85t85 34q86 0 119 -129h6q115 46 198 146t123 227q74 235 74 441t-34 321q-35 115 -86 114q-44 0 -80 -55t-56 -166h-49q4 158 75 272t170 114
q98 0 160 -142t62 -410z" />
    <glyph glyph-name="Amacron" unicode="&#x100;" horiz-adv-x="1380" 
d="M559 1602l27 122h577l-26 -122h-578zM756 1186l-310 -580h394l-82 580h-2zM-84 0l12 66l119 47l723 1247l68 10l71 21l187 -1285l127 -40l-13 -66h-489l14 68l174 47l-53 368h-475l-193 -360l183 -55l-15 -68h-440z" />
    <glyph glyph-name="amacron" unicode="&#x101;" horiz-adv-x="1097" 
d="M483 1284l27 123h577l-26 -123h-578zM313 125q59 0 162 117q102 117 187 260q84 143 110 231l25 78q-63 82 -141 82t-175 -98q-96 -98 -166 -257t-69 -309q-1 -104 67 -104zM713 975q86 0 145 -39l19 70h124l-233 -879l6 -2q62 17 122 75t99 126l41 -13
q-45 -127 -148 -231t-176 -104t-97 56t12 175l61 211h-6q-10 -14 -81 -120t-114 -160t-121 -111t-151 -57q-74 0 -118 54t-46 138q-2 182 104 375q105 193 262 315t296 121z" />
    <glyph glyph-name="Abreve" unicode="&#x102;" horiz-adv-x="1380" 
d="M844 1499q-96 0 -151 72q-54 72 -54 201h84q27 -148 143 -148t187 148h77q-77 -273 -286 -273zM756 1186l-310 -580h394l-82 580h-2zM-84 0l12 66l119 47l723 1247l68 10l71 21l187 -1285l127 -40l-13 -66h-489l14 68l174 47l-53 368h-475l-193 -360l183 -55l-15 -68
h-440z" />
    <glyph glyph-name="abreve" unicode="&#x103;" horiz-adv-x="1097" 
d="M743 1159q-109 0 -161 89t-39 245h71q14 -209 156 -209q70 0 125 62t82 147h70q-75 -334 -304 -334zM313 125q59 0 162 117q102 117 187 260q84 143 110 231l25 78q-63 82 -141 82t-175 -98q-96 -98 -166 -257t-69 -309q-1 -104 67 -104zM713 975q86 0 145 -39l19 70h124
l-233 -879l6 -2q62 17 122 75t99 126l41 -13q-45 -127 -148 -231t-176 -104t-97 56t12 175l61 211h-6q-10 -14 -81 -120t-114 -160t-121 -111t-151 -57q-74 0 -118 54t-46 138q-2 182 104 375q105 193 262 315t296 121z" />
    <glyph glyph-name="Aogonek" unicode="&#x104;" horiz-adv-x="1380" 
d="M756 1186l-310 -580h394l-82 580h-2zM782 -391q84 0 187 94l28 -35q-51 -59 -87 -95t-102 -70t-132 -33q-150 0 -150 147q0 88 94 188t295 263l-59 415h-475l-193 -360l183 -55l-15 -68h-440l12 66l119 47l723 1247l68 10l71 21l187 -1285l127 -40l-13 -66h-254
q-154 -110 -206 -176t-52 -140t84 -75z" />
    <glyph glyph-name="aogonek" unicode="&#x105;" horiz-adv-x="1097" 
d="M313 125q59 0 162 117q102 117 187 260q84 143 110 231l25 78q-63 82 -141 82t-175 -98q-96 -98 -166 -257t-69 -309q-1 -104 67 -104zM713 -16h-11q-135 14 -75 225l61 211h-6q-10 -14 -81 -120t-114 -160t-121 -111t-151 -57q-74 0 -118 54t-46 138q-2 182 104 375
q105 193 262 315t296 121q86 0 145 -39l19 70h124l-233 -879l6 -2q62 17 122 75t99 126l41 -13q-47 -129 -157 -239l-160 -162q-71 -72 -97 -100q-72 -78 -72 -125q2 -92 87 -90q47 -1 86 25t90 87l37 -26q-137 -213 -297 -213q-68 0 -114 43t-46 100t17 94q25 58 161 165
q33 26 142 105v7z" />
    <glyph glyph-name="Cacute" unicode="&#x106;" horiz-adv-x="1443" 
d="M1307 1792v-41l-277 -244h-106l192 285h191zM739 -35q-274 0 -449 160t-175 469q0 141 58 280q59 139 165 256t277 189t365 72t388 -109l-35 -364h-71l-58 296q-108 88 -272 88t-306 -112q-142 -113 -215 -277t-71 -333q2 -262 116 -394t310 -133q137 0 252 64l203 313
h73l-110 -369l-102 -34q-184 -62 -343 -62z" />
    <glyph glyph-name="cacute" unicode="&#x107;" horiz-adv-x="843" 
d="M920 1548v-39l-254 -381h-95l203 420h146zM264 311q0 -205 133 -205q63 0 159 68t161 160l37 -25q-56 -109 -184 -223t-242 -115q-114 0 -185 83q-69 82 -69 226t82 312t238 285t261 116q76 0 135 -30q58 -31 58 -66q0 -68 -40 -125q-13 -20 -17 -20q-17 9 -55 36
q-125 91 -197 91q-99 0 -187 -198t-88 -370z" />
    <glyph glyph-name="Ccircumflex" unicode="&#x108;" horiz-adv-x="1443" 
d="M834 1507h-109l238 265h155l133 -265h-94l-133 162zM739 -35q-274 0 -449 160t-175 469q0 141 58 280q59 139 165 256t277 189t365 72t388 -109l-35 -364h-71l-58 296q-108 88 -272 88t-306 -112q-142 -113 -215 -277t-71 -333q2 -262 116 -394t310 -133q137 0 252 64
l203 313h73l-110 -369l-102 -34q-184 -62 -343 -62z" />
    <glyph glyph-name="ccircumflex" unicode="&#x109;" horiz-adv-x="843" 
d="M457 1128h-90l284 420h115l104 -420h-86l-100 289zM264 311q0 -205 133 -205q63 0 159 68t161 160l37 -25q-56 -109 -184 -223t-242 -115q-114 0 -185 83q-69 82 -69 226t82 312t238 285t261 116q76 0 135 -30q58 -31 58 -66q0 -68 -40 -125q-13 -20 -17 -20
q-17 9 -55 36q-125 91 -197 91q-99 0 -187 -198t-88 -370z" />
    <glyph glyph-name="Cdotaccent" unicode="&#x10a;" horiz-adv-x="1443" 
d="M901 1673q0 51 37 89t90 38t90 -38t37 -89t-37 -89t-90 -38t-90 38t-37 89zM739 -35q-274 0 -449 160t-175 469q0 141 58 280q59 139 165 256t277 189t365 72t388 -109l-35 -364h-71l-58 296q-108 88 -272 88t-306 -112q-142 -113 -215 -277t-71 -333q2 -262 116 -394
t310 -133q137 0 252 64l203 313h73l-110 -369l-102 -34q-184 -62 -343 -62z" />
    <glyph glyph-name="cdotaccent" unicode="&#x10b;" horiz-adv-x="843" 
d="M561 1333q0 45 32 77t77 32q44 0 76 -32t32 -77t-32 -77t-76 -32t-77 32q-32 32 -32 77zM264 311q0 -205 133 -205q63 0 159 68t161 160l37 -25q-56 -109 -184 -223t-242 -115q-114 0 -185 83q-69 82 -69 226t82 312t238 285t261 116q76 0 135 -30q58 -31 58 -66
q0 -68 -40 -125q-13 -20 -17 -20q-17 9 -55 36q-125 91 -197 91q-99 0 -187 -198t-88 -370z" />
    <glyph glyph-name="Ccaron" unicode="&#x10c;" horiz-adv-x="1443" 
d="M1204 1772h109l-238 -265h-155l-134 265h95l131 -164zM739 -35q-274 0 -449 160t-175 469q0 141 58 280q59 139 165 256t277 189t365 72t388 -109l-35 -364h-71l-58 296q-108 88 -272 88t-306 -112q-142 -113 -215 -277t-71 -333q2 -262 116 -394t310 -133q137 0 252 64
l203 313h73l-110 -369l-102 -34q-184 -62 -343 -62z" />
    <glyph glyph-name="ccaron" unicode="&#x10d;" horiz-adv-x="843" 
d="M872 1548h91l-285 -420h-115l-104 420h86l100 -291zM264 311q0 -205 133 -205q63 0 159 68t161 160l37 -25q-56 -109 -184 -223t-242 -115q-114 0 -185 83q-69 82 -69 226t82 312t238 285t261 116q76 0 135 -30q58 -31 58 -66q0 -68 -40 -125q-13 -20 -17 -20
q-17 9 -55 36q-125 91 -197 91q-99 0 -187 -198t-88 -370z" />
    <glyph glyph-name="Dcaron" unicode="&#x10e;" horiz-adv-x="1521" 
d="M1024 1772h109l-238 -265h-156l-133 265h94l131 -164zM1475 756q0 -222 -123 -400t-323 -271t-435 -91l-584 6l15 68l172 47l221 1126l-154 53l12 66l422 4q367 4 572 -156t205 -452zM616 1288l-206 -1046q-18 -94 34 -130t150 -34q223 2 380 103q290 186 294 581
q2 258 -172 392q-175 134 -480 134z" />
    <glyph glyph-name="dcaron" unicode="&#x10f;" horiz-adv-x="1136" 
d="M1473 1528v-17l-218 -413h-57l92 430h183zM637 928q-92 0 -182 -112q-89 -112 -141 -262t-52 -294q0 -142 78 -141q90 0 244 222q153 222 194 398l17 72q-27 45 -72 81t-86 36zM659 993q82 0 168 -47l107 432l-121 49l14 46l301 55l-333 -1401l6 -2q63 19 123 75t100 126
l41 -13q-39 -119 -147 -227t-185 -109q-145 0 -84 232l49 188h-6q-10 -12 -98 -145t-169 -207t-169 -74q-88 1 -140 61t-53 177q0 176 79 356t220 304t297 124z" />
    <glyph glyph-name="Dcroat" unicode="&#x110;" horiz-adv-x="1521" 
d="M840 627h-355l-75 -385q-18 -94 34 -130t150 -34q223 2 380 103q290 186 294 581q2 258 -172 392t-480 134l-112 -569h354zM1475 756q0 -222 -123 -400t-323 -271t-435 -91l-584 6l15 68l172 47l100 512h-201l19 92h200l103 522l-154 53l12 66l422 4q367 4 572 -156
t205 -452z" />
    <glyph glyph-name="dcroat" unicode="&#x111;" horiz-adv-x="1136" 
d="M637 928q-92 0 -182 -112q-89 -112 -141 -262t-52 -294q0 -142 78 -141q90 0 244 222q153 222 194 398l17 72q-27 45 -72 81t-86 36zM733 -23q-145 0 -84 232l49 188h-6q-10 -12 -98 -145t-169 -207t-169 -74q-88 1 -140 61t-53 177q0 176 79 356t220 304t297 124
q82 0 168 -47l47 187h-370l20 90h371l39 155l-121 49l14 46l301 55l-73 -305h176l-21 -90h-176l-239 -1006l6 -2q63 19 123 75t100 126l41 -13q-39 -119 -147 -227t-185 -109z" />
    <glyph glyph-name="Emacron" unicode="&#x112;" horiz-adv-x="1234" 
d="M543 1602l26 122h578l-27 -122h-577zM748 657h-275l-108 -561h495l180 271h74l-94 -367h-1028l12 68l176 47l221 1124l-155 55l12 66h817l152 8l-88 -362h-70l-18 262h-457l-100 -516h272l92 168h62l-84 -418h-68z" />
    <glyph glyph-name="emacron" unicode="&#x113;" horiz-adv-x="827" 
d="M369 1284l26 123h578l-27 -123h-577zM596 918q-82 0 -180 -115t-144 -275q131 18 252 120t121 208q0 62 -49 62zM318 -23q-124 -1 -186 87t-62 208q0 366 306 608q144 114 269 113q170 0 170 -143q0 -136 -162 -242t-395 -137q-10 -66 -10 -121q0 -240 139 -239
q69 0 139 49t115 114l41 -24q-40 -90 -140 -182t-224 -91z" />
    <glyph glyph-name="Ebreve" unicode="&#x114;" horiz-adv-x="1234" 
d="M813 1499q-96 0 -150 72t-55 201h84q27 -148 144 -148t186 148h78q-78 -273 -287 -273zM748 657h-275l-108 -561h495l180 271h74l-94 -367h-1028l12 68l176 47l221 1124l-155 55l12 66h817l152 8l-88 -362h-70l-18 262h-457l-100 -516h272l92 168h62l-84 -418h-68z" />
    <glyph glyph-name="ebreve" unicode="&#x115;" horiz-adv-x="827" 
d="M629 1159q-109 0 -162 89t-39 245h72q14 -209 155 -209q70 0 125 62t82 147h70q-74 -334 -303 -334zM596 918q-82 0 -180 -115t-144 -275q131 18 252 120t121 208q0 62 -49 62zM318 -23q-124 -1 -186 87t-62 208q0 366 306 608q144 114 269 113q170 0 170 -143
q0 -136 -162 -242t-395 -137q-10 -66 -10 -121q0 -240 139 -239q69 0 139 49t115 114l41 -24q-40 -90 -140 -182t-224 -91z" />
    <glyph glyph-name="Edotaccent" unicode="&#x116;" horiz-adv-x="1234" 
d="M739 1673q0 51 38 89t89 38t89 -38t38 -89t-38 -89t-89 -38t-89 38t-38 89zM748 657h-275l-108 -561h495l180 271h74l-94 -367h-1028l12 68l176 47l221 1124l-155 55l12 66h817l152 8l-88 -362h-70l-18 262h-457l-100 -516h272l92 168h62l-84 -418h-68z" />
    <glyph glyph-name="edotaccent" unicode="&#x117;" horiz-adv-x="827" 
d="M559 1333q0 45 32 77t77 32q44 0 76 -32t32 -77t-32 -77t-76 -32t-77 32q-32 32 -32 77zM596 918q-82 0 -180 -115t-144 -275q131 18 252 120t121 208q0 62 -49 62zM318 -23q-124 -1 -186 87t-62 208q0 366 306 608q144 114 269 113q170 0 170 -143q0 -136 -162 -242
t-395 -137q-10 -66 -10 -121q0 -240 139 -239q69 0 139 49t115 114l41 -24q-40 -90 -140 -182t-224 -91z" />
    <glyph glyph-name="Eogonek" unicode="&#x118;" horiz-adv-x="1234" 
d="M633 -319q0 -74 80 -74t192 96l29 -35q-57 -66 -89 -98t-95 -66t-133 -34t-112 38t-42 105q0 109 127 219q51 45 223 168h-821l12 68l176 47l221 1124l-155 55l12 66h817l152 8l-88 -362h-70l-18 262h-457l-100 -516h272l92 168h62l-84 -418h-68l-20 155h-275l-108 -561
h495l180 271h74l-94 -367h-127q-162 -142 -211 -200t-49 -119z" />
    <glyph glyph-name="eogonek" unicode="&#x119;" horiz-adv-x="827" 
d="M596 918q-82 0 -180 -115t-144 -275q131 18 252 120t121 208q0 62 -49 62zM70 272q0 366 306 608q144 114 269 113q170 0 170 -143q0 -136 -162 -242t-395 -137q-10 -66 -10 -121q0 -242 147 -241q71 0 135 49t111 116l41 -24q-47 -94 -137 -184l-168 -172
q-88 -92 -119 -134t-31 -80t22 -61t60 -22q82 0 178 112l37 -31q-141 -209 -297 -208q-67 0 -113 45t-46 121t58 136q58 62 152 130t109 78v6q-37 -8 -70 -9q-123 -1 -185 87t-62 208z" />
    <glyph glyph-name="Ecaron" unicode="&#x11a;" horiz-adv-x="1234" 
d="M1020 1772h108l-237 -265h-156l-133 265h94l131 -164zM748 657h-275l-108 -561h495l180 271h74l-94 -367h-1028l12 68l176 47l221 1124l-155 55l12 66h817l152 8l-88 -362h-70l-18 262h-457l-100 -516h272l92 168h62l-84 -418h-68z" />
    <glyph glyph-name="ecaron" unicode="&#x11b;" horiz-adv-x="827" 
d="M872 1548h91l-285 -420h-115l-104 420h86l100 -291zM596 918q-82 0 -180 -115t-144 -275q131 18 252 120t121 208q0 62 -49 62zM318 -23q-124 -1 -186 87t-62 208q0 366 306 608q144 114 269 113q170 0 170 -143q0 -136 -162 -242t-395 -137q-10 -66 -10 -121
q0 -240 139 -239q69 0 139 49t115 114l41 -24q-40 -90 -140 -182t-224 -91z" />
    <glyph glyph-name="Gcircumflex" unicode="&#x11c;" horiz-adv-x="1445" 
d="M815 1507h-108l237 265h156l133 -265h-94l-133 162zM775 53q208 0 245 189l49 254l-174 41l12 59h479l-14 -68l-115 -32l-81 -416q-16 -6 -94 -41q-162 -72 -343 -74q-274 0 -449 160t-175 471q0 144 61 286q133 309 449 439q168 70 356 70t379 -107l-35 -354h-72
l-59 289q-114 84 -274 84t-302 -112t-214 -277q-73 -165 -70 -334q2 -262 118 -394t323 -133z" />
    <glyph glyph-name="gcircumflex" unicode="&#x11d;" horiz-adv-x="860" 
d="M385 1128h-90l285 420h114l105 -420h-86l-101 289zM254 475q0 -147 90 -147q100 -2 185 154t85 306q0 59 -24 99q-25 39 -72 39q-98 2 -181 -151t-83 -300zM469 -164l-141 68q-170 -45 -244 -84t-73 -109q1 -69 94 -115t231 -48t212 42q75 45 75 103q2 35 -30 67t-124 76
zM539 991q51 0 147 -20l254 10l-27 -137l-188 49v-6q51 -63 51 -154q0 -169 -130 -321t-310 -150q-23 0 -33 2q-55 -43 -55 -84t71 -78l318 -157q139 -70 143 -176q0 -119 -154 -210t-360 -91q-208 0 -324 57t-114 145q2 164 424 267v4l-19 8q-125 66 -124 151
q0 106 135 176v5q-70 29 -111 95t-43 144q-2 174 122 322t327 149z" />
    <glyph glyph-name="Gbreve" unicode="&#x11e;" horiz-adv-x="1445" 
d="M975 1499q-96 0 -151 72q-54 72 -54 201h84q28 -148 144 -148t186 148h78q-78 -273 -287 -273zM775 53q208 0 245 189l49 254l-174 41l12 59h479l-14 -68l-115 -32l-81 -416q-16 -6 -94 -41q-162 -72 -343 -74q-274 0 -449 160t-175 471q0 144 61 286q133 309 449 439
q168 70 356 70t379 -107l-35 -354h-72l-59 289q-114 84 -274 84t-302 -112t-214 -277q-73 -165 -70 -334q2 -262 118 -394t323 -133z" />
    <glyph glyph-name="gbreve" unicode="&#x11f;" horiz-adv-x="860" 
d="M559 1159q-109 0 -162 89t-39 245h72q14 -209 156 -209q70 0 125 62t82 147h69q-74 -334 -303 -334zM254 475q0 -147 90 -147q100 -2 185 154t85 306q0 59 -24 99q-25 39 -72 39q-98 2 -181 -151t-83 -300zM469 -164l-141 68q-170 -45 -244 -84t-73 -109q1 -69 94 -115
t231 -48t212 42q75 45 75 103q2 35 -30 67t-124 76zM539 991q51 0 147 -20l254 10l-27 -137l-188 49v-6q51 -63 51 -154q0 -169 -130 -321t-310 -150q-23 0 -33 2q-55 -43 -55 -84t71 -78l318 -157q139 -70 143 -176q0 -119 -154 -210t-360 -91q-208 0 -324 57t-114 145
q2 164 424 267v4l-19 8q-125 66 -124 151q0 106 135 176v5q-70 29 -111 95t-43 144q-2 174 122 322t327 149z" />
    <glyph glyph-name="Gdotaccent" unicode="&#x120;" horiz-adv-x="1445" 
d="M881 1673q0 51 37 89t90 38t90 -38t37 -89t-37 -89t-90 -38t-90 38t-37 89zM775 53q208 0 245 189l49 254l-174 41l12 59h479l-14 -68l-115 -32l-81 -416q-16 -6 -94 -41q-162 -72 -343 -74q-274 0 -449 160t-175 471q0 144 61 286q133 309 449 439q168 70 356 70
t379 -107l-35 -354h-72l-59 289q-114 84 -274 84t-302 -112t-214 -277q-73 -165 -70 -334q2 -262 118 -394t323 -133z" />
    <glyph glyph-name="gdotaccent" unicode="&#x121;" horiz-adv-x="860" 
d="M489 1333q0 45 32 77t77 32t77 -32t32 -77t-32 -77t-77 -32t-77 32t-32 77zM254 475q0 -147 90 -147q100 -2 185 154t85 306q0 59 -24 99q-25 39 -72 39q-98 2 -181 -151t-83 -300zM469 -164l-141 68q-170 -45 -244 -84t-73 -109q1 -69 94 -115t231 -48t212 42
q75 45 75 103q2 35 -30 67t-124 76zM539 991q51 0 147 -20l254 10l-27 -137l-188 49v-6q51 -63 51 -154q0 -169 -130 -321t-310 -150q-23 0 -33 2q-55 -43 -55 -84t71 -78l318 -157q139 -70 143 -176q0 -119 -154 -210t-360 -91q-208 0 -324 57t-114 145q2 164 424 267v4
l-19 8q-125 66 -124 151q0 106 135 176v5q-70 29 -111 95t-43 144q-2 174 122 322t327 149z" />
    <glyph glyph-name="Gcommaaccent" unicode="&#x122;" horiz-adv-x="1445" 
d="M600 -326q0 66 -94 78q4 49 38 84t90 35t93 -38t37 -95q0 -94 -95 -168t-253 -117l-17 55q201 74 201 166zM775 53q208 0 245 189l49 254l-174 41l12 59h479l-14 -68l-115 -32l-81 -416q-16 -6 -94 -41q-162 -72 -343 -74q-274 0 -449 160t-175 471q0 144 61 286
q133 309 449 439q168 70 356 70t379 -107l-35 -354h-72l-59 289q-114 84 -274 84t-302 -112t-214 -277q-73 -165 -70 -334q2 -262 118 -394t323 -133z" />
    <glyph glyph-name="gcommaaccent" unicode="&#x123;" horiz-adv-x="860" 
d="M614 1405q0 -66 95 -78q-4 -49 -39 -84t-90 -35t-93 38q-37 38 -36 95q0 94 95 168t253 117l16 -55q-201 -74 -201 -166zM254 475q0 -147 90 -147q100 -2 185 154t85 306q0 59 -24 99q-25 39 -72 39q-98 2 -181 -151t-83 -300zM469 -164l-141 68q-170 -45 -244 -84
t-73 -109q1 -69 94 -115t231 -48t212 42q75 45 75 103q2 35 -30 67t-124 76zM539 991q51 0 147 -20l254 10l-27 -137l-188 49v-6q51 -63 51 -154q0 -169 -130 -321t-310 -150q-23 0 -33 2q-55 -43 -55 -84t71 -78l318 -157q139 -70 143 -176q0 -119 -154 -210t-360 -91
q-208 0 -324 57t-114 145q2 164 424 267v4l-19 8q-125 66 -124 151q0 106 135 176v5q-70 29 -111 95t-43 144q-2 174 122 322t327 149z" />
    <glyph glyph-name="Hcircumflex" unicode="&#x124;" horiz-adv-x="1562" 
d="M809 1507h-109l238 265h156l133 -265h-94l-134 162zM823 0l13 68l176 47l106 547h-645l-106 -547l155 -49l-12 -66h-518l14 68l170 47l223 1126l-153 53l12 66h520l-10 -66l-180 -53l-96 -483h645l96 483l-154 53l13 66h520l-13 -66l-176 -53l-223 -1126l156 -49l-13 -66
h-520z" />
    <glyph glyph-name="hcircumflex" unicode="&#x125;" horiz-adv-x="1089" 
d="M639 1671h-109l238 264h156l133 -264h-94l-134 162zM844 991q145 0 92 -217l-162 -647l6 -2q125 37 221 201l41 -13q-38 -119 -146 -227t-182 -109q-74 1 -99 55q-26 54 1 154l154 574q20 82 -39 82q-77 0 -187 -128t-195 -301t-111 -307l-19 -92l-153 -43l-27 27
l334 1380l-121 49l14 46l307 55l-243 -993h8q213 333 367 416q72 40 139 40z" />
    <glyph glyph-name="Hbar" unicode="&#x126;" horiz-adv-x="1562" 
d="M492 758h645l43 219h-645zM147 977l19 84h196l37 180l-153 53l12 66h520l-10 -66l-180 -53l-37 -180h645l37 180l-154 53l13 66h520l-13 -66l-176 -53l-37 -180h195l-18 -84h-193l-170 -862l156 -49l-13 -66h-520l13 68l176 47l106 547h-645l-106 -547l155 -49l-12 -66
h-518l14 68l170 47l170 862h-199z" />
    <glyph glyph-name="hbar" unicode="&#x127;" horiz-adv-x="1089" 
d="M844 991q145 0 92 -217l-162 -647l6 -2q125 37 221 201l41 -13q-38 -119 -146 -227t-182 -109q-74 1 -99 55q-26 54 1 154l154 574q20 82 -39 82q-77 0 -187 -128t-195 -301t-111 -307l-19 -92l-153 -43l-27 27l272 1128h-178l23 97h180l37 155l-121 49l14 46l307 55
l-75 -305h364l-22 -97h-365l-145 -591h8q213 333 367 416q72 40 139 40z" />
    <glyph glyph-name="Itilde" unicode="&#x128;" horiz-adv-x="727" 
d="M561 1575l-51 24q-129 63 -169 11q-17 -23 -46 -86l-59 26l10 29q35 100 88 146t112 45t138 -37l47 -23q61 -31 99 -40t65 7t41 39t36 74l58 -25l-12 -34q-58 -162 -146 -195t-211 39zM-8 0l14 68l170 47l223 1126l-153 53l12 66h518l-12 -66l-176 -53l-223 -1126
l155 -49l-12 -66h-516z" />
    <glyph glyph-name="itilde" unicode="&#x129;" horiz-adv-x="600" 
d="M715 1487l57 -25l-12 -35q-56 -163 -144 -193t-213 38l-30 14q-128 61 -165 17q-17 -20 -44 -82l-60 26l11 29q96 276 327 145l31 -14q145 -69 193 -12q20 24 49 92zM220 -23q-72 1 -98 55q-24 54 1 152l153 627l-174 39v10q12 14 35 37t89 59t124 37q129 0 80 -213
l-151 -653l6 -2q63 19 123 75t100 126l41 -13q-39 -119 -148 -227t-181 -109z" />
    <glyph glyph-name="Imacron" unicode="&#x12a;" horiz-adv-x="727" 
d="M283 1602l26 122h578l-27 -122h-577zM-8 0l14 68l170 47l223 1126l-153 53l12 66h518l-12 -66l-176 -53l-223 -1126l155 -49l-12 -66h-516z" />
    <glyph glyph-name="imacron" unicode="&#x12b;" horiz-adv-x="600" 
d="M220 -23q-72 1 -98 55q-24 54 1 152l153 627l-174 39v10q12 14 35 37t89 59t124 37q129 0 80 -213l-151 -653l6 -2q63 19 123 75t100 126l41 -13q-39 -119 -148 -227t-181 -109zM168 1284l27 123h495l-26 -123h-496z" />
    <glyph glyph-name="Ibreve" unicode="&#x12c;" horiz-adv-x="727" 
d="M551 1499q-96 0 -151 72q-54 72 -54 201h84q27 -148 144 -148t186 148h78q-78 -273 -287 -273zM-8 0l14 68l170 47l223 1126l-153 53l12 66h518l-12 -66l-176 -53l-223 -1126l155 -49l-12 -66h-516z" />
    <glyph glyph-name="ibreve" unicode="&#x12d;" horiz-adv-x="600" 
d="M397 1159q-109 0 -161 89t-39 245h71q14 -209 156 -209q70 0 125 62t82 147h69q-74 -334 -303 -334zM220 -23q-72 1 -98 55q-24 54 1 152l153 627l-174 39v10q12 14 35 37t89 59t124 37q129 0 80 -213l-151 -653l6 -2q63 19 123 75t100 126l41 -13q-39 -119 -148 -227
t-181 -109z" />
    <glyph glyph-name="Iogonek" unicode="&#x12e;" horiz-adv-x="727" 
d="M209 -391q47 0 88 19t100 75l29 -35q-51 -59 -87 -95t-98 -70q-62 -33 -132 -33t-114 41t-44 98q0 106 76 192q29 33 87 95t93 104h-215l14 68l170 47l223 1126l-153 53l12 66h518l-12 -66l-176 -53l-223 -1126l155 -49l-12 -66h-213q-76 -98 -104 -137
q-72 -100 -70 -172q0 -82 88 -82z" />
    <glyph glyph-name="iogonek" unicode="&#x12f;" horiz-adv-x="600" 
d="M348 1393q0 45 32 77t77 31q45 0 77 -32q32 -33 32 -77t-32 -76t-77 -32t-77 32t-32 77zM61 -325q0 -35 24 -57q25 -22 67 -22t81 26t91 87l36 -26q-137 -213 -297 -213q-67 0 -113 43t-46 100t16 94q32 73 297 266v7h-10q-131 10 -84 204l153 627l-174 39v10
q12 14 35 37t89 59t124 37q129 0 80 -213l-151 -653l6 -2q63 17 123 75t98 126l41 -13q-47 -129 -158 -239l-160 -162q-72 -72 -97 -99q-71 -76 -71 -138z" />
    <glyph glyph-name="Idotaccent" unicode="&#x130;" horiz-adv-x="727" 
d="M432 1673q0 51 38 89t89 38t89 -38t38 -89t-38 -89t-89 -38t-89 38t-38 89zM-8 0l14 68l170 47l223 1126l-153 53l12 66h518l-12 -66l-176 -53l-223 -1126l155 -49l-12 -66h-516z" />
    <glyph glyph-name="dotlessi" unicode="&#x131;" horiz-adv-x="600" 
d="M220 -23q-72 1 -98 55q-24 54 1 152l153 627l-174 39v10q12 14 35 37t89 59t124 37q129 0 80 -213l-151 -653l6 -2q63 19 123 75t100 126l41 -13q-39 -119 -148 -227t-181 -109z" />
    <glyph glyph-name="IJ" unicode="&#x132;" horiz-adv-x="1404" 
d="M1335 1241l-223 -1137q-51 -258 -174 -392t-360 -158l-11 63q172 66 242 168t109 295l231 1163l-176 43l14 74h537l-13 -66zM-8 0l14 68l170 47l223 1126l-153 53l12 66h518l-12 -66l-176 -53l-223 -1126l155 -49l-12 -66h-516z" />
    <glyph glyph-name="ij" unicode="&#x133;" horiz-adv-x="1099" 
d="M938 1393q0 45 32 77t77 31q45 0 77 -32q32 -33 31 -77q0 -44 -32 -76q-33 -32 -77 -32t-76 32t-32 77zM926 993q150 0 94 -229l-176 -735q-56 -244 -184 -403t-269 -158q-47 0 -93 30t-46 70q0 41 16 73t39 46q123 -119 178 -119t87 68t73 239l221 936l-176 39v10
q45 52 113 93q69 40 123 40zM348 1393q0 45 32 77t77 31q45 0 77 -32q32 -33 32 -77t-32 -76t-77 -32t-77 32t-32 77zM350 993q129 0 80 -213l-151 -653l6 -2q63 19 123 75t100 126l41 -13q-39 -119 -148 -227t-181 -109q-72 1 -98 55q-24 54 1 152l153 627l-174 39v10
q12 14 35 37t89 59t124 37z" />
    <glyph glyph-name="Jcircumflex" unicode="&#x134;" horiz-adv-x="708" 
d="M444 1507h-108l237 265h156l133 -265h-94l-133 162zM639 1241l-223 -1137q-51 -258 -174 -392t-361 -158l-10 63q172 66 242 168t108 295l232 1163l-177 43l15 74h536l-12 -66z" />
    <glyph glyph-name="jcircumflex" unicode="&#x135;" horiz-adv-x="534" 
d="M244 1128h-90l284 420h115l104 -420h-86l-100 289zM360 993q150 0 95 -229l-176 -735q-57 -244 -185 -403t-268 -158q-47 0 -93 30t-46 70q0 41 16 73t39 46q123 -119 178 -119t87 68t73 239l221 936l-176 39v10q45 52 113 93q69 40 122 40z" />
    <glyph glyph-name="Kcommaaccent" unicode="&#x136;" horiz-adv-x="1351" 
d="M641 -326q0 66 -94 78q4 49 38 84t90 35t93 -38t37 -95q0 -94 -95 -168t-253 -117l-17 55q201 74 201 166zM1264 45l-19 -65q-219 0 -310 85q-100 93 -328 505q-13 24 -36 63t-43 74l2 18l76 35l529 495l-154 39l12 66h443l-11 -66l-157 -45l-555 -499q293 -473 327 -525
q90 -127 170 -162q23 -10 54 -18zM-8 0l12 68l174 47l221 1126l-153 53l12 66h520l-12 -66l-176 -53l-223 -1126l155 -49l-12 -66h-518z" />
    <glyph glyph-name="kcommaaccent" unicode="&#x137;" horiz-adv-x="980" 
d="M332 -326q0 66 -94 78q4 49 38 84q35 35 90 35q54 0 92 -38t38 -95q0 -94 -96 -168t-253 -117l-16 55q201 74 201 166zM715 850q-92 0 -211 -145t-199 -334q219 59 349 179t130 222q1 78 -69 78zM814 -82q-60 0 -102 25q-40 25 -114 98l-303 305q-37 -98 -53 -184
l-27 -150l-149 -41l-27 27l334 1380l-121 49l14 46l305 55l-225 -944h10q111 195 213 301t219 106q74 0 117 -47t43 -117q0 -147 -144 -270t-337 -186l436 -418v-10q-29 -25 -89 -25z" />
    <glyph glyph-name="kgreenlandic" unicode="&#x138;" horiz-adv-x="1032" 
d="M766 850q-76 0 -196 -142t-208 -337q215 61 345 181q129 120 129 220q0 78 -70 78zM379 553q281 438 445 438q90 0 132 -46t43 -118q0 -147 -144 -270t-337 -186l436 -418v-10q-30 -25 -90 -25t-100 25t-115 98l-299 303q-57 -127 -80 -238l-20 -92l-154 -43l-26 27
l215 821l-174 31v10q12 14 33 37q22 23 82 59t110 37q156 0 90 -250l-55 -190h8z" />
    <glyph glyph-name="Lacute" unicode="&#x139;" horiz-adv-x="1196" 
d="M868 1792v-41l-276 -244h-107l193 285h190zM367 96h434l190 312h72l-109 -408h-962l14 68l170 47l223 1124l-153 55l12 66h555l-12 -66l-211 -53z" />
    <glyph glyph-name="lacute" unicode="&#x13a;" horiz-adv-x="548" 
d="M854 1931v-41l-276 -243h-107l193 284h190zM176 -23q-72 1 -96 55t0 152l293 1194l-121 49l14 46l301 55l-331 -1401l6 -2q62 19 122 75t101 126l41 -13q-39 -119 -148 -227q-110 -108 -182 -109z" />
    <glyph glyph-name="Lcommaaccent" unicode="&#x13b;" horiz-adv-x="1196" 
d="M459 -326q0 66 -94 78q4 49 38 84q35 35 90 35t93 -38t37 -95q1 -94 -95 -168t-254 -117l-16 55q201 74 201 166zM367 96h434l190 312h72l-109 -408h-962l14 68l170 47l223 1124l-153 55l12 66h555l-12 -66l-211 -53z" />
    <glyph glyph-name="lcommaaccent" unicode="&#x13c;" horiz-adv-x="548" 
d="M90 -326q0 66 -94 78q4 49 39 84t90 35t92 -38t37 -95q0 -94 -95 -168t-253 -117l-17 55q201 74 201 166zM176 -23q-72 1 -96 55t0 152l293 1194l-121 49l14 46l301 55l-331 -1401l6 -2q62 19 122 75t101 126l41 -13q-39 -119 -148 -227q-110 -108 -182 -109z" />
    <glyph glyph-name="Lcaron" unicode="&#x13d;" horiz-adv-x="1196" 
d="M1200 1378v-16l-217 -414h-57l92 430h182zM367 96h434l190 312h72l-109 -408h-962l14 68l170 47l223 1124l-153 55l12 66h555l-12 -66l-211 -53z" />
    <glyph glyph-name="lcaron" unicode="&#x13e;" horiz-adv-x="548" 
d="M911 1528v-17l-217 -413h-57l92 430h182zM176 -23q-72 1 -96 55t0 152l293 1194l-121 49l14 46l301 55l-331 -1401l6 -2q62 19 122 75t101 126l41 -13q-39 -119 -148 -227q-110 -108 -182 -109z" />
    <glyph glyph-name="Ldot" unicode="&#x13f;" horiz-adv-x="1196" 
d="M367 96h434l190 312h72l-109 -408h-962l14 68l170 47l223 1124l-153 55l12 66h555l-12 -66l-211 -53zM1019 647q-54 0 -94 40t-40 94q0 55 40 95t94 40t94 -40t40 -94t-40 -95q-40 -40 -94 -40z" />
    <glyph glyph-name="ldot" unicode="&#x140;" horiz-adv-x="671" 
d="M176 -23q-72 1 -96 55t0 152l293 1194l-121 49l14 46l301 55l-331 -1401l6 -2q62 19 122 75t101 126l41 -13q-39 -119 -148 -227q-110 -108 -182 -109zM774 751q0 -55 -40 -95t-94 -40t-94 40t-40 94t40 95q40 40 94 40t94 -40t40 -94z" />
    <glyph glyph-name="Lslash" unicode="&#x141;" horiz-adv-x="1196" 
d="M80 514l18 90l185 49l116 586l-153 55l12 66h555l-12 -66l-211 -53l-105 -534l484 131l-19 -90l-483 -130l-100 -522h434l190 312h72l-109 -408h-962l14 68l170 47l88 448z" />
    <glyph glyph-name="lslash" unicode="&#x142;" horiz-adv-x="548" 
d="M176 -23q-72 1 -96 55t0 152l117 480l-195 -97l25 103l196 96l150 612l-121 49l14 46l301 55l-159 -672l217 109l-25 -103l-217 -106l-147 -629l6 -2q62 19 122 75t101 126l41 -13q-39 -119 -148 -227q-110 -108 -182 -109z" />
    <glyph glyph-name="Nacute" unicode="&#x143;" horiz-adv-x="1519" 
d="M1223 1792v-41l-277 -244h-106l192 285h191zM1169 -23h-71l-615 1141l-194 -989l227 -61l-14 -68h-510l12 68l172 47l219 1106l-168 73l11 66h335l545 -1016l174 887l-229 61l14 68h512l-14 -68l-174 -51l-189 -962z" />
    <glyph glyph-name="nacute" unicode="&#x144;" horiz-adv-x="1122" 
d="M983 1548v-39l-254 -381h-94l203 420h145zM336 993q160 0 90 -250l-55 -190h8q225 330 362 402q68 36 136 36q145 0 92 -217l-164 -647l6 -2q123 35 223 201l41 -13q-39 -119 -147 -227t-183 -109q-75 1 -99 55t3 154l154 574q20 82 -37 82q-84 0 -192 -127t-190 -298
t-114 -311l-20 -92l-154 -43l-26 27l215 821l-174 31v10q12 14 33 37q22 23 82 59t110 37z" />
    <glyph glyph-name="Ncommaaccent" unicode="&#x145;" horiz-adv-x="1519" 
d="M687 -129q56 0 93 -38t37 -95q0 -94 -95 -168t-253 -117l-16 55q201 74 200 166q0 66 -94 78q4 49 38 84t90 35zM1169 -23h-71l-615 1141l-194 -989l227 -61l-14 -68h-510l12 68l172 47l219 1106l-168 73l11 66h335l545 -1016l174 887l-229 61l14 68h512l-14 -68
l-174 -51l-189 -962z" />
    <glyph glyph-name="ncommaaccent" unicode="&#x146;" horiz-adv-x="1122" 
d="M428 -129q55 0 92 -38t37 -95q0 -94 -95 -168t-253 -117l-16 55q201 74 200 166q0 66 -94 78q4 49 39 84t90 35zM336 993q160 0 90 -250l-55 -190h8q225 330 362 402q68 36 136 36q145 0 92 -217l-164 -647l6 -2q123 35 223 201l41 -13q-39 -119 -147 -227t-183 -109
q-75 1 -99 55t3 154l154 574q20 82 -37 82q-84 0 -192 -127t-190 -298t-114 -311l-20 -92l-154 -43l-26 27l215 821l-174 31v10q12 14 33 37q22 23 82 59t110 37z" />
    <glyph glyph-name="Ncaron" unicode="&#x147;" horiz-adv-x="1519" 
d="M1153 1772h109l-238 -265h-156l-133 265h94l132 -164zM1169 -23h-71l-615 1141l-194 -989l227 -61l-14 -68h-510l12 68l172 47l219 1106l-168 73l11 66h335l545 -1016l174 887l-229 61l14 68h512l-14 -68l-174 -51l-189 -962z" />
    <glyph glyph-name="ncaron" unicode="&#x148;" horiz-adv-x="1122" 
d="M936 1548h90l-285 -420h-114l-105 420h86l101 -291zM336 993q160 0 90 -250l-55 -190h8q225 330 362 402q68 36 136 36q145 0 92 -217l-164 -647l6 -2q123 35 223 201l41 -13q-39 -119 -147 -227t-183 -109q-75 1 -99 55t3 154l154 574q20 82 -37 82q-84 0 -192 -127
t-190 -298t-114 -311l-20 -92l-154 -43l-26 27l215 821l-174 31v10q12 14 33 37q22 23 82 59t110 37z" />
    <glyph glyph-name="napostrophe" unicode="&#x149;" horiz-adv-x="1122" 
d="M307 1331q0 66 -94 78q4 49 39 84t90 35t92 -38t37 -95q0 -94 -95 -168t-253 -117l-17 55q201 74 201 166zM336 993q160 0 90 -250l-55 -190h8q225 330 362 402q68 36 136 36q145 0 92 -217l-164 -647l6 -2q123 35 223 201l41 -13q-39 -119 -147 -227t-183 -109
q-75 1 -99 55t3 154l154 574q20 82 -37 82q-84 0 -192 -127t-190 -298t-114 -311l-20 -92l-154 -43l-26 27l215 821l-174 31v10q12 14 33 37q22 23 82 59t110 37z" />
    <glyph glyph-name="Eng" unicode="&#x14a;" horiz-adv-x="1519" 
d="M1401 1241l-225 -1137q-50 -258 -174 -392t-361 -158l-10 63q253 90 325 257q33 75 62 206l6 33l-541 1005l-194 -989l227 -61l-14 -68h-510l12 68l172 47l219 1106l-168 73l11 66h335l545 -1016l174 887l-229 61l14 68h512l-14 -68z" />
    <glyph glyph-name="eng" unicode="&#x14b;" horiz-adv-x="1046" 
d="M766 842q-84 0 -192 -127t-190 -298t-114 -311l-20 -92l-154 -43l-26 27l215 821l-174 31v10q12 14 33 37q22 23 82 59t110 37q160 0 90 -250l-55 -190h8q225 330 362 402q68 36 136 36q145 0 92 -217l-178 -745q-59 -244 -185 -403t-268 -158q-47 0 -93 30t-46 70
q0 41 16 73t39 46q123 -119 178 -119t88 70t72 237l211 885q20 82 -37 82z" />
    <glyph glyph-name="Omacron" unicode="&#x14c;" horiz-adv-x="1509" 
d="M694 1602l27 122h577l-26 -122h-578zM1249 866q0 188 -88 311q-89 123 -247 123t-294 -110t-222 -299q-86 -188 -85 -392q0 -204 86 -328t258 -124t313 133q140 134 210 316t69 370zM946 1391q203 0 356 -160t152 -418q0 -153 -57 -305q-125 -332 -425 -474
q-162 -77 -360 -77t-351 160t-152 420q0 150 54 299q120 334 418 477q162 78 365 78z" />
    <glyph glyph-name="omacron" unicode="&#x14d;" horiz-adv-x="976" 
d="M360 1284l27 123h578l-27 -123h-578zM612 993q154 0 225 -100t71 -248q0 -149 -64 -301q-62 -152 -192 -260t-282 -107t-227 103q-73 102 -73 253t63 299t193 254q132 106 286 107zM252 281q0 -242 113 -242q86 0 171 105q85 106 135 254t50 280q0 254 -121 254
q-88 0 -172 -114t-130 -264t-46 -273z" />
    <glyph glyph-name="Obreve" unicode="&#x14e;" horiz-adv-x="1509" 
d="M965 1499q-96 0 -151 72q-54 72 -54 201h84q28 -148 144 -148t186 148h77q-77 -273 -286 -273zM1249 866q0 188 -88 311q-89 123 -247 123t-294 -110t-222 -299q-86 -188 -85 -392q0 -204 86 -328t258 -124t313 133q140 134 210 316t69 370zM946 1391q203 0 356 -160
t152 -418q0 -153 -57 -305q-125 -332 -425 -474q-162 -77 -360 -77t-351 160t-152 420q0 150 54 299q120 334 418 477q162 78 365 78z" />
    <glyph glyph-name="obreve" unicode="&#x14f;" horiz-adv-x="976" 
d="M621 1159q-109 0 -162 89t-39 245h72q14 -209 155 -209q70 0 125 62t82 147h70q-74 -334 -303 -334zM612 993q154 0 225 -100t71 -248q0 -149 -64 -301q-62 -152 -192 -260t-282 -107t-227 103q-73 102 -73 253t63 299t193 254q132 106 286 107zM252 281q0 -242 113 -242
q86 0 171 105q85 106 135 254t50 280q0 254 -121 254q-88 0 -172 -114t-130 -264t-46 -273z" />
    <glyph glyph-name="Ohungarumlaut" unicode="&#x150;" horiz-adv-x="1509" 
d="M1042 1792v-39l-192 -246h-107l136 285h163zM1331 1792v-39l-192 -246h-107l135 285h164zM1249 866q0 188 -88 311q-89 123 -247 123t-294 -110t-222 -299q-86 -188 -85 -392q0 -204 86 -328t258 -124t313 133q140 134 210 316t69 370zM946 1391q203 0 356 -160t152 -418
q0 -153 -57 -305q-125 -332 -425 -474q-162 -77 -360 -77t-351 160t-152 420q0 150 54 299q120 334 418 477q162 78 365 78z" />
    <glyph glyph-name="ohungarumlaut" unicode="&#x151;" horiz-adv-x="976" 
d="M1040 1548v-39l-233 -381h-94l182 420h145zM733 1548v-39l-233 -381h-94l182 420h145zM612 993q154 0 225 -100t71 -248q0 -149 -64 -301q-62 -152 -192 -260t-282 -107t-227 103q-73 102 -73 253t63 299t193 254q132 106 286 107zM252 281q0 -242 113 -242q86 0 171 105
q85 106 135 254t50 280q0 254 -121 254q-88 0 -172 -114t-130 -264t-46 -273z" />
    <glyph glyph-name="OE" unicode="&#x152;" horiz-adv-x="1990" 
d="M714 74q124 0 182 52t89 198l184 938q-111 26 -267 26t-295 -114q-138 -114 -210 -291q-72 -178 -71 -379q-4 -168 74 -291q88 -139 314 -139zM1126 0q-106 0 -460 -6q-238 -4 -396 150t-157 413q0 203 110 391q111 188 297 306t395 118q99 0 269 -6t360 -6h287l151 8
l-88 -362h-69l-19 262h-456l-101 -516h275l88 168h61l-80 -418h-61l-23 155h-278l-111 -561h494l184 271h72l-96 -367h-648z" />
    <glyph glyph-name="oe" unicode="&#x153;" horiz-adv-x="1437" 
d="M1202 915q-84 1 -185 -113t-147 -272q131 18 258 120t127 204q0 61 -53 61zM600 932q-88 0 -172 -114t-130 -264t-46 -273q0 -242 113 -242q86 0 171 105q85 106 135 254t50 280q0 254 -121 254zM918 -23q-156 0 -211 177q-145 -176 -349 -177q-141 1 -215 103
q-73 102 -73 253t63 299t193 254t295 107q109 -1 169 -67t78 -170q82 110 184 174t203 63q170 0 170 -143q0 -131 -168 -240t-401 -139q-12 -57 -12 -145t41 -152q41 -63 111 -63t140 49q71 49 115 114l41 -24q-39 -88 -144 -180t-230 -93z" />
    <glyph glyph-name="Racute" unicode="&#x154;" horiz-adv-x="1349" 
d="M1094 1792v-41l-277 -244h-106l192 285h191zM985 1020q0 136 -95 206t-292 62l-113 -567q246 -8 373 77t127 222zM743 1360q205 0 332 -81t127 -220q0 -231 -269 -336q-65 -25 -138 -39q211 -403 287 -511t188 -130l-17 -61q-169 0 -257 51t-185 233q-65 120 -193 377
h-147l-104 -528l213 -54l-11 -61h-577l12 68l174 47l221 1126l-153 53l14 66h483z" />
    <glyph glyph-name="racute" unicode="&#x155;" horiz-adv-x="831" 
d="M834 1548v-39l-254 -381h-95l203 420h146zM319 993q141 0 78 -223l-108 -369h28q143 326 237 459t210 133q43 1 71 -25q27 -26 27 -77t-34 -107t-68 -88h-70q27 45 21 85t-41 42q-117 -57 -299 -444q-78 -166 -135 -365l-148 -43l-27 27l62 242l135 579l-164 31v10
q12 14 34 37t81 59t110 37z" />
    <glyph glyph-name="Rcommaaccent" unicode="&#x156;" horiz-adv-x="1349" 
d="M683 -129q56 0 93 -38t37 -95q0 -94 -95 -168t-253 -117l-16 55q201 74 200 166q0 66 -94 78q4 49 38 84t90 35zM985 1020q0 136 -95 206t-292 62l-113 -567q246 -8 373 77t127 222zM743 1360q205 0 332 -81t127 -220q0 -231 -269 -336q-65 -25 -138 -39
q211 -403 287 -511t188 -130l-17 -61q-169 0 -257 51t-185 233q-65 120 -193 377h-147l-104 -528l213 -54l-11 -61h-577l12 68l174 47l221 1126l-153 53l14 66h483z" />
    <glyph glyph-name="rcommaaccent" unicode="&#x157;" horiz-adv-x="831" 
d="M88 -129q55 0 92 -38t37 -95q0 -94 -95 -168t-253 -117l-16 55q201 74 200 166q0 66 -94 78q4 49 39 84t90 35zM319 993q141 0 78 -223l-108 -369h28q143 326 237 459t210 133q43 1 71 -25q27 -26 27 -77t-34 -107t-68 -88h-70q27 45 21 85t-41 42q-117 -57 -299 -444
q-78 -166 -135 -365l-148 -43l-27 27l62 242l135 579l-164 31v10q12 14 34 37t81 59t110 37z" />
    <glyph glyph-name="Rcaron" unicode="&#x158;" horiz-adv-x="1349" 
d="M991 1772h109l-238 -265h-155l-134 265h95l131 -164zM985 1020q0 136 -95 206t-292 62l-113 -567q246 -8 373 77t127 222zM743 1360q205 0 332 -81t127 -220q0 -231 -269 -336q-65 -25 -138 -39q211 -403 287 -511t188 -130l-17 -61q-169 0 -257 51t-185 233
q-65 120 -193 377h-147l-104 -528l213 -54l-11 -61h-577l12 68l174 47l221 1126l-153 53l14 66h483z" />
    <glyph glyph-name="rcaron" unicode="&#x159;" horiz-adv-x="831" 
d="M797 1548h90l-285 -420h-115l-104 420h86l100 -291zM319 993q141 0 78 -223l-108 -369h28q143 326 237 459t210 133q43 1 71 -25q27 -26 27 -77t-34 -107t-68 -88h-70q27 45 21 85t-41 42q-117 -57 -299 -444q-78 -166 -135 -365l-148 -43l-27 27l62 242l135 579l-164 31
v10q12 14 34 37t81 59t110 37z" />
    <glyph glyph-name="Sacute" unicode="&#x15a;" horiz-adv-x="1058" 
d="M1004 1792v-41l-277 -244h-106l192 285h191zM457 47q123 0 209 71t90 216q-2 82 -49 145t-170 139l-64 39q-123 76 -181 153t-59 187q1 164 141 279t345 115q109 0 325 -52l-92 -376h-80v284q-92 63 -206 63t-187 -68q-73 -69 -73 -154t32 -138t135 -119l70 -45
q166 -108 234 -186t67 -194q0 -190 -159 -316t-369 -125q-86 1 -134 11q-148 32 -255 67l55 403h78l39 -319q135 -80 258 -80z" />
    <glyph glyph-name="sacute" unicode="&#x15b;" horiz-adv-x="704" 
d="M799 1548v-39l-254 -381h-94l202 420h146zM340 88q38 0 64 24t26 79t-59 135l-105 145q-61 86 -82 127q-20 41 -20 84q0 119 122 216t226 97q72 -1 125 -31t53 -71q0 -63 -39 -119l-6 -2q-166 106 -246 107q-39 0 -65 -24t-25 -76q0 -52 58 -134l114 -162q45 -66 59 -86
q40 -60 40 -116q0 -105 -111 -207t-244 -103q-88 0 -151 45q-64 45 -64 102t37 101h2q207 -131 291 -131z" />
    <glyph glyph-name="Scircumflex" unicode="&#x15c;" horiz-adv-x="1058" 
d="M580 1507h-109l238 265h155l133 -265h-94l-133 162zM457 47q123 0 209 71t90 216q-2 82 -49 145t-170 139l-64 39q-123 76 -181 153t-59 187q1 164 141 279t345 115q109 0 325 -52l-92 -376h-80v284q-92 63 -206 63t-187 -68q-73 -69 -73 -154t32 -138t135 -119l70 -45
q166 -108 234 -186t67 -194q0 -190 -159 -316t-369 -125q-86 1 -134 11q-148 32 -255 67l55 403h78l39 -319q135 -80 258 -80z" />
    <glyph glyph-name="scircumflex" unicode="&#x15d;" horiz-adv-x="704" 
d="M336 1128h-90l284 420h115l105 -420h-86l-101 289zM340 88q38 0 64 24t26 79t-59 135l-105 145q-61 86 -82 127q-20 41 -20 84q0 119 122 216t226 97q72 -1 125 -31t53 -71q0 -63 -39 -119l-6 -2q-166 106 -246 107q-39 0 -65 -24t-25 -76q0 -52 58 -134l114 -162
q45 -66 59 -86q40 -60 40 -116q0 -105 -111 -207t-244 -103q-88 0 -151 45q-64 45 -64 102t37 101h2q207 -131 291 -131z" />
    <glyph glyph-name="Scedilla" unicode="&#x15e;" horiz-adv-x="1058" 
d="M336 -303q0 68 -82 104l129 164q-111 4 -356 78l55 403h78l39 -319q135 -80 258 -80t209 71t90 216q-2 82 -49 145t-170 139l-64 39q-123 76 -181 153t-59 187q1 164 141 279t345 115q109 0 325 -52l-92 -376h-80v284q-92 63 -206 63t-187 -68q-73 -69 -73 -154t32 -138
t135 -119l70 -45q166 -108 234 -186t67 -194q0 -178 -143 -302t-342 -137l-72 -96q100 -43 100 -131q0 -196 -360 -266v53q209 63 209 170z" />
    <glyph glyph-name="scedilla" unicode="&#x15f;" horiz-adv-x="704" 
d="M10 120q0 54 37 99h2q207 -131 291 -131q38 0 64 24t26 79t-59 135l-105 145q-61 86 -82 127q-20 41 -20 84q0 119 122 216t226 97q72 -1 125 -31t53 -71q0 -63 -39 -119l-6 -2q-166 106 -246 107q-39 0 -65 -24t-25 -76q0 -52 58 -134l114 -162q45 -66 71 -105t28 -97
q0 -95 -96 -191t-216 -115l-78 -104q100 -43 101 -131q-1 -196 -361 -266v53q209 63 209 170q0 68 -82 104l136 172q-79 9 -131 51t-52 96z" />
    <glyph glyph-name="Scaron" unicode="&#x160;" horiz-adv-x="1058" 
d="M948 1772h109l-238 -265h-155l-134 265h95l131 -164zM457 47q123 0 209 71t90 216q-2 82 -49 145t-170 139l-64 39q-123 76 -181 153t-59 187q1 164 141 279t345 115q109 0 325 -52l-92 -376h-80v284q-92 63 -206 63t-187 -68q-73 -69 -73 -154t32 -138t135 -119l70 -45
q166 -108 234 -186t67 -194q0 -190 -159 -316t-369 -125q-86 1 -134 11q-148 32 -255 67l55 403h78l39 -319q135 -80 258 -80z" />
    <glyph glyph-name="scaron" unicode="&#x161;" horiz-adv-x="704" 
d="M752 1548h90l-285 -420h-115l-104 420h86l100 -291zM340 88q38 0 64 24t26 79t-59 135l-105 145q-61 86 -82 127q-20 41 -20 84q0 119 122 216t226 97q72 -1 125 -31t53 -71q0 -63 -39 -119l-6 -2q-166 106 -246 107q-39 0 -65 -24t-25 -76q0 -52 58 -134l114 -162
q45 -66 59 -86q40 -60 40 -116q0 -105 -111 -207t-244 -103q-88 0 -151 45q-64 45 -64 102t37 101h2q207 -131 291 -131z" />
    <glyph glyph-name="Tcommaaccent" unicode="&#x162;" horiz-adv-x="1325" 
d="M461 -326q0 66 -94 78q4 49 37 84q34 35 90 35t94 -38q37 -38 37 -95q1 -94 -95 -168t-254 -117l-16 55q201 74 201 166zM375 1360h864l133 16l-84 -370h-69l-23 262h-324l-225 -1153l172 -47l-14 -68h-555l14 68l195 47l225 1153h-301l-127 -262h-70l62 370z" />
    <glyph glyph-name="tcommaaccent" unicode="&#x163;" horiz-adv-x="696" 
d="M134 -129q56 0 93 -38t37 -95q0 -94 -95 -168t-253 -117l-16 55q201 74 200 166q0 66 -94 78q4 49 38 84t90 35zM166 -25q-55 1 -83 51t-9 128l172 696h-160l12 90h174l95 254h127l-62 -254h268l-12 -90h-274l-168 -707l8 -6q76 29 163 101t132 135l41 -15
q-54 -121 -196 -252t-228 -131z" />
    <glyph glyph-name="Tcaron" unicode="&#x164;" horiz-adv-x="1325" 
d="M1044 1772h109l-238 -265h-155l-133 265h94l131 -164zM375 1360h864l133 16l-84 -370h-69l-23 262h-324l-225 -1153l172 -47l-14 -68h-555l14 68l195 47l225 1153h-301l-127 -262h-70l62 370z" />
    <glyph glyph-name="tcaron" unicode="&#x165;" horiz-adv-x="696" 
d="M932 1540v-16l-217 -414h-58l93 430h182zM166 -25q-55 1 -83 51t-9 128l172 696h-160l12 90h174l95 254h127l-62 -254h268l-12 -90h-274l-168 -707l8 -6q76 29 163 101t132 135l41 -15q-54 -121 -196 -252t-228 -131z" />
    <glyph glyph-name="Tbar" unicode="&#x166;" horiz-adv-x="1325" 
d="M375 1360h864l133 16l-84 -370h-69l-23 262h-324l-92 -465h342l-18 -90h-340l-117 -598l172 -47l-14 -68h-555l14 68l195 47l116 598h-323l18 90h322l92 465h-301l-127 -262h-70l62 370z" />
    <glyph glyph-name="tbar" unicode="&#x167;" horiz-adv-x="696" 
d="M166 -25q-55 1 -83 51t-9 128l108 438h-133l12 88h142l43 170h-160l12 90h174l95 254h127l-62 -254h268l-12 -90h-274l-41 -170h286l-14 -88h-293l-106 -449l8 -6q76 29 163 101t132 135l41 -15q-54 -121 -196 -252t-228 -131z" />
    <glyph glyph-name="Utilde" unicode="&#x168;" horiz-adv-x="1474" 
d="M940 1575l-51 24q-129 63 -169 11q-17 -23 -46 -86l-60 26l11 29q35 100 88 146t112 45t138 -37l47 -23q61 -31 99 -40t65 7q26 16 40 39t37 74l58 -25l-13 -34q-57 -162 -145 -195t-211 39zM631 -49q-231 0 -353 144q-121 144 -65 478l135 668l-155 53l12 66h526
l-12 -66l-176 -53l-142 -711q-43 -221 36 -342q79 -120 247 -120t290 116t171 389l119 664l-222 57l13 66h512l-13 -66l-174 -53l-129 -688q-55 -291 -222 -447t-398 -155z" />
    <glyph glyph-name="utilde" unicode="&#x169;" horiz-adv-x="1103" 
d="M698 1272l-51 24q-127 62 -169 11q-17 -23 -46 -86l-59 26l10 29q35 100 88 146t113 45t137 -37l47 -23q61 -31 99 -40t65 7t41 39t37 74l57 -25l-12 -35q-57 -163 -145 -195t-212 40zM346 993q133 0 82 -211l-145 -598q-14 -61 26 -61q69 0 181 132t197 285t101 228
l41 182l152 43l27 -26l-205 -840l6 -2q63 19 123 75t100 126l41 -13q-39 -119 -147 -227t-185 -109q-139 0 -86 216l64 251h-6q-31 -37 -107 -140q-76 -102 -125 -162t-127 -114t-153 -55q-139 0 -82 236l157 610l-176 31v10q12 14 35 37t87 59t124 37z" />
    <glyph glyph-name="Umacron" unicode="&#x16a;" horiz-adv-x="1474" 
d="M659 1602l27 122h578l-27 -122h-578zM631 -49q-231 0 -353 144q-121 144 -65 478l135 668l-155 53l12 66h526l-12 -66l-176 -53l-142 -711q-43 -221 36 -342q79 -120 247 -120t290 116t171 389l119 664l-222 57l13 66h512l-13 -66l-174 -53l-129 -688q-55 -291 -222 -447
t-398 -155z" />
    <glyph glyph-name="umacron" unicode="&#x16b;" horiz-adv-x="1103" 
d="M416 1284l26 123h578l-27 -123h-577zM346 993q133 0 82 -211l-145 -598q-14 -61 26 -61q69 0 181 132t197 285t101 228l41 182l152 43l27 -26l-205 -840l6 -2q63 19 123 75t100 126l41 -13q-39 -119 -147 -227t-185 -109q-139 0 -86 216l64 251h-6q-31 -37 -107 -140
q-76 -102 -125 -162t-127 -114t-153 -55q-139 0 -82 236l157 610l-176 31v10q12 14 35 37t87 59t124 37z" />
    <glyph glyph-name="Ubreve" unicode="&#x16c;" horiz-adv-x="1474" 
d="M930 1499q-96 0 -151 72q-54 72 -54 201h84q27 -148 143 -148t187 148h78q-78 -273 -287 -273zM631 -49q-231 0 -353 144q-121 144 -65 478l135 668l-155 53l12 66h526l-12 -66l-176 -53l-142 -711q-43 -221 36 -342q79 -120 247 -120t290 116t171 389l119 664l-222 57
l13 66h512l-13 -66l-174 -53l-129 -688q-55 -291 -222 -447t-398 -155z" />
    <glyph glyph-name="ubreve" unicode="&#x16d;" horiz-adv-x="1103" 
d="M676 1159q-109 0 -162 89t-39 245h72q14 -209 155 -209q70 0 125 62t82 147h70q-74 -334 -303 -334zM346 993q133 0 82 -211l-145 -598q-14 -61 26 -61q69 0 181 132t197 285t101 228l41 182l152 43l27 -26l-205 -840l6 -2q63 19 123 75t100 126l41 -13
q-39 -119 -147 -227t-185 -109q-139 0 -86 216l64 251h-6q-31 -37 -107 -140q-76 -102 -125 -162t-127 -114t-153 -55q-139 0 -82 236l157 610l-176 31v10q12 14 35 37t87 59t124 37z" />
    <glyph glyph-name="Uring" unicode="&#x16e;" horiz-adv-x="1474" 
d="M780 1673q0 -65 42 -107t104 -42t103 42q42 42 42 108t-42 107q-42 42 -103 42q-62 0 -104 -42t-42 -108zM686 1672q0 99 70 167t171 68t170 -67t69 -166t-70 -167q-70 -67 -171 -67t-170 66t-69 166zM631 -49q-231 0 -353 144q-121 144 -65 478l135 668l-155 53l12 66
h526l-12 -66l-176 -53l-142 -711q-43 -221 36 -342q79 -120 247 -120t290 116t171 389l119 664l-222 57l13 66h512l-13 -66l-174 -53l-129 -688q-55 -291 -222 -447t-398 -155z" />
    <glyph glyph-name="uring" unicode="&#x16f;" horiz-adv-x="1103" 
d="M580 1380q0 -66 42 -108t103 -41q61 0 103 42q42 41 42 107t-42 108t-103 42t-103 -42t-42 -108zM485 1379q0 99 70 167t171 68t170 -67t69 -166t-70 -167t-171 -68t-170 68q-69 66 -69 165zM346 993q133 0 82 -211l-145 -598q-14 -61 26 -61q69 0 181 132t197 285
t101 228l41 182l152 43l27 -26l-205 -840l6 -2q63 19 123 75t100 126l41 -13q-39 -119 -147 -227t-185 -109q-139 0 -86 216l64 251h-6q-31 -37 -107 -140q-76 -102 -125 -162t-127 -114t-153 -55q-139 0 -82 236l157 610l-176 31v10q12 14 35 37t87 59t124 37z" />
    <glyph glyph-name="Uhungarumlaut" unicode="&#x170;" horiz-adv-x="1474" 
d="M1008 1792v-39l-193 -246h-106l135 285h164zM1296 1792v-39l-192 -246h-107l136 285h163zM631 -49q-231 0 -353 144q-121 144 -65 478l135 668l-155 53l12 66h526l-12 -66l-176 -53l-142 -711q-43 -221 36 -342q79 -120 247 -120t290 116t171 389l119 664l-222 57l13 66
h512l-13 -66l-174 -53l-129 -688q-55 -291 -222 -447t-398 -155z" />
    <glyph glyph-name="uhungarumlaut" unicode="&#x171;" horiz-adv-x="1103" 
d="M1094 1548v-39l-234 -381h-94l182 420h146zM786 1548v-39l-233 -381h-94l182 420h145zM346 993q133 0 82 -211l-145 -598q-14 -61 26 -61q69 0 181 132t197 285t101 228l41 182l152 43l27 -26l-205 -840l6 -2q63 19 123 75t100 126l41 -13q-39 -119 -147 -227t-185 -109
q-139 0 -86 216l64 251h-6q-31 -37 -107 -140q-76 -102 -125 -162t-127 -114t-153 -55q-139 0 -82 236l157 610l-176 31v10q12 14 35 37t87 59t124 37z" />
    <glyph glyph-name="Uogonek" unicode="&#x172;" horiz-adv-x="1474" 
d="M487 -319q0 -74 80 -74t193 96l28 -35q-57 -66 -89 -98t-95 -66t-133 -34t-112 38t-42 116q-1 77 63 147t220 182q-229 12 -338 164t-49 456l135 668l-155 53l12 66h526l-12 -66l-176 -53l-142 -711q-43 -221 36 -342q79 -120 247 -120t290 116t171 389l119 664l-222 57
l13 66h512l-13 -66l-174 -53l-129 -688q-51 -274 -203 -428t-354 -172q-123 -109 -165 -162t-42 -110z" />
    <glyph glyph-name="uogonek" unicode="&#x173;" horiz-adv-x="1103" 
d="M741 -20h-18q-119 14 -68 213l64 251h-6q-31 -37 -107 -140q-76 -102 -125 -162t-127 -114t-153 -55q-139 0 -82 236l157 610l-176 31v10q12 14 35 37t87 59t124 37q133 0 82 -211l-145 -598q-14 -61 26 -61q69 0 181 132t197 285t101 228l41 182l152 43l27 -26
l-205 -840l6 -2q63 17 123 75t98 126l41 -13q-47 -129 -158 -239l-159 -162q-72 -72 -98 -100q-72 -76 -70 -134q0 -38 24 -60t66 -22q43 0 82 26t90 87l37 -31q-141 -209 -297 -208q-68 0 -114 43t-46 100t16 94q23 54 160 164q31 24 137 102v7z" />
    <glyph glyph-name="Wcircumflex" unicode="&#x174;" horiz-adv-x="1886" 
d="M969 1507h-109l238 265h155l133 -265h-94l-133 162zM1126 -14l-120 960l-510 -960h-111l-125 1261l-119 47l15 66h495l-14 -66l-178 -53l80 -993l448 858l-16 135l-158 53l14 66h525l-15 -70l-172 -49l109 -987l459 985l-211 51l12 70h475l-14 -66l-131 -43l-625 -1265
h-113z" />
    <glyph glyph-name="wcircumflex" unicode="&#x175;" horiz-adv-x="1343" 
d="M612 1128h-90l285 420h115l104 -420h-86l-100 289zM1188 731q0 127 -144 127q-41 0 -98 -16v26q127 125 208 125q163 0 167 -182q2 -145 -101 -307t-290 -373l-144 -160h-18l-63 29l-5 422h-4q-37 -43 -127 -155t-151 -183l-96 -113h-19l-70 29l-18 811q-37 43 -97 43
t-100 -12v26q119 125 215 125q141 0 144 -182l14 -647h10q143 159 250 311l39 53l-2 271q-35 55 -125 55q-55 0 -98 -12v26q127 125 217 125q156 0 158 -182l14 -647h10q152 135 238 295t86 272z" />
    <glyph glyph-name="Ycircumflex" unicode="&#x176;" horiz-adv-x="1284" 
d="M700 1507h-108l237 265h156l133 -265h-94l-133 162zM1268 1249l-520 -704l-86 -430l176 -47l-15 -68h-557l15 68l192 47l80 403l-260 731l-113 45l13 66h493l-12 -66l-180 -43l202 -620h6l435 610l-174 53l14 66h422l-13 -66z" />
    <glyph glyph-name="ycircumflex" unicode="&#x177;" horiz-adv-x="960" 
d="M430 1128h-90l285 420h114l105 -420h-86l-101 289zM520 440q0 -268 -71 -454h8q281 319 340 626q4 166 -72 338q57 31 98 31q113 0 113 -157q0 -158 -85 -352q-153 -351 -493 -683q-147 -145 -283 -231q-137 -86 -207 -86t-110 32q-39 33 -39 84t34 85t85 34
q86 0 119 -129h6q115 46 198 146t123 227q74 235 74 441t-34 321q-35 115 -86 114q-44 0 -80 -55t-56 -166h-49q4 158 75 272t170 114q98 0 160 -142t62 -410z" />
    <glyph glyph-name="Ydieresis" unicode="&#x178;" horiz-adv-x="1284" 
d="M1118 1559q-47 -1 -82 33t-35 81t35 82t82 35t82 -35t35 -82t-35 -81t-82 -33zM666 1559q-47 -1 -81 33t-34 81t34 82t81 35t82 -35q34 -35 34 -82t-34 -81q-35 -33 -82 -33zM1268 1249l-520 -704l-86 -430l176 -47l-15 -68h-557l15 68l192 47l80 403l-260 731l-113 45
l13 66h493l-12 -66l-180 -43l202 -620h6l435 610l-174 53l14 66h422l-13 -66z" />
    <glyph glyph-name="Zacute" unicode="&#x179;" horiz-adv-x="1224" 
d="M1087 1792v-41l-276 -244h-106l192 285h190zM-31 0v51l1035 1215h-558l-157 -285h-70l88 391l144 -12h841v-21l-1054 -1243h598l190 312h72l-123 -418l-150 10h-856z" />
    <glyph glyph-name="zacute" unicode="&#x17a;" horiz-adv-x="929" 
d="M911 1548v-39l-254 -381h-94l203 420h145zM226 588q-44 0 -68 30t-25 82q0 88 93 192t198 103q66 0 145 -30l222 -93l110 123l74 -55l-682 -694l278 -103q93 -33 139 -23t91 64l41 -12q-47 -104 -83 -144q-54 -60 -153 -63q-55 0 -145 37l-293 117l-115 -133l-76 55
l689 702l-242 91q-137 52 -170 -4t86 -146q-70 -96 -114 -96z" />
    <glyph glyph-name="Zdotaccent" unicode="&#x17b;" horiz-adv-x="1224" 
d="M684 1673q0 51 37 89t90 38t90 -38t37 -89t-37 -89t-90 -38t-90 38t-37 89zM-31 0v51l1035 1215h-558l-157 -285h-70l88 391l144 -12h841v-21l-1054 -1243h598l190 312h72l-123 -418l-150 10h-856z" />
    <glyph glyph-name="zdotaccent" unicode="&#x17c;" horiz-adv-x="929" 
d="M551 1333q0 45 32 77q33 32 77 32t76 -32t32 -77t-32 -77t-77 -32t-77 32t-31 77zM226 588q-44 0 -68 30t-25 82q0 88 93 192t198 103q66 0 145 -30l222 -93l110 123l74 -55l-682 -694l278 -103q93 -33 139 -23t91 64l41 -12q-47 -104 -83 -144q-54 -60 -153 -63
q-55 0 -145 37l-293 117l-115 -133l-76 55l689 702l-242 91q-137 52 -170 -4t86 -146q-70 -96 -114 -96z" />
    <glyph glyph-name="Zcaron" unicode="&#x17d;" horiz-adv-x="1224" 
d="M985 1772h109l-238 -265h-156l-133 265h95l131 -164zM-31 0v51l1035 1215h-558l-157 -285h-70l88 391l144 -12h841v-21l-1054 -1243h598l190 312h72l-123 -418l-150 10h-856z" />
    <glyph glyph-name="zcaron" unicode="&#x17e;" horiz-adv-x="929" 
d="M864 1548h90l-284 -420h-115l-104 420h86l100 -291zM226 588q-44 0 -68 30t-25 82q0 88 93 192t198 103q66 0 145 -30l222 -93l110 123l74 -55l-682 -694l278 -103q93 -33 139 -23t91 64l41 -12q-47 -104 -83 -144q-54 -60 -153 -63q-55 0 -145 37l-293 117l-115 -133
l-76 55l689 702l-242 91q-137 52 -170 -4t86 -146q-70 -96 -114 -96z" />
    <glyph glyph-name="florin" unicode="&#x192;" horiz-adv-x="933" 
d="M877 1237q69 0 103 -33t34 -81t-64 -128q-43 47 -64 68q-71 65 -128 63q-30 0 -52 -15q-67 -45 -119 -207q-34 -101 -71 -255h266l-20 -90h-266l-109 -528q-29 -139 -78 -247t-99 -166t-122 -104t-136 -46q-63 0 -108 32t-45 84q0 27 16 58q15 31 35 45
q130 -119 184 -119t86 73t64 234l135 684h-176l13 90h186q68 252 217 420q150 168 318 168z" />
    <glyph glyph-name="Aringacute" unicode="&#x1fa;" horiz-adv-x="1380" 
d="M1237 2247v-41l-276 -244h-107l193 285h190zM735 1673q0 -65 42 -107q41 -42 103 -42t104 42t42 108t-42 107q-42 42 -103 42t-103 -42t-43 -108zM641 1672q0 99 70 167t171 68t170 -67q68 -67 68 -166t-70 -167q-70 -67 -170 -67q-101 0 -170 66t-69 166zM756 1186
l-310 -580h394l-82 580h-2zM-84 0l12 66l119 47l723 1247l68 10l71 21l187 -1285l127 -40l-13 -66h-489l14 68l174 47l-53 368h-475l-193 -360l183 -55l-15 -68h-440z" />
    <glyph glyph-name="aringacute" unicode="&#x1fb;" horiz-adv-x="1097" 
d="M1165 2009v-41l-276 -244h-107l193 285h190zM645 1380q0 -66 42 -108q41 -42 103 -41q62 0 104 42q42 41 42 107t-42 108t-103 42t-103 -42t-43 -108zM551 1379q0 99 70 167t171 68t170 -67q68 -67 68 -166t-70 -167t-170 -68q-101 0 -170 68q-69 66 -69 165zM313 125
q59 0 162 117q102 117 187 260q84 143 110 231l25 78q-63 82 -141 82t-175 -98q-96 -98 -166 -257t-69 -309q-1 -104 67 -104zM713 975q86 0 145 -39l19 70h124l-233 -879l6 -2q62 17 122 75t99 126l41 -13q-45 -127 -148 -231t-176 -104t-97 56t12 175l61 211h-6
q-10 -14 -81 -120t-114 -160t-121 -111t-151 -57q-74 0 -118 54t-46 138q-2 182 104 375q105 193 262 315t296 121z" />
    <glyph glyph-name="AEacute" unicode="&#x1fc;" horiz-adv-x="1884" 
d="M1520 1792v-41l-277 -244h-106l192 285h191zM1057 1268h-41l-373 -516h311zM1403 655l-281 2l-108 -561h495l181 271h73l-94 -367h-1028l12 68l176 47l107 542h-361l-366 -534l176 -55l-14 -68h-455l12 66l117 47l832 1128h-3l-176 53l13 66h1011l152 8l-84 -362h-70
l-22 262h-455l-100 -516h272l92 168h62l-84 -418l-62 -2z" />
    <glyph glyph-name="aeacute" unicode="&#x1fd;" horiz-adv-x="1249" 
d="M1077 1548v-39l-254 -381h-94l203 420h145zM995 913q-78 1 -167 -115t-132 -282q367 121 367 324q0 73 -68 73zM298 92q56 0 110 50q53 50 86 104q-3 65 24 198l-139 -47q-186 -61 -191 -182q-2 -51 26 -87t84 -36zM739 -23q-193 0 -235 173q-76 -84 -143 -128t-149 -44
t-143 46q-62 48 -63 156q0 168 246 244l280 86l13 55q23 135 -9 233t-114 99q-59 0 -107 -41l-39 -205q-38 -10 -64 -10t-41 3q-15 4 -29 20t-15 47q0 80 118 179t234 103q105 -2 165 -60t69 -145h4q135 205 327 205t193 -143q0 -242 -557 -401q-10 -61 -10 -115
q-6 -223 141 -223q63 0 135 49t117 114l41 -24q-42 -100 -146 -186t-219 -87z" />
    <glyph glyph-name="Oslashacute" unicode="&#x1fe;" horiz-adv-x="1509" 
d="M1276 1792v-41l-277 -244h-106l192 285h191zM313 469q0 -139 35 -229l770 995q-78 66 -203 65q-240 0 -421 -244t-181 -587zM1249 872q0 190 -73 302l-783 -1014q84 -113 260 -113t317 132q140 131 210 317t69 376zM940 1391q129 0 244 -72l125 162h104l-162 -209
q203 -174 203 -459q0 -153 -57 -305q-125 -332 -425 -474q-161 -77 -336 -77t-314 111l-132 -170h-104l176 227q-154 170 -153 412q0 149 54 299q121 334 419 477q162 78 358 78z" />
    <glyph glyph-name="oslashacute" unicode="&#x1ff;" horiz-adv-x="976" 
d="M911 1548v-39l-254 -381h-94l203 420h145zM242 268v-30l467 622q-31 72 -114 72t-169 -116t-135 -270t-49 -278zM731 702q0 43 -2 64l-473 -631q27 -96 112 -96q85 1 172 109t139 264t52 290zM621 993q84 0 149 -49l100 133h93l-140 -184q84 -100 84 -248
q0 -149 -63 -301q-62 -152 -192 -260t-294 -107q-96 0 -170 68l-110 -147h-92l153 202q-69 98 -69 241t63 291t193 254t295 107z" />
    <glyph glyph-name="Scommaaccent" unicode="&#x218;" horiz-adv-x="1058" 
d="M387 -129q55 0 92 -38t37 -95q0 -94 -95 -168t-253 -117l-16 55q201 74 200 166q0 66 -94 78q4 49 39 84t90 35zM457 47q123 0 209 71t90 216q-2 82 -49 145t-170 139l-64 39q-123 76 -181 153t-59 187q1 164 141 279t345 115q109 0 325 -52l-92 -376h-80v284
q-92 63 -206 63t-187 -68q-73 -69 -73 -154t32 -138t135 -119l70 -45q166 -108 234 -186t67 -194q0 -190 -159 -316t-369 -125q-86 1 -134 11q-148 32 -255 67l55 403h78l39 -319q135 -80 258 -80z" />
    <glyph glyph-name="scommaaccent" unicode="&#x219;" horiz-adv-x="704" 
d="M166 -326q0 66 -94 78q4 49 38 84t90 35t93 -38t37 -95q0 -94 -95 -168t-253 -117l-17 55q201 74 201 166zM340 88q38 0 64 24t26 79t-59 135l-105 145q-61 86 -82 127q-20 41 -20 84q0 119 122 216t226 97q72 -1 125 -31t53 -71q0 -63 -39 -119l-6 -2q-166 106 -246 107
q-39 0 -65 -24t-25 -76q0 -52 58 -134l114 -162q45 -66 59 -86q40 -60 40 -116q0 -105 -111 -207t-244 -103q-88 0 -151 45q-64 45 -64 102t37 101h2q207 -131 291 -131z" />
    <glyph glyph-name="uni0237" unicode="&#x237;" horiz-adv-x="534" 
d="M360 993q150 0 95 -229l-176 -735q-57 -244 -185 -403t-268 -158q-47 0 -93 30t-46 70q0 41 16 73t39 46q123 -119 178 -119t87 68t73 239l221 936l-176 39v10q45 52 113 93q69 40 122 40z" />
    <glyph glyph-name="circumflex" unicode="&#x2c6;" horiz-adv-x="819" 
d="M246 1128h-90l284 420h115l104 -420h-86l-100 289z" />
    <glyph glyph-name="caron" unicode="&#x2c7;" horiz-adv-x="819" 
d="M567 1548h90l-284 -420h-115l-104 420h86l100 -291z" />
    <glyph glyph-name="breve" unicode="&#x2d8;" horiz-adv-x="819" 
d="M360 1159q-110 0 -162 89t-38 245h71q14 -209 156 -209q70 0 125 62t82 147h70q-75 -334 -304 -334z" />
    <glyph glyph-name="dotaccent" unicode="&#x2d9;" horiz-adv-x="819" 
d="M301 1333q0 45 32 77t77 32q44 0 76 -32t32 -77t-32 -77t-76 -32t-77 32q-32 32 -32 77z" />
    <glyph glyph-name="ring" unicode="&#x2da;" horiz-adv-x="819" 
d="M264 1380q0 -66 42 -108t104 -41q62 0 103 42q42 41 42 107t-42 108t-103 42q-62 0 -104 -42t-42 -108zM170 1379q0 99 70 167t171 68t170 -67t69 -166t-70 -167t-171 -68t-170 68q-69 66 -69 165z" />
    <glyph glyph-name="ogonek" unicode="&#x2db;" horiz-adv-x="819" 
d="M344 -319q0 -74 80 -74t192 96l29 -35q-57 -66 -89 -98t-95 -66t-133 -34t-112 38t-42 105q0 109 127 219q51 45 223 168h80q-162 -142 -211 -200t-49 -119z" />
    <glyph glyph-name="tilde" unicode="&#x2dc;" horiz-adv-x="819" 
d="M387 1272l-51 24q-129 63 -169 11q-17 -23 -46 -86l-60 26l11 29q35 100 88 146t112 45t138 -37l47 -23q61 -31 99 -40t65 7t41 39t36 74l58 -25l-13 -35q-57 -163 -145 -195t-211 40z" />
    <glyph glyph-name="hungarumlaut" unicode="&#x2dd;" horiz-adv-x="819" 
d="M727 1548v-39l-233 -381h-95l183 420h145zM420 1548v-39l-234 -381h-94l182 420h146z" />
    <glyph glyph-name="Wgrave" unicode="&#x1e80;" horiz-adv-x="1886" 
d="M897 1792h190l101 -285h-107l-184 244v41zM1126 -14l-120 960l-510 -960h-111l-125 1261l-119 47l15 66h495l-14 -66l-178 -53l80 -993l448 858l-16 135l-158 53l14 66h525l-15 -70l-172 -49l109 -987l459 985l-211 51l12 70h475l-14 -66l-131 -43l-625 -1265h-113z" />
    <glyph glyph-name="wgrave" unicode="&#x1e81;" horiz-adv-x="1343" 
d="M604 1548h148l84 -420h-91l-141 381v39zM1188 731q0 127 -144 127q-41 0 -98 -16v26q127 125 208 125q163 0 167 -182q2 -145 -101 -307t-290 -373l-144 -160h-18l-63 29l-5 422h-4q-37 -43 -127 -155t-151 -183l-96 -113h-19l-70 29l-18 811q-37 43 -97 43t-100 -12v26
q119 125 215 125q141 0 144 -182l14 -647h10q143 159 250 311l39 53l-2 271q-35 55 -125 55q-55 0 -98 -12v26q127 125 217 125q156 0 158 -182l14 -647h10q152 135 238 295t86 272z" />
    <glyph glyph-name="Wacute" unicode="&#x1e82;" horiz-adv-x="1886" 
d="M1440 1792v-41l-277 -244h-106l192 285h191zM1126 -14l-120 960l-510 -960h-111l-125 1261l-119 47l15 66h495l-14 -66l-178 -53l80 -993l448 858l-16 135l-158 53l14 66h525l-15 -70l-172 -49l109 -987l459 985l-211 51l12 70h475l-14 -66l-131 -43l-625 -1265h-113z
" />
    <glyph glyph-name="wacute" unicode="&#x1e83;" horiz-adv-x="1343" 
d="M1075 1548v-39l-254 -381h-94l203 420h145zM1188 731q0 127 -144 127q-41 0 -98 -16v26q127 125 208 125q163 0 167 -182q2 -145 -101 -307t-290 -373l-144 -160h-18l-63 29l-5 422h-4q-37 -43 -127 -155t-151 -183l-96 -113h-19l-70 29l-18 811q-37 43 -97 43t-100 -12
v26q119 125 215 125q141 0 144 -182l14 -647h10q143 159 250 311l39 53l-2 271q-35 55 -125 55q-55 0 -98 -12v26q127 125 217 125q156 0 158 -182l14 -647h10q152 135 238 295t86 272z" />
    <glyph glyph-name="Wdieresis" unicode="&#x1e84;" horiz-adv-x="1886" 
d="M1389 1559q-47 -1 -82 33t-35 81t35 82t82 35t81 -35t35 -82q-1 -47 -35 -81t-81 -33zM936 1559q-47 -1 -81 33t-34 81t34 82t81 35t82 -35t35 -82t-35 -81t-82 -33zM1126 -14l-120 960l-510 -960h-111l-125 1261l-119 47l15 66h495l-14 -66l-178 -53l80 -993l448 858
l-16 135l-158 53l14 66h525l-15 -70l-172 -49l109 -987l459 985l-211 51l12 70h475l-14 -66l-131 -43l-625 -1265h-113z" />
    <glyph glyph-name="wdieresis" unicode="&#x1e85;" horiz-adv-x="1343" 
d="M893 1319q0 43 30 73q31 30 73 30t73 -30t31 -73t-31 -72t-74 -29t-73 30q-30 28 -29 71zM545 1319q0 43 29 73q30 30 73 30t74 -30t31 -73t-31 -72t-74 -29t-73 29q-29 29 -29 72zM1188 731q0 127 -144 127q-41 0 -98 -16v26q127 125 208 125q163 0 167 -182
q2 -145 -101 -307t-290 -373l-144 -160h-18l-63 29l-5 422h-4q-37 -43 -127 -155t-151 -183l-96 -113h-19l-70 29l-18 811q-37 43 -97 43t-100 -12v26q119 125 215 125q141 0 144 -182l14 -647h10q143 159 250 311l39 53l-2 271q-35 55 -125 55q-55 0 -98 -12v26
q127 125 217 125q156 0 158 -182l14 -647h10q152 135 238 295t86 272z" />
    <glyph glyph-name="Ygrave" unicode="&#x1ef2;" horiz-adv-x="1284" 
d="M629 1792h190l101 -285h-107l-184 244v41zM1268 1249l-520 -704l-86 -430l176 -47l-15 -68h-557l15 68l192 47l80 403l-260 731l-113 45l13 66h493l-12 -66l-180 -43l202 -620h6l435 610l-174 53l14 66h422l-13 -66z" />
    <glyph glyph-name="ygrave" unicode="&#x1ef3;" horiz-adv-x="960" 
d="M422 1548h147l84 -420h-90l-141 381v39zM520 440q0 -268 -71 -454h8q281 319 340 626q4 166 -72 338q57 31 98 31q113 0 113 -157q0 -158 -85 -352q-153 -351 -493 -683q-147 -145 -283 -231q-137 -86 -207 -86t-110 32q-39 33 -39 84t34 85t85 34q86 0 119 -129h6
q115 46 198 146t123 227q74 235 74 441t-34 321q-35 115 -86 114q-44 0 -80 -55t-56 -166h-49q4 158 75 272t170 114q98 0 160 -142t62 -410z" />
    <glyph glyph-name="uni2009" unicode="&#x2009;" horiz-adv-x="184" 
 />
    <glyph glyph-name="endash" unicode="&#x2013;" horiz-adv-x="835" 
d="M25 530l24 121h778l-24 -121h-778z" />
    <glyph glyph-name="emdash" unicode="&#x2014;" horiz-adv-x="1654" 
d="M41 530l25 121h1556l-23 -121h-1558z" />
    <glyph glyph-name="quoteleft" unicode="&#x2018;" horiz-adv-x="595" 
d="M457 1339q0 -115 127 -155q0 -74 -35 -116t-95 -42t-106 49q-45 49 -45 144q0 147 92 264t230 170q26 -50 30 -58q-88 -45 -143 -117t-55 -139z" />
    <glyph glyph-name="quoteright" unicode="&#x2019;" horiz-adv-x="595" 
d="M454 1638q60 0 105 -49t45 -143q0 -147 -92 -264t-229 -170q-27 49 -31 57q88 45 143 117t56 139q0 115 -127 156q0 73 34 115q36 42 96 42z" />
    <glyph glyph-name="quotesinglbase" unicode="&#x201a;" horiz-adv-x="595" 
d="M221 47q0 115 -127 156q0 73 35 115t95 42t106 -49t45 -143q1 -152 -101 -276t-241 -179q-27 50 -31 58q92 47 156 125q63 78 63 151z" />
    <glyph glyph-name="quotedblleft" unicode="&#x201c;" horiz-adv-x="1042" 
d="M903 1339q0 -115 127 -155q0 -74 -35 -116t-95 -42t-105 49t-45 144q0 147 92 264t229 170q27 -50 31 -58q-88 -45 -144 -116q-55 -72 -55 -140zM457 1339q0 -115 127 -155q0 -74 -35 -116t-95 -42t-106 49q-45 49 -45 144q0 147 92 264t230 170q26 -50 30 -58
q-88 -45 -143 -117t-55 -139z" />
    <glyph glyph-name="quotedblright" unicode="&#x201d;" horiz-adv-x="1046" 
d="M901 1325q0 115 -127 156q0 73 35 115t95 42t106 -49t45 -143q0 -147 -92 -264t-230 -170q-27 49 -31 57q88 45 144 117q55 72 55 139zM458 1638q60 0 105 -49t45 -143q0 -147 -92 -264t-229 -170q-27 49 -31 57q88 45 143 117t56 139q0 115 -127 156q0 73 34 115
q36 42 96 42z" />
    <glyph glyph-name="quotedblbase" unicode="&#x201e;" horiz-adv-x="1042" 
d="M670 360q60 0 106 -49q45 -49 45 -143q0 -152 -101 -276t-241 -179q-26 50 -30 58q92 47 155 125t64 151q0 115 -127 156q1 73 35 115t94 42zM221 47q0 115 -127 156q0 73 35 115t95 42t106 -49t45 -143q1 -152 -101 -276t-241 -179q-27 50 -31 58q92 47 156 125
q63 78 63 151z" />
    <glyph glyph-name="dagger" unicode="&#x2020;" horiz-adv-x="624" 
d="M166 1167l20 111l213 -8l39 231h117l-55 -231l219 8l-21 -111l-219 9l-102 -564l-117 -2l123 566z" />
    <glyph glyph-name="daggerdbl" unicode="&#x2021;" horiz-adv-x="624" 
d="M166 1167l20 111l213 -8l39 231h117l-55 -231l219 8l-21 -111l-219 9l-47 -230l223 8l-22 -110l-217 8l-39 -240l-117 -2l55 242l-213 -8l23 110l211 -8l47 230z" />
    <glyph glyph-name="bullet" unicode="&#x2022;" horiz-adv-x="694" 
d="M331 367q-77 0 -133 57t-57 133q1 76 57 132t133 56t133 -55t56 -133t-56 -134t-133 -56z" />
    <glyph glyph-name="ellipsis" unicode="&#x2026;" horiz-adv-x="1597" 
d="M1270 -8q-57 0 -100 43q-42 43 -42 100t42 99t100 42t100 -42q43 -42 43 -99t-43 -100t-100 -43zM737 -8q-57 0 -99 43t-42 100t42 99t99 42t101 -42t43 -99q1 -57 -43 -100t-101 -43zM205 -8q-57 0 -100 43q-42 43 -42 100t42 99q41 42 99 42t101 -42t43 -99t-43 -100
t-100 -43z" />
    <glyph glyph-name="perthousand" unicode="&#x2030;" horiz-adv-x="2643" 
d="M225 -102l1225 1392h131l-1225 -1392h-131zM2109 -35q-129 0 -207 88t-77 219q0 168 127 303t289 136q127 0 205 -88t77 -220q0 -172 -125 -305t-289 -133zM2230 631q-100 0 -177 -116t-77 -275q0 -86 38 -140t104 -55q98 0 176 111t78 278q0 88 -38 142t-104 55z
M1296 -35q-128 0 -206 88t-78 219q0 168 127 303t288 136q127 0 205 -88t78 -220q0 -172 -125 -305t-289 -133zM1417 631q-100 0 -177 -116t-77 -275q0 -86 38 -140t104 -55q98 0 176 111t78 278q0 88 -38 142t-104 55zM395 494q-129 0 -207 88t-77 219q0 168 127 303
t288 135q127 0 205 -88t78 -219q0 -172 -125 -305t-289 -133zM516 1159q-100 0 -177 -116t-77 -275q0 -86 38 -140t103 -55q98 0 177 111q78 111 77 279q0 88 -37 142q-38 54 -104 54z" />
    <glyph glyph-name="minute" unicode="&#x2032;" horiz-adv-x="552" 
d="M252 1028h-70l176 500h185l-2 -17z" />
    <glyph glyph-name="second" unicode="&#x2033;" horiz-adv-x="940" 
d="M639 1028h-70l176 500h185l-2 -17zM272 1028h-69l176 500h184l-2 -17z" />
    <glyph glyph-name="guilsinglleft" unicode="&#x2039;" horiz-adv-x="843" 
d="M711 944l47 -53l-404 -418l264 -403l-55 -45l-401 432v41z" />
    <glyph glyph-name="guilsinglright" unicode="&#x203a;" horiz-adv-x="843" 
d="M133 25l-47 53l401 416l-262 405l56 45l401 -432v-41z" />
    <glyph glyph-name="fraction" unicode="&#x2044;" horiz-adv-x="481" 
d="M-291 -178l-78 65l1235 1600l80 -64z" />
    <glyph glyph-name="Euro" unicode="&#x20ac;" horiz-adv-x="1200" 
d="M905 1237q107 0 197 -52t90 -122q0 -35 -17 -62t-67 -77q-154 209 -309 209q-103 -1 -191 -105t-141 -268h489l-24 -90h-490q-16 -68 -26 -154h473l-25 -90h-452v-6q0 -152 68 -243t192 -91q72 0 134 27t98 55t104 92l45 -47q-89 -98 -137 -141t-133 -81t-191 -38
q-180 0 -275 128q-94 128 -94 288q0 39 2 57h-180l25 90h161q10 92 29 154h-147l24 90h152q90 233 268 355t348 122z" />
    <glyph glyph-name="trademark" unicode="&#x2122;" horiz-adv-x="1705" 
d="M227 1360h584l-35 -221h-55l-23 153h-123l-112 -553l86 -20l-12 -60h-318l12 60l97 20l112 553h-127l-86 -153h-53zM737 659l13 60l79 18l109 539l-72 20l13 64h288l76 -465h6l260 465h269l-13 -64l-79 -20l-109 -539l76 -18l-13 -60h-301l13 62l90 18l110 545h-8
l-293 -516l-32 -61h-84l-99 577h-8l-110 -539l100 -28l-12 -58h-269z" />
    <glyph glyph-name="onethird" unicode="&#x2153;" horiz-adv-x="1839" 
d="M1722 256q0 -125 -118 -209t-251 -84q-134 0 -212 43q-78 44 -78 104t88 109q80 -176 246 -176q73 0 117 44t45 116q0 178 -267 162l13 61l47 18q227 84 227 178q0 44 -32 70t-87 25q-55 0 -106 -27t-121 -94l-49 47q88 100 164 139t175 39t158 -42q59 -43 59 -111
t-60 -115t-177 -104v-7q107 -10 163 -63t56 -123zM354 -178l-78 65l1235 1600l80 -64zM92 565l14 68l197 33l109 546h-211l6 70l377 84h12l-137 -702l176 -31l-14 -68h-529z" />
    <glyph glyph-name="twothirds" unicode="&#x2154;" horiz-adv-x="1910" 
d="M1424 -37q-134 0 -212 43q-78 44 -78 104t89 109q80 -176 245 -176q74 0 118 44t44 116q0 178 -266 162l12 61l47 18q228 84 228 178q0 44 -32 70q-31 26 -87 25q-56 0 -107 -27t-120 -94l-50 47q88 100 164 139t175 39q98 0 158 -42q60 -43 60 -111t-60 -115t-177 -104
v-7q107 -10 163 -63t56 -123q0 -125 -118 -209t-252 -84zM420 -178l-78 65l1235 1600l80 -64zM600 1114q0 70 -39 110t-108 40q-96 0 -211 -119l-49 49q47 59 82 95q98 97 249 97q88 0 160 -60t72 -158t-70 -182q-70 -83 -289 -228l-98 -66h436l-24 -127h-631l10 68l119 84
q213 151 302 239t89 158z" />
    <glyph glyph-name="oneeighth" unicode="&#x215b;" horiz-adv-x="1910" 
d="M1659 629q0 125 -131 125q-62 0 -108 -34t-46 -87q0 -80 131 -156l25 -14q129 55 129 166zM1253 195q1 -66 43 -114t130 -48t137 35t49 92q0 72 -139 159l-66 41q-154 -57 -154 -165zM1420 -37q-144 0 -230 55t-86 146q0 147 254 231q-123 80 -123 199q0 90 83 159
t214 69t203 -56q72 -55 71 -123q0 -137 -225 -215q92 -57 134 -105t42 -112q0 -102 -97 -175q-96 -73 -240 -73zM354 -178l-78 65l1235 1600l80 -64zM92 565l14 68l197 33l109 546h-211l6 70l377 84h12l-137 -702l176 -31l-14 -68h-529z" />
    <glyph glyph-name="threeeighths" unicode="&#x215c;" horiz-adv-x="1947" 
d="M1696 629q0 125 -131 125q-63 0 -109 -34t-45 -87q0 -80 131 -156l25 -14q129 55 129 166zM1462 33q88 0 137 35q49 36 49 100t-139 151l-65 41q-154 -57 -154 -165q0 -66 42 -114t130 -48zM1456 -37q-144 0 -229 55q-86 55 -86 146q0 147 254 231q-123 80 -123 199
q0 90 83 159t214 69t203 -56q72 -55 71 -123q0 -137 -225 -215q92 -57 134 -105t42 -112q0 -102 -97 -175t-241 -73zM399 -178l-77 65l1234 1600l80 -64zM386 528q-134 0 -212 43t-78 103t88 110q80 -176 246 -176q74 0 118 44t44 116q0 178 -266 162l12 61l47 19
q227 84 227 177q0 43 -32 69t-86 26q-56 0 -107 -27t-121 -94l-49 47q88 100 164 140t175 38q99 0 159 -41q59 -42 59 -111t-60 -116t-177 -104v-6q106 -10 162 -64t57 -123q0 -125 -118 -209t-252 -84z" />
    <glyph glyph-name="fiveeighths" unicode="&#x215d;" horiz-adv-x="1943" 
d="M1692 629q0 125 -131 125q-63 0 -109 -34t-45 -87q0 -80 131 -156l25 -14q129 55 129 166zM1458 33q88 0 137 35q49 36 49 100t-139 151l-65 41q-154 -57 -154 -165q0 -66 42 -114t130 -48zM1452 -37q-144 0 -229 55q-86 55 -86 146q0 147 254 231q-123 80 -123 199
q0 90 83 159t214 69t203 -56q72 -55 71 -123q0 -137 -225 -215q92 -57 134 -105t42 -112q0 -102 -97 -175t-241 -73zM393 -178l-78 65l1235 1600l80 -64zM334 528q-94 0 -159 35t-65 101t83 98q76 -154 215 -154q92 0 149 49t55 126q-4 145 -196 145q-119 0 -193 -62h-28
l122 496h471l-24 -131h-395l-54 -209q75 43 179 43t183 -54t79 -165q0 -146 -130 -232t-292 -86z" />
    <glyph glyph-name="seveneighths" unicode="&#x215e;" horiz-adv-x="1814" 
d="M1563 629q0 125 -131 125q-62 0 -108 -34t-46 -87q0 -80 131 -156l25 -14q129 55 129 166zM1329 33q88 0 137 35q50 36 50 100t-140 151l-65 41q-154 -57 -154 -165q0 -66 42 -114t130 -48zM1324 -37q-144 0 -230 55t-86 146q0 147 254 231q-123 80 -123 199q0 90 83 159
t214 69q130 0 202 -56q72 -55 72 -123q0 -137 -225 -215q92 -57 134 -105t42 -112q0 -102 -97 -175q-96 -73 -240 -73zM258 -178l-78 65l1235 1600l80 -64zM141 565l518 660h-475l27 137h612l-6 -29l-512 -768h-164z" />
    <glyph glyph-name="minus" unicode="&#x2212;" horiz-adv-x="1142" 
d="M1051 426h-971v119h971v-119z" />
    <glyph glyph-name="approxequal" unicode="&#x2248;" horiz-adv-x="1142" 
d="M332 479q57 0 155 -22l136 -33q141 -33 185 -33t75 29t65 92l92 -37q-47 -100 -106 -149q-58 -50 -142 -50t-206 31l-133 35q-95 25 -139 25t-76 -32t-66 -95l-92 36q94 203 252 203zM352 807q57 0 156 -23l135 -32q141 -33 185 -33t75 29t66 92l92 -37
q-47 -99 -107 -149t-142 -50q-83 0 -206 31l-133 35q-94 24 -138 24t-76 -31q-31 -33 -66 -96l-93 37q94 203 252 203z" />
    <glyph glyph-name="notequal" unicode="&#x2260;" horiz-adv-x="1142" 
d="M86 600v113h606l203 225h125l-205 -225h242v-113h-342l-168 -186h510v-113h-613l-202 -225h-119l201 225h-238v113h340l166 186h-506z" />
    <glyph glyph-name="lessequal" unicode="&#x2264;" horiz-adv-x="1142" 
d="M1047 0h-967v115h967v-115zM1047 942l-791 -295l791 -293v-137l-967 369v121l967 368v-133z" />
    <glyph glyph-name="greaterequal" unicode="&#x2265;" horiz-adv-x="1142" 
d="M1047 0h-967v115h967v-115zM870 643l-790 293v139l967 -368v-121l-967 -369v133z" />
    <glyph glyph-name="Pcircle" unicode="&#x24c5;" horiz-adv-x="1665" 
d="M1096 840q0 166 -252 166l-125 -635l149 -33l-10 -53h-403l12 57l111 29l116 602l-98 33l8 55h344q129 -5 220 -61q92 -56 92 -151t-70 -157q-125 -112 -363 -108l11 59q110 4 184 56t74 141zM821 23q264 0 456 189q191 190 203 458t-169 457t-445 189t-456 -188
q-192 -190 -203 -458q-10 -268 170 -458t444 -189zM871 1378q294 0 493 -207t186 -501q-8 -295 -223 -501t-509 -206t-492 205t-191 502q12 296 227 502t509 206z" />
    <glyph glyph-name="HT" horiz-adv-x="0" 
 />
    <glyph glyph-name="space_uni0326" horiz-adv-x="819" 
d="M436 -129q55 0 92 -38t37 -95q0 -94 -95 -168t-253 -117l-16 55q201 74 200 166q0 66 -94 78q4 49 39 84t90 35z" />
    <glyph glyph-name="caron.alt" horiz-adv-x="819" 
d="M575 1528v-17l-217 -413h-57l92 430h182z" />
    <glyph glyph-name="space_uni0326.alt" horiz-adv-x="819" 
d="M440 1405q0 -66 95 -78q-4 -49 -38 -84t-90 -35t-94 38q-37 38 -37 95q0 94 96 168t253 117l16 -55q-201 -74 -201 -166z" />
    <glyph glyph-name="grave.uc" horiz-adv-x="819" 
d="M403 1792h191l100 -285h-106l-185 244v41z" />
    <glyph glyph-name="dieresis.uc" horiz-adv-x="819" 
d="M788 1559q-48 -1 -82 33t-34 81t35 82t81 35t82 -35q35 -35 35 -82t-35 -81t-82 -33zM336 1559q-47 -1 -81 33t-34 81t34 82t81 35t82 -35t35 -82t-35 -81t-82 -33z" />
    <glyph glyph-name="macron.uc" horiz-adv-x="819" 
d="M283 1602l26 122h578l-27 -122h-577z" />
    <glyph glyph-name="acute.uc" horiz-adv-x="819" 
d="M815 1792v-41l-276 -244h-107l193 285h190z" />
    <glyph glyph-name="circumflex.uc" horiz-adv-x="819" 
d="M430 1507h-108l237 265h156l133 -265h-94l-133 162z" />
    <glyph glyph-name="caron.uc" horiz-adv-x="819" 
d="M780 1772h109l-238 -265h-155l-134 265h95l131 -164z" />
    <glyph glyph-name="breve.uc" horiz-adv-x="819" 
d="M573 1499q-96 0 -150 72t-54 201h84q27 -148 143 -148t186 148h78q-78 -273 -287 -273z" />
    <glyph glyph-name="dotaccent.uc" horiz-adv-x="819" 
d="M436 1673q0 51 38 89t89 38t89 -38t38 -89t-38 -89t-89 -38t-89 38t-38 89z" />
    <glyph glyph-name="ring.uc" horiz-adv-x="819" 
d="M418 1673q0 -65 42 -107t103 -42t104 42q42 42 42 108t-42 107q-41 42 -103 42t-104 -42t-42 -108zM324 1672q0 99 69 167q70 68 171 68t170 -67t69 -166t-70 -167q-70 -67 -171 -67t-170 66q-68 67 -68 166z" />
    <glyph glyph-name="tilde.uc" horiz-adv-x="819" 
d="M541 1575l-52 24q-128 62 -168 11q-17 -23 -47 -86l-59 26l10 29q35 100 88 146t113 45t137 -37l47 -23q119 -61 164 -33q27 16 41 39t37 74l57 -25l-12 -34q-57 -162 -145 -195t-211 39z" />
    <glyph glyph-name="hungarumlaut.uc" horiz-adv-x="819" 
d="M590 1792v-39l-193 -246h-106l135 285h164zM879 1792v-39l-193 -246h-106l135 285h164z" />
    <glyph glyph-name="idotaccent" horiz-adv-x="600" 
d="M348 1393q0 45 32 77t77 31q45 0 77 -32q32 -33 32 -77t-32 -76t-77 -32t-77 32t-32 77zM350 993q129 0 80 -213l-151 -653l6 -2q63 19 123 75t100 126l41 -13q-39 -119 -148 -227t-181 -109q-72 1 -98 55q-24 54 1 152l153 627l-174 39v10q12 14 35 37t89 59t124 37z
" />
    <glyph glyph-name="f_f_h.alt" horiz-adv-x="2191" 
d="M817 1341q-205 0 -321 -401h405q41 152 127 285q-42 45 -100 81t-111 35zM896 1438q130 0 222 -97q90 95 186 141t172 46q74 0 126 -47l153 47l-242 -985h9q258 449 477 448q139 0 139 -184t-72 -377q-72 -194 -188 -322t-233 -128q-31 0 -53 19q-51 44 10 128
q111 -55 161 -41q35 45 112 286t77 392q0 66 -73 66t-174 -127t-179 -293t-107 -301l-18 -95l-154 -43l-26 27l325 1348q-88 74 -188 73q-164 0 -279 -479h193l-21 -90h-192l-158 -748q-29 -138 -78 -246q-83 -181 -205 -260q-89 -57 -152 -57q-62 0 -108 32q-45 32 -45 85
q0 28 16 58t36 44q129 -118 183 -118t86 72t64 235l183 903h-410l-172 -819q-29 -139 -78 -247t-99 -166t-122 -104t-136 -46q-63 0 -108 32t-45 84q0 27 16 58q15 31 35 45q130 -119 184 -119t86 73t64 234l195 959l2 16h-176l12 90h188q43 127 118 228q75 100 159 156
q172 114 302 114z" />
    <glyph glyph-name="f_h.alt" horiz-adv-x="1599" 
d="M-159 -532q-40 0 -85 32t-45 84q0 27 16 58q15 31 35 45q130 -119 184 -119t86 73t64 234l197 975h-176l12 90h186q43 164 124 288t166 184q164 116 261 116q96 0 146 -45l151 45l-241 -985h8q258 449 477 448q139 0 139 -184t-72 -377q-72 -194 -188 -322
q-117 -128 -233 -128q-31 0 -53 19q-51 44 10 128q111 -55 161 -41q35 45 112 286t77 392q0 66 -73 66t-174 -127t-179 -293t-107 -301l-18 -95l-154 -43l-26 27l325 1350q-84 72 -184 71q-164 0 -278 -479h264l-21 -90h-264l-172 -819q-29 -139 -78 -247t-99 -166
t-122 -104t-159 -46z" />
    <glyph glyph-name="dollar.lin" horiz-adv-x="1099" 
d="M516 1233q-74 -68 -77 -155t32 -141t139 -116l95 482q-115 -2 -189 -70zM801 328q2 76 -34 133t-126 114l-102 -520q106 16 182 84t80 189zM422 -35q-119 0 -379 82l49 383h72l49 -297q109 -76 246 -82l110 567l-57 33q-125 70 -187 146t-61 188q4 151 131 263t324 130
l45 228h82l-45 -224q107 0 239 -39q45 -12 58 -16l-62 -362h-61l-53 258q-66 59 -138 73l-102 -518q170 -94 243 -178t70 -211q-4 -157 -143 -273t-330 -143l-45 -229h-80l43 221h-18z" />
    <glyph glyph-name="Euro.lin" horiz-adv-x="1284" 
d="M1010 1370q106 0 187 -51t81 -119q0 -22 -13 -46t-23 -33t-52 -50q-147 203 -301 203q-109 0 -212 -126t-167 -317h518l-27 -90h-518q-25 -98 -32 -174h493l-26 -90h-474v-31q0 -158 79 -250t200 -94q121 0 193 41t176 133l36 -43q-229 -281 -479 -280q-133 0 -227 74
q-172 135 -172 376q0 49 2 74h-172l29 90h151q14 102 35 174h-131l26 90h138q100 255 297 397t385 142z" />
    <glyph glyph-name="sterling.lin" horiz-adv-x="1259" 
d="M1056 1493q72 0 141 -57t69 -142q0 -50 -45 -78t-115 -34q-29 223 -135 223q-49 0 -93 -70t-98 -264l-121 -448h398l-15 -91h-405l-4 -14q-82 -301 -303 -452q135 -53 229 -105l70 -37q178 -96 241 -124t99 -27q68 0 87 103t-3 173q158 10 157 -94q0 -86 -92 -184
q-92 -99 -232 -99t-284 78q-61 33 -102 53t-164 103l-148 88q-90 -33 -159 -33q-100 0 -101 86q0 37 34 64t96 27t186 -42q109 96 157 275l43 161h-239l14 91h248l90 340q37 141 97 249t129 165q69 58 135 87t138 29z" />
    <glyph glyph-name="yen.lin" horiz-adv-x="1284" 
d="M129 530l18 86h418l-264 633l-113 45l13 66h493l-12 -66l-180 -43l217 -538h6l420 528l-174 53l14 66h422l-12 -66l-119 -45l-512 -633h426l-19 -88h-428l-30 -153h430l-19 -90h-430l-35 -170l177 -47l-15 -68h-557l15 68l192 47l33 170h-424l18 90h424l33 155h-426z" />
    <glyph glyph-name="florin.lin" horiz-adv-x="933" 
d="M891 1391q69 0 103 -33t34 -81t-63 -128q-43 47 -65 67q-68 64 -128 64q-30 0 -56 -19q-72 -53 -135 -271q-40 -134 -83 -341h268l-21 -90h-266l-108 -528q-29 -139 -78 -247t-99 -166t-122 -104t-136 -46q-63 0 -108 32t-45 84q0 27 15 58t36 45q129 -119 183 -119
t86 73t65 234l135 684h-176l12 90h183l16 78q55 279 214 471t339 193z" />
    <glyph glyph-name="zero.lin" horiz-adv-x="1308" 
d="M545 47q131 0 241 140t168 338q57 198 58 390q0 389 -213 390q-103 0 -195 -83q-168 -152 -244 -491q-33 -152 -32 -293q0 -391 217 -391zM807 1389q190 0 300 -157t110 -405q-1 -135 -47 -283t-128 -278t-216 -216q-134 -85 -289 -85q-190 0 -303 154q-112 154 -112 389
t120 479q119 243 325 345q113 57 240 57z" />
    <glyph glyph-name="one.lin" horiz-adv-x="837" 
d="M711 1397l-252 -1288l217 -33l-14 -76h-637l14 76l235 30l215 1084l-258 -12l15 77l454 142h11z" />
    <glyph glyph-name="two.lin" horiz-adv-x="1054" 
d="M987 1074q0 -136 -69 -257q-47 -82 -256 -272q-66 -60 -216 -191l-215 -186h680l-32 -168h-871l21 106l123 109q397 351 453 419q57 68 106 134q80 108 81 220q2 112 -62 175t-165 64q-129 0 -274 -160l-64 61q186 262 410 263q166 -1 258 -91t92 -226z" />
    <glyph glyph-name="three.lin" horiz-adv-x="1009" 
d="M328 -33q-129 0 -213 43t-84 112t102 138q55 -113 120 -156t162 -43t188 82q91 83 91 223t-117 215q-118 75 -270 74l21 90q252 123 332 194t79 152q0 146 -168 146q-83 0 -151 -41t-150 -125l-49 49q103 135 207 203t225 68t198 -69q77 -68 77 -180t-79 -184t-284 -184
v-10q133 -25 223 -113t91 -217q1 -188 -179 -328t-372 -139z" />
    <glyph glyph-name="four.lin" horiz-adv-x="1161" 
d="M256 528h395l109 555zM393 68l176 47l56 278h-547l10 68l830 909l73 -10l-164 -832h265l-23 -135h-268l-53 -278l153 -49l-12 -66h-508z" />
    <glyph glyph-name="five.lin" horiz-adv-x="1024" 
d="M540 825q136 0 252 -94t115 -268q0 -141 -90 -258t-220 -177t-287 -60t-227 71q-32 33 -32 78q0 78 96 143q61 -115 131 -155q70 -39 172 -39q103 0 194 82t91 228t-87 216q-88 70 -202 70t-223 -72h-39l193 770h622l-34 -172h-533l-102 -404q74 41 210 41z" />
    <glyph glyph-name="six.lin" horiz-adv-x="1165" 
d="M639 752q-137 0 -287 -148q-31 -109 -30 -225q0 -338 215 -338q137 0 227 124t90 316q0 121 -57 196q-58 75 -158 75zM713 846q123 0 228 -89t105 -275t-128 -348q-62 -79 -168 -127t-238 -48q-166 0 -274 121q-108 120 -109 322q0 202 93 380t245 301q318 257 704 320
l13 -74q-268 -70 -483 -232q-214 -163 -310 -388h2q139 137 320 137z" />
    <glyph glyph-name="seven.lin" horiz-adv-x="950" 
d="M236 0h-168l763 1180h-681l34 180h836l-6 -27z" />
    <glyph glyph-name="eight.lin" horiz-adv-x="1079" 
d="M451 1085q0 -101 64 -178q24 -29 83 -92l51 -53q227 152 228 348q1 96 -51 146t-138 50t-162 -60t-75 -161zM252 287q0 -100 60 -173t177 -73t185 72t68 160t-56 156q-55 69 -92 109t-47 52l-45 49q-126 -84 -188 -168t-62 -184zM70 248q0 189 178 316q94 67 211 122
l-31 35q-76 84 -112 147t-35 150q0 133 131 253q130 120 290 120t256 -78t97 -211q0 -203 -359 -389l45 -45q6 -6 34 -36t51 -53q24 -23 36 -45t26 -47q30 -52 34 -135q0 -162 -146 -278t-318 -115q-173 0 -281 80q-107 80 -107 209z" />
    <glyph glyph-name="nine.lin" horiz-adv-x="1155" 
d="M610 592q125 0 238 127q45 131 45 275t-51 237q-51 94 -169 94t-214 -128t-97 -320q0 -123 62 -204t186 -81zM170 886q0 192 149 355q150 162 398 162q154 0 260 -123t106 -324q0 -200 -94 -378q-171 -324 -578 -507q-179 -81 -366 -112l-14 74q258 65 461 217t307 356
h-2q-137 -112 -282 -112t-245 100t-100 292z" />
    <glyph glyph-name="percent.lin" horiz-adv-x="1771" 
d="M1225 -35q-129 0 -207 88t-78 219q0 168 127 303t289 136q127 0 205 -88t77 -220q0 -172 -124 -305t-289 -133zM1346 631q-100 0 -178 -116t-76 -275q0 -86 37 -141q38 -54 104 -54q98 0 176 111t78 278q1 88 -37 142t-104 55zM465 635q-129 0 -207 88t-78 219
q0 168 127 303t289 135q127 0 205 -88t78 -219q0 -172 -125 -305t-289 -133zM586 1300q-100 0 -177 -116t-77 -275q0 -86 38 -140t103 -54q98 1 176 111t78 278q1 88 -37 142t-104 54zM154 -102l1314 1493h131l-1314 -1493h-131z" />
    <glyph glyph-name="perthousand.lin" horiz-adv-x="2545" 
d="M2150 631q-100 0 -177 -116t-77 -275q0 -86 38 -140t104 -55q98 0 176 111t78 278q0 88 -38 142t-104 55zM2030 -35q-129 0 -207 88t-78 219q0 168 127 303t289 136q127 0 205 -88t77 -220q-1 -172 -125 -305t-288 -133zM1346 631q-100 0 -178 -116t-76 -275
q0 -86 37 -141q38 -54 104 -54q98 0 176 111t78 278q1 88 -37 142t-104 55zM1225 -35q-129 0 -207 88t-78 219q0 168 127 303t289 136q127 0 205 -88t77 -220q0 -172 -124 -305t-289 -133zM154 -102l1314 1493h131l-1314 -1493h-131zM586 1300q-100 0 -177 -116t-77 -275
q0 -86 38 -140t103 -54q98 1 176 111t78 278q1 88 -37 142t-104 54zM465 635q-129 0 -207 88t-78 219q0 168 127 303t289 135q127 0 205 -88t78 -219q0 -172 -125 -305t-289 -133z" />
    <glyph glyph-name="plus.lin" horiz-adv-x="1142" 
d="M1059 549h-422v-426h-127v426h-422v119h422v426h127v-426h422v-119z" />
    <glyph glyph-name="minus.lin" horiz-adv-x="1142" 
d="M1057 549h-971v119h971v-119z" />
    <glyph glyph-name="multiply.lin" horiz-adv-x="1142" 
d="M938 147l-375 377l-368 -377l-84 84l374 377l-374 375l88 88l372 -375l375 385l82 -84l-375 -383l375 -378z" />
    <glyph glyph-name="divide.lin" horiz-adv-x="1142" 
d="M571 1100q57 0 101 -42t43 -100t-43 -100q-42 -43 -100 -43t-100 43t-42 100q0 58 42 100t99 42zM569 115q-57 0 -99 43t-42 100t42 99t99 42t101 -42t43 -99q1 -57 -43 -100t-101 -43zM1057 549h-971v119h971v-119z" />
    <glyph glyph-name="equal.lin" horiz-adv-x="1142" 
d="M86 424v113h971v-113h-971zM86 723v113h971v-113h-971z" />
    <glyph glyph-name="less.lin" horiz-adv-x="1142" 
d="M1053 985l-826 -379l826 -373v-139l-967 451v121l967 450v-131z" />
    <glyph glyph-name="greater.lin" horiz-adv-x="1142" 
d="M88 229l825 377l-825 371v139l967 -450v-121l-967 -451v135z" />
    <glyph glyph-name="plusminus.lin" horiz-adv-x="1140" 
d="M1057 0h-971v115h971v-115zM1057 817h-422v-426h-127v426h-422v119h422v426h127v-426h422v-119z" />
    <glyph glyph-name="notequal.lin" horiz-adv-x="1142" 
d="M86 723v113h606l203 225h125l-205 -225h242v-113h-342l-168 -186h510v-113h-613l-202 -225h-119l201 225h-238v113h340l166 186h-506z" />
    <glyph glyph-name="approxequal.lin" horiz-adv-x="1142" 
d="M344 602q57 0 156 -22l135 -33q141 -33 185 -33t75 29t66 92l92 -37q-47 -100 -107 -149t-142 -49q-83 0 -206 30l-133 35q-94 25 -138 25t-76 -33q-32 -32 -67 -95l-92 37q94 203 252 203zM344 930q57 0 156 -23l135 -33q141 -32 185 -32t75 28t66 93l92 -37
q-47 -100 -107 -150t-142 -49q-83 0 -206 31l-133 35q-94 25 -138 25t-76 -33q-32 -32 -67 -95l-92 37q94 203 252 203z" />
    <glyph glyph-name="lessequal.lin" horiz-adv-x="1142" 
d="M1051 0h-967v115h967v-115zM1051 1063l-791 -295l791 -293v-137l-967 369v120l967 369v-133z" />
    <glyph glyph-name="greaterequal.lin" horiz-adv-x="1142" 
d="M1053 0h-967v115h967v-115zM877 766l-791 293v139l967 -369v-120l-967 -369v133z" />
    <glyph glyph-name="numbersign.lin" horiz-adv-x="1214" 
d="M526 866l-133 -356h297l133 356h-297zM211 866l25 119h219l118 313h115l-117 -313h295l119 313h115l-117 -313h215l-24 -119h-236l-133 -356h209l-25 -119h-229l-115 -309h-115l115 309h-295l-114 -309h-117l114 309h-206l24 119h228l133 356h-201z" />
    <glyph glyph-name="ordfeminine.lin" horiz-adv-x="935" 
d="M344 688q72 0 202 171t167 292l22 74q-49 63 -111 63t-140 -80t-135 -204q-56 -124 -56 -238q0 -78 51 -78zM669 557q-129 0 -71 188l47 154h-6q-12 -17 -52 -75q-71 -103 -151 -189q-81 -86 -176 -84q-63 0 -100 44t-37 112q-2 151 85 305t216 250t246 96q68 0 116 -29
l17 51h112l-190 -690l6 -2q51 14 98 56t78 96l35 -15q-39 -100 -126 -184t-147 -84z" />
    <glyph glyph-name="ordmasculine.lin" horiz-adv-x="837" 
d="M588 1372q123 0 183 -82t60 -205t-52 -243t-161 -203q-110 -84 -236 -84t-188 83t-63 212q0 194 127 358t330 164zM291 793q0 -182 90 -183q69 0 137 87t109 208t41 223q0 188 -97 189q-73 0 -139 -92t-104 -213t-37 -219z" />
    <glyph glyph-name="dollar.tab" 
d="M750 1249q-102 -9 -166 -71t-67 -141t25 -127t122 -105zM860 322q6 139 -164 243l-100 -504q106 10 183 76t81 185zM180 420h74l49 -285q92 -63 213 -76l109 545l-45 27q-119 63 -179 136q-59 73 -56 197t121 231q118 108 300 128l55 283h82l-55 -277q106 -2 301 -55
l-57 -342h-64l-51 246q-63 57 -146 69l-96 -483q176 -98 247 -178t68 -220q-4 -140 -142 -250t-326 -132l-47 -240h-80l45 233q-121 0 -367 80z" />
    <glyph glyph-name="Euro.tab" 
d="M948 1239q112 0 182 -51t70 -123q0 -35 -17 -61t-67 -78q-45 70 -75 106t-82 69q-52 34 -111 34q-98 -1 -188 -107t-146 -268h426l-25 -90h-428q-20 -88 -26 -154h411l-24 -90h-391q3 -158 71 -249t204 -91t278 135l49 -49q-101 -111 -195 -165t-219 -54q-125 1 -214 67
q-163 122 -163 349q0 39 2 57h-139l25 90h120q14 88 33 154h-110l24 90h115q92 227 270 353t340 126z" />
    <glyph glyph-name="sterling.tab" 
d="M1006 1337q61 0 119 -55t59 -141q0 -35 -37 -63t-98 -34q-27 205 -117 205q-104 0 -195 -334l-82 -303h340l-14 -90h-350l-6 -28q-78 -293 -283 -441q111 -51 193 -108l92 -64q34 -24 92 -65q57 -40 86 -60t44 -28t40 -22t51 -13q47 0 65 77q17 77 -4 189q147 0 148 -92
q0 -96 -86 -181t-221 -85q-82 1 -190 65t-328 238l-103 82q-66 -25 -104 -25q-109 0 -109 74q0 33 35 55t86 21q51 0 141 -29q74 68 117 225l57 215h-192l14 90h203l61 230q60 217 208 356t268 139z" />
    <glyph glyph-name="yen.tab" 
d="M162 508l18 90h350l-243 594l-113 45l12 66h494l-12 -66l-181 -43l203 -502h6l394 492l-175 53l15 66h422l-13 -66l-118 -45l-471 -594h352l-17 -90h-368l-33 -154h369l-19 -92h-368l-29 -147l176 -47l-14 -68h-557l14 68l193 47l28 147h-364l18 92h365l30 154h-364z" />
    <glyph glyph-name="florin.tab" 
d="M1047 1237q69 0 103 -33t34 -81t-64 -128q-43 47 -64 68q-71 65 -128 63q-30 0 -52 -15q-67 -45 -119 -207q-34 -101 -71 -255h328l-21 -90h-327l-109 -528q-29 -139 -78 -247t-99 -166t-122 -104t-136 -46q-63 0 -108 32t-45 84q0 27 16 58q15 31 35 45
q130 -119 184 -119t86 73t64 234l135 684h-237l12 90h248q68 252 217 420q150 168 318 168z" />
    <glyph glyph-name="zero.tab" 
d="M551 -31q-180 0 -297 123q-117 124 -117 354t170 414t412 184q193 0 303 -133t111 -329q0 -248 -168 -430t-414 -183zM713 961q-161 0 -267 -169t-106 -413q0 -144 31 -210t78 -93t116 -27q149 0 257 162t108 414q0 336 -217 336z" />
    <glyph glyph-name="one.tab" 
d="M874 1040l-182 -921l266 -43l-14 -76h-747l14 76l305 41l148 751h-304l9 86l497 86h8z" />
    <glyph glyph-name="two.tab" 
d="M121 0v49l205 160q272 211 359 313t87 192t-56 142q-56 51 -138 51q-82 1 -139 -29q-56 -30 -122 -100l-53 51q82 117 166 170t218 53t216 -76q82 -77 82 -201q0 -125 -96 -241t-361 -311l-79 -59h573l-31 -164h-831z" />
    <glyph glyph-name="three.tab" 
d="M709 47q0 106 -82 180t-219 74h-27l16 100l107 43q115 47 205 127t90 161q1 81 -53 128t-138 47q-139 0 -266 -127l-51 49q61 90 165 157t222 67q117 0 206 -68q89 -67 89 -181t-90 -203t-254 -175l-13 -6q119 -29 200 -116q81 -86 81 -198q0 -217 -223 -370
q-197 -136 -473 -223l-27 69q535 209 535 465z" />
    <glyph glyph-name="four.tab" 
d="M229 190h439l106 558zM555 -399l86 450h-608l10 62l909 923h45l-166 -846h246l-22 -139h-250l-86 -450h-164z" />
    <glyph glyph-name="five.tab" 
d="M655 106q0 119 -77 230q-78 111 -277 303l178 360l543 29l-33 -170l-512 -27l-31 -65q96 -92 136 -129t104 -109q66 -72 90 -116q68 -123 68 -238q0 -410 -733 -655l-27 69q240 98 338 164q233 153 233 354z" />
    <glyph glyph-name="six.tab" 
d="M666 743q-112 0 -256 -129q-47 -123 -48 -256q0 -317 213 -317q133 0 226 124q92 124 92 316q0 117 -57 190q-58 72 -170 72zM1085 471q0 -189 -141 -351t-389 -161q-170 0 -279 117q-108 117 -108 300t75 341q75 157 187 267t266 203t290 148t284 99l14 -68
q-340 -134 -603 -374q-153 -140 -232 -294h4q135 139 299 140q131 0 232 -89t101 -278z" />
    <glyph glyph-name="seven.tab" 
d="M240 -420l-127 66l843 1200h-725l35 180h914l-2 -18l-742 -1114z" />
    <glyph glyph-name="eight.tab" 
d="M575 1060q0 -114 125 -235l60 -59q219 178 219 352q0 84 -46 135t-129 51t-156 -64q-73 -66 -73 -180zM375 276q0 -100 54 -168t169 -67q114 0 180 79t66 173q0 55 -32 113t-56 84t-94 98l-50 47q-121 -88 -179 -174q-58 -85 -58 -185zM193 236q0 190 177 324
q84 64 195 122l-53 53q-61 61 -88 119t-27 143q0 141 128 267t288 127q160 0 252 -78t92 -201q0 -193 -346 -397l41 -39q63 -61 92 -94q30 -33 56 -87t26 -112q0 -182 -142 -303t-318 -121t-274 75q-99 75 -99 202z" />
    <glyph glyph-name="nine.tab" 
d="M594 258q135 0 252 115q59 145 59 291q0 303 -213 303q-127 0 -222 -124t-95 -306q1 -129 59 -204t160 -75zM524 162q-184 0 -284 159q-58 91 -58 215t60 236t188 195q127 82 290 82q164 0 272 -115t108 -292t-72 -336q-72 -160 -186 -274t-266 -209q-269 -168 -599 -255
l-14 74q266 96 489 257q222 161 341 365h-2q-127 -102 -267 -102z" />
    <glyph glyph-name="cent.tab" 
d="M434 321q0 -184 88 -215l217 779q-121 -10 -213 -195t-92 -369zM1024 894q0 -66 -44 -123q-15 -22 -19 -21q-94 94 -144 118l-213 -764q66 18 150 86t139 150l37 -25q-46 -88 -150 -190t-209 -135l-67 -246h-84l65 233q-106 7 -171 89q-64 82 -64 222t81 305t240 284
q94 72 197 104l76 272h82l-74 -260q70 -4 121 -35q51 -32 51 -64z" />
    <glyph glyph-name="percent.tab" horiz-adv-x="1843" 
d="M1276 -35q-127 0 -196 86t-68 221q0 170 117 305q118 134 278 134q125 0 194 -86t68 -222q-1 -174 -115 -306t-278 -132zM1384 631q-90 0 -156 -115t-65 -276q0 -195 131 -195q90 0 157 111t67 278q-1 197 -134 197zM225 -102l1225 1392h131l-1225 -1392h-131zM416 494
q-127 0 -196 86t-68 221q0 170 117 304q118 134 278 134q125 0 193 -86t69 -221q-1 -174 -115 -306t-278 -132zM524 1159q-90 0 -156 -115t-65 -276q0 -195 131 -195q90 0 157 111t66 279q0 196 -133 196z" />
    <glyph glyph-name="perthousand.tab" horiz-adv-x="2457" 
d="M2007 -35q-127 0 -196 86t-68 221q0 170 118 304t277 135q125 0 194 -86t68 -222q0 -174 -114 -306t-279 -132zM2116 631q-90 0 -156 -115t-66 -276q0 -195 131 -195q90 0 157 111t67 278q0 197 -133 197zM1214 -35q-128 0 -196 86q-68 87 -68 239t118 286t278 135
q126 0 194 -86t68 -222q0 -174 -115 -306t-279 -132zM1323 631q-90 0 -156 -115t-65 -276q0 -195 131 -195q90 0 157 111t66 278q0 197 -133 197zM354 494q-128 0 -196 86t-68 238t118 287q118 134 277 134q125 0 194 -86t69 -221q0 -174 -115 -306t-279 -132zM463 1159
q-90 0 -156 -115t-65 -276q0 -195 131 -195q91 0 157 111t66 279q0 196 -133 196zM164 -102l1225 1392h131l-1225 -1392h-131z" />
    <glyph glyph-name="plus.tab" 
d="M1120 426h-422v-426h-127v426h-421v119h421v426h127v-426h422v-119z" />
    <glyph glyph-name="minus.tab" 
d="M1120 426h-970v119h970v-119z" />
    <glyph glyph-name="multiply.tab" 
d="M1004 25l-375 376l-369 -376l-84 84l375 376l-375 375l88 88l373 -375l375 385l82 -84l-375 -382l375 -379z" />
    <glyph glyph-name="divide.tab" 
d="M635 692q-57 0 -99 43t-42 101t42 99q42 42 99 42t100 -42t43 -99q0 -56 -43 -100t-100 -44zM634 -8q-58 0 -100 43t-42 100t42 99t99 42t100 -42t43 -99t-42 -100t-100 -43zM1120 426h-970v119h970v-119z" />
    <glyph glyph-name="equal.tab" 
d="M150 301v113h970v-113h-970zM150 600v113h970v-113h-970z" />
    <glyph glyph-name="less.tab" 
d="M1118 862l-825 -379l825 -372v-140l-966 451v121l966 450v-131z" />
    <glyph glyph-name="greater.tab" 
d="M152 106l825 377l-825 371v139l966 -450v-121l-966 -451v135z" />
    <glyph glyph-name="plusminus.tab" 
d="M1120 0h-970v115h970v-115zM1120 692h-422v-426h-127v426h-421v119h421v426h127v-426h422v-119z" />
    <glyph glyph-name="notequal.tab" 
d="M150 600v113h606l202 225h125l-204 -225h241v-113h-342l-168 -186h510v-113h-612l-203 -225h-119l201 225h-237v113h339l166 186h-505z" />
    <glyph glyph-name="approxequal.tab" 
d="M395 479q57 0 156 -22l135 -33q141 -33 185 -33t75 29t66 92l92 -37q-46 -100 -106 -149q-60 -50 -143 -50t-206 31l-133 35q-94 25 -138 25t-76 -32t-66 -95l-93 36q94 203 252 203zM416 807q57 0 155 -23l136 -32q141 -33 185 -33t75 29t65 92l92 -37
q-47 -99 -106 -149q-58 -50 -142 -50t-206 31l-133 35q-95 24 -139 24t-76 -32t-66 -95l-92 37q94 203 252 203z" />
    <glyph glyph-name="lessequal.tab" 
d="M1118 0h-966v115h966v-115zM1118 942l-790 -295l790 -293v-137l-966 369v121l966 368v-133z" />
    <glyph glyph-name="greaterequal.tab" 
d="M1118 0h-966v115h966v-115zM942 643l-790 293v139l966 -368v-121l-966 -369v133z" />
    <glyph glyph-name="parenleft.tab" horiz-adv-x="614" 
d="M504 -369h-101q-295 422 -186 973q47 236 192 468q144 232 359 427h113q-211 -225 -331 -437t-173 -478q-53 -304 -23 -516t150 -437z" />
    <glyph glyph-name="parenright.tab" horiz-adv-x="614" 
d="M154 1499h100q295 -422 186 -973q-47 -236 -191 -468t-360 -427h-112q211 225 331 437t173 479q53 305 22 516q-30 211 -149 436z" />
    <glyph glyph-name="bracketleft.tab" horiz-adv-x="614" 
d="M403 -371h-356l371 1872h354l-14 -80h-195l-338 -1712h195z" />
    <glyph glyph-name="bracketright.tab" horiz-adv-x="614" 
d="M254 1501h354l-370 -1872h-353l17 80h194l338 1712h-196z" />
    <glyph glyph-name="braceleft.tab" horiz-adv-x="614" 
d="M492 -371q-199 1 -250 95t-4 315l69 326q39 186 -98 190l-74 2l19 94l71 2q143 2 170 150l68 379q27 158 115 238t282 81h31l-14 -65q-111 0 -161 -52t-89 -221l-74 -321q-27 -116 -75 -172t-140 -70v-4q76 -31 104 -91t9 -175l-60 -363q-25 -170 3 -221t138 -51l-12 -66
h-28z" />
    <glyph glyph-name="braceright.tab" horiz-adv-x="614" 
d="M207 1501q199 0 250 -94t4 -315l-70 -326q-39 -186 98 -191l74 -2l-18 -94l-72 -2q-143 -2 -170 -149l-67 -379q-27 -158 -115 -239t-283 -81h-31l15 66q111 0 161 51t89 221l73 322q27 115 75 171t140 70v5q-76 31 -104 91t-8 175l59 362q25 170 -3 221t-138 52l12 65
h29z" />
    <glyph glyph-name="numbersign.tab" 
d="M580 784l-134 -356h297l134 356h-297zM264 784l25 119h219l119 314h114l-116 -314h295l118 314h115l-117 -314h215l-24 -119h-236l-133 -356h209l-25 -119h-229l-115 -309h-114l114 309h-295l-114 -309h-117l115 309h-207l24 119h228l133 356h-201z" />
    <glyph glyph-name="period.tab" horiz-adv-x="614" 
d="M449 135q-1 -57 -43 -100t-100 -43t-100 43t-42 100t42 99t99 42t101 -42t43 -99z" />
    <glyph glyph-name="comma.tab" horiz-adv-x="614" 
d="M254 -20q0 117 -119 172q0 66 34 114q35 48 103 49q68 0 114 -55t46 -154q0 -156 -113 -298t-276 -193q-27 49 -29 59q120 50 180 136t60 170z" />
    <glyph glyph-name="colon.tab" horiz-adv-x="614" 
d="M393 678q-57 0 -99 43t-42 100t42 99t99 43q57 0 101 -42q44 -43 43 -101q1 -58 -43 -100t-101 -42zM261 -8q-58 0 -100 43t-42 100t42 99t99 42t100 -42t43 -99t-42 -100t-100 -43z" />
    <glyph glyph-name="semicolon.tab" horiz-adv-x="614" 
d="M389 678q-57 0 -99 43t-42 100t42 99t99 43q57 0 100 -42q43 -43 43 -101t-43 -100t-100 -42zM254 315q68 0 114 -55t46 -154q0 -156 -113 -298t-276 -193q-27 49 -29 59q119 50 179 136t61 170q0 117 -119 172q0 66 34 114q35 48 103 49z" />
    <glyph glyph-name="space.tab" horiz-adv-x="614" 
 />
    <glyph glyph-name="dollar.lintab" 
d="M743 1303q-115 -2 -189 -70t-76 -156q-3 -88 31 -141t140 -115zM840 328q2 76 -34 133t-126 114l-102 -520q106 16 182 84t80 189zM461 -35q-123 0 -369 82l49 383h72l49 -299q94 -74 236 -80l110 567l-57 33q-125 70 -187 146t-61 188q4 151 131 263t324 130l45 228h82
l-45 -224q121 0 286 -55l-61 -362h-61l-54 260q-61 57 -127 71l-102 -518q170 -94 243 -178t70 -211q-4 -157 -143 -273t-330 -143l-45 -229h-80l43 221h-18z" />
    <glyph glyph-name="Euro.lintab" 
d="M950 1370q106 0 184 -57q77 -57 76 -117q0 -22 -13 -46t-22 -33t-53 -50q-68 103 -131 155t-155 52t-192 -126t-163 -317h514l-26 -90h-514q-18 -74 -33 -174h489l-26 -90h-469v-31q0 -158 78 -250t192 -94q114 0 187 36t165 120l39 -47q-106 -129 -215 -194t-243 -65
t-228 75q-170 134 -170 376q0 49 2 74h-143l29 90h122q8 78 33 174h-100l26 90h105q66 172 182 298q117 125 242 183t231 58z" />
    <glyph glyph-name="sterling.lintab" 
d="M989 1493q82 0 151 -57t68 -142q0 -50 -45 -78t-114 -34q-29 223 -129 223q-45 0 -84 -69t-93 -265l-102 -448h324l-15 -91h-329l-3 -14q-84 -307 -294 -459q98 -41 221 -106l69 -37q87 -45 113 -60q39 -22 86 -46l28 -14q37 -17 50 -19l21 -3q7 -1 16 -1q51 0 76 82
t0 194q158 10 157 -94q0 -99 -96 -191t-221 -92q-211 0 -525 222l-135 94q-78 -27 -134 -27t-86 24q-30 23 -30 61t35 63q73 52 267 -15q111 90 151 277l37 161h-205l14 91h211l76 340q70 266 201 398t268 132z" />
    <glyph glyph-name="yen.lintab" 
d="M139 530l19 86h344l-230 633l-112 45l12 66h494l-13 -66l-180 -43l186 -538h7l387 528l-174 53l14 66h422l-12 -66l-119 -45l-473 -633h348l-19 -88h-358l-31 -153h359l-19 -90h-358l-35 -170l176 -47l-14 -68h-557l14 68l193 47l34 170h-354l19 90h354l31 155h-355z" />
    <glyph glyph-name="florin.lintab" 
d="M1065 1391q69 0 103 -33t34 -81t-63 -128q-43 47 -65 67q-68 64 -128 64q-30 0 -56 -19q-72 -53 -135 -271q-40 -134 -83 -341h381l-21 -90h-379l-108 -528q-29 -139 -78 -247t-99 -166t-122 -104t-136 -46q-63 0 -108 32t-45 84q0 27 15 58t36 45q130 -119 184 -119
t86 73t64 234l135 684h-319l12 90h326l16 78q55 279 214 471t339 193z" />
    <glyph glyph-name="zero.lintab" 
d="M510 47q125 0 226 141t151 337q49 196 49 382t-26 263t-70 106q-43 29 -109 29q-129 1 -230 -141t-149 -336t-47 -379q-1 -185 27 -264q28 -78 70 -108t108 -30zM758 1389q186 0 284 -154t98 -397t-109 -478q-110 -236 -308 -338q-109 -56 -236 -57q-188 0 -287 152
t-100 393q0 301 162 575q78 133 208 219t288 85z" />
    <glyph glyph-name="one.lintab" 
d="M893 1397l-248 -1270l320 -37l-19 -90h-862l18 90l359 35l211 1065h-373l14 76l570 131h10z" />
    <glyph glyph-name="two.lintab" 
d="M1036 1074q0 -136 -69 -257q-47 -82 -256 -272q-65 -60 -215 -191l-215 -186h680l-33 -168h-871l21 106l123 109q404 358 474 443q128 156 147 216t20 111q0 115 -64 178t-164 64q-129 0 -274 -160l-64 61q186 262 410 263q166 -1 258 -91t92 -226z" />
    <glyph glyph-name="three.lintab" 
d="M977 435q0 -125 -93 -237t-222 -171t-256 -59t-221 42q-93 43 -93 112t103 138q100 -199 297 -199q120 0 210 84q90 83 90 221t-130 214q-131 76 -289 75l20 86q276 137 361 204q84 67 84 157q0 61 -47 98t-129 37q-168 0 -324 -160l-49 49q203 264 428 265
q161 0 235 -70t74 -167t-55 -164q-55 -68 -197 -149q-37 -22 -131 -73v-10q137 -25 235 -111t99 -212z" />
    <glyph glyph-name="four.lintab" 
d="M223 508h449l114 586zM420 68l176 47l49 258h-602l10 67l891 930l70 -10l-168 -852h252l-23 -135h-256l-49 -258l158 -49l-13 -66h-507z" />
    <glyph glyph-name="five.lintab" 
d="M625 825q137 0 258 -95q121 -96 121 -252t-90 -273t-221 -177q-130 -60 -261 -61q-192 0 -264 72q-33 33 -33 78q0 78 96 143q61 -113 135 -154q74 -40 180 -40q104 0 194 82t91 226q0 146 -92 217q-93 71 -209 71t-223 -72h-39l193 770h635l-35 -172h-545l-102 -404
q74 41 211 41z" />
    <glyph glyph-name="six.lintab" 
d="M649 752q-125 0 -276 -146q-33 -119 -33 -227q0 -338 215 -338q135 0 216 122t81 318q0 115 -51 193q-52 78 -152 78zM721 846q129 0 226 -97t97 -253q0 -204 -118 -362q-60 -79 -162 -127t-234 -48q-166 0 -274 121q-108 122 -109 318q0 196 89 370q164 325 560 512
q181 86 373 119l13 -76q-262 -67 -468 -231t-304 -383h2q139 137 309 137z" />
    <glyph glyph-name="seven.lintab" 
d="M397 0h-180l795 1180h-772l34 180h938l-6 -27z" />
    <glyph glyph-name="eight.lintab" 
d="M928 1110q0 96 -51 146t-137 50t-162 -60t-76 -161t64 -178q24 -29 83 -92l58 -55q221 147 221 350zM551 41q117 0 185 72t67 144q0 71 -35 135t-62 96q-28 32 -98 102l-47 47q-127 -82 -187 -166t-60 -184t60 -173t177 -73zM131 248q0 186 173 316q72 54 208 122l-33 35
q-75 77 -111 143t-36 154q0 133 131 253t291 120t256 -78t96 -211q0 -209 -348 -391l45 -43q144 -144 162 -210t18 -106q0 -162 -145 -278q-144 -116 -318 -115q-174 0 -282 80t-107 209z" />
    <glyph glyph-name="nine.lintab" 
d="M621 592q133 0 245 127q45 131 45 275t-51 237q-51 94 -168 94t-204 -127t-87 -321q0 -125 57 -205t163 -80zM209 891q0 119 54 233t176 196q122 83 284 83q163 0 271 -122t108 -323q0 -202 -93 -378t-244 -299q-306 -249 -681 -318l-14 76q248 65 446 215t301 352h-2
q-137 -112 -276 -112t-235 101q-95 101 -95 296z" />
    <glyph glyph-name="percent.lintab" horiz-adv-x="1843" 
d="M1233 -35q-129 0 -207 88t-78 219q0 168 127 303t289 136q127 0 205 -88t78 -220q0 -172 -125 -305t-289 -133zM1354 631q-100 0 -177 -116t-77 -275q0 -86 38 -140t103 -55q98 0 176 111t78 278q1 88 -37 142t-104 55zM473 635q-129 0 -207 88t-78 219q0 168 127 303
t289 135q127 0 205 -88t78 -219q0 -172 -125 -305t-289 -133zM594 1300q-100 0 -177 -116t-77 -275q0 -86 38 -140t103 -54q98 1 176 111t78 278q1 88 -37 142t-104 54zM162 -102l1315 1493h131l-1315 -1493h-131z" />
    <glyph glyph-name="perthousand.lintab" horiz-adv-x="2457" 
d="M2085 631q-100 0 -177 -116t-77 -275q0 -86 38 -140t103 -55q98 0 176 111t78 278q0 88 -38 142t-103 55zM1964 -35q-129 0 -207 88t-78 219q0 168 127 303t289 136q127 0 205 -88t78 -220q0 -172 -125 -305t-289 -133zM1280 631q-100 0 -177 -116t-77 -275
q0 -86 38 -140t103 -55q98 0 176 111t78 278q1 88 -37 142t-104 55zM1159 -35q-129 0 -207 88t-78 219q0 168 127 303t289 136q127 0 205 -88t78 -220q0 -172 -125 -305t-289 -133zM88 -102l1315 1493h131l-1315 -1493h-131zM520 1300q-100 0 -177 -116t-77 -275
q0 -86 38 -140t104 -54q98 1 176 111t78 278q0 88 -38 142t-104 54zM399 635q-129 0 -207 88t-77 219q0 168 127 303t288 135q127 0 205 -88t78 -219q0 -172 -125 -305t-289 -133z" />
    <glyph glyph-name="numbersign.lintab" 
d="M555 866l-133 -356h297l133 356h-297zM240 866l24 119h219l119 313h115l-117 -313h295l119 313h114l-116 -313h215l-25 -119h-235l-133 -356h208l-24 -119h-230l-114 -309h-115l115 309h-295l-115 -309h-117l115 309h-207l25 119h227l133 356h-200z" />
    <glyph glyph-name="plus.lintab" 
d="M1096 549h-422v-426h-127v426h-422v119h422v426h127v-426h422v-119z" />
    <glyph glyph-name="minus.lintab" 
d="M1096 549h-971v119h971v-119z" />
    <glyph glyph-name="multiply.lintab" 
d="M979 147l-375 377l-368 -377l-84 84l374 377l-374 375l88 88l372 -375l375 385l82 -84l-375 -383l375 -378z" />
    <glyph glyph-name="divide.lintab" 
d="M610 815q-57 0 -99 43t-42 100q0 58 42 100t99 42q56 0 100 -42t44 -100t-44 -100q-44 -43 -100 -43zM752 258q0 -57 -42 -100t-101 -43q-58 0 -100 43t-42 100t42 99t99 42q56 0 100 -42t44 -99zM1096 549h-971v119h971v-119z" />
    <glyph glyph-name="equal.lintab" 
d="M125 424v113h971v-113h-971zM125 723v113h971v-113h-971z" />
    <glyph glyph-name="less.lintab" 
d="M1094 979l-820 -375l820 -368v-142l-967 451v121l967 450v-137z" />
    <glyph glyph-name="greater.lintab" 
d="M127 231l819 375l-819 369v141l967 -450v-121l-967 -451v137z" />
    <glyph glyph-name="plusminus.lintab" 
d="M1096 0h-971v115h971v-115zM1096 817h-422v-426h-127v426h-422v119h422v426h127v-426h422v-119z" />
    <glyph glyph-name="notequal.lintab" 
d="M125 723v113h606l203 225h125l-205 -225h242v-113h-342l-168 -186h510v-113h-613l-202 -225h-119l200 225h-237v113h340l166 186h-506z" />
    <glyph glyph-name="approxequal.lintab" 
d="M381 602q57 0 156 -22l135 -33q141 -33 185 -33t75 29t65 92l93 -37q-46 -100 -106 -149t-143 -49t-206 30l-133 35q-94 25 -138 25t-76 -33q-32 -32 -67 -95l-92 37q94 203 252 203zM381 930q57 0 156 -23l135 -33q141 -32 185 -32t75 28t65 93l93 -37
q-46 -100 -106 -150t-143 -49q-83 0 -206 31l-133 35q-94 25 -138 25t-76 -33q-32 -32 -67 -95l-92 37q94 203 252 203z" />
    <glyph glyph-name="lessequal.lintab" 
d="M1094 0h-967v115h967v-115zM1094 1061l-787 -293l787 -291v-137l-967 369v120l967 369v-137z" />
    <glyph glyph-name="greaterequal.lintab" 
d="M1094 0h-967v115h967v-115zM913 768l-786 293v137l967 -369v-120l-967 -369v137z" />
    <glyph glyph-name="parenleft.uctab" horiz-adv-x="614" 
d="M487 -287h-100q-295 422 -186 973q47 236 191 468t360 427h112q-210 -225 -330 -437t-174 -478q-52 -304 -22 -516t149 -437z" />
    <glyph glyph-name="parenright.uctab" horiz-adv-x="614" 
d="M129 1581h100q295 -422 187 -973q-48 -236 -192 -468t-359 -427h-113q211 225 331 437t173 479q53 305 23 516q-31 211 -150 436z" />
    <glyph glyph-name="bracketleft.uctab" horiz-adv-x="614" 
d="M381 -289h-356l370 1872h355l-15 -80h-194l-338 -1712h194z" />
    <glyph glyph-name="bracketright.uctab" horiz-adv-x="614" 
d="M244 1583h354l-371 -1872h-352l16 80h195l338 1712h-197z" />
    <glyph glyph-name="braceleft.uctab" horiz-adv-x="614" 
d="M422 -289q-199 0 -250 94t-4 316l70 325q39 186 -99 191l-73 2l18 94l72 2q143 2 170 150l67 379q27 158 115 238t283 81h30l-14 -65q-111 0 -161 -52t-89 -221l-74 -321q-27 -116 -75 -172t-140 -70v-4q76 -31 104 -91t9 -175l-59 -363q-25 -170 3 -221t138 -51l-12 -66
h-29z" />
    <glyph glyph-name="braceright.uctab" horiz-adv-x="614" 
d="M193 1583q199 0 249 -94t4 -315l-69 -326q-39 -186 98 -191l74 -2l-19 -94l-71 -2q-143 -2 -170 -149l-68 -379q-27 -158 -115 -239t-282 -81h-31l14 66q111 0 161 51t89 221l74 322q27 115 75 171t140 70v4q-76 32 -104 92t-9 175l60 362q25 170 -3 221t-138 52l12 65
h29z" />
    <glyph glyph-name="zero.num" horiz-adv-x="976" 
d="M795 1063q0 250 -164 250q-127 1 -203 -145t-76 -316q0 -248 164 -250q121 -2 200 142t79 319zM504 528q-150 0 -241 100t-91 242q0 188 130 352t339 164q150 0 242 -100t92 -261t-121 -323q-56 -76 -150 -125t-200 -49z" />
    <glyph glyph-name="one.num" horiz-adv-x="696" 
d="M92 565l14 68l197 33l109 546h-211l6 70l377 84h12l-137 -702l176 -31l-14 -68h-529z" />
    <glyph glyph-name="two.num" horiz-adv-x="757" 
d="M600 1114q0 70 -39 110t-108 40q-96 0 -211 -119l-49 49q47 59 82 95q98 97 249 97q88 0 160 -60t72 -158t-70 -182q-70 -83 -289 -228l-98 -66h436l-24 -127h-631l10 68l119 84q213 151 302 239t89 158z" />
    <glyph glyph-name="three.num" horiz-adv-x="753" 
d="M386 528q-134 0 -212 43t-78 103t88 110q80 -176 246 -176q74 0 118 44t44 116q0 178 -266 162l12 61l47 19q227 84 227 177q0 43 -32 69t-86 26q-56 0 -107 -27t-121 -94l-49 47q88 100 164 140t175 38q99 0 159 -41q59 -42 59 -111t-60 -116t-177 -104v-6
q106 -10 162 -64t57 -123q0 -125 -118 -209t-252 -84z" />
    <glyph glyph-name="four.num" horiz-adv-x="806" 
d="M260 854h250l59 299zM455 565l37 189h-386l9 51l587 567l62 -6l-105 -512h189l-17 -100h-190l-35 -189h-151z" />
    <glyph glyph-name="five.num" horiz-adv-x="784" 
d="M334 528q-94 0 -159 35t-65 101t83 98q76 -154 215 -154q92 0 149 49t55 126q-4 145 -196 145q-119 0 -193 -62h-28l122 496h471l-24 -131h-395l-54 -209q75 43 179 43t183 -54t79 -165q0 -146 -130 -232t-292 -86z" />
    <glyph glyph-name="six.num" horiz-adv-x="866" 
d="M504 600q76 0 123 65t47 157t-38 140q-38 46 -104 46q-106 0 -178 -86q-12 -54 -12 -138t43 -134t119 -50zM848 844q0 -116 -100 -216t-252 -100t-239 84t-87 230q0 223 197 379t489 186l8 -70q-397 -84 -485 -333q85 84 203 84t192 -64q74 -63 74 -180z" />
    <glyph glyph-name="seven.num" horiz-adv-x="718" 
d="M141 565l518 660h-475l27 137h612l-6 -29l-512 -768h-164z" />
    <glyph glyph-name="eight.num" horiz-adv-x="815" 
d="M682 1194q0 125 -131 125q-63 0 -109 -34t-45 -87q0 -80 131 -156l25 -14q129 55 129 166zM276 760q0 -66 42 -114t131 -48q88 0 137 35t49 92q0 72 -139 160l-66 41q-154 -57 -154 -166zM442 528q-144 0 -229 56q-86 56 -86 145q0 147 254 232q-123 80 -123 198
q0 90 83 159q83 68 214 68t203 -55t71 -123q0 -137 -225 -215q92 -57 134 -105t42 -112q0 -102 -97 -175t-241 -73z" />
    <glyph glyph-name="nine.num" horiz-adv-x="866" 
d="M692 1131q0 83 -42 133t-119 51q-76 0 -123 -65t-48 -165q0 -178 148 -178q100 0 172 86q12 55 12 138zM452 827q-118 -1 -192 63t-74 182t100 216t252 98q150 0 238 -86t88 -231q0 -215 -191 -373t-499 -188l-14 70q391 80 499 333q-89 -84 -207 -84z" />
    <glyph glyph-name="zero.den" horiz-adv-x="976" 
d="M676 498q0 250 -164 250q-127 0 -203 -146t-76 -315q0 -248 164 -250q121 -2 200 142t79 319zM385 -37q-150 0 -241 100t-91 242q0 188 130 352t339 164q150 0 242 -100t92 -261t-121 -323q-57 -76 -151 -125t-199 -49z" />
    <glyph glyph-name="one.den" horiz-adv-x="696" 
d="M-27 0l15 68l196 32l109 547h-211l6 70l377 84h12l-137 -703l176 -30l-14 -68h-529z" />
    <glyph glyph-name="two.den" horiz-adv-x="757" 
d="M481 549q0 69 -39 109t-108 40q-96 0 -211 -118l-49 49q47 59 83 95t98 67t150 31t160 -61t72 -159t-70 -181t-288 -228l-99 -66h436l-24 -127h-631l10 68l119 84q213 150 302 238t89 159z" />
    <glyph glyph-name="three.den" horiz-adv-x="753" 
d="M267 -37q-134 0 -212 43q-78 44 -78 104t89 109q80 -176 245 -176q74 0 118 44t44 116q0 178 -266 162l12 61l47 18q226 84 228 178q0 44 -32 70t-88 25q-56 0 -106 -27q-51 -27 -121 -94l-49 47q88 100 164 139t175 39t159 -42q60 -43 59 -111q0 -68 -60 -115t-177 -104
v-7q106 -10 162 -63t57 -123q0 -125 -118 -209t-252 -84z" />
    <glyph glyph-name="four.den" horiz-adv-x="806" 
d="M141 289h250l60 299zM336 0l37 188h-385l8 52l588 567l61 -6l-104 -512h188l-16 -101h-191l-35 -188h-151z" />
    <glyph glyph-name="five.den" horiz-adv-x="784" 
d="M215 -37q-94 0 -159 35q-64 34 -64 100t82 99q76 -154 215 -154q92 0 149 49q58 49 56 126t-56 111q-54 33 -158 33q-102 0 -176 -61h-28l123 496h471l-25 -131h-395l-53 -209q75 43 179 43t182 -54t79 -165q0 -147 -130 -233t-292 -85z" />
    <glyph glyph-name="six.den" horiz-adv-x="866" 
d="M385 35q76 1 123 65t47 157t-38 139t-103 46q-106 0 -178 -86q-12 -55 -12 -138t42 -133q43 -50 119 -50zM376 -37q-152 0 -238 84q-87 84 -87 229q0 223 197 379t489 187l8 -70q-397 -84 -485 -334q84 84 202 84t193 -63q74 -63 74 -180t-100 -217q-101 -99 -253 -99z
" />
    <glyph glyph-name="seven.den" horiz-adv-x="718" 
d="M23 0l518 659h-475l26 138h613l-7 -29l-512 -768h-163z" />
    <glyph glyph-name="eight.den" horiz-adv-x="815" 
d="M563 629q0 125 -131 125q-63 0 -108 -34t-45 -87q0 -80 131 -156l24 -14q129 55 129 166zM330 33q88 0 137 35t49 92q0 72 -139 159l-66 41q-154 -57 -153 -165q0 -66 42 -114t130 -48zM662 211q0 -102 -98 -175t-240 -73q-144 0 -230 55t-86 146q0 147 254 231
q-123 80 -123 199q0 90 83 159t214 69t203 -56q72 -55 72 -123q0 -137 -226 -215q93 -57 135 -105t42 -112z" />
    <glyph glyph-name="nine.den" horiz-adv-x="866" 
d="M573 566q-1 84 -43 134t-118 50t-123 -65t-47 -165q0 -178 147 -178q100 0 172 86q12 55 12 138zM418 821q150 0 239 -86q88 -86 88 -231q0 -215 -191 -373t-499 -188l-14 69q391 80 500 334q-89 -84 -207 -84t-192 64t-74 181q0 118 100 216t250 98z" />
    <glyph glyph-name="zero.sub" horiz-adv-x="976" 
d="M633 231q0 250 -164 250q-127 0 -203 -145t-76 -316q0 -247 164 -249q121 -2 200 142t79 318zM342 -303q-150 0 -241 100t-91 242q0 188 130 352t339 164q150 0 242 -100t92 -261t-121 -323q-56 -76 -150 -125t-200 -49z" />
    <glyph glyph-name="one.sub" horiz-adv-x="696" 
d="M-70 -266l15 67l196 33l109 547h-211l6 70l377 84h12l-137 -703l176 -31l-14 -67h-529z" />
    <glyph glyph-name="two.sub" horiz-adv-x="757" 
d="M438 283q0 69 -39 109t-108 40q-96 0 -211 -119l-49 49q47 60 83 96t98 66t150 31q88 0 160 -60q72 -61 72 -159t-70 -181t-288 -229l-99 -65h436l-24 -127h-631l10 67l119 84q213 150 302 239t89 159z" />
    <glyph glyph-name="three.sub" horiz-adv-x="753" 
d="M224 -303q-134 0 -212 43t-78 103t89 110q80 -176 245 -176q74 0 118 44t44 116q0 178 -266 161l12 62l47 18q225 84 227 177q0 44 -31 70t-87 26t-107 -27t-121 -94l-49 47q88 100 164 139t175 39q98 0 158 -42t60 -111q0 -70 -60 -116t-177 -104v-6q107 -10 163 -63
t56 -123q0 -125 -118 -209t-252 -84z" />
    <glyph glyph-name="four.sub" horiz-adv-x="806" 
d="M98 23h250l60 299zM293 -266l37 188h-385l8 51l588 568l61 -6l-104 -512h188l-16 -101h-191l-35 -188h-151z" />
    <glyph glyph-name="five.sub" horiz-adv-x="784" 
d="M172 -303q-94 0 -159 35q-65 34 -65 100t83 98q76 -154 215 -153q92 0 149 49t55 126q-3 144 -196 144q-119 0 -193 -61h-28l123 495h471l-25 -131h-395l-53 -209q76 43 180 43t182 -54t78 -165q0 -147 -130 -232t-292 -85z" />
    <glyph glyph-name="six.sub" horiz-adv-x="866" 
d="M342 -231q76 1 123 65t47 157t-38 139t-103 46q-106 0 -178 -86q-13 -55 -13 -138t43 -133t119 -50zM686 12q0 -118 -100 -216q-100 -99 -252 -99t-239 84t-87 229q0 223 197 379t489 186l8 -69q-397 -84 -485 -334q85 84 203 84t192 -63t74 -181z" />
    <glyph glyph-name="seven.sub" horiz-adv-x="718" 
d="M-20 -266l518 659h-475l26 137h613l-7 -28l-512 -768h-163z" />
    <glyph glyph-name="eight.sub" horiz-adv-x="815" 
d="M520 362q0 125 -131 125q-63 1 -108 -33t-45 -87q0 -80 131 -156l24 -14q129 55 129 165zM287 -233q88 1 137 35t49 99t-139 152l-66 41q-154 -57 -153 -166q0 -66 42 -114t130 -47zM280 -303q-144 0 -229 55q-86 55 -86 146q0 147 254 231q-123 80 -123 199q0 90 83 158
t214 69q131 0 203 -55t72 -123q0 -137 -226 -215q92 -58 134 -106t42 -111q0 -102 -97 -175t-241 -73z" />
    <glyph glyph-name="nine.sub" horiz-adv-x="866" 
d="M530 300q0 83 -42 133t-119 50q-76 -1 -123 -65t-47 -164q0 -178 147 -178q100 0 172 86q12 55 12 138zM376 555q150 0 238 -86t88 -231q0 -215 -191 -373t-499 -189l-14 70q391 80 500 334q-88 -84 -206 -84t-194 63q-74 63 -74 181t101 217q101 98 251 98z" />
    <glyph glyph-name="plus.sub" horiz-adv-x="905" 
d="M244 -219l59 313h-309l22 111h310l59 313h119l-60 -313h310l-23 -111h-309l-60 -313h-118z" />
    <glyph glyph-name="minus.sub" horiz-adv-x="905" 
d="M731 94h-737l22 111h738z" />
    <glyph glyph-name="zero.sup" horiz-adv-x="976" 
d="M801 1133q0 250 -164 249q-127 0 -203 -145t-76 -315q0 -248 164 -250q121 -2 200 142t79 319zM510 598q-150 0 -241 100t-91 242q0 188 130 352t339 164q150 0 242 -100t92 -261t-121 -323q-56 -76 -150 -125t-200 -49z" />
    <glyph glyph-name="one.sup" horiz-adv-x="696" 
d="M98 635l15 67l196 33l109 547h-211l6 70l377 84h12l-137 -703l176 -31l-14 -67h-529z" />
    <glyph glyph-name="two.sup" horiz-adv-x="757" 
d="M606 1184q0 70 -39 110t-108 39q-96 0 -211 -119l-49 50q47 59 83 95q36 37 98 67t150 30t160 -60t72 -158t-70 -182q-70 -83 -289 -229l-98 -65h436l-24 -127h-631l10 67l119 84q213 150 302 239t89 159z" />
    <glyph glyph-name="three.sup" horiz-adv-x="753" 
d="M392 598q-134 0 -212 43t-78 103t88 110q80 -176 246 -176q74 0 118 44t44 116q0 178 -266 161l12 62l47 18q227 83 227 177q0 44 -32 70t-86 26q-56 0 -107 -27t-121 -94l-49 47q88 100 164 139t175 39q98 0 158 -42t60 -111t-60 -115t-177 -105v-6q107 -10 163 -63
t56 -123q0 -125 -118 -209t-252 -84z" />
    <glyph glyph-name="four.sup" horiz-adv-x="806" 
d="M266 924h250l59 299zM461 635l37 188h-385l8 51l588 568l61 -6l-104 -512h188l-16 -101h-191l-35 -188h-151z" />
    <glyph glyph-name="five.sup" horiz-adv-x="784" 
d="M340 598q-94 0 -159 35t-65 101t83 97q76 -154 215 -153q92 0 149 49t55 126q-4 146 -196 144q-119 0 -193 -61h-28l123 496h471l-25 -132h-395l-53 -208q76 43 180 43q104 -1 182 -55t78 -165q0 -147 -130 -232t-292 -85z" />
    <glyph glyph-name="six.sup" horiz-adv-x="866" 
d="M510 670q76 0 123 64t47 158q0 93 -38 139t-103 46q-106 0 -179 -86q-12 -55 -12 -138t43 -133t119 -50zM502 598q-152 0 -239 84t-87 229q0 223 197 379t489 187l8 -70q-397 -84 -485 -334q85 84 203 84t192 -63t74 -180t-100 -217q-100 -99 -252 -99z" />
    <glyph glyph-name="seven.sup" horiz-adv-x="718" 
d="M147 635l519 659h-476l27 138h612l-6 -29l-512 -768h-164z" />
    <glyph glyph-name="eight.sup" horiz-adv-x="815" 
d="M688 1264q0 125 -131 125q-63 0 -108 -34t-46 -87q0 -80 132 -156l24 -14q129 55 129 166zM455 668q88 0 137 34t49 100q0 65 -139 152l-66 41q-154 -57 -153 -166q0 -65 42 -113t130 -48zM448 598q-144 0 -229 55q-86 55 -86 146q0 147 254 231q-123 80 -123 199
q0 90 83 159q83 68 214 68t203 -55t72 -123q0 -137 -226 -215q92 -57 134 -105t42 -112q0 -102 -97 -175t-241 -73z" />
    <glyph glyph-name="nine.sup" horiz-adv-x="866" 
d="M698 1201q0 83 -42 133t-119 50q-76 0 -123 -64t-47 -165q0 -178 147 -178q100 0 172 86q12 55 12 138zM544 1456q150 0 238 -86t88 -231q0 -215 -191 -373t-499 -188l-14 69q391 80 500 334q-88 -84 -207 -84q-119 -1 -193 63t-74 182t101 216t251 98z" />
    <glyph glyph-name="plus.sup" horiz-adv-x="905" 
d="M412 682l59 313h-309l22 111h310l59 313h119l-60 -313h310l-23 -111h-309l-60 -313h-118z" />
    <glyph glyph-name="minus.sup" horiz-adv-x="905" 
d="M899 995h-737l22 111h738z" />
    <glyph glyph-name="a.ord" horiz-adv-x="929" 
d="M328 631q72 0 198 166t162 282l23 74q-53 59 -111 59q-96 0 -210 -170t-114 -335q1 -76 52 -76zM646 504q-125 0 -71 182l48 150h-7q-10 -12 -50 -72q-68 -102 -148 -185t-172 -81q-63 0 -100 43q-36 43 -35 108q-2 109 49 225q100 225 305 349q96 57 172 57t125 -29
l14 52h111l-187 -670l7 -2q104 31 172 147l34 -14q-37 -96 -121 -178q-86 -82 -146 -82z" />
    <glyph glyph-name="b.ord" horiz-adv-x="882" 
d="M395 555q106 0 205 177q98 177 98 347q0 92 -71 92q-88 0 -192 -154q-103 -155 -138 -288l-21 -80q10 -37 42 -65t77 -29zM377 498q-131 0 -236 106l-16 19l233 927l-98 39l12 35l263 53l-177 -676h9q66 119 157 206q92 87 174 87q164 0 164 -200t-147 -399
q-148 -197 -338 -197z" />
    <glyph glyph-name="c.ord" horiz-adv-x="729" 
d="M512 1204q-80 0 -148 -150t-69 -292q0 -142 106 -141q51 0 127 51t127 123l31 -23q-45 -88 -148 -179q-102 -91 -198 -91t-153 65q-56 65 -56 181t68 243q67 127 193 215t202 88t124 -25q46 -26 46 -60q0 -33 -22 -71t-31 -42q-133 108 -199 108z" />
    <glyph glyph-name="d.ord" horiz-adv-x="962" 
d="M586 1237q-72 0 -143 -86t-111 -201q-40 -114 -41 -218q0 -104 59 -103q72 0 193 167q120 167 153 302l13 49q-19 37 -55 63t-68 27zM602 1294q68 0 135 -41l78 297l-98 39l10 35l258 53l-264 -1044l6 -2q102 31 174 147l35 -14q-35 -92 -123 -176t-151 -84
q-121 0 -70 182l39 137h-4q-5 -8 -61 -88t-87 -117q-31 -36 -90 -78t-123 -42t-106 48t-41 142q0 209 147 408q148 198 336 198z" />
    <glyph glyph-name="e.ord" horiz-adv-x="714" 
d="M553 1229q-67 0 -145 -90t-113 -213q103 16 201 96t98 160q0 47 -41 47zM328 502q-102 0 -153 66q-50 67 -50 165q0 287 242 467q119 94 231 94q139 0 139 -114t-132 -196q-132 -83 -320 -107q-6 -37 -6 -78q0 -180 112 -181q53 0 111 40t94 90l35 -23q-35 -75 -118 -149
t-185 -74z" />
    <glyph glyph-name="f.ord" horiz-adv-x="561" 
d="M938 1578q0 -40 -59 -105q-96 113 -190 113t-166 -156q-32 -70 -56 -173h219l-18 -75h-217l-99 -541q-67 -348 -264 -444q-45 -23 -85 -23t-71 28q-30 28 -30 76t51 80q27 -33 41 -49q39 -45 82 -47q55 0 92 197q4 18 6 28l129 682q0 8 2 13h-141l10 75h152
q59 185 192 303t273 117q59 1 103 -29t44 -70z" />
    <glyph glyph-name="g.ord" horiz-adv-x="749" 
d="M115 334q-1 -42 65 -69t170 -29t157 24q54 26 54 64q1 20 -25 38t-102 52l-102 43q-119 -29 -168 -55t-49 -68zM496 1237q-78 2 -144 -116q-66 -119 -66 -231t72 -112q78 -2 146 117t67 238q0 45 -19 75t-56 29zM156 605q0 75 110 128v8q-57 25 -89 77t-32 118
q-1 136 99 246t266 110q41 0 123 -18l211 10l-23 -117l-151 39v-4q41 -68 41 -123q-1 -133 -107 -245t-252 -111q-16 0 -24 2q-45 -25 -45 -47t11 -32t42 -21l221 -97q82 -36 108 -62t27 -71q0 -96 -127 -164t-291 -63q-322 6 -321 139q0 66 75 103t240 73v2
q-112 45 -112 120z" />
    <glyph glyph-name="h.ord" horiz-adv-x="925" 
d="M756 1294q121 0 78 -176l-129 -485l6 -2q98 29 174 147l33 -14q-33 -92 -121 -177q-89 -85 -149 -85t-82 42t1 126l121 434q16 61 -29 61q-90 -1 -223 -203t-168 -364l-14 -66l-133 -32l-23 20l260 1030l-98 39l10 35l262 53l-188 -739h6q104 158 202 257t204 99z" />
    <glyph glyph-name="i.ord" horiz-adv-x="526" 
d="M348 1579q0 41 27 69t65 28t66 -28q26 -28 26 -69t-26 -69t-66 -28t-66 28t-26 69zM242 502q-117 0 -76 168l123 479l-139 31l2 14q29 35 93 69t111 33q109 0 68 -170l-121 -493l4 -2q104 31 176 147l33 -14q-33 -92 -122 -177t-152 -85z" />
    <glyph glyph-name="j.ord" horiz-adv-x="479" 
d="M369 1579q0 39 27 68q28 29 66 29t66 -30q28 -28 27 -67q0 -39 -28 -68q-27 -29 -65 -29t-66 29q-27 29 -27 68zM369 1296q123 0 77 -180l-118 -479q-50 -205 -146 -334t-211 -129q-39 0 -71 26t-31 78q0 52 51 80q6 -8 18 -19t15 -17q4 -6 26 -29q29 -31 63 -31t56 58
t58 198l155 631l-141 31l2 14q98 102 197 102z" />
    <glyph glyph-name="k.ord" horiz-adv-x="837" 
d="M649 1171q-72 1 -165 -109t-158 -253q174 49 276 138t103 165q-1 59 -56 59zM740 459q-42 0 -80 19q-38 20 -52 32t-73 70l-218 208q-35 -82 -47 -155l-20 -101l-129 -32l-23 20l260 1030l-98 39l10 35l260 53l-174 -698h9q90 151 172 233t176 82q61 0 95 -37t36 -94
q0 -109 -109 -199t-270 -151l342 -324v-10q-25 -20 -67 -20z" />
    <glyph glyph-name="l.ord" horiz-adv-x="487" 
d="M209 502q-117 0 -76 168l225 880l-98 39l12 35l256 53l-258 -1044l4 -2q104 31 177 147l32 -14q-33 -92 -122 -177t-152 -85z" />
    <glyph glyph-name="m.ord" horiz-adv-x="1380" 
d="M348 1296q129 0 72 -196l-45 -156h6q186 265 290 322q52 29 105 28q129 0 74 -194l-45 -156h6q183 266 291 322q55 29 110 28q119 0 78 -176l-131 -485l6 -2q96 29 174 147l35 -14q-33 -92 -122 -177t-150 -85q-123 0 -80 168l123 434q16 61 -29 61q-63 0 -148 -98
t-152 -229t-91 -238l-16 -68l-134 -32l-22 20l162 584q16 61 -29 61q-96 1 -223 -197t-168 -370l-16 -66l-134 -32l-22 20l172 633l-139 27l2 14q98 102 190 102z" />
    <glyph glyph-name="n.ord" horiz-adv-x="948" 
d="M348 1296q127 0 72 -196l-45 -156h6q149 211 233 282q84 70 168 68q123 0 78 -176l-129 -485l4 -2q98 29 176 147l33 -14q-33 -92 -122 -177t-150 -85q-121 0 -78 168l121 434q16 61 -29 61q-94 -1 -223 -199t-168 -368l-16 -66l-134 -32l-22 20l172 633l-139 27l2 14
q98 102 190 102z" />
    <glyph glyph-name="o.ord" horiz-adv-x="837" 
d="M575 1294q119 0 179 -80t61 -196q0 -190 -126 -353t-322 -163q-117 0 -179 81q-61 81 -61 205q1 186 125 346t323 160zM285 721q0 -166 88 -166q102 0 191 172t89 343t-94 171q-102 0 -188 -177t-86 -343z" />
    <glyph glyph-name="p.ord" horiz-adv-x="872" 
d="M414 555q102 0 193 165q91 164 91 324t-157 160q-41 0 -95 -16l-139 -559q44 -74 107 -74zM627 1294q236 0 235 -219q0 -201 -146 -388t-323 -187q-57 0 -108 35l-74 -293h219l-16 -68h-445l6 41q38 8 95 37l213 858q-47 -25 -162 -94l-21 37q100 78 201 135l41 164h113
l-25 -103q115 45 197 45z" />
    <glyph glyph-name="q.ord" horiz-adv-x="851" 
d="M334 629q72 0 192 167t154 302l12 49q-20 37 -55 63t-68 27q-73 0 -143 -86t-111 -201t-41 -218t60 -103zM102 688q0 209 148 408t336 198q78 0 164 -59l12 59h110l-264 -1052h154l-12 -68h-424l6 43q69 10 139 43l143 563h-4q-168 -251 -264 -303q-44 -22 -102 -22
t-100 48t-42 142z" />
    <glyph glyph-name="r.ord" horiz-adv-x="720" 
d="M334 1294q115 0 63 -182l-86 -281h23q174 373 266 435q43 28 86 28q92 -1 90 -84q0 -90 -86 -163h-59q23 35 17 69t-32 39q-90 -49 -235 -330q-59 -125 -111 -293l-127 -32l-24 20l49 187l108 446l-131 25l2 16q92 100 187 100z" />
    <glyph glyph-name="s.ord" horiz-adv-x="614" 
d="M549 752q0 -90 -92 -172t-203 -82q-72 0 -125 38t-53 80t35 105h4q166 -127 235 -127q72 0 72 76q0 42 -53 104l-82 100q-86 102 -86 166q0 98 101 178t190 80q57 0 101 -28t44 -73q0 -46 -35 -97l-6 -2q-133 100 -201 100q-31 0 -51 -17t-20 -54t49 -103l92 -111
q49 -63 67 -93t17 -68z" />
    <glyph glyph-name="t.ord" horiz-adv-x="608" 
d="M209 502q-45 0 -69 41t-9 104l139 535h-129l11 75h141l76 195h110l-49 -195h213l-10 -75h-217l-133 -537l6 -4q61 25 131 80t104 104l33 -14q-45 -97 -160 -203t-188 -106z" />
    <glyph glyph-name="u.ord" horiz-adv-x="935" 
d="M326 629q78 -1 218 201t163 315l30 117l131 34l23 -22l-164 -641l4 -2q104 31 176 147l35 -14q-35 -92 -123 -177t-151 -85q-115 0 -72 174l53 201h-4q-25 -29 -85 -111t-99 -129t-104 -91t-126 -44q-113 0 -69 184l127 467l-139 27v14q29 35 92 69t110 33q113 0 70 -176
l-115 -442q-14 -49 19 -49z" />
    <glyph glyph-name="v.ord" horiz-adv-x="780" 
d="M674 1294q123 0 123 -133q-1 -78 -51 -173t-95 -149q-147 -176 -184 -210l-119 -129h-14l-62 26l-30 619q-29 33 -76 33t-82 -11l2 27q98 100 178 100q111 1 117 -149l22 -500q274 270 277 432q0 102 -113 103q-31 0 -80 -13l2 27q106 100 185 100z" />
    <glyph glyph-name="w.ord" horiz-adv-x="1134" 
d="M1012 1294q133 0 137 -139q2 -115 -84 -241t-240 -289l-116 -125h-15l-55 24l-4 314h-4q-50 -56 -113 -126q-63 -71 -104 -114l-84 -98h-15l-59 22l-16 625q-27 31 -74 31t-82 -11l2 29q96 98 178 98q115 0 117 -149l10 -486h8q126 130 176 197q50 66 52 72l-2 211
q-29 39 -85 39t-89 -11v29q104 98 180 98q125 0 127 -147l10 -488h8q121 105 189 221t67 203q0 96 -112 97q-35 0 -80 -13l2 29q104 98 170 98z" />
    <glyph glyph-name="x.ord" horiz-adv-x="886" 
d="M575 504q-31 0 -46 17t-27 59l-64 231l-73 -106q-82 -119 -127 -163q-46 -44 -90 -44t-70 26t-25 72q0 47 29 84l61 -21q61 -29 102 -2q40 27 138 166l37 58l-51 194q-19 80 -49 80t-60 -44t-45 -132h-41q2 135 60 224t137 89q55 0 83 -35t48 -118l37 -146l108 158
q96 143 180 143q78 -4 78 -84q0 -47 -31 -94t-67 -72h-35q12 35 8 69t-28 34q-29 0 -105 -105q-45 -51 -90 -122l72 -289h6q104 33 178 147l33 -14q-34 -92 -122 -176t-149 -84z" />
    <glyph glyph-name="y.ord" horiz-adv-x="811" 
d="M312 1292q83 0 133 -106q49 -106 51 -313t-43 -359h6q227 303 258 483q-2 131 -62 263q39 26 80 26t69 -26t27 -93q0 -133 -90 -321t-225 -365q-152 -175 -238 -241t-146 -66q-58 0 -88 27t-30 69t27 68q27 27 70 27q63 0 94 -84h6q143 152 143 514q0 168 -26 264
q-27 96 -68 96q-74 0 -106 -176h-41q4 125 60 219t139 94z" />
    <glyph glyph-name="z.ord" horiz-adv-x="798" 
d="M582 494q-58 0 -154 38l-217 86l-96 -110l-62 49l547 526l-184 66q-121 43 -144 0q-27 -45 78 -113q-32 -45 -54 -64q-22 -20 -52 -20t-49 24q-20 24 -21 66q0 72 77 164t165 92q41 0 127 -34l170 -70l92 102l61 -49l-542 -522l206 -74q82 -27 120 -13t75 73l35 -13
q-35 -102 -77 -153q-43 -51 -101 -51z" />
    <glyph glyph-name="egrave.ord" horiz-adv-x="714" 
d="M428 1714h125l65 -319h-71l-119 291v28zM553 1229q-67 0 -145 -90t-113 -213q103 16 201 96t98 160q0 47 -41 47zM328 502q-102 0 -153 66q-50 67 -50 165q0 287 242 467q119 94 231 94q139 0 139 -114t-132 -196q-132 -83 -320 -107q-6 -37 -6 -78q0 -180 112 -181
q53 0 111 40t94 90l35 -23q-35 -75 -118 -149t-185 -74z" />
    <glyph glyph-name="uacute.ord" horiz-adv-x="935" 
d="M326 629q78 -1 218 201t163 315l30 117l131 34l23 -22l-164 -641l4 -2q104 31 176 147l35 -14q-35 -92 -123 -177t-151 -85q-115 0 -72 174l53 201h-4q-25 -29 -85 -111t-99 -129t-104 -91t-126 -44q-113 0 -69 184l127 467l-139 27v14q29 35 92 69t110 33q113 0 70 -176
l-115 -442q-14 -49 19 -49zM836 1714v-28l-203 -291h-76l156 319h123z" />
    <glyph glyph-name="A.alt" horiz-adv-x="1380" 
d="M889 1171l-357 -565h373l-14 565h-2zM-43 0l12 66l119 47l830 1247l69 10l80 21l35 -1285l127 -40l-12 -66h-488l14 68l175 47l-11 368h-452l-226 -360l183 -55l-15 -68h-440z" />
    <glyph glyph-name="M.alt" horiz-adv-x="1849" 
d="M-78 0l15 68l169 47l367 1126l-151 53l12 66h409l148 -987l584 987h358l-12 -66l-176 -53l-64 -1126l156 -49l-13 -66h-526l14 68l181 47l69 1046l-575 -983l-60 -108h-73l-13 108l-174 1034h-4l-346 -1089l201 -55l-15 -68h-481z" />
    <glyph glyph-name="V.alt" horiz-adv-x="1271" 
d="M324 -25l-56 1272l-116 47l12 66h483l-12 -66l-176 -53l26 -1012h4l685 1012l-213 49l14 70h430l-12 -66l-88 -43l-899 -1276h-82z" />
    <glyph glyph-name="W.alt" horiz-adv-x="1845" 
d="M965 -14l10 960l-641 -960h-111l47 1261l-118 47l14 66h485l-14 -66l-180 -53l-47 -997l567 860l2 137l-156 53l15 66h514l-15 -70l-174 -49l-18 -991l596 989l-209 51l12 70h434l-14 -66l-90 -43l-797 -1265h-112z" />
    <glyph glyph-name="h.alt" horiz-adv-x="1019" 
d="M473 -20q-31 0 -53 19t-21 52q0 33 31 76q111 -55 162 -41q35 45 111 286q77 241 77 392q0 66 -72 66t-174 -127t-180 -293t-106 -301l-19 -95l-153 -43l-27 27l334 1380l-121 49l14 46l308 55l-242 -985h8q258 449 477 448q139 0 139 -184t-71 -377q-73 -194 -189 -322
t-233 -128z" />
    <glyph glyph-name="v.alt" horiz-adv-x="1069" 
d="M242 813q-57 0 -62 -41q0 -39 76 -104q-53 -90 -115 -90q-35 0 -57 24t-21 62q3 90 105 194t211 105h274l-2 -25l-96 -176q-143 -264 -149 -436t131 -172q113 0 213 130t129 279q16 221 -31 385q47 27 96 27q94 0 94 -137t-82 -337t-222 -362t-277 -162q-111 -1 -171 59
t-58 136q5 140 65 266q60 127 117 220q57 92 65 106l29 49h-262z" />
    <glyph glyph-name="w.alt" horiz-adv-x="1456" 
d="M477 152q61 0 135 52t123 130q31 240 113 594q55 47 101 47q47 0 61 -38t-4 -91l-181 -486q27 -211 168 -210q121 0 200 118t93 293q-27 217 -94 371q52 43 108 43t80 -50t25 -151q0 -100 -28 -218t-79 -251t-140 -228q-90 -95 -198 -95t-159 59t-64 182
q-76 -102 -176 -174t-190 -72q-91 -1 -145 59q-103 112 11 341q48 98 137 227t107 160l29 49h-256q-59 0 -59 -40t77 -105q-49 -90 -110 -90q-35 0 -59 24t-23 62q0 90 98 194t207 105h289l-2 -25l-105 -176q-67 -113 -95 -160t-64 -133q-76 -179 -20 -271q28 -46 89 -46z
" />
    <glyph glyph-name="Aacute.alt" horiz-adv-x="1380" 
d="M1325 1792v-41l-276 -244h-107l193 285h190zM889 1171l-357 -565h373l-14 565h-2zM-43 0l12 66l119 47l830 1247l69 10l80 21l35 -1285l127 -40l-12 -66h-488l14 68l175 47l-11 368h-452l-226 -360l183 -55l-15 -68h-440z" />
    <glyph glyph-name="Abreve.alt" horiz-adv-x="1380" 
d="M1014 1499q-96 0 -151 72q-54 72 -54 201h84q27 -148 143 -148t187 148h77q-77 -273 -286 -273zM889 1171l-357 -565h373l-14 565h-2zM-43 0l12 66l119 47l830 1247l69 10l80 21l35 -1285l127 -40l-12 -66h-488l14 68l175 47l-11 368h-452l-226 -360l183 -55l-15 -68
h-440z" />
    <glyph glyph-name="Acircumflex.alt" horiz-adv-x="1380" 
d="M854 1507h-109l238 265h156l133 -265h-94l-134 162zM889 1171l-357 -565h373l-14 565h-2zM-43 0l12 66l119 47l830 1247l69 10l80 21l35 -1285l127 -40l-12 -66h-488l14 68l175 47l-11 368h-452l-226 -360l183 -55l-15 -68h-440z" />
    <glyph glyph-name="Adieresis.alt" horiz-adv-x="1380" 
d="M1272 1559q-47 -1 -82 33t-35 81t35 82t82 35t82 -35t35 -82t-35 -81t-82 -33zM819 1559q-47 -1 -81 33t-33 81q0 47 33 82q34 35 81 35t82 -35t35 -82t-35 -81t-82 -33zM889 1171l-357 -565h373l-14 565h-2zM-43 0l12 66l119 47l830 1247l69 10l80 21l35 -1285l127 -40
l-12 -66h-488l14 68l175 47l-11 368h-452l-226 -360l183 -55l-15 -68h-440z" />
    <glyph glyph-name="Agrave.alt" horiz-adv-x="1380" 
d="M782 1792h191l100 -285h-106l-185 244v41zM889 1171l-357 -565h373l-14 565h-2zM-43 0l12 66l119 47l830 1247l69 10l80 21l35 -1285l127 -40l-12 -66h-488l14 68l175 47l-11 368h-452l-226 -360l183 -55l-15 -68h-440z" />
    <glyph glyph-name="Amacron.alt" horiz-adv-x="1380" 
d="M743 1602l27 122h578l-27 -122h-578zM889 1171l-357 -565h373l-14 565h-2zM-43 0l12 66l119 47l830 1247l69 10l80 21l35 -1285l127 -40l-12 -66h-488l14 68l175 47l-11 368h-452l-226 -360l183 -55l-15 -68h-440z" />
    <glyph glyph-name="Aogonek.alt" horiz-adv-x="1380" 
d="M889 1171l-357 -565h371l-12 565h-2zM782 -391q84 0 187 94l28 -35q-51 -59 -87 -95t-102 -70t-132 -33q-150 0 -150 147q0 88 94 188t298 265l-11 413h-452l-226 -360l183 -55l-15 -68h-440l12 66l119 47l830 1247l69 10l80 21l35 -1285l127 -40l-12 -66h-261
q-154 -110 -206 -176t-52 -140t84 -75z" />
    <glyph glyph-name="Aring.alt" horiz-adv-x="1380" 
d="M901 1673q0 -65 42 -107q41 -42 103 -42t104 42t42 108t-42 107q-42 42 -103 42t-103 -42t-43 -108zM807 1672q0 99 70 167t171 68t170 -67q68 -67 68 -166t-70 -167q-70 -67 -170 -67q-101 0 -170 66t-69 166zM889 1171l-357 -565h373l-14 565h-2zM-43 0l12 66l119 47
l830 1247l69 10l80 21l35 -1285l127 -40l-12 -66h-488l14 68l175 47l-11 368h-452l-226 -360l183 -55l-15 -68h-440z" />
    <glyph glyph-name="Aringacute.alt" horiz-adv-x="1380" 
d="M1423 2247v-41l-276 -244h-107l193 285h190zM901 1673q0 -65 42 -107q41 -42 103 -42t104 42t42 108t-42 107q-42 42 -103 42t-103 -42t-43 -108zM807 1672q0 99 70 167t171 68t170 -67q68 -67 68 -166t-70 -167q-70 -67 -170 -67q-101 0 -170 66t-69 166zM889 1171
l-357 -565h373l-14 565h-2zM-43 0l12 66l119 47l830 1247l69 10l80 21l35 -1285l127 -40l-12 -66h-488l14 68l175 47l-11 368h-452l-226 -360l183 -55l-15 -68h-440z" />
    <glyph glyph-name="Atilde.alt" horiz-adv-x="1380" 
d="M1024 1575l-51 24q-129 63 -169 11q-17 -23 -46 -86l-60 26l11 29q35 100 88 146t112 45t138 -37l47 -23q119 -60 163 -33q27 16 41 39t37 74l58 -25l-13 -34q-57 -162 -145 -195t-211 39zM889 1171l-357 -565h373l-14 565h-2zM-43 0l12 66l119 47l830 1247l69 10l80 21
l35 -1285l127 -40l-12 -66h-488l14 68l175 47l-11 368h-452l-226 -360l183 -55l-15 -68h-440z" />
    <glyph glyph-name="Wacute.alt" horiz-adv-x="1845" 
d="M1440 1792v-41l-277 -244h-106l192 285h191zM965 -14l10 960l-641 -960h-111l47 1261l-118 47l14 66h485l-14 -66l-180 -53l-47 -997l567 860l2 137l-156 53l15 66h514l-15 -70l-174 -49l-18 -991l596 989l-209 51l12 70h434l-14 -66l-90 -43l-797 -1265h-112z" />
    <glyph glyph-name="Wcircumflex.alt" horiz-adv-x="1845" 
d="M969 1507h-109l238 265h155l133 -265h-94l-133 162zM965 -14l10 960l-641 -960h-111l47 1261l-118 47l14 66h485l-14 -66l-180 -53l-47 -997l567 860l2 137l-156 53l15 66h514l-15 -70l-174 -49l-18 -991l596 989l-209 51l12 70h434l-14 -66l-90 -43l-797 -1265h-112z
" />
    <glyph glyph-name="Wdieresis.alt" horiz-adv-x="1845" 
d="M1389 1559q-47 -1 -82 33t-35 81t35 82t82 35t81 -35t35 -82q-1 -47 -35 -81t-81 -33zM936 1559q-47 -1 -81 33t-34 81t34 82t81 35t82 -35t35 -82t-35 -81t-82 -33zM965 -14l10 960l-641 -960h-111l47 1261l-118 47l14 66h485l-14 -66l-180 -53l-47 -997l567 860l2 137
l-156 53l15 66h514l-15 -70l-174 -49l-18 -991l596 989l-209 51l12 70h434l-14 -66l-90 -43l-797 -1265h-112z" />
    <glyph glyph-name="Wgrave.alt" horiz-adv-x="1845" 
d="M897 1792h190l101 -285h-107l-184 244v41zM965 -14l10 960l-641 -960h-111l47 1261l-118 47l14 66h485l-14 -66l-180 -53l-47 -997l567 860l2 137l-156 53l15 66h514l-15 -70l-174 -49l-18 -991l596 989l-209 51l12 70h434l-14 -66l-90 -43l-797 -1265h-112z" />
    <glyph glyph-name="hbar.alt" horiz-adv-x="1019" 
d="M473 -20q-31 0 -53 19t-21 52q0 33 31 76q111 -55 162 -41q35 45 111 286q77 241 77 392q0 66 -72 66t-174 -127t-180 -293t-106 -301l-19 -95l-153 -43l-27 27l273 1128h-179l23 97h180l37 155l-121 49l14 46l308 55l-76 -305h364l-22 -97h-365l-143 -583h8
q258 449 477 448q139 0 139 -184t-71 -377q-73 -194 -189 -322t-233 -128z" />
    <glyph glyph-name="hcircumflex.alt" horiz-adv-x="1019" 
d="M641 1671h-109l238 264h156l133 -264h-94l-134 162zM473 -20q-31 0 -53 19t-21 52q0 33 31 76q111 -55 162 -41q35 45 111 286q77 241 77 392q0 66 -72 66t-174 -127t-180 -293t-106 -301l-19 -95l-153 -43l-27 27l334 1380l-121 49l14 46l308 55l-242 -985h8
q258 449 477 448q139 0 139 -184t-71 -377q-73 -194 -189 -322t-233 -128z" />
    </font>
</defs>
</svg>
