<?xml version="1.0" standalone="no"?>
<!DOCTYPE svg PUBLIC "-//W3C//DTD SVG 1.1//EN" "http://www.w3.org/Graphics/SVG/1.1/DTD/svg11.dtd" >
<svg xmlns="http://www.w3.org/2000/svg">
<metadata>
Created by FontPrep 20130207 at Wed Nov 30 14:47:11 2016
 By Callum Flack
Copyright (c) 2015, Cadson Demak (info@cadsondemak.com)
</metadata>
<defs>
<font id="5968d2a85a78fe2a75ef8522939e7ebe" horiz-adv-x='1024' >
  <font-face 
    font-family="Maitree"
    font-weight="400"
    font-stretch="normal"
    units-per-em="2048"
    panose-1="0 0 5 0 0 0 0 0 0 0"
    ascent="1536"
    descent="-512"
    x-height="1001"
    cap-height="1423"
    bbox="-1243.04 -948 2271 2275"
    underline-thickness="102"
    underline-position="-102"
    unicode-range="U+000D-FB02"
  />
<missing-glyph horiz-adv-x="1228" 
d="M930 104v1254h-633v-1254h633zM193 1462h841v-1462h-841v1462z" />
    <glyph glyph-name="fi" unicode="fi" horiz-adv-x="1253" 
d="M770 41q0 55 72 55h65v807l-510 -10v-797l97 -22q55 -11 55 -49q0 -25 -25 -25h-385q-33 0 -33 41q0 55 72 55h66v797h-117q-35 0 -35 36q0 68 72 68h80v119q0 172 113.5 264.5t287.5 92.5q119 0 228.5 -39t160.5 -84v-176q0 -27 -30 -27q-41 0 -52 57l-18 96
q-100 70 -280 70q-98 0 -177.5 -63.5t-79.5 -182.5v-127h664v-901l96 -22q55 -11 55 -49q0 -25 -24 -25h-385q-33 0 -33 41z" />
    <glyph glyph-name="fl" unicode="fl" horiz-adv-x="1259" 
d="M760 41q0 55 71 55h66v1225q-109 49 -223 49t-195.5 -63.5t-81.5 -182.5v-127h252q27 0 27 -28q0 -51 -92 -60l-187 -16v-797l97 -22q31 -10 43 -20.5t12 -28.5q0 -25 -25 -25h-385q-33 0 -33 41q0 55 72 55h64v23h2v774h-117q-35 0 -35 36q0 68 72 68h80v119
q0 172 116.5 264.5t288.5 92.5q123 0 230.5 -37t171.5 -82v-1258l96 -22q33 -8 44 -18.5t11 -30.5q0 -25 -24 -25h-385q-33 0 -33 41z" />
    <glyph glyph-name="ru_lakkhangyaothai" unicode="&#xe24;&#xe45;" horiz-adv-x="1847" 
d="M475 163q0 50 -28.5 78.5t-73.5 28.5t-74 -28.5t-29 -78.5t29 -79t74 -29t73.5 29t28.5 79zM647 1145q201 0 324 -103q57 43 164.5 73t197.5 30q152 0 253.5 -82t101.5 -248v-1116q0 -20 -17.5 -33.5t-52.5 -13.5t-56.5 17.5t-21.5 47.5v1110q0 113 -62.5 166.5
t-147.5 53.5q-149 0 -300 -74q66 -92 66 -230v-1044q0 -20 -17.5 -33.5t-52.5 -13.5t-56.5 17.5t-21.5 47.5v1037q0 145 -86 220t-206 75q-206 0 -369 -127q-26 -22 0 -39l190 -150v-43l-131 -121q-20 -20 -26.5 -36.5t-6.5 -51.5v-119q0 -29 -6 -38q33 20 76 20
q82 0 133 -51t51 -130t-56 -130t-144 -51t-142.5 57t-54.5 145v275q0 49 11.5 76.5t41.5 56.5l123 113v8l-180 141q-31 25 -31 53.5t31 55.5q94 76 220 129t261 53z" />
    <glyph glyph-name="lu_lakkhangyaothai" unicode="&#xe26;&#xe45;" horiz-adv-x="1892" 
d="M348 158q0 47 -26.5 73.5t-68.5 26.5t-68.5 -26.5t-26.5 -73.5t26.5 -75t68.5 -28t68.5 28t26.5 75zM1001 -283v1031q0 150 -82.5 225.5t-232.5 75.5t-324 -119q-14 -12 -14 -20t14 -19l230 -172v-49l-105 -92q-23 -23 -29.5 -39.5t-6.5 -53.5v-311q0 -84 -53.5 -138
t-138.5 -54t-138 49t-53 125t49 124t125 48q39 0 67 -19q-4 8 -4 27v143q0 45 11.5 68.5t43.5 52.5l103 86v10l-217 162q-35 29 -35 56t31 53q230 178 465 178q193 0 313 -98q182 98 346 98t265.5 -82t101.5 -248v-1116q0 -20 -17.5 -33.5t-52.5 -13.5t-56.5 17.5
t-21.5 47.5v1110q0 113 -62.5 166.5t-170.5 53.5t-271 -70q68 -94 68 -236v-1042q0 -20 -17.5 -33.5t-52.5 -13.5t-56.5 17.5t-21.5 47.5z" />
    <glyph glyph-name=".notdef" horiz-adv-x="1228" 
d="M930 104v1254h-633v-1254h633zM193 1462h841v-1462h-841v1462z" />
    <glyph glyph-name=".null" horiz-adv-x="1024" 
 />
    <glyph glyph-name=".null" horiz-adv-x="1024" 
 />
    <glyph glyph-name="nonmarkingreturn" unicode="&#xd;" horiz-adv-x="589" 
 />
    <glyph glyph-name="space" unicode=" " horiz-adv-x="589" 
 />
    <glyph glyph-name="exclam" unicode="!" horiz-adv-x="643" 
d="M227 71q0 42 28 68.5t68 26.5t67.5 -25.5t27.5 -68.5t-28 -70t-68 -27t-67.5 27t-27.5 69zM229 1448h185l-41 -1118h-101z" />
    <glyph glyph-name="quotedbl" unicode="&#x22;" horiz-adv-x="681" 
d="M453 1448l151 -12l-119 -480h-108zM154 1448l151 -12l-117 -480h-110z" />
    <glyph glyph-name="numbersign" unicode="#" horiz-adv-x="1239" 
d="M717 451l63 337h-291l-63 -337h291zM57 340v111h230l63 337h-215v111h236l55 293h139l-55 -293h291l55 293h139l-55 -293h209v-111h-229l-64 -337h219v-111h-241l-64 -340h-137l63 340h-293l-63 -340h-137l63 340h-209z" />
    <glyph glyph-name="dollar" unicode="$" horiz-adv-x="1402" 
d="M150 358q0 31 38 31t54 -82l26 -131q124 -90 382 -90q124 0 224.5 55.5t100.5 177.5q0 80 -38 134.5t-118 98.5t-263 118t-291.5 168t-108.5 250t120.5 242.5t301.5 94.5v168h124v-170q104 -10 203 -47t166 -92v-237q0 -31 -27 -31t-42 18.5t-23 63.5l-27 129
q-123 90 -323 90q-133 0 -221.5 -53.5t-88.5 -163.5q0 -138 123 -200t285 -132q143 -57 278.5 -143.5t135.5 -290.5q0 -174 -130 -262t-335 -97v-161h-125v166q-272 28 -401 131v247z" />
    <glyph glyph-name="percent" unicode="%" horiz-adv-x="1634" 
d="M1397 313.5q0 114.5 -48.5 175t-122.5 60.5t-121.5 -59.5t-47.5 -175.5t47.5 -175t121.5 -59t122.5 59.5t48.5 174zM928 312q0 156 83 247.5t217 91.5t217 -91t83 -248t-83 -247t-218 -90t-217 90.5t-82 246.5zM578 1089.5q0 114.5 -49 175t-123 60.5t-121 -59.5
t-47 -175.5t47 -175t121 -59t123 59.5t49 174zM276 61l963 1366l121 -77l-967 -1364zM109 1089q0 157 82.5 247.5t216.5 90.5t217.5 -91.5t83.5 -247.5t-83 -246t-218.5 -90t-217 90t-81.5 247z" />
    <glyph glyph-name="ampersand" unicode="&#x26;" horiz-adv-x="1454" 
d="M246 358q0 -133 92 -205.5t214 -72.5q220 0 353 162l-432 422q-227 -104 -227 -306zM788 1092q0 100 -60 157.5t-156 57.5t-156 -52.5t-60 -138.5t49.5 -158.5t135.5 -148.5q247 119 247 283zM88 354q0 256 307 391q-104 104 -150 182.5t-46 176.5q0 137 105.5 220
t268.5 83q111 0 196 -42t131 -113.5t46 -161.5q0 -221 -323 -357l378 -373q79 122 99 334h-111q-35 0 -35 35q0 66 76 66h334q25 0 25 -27q0 -37 -50 -49l-133 -31q-31 -240 -133 -397l195 -191l110 -22q57 -12 58 -51q0 -27 -25 -27h-262l-170 168q-74 -88 -183.5 -140.5
t-241.5 -52.5t-237.5 46.5t-167 132.5t-61.5 200z" />
    <glyph glyph-name="quotesingle" unicode="'" horiz-adv-x="382" 
d="M154 1448l151 -12l-117 -480h-110z" />
    <glyph glyph-name="parenleft" unicode="(" horiz-adv-x="602" 
d="M102 716q0 464 250 871h148q-113 -217 -172.5 -414.5t-59.5 -456.5t59.5 -461t172.5 -417h-148q-250 414 -250 878z" />
    <glyph glyph-name="parenright" unicode=")" horiz-adv-x="602" 
d="M500 714q0 -465 -250 -876h-148q113 215 172.5 417t59.5 461t-59.5 456.5t-172.5 414.5h148q250 -408 250 -873z" />
    <glyph glyph-name="asterisk" unicode="*" horiz-adv-x="798" 
d="M367 1087l-230 -163l-69 120l266 111l-266 111l61 129l238 -174l-37 280h141l-37 -280l225 174l70 -127l-266 -113l268 -113l-74 -124l-227 169l37 -278h-137z" />
    <glyph glyph-name="plus" unicode="+" horiz-adv-x="1239" 
d="M541 616h-418v129h418v426h157v-426h418v-129h-418v-419h-157v419z" />
    <glyph glyph-name="comma" unicode="," horiz-adv-x="612" 
d="M178 174q0 55 60 55q16 0 24 -2l180 -39q-27 -111 -85 -235.5t-132 -212.5l-86 51q47 66 87 164t46 162l-67 22q-27 6 -27 35z" />
    <glyph glyph-name="hyphen" unicode="-" horiz-adv-x="657" 
d="M53 721h553v-131h-553v131z" />
    <glyph glyph-name="period" unicode="." horiz-adv-x="514" 
d="M150 83q0 46 31.5 76.5t75.5 30.5t76 -30.5t32 -76.5t-32 -77t-76 -31t-75.5 31t-31.5 77z" />
    <glyph glyph-name="slash" unicode="/" horiz-adv-x="749" 
d="M-55 -217l706 1741l144 -56l-709 -1740z" />
    <glyph glyph-name="zero" unicode="0" horiz-adv-x="1452" 
d="M1167 700.5q0 182.5 -53 321.5t-152.5 217t-235.5 78t-236.5 -78t-152.5 -217t-52 -321.5t52 -321.5t152.5 -216t236.5 -77t235.5 77t152.5 216t53 321.5zM119 700q0 211 72.5 376t210 258t325.5 93t325.5 -93t209 -257t71.5 -376t-71.5 -376.5t-209 -257t-325.5 -92.5
t-325.5 92.5t-210 257t-72.5 375.5z" />
    <glyph glyph-name="one" unicode="1" horiz-adv-x="890" 
d="M145 0q-34 0 -34 45q0 59 75 59h179v1190l-203 -61q-16 0 -27.5 11t-11.5 32q0 51 65 72l179 55h161v-1301l166 -20q68 -8 68 -51q0 -31 -25 -31h-592z" />
    <glyph glyph-name="two" unicode="2" horiz-adv-x="1193" 
d="M623 1423q188 0 301.5 -95t113.5 -277q0 -123 -76.5 -245t-228.5 -278l-405 -409v-8h737v-111h-932v143l490 500q119 119 182 217t63 212t-75 176.5t-177 62.5q-189 0 -325 -84l-29 -131q-18 -86 -56 -86t-38 30v242q209 141 455 141z" />
    <glyph glyph-name="three" unicode="3" horiz-adv-x="1198" 
d="M889 375q0 131 -89 211t-229 80q-44 0 -219 -25v113l156 20q145 18 237.5 91t92.5 198t-76 186.5t-180 61.5q-193 0 -328 -84l-27 -131q-18 -86 -56 -86t-38 30v242q98 66 219 103.5t240 37.5q176 0 294 -86t118 -256q0 -129 -79 -219t-218 -129q162 -23 255 -121
t93 -239q0 -188 -140.5 -290.5t-378.5 -102.5t-423 79v117q203 -86 396 -86t286.5 77t93.5 208z" />
    <glyph glyph-name="four" unicode="4" horiz-adv-x="1271" 
d="M791 442v820l-578 -820h578zM791 330h-713v127l670 946h206v-961h201v-112h-201v-330h-163v330z" />
    <glyph glyph-name="five" unicode="5" horiz-adv-x="1114" 
d="M476 90q173 0 273.5 80t100.5 242t-96.5 241.5t-233.5 79.5t-299 -39l-78 70l54 639h710v-111h-559l-39 -481q129 35 252 35q197 0 326 -110.5t129 -320.5t-143 -322.5t-365 -112.5t-410 77v117q205 -84 378 -84z" />
    <glyph glyph-name="six" unicode="6" horiz-adv-x="1198" 
d="M915 432q0 152 -78.5 225.5t-220.5 73.5q-82 0 -174 -38t-157 -91q0 -231 85.5 -371.5t231.5 -140.5t229.5 95t83.5 247zM119 662q0 221 72.5 393t221 270t367.5 98q74 0 156 -20v-107q-78 18 -150 19q-236 0 -369.5 -154.5t-133.5 -443.5q185 127 379 127t306.5 -109.5
t112.5 -296.5q0 -145 -61.5 -248.5t-165.5 -156.5t-231 -53q-250 0 -377 180t-127 502z" />
    <glyph glyph-name="seven" unicode="7" horiz-adv-x="1138" 
d="M129 1122q-31 0 -31 31v250h944v-98l-528 -1305h-182l528 1294h-653l-21 -104q-14 -68 -57 -68z" />
    <glyph glyph-name="eight" unicode="8" horiz-adv-x="1267" 
d="M961 338q0 110 -86.5 188t-243.5 144q-156 -63 -244 -142t-88 -191t90.5 -180.5t238.5 -68.5t240.5 70t92.5 180zM915 1096q0 102 -78.5 160.5t-200.5 58.5t-200 -58.5t-78 -155.5t72 -163t211 -137q274 128 274 295zM139 350q0 230 346 385q-150 80 -221 165.5
t-71 187.5t55 176.5t156.5 117.5t234.5 43t283.5 -64t150.5 -268q0 -203 -291 -356q184 -86 265 -177t81 -204t-62 -198.5t-174 -133t-257 -47.5q-223 0 -359.5 99.5t-136.5 273.5z" />
    <glyph glyph-name="nine" unicode="9" horiz-adv-x="1198" 
d="M610 1313q-150 0 -237.5 -96.5t-87.5 -256.5t85 -244.5t237 -84.5t308 141q0 250 -77.5 395.5t-227.5 145.5zM594 1423q487 0 487 -692q0 -338 -161.5 -544.5t-477.5 -206.5q-109 0 -186 22v109q84 -23 170 -23q227 0 358 141.5t134 421.5q-157 -133 -351 -133
q-127 0 -229 53.5t-160.5 152.5t-58.5 238t63.5 245t172 161t239.5 55z" />
    <glyph glyph-name="colon" unicode=":" horiz-adv-x="534" 
d="M150 182q0 51 33.5 84t82.5 33t84 -33t35 -84t-35 -83.5t-84 -32.5t-82.5 32.5t-33.5 83.5zM150 919.5q0 51.5 33.5 84t82.5 32.5t84 -32.5t35 -84t-35 -84t-84 -32.5t-82.5 32.5t-33.5 84z" />
    <glyph glyph-name="semicolon" unicode=";" horiz-adv-x="534" 
d="M131 174q0 55 59 55q16 0 25 -2l180 -39q-25 -106 -86 -230t-131 -210l-86 51q45 66 86 161t47 157l-67 22q-27 6 -27 35zM160 919.5q0 51.5 33.5 84t83 32.5t84 -32.5t34.5 -84t-34.5 -84t-84 -32.5t-83 32.5t-33.5 84z" />
    <glyph glyph-name="less" unicode="&#x3c;" horiz-adv-x="1155" 
d="M129 539v131l813 491l64 -121l-723 -436l723 -436l-64 -121z" />
    <glyph glyph-name="equal" unicode="=" horiz-adv-x="1155" 
d="M123 518h909v-125h-909v125zM123 895h909v-125h-909v125z" />
    <glyph glyph-name="greater" unicode="&#x3e;" horiz-adv-x="1155" 
d="M150 168l722 436l-722 436l63 121l813 -491v-131l-813 -492z" />
    <glyph glyph-name="question" unicode="?" horiz-adv-x="968" 
d="M377 71q0 42 27.5 68.5t67.5 26.5t67.5 -25.5t27.5 -68.5t-27.5 -70t-67.5 -27t-67.5 27t-27.5 69zM403 563q0 111 38 179.5t119 147.5t118 138t37 145t-59.5 138.5t-139.5 52.5q-153 0 -256 -70l-18 -98q-11 -57 -52 -57q-31 0 -30 26v181q63 51 158.5 86.5t191.5 35.5
q162 0 257 -76.5t95 -215.5q0 -104 -47 -178t-119 -142t-113.5 -125.5t-41.5 -198.5v-202h-138v233z" />
    <glyph glyph-name="at" unicode="@" horiz-adv-x="1779" 
d="M655 596q0 -264 213 -264q86 0 140.5 38t99.5 111l31 445q-82 23 -185 22q-137 0 -218 -94t-81 -258zM102 578q0 248 106.5 453.5t302 321t435.5 115.5t412 -90t268 -256t96 -389q0 -139 -44 -258t-122 -188.5t-166 -69.5t-148 43t-87 117q-115 -160 -280 -160t-255 97.5
t-90 285.5q0 135 51.5 240.5t147.5 164t229 58.5t308 -51l-33 -512q2 -80 43 -124t104 -44t141 77t78 326q0 184 -78.5 324.5t-218.5 218.5t-344 78t-375 -96.5t-263.5 -273.5t-92.5 -411q0 -309 173 -479t477 -170q211 0 442 84v-116q-236 -82 -457 -82t-396 89t-269.5 259
t-94.5 418z" />
    <glyph glyph-name="A" unicode="A" horiz-adv-x="1456" 
d="M956 575l-254 709l-253 -709h507zM1004 0q-35 0 -35 35q0 65 75 65h84l-131 365h-587l-129 -363l120 -24q57 -10 58 -49q0 -29 -23 -29h-385q-35 0 -35 43q0 57 74 57h62l477 1323h188l477 -1321l90 -20q57 -12 58 -51q0 -31 -23 -31h-415z" />
    <glyph glyph-name="B" unicode="B" horiz-adv-x="1402" 
d="M797 109q160 0 240.5 75.5t80.5 208.5t-80 212t-225 79h-387v-575h371zM772 791q117 0 189.5 69.5t72.5 192.5t-77.5 192.5t-221.5 69.5h-309v-524h346zM147 0q-28 0 -28 31t18.5 45t59.5 22l67 13v1202l-67 12q-78 16 -78 64q0 34 28 34h598q213 0 334 -95t121 -275
q0 -109 -54 -184.5t-153 -112.5v-8q135 -39 213 -129.5t78 -227.5q0 -190 -125 -290.5t-338 -100.5h-674z" />
    <glyph glyph-name="C" unicode="C" horiz-adv-x="1339" 
d="M96 712q0 237 87 402.5t237.5 249.5t341.5 84q135 0 255 -41t202 -109v-233q0 -31 -31 -31q-25 0 -38 17.5t-22 56.5l-28 141q-111 86 -293 86q-181 0 -298.5 -72.5t-182 -213t-64.5 -337t104 -410.5t462 -214q198 0 271 54.5t89 54.5t29.5 -15.5t13.5 -36.5
q0 -41 -60 -75q-153 -95 -369 -95t-372 84t-245 250t-89 403z" />
    <glyph glyph-name="D" unicode="D" horiz-adv-x="1509" 
d="M733 111q240 0 375 157.5t135 442t-135 443.5t-375 159h-307v-1202h307zM147 0q-28 0 -28 31t18.5 45t59.5 22l67 13v1202l-67 12q-41 8 -59.5 22.5t-18.5 44.5t28 31h586q197 0 349.5 -77.5t240.5 -238.5t88 -397t-88 -395t-240.5 -237t-349.5 -78h-586z" />
    <glyph glyph-name="E" unicode="E" horiz-adv-x="1400" 
d="M147 0q-28 0 -28 35q0 49 78 63l67 13v1202l-67 12q-41 8 -59.5 22.5t-18.5 44.5t28 31h1084v-260q0 -29 -31 -28q-41 0 -57 84l-19 96h-696v-533h586l22 92q14 57 47 58q27 0 27 -27v-352q0 -29 -27 -29q-33 0 -47 58l-22 92h-586v-565h723l18 104q14 84 58 84
q31 0 30 -31v-266h-1110z" />
    <glyph glyph-name="F" unicode="F" horiz-adv-x="1331" 
d="M1077 514q0 -29 -28 -29q-35 0 -48 60l-20 94h-553v-537l100 -24q58 -15 58 -51q0 -27 -25 -27h-403q-35 0 -35 43q0 57 76 57h65v1213l-67 12q-41 8 -59.5 22.5t-18.5 44.5t28 31h1051v-268q0 -29 -29 -29q-37 0 -57 84l-22 103h-662v-563h553l20 96q12 57 48 57
q28 0 28 -26v-363z" />
    <glyph glyph-name="G" unicode="G" horiz-adv-x="1470" 
d="M811 651q0 58 74 58h475q22 -1 22 -23t-12 -33.5t-41 -19.5l-98 -25v-530q-90 -49 -211 -76t-232 -27q-202 0 -357 82t-242 247t-87 405t86 405.5t236.5 249.5t341.5 84q135 0 257 -41t202 -109v-233q0 -31 -31 -31q-25 0 -38 17.5t-21 56.5l-29 141q-111 86 -315 86
q-242 0 -382.5 -163.5t-140.5 -458.5q0 -199 64.5 -339.5t182.5 -213t275 -72.5t277 55v467h-223q-33 0 -33 41z" />
    <glyph glyph-name="H" unicode="H" horiz-adv-x="1640" 
d="M1061 43q0 57 74 57h75v584h-788v-582l102 -24q58 -15 58 -51q0 -27 -25 -27h-403q-35 0 -35 43q0 57 76 57h63v1223h-104q-35 0 -35 43q0 57 74 57h364q25 0 25 -26q0 -36 -58 -51l-102 -25v-526h788v528h-114q-35 0 -35 43q0 57 74 57h364q23 0 23 -23q0 -41 -49 -52
l-99 -27v-1219l99 -26q49 -12 49 -49q0 -27 -23 -27h-403q-35 0 -35 43z" />
    <glyph glyph-name="I" unicode="I" horiz-adv-x="718" 
d="M129 1366q0 57 74 57h364q25 0 25 -26q0 -36 -57 -51l-103 -25v-1219l103 -24q57 -15 57 -51q0 -27 -25 -27h-403q-35 0 -35 43q0 57 76 57h63v1223h-104q-35 0 -35 43z" />
    <glyph glyph-name="J" unicode="J" horiz-adv-x="784" 
d="M215 1366q0 57 74 57h381q22 0 22 -23t-13 -34.5t-42 -19.5l-102 -25v-856q0 -348 -265 -463q-59 -27 -100 -27q-88 0 -92 115q162 53 227.5 139t65.5 246v848h-121q-35 0 -35 43z" />
    <glyph glyph-name="K" unicode="K" horiz-adv-x="1400" 
d="M582 27q0 -27 -25 -27h-403q-35 0 -35 43q0 57 76 57h63v1223h-104q-35 0 -35 43q0 57 74 57h362q25 0 25 -26q0 -36 -56 -51l-102 -25v-590l622 592h-133q-35 0 -35 35q1 65 76 65h363q27 0 26 -32q0 -45 -57 -54l-80 -12l-600 -571l615 -656l102 -20q57 -12 57 -51
q0 -27 -24 -27h-269l-663 731v-629l102 -24q58 -15 58 -51z" />
    <glyph glyph-name="L" unicode="L" horiz-adv-x="1226" 
d="M147 0q-28 0 -28 31t18.5 45t59.5 22l67 13v1212h-106q-35 0 -35 43q0 57 74 57h372q25 0 25 -26q0 -39 -57 -51l-109 -25v-1210h645l27 129q16 84 57 84q31 0 31 -31v-293h-1041z" />
    <glyph glyph-name="M" unicode="M" horiz-adv-x="2113" 
d="M1591 43q0 57 76 57h90l-229 1076q-19 78 -19 131h-10q-5 -28 -31 -131l-331 -1176h-191l-356 1176q-22 73 -31 131h-10q0 -53 -17 -131l-210 -1074l116 -24q57 -10 58 -49q0 -29 -23 -29h-383q-35 0 -35 43q0 57 76 57h66l241 1213l-67 10q-76 12 -76 63q0 37 29 37h360
l328 -1083q31 -105 41 -219h12q9 100 39 219l307 1083h361q29 0 28 -37q0 -51 -76 -63l-67 -10l262 -1211l90 -20q55 -12 55 -51q0 -31 -22 -31h-416q-35 0 -35 43z" />
    <glyph glyph-name="N" unicode="N" horiz-adv-x="1613" 
d="M1065 1366q0 57 74 57h338q23 0 22 -26q0 -38 -59 -54l-88 -22v-1321h-154l-713 1028q-51 74 -96 180v-1106l109 -24q55 -11 55 -51q0 -27 -23 -27h-376q-35 0 -35 43q0 57 76 57h65v1213l-65 10q-76 11 -76 63q0 37 31 37h262l700 -1009q59 -86 111 -203v1112h-123
q-35 0 -35 43z" />
    <glyph glyph-name="O" unicode="O" horiz-adv-x="1509" 
d="M1241 710q0 298 -126 462.5t-360 164.5t-360.5 -164.5t-126.5 -462.5t126 -461t360 -163t360.5 163t126.5 461zM102 708.5q0 241.5 123 490.5t531 249q195 0 342 -83t228 -249t81 -407q0 -360 -176 -547t-475 -187q-409 0 -531.5 246t-122.5 487.5z" />
    <glyph glyph-name="P" unicode="P" horiz-adv-x="1263" 
d="M737 705q143 0 222 82.5t79 220.5t-78.5 221.5t-222.5 83.5h-309v-608h309zM119 1392q0 30 28 31h601q207 0 332.5 -108.5t125.5 -307t-126 -306t-332 -107.5h-320v-492l102 -24q64 -15 64 -51q0 -27 -25 -27h-411q-35 0 -35 43q0 57 76 57h65v1213l-67 12
q-41 8 -59.5 22.5t-18.5 44.5z" />
    <glyph glyph-name="Q" unicode="Q" horiz-adv-x="1509" 
d="M1241 710q0 298 -126 462.5t-360 164.5t-360.5 -164.5t-126.5 -462.5t126 -461t360 -163t360.5 163t126.5 461zM102 709q0 242 82 407.5t228.5 248.5t342.5 83t343 -83t228 -249t81 -407q0 -338 -155.5 -523.5t-426.5 -208.5q141 -116 299 -165q41 -12 57.5 -25.5
t16.5 -40.5q0 -68 -70 -68q-121 0 -278 134q-88 78 -160 165q-272 20 -430 206t-158 526z" />
    <glyph glyph-name="R" unicode="R" horiz-adv-x="1368" 
d="M729 770q145 0 221 70.5t76 202t-76 203t-221 71.5h-301v-547h301zM119 1394q0 28 28 29h590q211 0 334 -93.5t123 -285.5t-123 -284t-334 -92h-110l540 -570l103 -20q57 -12 57 -51q0 -27 -22 -27h-271l-606 664v-562l100 -24q58 -15 58 -51q0 -27 -25 -27h-403
q-35 0 -35 43q0 57 76 57h65v1219l-67 10q-41 12 -59.5 24.5t-18.5 40.5z" />
    <glyph glyph-name="S" unicode="S" horiz-adv-x="1218" 
d="M106 365q0 30 36 30q44 0 59 -84l26 -131q125 -92 387 -92q124 0 228 56.5t104 181.5q0 80 -40 134t-122 99t-267 120t-294.5 170t-109.5 259t137 252t334 88q129 0 253 -39t203 -106v-242q0 -31 -28 -31t-42 17.5t-24 66.5l-26 129q-117 92 -326 92q-137 0 -226 -54
t-89 -167q0 -138 123.5 -200t289.5 -134q145 -59 282.5 -146t137.5 -282q0 -196 -144.5 -286.5t-369.5 -90.5q-125 0 -267.5 37t-224.5 101v252z" />
    <glyph glyph-name="T" unicode="T" horiz-adv-x="1220" 
d="M389 43q0 57 76 57h63v1213h-350l-20 -109q-8 -39 -20.5 -57.5t-35.5 -18.5q-35 0 -34 31v264h1087v-264q0 -31 -35 -31q-23 0 -35 18.5t-20 57.5l-21 109h-352v-1211l103 -24q57 -15 57 -51q0 -27 -25 -27h-403q-35 0 -35 43z" />
    <glyph glyph-name="U" unicode="U" horiz-adv-x="1599" 
d="M1079 1366q0 57 74 57h334q25 0 24 -24q0 -33 -53 -49l-94 -29v-782q0 -268 -148.5 -416t-413.5 -148t-420 147.5t-155 416.5v784h-104q-35 0 -35 43q0 57 74 57h364q25 0 25 -26q0 -36 -57 -51l-103 -25v-791q0 -213 109.5 -327.5t311.5 -114.5t311.5 113.5t109.5 328.5
v793h-119q-35 0 -35 43z" />
    <glyph glyph-name="V" unicode="V" horiz-adv-x="1474" 
d="M1042 1323q-34 0 -34 35q0 65 75 65h347q23 0 22 -26q0 -35 -49 -49l-105 -27l-471 -1321h-200l-469 1323h-101q-35 0 -34 43q0 57 73 57h383q25 0 25 -26q0 -43 -62 -56l-108 -20l375 -1090q18 -53 32 -122h11q16 80 30 122l387 1092h-127z" />
    <glyph glyph-name="W" unicode="W" horiz-adv-x="2224" 
d="M1751 1366q0 57 76 57h348q25 0 25 -26q0 -35 -52 -49l-102 -27l-379 -1321h-203l-325 1077q-12 39 -18.5 91.5t-8.5 68.5h-10q-14 -111 -29 -160l-309 -1077h-203l-399 1323h-103q-35 0 -34 43q0 57 73 57h377q25 0 25 -26q0 -43 -64 -56l-108 -20l321 -1075
q10 -37 16.5 -80t8.5 -55h10q2 12 8 55t17 80l338 1177h147l360 -1177q25 -77 25 -135h12q2 12 8.5 55t16.5 80l301 1077h-131q-35 0 -35 43z" />
    <glyph glyph-name="X" unicode="X" horiz-adv-x="1447" 
d="M909 43q0 57 74 57h86l-379 553l-381 -551l121 -26q49 -9 49 -49q0 -27 -22 -27h-391q-35 0 -35 43q0 57 73 57h68l432 629l-397 594h-94q-35 0 -35 43q0 57 74 57h393q23 -1 23 -25q-1 -47 -62 -57l-105 -14l334 -496l348 492h-110q-35 0 -35 43q0 57 74 57h336
q25 0 24 -26q0 -35 -51 -49l-100 -27l-402 -567l455 -658l82 -14q61 -8 61 -55q0 -27 -22 -27h-453q-14 0 -23.5 11.5t-9.5 31.5z" />
    <glyph glyph-name="Y" unicode="Y" horiz-adv-x="1419" 
d="M1036 1423h336q23 0 23 -26q0 -35 -49 -49l-101 -27l-469 -694v-525l101 -24q57 -15 57 -51q0 -27 -25 -27h-403q-35 0 -35 43q0 57 76 57h65v506l-458 717h-95q-35 0 -34 43q0 57 73 57h402q25 0 24 -28q0 -43 -57 -54l-115 -20l369 -578l389 580h-113q-35 0 -34 43
q0 57 73 57z" />
    <glyph glyph-name="Z" unicode="Z" horiz-adv-x="1288" 
d="M168 1120q-33 0 -33 31v272h1041v-114l-875 -1198h766l20 114q12 78 56 78q35 0 35 -31v-272h-1078v115l875 1198h-729l-21 -115q-12 -78 -57 -78z" />
    <glyph glyph-name="bracketleft" unicode="[" horiz-adv-x="600" 
d="M125 1534h377v-111h-221v-1599h221v-113h-377v1823z" />
    <glyph glyph-name="backslash" unicode="\" horiz-adv-x="743" 
d="M-55 1468l143 56l709 -1745l-144 -53z" />
    <glyph glyph-name="bracketright" unicode="]" horiz-adv-x="600" 
d="M98 -176h221v1599h-221v111h377v-1823h-377v113z" />
    <glyph glyph-name="asciicircum" unicode="^" horiz-adv-x="1167" 
d="M129 735l399 651h109l399 -651l-121 -67l-331 549l-334 -549z" />
    <glyph glyph-name="underscore" unicode="_" horiz-adv-x="1026" 
d="M-16 -305h1058v-129h-1058v129z" />
    <glyph glyph-name="grave" unicode="`" horiz-adv-x="600" 
d="M150 1376l122 80l179 -299l-93 -59z" />
    <glyph glyph-name="a" unicode="a" horiz-adv-x="1081" 
d="M752 348v164l-254 -41q-121 -20 -186.5 -68.5t-65.5 -138.5t57 -137t140 -47t153 36t113 97t43 135zM748 143q-122 -168 -353 -168q-121 0 -213 74t-92 212t102.5 209t270.5 95l289 43v90q0 100 -61.5 162t-172.5 62q-63 0 -142 -22.5t-130 -55.5l-17 -90
q-10 -59 -53 -60q-31 0 -31 27v186q82 49 189.5 82t206.5 33q160 0 262 -86t102 -240v-602l76 -20q55 -15 55 -49q0 -25 -22 -25h-258v143h-8z" />
    <glyph glyph-name="b" unicode="b" horiz-adv-x="1181" 
d="M940 489q0 225 -85 329t-230 104q-76 0 -144.5 -35t-109.5 -93.5t-41 -127.5v-516q53 -33 125.5 -53.5t136.5 -20.5q348 -1 348 413zM659 1022q202 0 320.5 -133t118.5 -393t-137.5 -390.5t-358.5 -130.5q-104 0 -220 34t-204 87v1262h-102q-33 0 -33 41q0 55 72 55h213
v-582l6 -4q123 154 325 154z" />
    <glyph glyph-name="c" unicode="c" horiz-adv-x="991" 
d="M901 717q0 -27 -33 -27q-40 0 -51 58l-18 100q-37 33 -100.5 52.5t-129.5 19.5q-152 0 -244 -110t-92 -310.5t95.5 -312t244.5 -111.5t218 50t84 50t27.5 -14.5t12.5 -34.5q0 -39 -67 -78q-127 -74 -277 -74q-227 0 -359 141.5t-132 383.5q0 160 59.5 278.5t166 181
t226.5 62.5t219 -37t150 -86v-182z" />
    <glyph glyph-name="d" unicode="d" horiz-adv-x="1196" 
d="M850 348v469q-121 104 -272 105q-96 0 -173 -49.5t-123 -145.5t-46 -235q0 -197 85 -306.5t246 -109.5q117 0 200 76.5t83 195.5zM80 486q0 166 60.5 286.5t167 185t254.5 64.5t290 -94v430h-102q-33 0 -33 41q0 55 71 55h213v-1358l82 -22q56 -15 56 -49q0 -25 -23 -25
h-258v139h-8q-109 -164 -320 -164q-124 0 -226.5 56.5t-163 172.5t-60.5 282z" />
    <glyph glyph-name="e" unicode="e" horiz-adv-x="1062" 
d="M829 625q0 141 -75.5 219t-203.5 78t-214 -95.5t-96 -259.5h581q8 18 8 58zM84 492q0 244 127 387t336 143t323.5 -117t114.5 -311q0 -63 -27 -129h-718q0 -188 96 -288.5t243 -100.5t265 82q4 2 17 10t29 8t28 -14.5t12 -34.5q0 -37 -64 -76q-126 -76 -282 -76
t-266.5 62.5t-172 179.5t-61.5 275z" />
    <glyph glyph-name="f" unicode="f" horiz-adv-x="825" 
d="M811 1202q0 -26 -31 -26q-40 0 -51 57l-18 96q-61 41 -143 41t-126.5 -47t-44.5 -133v-193h260q27 0 27 -28q0 -51 -92 -60l-195 -16v-797l97 -22q29 -10 42 -20.5t13 -28.5q0 -25 -25 -25h-385q-33 0 -33 41q0 55 72 55h66v797h-117q-35 0 -35 36q0 68 72 68h80v185
q0 139 81 215t212 76q82 0 155.5 -27t118.5 -68v-176z" />
    <glyph glyph-name="g" unicode="g" horiz-adv-x="1128" 
d="M236 492q0 -197 86 -306.5t243 -109.5q76 0 141.5 34.5t105.5 97t40 140.5v488q-115 86 -268 86q-96 0 -175 -48.5t-126 -145.5t-47 -236zM80 491.5q0 172.5 67.5 292t181 179t239.5 59.5t242 -43t196 -111v-929q0 -195 -114 -302.5t-317 -107.5t-339 80q-68 41 -68 70.5
t12.5 42t27.5 12.5t63 -30q47 -30 125.5 -51.5t158.5 -21.5q303 0 303 285v217h-8q-112 -158 -322 -158q-123 0 -225 56.5t-162.5 172t-60.5 288z" />
    <glyph glyph-name="h" unicode="h" horiz-adv-x="1284" 
d="M866 96h64v600q0 100 -58.5 161t-152.5 61q-178 0 -326 -164v-658l99 -22q55 -11 55 -49q0 -25 -25 -25h-385q-33 0 -33 41q0 55 72 55h64v1262h-103q-33 0 -33 41q0 55 72 55h211v-590l6 -2q170 160 357 160q145 0 239 -85t94 -230v-611l99 -22q55 -11 55 -49
q0 -25 -25 -25h-385q-33 0 -32 41q0 55 71 55z" />
    <glyph glyph-name="i" unicode="i" horiz-adv-x="569" 
d="M88 946q0 55 72 55h219v-905l96 -22q55 -11 55 -49q0 -25 -24 -25h-385q-33 0 -33 41q0 55 72 55h65v809h-104q-33 0 -33 41zM186 1278q0 51 32 81t79 30t80 -30t33 -81t-33 -81t-80 -30t-79 30t-32 81z" />
    <glyph glyph-name="j" unicode="j" horiz-adv-x="610" 
d="M313 31v874h-104q-33 0 -33 41q0 55 74 55h217v-983q0 -178 -67.5 -288.5t-196.5 -173.5q-53 -27 -115 -27t-68 115q162 53 227.5 139t65.5 248zM270 1278q0 51 32 81t79 30t80 -30t33 -81t-33 -81t-80 -30t-79 30t-32 81z" />
    <glyph glyph-name="k" unicode="k" horiz-adv-x="1191" 
d="M639 944q0 57 76 57h338q27 0 26 -32q0 -42 -59 -51l-82 -17l-373 -348l424 -457l90 -20q59 -12 60 -49q0 -27 -25 -27h-244l-477 530v-434l96 -22q55 -12 56 -49q0 -25 -25 -25h-383q-33 0 -33 41q0 55 72 55h64v1262h-103q-33 0 -33 41q0 55 72 55h217v-924l404 371
h-123q-35 0 -35 43z" />
    <glyph glyph-name="l" unicode="l" horiz-adv-x="606" 
d="M180 1454h217v-1358l99 -22q55 -11 55 -49q0 -25 -25 -25h-385q-32 0 -32 41q0 55 71 55h64v1262h-103q-33 0 -32 41q0 55 71 55z" />
    <glyph glyph-name="m" unicode="m" horiz-adv-x="1853" 
d="M678 915q-143 0 -291 -155v-666l98 -20q51 -10 52 -49q0 -25 -23 -25h-383q-33 0 -33 41q0 55 72 55h63v809h-102q-33 0 -33 41q0 55 72 55h209v-139h6q178 160 306 160t202 -44t106 -128q84 78 170 125t203 47t203 -80t86 -227v-621l94 -20q53 -10 53 -49q0 -25 -24 -25
h-379q-33 0 -33 41q0 55 72 55h63v606q0 104 -52 158.5t-142 54.5q-138 0 -289 -153v-668l96 -20q53 -10 54 -49q0 -25 -25 -25h-379q-33 0 -33 41q0 55 72 55h61v606q0 104 -51 158.5t-141 54.5z" />
    <glyph glyph-name="n" unicode="n" horiz-adv-x="1277" 
d="M788 41q0 55 72 55h64v598q0 100 -59 160.5t-153 60.5q-178 0 -325 -163v-656l98 -22q56 -12 56 -49q0 -25 -25 -25h-385q-33 0 -33 41q0 55 72 55h63v809h-102q-33 0 -33 41q0 55 72 55h209v-143h6q174 164 358 164q145 0 239.5 -85t94.5 -230v-611l99 -22
q55 -12 55 -49q0 -25 -25 -25h-385q-33 0 -33 41z" />
    <glyph glyph-name="o" unicode="o" horiz-adv-x="1112" 
d="M874 499q0 202 -83.5 312.5t-234.5 110.5t-234.5 -111t-83.5 -313t84 -312t234 -110t234 110.5t84 312.5zM82 499q0 245 128 384t346 139t346 -140t128 -384t-128 -383.5t-347 -139.5t-346 139.5t-127 384.5z" />
    <glyph glyph-name="p" unicode="p" horiz-adv-x="1247" 
d="M655 76q351 0 351 413q0 225 -86 329t-232 104q-78 0 -146.5 -35t-109.5 -93.5t-41 -127.5v-512q51 -33 127 -55.5t137 -22.5zM680 -25q-147 0 -287 72v-387l99 -22q53 -12 53 -50q0 -25 -23 -24h-385q-33 0 -33 41q0 55 72 55h64v1245h-103q-33 0 -33 41q0 55 72 55h211
v-135h6q125 156 326 156t322.5 -134t121.5 -391t-131 -389.5t-352 -132.5z" />
    <glyph glyph-name="q" unicode="q" horiz-adv-x="1187" 
d="M575 922q-94 0 -170.5 -49.5t-122.5 -146.5t-46 -234q0 -197 86 -306.5t243 -109.5q76 0 141.5 34.5t105.5 97t40 140.5v469q-118 105 -277 105zM80 486q0 166 61.5 286.5t168 185t256.5 64.5t288 -96q6 76 61 75h91v-1343l86 -20q53 -12 53 -50q0 -25 -23 -24h-383
q-32 0 -32 41q0 55 73 55h78v477h-6q-112 -162 -324 -162q-123 0 -225 56.5t-162.5 172.5t-60.5 282z" />
    <glyph glyph-name="r" unicode="r" horiz-adv-x="843" 
d="M729 1022q88 0 88 -83q0 -40 -26 -69q-215 0 -404 -182v-592l98 -22q56 -12 56 -49q0 -25 -25 -25h-385q-33 0 -33 41q0 55 72 55h63v809h-102q-33 0 -33 41q0 55 72 55h209v-202h6q78 94 172 158.5t172 64.5z" />
    <glyph glyph-name="s" unicode="s" horiz-adv-x="927" 
d="M444 78q240 0 240 149q0 55 -26.5 89t-81 63t-194.5 87t-213 124.5t-73 183.5t103.5 182.5t227.5 65.5t222.5 -37t149.5 -86v-180q0 -27 -31 -27q-40 0 -51 58l-19 98q-80 72 -244 72q-78 0 -140 -35t-62 -97t29.5 -95.5t79 -59t197.5 -89.5t215 -130t67 -190
t-111 -186.5t-243 -62.5t-236.5 30t-161.5 79v186q0 29 31 29q39 0 51 -59l18 -93q39 -35 112 -52t144 -17z" />
    <glyph glyph-name="t" unicode="t" horiz-adv-x="811" 
d="M109 893q-35 0 -35 36q0 68 71 68h105l26 217h125v-217h312q25 0 24.5 -34.5t-84.5 -42.5l-252 -27v-674q0 -70 36.5 -105.5t88.5 -35.5q92 0 148 53q43 34 62.5 16t19.5 -38q0 -39 -69 -86t-181 -47t-185 67.5t-73 185.5v664h-139z" />
    <glyph glyph-name="u" unicode="u" horiz-adv-x="1222" 
d="M739 946q0 55 72 55h217v-905l82 -22q55 -15 55 -49q0 -25 -24 -25h-258v139h-6q-174 -164 -357 -164q-145 0 -239.5 85t-94.5 233v612h-102q-33 0 -33 41q0 55 72 55h217v-696q0 -100 58.5 -161.5t152.5 -61.5q177 0 323 166v657h-102q-33 0 -33 41z" />
    <glyph glyph-name="v" unicode="v" horiz-adv-x="1126" 
d="M700 946q0 55 72 55h322q23 0 22 -24q0 -35 -53 -49l-86 -25l-322 -903h-206l-322 905h-84q-33 0 -33 41q0 55 72 55h346q25 0 25 -24q0 -18 -15.5 -31.5t-40.5 -17.5l-108 -25l258 -749q8 -20 13 -47t7 -35h8q0 32 19 82l266 751h-127q-33 0 -33 41z" />
    <glyph glyph-name="w" unicode="w" horiz-adv-x="1716" 
d="M1290 946q0 55 72 55h321q23 0 23 -24q0 -35 -53 -49l-86 -25l-260 -903h-205l-232 770q-18 74 -18 125h-8q0 -68 -19 -125l-219 -770h-205l-274 905h-84q-33 0 -33 41q0 55 72 55h346q25 0 25 -24q0 -39 -56 -49l-116 -25l221 -739q14 -44 14 -86h8q0 32 15 86l239 837
h174l256 -837q15 -62 15 -86h8q0 42 14 86l207 741h-129q-33 0 -33 41z" />
    <glyph glyph-name="x" unicode="x" horiz-adv-x="1103" 
d="M66 0q-33 0 -33 33t20.5 48t46.5 15h50l286 418l-264 391h-90q-33 0 -33 33t20.5 48t47.5 15h176l278 -415l226 319h-113q-33 0 -33 33t20.5 48t47.5 15h315q20 0 21 -24q0 -33 -51 -49l-84 -25l-275 -385l291 -420l84 -24q53 -16 53 -49q0 -25 -20 -25h-236l-305 449
l-240 -351l111 -24q53 -12 53 -49q0 -8 -6 -16.5t-16 -8.5h-348z" />
    <glyph glyph-name="y" unicode="y" horiz-adv-x="1122" 
d="M14 946q0 55 72 55h346q25 0 25 -24q0 -18 -15.5 -31.5t-40.5 -17.5l-108 -25l270 -688q8 -19 8 -63h9q0 39 8 63l268 690h-127q-33 0 -33 41q0 55 72 55h322q23 0 22 -24q0 -33 -55 -49l-84 -25l-385 -989q-66 -166 -168.5 -270.5t-241.5 -104.5q-39 0 -64.5 20.5
t-25.5 53.5t14 59q145 0 227.5 53.5t133.5 186.5l33 88l-365 905h-84q-33 0 -33 41z" />
    <glyph glyph-name="z" unicode="z" horiz-adv-x="950" 
d="M145 743q-32 0 -32 31v227h737v-110l-580 -791h490l16 101q12 61 55 61q14 0 23.5 -9t9.5 -24v-229h-778v111l582 790h-451l-16 -96q-6 -33 -18.5 -47.5t-37.5 -14.5z" />
    <glyph glyph-name="braceleft" unicode="{" horiz-adv-x="890" 
d="M504 324v-371q0 -78 40 -116t109 -38h140v-110h-160q-127 0 -206 64.5t-79 209.5v330q0 121 -53 182.5t-182 75.5v141q125 16 180 83t55 177v330q0 145 78 208.5t207 63.5h160v-110h-140q-149 0 -149 -154v-364q0 -117 -50.5 -189.5t-158.5 -113.5q209 -73 209 -299z" />
    <glyph glyph-name="bar" unicode="|" horiz-adv-x="593" 
d="M219 1491h156v-1755h-156v1755z" />
    <glyph glyph-name="braceright" unicode="}" horiz-adv-x="890" 
d="M98 -201h140q70 0 109.5 38t39.5 116v371q0 117 51 189.5t160 109.5q-109 41 -160 113.5t-51 189.5v364q0 154 -149 154h-140v110h160q129 0 207 -63.5t78 -208.5v-330q0 -111 55 -177t180 -83v-141q-129 -14 -182 -75.5t-53 -182.5v-330q0 -145 -79 -209.5t-206 -64.5
h-160v110z" />
    <glyph glyph-name="asciitilde" unicode="~" horiz-adv-x="1255" 
d="M403 598q-115 0 -235 -86l-53 109q142 110 293 110q105 0 222 -53q118 -53 222 -53t223 86l51 -109q-145 -111 -286 -110q-104 0 -200 42q-97 42 -143 53t-94 11z" />
    <glyph glyph-name="uni00A0" unicode="&#xa0;" horiz-adv-x="589" 
 />
    <glyph glyph-name="exclamdown" unicode="&#xa1;" horiz-adv-x="643" 
d="M272 662h101l41 -1119h-185zM227 906q0 42 28 68.5t68 26.5t67.5 -26.5t27.5 -69.5t-28 -68.5t-68 -25.5t-67.5 26.5t-27.5 68.5z" />
    <glyph glyph-name="cent" unicode="&#xa2;" horiz-adv-x="1153" 
d="M1001 825q0 -30 -32 -30q-43 0 -56 61l-18 107q-41 35 -108.5 55t-137.5 20q-162 0 -260 -115.5t-98 -328.5t102.5 -331t253.5 -118t283 84q6 4 17 12.5t27 8.5t29 -15.5t13 -36.5q0 -38 -70 -85q-104 -70 -268 -76v-160h-125v168q-199 29 -311.5 176t-112.5 379t120 378
t320 167v155h125v-155q92 -10 178 -46t129 -79v-195z" />
    <glyph glyph-name="sterling" unicode="&#xa3;" horiz-adv-x="1323" 
d="M152 0q-39 0 -39 47q0 29 20.5 46.5t50.5 17.5h103q68 59 95.5 116.5t27.5 133.5t-48 180h-157q-18 0 -30.5 12t-12.5 37t20.5 43t50.5 18h80q-55 128 -55 221q0 166 113.5 254t290.5 88q222 0 397 -141v-201q0 -39 -41 -38q-45 0 -62 71l-24 123q-117 78 -247 78
t-199.5 -60.5t-69.5 -173.5q0 -74 63 -221h473q37 0 37 -35q0 -48 -65 -53l-396 -22q39 -98 39 -179q0 -147 -110 -251h518l14 94q12 72 66 71q16 0 27.5 -10t11.5 -28v-238h-942z" />
    <glyph glyph-name="currency" unicode="&#xa4;" horiz-adv-x="1198" 
d="M868 653q0 129 -76.5 209t-192.5 80t-192.5 -80t-76.5 -209t76.5 -210t192.5 -81t192.5 81t76.5 210zM599 1075q118 0 206 -57l119 143l114 -84l-129 -147q101 -121 101 -279t-101 -274l129 -150l-114 -84l-119 146q-88 -57 -207 -57.5t-203 57.5l-121 -146l-114 84
l129 150q-101 121 -101 277t101 276l-129 147l116 86l119 -145q86 57 204 57z" />
    <glyph glyph-name="yen" unicode="&#xa5;" horiz-adv-x="1294" 
d="M901 1354q0 57 74 57h334q25 0 24 -27q0 -35 -51 -49l-100 -26l-332 -494h252v-106h-324l-59 -86v-113h385v-107h-385v-303l104 -22q31 -8 43.5 -19.5t12.5 -31.5q0 -27 -25 -27h-401q-35 0 -35 43q0 57 76 57h63v303h-381v107h381v94l-68 105h-313v106h246l-318 496h-92
q-35 0 -35 43q0 57 74 57h400q25 0 24 -29q0 -43 -59 -53l-113 -18l363 -572l383 572h-113q-35 0 -35 43z" />
    <glyph glyph-name="brokenbar" unicode="&#xa6;" horiz-adv-x="610" 
d="M227 420h156v-768h-156v768zM227 1505h156v-768h-156v768z" />
    <glyph glyph-name="section" unicode="&#xa7;" horiz-adv-x="1212" 
d="M922 422q0 66 -30 107.5t-92.5 76t-227.5 100.5t-242 130q-25 -43 -25 -105t32 -104.5t91.5 -74.5t175.5 -79t183 -84t110 -82q25 49 25 115zM154 123q0 27 26 27t37.5 -16.5t20.5 -59.5l24 -125q102 -74 318 -74q104 0 190 47t86 154q0 70 -32.5 115t-99 80t-224.5 99
t-253 147t-95 210t92 209q-33 59 -33 125q0 152 117.5 228.5t283.5 76.5q106 0 213 -35t174 -94v-203q0 -27 -26 -26q-39 0 -53 71l-23 109q-98 78 -276 78q-115 0 -189 -46t-74 -149t103 -156t235 -109t249.5 -131.5t117.5 -248.5q0 -127 -86 -207q27 -59 27 -129
q0 -158 -123 -236.5t-314 -78.5q-104 0 -223 30.5t-190 83.5v234z" />
    <glyph glyph-name="dieresis" unicode="&#xa8;" horiz-adv-x="808" 
d="M502 1225q0 43 28.5 70.5t70.5 27.5t70.5 -27.5t28.5 -70.5t-28.5 -72t-70.5 -29t-70.5 29t-28.5 72zM111 1225q0 43 28.5 70.5t70.5 27.5t70.5 -27.5t28.5 -70.5t-28.5 -72t-70.5 -29t-70.5 29t-28.5 72z" />
    <glyph glyph-name="copyright" unicode="&#xa9;" horiz-adv-x="1622" 
d="M1076 446q32 0 32 -46q0 -24 -53 -60q-90 -59 -215 -59q-178 0 -283.5 110.5t-105.5 299t103 298t271 109.5q80 0 157 -30t120 -69v-147q0 -25 -25 -25q-33 0 -45 50l-16 75q-56 56 -176 56t-190 -81t-70 -238t72.5 -238.5t188.5 -81.5t201 63q20 14 34 14zM1423 690
q0 182 -76.5 324.5t-216 222.5t-321.5 80t-320.5 -80t-215 -222.5t-76.5 -324.5t76.5 -324.5t215 -222.5t320.5 -80t321.5 80t216 222.5t76.5 324.5zM94 690q0 209 90 372t253 253t375 90t375 -90t252 -253t89 -372t-89 -371.5t-252 -253t-375 -90.5t-375 90.5t-253 253
t-90 371.5z" />
    <glyph glyph-name="ordfeminine" unicode="&#xaa;" horiz-adv-x="821" 
d="M541 903v82l-170 -29q-147 -25 -148 -122q0 -49 33.5 -77t99.5 -28t125.5 52.5t59.5 121.5zM156 1241q118 76 282 76q88 0 149.5 -53.5t61.5 -153.5v-371l53 -14q41 -11 41 -39q0 -20 -18 -20h-180v94h-8q-78 -109 -218 -109q-86 0 -145 46t-59 134q0 166 245 201l181 27
v53q0 127 -142 127q-86 0 -168 -45l-10 -61q-2 -18 -13 -29.5t-26 -11.5q-27 0 -26 24v125z" />
    <glyph glyph-name="guillemotleft" unicode="&#xab;" horiz-adv-x="1050" 
d="M524 459v53l275 362l94 -73l-211 -316l211 -315l-94 -74zM139 459v53l275 362l94 -73l-211 -316l211 -315l-94 -74z" />
    <glyph glyph-name="logicalnot" unicode="&#xac;" horiz-adv-x="1316" 
d="M989 631h-831v131h983v-473h-152v342z" />
    <glyph glyph-name="uni00AD" unicode="&#xad;" horiz-adv-x="602" 
d="M98 725h406v-135h-406v135z" />
    <glyph glyph-name="registered" unicode="&#xae;" horiz-adv-x="966" 
d="M502 1159q76 0 76 67t-76 66h-82v-133h82zM281 936q0 29 36 31h25v327l-27 11q-34 10 -34 27t20 18h205q70 0 108.5 -33t38.5 -90.5t-32.5 -89t-92.5 -31.5h-28l139 -139l33 -11q20 -6 26.5 -11t6.5 -17t-13 -13h-110l-162 181v-131l26 -9q35 -12 35 -26t-14 -15h-166
q-20 1 -20 21zM842 1128.5q0 167.5 -100.5 267t-257.5 99.5t-257 -99.5t-100 -267t99.5 -266t257 -98.5t258 98.5t100.5 266zM41 1128q0 127 57.5 227.5t157.5 157t227 56.5t228.5 -56.5t158 -157t56.5 -227.5t-56.5 -227t-158 -156.5t-228.5 -56.5t-227 56.5t-157.5 156.5
t-57.5 227z" />
    <glyph glyph-name="macron" unicode="&#xaf;" horiz-adv-x="778" 
d="M100 1266h578v-113h-578v113z" />
    <glyph glyph-name="degree" unicode="&#xb0;" horiz-adv-x="727" 
d="M514 1376q0 76 -43 118t-108.5 42t-109.5 -42t-44 -118t44 -117.5t109.5 -41.5t108.5 41.5t43 117.5zM98 1376.5q0 112.5 75 181t189.5 68.5t189.5 -68.5t75 -181t-75 -181.5t-189.5 -69t-189.5 69t-75 181.5z" />
    <glyph glyph-name="plusminus" unicode="&#xb1;" horiz-adv-x="1140" 
d="M123 111h895v-111h-895v111zM494 743h-371v111h371v375h153v-375h371v-111h-371v-370h-153v370z" />
    <glyph glyph-name="uni00B2" unicode="&#xb2;" horiz-adv-x="653" 
d="M461 1378q0 53 -36.5 85t-104.5 32t-144 -41l-14 -65q-10 -54 -41 -54t-31 27v133q128 80 242 80t177.5 -54.5t63.5 -156.5t-159 -270l-207 -213h381v-80h-516v88l260 268q61 63 95 115.5t34 105.5z" />
    <glyph glyph-name="uni00B3" unicode="&#xb3;" horiz-adv-x="657" 
d="M281 862q186 0 186 148q0 61 -44 102t-118 41q-23 0 -82 -8l-43 -6v73l90 11q76 10 123 47t47 102q0 123 -141 123q-84 0 -158 -45l-14 -68q-11 -51 -41 -51q-25 0 -25 23v141q119 80 236 80q118 0 185 -48t67 -143q0 -137 -143 -186q82 -18 125.5 -70.5t43.5 -128.5
q0 -106 -77.5 -160.5t-208.5 -54.5t-238 45v84q118 -51 230 -51z" />
    <glyph glyph-name="acute" unicode="&#xb4;" horiz-adv-x="598" 
d="M156 1157l178 299l123 -80l-209 -278z" />
    <glyph glyph-name="uni00B5" unicode="&#xb5;" horiz-adv-x="1257" 
d="M555 -25q-134 0 -227 97l18 -564h-182l16 590v903h154v-708q0 -92 59.5 -151.5t165.5 -59.5q164 0 309 166v753h154v-854q0 -70 68 -69q51 0 116 39v-90q-86 -52 -160 -52q-155 0 -155 127v37h-6q-154 -164 -330 -164z" />
    <glyph glyph-name="paragraph" unicode="&#xb6;" horiz-adv-x="1406" 
d="M489 -287q0 56 74 56h90v985h-104q-158 0 -258.5 91t-100.5 251t111 243.5t297 83.5h549q25 0 24 -24q0 -37 -53 -51l-88 -23v-1438h-119v1440h-139v-1558l330 -21q76 -6 76 -47q0 -29 -25 -29h-631q-33 0 -33 41z" />
    <glyph glyph-name="periodcentered" unicode="&#xb7;" horiz-adv-x="583" 
d="M174 684q0 53 35 87t84 34t84 -34t35 -87t-34 -86t-85 -33t-85 33t-34 86z" />
    <glyph glyph-name="cedilla" unicode="&#xb8;" horiz-adv-x="784" 
d="M397 -227q0 82 -92 108l43 119h109l-43 -94q100 -39 100 -137q0 -68 -67.5 -121.5t-163.5 -75.5l-25 61q139 46 139 140z" />
    <glyph glyph-name="uni00B9" unicode="&#xb9;" horiz-adv-x="485" 
d="M43 831q0 41 51 41h82v611l-127 -41v69l135 48h111v-689l76 -10q47 -6 47 -37q0 -23 -21 -22h-327q-27 -1 -27 30z" />
    <glyph glyph-name="ordmasculine" unicode="&#xba;" horiz-adv-x="808" 
d="M596 983q0 121 -50 188.5t-141 67.5t-141.5 -67.5t-50.5 -188.5t49.5 -187.5t141.5 -66.5t142 66.5t50 187.5zM102 984q0 155 83 244t220.5 89t219.5 -89t82 -244t-82 -244t-219.5 -89t-220.5 89t-83 244z" />
    <glyph glyph-name="guillemotright" unicode="&#xbb;" horiz-adv-x="1050" 
d="M545 170l211 315l-211 316l94 73l274 -362v-53l-274 -363zM160 170l211 315l-211 316l94 73l274 -362v-53l-274 -363z" />
    <glyph glyph-name="onequarter" unicode="&#xbc;" horiz-adv-x="1642" 
d="M1362 254v387l-277 -387h277zM1370 174h-375v82l359 502h127v-504h104v-80h-104v-174h-111v174zM76 659q0 41 51 41h82v611l-127 -41v69l135 47h111v-688l75 -10q48 -4 48 -37q0 -23 -21 -22h-328q-26 -1 -26 30zM293 29l962 1394l101 -65l-965 -1395z" />
    <glyph glyph-name="onehalf" unicode="&#xbd;" horiz-adv-x="1712" 
d="M1520 576q0 54 -37 86t-101 32t-147 -41l-14 -65q-10 -53 -41 -53t-31 26v133q129 80 243 80t177 -54t63 -155q0 -63 -41 -126.5t-123 -149.5l-202 -209h381v-80h-517v88l261 266q63 66 96 117t33 105zM76 659q0 41 51 41h82v611l-127 -41v69l135 47h111v-688l75 -10
q48 -4 48 -37q0 -23 -21 -22h-328q-26 -1 -26 30zM293 29l962 1394l101 -65l-965 -1395z" />
    <glyph glyph-name="threequarters" unicode="&#xbe;" horiz-adv-x="1654" 
d="M1376 254v387l-276 -387h276zM1384 174h-374v82l358 502h127v-504h104v-80h-104v-174h-111v174zM289 610q-133 0 -234 47v82q119 -49 230 -49q186 0 186 146q0 63 -44 103t-118 40q-2 0 -73 -6l-52 -6v73l90 11q76 8 123 45t47 102q0 125 -141 125q-84 0 -158 -45
l-14 -70q-11 -51 -41 -51q-25 0 -24 23v143q126 80 240 80t180.5 -48t66.5 -145q0 -137 -143 -186q82 -16 126 -68.5t44 -128.5q0 -106 -79 -161.5t-212 -55.5zM303 29l963 1394l100 -65l-965 -1395z" />
    <glyph glyph-name="questiondown" unicode="&#xbf;" horiz-adv-x="968" 
d="M109 -180q0 104 46.5 178t118.5 142t113 127t41 196v199h137v-230q0 -111 -38 -179.5t-119 -147.5t-116.5 -137t-35.5 -146t58 -139.5t140 -51.5q162 0 255 72l18 96q11 58 51 58q33 0 33 -25v-182q-63 -51 -158.5 -87t-193.5 -36q-160 0 -255 77t-95 216zM401 905
q0 43 28 69.5t68 26.5t67.5 -26.5t27.5 -68.5t-27.5 -68.5t-67.5 -26.5t-68 25.5t-28 68.5z" />
    <glyph glyph-name="Agrave" unicode="&#xc0;" horiz-adv-x="1456" 
d="M956 575l-254 709l-253 -709h507zM1004 0q-35 0 -35 35q0 65 75 65h84l-131 365h-587l-129 -363l120 -24q57 -10 58 -49q0 -29 -23 -29h-385q-35 0 -35 43q0 57 74 57h62l477 1323h188l477 -1321l90 -20q57 -12 58 -51q0 -31 -23 -31h-415zM512 1819l123 79l178 -299
l-92 -59z" />
    <glyph glyph-name="Aacute" unicode="&#xc1;" horiz-adv-x="1456" 
d="M956 575l-254 709l-253 -709h507zM1004 0q-35 0 -35 35q0 65 75 65h84l-131 365h-587l-129 -363l120 -24q57 -10 58 -49q0 -29 -23 -29h-385q-35 0 -35 43q0 57 74 57h62l477 1323h188l477 -1321l90 -20q57 -12 58 -51q0 -31 -23 -31h-415zM623 1597l178 299l123 -79
l-209 -279z" />
    <glyph glyph-name="Acircumflex" unicode="&#xc2;" horiz-adv-x="1456" 
d="M956 575l-254 709l-253 -709h507zM1004 0q-35 0 -35 35q0 65 75 65h84l-131 365h-587l-129 -363l120 -24q57 -10 58 -49q0 -29 -23 -29h-385q-35 0 -35 43q0 57 74 57h62l477 1323h188l477 -1321l90 -20q57 -12 58 -51q0 -31 -23 -31h-415zM449 1599l219 279h86l219 -279
l-76 -61l-186 203l-187 -203z" />
    <glyph glyph-name="Atilde" unicode="&#xc3;" horiz-adv-x="1456" 
d="M956 575l-254 709l-253 -709h507zM1004 0q-35 0 -35 35q0 65 75 65h84l-131 365h-587l-129 -363l120 -24q57 -10 58 -49q0 -29 -23 -29h-385q-35 0 -35 43q0 57 74 57h62l477 1323h188l477 -1321l90 -20q57 -12 58 -51q0 -31 -23 -31h-415zM840 1561q-46 0 -102 26
t-81.5 35.5t-52.5 9.5q-62 0 -135 -53l-57 76q103 94 194 94q43 0 118 -36t126 -36t121 54l57 -78q-96 -92 -188 -92z" />
    <glyph glyph-name="Adieresis" unicode="&#xc4;" horiz-adv-x="1456" 
d="M956 575l-254 709l-253 -709h507zM1004 0q-35 0 -35 35q0 65 75 65h84l-131 365h-587l-129 -363l120 -24q57 -10 58 -49q0 -29 -23 -29h-385q-35 0 -35 43q0 57 74 57h62l477 1323h188l477 -1321l90 -20q57 -12 58 -51q0 -31 -23 -31h-415zM813 1661q0 43 28.5 70.5
t70.5 27.5t71 -27.5t29 -70.5t-29 -71.5t-71 -28.5t-70.5 28.5t-28.5 71.5zM420 1661q0 43 28.5 70.5t70.5 27.5t70.5 -27.5t28.5 -70.5t-28.5 -71.5t-70.5 -28.5t-70.5 28.5t-28.5 71.5z" />
    <glyph glyph-name="Aring" unicode="&#xc5;" horiz-adv-x="1456" 
d="M956 575l-254 709l-253 -709h507zM1004 0q-35 0 -35 35q0 65 75 65h84l-131 365h-587l-129 -363l120 -24q57 -10 58 -49q0 -29 -23 -29h-385q-35 0 -35 43q0 57 74 57h62l477 1323h188l477 -1321l90 -20q57 -12 58 -51q0 -31 -23 -31h-415zM811 1694q0 45 -25.5 69.5
t-66.5 24.5t-67.5 -24.5t-26.5 -69.5t26.5 -71t67.5 -26t66.5 26t25.5 71zM530 1693.5q0 75.5 52.5 127t137.5 51.5t136 -51.5t51 -127t-51 -126.5t-137 -51t-137.5 51t-51.5 126.5z" />
    <glyph glyph-name="AE" unicode="&#xc6;" horiz-adv-x="2295" 
d="M1165 575v736l-524 -736h524zM1049 0q-27 0 -27 31t18.5 45t57.5 22l67 13v354h-596l-262 -363l121 -24q59 -12 59 -49q0 -29 -22 -29h-410q-35 0 -35 43q0 57 74 57h62l860 1213l-66 12q-41 8 -59.5 22.5t-18.5 44.5t29 31h1225v-260q0 -29 -31 -28q-41 0 -57 84l-19 96
h-690v-533h580l22 92q14 57 45 58q29 0 29 -27v-352q0 -29 -30 -29t-44 58l-22 92h-580v-565h717l18 104q14 84 58 84q31 0 30 -31v-266h-1103z" />
    <glyph glyph-name="Ccedilla" unicode="&#xc7;" horiz-adv-x="1339" 
d="M760 -242q0 81 -92 111l41 111q-180 16 -318.5 104t-216.5 248t-78 388t87 394t237.5 250t341.5 84q135 0 255 -41t202 -109v-233q0 -31 -31 -31q-25 0 -38 17.5t-22 56.5l-28 141q-111 86 -293 86q-181 0 -298.5 -72.5t-182 -213t-64.5 -337t104 -410.5t462 -214
q198 0 271 54.5t89 54.5t29.5 -15.5t13.5 -36.5q0 -41 -60 -75q-143 -91 -356 -95l-39 -81q100 -43 101 -138q0 -68 -68 -122t-164 -74l-24 59q139 47 139 139z" />
    <glyph glyph-name="Egrave" unicode="&#xc8;" horiz-adv-x="1400" 
d="M147 0q-28 0 -28 35q0 49 78 63l67 13v1202l-67 12q-41 8 -59.5 22.5t-18.5 44.5t28 31h1084v-260q0 -29 -31 -28q-41 0 -57 84l-19 96h-696v-533h586l22 92q14 57 47 58q27 0 27 -27v-352q0 -29 -27 -29q-33 0 -47 58l-22 92h-586v-565h723l18 104q14 84 58 84
q31 0 30 -31v-266h-1110zM526 1819l123 79l178 -299l-92 -59z" />
    <glyph glyph-name="Eacute" unicode="&#xc9;" horiz-adv-x="1400" 
d="M147 0q-28 0 -28 35q0 49 78 63l67 13v1202l-67 12q-41 8 -59.5 22.5t-18.5 44.5t28 31h1084v-260q0 -29 -31 -28q-41 0 -57 84l-19 96h-696v-533h586l22 92q14 57 47 58q27 0 27 -27v-352q0 -29 -27 -29q-33 0 -47 58l-22 92h-586v-565h723l18 104q14 84 58 84
q31 0 30 -31v-266h-1110zM584 1599l178 299l123 -79l-209 -279z" />
    <glyph glyph-name="Ecircumflex" unicode="&#xca;" horiz-adv-x="1400" 
d="M147 0q-28 0 -28 35q0 49 78 63l67 13v1202l-67 12q-41 8 -59.5 22.5t-18.5 44.5t28 31h1084v-260q0 -29 -31 -28q-41 0 -57 84l-19 96h-696v-533h586l22 92q14 57 47 58q27 0 27 -27v-352q0 -29 -27 -29q-33 0 -47 58l-22 92h-586v-565h723l18 104q14 84 58 84
q31 0 30 -31v-266h-1110zM446 1599l220 279h86l219 -279l-76 -61l-186 203l-187 -203z" />
    <glyph glyph-name="Edieresis" unicode="&#xcb;" horiz-adv-x="1400" 
d="M147 0q-28 0 -28 35q0 49 78 63l67 13v1202l-67 12q-41 8 -59.5 22.5t-18.5 44.5t28 31h1084v-260q0 -29 -31 -28q-41 0 -57 84l-19 96h-696v-533h586l22 92q14 57 47 58q27 0 27 -27v-352q0 -29 -27 -29q-33 0 -47 58l-22 92h-586v-565h723l18 104q14 84 58 84
q31 0 30 -31v-266h-1110zM823 1661q0 43 29 70.5t71 27.5t70.5 -27.5t28.5 -70.5t-28.5 -71.5t-70.5 -28.5t-71 28.5t-29 71.5zM430 1661q0 43 28.5 70.5t70.5 27.5t71 -27.5t29 -70.5t-29 -71.5t-71 -28.5t-70.5 28.5t-28.5 71.5z" />
    <glyph glyph-name="Igrave" unicode="&#xcc;" horiz-adv-x="718" 
d="M129 1366q0 57 74 57h364q25 0 25 -26q0 -36 -57 -51l-103 -25v-1219l103 -24q57 -15 57 -51q0 -27 -25 -27h-403q-35 0 -35 43q0 57 76 57h63v1223h-104q-35 0 -35 43zM170 1819l123 79l178 -299l-92 -59z" />
    <glyph glyph-name="Iacute" unicode="&#xcd;" horiz-adv-x="718" 
d="M129 1366q0 57 74 57h364q25 0 25 -26q0 -36 -57 -51l-103 -25v-1219l103 -24q57 -15 57 -51q0 -27 -25 -27h-403q-35 0 -35 43q0 57 76 57h63v1223h-104q-35 0 -35 43zM236 1599l178 299l123 -79l-209 -279z" />
    <glyph glyph-name="Icircumflex" unicode="&#xce;" horiz-adv-x="686" 
d="M119 1366q0 57 74 57h364q25 0 25 -26q0 -36 -58 -51l-102 -25v-1219l102 -24q58 -15 58 -51q0 -27 -25 -27h-403q-35 0 -35 43q0 57 76 57h63v1223h-104q-35 0 -35 43zM80 1599l219 279h86l219 -279l-76 -61l-186 203l-186 -203z" />
    <glyph glyph-name="Idieresis" unicode="&#xcf;" horiz-adv-x="688" 
d="M121 1366q0 57 74 57h364q25 0 25 -26q0 -36 -58 -51l-102 -25v-1219l102 -24q58 -15 58 -51q0 -27 -25 -27h-403q-35 0 -35 43q0 57 76 57h63v1223h-104q-35 0 -35 43zM440 1661q0 43 29 70.5t71 27.5t70.5 -27.5t28.5 -70.5t-28.5 -71.5t-70.5 -28.5t-71 28.5t-29 71.5
zM49 1661q0 43 28.5 70.5t70.5 27.5t71 -27.5t29 -70.5t-29 -71.5t-71 -28.5t-70.5 28.5t-28.5 71.5z" />
    <glyph glyph-name="Eth" unicode="&#xd0;" horiz-adv-x="1513" 
d="M737 111q240 0 375 157.5t135 442t-135 443.5t-375 159h-307v-531h391v-114h-391v-557h307zM152 0q-29 0 -29 31t18.5 45t59.5 22l67 13v557h-137v114h137v531l-67 12q-78 12 -78 64q0 34 29 34h585q197 0 349.5 -77.5t240.5 -238.5t88 -397t-88 -395t-240.5 -237
t-349.5 -78h-585z" />
    <glyph glyph-name="Ntilde" unicode="&#xd1;" horiz-adv-x="1613" 
d="M1065 1366q0 57 74 57h338q23 0 22 -26q0 -38 -59 -54l-88 -22v-1321h-154l-713 1028q-51 74 -96 180v-1106l109 -24q55 -11 55 -51q0 -27 -23 -27h-376q-35 0 -35 43q0 57 76 57h65v1213l-65 10q-76 11 -76 63q0 37 31 37h262l700 -1009q59 -86 111 -203v1112h-123
q-35 0 -35 43zM913 1561q-46 -1 -122 35t-125 36q-50 0 -123 -53l-58 76q103 94 195 94q43 0 118 -36q76 -36 126 -36t120 54l58 -78q-96 -92 -189 -92z" />
    <glyph glyph-name="Ograve" unicode="&#xd2;" horiz-adv-x="1509" 
d="M1241 710q0 298 -126 462.5t-360 164.5t-360.5 -164.5t-126.5 -462.5t126 -461t360 -163t360.5 163t126.5 461zM102 708.5q0 241.5 123 490.5t531 249q195 0 342 -83t228 -249t81 -407q0 -360 -176 -547t-475 -187q-409 0 -531.5 246t-122.5 487.5zM567 1819l123 79
l178 -299l-92 -59z" />
    <glyph glyph-name="Oacute" unicode="&#xd3;" horiz-adv-x="1509" 
d="M1241 710q0 298 -126 462.5t-360 164.5t-360.5 -164.5t-126.5 -462.5t126 -461t360 -163t360.5 163t126.5 461zM102 708.5q0 241.5 123 490.5t531 249q195 0 342 -83t228 -249t81 -407q0 -360 -176 -547t-475 -187q-409 0 -531.5 246t-122.5 487.5zM616 1597l179 299
l123 -79l-209 -279z" />
    <glyph glyph-name="Ocircumflex" unicode="&#xd4;" horiz-adv-x="1509" 
d="M1241 710q0 298 -126 462.5t-360 164.5t-360.5 -164.5t-126.5 -462.5t126 -461t360 -163t360.5 163t126.5 461zM102 708.5q0 241.5 123 490.5t531 249q195 0 342 -83t228 -249t81 -407q0 -360 -176 -547t-475 -187q-409 0 -531.5 246t-122.5 487.5zM494 1599l219 279h86
l219 -279l-76 -61l-186 203l-187 -203z" />
    <glyph glyph-name="Otilde" unicode="&#xd5;" horiz-adv-x="1509" 
d="M1241 710q0 298 -126 462.5t-360 164.5t-360.5 -164.5t-126.5 -462.5t126 -461t360 -163t360.5 163t126.5 461zM102 708.5q0 241.5 123 490.5t531 249q195 0 342 -83t228 -249t81 -407q0 -360 -176 -547t-475 -187q-409 0 -531.5 246t-122.5 487.5zM874 1561
q-44 0 -100 26t-82 35.5t-53 9.5q-62 0 -135 -53l-58 76q103 94 195 94q43 0 118 -36t125 -36t122 54l57 -78q-96 -92 -189 -92z" />
    <glyph glyph-name="Odieresis" unicode="&#xd6;" horiz-adv-x="1509" 
d="M1241 710q0 298 -126 462.5t-360 164.5t-360.5 -164.5t-126.5 -462.5t126 -461t360 -163t360.5 163t126.5 461zM102 708.5q0 241.5 123 490.5t531 249q195 0 342 -83t228 -249t81 -407q0 -360 -176 -547t-475 -187q-409 0 -531.5 246t-122.5 487.5zM852 1661
q0 43 28.5 70.5t70.5 27.5t71 -27.5t29 -70.5t-29 -71.5t-71 -28.5t-70.5 28.5t-28.5 71.5zM459 1661q0 43 28.5 70.5t70.5 27.5t70.5 -27.5t28.5 -70.5t-28.5 -71.5t-70.5 -28.5t-70.5 28.5t-28.5 71.5z" />
    <glyph glyph-name="multiply" unicode="&#xd7;" horiz-adv-x="1212" 
d="M121 334l375 381l-375 381l108 100l369 -375l369 375l108 -100l-375 -381l375 -381l-108 -98l-369 374l-369 -374z" />
    <glyph glyph-name="Oslash" unicode="&#xd8;" horiz-adv-x="1531" 
d="M1251 703q0 291 -112 452l-641 -995q109 -74 266 -74q235 0 361 163t126 454zM764 1337q-233 0 -359 -164.5t-126 -466.5t131 -464l645 1001q-117 94 -291 94zM113 709q0 242 81.5 407.5t228 248.5t350.5 83t353 -94l115 178l102 -57l-124 -193q199 -195 199 -564
t-176.5 -556t-475.5 -187q-193 0 -338 78l-145 -227l-103 57l152 238q-219 190 -219 588z" />
    <glyph glyph-name="Ugrave" unicode="&#xd9;" horiz-adv-x="1599" 
d="M1079 1366q0 57 74 57h334q25 0 24 -24q0 -33 -53 -49l-94 -29v-782q0 -268 -148.5 -416t-413.5 -148t-420 147.5t-155 416.5v784h-104q-35 0 -35 43q0 57 74 57h364q25 0 25 -26q0 -36 -57 -51l-103 -25v-791q0 -213 109.5 -327.5t311.5 -114.5t311.5 113.5t109.5 328.5
v793h-119q-35 0 -35 43zM633 1819l123 79l178 -299l-92 -59z" />
    <glyph glyph-name="Uacute" unicode="&#xda;" horiz-adv-x="1599" 
d="M1079 1366q0 57 74 57h334q25 0 24 -24q0 -33 -53 -49l-94 -29v-782q0 -268 -148.5 -416t-413.5 -148t-420 147.5t-155 416.5v784h-104q-35 0 -35 43q0 57 74 57h364q25 0 25 -26q0 -36 -57 -51l-103 -25v-791q0 -213 109.5 -327.5t311.5 -114.5t311.5 113.5t109.5 328.5
v793h-119q-35 0 -35 43zM668 1597l178 299l123 -79l-209 -279z" />
    <glyph glyph-name="Ucircumflex" unicode="&#xdb;" horiz-adv-x="1599" 
d="M1079 1366q0 57 74 57h334q25 0 24 -24q0 -33 -53 -49l-94 -29v-782q0 -268 -148.5 -416t-413.5 -148t-420 147.5t-155 416.5v784h-104q-35 0 -35 43q0 57 74 57h364q25 0 25 -26q0 -36 -57 -51l-103 -25v-791q0 -213 109.5 -327.5t311.5 -114.5t311.5 113.5t109.5 328.5
v793h-119q-35 0 -35 43zM545 1599l219 279h86l219 -279l-76 -61l-186 203l-186 -203z" />
    <glyph glyph-name="Udieresis" unicode="&#xdc;" horiz-adv-x="1599" 
d="M1079 1366q0 57 74 57h334q25 0 24 -24q0 -33 -53 -49l-94 -29v-782q0 -268 -148.5 -416t-413.5 -148t-420 147.5t-155 416.5v784h-104q-35 0 -35 43q0 57 74 57h364q25 0 25 -26q0 -36 -57 -51l-103 -25v-791q0 -213 109.5 -327.5t311.5 -114.5t311.5 113.5t109.5 328.5
v793h-119q-35 0 -35 43zM903 1661q0 43 29 70.5t71 27.5t70.5 -27.5t28.5 -70.5t-29 -71.5t-71 -28.5t-70.5 28.5t-28.5 71.5zM510 1661q0 43 28.5 70.5t70.5 27.5t71 -27.5t29 -70.5t-29 -71.5t-71 -28.5t-70.5 28.5t-28.5 71.5z" />
    <glyph glyph-name="Yacute" unicode="&#xdd;" horiz-adv-x="1419" 
d="M1036 1423h336q23 0 23 -26q0 -35 -49 -49l-101 -27l-469 -694v-525l101 -24q57 -15 57 -51q0 -27 -25 -27h-403q-35 0 -35 43q0 57 76 57h65v506l-458 717h-95q-35 0 -34 43q0 57 73 57h402q25 0 24 -28q0 -43 -57 -54l-115 -20l369 -578l389 580h-113q-35 0 -34 43
q0 57 73 57zM584 1599l178 299l123 -79l-209 -279z" />
    <glyph glyph-name="Thorn" unicode="&#xde;" horiz-adv-x="1349" 
d="M1073 721q0 170 -100.5 258t-254.5 88t-296 -45v-600q142 -45 296 -45t254.5 87t100.5 257zM119 1366q0 57 74 57h364q25 0 25 -26q0 -36 -58 -51l-102 -25v-186q131 41 278 41q242 0 390.5 -117t148.5 -338t-148.5 -338t-390.5 -117q-147 0 -278 41v-205l102 -24
q58 -15 58 -51q0 -27 -25 -27h-403q-35 0 -35 43q0 57 76 57h63v1223h-104q-35 0 -35 43z" />
    <glyph glyph-name="germandbls" unicode="&#xdf;" horiz-adv-x="1409" 
d="M119 41q0 55 74 55h71v940q0 213 121 327t340 114q121 0 220 -42t156.5 -114t57.5 -147t-23.5 -122.5t-62.5 -105.5t-56.5 -91.5t-17.5 -77.5t29.5 -83.5t99.5 -107.5t113 -134.5t43 -164.5q0 -135 -99.5 -223.5t-271.5 -88.5q-88 0 -178 27t-151 74v200q0 12 8 20.5
t22 8.5q41 0 52 -59l16 -96q80 -64 203 -64q124 0 182.5 57.5t58.5 142.5t-36.5 140.5t-105.5 123.5t-102.5 117.5t-33.5 108.5t19.5 98.5t57.5 91.5t56 88t18 87q0 98 -78.5 161.5t-214.5 63.5t-212 -80t-76 -229v-1057h-264q-35 0 -35 41z" />
    <glyph glyph-name="agrave" unicode="&#xe0;" horiz-adv-x="1081" 
d="M752 348v164l-254 -41q-121 -20 -186.5 -68.5t-65.5 -138.5t57 -137t140 -47t153 36t113 97t43 135zM748 143q-122 -168 -353 -168q-121 0 -213 74t-92 212t102.5 209t270.5 95l289 43v90q0 100 -61.5 162t-172.5 62q-63 0 -142 -22.5t-130 -55.5l-17 -90
q-10 -59 -53 -60q-31 0 -31 27v186q82 49 189.5 82t206.5 33q160 0 262 -86t102 -240v-602l76 -20q55 -15 55 -49q0 -25 -22 -25h-258v143h-8zM365 1423l122 80l179 -299l-93 -59z" />
    <glyph glyph-name="aacute" unicode="&#xe1;" horiz-adv-x="1081" 
d="M752 348v164l-254 -41q-121 -20 -186.5 -68.5t-65.5 -138.5t57 -137t140 -47t153 36t113 97t43 135zM748 143q-122 -168 -353 -168q-121 0 -213 74t-92 212t102.5 209t270.5 95l289 43v90q0 100 -61.5 162t-172.5 62q-63 0 -142 -22.5t-130 -55.5l-17 -90
q-10 -59 -53 -60q-31 0 -31 27v186q82 49 189.5 82t206.5 33q160 0 262 -86t102 -240v-602l76 -20q55 -15 55 -49q0 -25 -22 -25h-258v143h-8zM410 1204l178 299l123 -80l-209 -278z" />
    <glyph glyph-name="acircumflex" unicode="&#xe2;" horiz-adv-x="1081" 
d="M752 348v164l-254 -41q-121 -20 -186.5 -68.5t-65.5 -138.5t57 -137t140 -47t153 36t113 97t43 135zM748 143q-122 -168 -353 -168q-121 0 -213 74t-92 212t102.5 209t270.5 95l289 43v90q0 100 -61.5 162t-172.5 62q-63 0 -142 -22.5t-130 -55.5l-17 -90
q-10 -59 -53 -60q-31 0 -31 27v186q82 49 189.5 82t206.5 33q160 0 262 -86t102 -240v-602l76 -20q55 -15 55 -49q0 -25 -22 -25h-258v143h-8zM268 1206l219 279h86l220 -279l-76 -61l-187 203l-186 -203z" />
    <glyph glyph-name="atilde" unicode="&#xe3;" horiz-adv-x="1081" 
d="M752 348v164l-254 -41q-121 -20 -186.5 -68.5t-65.5 -138.5t57 -137t140 -47t153 36t113 97t43 135zM748 143q-122 -168 -353 -168q-121 0 -213 74t-92 212t102.5 209t270.5 95l289 43v90q0 100 -61.5 162t-172.5 62q-63 0 -142 -22.5t-130 -55.5l-17 -90
q-10 -59 -53 -60q-31 0 -31 27v186q82 49 189.5 82t206.5 33q160 0 262 -86t102 -240v-602l76 -20q55 -15 55 -49q0 -25 -22 -25h-258v143h-8zM651 1163q-43 0 -121 36t-127 36t-122 -53l-58 75q104 95 195 95q39 0 123 -37q71 -35 121 -35t120 53l58 -78q-96 -92 -189 -92z
" />
    <glyph glyph-name="adieresis" unicode="&#xe4;" horiz-adv-x="1081" 
d="M752 348v164l-254 -41q-121 -20 -186.5 -68.5t-65.5 -138.5t57 -137t140 -47t153 36t113 97t43 135zM748 143q-122 -168 -353 -168q-121 0 -213 74t-92 212t102.5 209t270.5 95l289 43v90q0 100 -61.5 162t-172.5 62q-63 0 -142 -22.5t-130 -55.5l-17 -90
q-10 -59 -53 -60q-31 0 -31 27v186q82 49 189.5 82t206.5 33q160 0 262 -86t102 -240v-602l76 -20q55 -15 55 -49q0 -25 -22 -25h-258v143h-8zM645 1257q0 43 30 72t70.5 29t69.5 -29t29 -72t-29 -71.5t-69.5 -28.5t-70.5 28.5t-30 71.5zM252 1257q0 43 29.5 72t70.5 29
t70 -29t29 -72t-29 -71.5t-70 -28.5t-70.5 28.5t-29.5 71.5z" />
    <glyph glyph-name="aring" unicode="&#xe5;" horiz-adv-x="1081" 
d="M752 348v164l-254 -41q-121 -20 -186.5 -68.5t-65.5 -138.5t57 -137t140 -47t153 36t113 97t43 135zM748 143q-122 -168 -353 -168q-121 0 -213 74t-92 212t102.5 209t270.5 95l289 43v90q0 100 -61.5 162t-172.5 62q-63 0 -142 -22.5t-130 -55.5l-17 -90
q-10 -59 -53 -60q-31 0 -31 27v186q82 49 189.5 82t206.5 33q160 0 262 -86t102 -240v-602l76 -20q55 -15 55 -49q0 -25 -22 -25h-258v143h-8zM643 1302.5q0 45.5 -25.5 70t-66.5 24.5t-67.5 -24.5t-26.5 -70t26.5 -71t67.5 -25.5t66.5 25.5t25.5 71zM362 1302.5
q0 75.5 52.5 127t137.5 51.5t136 -51.5t51 -127t-51 -127t-137 -51.5t-137.5 51.5t-51.5 127z" />
    <glyph glyph-name="ae" unicode="&#xe6;" horiz-adv-x="1722" 
d="M246 258q0 -86 57 -132t139 -46t154 41t116 106.5t44 137.5l-11 84v49l-266 -41q-233 -38 -233 -199zM1491 639q0 127 -76 205t-205 78t-214 -88.5t-95 -251.5h582q8 33 8 57zM1217 1022q133 0 229 -54.5t147.5 -148.5t51.5 -211q0 -61 -27 -127h-717v-24
q2 -166 94 -273.5t243 -107.5t267 82q4 2 17.5 10t27.5 8t26.5 -14.5t12.5 -40.5t-63 -70q-126 -76 -280 -76q-309 0 -435 242q-55 -113 -162 -177.5t-241 -64.5t-226 72t-92 207t97.5 202.5t256.5 92.5l308 47v100q0 106 -64.5 166t-169.5 60q-63 0 -142 -22.5t-130 -55.5
l-17 -90q-10 -59 -53 -60q-31 0 -31 27v186q82 49 189.5 82t212.5 33t189.5 -52t121.5 -145q124 197 359 197z" />
    <glyph glyph-name="ccedilla" unicode="&#xe7;" horiz-adv-x="991" 
d="M549 -236q0 83 -92 109l39 107q-195 25 -305.5 163t-110.5 357q0 160 59.5 278.5t166 181t226.5 62.5t219 -37t150 -86v-182q0 -27 -33 -27q-40 0 -51 58l-18 100q-37 33 -100.5 52.5t-129.5 19.5q-152 0 -244 -110t-92 -310.5t95.5 -312t244.5 -111.5t218 50t84 50
t27.5 -14.5t12.5 -34.5q0 -39 -67 -78q-119 -68 -248 -74l-35 -77q100 -43 101 -138q0 -68 -69 -122t-163 -74l-24 61q139 46 139 139z" />
    <glyph glyph-name="egrave" unicode="&#xe8;" horiz-adv-x="1062" 
d="M829 625q0 141 -75.5 219t-203.5 78t-214 -95.5t-96 -259.5h581q8 18 8 58zM84 492q0 244 127 387t336 143t323.5 -117t114.5 -311q0 -63 -27 -129h-718q0 -188 96 -288.5t243 -100.5t265 82q4 2 17 10t29 8t28 -14.5t12 -34.5q0 -37 -64 -76q-126 -76 -282 -76
t-266.5 62.5t-172 179.5t-61.5 275zM362 1423l123 80l179 -299l-93 -59z" />
    <glyph glyph-name="eacute" unicode="&#xe9;" horiz-adv-x="1062" 
d="M829 625q0 141 -75.5 219t-203.5 78t-214 -95.5t-96 -259.5h581q8 18 8 58zM84 492q0 244 127 387t336 143t323.5 -117t114.5 -311q0 -63 -27 -129h-718q0 -188 96 -288.5t243 -100.5t265 82q4 2 17 10t29 8t28 -14.5t12 -34.5q0 -37 -64 -76q-126 -76 -282 -76
t-266.5 62.5t-172 179.5t-61.5 275zM403 1204l179 299l123 -80l-209 -278z" />
    <glyph glyph-name="ecircumflex" unicode="&#xea;" horiz-adv-x="1062" 
d="M829 625q0 141 -75.5 219t-203.5 78t-214 -95.5t-96 -259.5h581q8 18 8 58zM84 492q0 244 127 387t336 143t323.5 -117t114.5 -311q0 -63 -27 -129h-718q0 -188 96 -288.5t243 -100.5t265 82q4 2 17 10t29 8t28 -14.5t12 -34.5q0 -37 -64 -76q-126 -76 -282 -76
t-266.5 62.5t-172 179.5t-61.5 275zM283 1206l219 279h86l219 -279l-76 -61l-186 203l-187 -203z" />
    <glyph glyph-name="edieresis" unicode="&#xeb;" horiz-adv-x="1062" 
d="M829 625q0 141 -75.5 219t-203.5 78t-214 -95.5t-96 -259.5h581q8 18 8 58zM84 492q0 244 127 387t336 143t323.5 -117t114.5 -311q0 -63 -27 -129h-718q0 -188 96 -288.5t243 -100.5t265 82q4 2 17 10t29 8t28 -14.5t12 -34.5q0 -37 -64 -76q-126 -76 -282 -76
t-266.5 62.5t-172 179.5t-61.5 275zM641 1257q0 43 29.5 72t70.5 29t70 -29t29 -72t-29 -71.5t-70 -28.5t-70.5 28.5t-29.5 71.5zM248 1257q0 43 29.5 72t70.5 29t69.5 -29t28.5 -72t-28.5 -71.5t-69.5 -28.5t-70.5 28.5t-29.5 71.5z" />
    <glyph glyph-name="igrave" unicode="&#xec;" horiz-adv-x="595" 
d="M182 1001h219v-905l97 -22q55 -11 55 -49q0 -25 -25 -25h-385q-32 0 -32 41q0 55 71 55h66v809h-105q-33 0 -32 41q0 55 71 55zM94 1423l123 80l178 -299l-92 -59z" />
    <glyph glyph-name="iacute" unicode="&#xed;" horiz-adv-x="583" 
d="M100 946q0 55 72 55h219v-905l96 -22q56 -12 56 -49q0 -25 -25 -25h-385q-33 0 -33 41q0 55 72 55h66v809h-105q-33 0 -33 41zM154 1204l178 299l123 -80l-209 -278z" />
    <glyph glyph-name="icircumflex" unicode="&#xee;" horiz-adv-x="593" 
d="M186 1001h220v-905l96 -22q55 -11 55 -49q0 -25 -25 -25h-385q-32 0 -32 41q0 55 71 55h66v809h-105q-33 0 -32 41q0 55 71 55zM27 1206l219 279h86l219 -279l-76 -61l-186 203l-187 -203z" />
    <glyph glyph-name="idieresis" unicode="&#xef;" horiz-adv-x="641" 
d="M135 946q0 55 72 55h219v-905l96 -22q56 -12 56 -49q0 -25 -25 -25h-385q-33 0 -33 41q0 55 72 55h65v809h-104q-33 0 -33 41zM412 1257q0 43 29.5 72t70.5 29t69.5 -29t28.5 -72t-28.5 -71.5t-69.5 -28.5t-70.5 28.5t-29.5 71.5zM20 1257q0 43 30 72t71 29t69.5 -29
t28.5 -72t-28.5 -71.5t-69.5 -28.5t-71 28.5t-30 71.5z" />
    <glyph glyph-name="eth" unicode="&#xf0;" horiz-adv-x="1234" 
d="M573 731q-141 0 -220 -73.5t-79 -225.5t84 -247t217 -95q160 0 245 140.5t85 371.5q-66 53 -158 91t-174 38zM1071 671q0 -331 -127 -511t-377 -180q-127 0 -231.5 53t-165.5 156.5t-61 248.5q0 186 112.5 296t306.5 110t379 -127q0 274 -125 432l-231 -105l-39 86
l199 89q-125 96 -308 96q-74 0 -149 -19v107q82 20 156 20q266 0 430 -147l247 110l39 -83l-217 -99q162 -202 162 -533z" />
    <glyph glyph-name="ntilde" unicode="&#xf1;" horiz-adv-x="1277" 
d="M788 41q0 55 72 55h64v598q0 100 -59 160.5t-153 60.5q-178 0 -325 -163v-656l98 -22q56 -12 56 -49q0 -25 -25 -25h-385q-33 0 -33 41q0 55 72 55h63v809h-102q-33 0 -33 41q0 55 72 55h209v-143h6q174 164 358 164q145 0 239.5 -85t94.5 -230v-611l99 -22
q55 -12 55 -49q0 -25 -25 -25h-385q-33 0 -33 41zM780 1163q-43 0 -121 36t-128 36q-49 0 -121 -53l-58 75q104 95 195 95q39 0 123 -37q70 -35 120 -35t121 53l58 -78q-96 -92 -189 -92z" />
    <glyph glyph-name="ograve" unicode="&#xf2;" horiz-adv-x="1112" 
d="M874 499q0 202 -83.5 312.5t-234.5 110.5t-234.5 -111t-83.5 -313t84 -312t234 -110t234 110.5t84 312.5zM82 499q0 245 128 384t346 139t346 -140t128 -384t-128 -383.5t-347 -139.5t-346 139.5t-127 384.5zM381 1423l123 80l178 -299l-92 -59z" />
    <glyph glyph-name="oacute" unicode="&#xf3;" horiz-adv-x="1112" 
d="M874 499q0 202 -83.5 312.5t-234.5 110.5t-234.5 -111t-83.5 -313t84 -312t234 -110t234 110.5t84 312.5zM82 499q0 245 128 384t346 139t346 -140t128 -384t-128 -383.5t-347 -139.5t-346 139.5t-127 384.5zM428 1204l178 299l123 -80l-209 -278z" />
    <glyph glyph-name="ocircumflex" unicode="&#xf4;" horiz-adv-x="1112" 
d="M874 499q0 202 -83.5 312.5t-234.5 110.5t-234.5 -111t-83.5 -313t84 -312t234 -110t234 110.5t84 312.5zM82 499q0 245 128 384t346 139t346 -140t128 -384t-128 -383.5t-347 -139.5t-346 139.5t-127 384.5zM293 1206l219 279h86l219 -279l-76 -61l-186 203l-186 -203z
" />
    <glyph glyph-name="otilde" unicode="&#xf5;" horiz-adv-x="1112" 
d="M874 499q0 202 -83.5 312.5t-234.5 110.5t-234.5 -111t-83.5 -313t84 -312t234 -110t234 110.5t84 312.5zM82 499q0 245 128 384t346 139t346 -140t128 -384t-128 -383.5t-347 -139.5t-346 139.5t-127 384.5zM678 1163q-43 1 -100 27q-58 26 -83.5 35.5t-52.5 9.5
q-60 0 -135 -53l-57 75q104 95 194 95q39 0 123 -37q70 -35 121 -35t121 53l57 -78q-96 -92 -188 -92z" />
    <glyph glyph-name="odieresis" unicode="&#xf6;" horiz-adv-x="1112" 
d="M874 499q0 202 -83.5 312.5t-234.5 110.5t-234.5 -111t-83.5 -313t84 -312t234 -110t234 110.5t84 312.5zM82 499q0 245 128 384t346 139t346 -140t128 -384t-128 -383.5t-347 -139.5t-346 139.5t-127 384.5zM653 1257q0 43 30 72t71 29t69.5 -29t28.5 -72t-28.5 -71.5
t-69.5 -28.5t-71 28.5t-30 71.5zM260 1257q0 43 29.5 72t70.5 29t70 -29t29 -72t-29 -71.5t-70 -28.5t-70.5 28.5t-29.5 71.5z" />
    <glyph glyph-name="divide" unicode="&#xf7;" horiz-adv-x="1247" 
d="M526 258q0 43 29 70.5t70 27.5t69.5 -27.5t28.5 -70.5t-28.5 -70.5t-69.5 -27.5t-70 27.5t-29 70.5zM127 729h993v-129h-993v129zM526 1071q0 43 29 70.5t70 27.5t69.5 -27.5t28.5 -70.5t-28.5 -71.5t-69.5 -28.5t-70 28.5t-29 71.5z" />
    <glyph glyph-name="oslash" unicode="&#xf8;" horiz-adv-x="1095" 
d="M866 488q0 192 -67 298l-426 -657q76 -53 176 -53q149 0 233 110t84 302zM229 509q0 -191 70 -300l428 657q-70 55 -178 56q-152 0 -236 -111t-84 -302zM74 486q0 258 128 397t345 139q139 0 246 -59l88 137l88 -53l-95 -146q148 -140 148 -393q0 -254 -128 -393.5
t-347 -139.5q-135 0 -238 56l-110 -172l-90 57l114 176q-149 136 -149 394z" />
    <glyph glyph-name="ugrave" unicode="&#xf9;" horiz-adv-x="1222" 
d="M739 946q0 55 72 55h217v-905l82 -22q31 -10 43 -19.5t12 -29.5q0 -25 -24 -25h-258v139h-6q-174 -164 -357 -164q-145 0 -239.5 85t-94.5 233v612h-102q-33 0 -33 41q0 55 72 55h217v-696q0 -100 58.5 -161.5t152.5 -61.5q177 0 323 166v657h-102q-33 0 -33 41z
M373 1423l123 80l178 -299l-92 -59z" />
    <glyph glyph-name="uacute" unicode="&#xfa;" horiz-adv-x="1222" 
d="M739 946q0 55 72 55h217v-905l82 -22q55 -15 55 -49q0 -25 -24 -25h-258v139h-6q-174 -164 -357 -164q-145 0 -239.5 85t-94.5 233v612h-102q-33 0 -33 41q0 55 72 55h217v-696q0 -100 58.5 -161.5t152.5 -61.5q177 0 323 166v657h-102q-33 0 -33 41zM457 1204l178 299
l123 -80l-209 -278z" />
    <glyph glyph-name="ucircumflex" unicode="&#xfb;" horiz-adv-x="1222" 
d="M739 946q0 55 72 55h217v-905l82 -22q55 -15 55 -49q0 -25 -24 -25h-258v139h-6q-174 -164 -357 -164q-145 0 -239.5 85t-94.5 233v612h-102q-33 0 -33 41q0 55 72 55h217v-696q0 -100 58.5 -161.5t152.5 -61.5q177 0 323 166v657h-102q-33 0 -33 41zM311 1206l219 279
h86l220 -279l-76 -61l-187 203l-186 -203z" />
    <glyph glyph-name="udieresis" unicode="&#xfc;" horiz-adv-x="1222" 
d="M739 946q0 55 72 55h217v-905l82 -22q55 -15 55 -49q0 -25 -24 -25h-258v139h-6q-174 -164 -357 -164q-145 0 -239.5 85t-94.5 233v612h-102q-33 0 -33 41q0 55 72 55h217v-696q0 -100 58.5 -161.5t152.5 -61.5q177 0 323 166v657h-102q-33 0 -33 41zM690 1257
q0 43 30 72t70.5 29t69.5 -29t29 -72t-29 -71.5t-69.5 -28.5t-70.5 28.5t-30 71.5zM297 1257q0 43 29.5 72t70.5 29t70 -29t29 -72t-29 -71.5t-70 -28.5t-70.5 28.5t-29.5 71.5z" />
    <glyph glyph-name="yacute" unicode="&#xfd;" horiz-adv-x="1122" 
d="M14 946q0 55 72 55h346q25 0 25 -24q0 -18 -15.5 -31.5t-40.5 -17.5l-108 -25l270 -688q8 -19 8 -63h9q0 39 8 63l268 690h-127q-33 0 -33 41q0 55 72 55h322q23 0 22 -24q0 -33 -55 -49l-84 -25l-385 -989q-66 -166 -168.5 -270.5t-241.5 -104.5q-39 0 -64.5 20.5
t-25.5 53.5t14 59q145 0 227.5 53.5t133.5 186.5l33 88l-365 905h-84q-33 0 -33 41zM424 1204l178 299l123 -80l-209 -278z" />
    <glyph glyph-name="thorn" unicode="&#xfe;" horiz-adv-x="1251" 
d="M666 76q350 0 350 413q0 225 -86 329t-232 104q-78 0 -146.5 -34t-109.5 -92.5t-41 -127.5v-514q53 -35 128 -56.5t137 -21.5zM674 -25q-132 0 -273 64v-379l99 -22q55 -11 55 -50q0 -25 -25 -24h-385q-32 0 -32 41q0 55 71 55h64v1698h-103q-33 0 -32 41q0 55 71 55h213
v-584l6 -2q124 154 326 154q203 0 322.5 -133t119.5 -393t-138 -390.5t-359 -130.5z" />
    <glyph glyph-name="ydieresis" unicode="&#xff;" horiz-adv-x="1122" 
d="M14 946q0 55 72 55h346q25 0 25 -24q0 -18 -15.5 -31.5t-40.5 -17.5l-108 -25l270 -688q8 -19 8 -63h9q0 39 8 63l268 690h-127q-33 0 -33 41q0 55 72 55h322q23 0 22 -24q0 -33 -55 -49l-84 -25l-385 -989q-66 -166 -168.5 -270.5t-241.5 -104.5q-39 0 -64.5 20.5
t-25.5 53.5t14 59q145 0 227.5 53.5t133.5 186.5l33 88l-365 905h-84q-33 0 -33 41zM672 1257q0 43 29.5 72t70.5 29t69.5 -29t28.5 -72t-28.5 -71.5t-69.5 -28.5t-70.5 28.5t-29.5 71.5zM281 1257q0 43 29.5 72t70.5 29t69.5 -29t28.5 -72t-28.5 -71.5t-69.5 -28.5
t-70.5 28.5t-29.5 71.5z" />
    <glyph glyph-name="Amacron" unicode="&#x100;" horiz-adv-x="1456" 
d="M956 575l-254 709l-253 -709h507zM1004 0q-35 0 -35 35q0 65 75 65h84l-131 365h-587l-129 -363l120 -24q57 -10 58 -49q0 -29 -23 -29h-385q-35 0 -35 43q0 57 74 57h62l477 1323h188l477 -1321l90 -20q57 -12 58 -51q0 -31 -23 -31h-415zM426 1706h578v-113h-578v113z
" />
    <glyph glyph-name="amacron" unicode="&#x101;" horiz-adv-x="1081" 
d="M752 348v164l-254 -41q-121 -20 -186.5 -68.5t-65.5 -138.5t57 -137t140 -47t153 36t113 97t43 135zM748 143q-122 -168 -353 -168q-121 0 -213 74t-92 212t102.5 209t270.5 95l289 43v90q0 100 -61.5 162t-172.5 62q-63 0 -142 -22.5t-130 -55.5l-17 -90
q-10 -59 -53 -60q-31 0 -31 27v186q82 49 189.5 82t206.5 33q160 0 262 -86t102 -240v-602l76 -20q55 -15 55 -49q0 -25 -22 -25h-258v143h-8zM246 1303h577v-113h-577v113z" />
    <glyph glyph-name="Abreve" unicode="&#x102;" horiz-adv-x="1456" 
d="M956 575l-254 709l-253 -709h507zM1004 0q-35 0 -35 35q0 65 75 65h84l-131 365h-587l-129 -363l120 -24q57 -10 58 -49q0 -29 -23 -29h-385q-35 0 -35 43q0 57 74 57h62l477 1323h188l477 -1321l90 -20q57 -12 58 -51q0 -31 -23 -31h-415zM715 1640q76 0 129 46.5
t76 121.5l94 -32q-35 -127 -115 -186.5t-184.5 -59.5t-184 59.5t-114.5 186.5l94 32q23 -76 76 -122t129 -46z" />
    <glyph glyph-name="abreve" unicode="&#x103;" horiz-adv-x="1081" 
d="M752 348v164l-254 -41q-121 -20 -186.5 -68.5t-65.5 -138.5t57 -137t140 -47t153 36t113 97t43 135zM748 143q-122 -168 -353 -168q-121 0 -213 74t-92 212t102.5 209t270.5 95l289 43v90q0 100 -61.5 162t-172.5 62q-63 0 -142 -22.5t-130 -55.5l-17 -90
q-10 -59 -53 -60q-31 0 -31 27v186q82 49 189.5 82t206.5 33q160 0 262 -86t102 -240v-602l76 -20q55 -15 55 -49q0 -25 -22 -25h-258v143h-8zM534.5 1237q75.5 0 129 46t75.5 122l95 -33q-35 -127 -115 -186.5t-184.5 -59.5t-184.5 59.5t-114 186.5l94 33q23 -76 76 -122
t128.5 -46z" />
    <glyph glyph-name="Aogonek" unicode="&#x104;" horiz-adv-x="1456" 
d="M956 575l-254 709l-253 -709h507zM16 43q0 57 74 57h62l477 1323h188l477 -1321l90 -20q58 -15 58 -51q0 -31 -23 -31h-145q-63 -31 -110.5 -91.5t-47.5 -123.5t37 -94t89 -31t91 12l15 -69q-60 -27 -140 -27t-142 53.5t-62 135.5q0 153 151 235h-151q-35 0 -35 35
q0 65 75 65h84l-131 365h-587l-129 -363l120 -24q57 -10 58 -49q0 -29 -23 -29h-385q-35 0 -35 43z" />
    <glyph glyph-name="aogonek" unicode="&#x105;" horiz-adv-x="1081" 
d="M752 348v164l-254 -41q-121 -20 -186.5 -68.5t-65.5 -138.5t57 -137t140 -47t153 36t113 97t43 135zM748 143q-122 -168 -353 -168q-121 0 -213 74t-92 212t102.5 209t270.5 95l289 43v90q0 100 -61.5 162t-172.5 62q-63 0 -142 -22.5t-130 -55.5l-17 -90
q-10 -59 -53 -60q-31 0 -31 27v186q82 49 189.5 82t206.5 33q160 0 262 -86t102 -240v-602l76 -20q55 -15 55 -49q0 -25 -22 -25h-142q-63 -31 -110 -91.5t-47 -123.5t36.5 -94t88.5 -31t92 12l14 -69q-59 -27 -139 -27t-142.5 53.5t-62.5 135.5q0 152 152 235h2v143h-8z
" />
    <glyph glyph-name="Cacute" unicode="&#x106;" horiz-adv-x="1339" 
d="M96 712q0 237 87 402.5t237.5 249.5t341.5 84q135 0 255 -41t202 -109v-233q0 -31 -31 -31q-25 0 -38 17.5t-22 56.5l-28 141q-111 86 -293 86q-181 0 -298.5 -72.5t-182 -213t-64.5 -337t104 -410.5t462 -214q198 0 271 54.5t89 54.5t29.5 -15.5t13.5 -36.5
q0 -41 -60 -75q-153 -95 -369 -95t-372 84t-245 250t-89 403zM641 1599l178 299l123 -79l-209 -279z" />
    <glyph glyph-name="cacute" unicode="&#x107;" horiz-adv-x="991" 
d="M901 717q0 -27 -33 -27q-40 0 -51 58l-18 100q-37 33 -100.5 52.5t-129.5 19.5q-152 0 -244 -110t-92 -310.5t95.5 -312t244.5 -111.5t218 50t84 50t27.5 -14.5t12.5 -34.5q0 -39 -67 -78q-127 -74 -277 -74q-227 0 -359 141.5t-132 383.5q0 160 59.5 278.5t166 181
t226.5 62.5t219 -37t150 -86v-182zM416 1204l178 299l123 -80l-209 -278z" />
    <glyph glyph-name="Ccircumflex" unicode="&#x108;" horiz-adv-x="1339" 
d="M96 712q0 237 87 402.5t237.5 249.5t341.5 84q135 0 255 -41t202 -109v-233q0 -31 -31 -31q-25 0 -38 17.5t-22 56.5l-28 141q-111 86 -293 86q-181 0 -298.5 -72.5t-182 -213t-64.5 -337t104 -410.5t462 -214q198 0 271 54.5t89 54.5t29.5 -15.5t13.5 -36.5
q0 -41 -60 -75q-153 -95 -369 -95t-372 84t-245 250t-89 403zM475 1599l219 279h86l219 -279l-75 -61l-187 203l-186 -203z" />
    <glyph glyph-name="ccircumflex" unicode="&#x109;" horiz-adv-x="991" 
d="M901 717q0 -27 -33 -27q-40 0 -51 58l-18 100q-37 33 -100.5 52.5t-129.5 19.5q-152 0 -244 -110t-92 -310.5t95.5 -312t244.5 -111.5t218 50t84 50t27.5 -14.5t12.5 -34.5q0 -39 -67 -78q-127 -74 -277 -74q-227 0 -359 141.5t-132 383.5q0 160 59.5 278.5t166 181
t226.5 62.5t219 -37t150 -86v-182zM279 1206l219 279h86l219 -279l-76 -61l-186 203l-187 -203z" />
    <glyph glyph-name="Cdotaccent" unicode="&#x10a;" horiz-adv-x="1339" 
d="M96 712q0 237 87 402.5t237.5 249.5t341.5 84q135 0 255 -41t202 -109v-233q0 -31 -31 -31q-25 0 -38 17.5t-22 56.5l-28 141q-111 86 -293 86q-181 0 -298.5 -72.5t-182 -213t-64.5 -337t104 -410.5t462 -214q198 0 271 54.5t89 54.5t29.5 -15.5t13.5 -36.5
q0 -41 -60 -75q-153 -95 -369 -95t-372 84t-245 250t-89 403zM637 1673q0 43 29.5 72t70.5 29t71 -29t30 -72t-30 -71.5t-71 -28.5t-70.5 28.5t-29.5 71.5z" />
    <glyph glyph-name="cdotaccent" unicode="&#x10b;" horiz-adv-x="991" 
d="M901 717q0 -27 -33 -27q-40 0 -51 58l-18 100q-37 33 -100.5 52.5t-129.5 19.5q-152 0 -244 -110t-92 -310.5t95.5 -312t244.5 -111.5t218 50t84 50t27.5 -14.5t12.5 -34.5q0 -39 -67 -78q-127 -74 -277 -74q-227 0 -359 141.5t-132 383.5q0 160 59.5 278.5t166 181
t226.5 62.5t219 -37t150 -86v-182zM436 1231q0 43 30 71.5t71 28.5t70.5 -28.5t29.5 -71.5t-29.5 -72t-70.5 -29t-71 29t-30 72z" />
    <glyph glyph-name="Ccaron" unicode="&#x10c;" horiz-adv-x="1339" 
d="M96 712q0 237 87 402.5t237.5 249.5t341.5 84q135 0 255 -41t202 -109v-233q0 -31 -31 -31q-25 0 -38 17.5t-22 56.5l-28 141q-111 86 -293 86q-181 0 -298.5 -72.5t-182 -213t-64.5 -337t104 -410.5t462 -214q198 0 271 54.5t89 54.5t29.5 -15.5t13.5 -36.5
q0 -41 -60 -75q-153 -95 -369 -95t-372 84t-245 250t-89 403zM473 1817l76 61l186 -203l187 203l75 -61l-219 -279h-86z" />
    <glyph glyph-name="ccaron" unicode="&#x10d;" horiz-adv-x="991" 
d="M901 717q0 -27 -33 -27q-40 0 -51 58l-18 100q-37 33 -100.5 52.5t-129.5 19.5q-152 0 -244 -110t-92 -310.5t95.5 -312t244.5 -111.5t218 50t84 50t27.5 -14.5t12.5 -34.5q0 -39 -67 -78q-127 -74 -277 -74q-227 0 -359 141.5t-132 383.5q0 160 59.5 278.5t166 181
t226.5 62.5t219 -37t150 -86v-182zM281 1423l75 62l187 -203l186 203l76 -62l-219 -278h-86z" />
    <glyph glyph-name="Dcaron" unicode="&#x10e;" horiz-adv-x="1509" 
d="M733 111q240 0 375 157.5t135 442t-135 443.5t-375 159h-307v-1202h307zM147 0q-28 0 -28 31t18.5 45t59.5 22l67 13v1202l-67 12q-41 8 -59.5 22.5t-18.5 44.5t28 31h586q197 0 349.5 -77.5t240.5 -238.5t88 -397t-88 -395t-240.5 -237t-349.5 -78h-586zM449 1817l75 61
l187 -203l186 203l76 -61l-219 -279h-86z" />
    <glyph glyph-name="dcaron" unicode="&#x10f;" horiz-adv-x="1335" 
d="M850 348v469q-121 104 -272 105q-96 0 -173 -49.5t-123 -145.5t-46 -235q0 -197 85 -306.5t246 -109.5q117 0 200 76.5t83 195.5zM1124 1413q0 37 52 37q14 0 22 -2l154 -37q-59 -216 -181 -356l-71 45q39 57 70.5 130t37.5 120l-59 20q-25 6 -25 43zM80 486
q0 166 60.5 286.5t167 185t254.5 64.5t290 -94v430h-102q-33 0 -33 41q0 55 71 55h213v-1358l82 -22q56 -15 56 -49q0 -25 -23 -25h-258v139h-8q-109 -164 -320 -164q-124 0 -226.5 56.5t-163 172.5t-60.5 282z" />
    <glyph glyph-name="Dcroat" unicode="&#x110;" horiz-adv-x="1513" 
d="M737 111q240 0 375 157.5t135 442t-135 443.5t-375 159h-307v-531h391v-114h-391v-557h307zM152 0q-29 0 -29 35q0 47 78 63l67 13v557h-137v114h137v531l-67 12q-41 8 -59.5 22.5t-18.5 44.5t29 31h585q197 0 349.5 -77.5t240.5 -238.5t88 -397t-88 -395t-240.5 -237
t-349.5 -78h-585z" />
    <glyph glyph-name="dcroat" unicode="&#x111;" horiz-adv-x="1171" 
d="M852 348v469q-121 104 -272 105q-96 0 -173 -49.5t-123 -145.5t-46 -235q0 -197 85 -306.5t246 -109.5q117 0 200 76.5t83 195.5zM82 486q0 166 60.5 286.5t167 185t254.5 64.5t290 -94v225h-236v76h236v129h-102q-33 0 -33 41q0 55 72 55h213v-225h180v-76h-180v-1057
l81 -22q56 -15 56 -49q0 -25 -23 -25h-258v139h-8q-109 -164 -320 -164q-124 0 -226.5 56.5t-163 172.5t-60.5 282z" />
    <glyph glyph-name="Emacron" unicode="&#x112;" horiz-adv-x="1400" 
d="M147 0q-28 0 -28 35q0 49 78 63l67 13v1202l-67 12q-41 8 -59.5 22.5t-18.5 44.5t28 31h1084v-260q0 -29 -31 -28q-41 0 -57 84l-19 96h-696v-533h586l22 92q14 57 47 58q27 0 27 -27v-352q0 -29 -27 -29q-33 0 -47 58l-22 92h-586v-565h723l18 104q14 84 58 84
q31 0 30 -31v-266h-1110zM428 1706h578v-113h-578v113z" />
    <glyph glyph-name="emacron" unicode="&#x113;" horiz-adv-x="1062" 
d="M829 625q0 141 -75.5 219t-203.5 78t-214 -95.5t-96 -259.5h581q8 18 8 58zM84 492q0 244 127 387t336 143t323.5 -117t114.5 -311q0 -63 -27 -129h-718q0 -188 96 -288.5t243 -100.5t265 82q4 2 17 10t29 8t28 -14.5t12 -34.5q0 -37 -64 -76q-126 -76 -282 -76
t-266.5 62.5t-172 179.5t-61.5 275zM252 1303h577v-113h-577v113z" />
    <glyph glyph-name="Ebreve" unicode="&#x114;" horiz-adv-x="1400" 
d="M147 0q-28 0 -28 35q0 49 78 63l67 13v1202l-67 12q-41 8 -59.5 22.5t-18.5 44.5t28 31h1084v-260q0 -29 -31 -28q-41 0 -57 84l-19 96h-696v-533h586l22 92q14 57 47 58q27 0 27 -27v-352q0 -29 -27 -29q-33 0 -47 58l-22 92h-586v-565h723l18 104q14 84 58 84
q31 0 30 -31v-266h-1110zM706.5 1640q75.5 0 129 46.5t75.5 121.5l95 -32q-35 -127 -115 -186.5t-184.5 -59.5t-184.5 59.5t-114 186.5l94 32q23 -76 76 -122t128.5 -46z" />
    <glyph glyph-name="ebreve" unicode="&#x115;" horiz-adv-x="1062" 
d="M829 625q0 141 -75.5 219t-203.5 78t-214 -95.5t-96 -259.5h581q8 18 8 58zM84 492q0 244 127 387t336 143t323.5 -117t114.5 -311q0 -63 -27 -129h-718q0 -188 96 -288.5t243 -100.5t265 82q4 2 17 10t29 8t28 -14.5t12 -34.5q0 -37 -64 -76q-126 -76 -282 -76
t-266.5 62.5t-172 179.5t-61.5 275zM534.5 1237q75.5 0 129 46t75.5 122l95 -33q-35 -127 -115 -186.5t-184.5 -59.5t-184.5 59.5t-114 186.5l94 33q23 -76 76 -122t128.5 -46z" />
    <glyph glyph-name="Edotaccent" unicode="&#x116;" horiz-adv-x="1400" 
d="M147 0q-28 0 -28 35q0 49 78 63l67 13v1202l-67 12q-41 8 -59.5 22.5t-18.5 44.5t28 31h1084v-260q0 -29 -31 -28q-41 0 -57 84l-19 96h-696v-533h586l22 92q14 57 47 58q27 0 27 -27v-352q0 -29 -27 -29q-33 0 -47 58l-22 92h-586v-565h723l18 104q14 84 58 84
q31 0 30 -31v-266h-1110zM621 1673q0 43 29.5 72t70.5 29t70.5 -29t29.5 -72t-29.5 -71.5t-70.5 -28.5t-70.5 28.5t-29.5 71.5z" />
    <glyph glyph-name="edotaccent" unicode="&#x117;" horiz-adv-x="1062" 
d="M829 625q0 141 -75.5 219t-203.5 78t-214 -95.5t-96 -259.5h581q8 18 8 58zM84 492q0 244 127 387t336 143t323.5 -117t114.5 -311q0 -63 -27 -129h-718q0 -188 96 -288.5t243 -100.5t265 82q4 2 17 10t29 8t28 -14.5t12 -34.5q0 -37 -64 -76q-126 -76 -282 -76
t-266.5 62.5t-172 179.5t-61.5 275zM440 1231q0 43 30 71.5t71 28.5t70.5 -28.5t29.5 -71.5t-29.5 -72t-70.5 -29t-71 29t-30 72z" />
    <glyph glyph-name="Eogonek" unicode="&#x118;" horiz-adv-x="1400" 
d="M119 1392q0 30 28 31h1084v-260q0 -29 -31 -28q-41 0 -57 84l-19 96h-696v-533h586l22 92q14 57 47 58q27 0 27 -27v-352q0 -29 -27 -29q-33 0 -47 58l-22 92h-586v-565h723l18 104q14 84 58 84q31 0 30 -31v-266h-75q-63 -31 -110.5 -91.5t-47.5 -123.5t37 -94t88 -31
t92 12l14 -69q-59 -27 -118 -27q-101 0 -163.5 53.5t-62.5 135.5q0 152 152 235h-916q-28 0 -28 31t18.5 45t59.5 22l67 13v1202l-67 12q-41 8 -59.5 22.5t-18.5 44.5z" />
    <glyph glyph-name="eogonek" unicode="&#x119;" horiz-adv-x="1062" 
d="M829 625q0 141 -75.5 219t-203.5 78t-214 -95.5t-96 -259.5h581q8 18 8 58zM428 -223q0 120 113 198q-207 10 -332 148.5t-125 375.5t127 380t336 143t323.5 -117t114.5 -311q0 -63 -27 -129h-718q0 -188 96 -288.5t244 -100.5q122 0 229 62q39 22 52 30t29 8t28 -14.5
t12 -34.5q0 -35 -78 -83t-186 -62q-53 -35 -89 -88.5t-36 -113t36.5 -90t88.5 -30.5t92 12l14 -69q-59 -27 -139 -27t-142.5 53.5t-62.5 147.5z" />
    <glyph glyph-name="Ecaron" unicode="&#x11a;" horiz-adv-x="1400" 
d="M147 0q-28 0 -28 35q0 49 78 63l67 13v1202l-67 12q-41 8 -59.5 22.5t-18.5 44.5t28 31h1084v-260q0 -29 -31 -28q-41 0 -57 84l-19 96h-696v-533h586l22 92q14 57 47 58q27 0 27 -27v-352q0 -29 -27 -29q-33 0 -47 58l-22 92h-586v-565h723l18 104q14 84 58 84
q31 0 30 -31v-266h-1110zM446 1817l76 61l187 -203l186 203l76 -61l-219 -279h-86z" />
    <glyph glyph-name="ecaron" unicode="&#x11b;" horiz-adv-x="1062" 
d="M829 625q0 141 -75.5 219t-203.5 78t-214 -95.5t-96 -259.5h581q8 18 8 58zM84 492q0 244 127 387t336 143t323.5 -117t114.5 -311q0 -63 -27 -129h-718q0 -188 96 -288.5t243 -100.5t265 82q4 2 17 10t29 8t28 -14.5t12 -34.5q0 -37 -64 -76q-126 -76 -282 -76
t-266.5 62.5t-172 179.5t-61.5 275zM268 1423l76 62l186 -203l187 203l76 -62l-220 -278h-86z" />
    <glyph glyph-name="Gcircumflex" unicode="&#x11c;" horiz-adv-x="1470" 
d="M811 651q0 58 74 58h475q22 -1 22 -23t-12 -33.5t-41 -19.5l-98 -25v-530q-90 -49 -211 -76t-232 -27q-202 0 -357 82t-242 247t-87 405t86 405.5t236.5 249.5t341.5 84q135 0 257 -41t202 -109v-233q0 -31 -31 -31q-25 0 -38 17.5t-21 56.5l-29 141q-111 86 -315 86
q-242 0 -382.5 -163.5t-140.5 -458.5q0 -199 64.5 -339.5t182.5 -213t275 -72.5t277 55v467h-223q-33 0 -33 41zM494 1599l219 279h86l219 -279l-76 -61l-186 203l-187 -203z" />
    <glyph glyph-name="gcircumflex" unicode="&#x11d;" horiz-adv-x="1128" 
d="M236 492q0 -197 86 -306.5t243 -109.5q76 0 141.5 34.5t105.5 97t40 140.5v488q-115 86 -268 86q-96 0 -175 -48.5t-126 -145.5t-47 -236zM80 491.5q0 172.5 67.5 292t181 179t239.5 59.5t242 -43t196 -111v-929q0 -195 -114 -302.5t-317 -107.5t-339 80q-68 41 -68 70.5
t12.5 42t27.5 12.5t63 -30q47 -30 125.5 -51.5t158.5 -21.5q303 0 303 285v217h-8q-112 -158 -322 -158q-123 0 -225 56.5t-162.5 172t-60.5 288zM315 1206l220 279h86l219 -279l-76 -61l-186 203l-187 -203z" />
    <glyph glyph-name="Gbreve" unicode="&#x11e;" horiz-adv-x="1470" 
d="M811 651q0 58 74 58h475q22 -1 22 -23t-12 -33.5t-41 -19.5l-98 -25v-530q-90 -49 -211 -76t-232 -27q-202 0 -357 82t-242 247t-87 405t86 405.5t236.5 249.5t341.5 84q135 0 257 -41t202 -109v-233q0 -31 -31 -31q-25 0 -38 17.5t-21 56.5l-29 141q-111 86 -315 86
q-242 0 -382.5 -163.5t-140.5 -458.5q0 -199 64.5 -339.5t182.5 -213t275 -72.5t277 55v467h-223q-33 0 -33 41zM749.5 1640q75.5 0 129 46.5t75.5 121.5l95 -32q-35 -127 -115 -186.5t-184.5 -59.5t-184.5 59.5t-114 186.5l94 32q23 -76 76 -122t128.5 -46z" />
    <glyph glyph-name="gbreve" unicode="&#x11f;" horiz-adv-x="1128" 
d="M236 492q0 -197 86 -306.5t243 -109.5q76 0 141.5 34.5t105.5 97t40 140.5v488q-115 86 -268 86q-96 0 -175 -48.5t-126 -145.5t-47 -236zM80 491.5q0 172.5 67.5 292t181 179t239.5 59.5t242 -43t196 -111v-929q0 -195 -114 -302.5t-317 -107.5t-339 80q-68 41 -68 70.5
t12.5 42t27.5 12.5t63 -30q47 -30 125.5 -51.5t158.5 -21.5q303 0 303 285v217h-8q-112 -158 -322 -158q-123 0 -225 56.5t-162.5 172t-60.5 288zM573.5 1237q75.5 0 129 46t75.5 122l94 -33q-35 -127 -114.5 -186.5t-184 -59.5t-184.5 59.5t-115 186.5l95 33
q23 -76 76 -122t128.5 -46z" />
    <glyph glyph-name="Gdotaccent" unicode="&#x120;" horiz-adv-x="1470" 
d="M811 651q0 58 74 58h475q22 -1 22 -23t-12 -33.5t-41 -19.5l-98 -25v-530q-90 -49 -211 -76t-232 -27q-202 0 -357 82t-242 247t-87 405t86 405.5t236.5 249.5t341.5 84q135 0 257 -41t202 -109v-233q0 -31 -31 -31q-25 0 -38 17.5t-21 56.5l-29 141q-111 86 -315 86
q-242 0 -382.5 -163.5t-140.5 -458.5q0 -199 64.5 -339.5t182.5 -213t275 -72.5t277 55v467h-223q-33 0 -33 41zM653 1673q0 43 30 72t71 29t70.5 -29t29.5 -72t-29.5 -71.5t-70.5 -28.5t-71 28.5t-30 71.5z" />
    <glyph glyph-name="gdotaccent" unicode="&#x121;" horiz-adv-x="1128" 
d="M236 492q0 -197 86 -306.5t243 -109.5q76 0 141.5 34.5t105.5 97t40 140.5v488q-115 86 -268 86q-96 0 -175 -48.5t-126 -145.5t-47 -236zM80 491.5q0 172.5 67.5 292t181 179t239.5 59.5t242 -43t196 -111v-929q0 -195 -114 -302.5t-317 -107.5t-339 80q-68 41 -68 70.5
t12.5 42t27.5 12.5t63 -30q47 -30 125.5 -51.5t158.5 -21.5q303 0 303 285v217h-8q-112 -158 -322 -158q-123 0 -225 56.5t-162.5 172t-60.5 288zM473 1231q0 43 29.5 71.5t70.5 28.5t71 -28.5t30 -71.5t-30 -72t-71 -29t-70.5 29t-29.5 72z" />
    <glyph glyph-name="Gcommaaccent" unicode="&#x122;" horiz-adv-x="1470" 
d="M645 -129q0 37 51 37q14 0 23 -2l153 -37q-59 -218 -180 -356l-71 45q39 57 70.5 129.5t37.5 119.5l-59 21q-25 6 -25 43zM811 651q0 58 74 58h475q22 -1 22 -23t-12 -33.5t-41 -19.5l-98 -25v-530q-90 -49 -211 -76t-232 -27q-202 0 -357 82t-242 247t-87 405t86 405.5
t236.5 249.5t341.5 84q135 0 257 -41t202 -109v-233q0 -31 -31 -31q-25 0 -38 17.5t-21 56.5l-29 141q-111 86 -315 86q-242 0 -382.5 -163.5t-140.5 -458.5q0 -199 64.5 -339.5t182.5 -213t275 -72.5t277 55v467h-223q-33 0 -33 41z" />
    <glyph glyph-name="gcommaaccent" unicode="&#x123;" horiz-adv-x="1128" 
d="M236 492q0 -197 86 -306.5t243 -109.5q76 0 141.5 34.5t105.5 97t40 140.5v488q-115 86 -268 86q-96 0 -175 -48.5t-126 -145.5t-47 -236zM80 491.5q0 172.5 67.5 292t181 179t239.5 59.5t242 -43t196 -111v-929q0 -195 -114 -302.5t-317 -107.5t-339 80q-68 41 -68 70.5
t12.5 42t27.5 12.5t63 -30q47 -30 125.5 -51.5t158.5 -21.5q303 0 303 285v217h-8q-112 -158 -322 -158q-123 0 -225 56.5t-162.5 172t-60.5 288zM690 1120q-14 0 -22 2l-152 37q58 213 180 357l72 -46q-39 -55 -70.5 -127.5t-38.5 -121.5l60 -21q25 -6 24 -31
q0 -49 -53 -49z" />
    <glyph glyph-name="Hcircumflex" unicode="&#x124;" horiz-adv-x="1640" 
d="M1061 43q0 57 74 57h75v584h-788v-582l102 -24q58 -15 58 -51q0 -27 -25 -27h-403q-35 0 -35 43q0 57 76 57h63v1223h-104q-35 0 -35 43q0 57 74 57h364q25 0 25 -26q0 -36 -58 -51l-102 -25v-526h788v528h-114q-35 0 -35 43q0 57 74 57h364q23 0 23 -23q0 -41 -49 -52
l-99 -27v-1219l99 -26q49 -12 49 -49q0 -27 -23 -27h-403q-35 0 -35 43zM557 1599l219 279h86l219 -279l-75 -61l-187 203l-186 -203z" />
    <glyph glyph-name="hcircumflex" unicode="&#x125;" horiz-adv-x="1284" 
d="M866 96h64v600q0 100 -58.5 161t-152.5 61q-178 0 -326 -164v-658l99 -22q55 -11 55 -49q0 -25 -25 -25h-385q-33 0 -33 41q0 55 72 55h64v1262h-103q-33 0 -33 41q0 55 72 55h211v-590l6 -2q170 160 357 160q145 0 239 -85t94 -230v-611l99 -22q55 -11 55 -49
q0 -25 -25 -25h-385q-33 0 -32 41q0 55 71 55zM438 1573l219 278h86l220 -278l-76 -62l-187 203l-186 -203z" />
    <glyph glyph-name="Hbar" unicode="&#x126;" horiz-adv-x="1644" 
d="M1212 795v217h-788v-217h788zM1063 43q0 57 74 57h75v584h-788v-582l102 -24q58 -15 58 -51q0 -27 -25 -27h-403q-35 0 -35 43q0 57 76 57h63v912h-139v104h139v207h-104q-35 0 -35 43q0 57 74 57h364q25 0 25 -26q0 -36 -58 -51l-102 -25v-205h788v207h-114
q-35 0 -35 43q0 57 74 57h364q23 0 23 -26q0 -37 -49 -49l-99 -27v-205h148v-104h-148v-910l99 -26q49 -11 49 -49q0 -27 -23 -27h-403q-35 0 -35 43z" />
    <glyph glyph-name="hbar" unicode="&#x127;" horiz-adv-x="1286" 
d="M868 96h64v600q0 100 -58.5 161t-152.5 61q-178 0 -326 -164v-658l99 -22q55 -11 55 -49q0 -25 -25 -25h-385q-33 0 -33 41q0 55 72 55h64v1057h-136v76h136v129h-103q-33 0 -33 41q0 55 72 55h211v-225h381v-76h-381v-289l6 -2q170 160 357 160q145 0 239 -85t94 -230
v-611l99 -22q55 -11 55 -49q0 -25 -25 -25h-385q-33 0 -32 41q0 55 71 55z" />
    <glyph glyph-name="Itilde" unicode="&#x128;" horiz-adv-x="700" 
d="M133 1366q0 57 74 57h364q25 0 25 -26q0 -36 -57 -51l-103 -25v-1219l103 -24q57 -15 57 -51q0 -27 -25 -27h-403q-35 0 -35 43q0 57 76 57h63v1223h-104q-35 0 -35 43zM471 1561q-45 -1 -122 35t-127 36t-122 -53l-57 76q103 94 195 94q42 0 117 -36t126 -36t121 54
l57 -78q-96 -92 -188 -92z" />
    <glyph glyph-name="itilde" unicode="&#x129;" horiz-adv-x="636" 
d="M137 946q0 55 72 55h219v-905l96 -22q56 -12 56 -49q0 -25 -25 -25h-385q-33 0 -33 41q0 55 72 55h65v809h-104q-33 0 -33 41zM434 1163q-43 0 -121 36t-126 36t-124 -53l-57 75q104 95 195 95q39 0 123 -37q70 -35 120 -35t121 53l58 -78q-96 -92 -189 -92z" />
    <glyph glyph-name="Imacron" unicode="&#x12a;" horiz-adv-x="643" 
d="M92 1366q0 57 74 57h364q25 0 25 -26q0 -36 -57 -51l-103 -25v-1219l103 -24q57 -15 57 -51q0 -27 -25 -27h-403q-35 0 -35 43q0 57 76 57h63v1223h-104q-35 0 -35 43zM31 1706h577v-113h-577v113z" />
    <glyph glyph-name="imacron" unicode="&#x12b;" horiz-adv-x="616" 
d="M106 946q0 55 72 55h219v-905l97 -22q55 -11 55 -49q0 -25 -25 -25h-385q-33 0 -33 41q0 55 72 55h66v809h-105q-33 0 -33 41zM6 1303h578v-113h-578v113z" />
    <glyph glyph-name="Ibreve" unicode="&#x12c;" horiz-adv-x="688" 
d="M125 1366q0 57 74 57h364q25 0 25 -26q0 -36 -58 -51l-102 -25v-1219l102 -24q58 -15 58 -51q0 -27 -25 -27h-403q-35 0 -35 43q0 57 76 57h63v1223h-104q-35 0 -35 43zM344 1640q76 0 129 46.5t76 121.5l94 -32q-35 -127 -114.5 -186.5t-184 -59.5t-184.5 59.5
t-115 186.5l94 32q23 -76 76 -122t129 -46z" />
    <glyph glyph-name="ibreve" unicode="&#x12d;" horiz-adv-x="634" 
d="M123 946q0 55 72 55h219v-905l96 -22q55 -11 55 -49q0 -25 -24 -25h-385q-33 0 -33 41q0 55 72 55h65v809h-104q-33 0 -33 41zM309 1237q76 0 129.5 46t75.5 122l94 -33q-35 -127 -114.5 -186.5t-184 -59.5t-184.5 59.5t-115 186.5l94 33q23 -76 76 -122t129 -46z" />
    <glyph glyph-name="Iogonek" unicode="&#x12e;" horiz-adv-x="724" 
d="M133 1366q0 57 74 57h364q25 0 25 -26q0 -39 -57 -51l-103 -25v-1219l103 -24q57 -15 57 -51q0 -27 -25 -27h-151q-63 -31 -110.5 -91.5t-47.5 -123.5t37 -94t89 -31t91 12l15 -69q-60 -27 -140 -27t-142 53.5t-62 135.5q0 153 151 235h-133q-35 0 -35 43q0 57 76 57h63
v1223h-104q-35 0 -35 43z" />
    <glyph glyph-name="iogonek" unicode="&#x12f;" horiz-adv-x="673" 
d="M129 946q0 55 72 55h219v-905l96 -22q55 -11 55 -49q0 -25 -24 -25h-139q-63 -31 -110.5 -91.5t-47.5 -123.5t37 -94t89 -31t91 12l14 -69q-59 -27 -139 -27t-142.5 53.5t-62.5 135.5q0 152 152 235h-127q-33 0 -33 41q0 55 72 55h65v809h-104q-33 0 -33 41zM227 1278
q0 51 32 81t79 30t80 -30t33 -81t-33 -81t-80 -30t-79 30t-32 81z" />
    <glyph glyph-name="Idotaccent" unicode="&#x130;" horiz-adv-x="727" 
d="M133 1366q0 57 74 57h364q25 0 25 -26q0 -36 -57 -51l-103 -25v-1219l103 -24q57 -15 57 -51q0 -27 -25 -27h-403q-35 0 -35 43q0 57 76 57h63v1223h-104q-35 0 -35 43zM260 1673q0 43 29.5 72t70.5 29t71 -29t30 -72t-30 -71.5t-71 -28.5t-70.5 28.5t-29.5 71.5z" />
    <glyph glyph-name="dotlessi" unicode="&#x131;" horiz-adv-x="702" 
d="M131 946q0 55 72 55h219v-905l96 -22q55 -11 55 -49q0 -25 -24 -25h-385q-33 0 -33 41q0 55 72 55h65v809h-104q-33 0 -33 41z" />
    <glyph glyph-name="IJ" unicode="&#x132;" horiz-adv-x="1433" 
d="M862 1366q0 57 74 57h381q23 0 23 -23t-13.5 -34.5t-42.5 -19.5l-102 -25v-856q0 -338 -264 -463q-62 -27 -102 -27q-88 0 -91 115q162 53 227.5 139t65.5 246v848h-121q-35 0 -35 43zM129 1366q0 57 74 57h364q25 0 25 -26q0 -36 -57 -51l-103 -25v-1219l103 -24
q57 -15 57 -51q0 -27 -25 -27h-403q-35 0 -35 43q0 57 76 57h63v1223h-104q-35 0 -35 43z" />
    <glyph glyph-name="ij" unicode="&#x133;" horiz-adv-x="1056" 
d="M760 31v874h-105q-33 0 -32 41q0 55 73 55h217v-983q0 -348 -264 -462q-56 -27 -94 -27q-37 0 -61.5 27.5t-26.5 87.5q162 53 227.5 139t65.5 248zM88 946q0 55 72 55h219v-905l96 -22q55 -11 55 -49q0 -25 -24 -25h-385q-33 0 -33 41q0 55 72 55h65v809h-104
q-33 0 -33 41zM717 1278q0 51 31.5 81t78.5 30t80 -30t33 -81t-33 -81t-80 -30t-78.5 30t-31.5 81zM186 1278q0 51 32 81t79 30t80 -30t33 -81t-33 -81t-80 -30t-79 30t-32 81z" />
    <glyph glyph-name="Jcircumflex" unicode="&#x134;" horiz-adv-x="800" 
d="M215 1366q0 57 74 57h381q22 0 22 -23t-13 -34.5t-42 -19.5l-102 -25v-856q0 -348 -265 -463q-59 -27 -100 -27q-88 0 -92 115q162 53 227.5 139t65.5 246v848h-121q-35 0 -35 43zM186 1599l220 279h86l219 -279l-76 -61l-186 203l-187 -203z" />
    <glyph glyph-name="jcircumflex" unicode="&#x135;" horiz-adv-x="647" 
d="M313 31v874h-104q-33 0 -33 41q0 55 74 55h217v-983q0 -348 -264 -462q-56 -27 -94 -27q-37 0 -61.5 27.5t-27.5 87.5q162 53 227.5 139t65.5 248zM80 1206l219 279h86l219 -279l-76 -61l-186 203l-186 -203z" />
    <glyph glyph-name="Kcommaaccent" unicode="&#x136;" horiz-adv-x="1400" 
d="M610 -129q0 37 52 37q14 0 22 -2l154 -37q-59 -216 -181 -356l-71 45q39 57 70.5 129.5t37.5 119.5l-59 21q-25 6 -25 43zM582 27q0 -27 -25 -27h-403q-35 0 -35 43q0 57 76 57h63v1223h-104q-35 0 -35 43q0 57 74 57h362q25 0 25 -26q0 -36 -56 -51l-102 -25v-590
l622 592h-133q-35 0 -35 35q1 65 76 65h363q27 0 26 -32q0 -45 -57 -54l-80 -12l-600 -571l615 -656l102 -20q57 -12 57 -51q0 -27 -24 -27h-269l-663 731v-629l102 -24q58 -15 58 -51z" />
    <glyph glyph-name="kcommaaccent" unicode="&#x137;" horiz-adv-x="1191" 
d="M518 -129q0 37 51 37q14 0 23 -2l153 -37q-59 -218 -180 -356l-71 45q39 57 70.5 129.5t37.5 119.5l-59 21q-25 6 -25 43zM639 944q0 57 76 57h338q27 0 26 -32q0 -42 -59 -51l-82 -17l-373 -348l424 -457l90 -20q59 -12 60 -49q0 -27 -25 -27h-244l-477 530v-434l96 -22
q55 -12 56 -49q0 -25 -25 -25h-383q-33 0 -33 41q0 55 72 55h64v1262h-103q-33 0 -33 41q0 55 72 55h217v-924l404 371h-123q-35 0 -35 43z" />
    <glyph glyph-name="kgreenlandic" unicode="&#x138;" horiz-adv-x="1218" 
d="M741 1001h338q27 0 27 -32q0 -39 -59 -51l-82 -17l-373 -348l424 -457l90 -20q59 -15 59 -49q0 -27 -24 -27h-244l-477 530v-434l96 -22q31 -8 43 -18.5t12 -30.5q0 -25 -24 -25h-383q-33 0 -33 41q0 55 72 55h63v809h-102q-33 0 -33 41q0 55 72 55h217v-471l403 371
h-123q-35 0 -34 43q0 57 75 57z" />
    <glyph glyph-name="Lacute" unicode="&#x139;" horiz-adv-x="1226" 
d="M147 0q-28 0 -28 31t18.5 45t59.5 22l67 13v1212h-106q-35 0 -35 43q0 57 74 57h372q25 0 25 -26q0 -39 -57 -51l-109 -25v-1210h645l27 129q16 84 57 84q31 0 31 -31v-293h-1041zM207 1597l178 299l123 -79l-209 -279z" />
    <glyph glyph-name="lacute" unicode="&#x13a;" horiz-adv-x="595" 
d="M90 1399q0 55 72 55h217v-1358l98 -22q55 -11 55 -49q0 -25 -24 -25h-385q-33 0 -33 41q0 55 72 55h63v1262h-102q-33 0 -33 41zM141 1620l178 299l123 -80l-209 -278z" />
    <glyph glyph-name="Lcommaaccent" unicode="&#x13b;" horiz-adv-x="1226" 
d="M600 -129q0 37 51 37q14 0 23 -2l153 -37q-59 -218 -180 -356l-72 45q39 57 71 129.5t38 119.5l-59 21q-25 6 -25 43zM147 0q-28 0 -28 31t18.5 45t59.5 22l67 13v1212h-106q-35 0 -35 43q0 57 74 57h372q25 0 25 -26q0 -39 -57 -51l-109 -25v-1210h645l27 129
q16 84 57 84q31 0 31 -31v-293h-1041z" />
    <glyph glyph-name="lcommaaccent" unicode="&#x13c;" horiz-adv-x="593" 
d="M178 -129q0 37 51 37q14 0 23 -2l154 -37q-59 -216 -181 -356l-71 45q39 57 70.5 129.5t37.5 119.5l-59 21q-25 6 -25 43zM96 1399q0 55 72 55h217v-1358l98 -22q56 -12 56 -49q0 -25 -25 -25h-385q-33 0 -33 41q0 55 72 55h63v1262h-102q-33 0 -33 41z" />
    <glyph glyph-name="Lcaron" unicode="&#x13d;" horiz-adv-x="1226" 
d="M147 0q-28 0 -28 31t18.5 45t59.5 22l67 13v1212h-106q-35 0 -35 43q0 57 74 57h372q25 0 25 -26q0 -39 -57 -51l-109 -25v-1210h645l27 129q16 84 57 84q31 0 31 -31v-293h-1041zM772 1403q0 37 51 37q14 0 23 -2l153 -37q-59 -216 -180 -357l-71 46q39 57 70.5 129.5
t37.5 119.5l-59 21q-25 6 -25 43z" />
    <glyph glyph-name="lcaron" unicode="&#x13e;" horiz-adv-x="774" 
d="M180 1454h217v-1358l99 -22q55 -11 55 -49q0 -25 -25 -25h-385q-32 0 -32 41q0 55 71 55h64v1262h-103q-33 0 -32 41q0 55 71 55zM516 1417q0 37 51 37q14 0 23 -2l153 -37q-59 -218 -180 -356l-71 45q39 57 70.5 130t37.5 120l-59 20q-25 6 -25 43z" />
    <glyph glyph-name="Ldot" unicode="&#x13f;" horiz-adv-x="1226" 
d="M791 779q0 44 29.5 73t71.5 29t70.5 -29t28.5 -73t-29.5 -72.5t-70.5 -28.5t-70.5 28.5t-29.5 72.5zM147 0q-28 0 -28 31t18.5 45t59.5 22l67 13v1212h-106q-35 0 -35 43q0 57 74 57h372q25 0 25 -26q0 -39 -57 -51l-109 -25v-1210h645l27 129q16 84 57 84q31 0 31 -31
v-293h-1041z" />
    <glyph glyph-name="ldot" unicode="&#x140;" horiz-adv-x="788" 
d="M557 721q0 43 29.5 71.5t70.5 28.5t71 -28.5t30 -71.5t-30 -71.5t-71 -28.5t-70.5 28.5t-29.5 71.5zM180 1454h217v-1358l99 -22q55 -11 55 -49q0 -25 -25 -25h-385q-32 0 -32 41q0 55 71 55h64v1262h-103q-33 0 -32 41q0 55 71 55z" />
    <glyph glyph-name="Lslash" unicode="&#x141;" horiz-adv-x="1263" 
d="M184 0q-28 0 -28 31t18.5 45t58.5 22l68 13v477l-125 -78l-55 96l180 111v606h-106q-35 0 -35 43q0 57 73 57h373q25 0 25 -26q0 -36 -58 -51l-108 -25v-504l295 182l57 -94l-352 -217v-577h645l27 129q16 84 57 84q31 0 31 -31v-293h-1041z" />
    <glyph glyph-name="lslash" unicode="&#x142;" horiz-adv-x="657" 
d="M127 1399q0 55 72 55h217v-651l159 98l54 -90l-213 -133v-582l98 -22q33 -8 44 -18.5t11 -30.5q0 -25 -24 -25h-385q-33 0 -33 41q0 55 72 55h63v488l-110 -70l-56 92l166 103v649h-102q-33 0 -33 41z" />
    <glyph glyph-name="Nacute" unicode="&#x143;" horiz-adv-x="1613" 
d="M1065 1366q0 57 74 57h338q23 0 22 -26q0 -38 -59 -54l-88 -22v-1321h-154l-713 1028q-51 74 -96 180v-1106l109 -24q55 -11 55 -51q0 -27 -23 -27h-376q-35 0 -35 43q0 57 76 57h65v1213l-65 10q-76 11 -76 63q0 37 31 37h262l700 -1009q59 -86 111 -203v1112h-123
q-35 0 -35 43zM672 1597l178 299l123 -79l-209 -279z" />
    <glyph glyph-name="nacute" unicode="&#x144;" horiz-adv-x="1277" 
d="M788 41q0 55 72 55h64v598q0 100 -59 160.5t-153 60.5q-178 0 -325 -163v-656l98 -22q56 -12 56 -49q0 -25 -25 -25h-385q-33 0 -33 41q0 55 72 55h63v809h-102q-33 0 -33 41q0 55 72 55h209v-143h6q174 164 358 164q145 0 239.5 -85t94.5 -230v-611l99 -22
q55 -12 55 -49q0 -25 -25 -25h-385q-33 0 -33 41zM498 1204l178 299l123 -80l-209 -278z" />
    <glyph glyph-name="Ncommaaccent" unicode="&#x145;" horiz-adv-x="1613" 
d="M750 -92q20 0 28 -2l154 -37q-58 -214 -180 -356l-72 45q39 57 70.5 129.5t37.5 119.5l-59 21q-25 6 -24.5 30.5t13 37t32.5 12.5zM1065 1366q0 57 74 57h338q23 0 22 -26q0 -38 -59 -54l-88 -22v-1321h-154l-713 1028q-51 74 -96 180v-1106l109 -24q55 -11 55 -51
q0 -27 -23 -27h-376q-35 0 -35 43q0 57 76 57h65v1213l-65 10q-76 11 -76 63q0 37 31 37h262l700 -1009q59 -86 111 -203v1112h-123q-35 0 -35 43z" />
    <glyph glyph-name="ncommaaccent" unicode="&#x146;" horiz-adv-x="1277" 
d="M555 -129q0 37 51 37q14 0 23 -2l153 -37q-59 -218 -180 -356l-72 45q39 57 71 129.5t38 119.5l-59 21q-25 6 -25 43zM788 41q0 55 72 55h64v598q0 100 -59 160.5t-153 60.5q-178 0 -325 -163v-656l98 -22q56 -12 56 -49q0 -25 -25 -25h-385q-33 0 -33 41q0 55 72 55h63
v809h-102q-33 0 -33 41q0 55 72 55h209v-143h6q174 164 358 164q145 0 239.5 -85t94.5 -230v-611l99 -22q55 -12 55 -49q0 -25 -25 -25h-385q-33 0 -33 41z" />
    <glyph glyph-name="Ncaron" unicode="&#x147;" horiz-adv-x="1613" 
d="M1065 1366q0 57 74 57h338q23 0 22 -26q0 -38 -59 -54l-88 -22v-1321h-154l-713 1028q-51 74 -96 180v-1106l109 -24q55 -11 55 -51q0 -27 -23 -27h-376q-35 0 -35 43q0 57 76 57h65v1213l-65 10q-76 11 -76 63q0 37 31 37h262l700 -1009q59 -86 111 -203v1112h-123
q-35 0 -35 43zM541 1817l75 61l187 -203l186 203l76 -61l-219 -279h-86z" />
    <glyph glyph-name="ncaron" unicode="&#x148;" horiz-adv-x="1277" 
d="M788 41q0 55 72 55h64v598q0 100 -59 160.5t-153 60.5q-178 0 -325 -163v-656l98 -22q56 -12 56 -49q0 -25 -25 -25h-385q-33 0 -33 41q0 55 72 55h63v809h-102q-33 0 -33 41q0 55 72 55h209v-143h6q174 164 358 164q145 0 239.5 -85t94.5 -230v-611l99 -22
q55 -12 55 -49q0 -25 -25 -25h-385q-33 0 -33 41zM393 1423l76 62l186 -203l187 203l76 -62l-220 -278h-86z" />
    <glyph glyph-name="napostrophe" unicode="&#x149;" horiz-adv-x="1554" 
d="M1067 41q0 55 72 55h63v598q0 100 -58.5 160.5t-152.5 60.5q-179 0 -325 -163v-656l98 -22q55 -11 55 -49q0 -25 -24 -25h-385q-33 0 -33 41q0 55 72 55h63v809h-102q-33 0 -33 41q0 55 72 55h208v-143h7q174 164 358 164q145 0 239.5 -85t94.5 -230v-611l98 -22
q55 -12 55 -49q0 -25 -24 -25h-385q-33 0 -33 41zM169 1257q19 0 28 -2l153 -36q-58 -213 -180 -357l-72 45q39 57 71 130t38 120l-60 21q-25 6 -24.5 30.5t14 36.5t32.5 12z" />
    <glyph glyph-name="Eng" unicode="&#x14a;" horiz-adv-x="1615" 
d="M1198 -47v47l-713 1028q-51 72 -96 172v-1098l111 -24q55 -11 55 -51q0 -27 -25 -27h-374q-35 0 -35 43q0 57 76 57h63v1213l-65 10q-76 11 -76 63q0 37 31 37h262l700 -1009q53 -80 111 -195v1104h-121q-35 0 -35 43q0 57 74 57h336q25 0 24 -26q0 -37 -59 -54l-90 -22
v-1362q0 -180 -112 -278.5t-263 -120.5l-37 98q258 52 258 295z" />
    <glyph glyph-name="eng" unicode="&#x14b;" horiz-adv-x="1236" 
d="M924 -47v741q0 100 -59 160.5t-153 60.5q-178 0 -325 -163v-656l98 -22q56 -12 56 -49q0 -25 -25 -25h-385q-33 0 -33 41q0 55 72 55h63v809h-102q-33 0 -33 41q0 55 72 55h209v-143h6q174 164 358 164q145 0 239.5 -85t94.5 -230v-748q0 -180 -111.5 -278.5
t-263.5 -120.5l-36 98q258 52 258 295z" />
    <glyph glyph-name="Omacron" unicode="&#x14c;" horiz-adv-x="1509" 
d="M1241 710q0 298 -126 462.5t-360 164.5t-360.5 -164.5t-126.5 -462.5t126 -461t360 -163t360.5 163t126.5 461zM102 708.5q0 241.5 123 490.5t531 249q195 0 342 -83t228 -249t81 -407q0 -360 -176 -547t-475 -187q-409 0 -531.5 246t-122.5 487.5zM465 1706h577v-113
h-577v113z" />
    <glyph glyph-name="omacron" unicode="&#x14d;" horiz-adv-x="1112" 
d="M874 499q0 202 -83.5 312.5t-234.5 110.5t-234.5 -111t-83.5 -313t84 -312t234 -110t234 110.5t84 312.5zM82 499q0 245 128 384t346 139t346 -140t128 -384t-128 -383.5t-347 -139.5t-346 139.5t-127 384.5zM266 1303h578v-113h-578v113z" />
    <glyph glyph-name="Obreve" unicode="&#x14e;" horiz-adv-x="1509" 
d="M1241 710q0 298 -126 462.5t-360 164.5t-360.5 -164.5t-126.5 -462.5t126 -461t360 -163t360.5 163t126.5 461zM102 708.5q0 241.5 123 490.5t531 249q195 0 342 -83t228 -249t81 -407q0 -360 -176 -547t-475 -187q-409 0 -531.5 246t-122.5 487.5zM753.5 1640
q75.5 0 129 46.5t75.5 121.5l95 -32q-35 -127 -115 -186.5t-184.5 -59.5t-184.5 59.5t-114 186.5l94 32q23 -76 76 -122t128.5 -46z" />
    <glyph glyph-name="obreve" unicode="&#x14f;" horiz-adv-x="1112" 
d="M874 499q0 202 -83.5 312.5t-234.5 110.5t-234.5 -111t-83.5 -313t84 -312t234 -110t234 110.5t84 312.5zM82 499q0 245 128 384t346 139t346 -140t128 -384t-128 -383.5t-347 -139.5t-346 139.5t-127 384.5zM555 1237q76 0 129 46t76 122l94 -33q-35 -127 -115 -186.5
t-184 -59.5t-184 59.5t-115 186.5l94 33q23 -76 76 -122t129 -46z" />
    <glyph glyph-name="Ohungarumlaut" unicode="&#x150;" horiz-adv-x="1509" 
d="M1241 710q0 298 -126 462.5t-360 164.5t-360.5 -164.5t-126.5 -462.5t126 -461t360 -163t360.5 163t126.5 461zM102 708.5q0 241.5 123 490.5t531 249q195 0 342 -83t228 -249t81 -407q0 -360 -176 -547t-475 -187q-409 0 -531.5 246t-122.5 487.5zM872 1606l230 356
l104 -64l-262 -342zM512 1606l229 356l105 -64l-262 -342z" />
    <glyph glyph-name="ohungarumlaut" unicode="&#x151;" horiz-adv-x="1118" 
d="M874 499q0 202 -83.5 312.5t-234.5 110.5t-234.5 -111t-83.5 -313t84 -312t234 -110t234 110.5t84 312.5zM82 499q0 245 128 384t346 139t346 -140t128 -384t-128 -383.5t-347 -139.5t-346 139.5t-127 384.5zM655 1202l191 285l104 -64l-223 -270zM295 1202l190 285
l105 -64l-223 -270z" />
    <glyph glyph-name="OE" unicode="&#x152;" horiz-adv-x="2168" 
d="M268 713q0 -197 71 -338.5t197 -214t272 -72.5t232 21v1202q-102 25 -215 24q-256 0 -406.5 -159.5t-150.5 -462.5zM102 708q0 241 89.5 406.5t244 249.5t348.5 84q104 0 209 -25h1006v-260q0 -29 -29 -28q-42 0 -57 84l-19 96h-690v-533h578l24 92q19 58 46 58
q28 0 28 -27v-352q0 -29 -29 -29q-24 0 -45 58l-24 92h-578v-565h717l18 104q14 84 58 84q31 0 31 -31v-266h-938q-133 -25 -252 -25q-213 0 -379 80t-261.5 246t-95.5 407z" />
    <glyph glyph-name="oe" unicode="&#x153;" horiz-adv-x="1855" 
d="M1622 625q0 141 -76 219t-204 78t-214 -95.5t-96 -259.5h582q8 18 8 58zM874 499q0 202 -83.5 312.5t-234.5 110.5t-234.5 -111t-83.5 -313t84 -312t234 -110t234 110.5t84 312.5zM82 499q0 245 128 384t345 139q139 0 240.5 -65.5t158.5 -182.5q57 117 157.5 182.5
t238.5 65.5q199 0 313.5 -117t114.5 -311q0 -68 -29 -129h-717q2 -186 98.5 -287.5t241.5 -101.5q120 0 230 62q38 22 51.5 30t27.5 8t27.5 -14.5t13.5 -42t-65 -68.5q-125 -76 -279 -76t-260 67t-164 185q-57 -119 -158.5 -185.5t-240.5 -66.5q-219 0 -346 139.5
t-127 384.5z" />
    <glyph glyph-name="Racute" unicode="&#x154;" horiz-adv-x="1368" 
d="M729 770q145 0 221 70.5t76 202t-76 203t-221 71.5h-301v-547h301zM119 1394q0 28 28 29h590q211 0 334 -93.5t123 -285.5t-123 -284t-334 -92h-110l540 -570l103 -20q57 -12 57 -51q0 -27 -22 -27h-271l-606 664v-562l100 -24q58 -15 58 -51q0 -27 -25 -27h-403
q-35 0 -35 43q0 57 76 57h65v1219l-67 10q-41 12 -59.5 24.5t-18.5 40.5zM541 1599l178 299l123 -79l-209 -279z" />
    <glyph glyph-name="racute" unicode="&#x155;" horiz-adv-x="843" 
d="M729 1022q88 0 88 -83q0 -40 -26 -69q-215 0 -404 -182v-592l98 -22q56 -12 56 -49q0 -25 -25 -25h-385q-33 0 -33 41q0 55 72 55h63v809h-102q-33 0 -33 41q0 55 72 55h209v-202h6q78 94 172 158.5t172 64.5zM297 1204l178 299l123 -80l-209 -278z" />
    <glyph glyph-name="Rcommaaccent" unicode="&#x156;" horiz-adv-x="1368" 
d="M640 -92q19 0 28 -2l153 -37q-58 -214 -180 -356l-72 45q39 57 71 129.5t38 119.5l-60 21q-25 6 -24.5 30.5t14 37t32.5 12.5zM729 770q145 0 221 70.5t76 202t-76 203t-221 71.5h-301v-547h301zM119 1394q0 28 28 29h590q211 0 334 -93.5t123 -285.5t-123 -284t-334 -92
h-110l540 -570l103 -20q57 -12 57 -51q0 -27 -22 -27h-271l-606 664v-562l100 -24q58 -15 58 -51q0 -27 -25 -27h-403q-35 0 -35 43q0 57 76 57h65v1219l-67 10q-41 12 -59.5 24.5t-18.5 40.5z" />
    <glyph glyph-name="rcommaaccent" unicode="&#x157;" horiz-adv-x="845" 
d="M242 -92q20 0 28 -2l154 -37q-58 -214 -180 -356l-72 45q39 57 70.5 129.5t38.5 119.5l-60 21q-25 6 -24.5 30.5t13 37t32.5 12.5zM729 1022q88 0 88 -83q0 -40 -26 -69q-215 0 -404 -182v-592l98 -22q56 -12 56 -49q0 -25 -25 -25h-385q-33 0 -33 41q0 55 72 55h63v809
h-102q-33 0 -33 41q0 55 72 55h209v-202h6q78 94 172 158.5t172 64.5z" />
    <glyph glyph-name="Rcaron" unicode="&#x158;" horiz-adv-x="1368" 
d="M729 770q145 0 221 70.5t76 202t-76 203t-221 71.5h-301v-547h301zM119 1394q0 28 28 29h590q211 0 334 -93.5t123 -285.5t-123 -284t-334 -92h-110l540 -570l103 -20q57 -12 57 -51q0 -27 -22 -27h-271l-606 664v-562l100 -24q58 -15 58 -51q0 -27 -25 -27h-403
q-35 0 -35 43q0 57 76 57h65v1219l-67 10q-41 12 -59.5 24.5t-18.5 40.5zM373 1817l76 61l186 -203l186 203l76 -61l-219 -279h-86z" />
    <glyph glyph-name="rcaron" unicode="&#x159;" horiz-adv-x="845" 
d="M729 1022q88 0 88 -83q0 -40 -26 -69q-215 0 -404 -182v-592l98 -22q56 -12 56 -49q0 -25 -25 -25h-385q-33 0 -33 41q0 55 72 55h63v809h-102q-33 0 -33 41q0 55 72 55h209v-202h6q78 94 172 158.5t172 64.5zM203 1423l76 62l186 -203l186 203l76 -62l-219 -278h-86z
" />
    <glyph glyph-name="Sacute" unicode="&#x15a;" horiz-adv-x="1218" 
d="M106 365q0 30 36 30q44 0 59 -84l26 -131q125 -92 387 -92q124 0 228 56.5t104 181.5q0 80 -40 134t-122 99t-267 120t-294.5 170t-109.5 259t137 252t334 88q129 0 253 -39t203 -106v-242q0 -31 -28 -31q-52 0 -66 84l-26 129q-117 92 -326 92q-137 0 -226 -54t-89 -167
q0 -138 123.5 -200t289.5 -134q145 -59 282.5 -146t137.5 -282q0 -196 -144.5 -286.5t-369.5 -90.5q-125 0 -267.5 37t-224.5 101v252zM453 1597l178 299l123 -79l-209 -279z" />
    <glyph glyph-name="sacute" unicode="&#x15b;" horiz-adv-x="927" 
d="M444 78q240 0 240 149q0 55 -26.5 89t-81 63t-194.5 87t-213 124.5t-73 183.5t103.5 182.5t227.5 65.5t222.5 -37t149.5 -86v-180q0 -27 -31 -27q-40 0 -51 58l-19 98q-80 72 -244 72q-78 0 -140 -35t-62 -97t29.5 -95.5t79 -59t197.5 -89.5t215 -130t67 -190
t-111 -186.5t-243 -62.5t-236.5 30t-161.5 79v186q0 29 31 29q39 0 51 -59l18 -93q39 -35 112 -52t144 -17zM346 1204l178 299l123 -80l-209 -278z" />
    <glyph glyph-name="Scircumflex" unicode="&#x15c;" horiz-adv-x="1218" 
d="M106 365q0 30 36 30q44 0 59 -84l26 -131q125 -92 387 -92q124 0 228 56.5t104 181.5q0 80 -40 134t-122 99t-267 120t-294.5 170t-109.5 259t137 252t334 88q129 0 253 -39t203 -106v-242q0 -31 -28 -31t-42 17.5t-24 66.5l-26 129q-117 92 -326 92q-137 0 -226 -54
t-89 -167q0 -138 123.5 -200t289.5 -134q145 -59 282.5 -146t137.5 -282q0 -196 -144.5 -286.5t-369.5 -90.5q-125 0 -267.5 37t-224.5 101v252zM315 1599l220 279h86l219 -279l-76 -61l-186 203l-187 -203z" />
    <glyph glyph-name="scircumflex" unicode="&#x15d;" horiz-adv-x="927" 
d="M444 78q240 0 240 149q0 55 -26.5 89t-81 63t-194.5 87t-213 124.5t-73 183.5t103.5 182.5t227.5 65.5t222.5 -37t149.5 -86v-180q0 -27 -31 -27q-40 0 -51 58l-19 98q-80 72 -244 72q-78 0 -140 -35t-62 -97t29.5 -95.5t79 -59t197.5 -89.5t215 -130t67 -190
t-111 -186.5t-243 -62.5t-236.5 30t-161.5 79v186q0 29 31 29q39 0 51 -59l18 -93q39 -35 112 -52t144 -17zM193 1206l219 279h86l219 -279l-76 -61l-186 203l-187 -203z" />
    <glyph glyph-name="Scedilla" unicode="&#x15e;" horiz-adv-x="1218" 
d="M106 365q0 30 36 30q44 0 59 -84l26 -131q125 -92 387 -92q124 0 228 56.5t104 181.5q0 80 -40 134t-122 99t-267 120t-294.5 170t-109.5 259t137 252t334 88q129 0 253 -39t203 -106v-242q0 -31 -28 -31t-42 17.5t-24 66.5l-26 129q-117 92 -326 92q-137 0 -226 -54
t-89 -167q0 -138 123.5 -200t289.5 -134q145 -59 282.5 -146t137.5 -294q0 -174 -129 -264t-334 -99l-37 -79q100 -43 101 -138q0 -68 -69 -122t-163 -74l-24 61q139 46 139 139q0 83 -92 109l37 104q-121 8 -242 43t-193 93v252z" />
    <glyph glyph-name="scedilla" unicode="&#x15f;" horiz-adv-x="927" 
d="M459 -231q0 82 -92 108l36 100q-214 18 -315 107v186q0 29 31 29q39 0 51 -59l18 -93q39 -35 112 -52t144 -17q240 0 240 149q0 55 -26.5 89t-81 63t-194.5 87t-213 124.5t-73 183.5t103.5 182.5t227.5 65.5t222.5 -37t149.5 -86v-180q0 -27 -31 -27q-40 0 -51 58l-19 98
q-80 72 -244 72q-78 0 -140 -35t-62 -97t29.5 -95.5t79 -59t197.5 -89.5t215 -130t67 -184t-93.5 -180t-236.5 -73l-35 -75q100 -39 100 -138q0 -68 -67.5 -121t-163.5 -75l-25 61q140 46 140 140z" />
    <glyph glyph-name="Scaron" unicode="&#x160;" horiz-adv-x="1218" 
d="M106 365q0 30 36 30q44 0 59 -84l26 -131q125 -92 387 -92q124 0 228 56.5t104 181.5q0 80 -40 134t-122 99t-267 120t-294.5 170t-109.5 259t137 252t334 88q129 0 253 -39t203 -106v-242q0 -31 -28 -31t-42 17.5t-24 66.5l-26 129q-117 92 -326 92q-137 0 -226 -54
t-89 -167q0 -138 123.5 -200t289.5 -134q145 -59 282.5 -146t137.5 -282q0 -196 -144.5 -286.5t-369.5 -90.5q-125 0 -267.5 37t-224.5 101v252zM326 1817l75 61l187 -203l186 203l76 -61l-219 -279h-86z" />
    <glyph glyph-name="scaron" unicode="&#x161;" horiz-adv-x="927" 
d="M444 78q240 0 240 149q0 55 -26.5 89t-81 63t-194.5 87t-213 124.5t-73 183.5t103.5 182.5t227.5 65.5t222.5 -37t149.5 -86v-180q0 -27 -31 -27q-40 0 -51 58l-19 98q-80 72 -244 72q-78 0 -140 -35t-62 -97t29.5 -95.5t79 -59t197.5 -89.5t215 -130t67 -190
t-111 -186.5t-243 -62.5t-236.5 30t-161.5 79v186q0 29 31 29q39 0 51 -59l18 -93q39 -35 112 -52t144 -17zM188 1423l76 62l187 -203l186 203l76 -62l-219 -278h-86z" />
    <glyph glyph-name="uni0162" unicode="&#x162;" horiz-adv-x="1220" 
d="M631 -227q0 82 -92 108l43 119h-158q-35 0 -35 43q0 57 76 57h63v1213h-350l-20 -113q-8 -39 -20.5 -57.5t-35.5 -18.5q-35 0 -34 33v266h1087v-266q0 -33 -35 -33q-23 0 -35 18.5t-20 57.5l-21 113h-352v-1211l103 -24q57 -15 57 -51q0 -27 -25 -27h-137l-43 -94
q100 -39 101 -137q0 -68 -68 -121.5t-164 -75.5l-24 61q139 46 139 140z" />
    <glyph glyph-name="uni0163" unicode="&#x163;" horiz-adv-x="815" 
d="M502 -231q0 82 -92 108l36 105q-88 16 -143 80.5t-55 166.5v664h-139q-35 0 -35 36q0 68 71 68h105l26 217h125v-217h312q25 0 24.5 -34.5t-84.5 -42.5l-252 -27v-674q0 -70 36.5 -105.5t88.5 -35.5q92 0 148 53q43 34 62.5 16t19.5 -38q0 -37 -62 -80q-63 -41 -141 -52
l-35 -75q100 -39 100 -138q0 -68 -67.5 -121t-163.5 -75l-25 61q140 46 140 140z" />
    <glyph glyph-name="Tcaron" unicode="&#x164;" horiz-adv-x="1220" 
d="M389 43q0 57 76 57h63v1213h-350l-20 -109q-8 -39 -20.5 -57.5t-35.5 -18.5q-35 0 -34 31v264h1087v-264q0 -31 -35 -31q-23 0 -35 18.5t-20 57.5l-21 109h-352v-1211l103 -24q57 -15 57 -51q0 -27 -25 -27h-403q-35 0 -35 43zM348 1817l76 61l186 -203l187 203l75 -61
l-219 -279h-86z" />
    <glyph glyph-name="tcaron" unicode="&#x165;" horiz-adv-x="849" 
d="M109 893q-35 0 -35 36q0 68 71 68h105l26 217h125v-217h312q25 0 24.5 -34.5t-84.5 -42.5l-252 -27v-674q0 -70 36.5 -105.5t88.5 -35.5q92 0 148 53q43 34 62.5 16t19.5 -38q0 -39 -69 -86t-181 -47t-185 67.5t-73 185.5v664h-139zM664 1450q14 0 20 -2l131 -31
q-44 -184 -156 -315l-61 39q35 49 62.5 113.5t33.5 109.5l-55 18q-20 8 -21 25q0 43 46 43z" />
    <glyph glyph-name="Tbar" unicode="&#x166;" horiz-adv-x="1232" 
d="M1161 1157q0 -33 -35 -33q-23 0 -35 18.5t-20 57.5l-20 113h-353v-514h308v-113h-308v-584l103 -24q57 -15 57 -51q0 -27 -24 -27h-404q-35 0 -35 43q0 57 76 57h64v586h-304v113h304v514h-351l-20 -113q-16 -76 -53 -76t-37 33v266h1087v-266z" />
    <glyph glyph-name="tbar" unicode="&#x167;" horiz-adv-x="815" 
d="M111 893q-35 0 -35 36q0 68 71 68h105l27 217h124v-217h312q25 0 24.5 -34.5t-84.5 -42.5l-252 -27v-207h224v-98h-224v-369q0 -70 36.5 -105.5t88.5 -35.5q92 0 148 53q43 34 62.5 16t19.5 -38q0 -37 -62 -80q-86 -53 -192 -53t-180 67.5t-74 185.5v359h-152v98h152v207
h-139z" />
    <glyph glyph-name="Utilde" unicode="&#x168;" horiz-adv-x="1599" 
d="M1079 1366q0 57 74 57h334q25 0 24 -24q0 -33 -53 -49l-94 -29v-782q0 -268 -148.5 -416t-413.5 -148t-420 147.5t-155 416.5v784h-104q-35 0 -35 43q0 57 74 57h364q25 0 25 -26q0 -36 -57 -51l-103 -25v-791q0 -213 109.5 -327.5t311.5 -114.5t311.5 113.5t109.5 328.5
v793h-119q-35 0 -35 43zM924 1561q-45 0 -102 26q-56 26 -81.5 35.5t-52.5 9.5q-62 0 -135 -53l-57 76q103 94 194 94q43 0 118 -36t126 -36t121 54l57 -78q-96 -92 -188 -92z" />
    <glyph glyph-name="utilde" unicode="&#x169;" horiz-adv-x="1222" 
d="M739 946q0 55 72 55h217v-905l82 -22q55 -15 55 -49q0 -25 -24 -25h-258v139h-6q-174 -164 -357 -164q-145 0 -239.5 85t-94.5 233v612h-102q-33 0 -33 41q0 55 72 55h217v-696q0 -100 58.5 -161.5t152.5 -61.5q177 0 323 166v657h-102q-33 0 -33 41zM721 1163
q-43 1 -100 27q-58 26 -83.5 35.5t-52.5 9.5q-60 0 -135 -53l-57 75q104 95 194 95q39 0 123 -37q70 -35 121 -35t121 53l57 -78q-96 -92 -188 -92z" />
    <glyph glyph-name="Umacron" unicode="&#x16a;" horiz-adv-x="1599" 
d="M1079 1366q0 57 74 57h334q25 0 24 -24q0 -33 -53 -49l-94 -29v-782q0 -268 -148.5 -416t-413.5 -148t-420 147.5t-155 416.5v784h-104q-35 0 -35 43q0 57 74 57h364q25 0 25 -26q0 -36 -57 -51l-103 -25v-791q0 -213 109.5 -327.5t311.5 -114.5t311.5 113.5t109.5 328.5
v793h-119q-35 0 -35 43zM522 1706h578v-113h-578v113z" />
    <glyph glyph-name="umacron" unicode="&#x16b;" horiz-adv-x="1222" 
d="M739 946q0 55 72 55h217v-905l82 -22q55 -15 55 -49q0 -25 -24 -25h-258v139h-6q-174 -164 -357 -164q-145 0 -239.5 85t-94.5 233v612h-102q-33 0 -33 41q0 55 72 55h217v-696q0 -100 58.5 -161.5t152.5 -61.5q177 0 323 166v657h-102q-33 0 -33 41zM317 1303h578v-113
h-578v113z" />
    <glyph glyph-name="Ubreve" unicode="&#x16c;" horiz-adv-x="1599" 
d="M1079 1366q0 57 74 57h334q25 0 24 -24q0 -33 -53 -49l-94 -29v-782q0 -268 -148.5 -416t-413.5 -148t-420 147.5t-155 416.5v784h-104q-35 0 -35 43q0 57 74 57h364q25 0 25 -26q0 -36 -57 -51l-103 -25v-791q0 -213 109.5 -327.5t311.5 -114.5t311.5 113.5t109.5 328.5
v793h-119q-35 0 -35 43zM813 1640q76 0 129 46.5t76 121.5l94 -32q-35 -127 -114.5 -186.5t-184 -59.5t-184.5 59.5t-115 186.5l94 32q23 -76 76 -122t129 -46z" />
    <glyph glyph-name="ubreve" unicode="&#x16d;" horiz-adv-x="1222" 
d="M739 946q0 55 72 55h217v-905l82 -22q55 -15 55 -49q0 -25 -24 -25h-258v139h-6q-174 -164 -357 -164q-145 0 -239.5 85t-94.5 233v612h-102q-33 0 -33 41q0 55 72 55h217v-696q0 -100 58.5 -161.5t152.5 -61.5q177 0 323 166v657h-102q-33 0 -33 41zM583.5 1237
q75.5 0 129 46t75.5 122l95 -33q-35 -127 -115 -186.5t-184.5 -59.5t-184.5 59.5t-114 186.5l94 33q23 -76 76 -122t128.5 -46z" />
    <glyph glyph-name="Uring" unicode="&#x16e;" horiz-adv-x="1599" 
d="M1079 1366q0 57 74 57h334q25 0 24 -24q0 -33 -53 -49l-94 -29v-782q0 -268 -148.5 -416t-413.5 -148t-420 147.5t-155 416.5v784h-104q-35 0 -35 43q0 57 74 57h364q25 0 25 -26q0 -36 -57 -51l-103 -25v-791q0 -213 109.5 -327.5t311.5 -114.5t311.5 113.5t109.5 328.5
v793h-119q-35 0 -35 43zM895 1694q0 45 -25.5 69.5t-66.5 24.5t-67.5 -24.5t-26.5 -69.5t26.5 -71t67.5 -26t66.5 26t25.5 71zM614 1693.5q0 75.5 52.5 127t137.5 51.5t136 -51.5t51 -127t-51 -126.5t-137 -51t-137.5 51t-51.5 126.5z" />
    <glyph glyph-name="uring" unicode="&#x16f;" horiz-adv-x="1222" 
d="M739 946q0 55 72 55h217v-905l82 -22q55 -15 55 -49q0 -25 -24 -25h-258v139h-6q-174 -164 -357 -164q-145 0 -239.5 85t-94.5 233v612h-102q-33 0 -33 41q0 55 72 55h217v-696q0 -100 58.5 -161.5t152.5 -61.5q177 0 323 166v657h-102q-33 0 -33 41zM690 1327
q0 45 -25.5 69.5t-66.5 24.5t-67.5 -24.5t-26.5 -69.5t26.5 -70.5t67.5 -25.5t66.5 25.5t25.5 70.5zM410 1327q0 76 52 127t137 51t136 -51t51 -127t-51 -127t-137 -51t-137 51t-51 127z" />
    <glyph glyph-name="Uhungarumlaut" unicode="&#x170;" horiz-adv-x="1599" 
d="M1079 1366q0 57 74 57h334q25 0 24 -24q0 -33 -53 -49l-94 -29v-782q0 -268 -148.5 -416t-413.5 -148t-420 147.5t-155 416.5v784h-104q-35 0 -35 43q0 57 74 57h364q25 0 25 -26q0 -36 -57 -51l-103 -25v-791q0 -213 109.5 -327.5t311.5 -114.5t311.5 113.5t109.5 328.5
v793h-119q-35 0 -35 43zM887 1606l229 356l105 -64l-263 -342zM526 1606l230 356l104 -64l-262 -342z" />
    <glyph glyph-name="uhungarumlaut" unicode="&#x171;" horiz-adv-x="1222" 
d="M739 946q0 55 72 55h217v-905l82 -22q55 -15 55 -49q0 -25 -24 -25h-258v139h-6q-174 -164 -357 -164q-145 0 -239.5 85t-94.5 233v612h-102q-33 0 -33 41q0 55 72 55h217v-696q0 -100 58.5 -161.5t152.5 -61.5q177 0 323 166v657h-102q-33 0 -33 41zM655 1202l191 285
l104 -64l-223 -270zM295 1202l190 285l105 -64l-223 -270z" />
    <glyph glyph-name="Uogonek" unicode="&#x172;" horiz-adv-x="1599" 
d="M1079 1366q0 57 74 57h334q25 0 24 -24q0 -33 -53 -49l-94 -29v-782q0 -231 -110.5 -373.5t-313.5 -177.5q-61 -33 -104 -92.5t-43 -120.5t36.5 -93t84.5 -32t96 14l14 -70q-53 -26 -136 -26t-145.5 53t-62.5 130q0 141 125 224q-268 0 -423 147.5t-155 416.5v784h-104
q-35 0 -35 43q0 57 74 57h364q25 0 25 -26q0 -39 -57 -51l-103 -25v-791q0 -213 109.5 -327.5t311.5 -114.5t311.5 113.5t109.5 328.5v793h-119q-35 0 -35 43z" />
    <glyph glyph-name="uogonek" unicode="&#x173;" horiz-adv-x="1255" 
d="M739 946q0 55 72 55h217v-905l82 -22q31 -10 43 -19.5t12 -29.5q0 -25 -24 -25h-49q-63 -31 -110.5 -91.5t-47.5 -123.5t37 -94t88 -31t92 12l14 -69q-59 -27 -118 -27q-101 0 -163.5 53.5t-62.5 135.5q0 152 152 235h-90v139h-6q-174 -164 -357 -164q-145 0 -239.5 85
t-94.5 233v612h-102q-33 0 -33 41q0 55 72 55h217v-696q0 -100 58.5 -161.5t152.5 -61.5q177 0 323 166v657h-102q-33 0 -33 41z" />
    <glyph glyph-name="Wcircumflex" unicode="&#x174;" horiz-adv-x="2224" 
d="M1751 1366q0 57 76 57h348q25 0 25 -26q0 -35 -52 -49l-102 -27l-379 -1321h-203l-325 1077q-12 39 -18.5 91.5t-8.5 68.5h-10q-14 -111 -29 -160l-309 -1077h-203l-399 1323h-103q-35 0 -34 43q0 57 73 57h377q25 0 25 -26q0 -43 -64 -56l-108 -20l321 -1075
q10 -37 16.5 -80t8.5 -55h10q2 12 8 55t17 80l338 1177h147l360 -1177q25 -77 25 -135h12q2 12 8.5 55t16.5 80l301 1077h-131q-35 0 -35 43zM844 1599l219 279h86l219 -279l-76 -61l-186 203l-186 -203z" />
    <glyph glyph-name="wcircumflex" unicode="&#x175;" horiz-adv-x="1716" 
d="M1290 946q0 55 72 55h321q23 0 23 -24q0 -35 -53 -49l-86 -25l-260 -903h-205l-232 770q-18 74 -18 125h-8q0 -68 -19 -125l-219 -770h-205l-274 905h-84q-33 0 -33 41q0 55 72 55h346q25 0 25 -24q0 -39 -56 -49l-116 -25l221 -739q14 -44 14 -86h8q0 32 15 86l239 837
h174l256 -837q15 -62 15 -86h8q0 42 14 86l207 741h-129q-33 0 -33 41zM584 1206l219 279h86l219 -279l-76 -61l-186 203l-187 -203z" />
    <glyph glyph-name="Ycircumflex" unicode="&#x176;" horiz-adv-x="1419" 
d="M1036 1423h336q23 0 23 -26q0 -35 -49 -49l-101 -27l-469 -694v-525l101 -24q57 -15 57 -51q0 -27 -25 -27h-403q-35 0 -35 43q0 57 76 57h65v506l-458 717h-95q-35 0 -34 43q0 57 73 57h402q25 0 24 -28q0 -43 -57 -54l-115 -20l369 -578l389 580h-113q-35 0 -34 43
q0 57 73 57zM442 1599l220 279h86l219 -279l-76 -61l-186 203l-187 -203z" />
    <glyph glyph-name="ycircumflex" unicode="&#x177;" horiz-adv-x="1122" 
d="M14 946q0 55 72 55h346q25 0 25 -24q0 -18 -15.5 -31.5t-40.5 -17.5l-108 -25l270 -688q8 -19 8 -63h9q0 39 8 63l268 690h-127q-33 0 -33 41q0 55 72 55h322q23 0 22 -24q0 -33 -55 -49l-84 -25l-385 -989q-66 -166 -168.5 -270.5t-241.5 -104.5q-39 0 -64.5 20.5
t-25.5 53.5t14 59q145 0 227.5 53.5t133.5 186.5l33 88l-365 905h-84q-33 0 -33 41zM303 1206l219 279h86l219 -279l-75 -61l-187 203l-186 -203z" />
    <glyph glyph-name="Ydieresis" unicode="&#x178;" horiz-adv-x="1419" 
d="M1036 1423h336q23 0 23 -26q0 -35 -49 -49l-101 -27l-469 -694v-525l101 -24q57 -15 57 -51q0 -27 -25 -27h-403q-35 0 -35 43q0 57 76 57h65v506l-458 717h-95q-35 0 -34 43q0 57 73 57h402q25 0 24 -28q0 -43 -57 -54l-115 -20l369 -578l389 580h-113q-35 0 -34 43
q0 57 73 57zM801 1661q0 43 28.5 70.5t70.5 27.5t70.5 -27.5t28.5 -70.5t-28.5 -71.5t-70.5 -28.5t-70.5 28.5t-28.5 71.5zM408 1661q0 43 28.5 70.5t70.5 27.5t70.5 -27.5t28.5 -70.5t-28.5 -71.5t-70.5 -28.5t-70.5 28.5t-28.5 71.5z" />
    <glyph glyph-name="Zacute" unicode="&#x179;" horiz-adv-x="1288" 
d="M168 1120q-33 0 -33 31v272h1041v-114l-875 -1198h766l20 114q12 78 56 78q35 0 35 -31v-272h-1078v115l875 1198h-729l-21 -115q-12 -78 -57 -78zM530 1597l179 299l122 -79l-208 -279z" />
    <glyph glyph-name="zacute" unicode="&#x17a;" horiz-adv-x="950" 
d="M145 743q-32 0 -32 31v227h737v-110l-580 -791h490l16 101q12 61 55 61q14 0 23.5 -9t9.5 -24v-229h-778v111l582 790h-451l-16 -96q-6 -33 -18.5 -47.5t-37.5 -14.5zM362 1204l179 299l123 -80l-209 -278z" />
    <glyph glyph-name="Zdotaccent" unicode="&#x17b;" horiz-adv-x="1288" 
d="M168 1120q-33 0 -33 31v272h1041v-114l-875 -1198h766l20 114q12 78 56 78q35 0 35 -31v-272h-1078v115l875 1198h-729l-21 -115q-12 -78 -57 -78zM557 1673q0 43 29.5 72t70.5 29t71 -29t30 -72t-30 -71.5t-71 -28.5t-70.5 28.5t-29.5 71.5z" />
    <glyph glyph-name="zdotaccent" unicode="&#x17c;" horiz-adv-x="950" 
d="M145 743q-32 0 -32 31v227h737v-110l-580 -791h490l16 101q12 61 55 61q14 0 23.5 -9t9.5 -24v-229h-778v111l582 790h-451l-16 -96q-6 -33 -18.5 -47.5t-37.5 -14.5zM387 1231q0 43 29.5 71.5t70.5 28.5t71 -28.5t30 -71.5t-30 -72t-71 -29t-70.5 29t-29.5 72z" />
    <glyph glyph-name="Zcaron" unicode="&#x17d;" horiz-adv-x="1288" 
d="M168 1120q-33 0 -33 31v272h1041v-114l-875 -1198h766l20 114q12 78 56 78q35 0 35 -31v-272h-1078v115l875 1198h-729l-21 -115q-12 -78 -57 -78zM397 1817l76 61l186 -203l187 203l76 -61l-220 -279h-86z" />
    <glyph glyph-name="zcaron" unicode="&#x17e;" horiz-adv-x="950" 
d="M145 743q-32 0 -32 31v227h737v-110l-580 -791h490l16 101q12 61 55 61q14 0 23.5 -9t9.5 -24v-229h-778v111l582 790h-451l-16 -96q-6 -33 -18.5 -47.5t-37.5 -14.5zM227 1423l76 62l186 -203l187 203l76 -62l-220 -278h-86z" />
    <glyph glyph-name="uni018F" unicode="&#x18f;" horiz-adv-x="1454" 
d="M710 86q202 0 327.5 142.5t144.5 396.5h-903q-12 -31 -13 -82q0 -217 121 -337t323 -120zM102 555q0 95 39 180h1043q-4 190 -66.5 326.5t-170 206t-245.5 69.5q-197 0 -391 -116q-45 -27 -65 -27t-36.5 14t-16.5 40t20 44.5t70 46.5q199 109 407 109t354 -88t227 -254
t81 -392t-80 -393t-226 -256.5t-336 -89.5t-325 72t-209 203t-74 305z" />
    <glyph glyph-name="florin" unicode="&#x192;" horiz-adv-x="1140" 
d="M227 508q-34 0 -34 35q0 67 71 67h207l61 346q45 254 291 254q74 0 153 -34.5t118 -81.5l-31 -174q-2 -18 -8.5 -24.5t-24.5 -6.5t-31.5 17.5t-11.5 45.5l6 103q-61 51 -138 51t-117 -37t-54 -119l-57 -340h299q25 0 24 -26q0 -59 -78 -62l-264 -14l-86 -500
q-29 -162 -108.5 -236.5t-227.5 -74.5q-70 0 -133 20v113q63 -23 137 -23t118 54.5t63 169.5l82 477h-226z" />
    <glyph glyph-name="Ohorn" unicode="&#x1a0;" horiz-adv-x="1566" 
d="M1241 710q0 298 -126 462.5t-360 164.5t-360.5 -164.5t-126.5 -462.5t126 -461t360 -163t360.5 163t126.5 461zM756 1448q261 0 430 -148q137 74 137 267h164q0 -225 -219 -350q139 -190 139 -529t-176 -526t-475 -187q-409 0 -531.5 246t-122.5 487.5t123 490.5t531 249
z" />
    <glyph glyph-name="ohorn" unicode="&#x1a1;" horiz-adv-x="1171" 
d="M874 499q0 202 -83.5 312.5t-234.5 110.5t-234.5 -111t-83.5 -313t84 -312t234 -110t234 110.5t84 312.5zM82 499q0 245 128 384t340 139t337 -131q78 72 78 213h153q0 -186 -153 -305q66 -121 65 -299q0 -246 -128 -385.5t-347 -139.5t-346 139.5t-127 384.5z" />
    <glyph glyph-name="Uhorn" unicode="&#x1af;" horiz-adv-x="1820" 
d="M1079 1366q0 57 74 57h334q25 0 24 -26q0 -39 -61 -54l-86 -20v-262q295 135 295 502h131q0 -240 -119 -388.5t-307 -230.5v-405q0 -268 -148.5 -416t-413.5 -148t-420 147.5t-155 416.5v784h-104q-35 0 -35 43q0 57 74 57h364q25 0 25 -26q0 -39 -57 -51l-103 -25v-791
q0 -213 109.5 -327.5t311.5 -114.5t311.5 113.5t109.5 328.5v793h-119q-35 0 -35 43z" />
    <glyph glyph-name="uhorn" unicode="&#x1b0;" horiz-adv-x="1376" 
d="M739 946q0 55 72 55h215v-258q98 51 143 135.5t45 225.5h144q0 -172 -91 -288t-241 -177v-543l80 -22q31 -10 44 -20.5t13 -28.5q0 -25 -24 -25h-256v139h-6q-174 -164 -357 -164q-145 0 -239.5 85t-94.5 233v612h-102q-33 0 -33 41q0 55 72 55h217v-696
q0 -100 58.5 -161.5t152.5 -61.5q177 0 323 166v657h-102q-33 0 -33 41z" />
    <glyph glyph-name="uni01CD" unicode="&#x1cd;" horiz-adv-x="1456" 
d="M956 575l-254 709l-253 -709h507zM1004 0q-35 0 -35 35q0 65 75 65h84l-131 365h-587l-129 -363l120 -24q57 -10 58 -49q0 -29 -23 -29h-385q-35 0 -35 43q0 57 74 57h62l477 1323h188l477 -1321l90 -20q57 -12 58 -51q0 -31 -23 -31h-415zM446 1817l76 61l187 -203
l186 203l76 -61l-219 -279h-86z" />
    <glyph glyph-name="uni01CE" unicode="&#x1ce;" horiz-adv-x="1081" 
d="M752 348v164l-254 -41q-121 -20 -186.5 -68.5t-65.5 -138.5t57 -137t140 -47t153 36t113 97t43 135zM748 143q-122 -168 -353 -168q-121 0 -213 74t-92 212t102.5 209t270.5 95l289 43v90q0 100 -61.5 162t-172.5 62q-63 0 -142 -22.5t-130 -55.5l-17 -90
q-10 -59 -53 -60q-31 0 -31 27v186q82 49 189.5 82t206.5 33q160 0 262 -86t102 -240v-602l76 -20q55 -15 55 -49q0 -25 -22 -25h-258v143h-8zM276 1423l76 62l187 -203l186 203l76 -62l-219 -278h-86z" />
    <glyph glyph-name="uni01CF" unicode="&#x1cf;" horiz-adv-x="686" 
d="M121 1366q0 57 74 57h364q25 0 25 -26q0 -36 -58 -51l-102 -25v-1219l102 -24q58 -15 58 -51q0 -27 -25 -27h-403q-35 0 -35 43q0 57 76 57h63v1223h-104q-35 0 -35 43zM80 1817l76 61l186 -203l186 203l76 -61l-219 -279h-86z" />
    <glyph glyph-name="uni01D0" unicode="&#x1d0;" horiz-adv-x="587" 
d="M94 946q0 55 72 55h219v-905l96 -22q56 -12 56 -49q0 -25 -25 -25h-385q-33 0 -33 41q0 55 72 55h65v809h-104q-33 0 -33 41zM27 1423l75 62l187 -203l186 203l76 -62l-219 -278h-86z" />
    <glyph glyph-name="uni01D1" unicode="&#x1d1;" horiz-adv-x="1509" 
d="M1241 710q0 298 -126 462.5t-360 164.5t-360.5 -164.5t-126.5 -462.5t126 -461t360 -163t360.5 163t126.5 461zM102 708.5q0 241.5 123 490.5t531 249q195 0 342 -83t228 -249t81 -407q0 -360 -176 -547t-475 -187q-409 0 -531.5 246t-122.5 487.5zM494 1817l75 61
l187 -203l186 203l76 -61l-219 -279h-86z" />
    <glyph glyph-name="uni01D2" unicode="&#x1d2;" horiz-adv-x="1112" 
d="M874 499q0 202 -83.5 312.5t-234.5 110.5t-234.5 -111t-83.5 -313t84 -312t234 -110t234 110.5t84 312.5zM82 499q0 245 128 384t346 139t346 -140t128 -384t-128 -383.5t-347 -139.5t-346 139.5t-127 384.5zM293 1423l76 62l186 -203l186 203l76 -62l-219 -278h-86z" />
    <glyph glyph-name="uni01D3" unicode="&#x1d3;" horiz-adv-x="1599" 
d="M1079 1366q0 57 74 57h334q25 0 24 -24q0 -33 -53 -49l-94 -29v-782q0 -268 -148.5 -416t-413.5 -148t-420 147.5t-155 416.5v784h-104q-35 0 -35 43q0 57 74 57h364q25 0 25 -26q0 -36 -57 -51l-103 -25v-791q0 -213 109.5 -327.5t311.5 -114.5t311.5 113.5t109.5 328.5
v793h-119q-35 0 -35 43zM543 1817l75 61l187 -203l186 203l76 -61l-219 -279h-86z" />
    <glyph glyph-name="uni01D4" unicode="&#x1d4;" horiz-adv-x="1222" 
d="M739 946q0 55 72 55h217v-905l82 -22q55 -15 55 -49q0 -25 -24 -25h-258v139h-6q-174 -164 -357 -164q-145 0 -239.5 85t-94.5 233v612h-102q-33 0 -33 41q0 55 72 55h217v-696q0 -100 58.5 -161.5t152.5 -61.5q177 0 323 166v657h-102q-33 0 -33 41zM309 1423l76 62
l186 -203l187 203l76 -62l-220 -278h-86z" />
    <glyph glyph-name="uni01D5" unicode="&#x1d5;" horiz-adv-x="1599" 
d="M1079 1366q0 57 74 57h334q25 0 24 -24q0 -33 -53 -49l-94 -29v-782q0 -268 -148.5 -416t-413.5 -148t-420 147.5t-155 416.5v784h-104q-35 0 -35 43q0 57 74 57h364q25 0 25 -26q0 -36 -57 -51l-103 -25v-791q0 -213 109.5 -327.5t311.5 -114.5t311.5 113.5t109.5 328.5
v793h-119q-35 0 -35 43zM907 1661q0 43 29 70.5t71 27.5t70.5 -27.5t28.5 -70.5t-28.5 -71.5t-70.5 -28.5t-71 28.5t-29 71.5zM516 1661q0 43 28.5 70.5t70.5 27.5t71 -27.5t29 -70.5t-29 -71.5t-71 -28.5t-70.5 28.5t-28.5 71.5zM524 1987h578v-111h-578v111z" />
    <glyph glyph-name="uni01D6" unicode="&#x1d6;" horiz-adv-x="1222" 
d="M739 946q0 55 72 55h217v-905l82 -22q55 -15 55 -49q0 -25 -24 -25h-258v139h-6q-174 -164 -357 -164q-145 0 -239.5 85t-94.5 233v612h-102q-33 0 -33 41q0 55 72 55h217v-696q0 -100 58.5 -161.5t152.5 -61.5q177 0 323 166v657h-102q-33 0 -33 41zM678 1268
q0 43 29.5 71.5t70.5 28.5t70 -28.5t29 -71.5t-29 -72t-70 -29t-70.5 29t-29.5 72zM285 1268q0 43 29.5 71.5t70.5 28.5t69.5 -28.5t28.5 -71.5t-28.5 -72t-69.5 -29t-70.5 29t-29.5 72zM293 1589h577v-110h-577v110z" />
    <glyph glyph-name="uni01D7" unicode="&#x1d7;" horiz-adv-x="1599" 
d="M1079 1366q0 57 74 57h334q25 0 24 -24q0 -33 -53 -49l-94 -29v-782q0 -268 -148.5 -416t-413.5 -148t-420 147.5t-155 416.5v784h-104q-35 0 -35 43q0 57 74 57h364q25 0 25 -26q0 -36 -57 -51l-103 -25v-791q0 -213 109.5 -327.5t311.5 -114.5t311.5 113.5t109.5 328.5
v793h-119q-35 0 -35 43zM899 1661q0 43 28.5 70.5t70.5 27.5t71 -27.5t29 -70.5t-29 -71.5t-71 -28.5t-70.5 28.5t-28.5 71.5zM508 1661q0 43 28.5 70.5t70.5 27.5t71 -27.5t29 -70.5t-29 -71.5t-71 -28.5t-70.5 28.5t-28.5 71.5zM737 1847l166 281l115 -74l-197 -260z" />
    <glyph glyph-name="uni01D8" unicode="&#x1d8;" horiz-adv-x="1222" 
d="M739 946q0 55 72 55h217v-905l82 -22q55 -15 55 -49q0 -25 -24 -25h-258v139h-6q-174 -164 -357 -164q-145 0 -239.5 85t-94.5 233v612h-102q-33 0 -33 41q0 55 72 55h217v-696q0 -100 58.5 -161.5t152.5 -61.5q177 0 323 166v657h-102q-33 0 -33 41zM678 1264
q0 43 28.5 70.5t70.5 27.5t71 -27.5t29 -70.5t-29 -72t-71 -29t-70.5 29t-28.5 72zM287 1264q0 43 28.5 70.5t70.5 27.5t70.5 -27.5t28.5 -70.5t-28.5 -72t-70.5 -29t-70.5 29t-28.5 72zM516 1450l166 281l115 -74l-197 -260z" />
    <glyph glyph-name="uni01D9" unicode="&#x1d9;" horiz-adv-x="1599" 
d="M1079 1366q0 57 74 57h334q25 0 24 -24q0 -33 -53 -49l-94 -29v-782q0 -268 -148.5 -416t-413.5 -148t-420 147.5t-155 416.5v784h-104q-35 0 -35 43q0 57 74 57h364q25 0 25 -26q0 -36 -57 -51l-103 -25v-791q0 -213 109.5 -327.5t311.5 -114.5t311.5 113.5t109.5 328.5
v793h-119q-35 0 -35 43zM905 1661q0 43 29 70.5t71 27.5t70.5 -27.5t28.5 -70.5t-28.5 -71.5t-70.5 -28.5t-71 28.5t-29 71.5zM512 1661q0 43 28.5 70.5t70.5 27.5t71 -27.5t29 -70.5t-29 -71.5t-71 -28.5t-70.5 28.5t-28.5 71.5zM547 2085l76 61l186 -202l186 202l76 -61
l-219 -277h-86z" />
    <glyph glyph-name="uni01DA" unicode="&#x1da;" horiz-adv-x="1222" 
d="M739 946q0 55 72 55h217v-905l82 -22q55 -15 55 -49q0 -25 -24 -25h-258v139h-6q-174 -164 -357 -164q-145 0 -239.5 85t-94.5 233v612h-102q-33 0 -33 41q0 55 72 55h217v-696q0 -100 58.5 -161.5t152.5 -61.5q177 0 323 166v657h-102q-33 0 -33 41zM682 1264
q0 43 28.5 70.5t70.5 27.5t71 -27.5t29 -70.5t-29 -72t-71 -29t-70.5 29t-28.5 72zM289 1264q0 43 28.5 70.5t70.5 27.5t70.5 -27.5t28.5 -70.5t-28.5 -72t-70.5 -29t-70.5 29t-28.5 72zM324 1688l75 61l187 -203l186 203l76 -61l-219 -277h-86z" />
    <glyph glyph-name="uni01DB" unicode="&#x1db;" horiz-adv-x="1599" 
d="M1079 1366q0 57 74 57h334q25 0 24 -24q0 -33 -53 -49l-94 -29v-782q0 -268 -148.5 -416t-413.5 -148t-420 147.5t-155 416.5v784h-104q-35 0 -35 43q0 57 74 57h364q25 0 25 -26q0 -36 -57 -51l-103 -25v-791q0 -213 109.5 -327.5t311.5 -114.5t311.5 113.5t109.5 328.5
v793h-119q-35 0 -35 43zM907 1661q0 43 29 70.5t71 27.5t70.5 -27.5t28.5 -70.5t-28.5 -71.5t-70.5 -28.5t-71 28.5t-29 71.5zM514 1661q0 43 28.5 70.5t70.5 27.5t71 -27.5t29 -70.5t-29 -71.5t-71 -28.5t-70.5 28.5t-28.5 71.5zM594 2054l117 74l163 -281l-83 -53z" />
    <glyph glyph-name="uni01DC" unicode="&#x1dc;" horiz-adv-x="1222" 
d="M739 946q0 55 72 55h217v-905l82 -22q55 -15 55 -49q0 -25 -24 -25h-258v139h-6q-174 -164 -357 -164q-145 0 -239.5 85t-94.5 233v612h-102q-33 0 -33 41q0 55 72 55h217v-696q0 -100 58.5 -161.5t152.5 -61.5q177 0 323 166v657h-102q-33 0 -33 41zM686 1264
q0 43 28.5 70.5t70.5 27.5t71 -27.5t29 -70.5t-29 -72t-71 -29t-70.5 29t-28.5 72zM293 1264q0 43 28.5 70.5t70.5 27.5t71 -27.5t29 -70.5t-29 -72t-71 -29t-70.5 29t-28.5 72zM373 1657l116 74l164 -281l-84 -53z" />
    <glyph glyph-name="Gcaron" unicode="&#x1e6;" horiz-adv-x="1470" 
d="M811 651q0 58 74 58h475q22 -1 22 -23t-12 -33.5t-41 -19.5l-98 -25v-530q-90 -49 -211 -76t-232 -27q-202 0 -357 82t-242 247t-87 405t86 405.5t236.5 249.5t341.5 84q135 0 257 -41t202 -109v-233q0 -31 -31 -31q-25 0 -38 17.5t-21 56.5l-29 141q-111 86 -315 86
q-242 0 -382.5 -163.5t-140.5 -458.5q0 -199 64.5 -339.5t182.5 -213t275 -72.5t277 55v467h-223q-33 0 -33 41zM500 1817l75 61l187 -203l186 203l76 -61l-219 -279h-86z" />
    <glyph glyph-name="gcaron" unicode="&#x1e7;" horiz-adv-x="1128" 
d="M236 492q0 -197 86 -306.5t243 -109.5q76 0 141.5 34.5t105.5 97t40 140.5v488q-115 86 -268 86q-96 0 -175 -48.5t-126 -145.5t-47 -236zM80 491.5q0 172.5 67.5 292t181 179t239.5 59.5t242 -43t196 -111v-929q0 -195 -114 -302.5t-317 -107.5t-339 80q-68 41 -68 70.5
t12.5 42t27.5 12.5t63 -30q47 -30 125.5 -51.5t158.5 -21.5q303 0 303 285v217h-8q-112 -158 -322 -158q-123 0 -225 56.5t-162.5 172t-60.5 288zM303 1423l76 62l186 -203l187 203l75 -62l-219 -278h-86z" />
    <glyph glyph-name="Aringacute" unicode="&#x1fa;" horiz-adv-x="1456" 
d="M956 575l-254 709l-253 -709h507zM1004 0q-35 0 -35 35q0 65 75 65h84l-131 365h-587l-129 -363l120 -24q57 -10 58 -49q0 -29 -23 -29h-385q-35 0 -35 43q0 57 74 57h62l477 1323h188l477 -1321l90 -20q57 -12 58 -51q0 -31 -23 -31h-415zM805 1690q0 45 -25.5 69.5
t-66.5 24.5t-68 -24.5t-27 -69.5t27 -71t68 -26t66.5 26t25.5 71zM524 1689.5q0 75.5 52.5 127t137.5 51.5t136 -51.5t51 -127t-51 -127t-137 -51.5t-137.5 51.5t-51.5 127zM678 1978l178 297l123 -77l-209 -279z" />
    <glyph glyph-name="aringacute" unicode="&#x1fb;" horiz-adv-x="1081" 
d="M752 348v164l-254 -41q-121 -20 -186.5 -68.5t-65.5 -138.5t57 -137t140 -47t153 36t113 97t43 135zM748 143q-122 -168 -353 -168q-121 0 -213 74t-92 212t102.5 209t270.5 95l289 43v90q0 100 -61.5 162t-172.5 62q-63 0 -142 -22.5t-130 -55.5l-17 -90
q-10 -59 -53 -60q-31 0 -31 27v186q82 49 189.5 82t206.5 33q160 0 262 -86t102 -240v-602l76 -20q55 -15 55 -49q0 -25 -22 -25h-258v143h-8zM618 1300.5q0 45.5 -25.5 70t-66.5 24.5t-67.5 -24.5t-26.5 -70t26.5 -71t67.5 -25.5t66.5 25.5t25.5 71zM338 1300.5
q0 75.5 52 127t137 51.5t136.5 -51.5t51.5 -127t-51.5 -127t-137.5 -51.5t-137 51.5t-51 127zM487 1599l179 277l122 -78l-208 -258z" />
    <glyph glyph-name="AEacute" unicode="&#x1fc;" horiz-adv-x="2295" 
d="M1165 575v736l-524 -736h524zM1049 0q-27 0 -27 31t18.5 45t57.5 22l67 13v354h-596l-262 -363l121 -24q59 -11 59 -49q0 -29 -22 -29h-410q-35 0 -35 43q0 57 74 57h62l860 1213l-66 12q-41 8 -59.5 22.5t-18.5 44.5t29 31h1225v-260q0 -29 -31 -28q-41 0 -57 84l-19 96
h-690v-533h580l22 92q14 57 45 58q29 0 29 -27v-352q0 -29 -30 -29t-44 58l-22 92h-580v-565h717l18 104q14 84 58 84q31 0 30 -31v-266h-1103zM1430 1597l178 299l123 -79l-209 -279z" />
    <glyph glyph-name="aeacute" unicode="&#x1fd;" horiz-adv-x="1722" 
d="M246 258q0 -86 57 -132t139 -46t154 41t116 106.5t44 137.5l-11 84v49l-266 -41q-233 -38 -233 -199zM1491 639q0 127 -76 205t-205 78t-214 -88.5t-95 -251.5h582q8 33 8 57zM1217 1022q133 0 229 -54.5t147.5 -148.5t51.5 -211q0 -61 -27 -127h-717q2 -193 94 -299
t243 -106t267 82q4 2 17.5 10t27.5 8t26.5 -14.5t12.5 -40.5t-63 -70q-126 -76 -280 -76q-309 0 -435 242q-55 -113 -162 -177.5t-241 -64.5t-226 72t-92 207t97.5 202.5t256.5 92.5l308 47v100q0 106 -64.5 166t-169.5 60q-63 0 -142 -22.5t-130 -55.5l-17 -90
q-12 -59 -53 -60q-31 0 -31 27v186q82 49 189.5 82t212.5 33t189.5 -52t121.5 -145q124 197 359 197zM760 1204l178 299l123 -80l-209 -278z" />
    <glyph glyph-name="Oslashacute" unicode="&#x1fe;" horiz-adv-x="1531" 
d="M1251 703q0 291 -112 452l-641 -995q109 -74 266 -74q235 0 361 163t126 454zM764 1337q-233 0 -359 -164.5t-126 -466.5t131 -464l645 1001q-117 94 -291 94zM113 709q0 242 81.5 407.5t228 248.5t350.5 83t353 -94l115 178l102 -57l-124 -193q199 -195 199 -564
t-176.5 -556t-475.5 -187q-193 0 -338 78l-145 -227l-103 57l152 238q-219 190 -219 588zM631 1597l178 299l123 -79l-209 -279z" />
    <glyph glyph-name="oslashacute" unicode="&#x1ff;" horiz-adv-x="1095" 
d="M866 488q0 192 -67 298l-426 -657q76 -53 176 -53q149 0 233 110t84 302zM229 509q0 -191 70 -300l428 657q-70 55 -178 56q-152 0 -236 -111t-84 -302zM74 486q0 258 128 397t345 139q139 0 246 -59l88 137l88 -53l-95 -146q148 -140 148 -393q0 -254 -128 -393.5
t-347 -139.5q-135 0 -238 56l-110 -172l-90 57l114 176q-149 136 -149 394zM408 1204l178 299l123 -80l-209 -278z" />
    <glyph glyph-name="Scommaaccent" unicode="&#x218;" horiz-adv-x="1218" 
d="M548 -92q20 0 27 -2l154 -37q-58 -214 -180 -356l-72 45q39 57 71 129.5t38 119.5l-60 21q-25 6 -24.5 30.5t13.5 37t33 12.5zM106 365q0 30 36 30q44 0 59 -84l26 -131q125 -92 387 -92q124 0 228 56.5t104 181.5q0 80 -40 134t-122 99t-267 120t-294.5 170t-109.5 259
t137 252t334 88q129 0 253 -39t203 -106v-242q0 -31 -28 -31t-42 17.5t-24 66.5l-26 129q-117 92 -326 92q-137 0 -226 -54t-89 -167q0 -138 123.5 -200t289.5 -134q145 -59 282.5 -146t137.5 -282q0 -196 -144.5 -286.5t-369.5 -90.5q-125 0 -267.5 37t-224.5 101v252z" />
    <glyph glyph-name="scommaaccent" unicode="&#x219;" horiz-adv-x="927" 
d="M352 -129q0 37 51 37q14 0 23 -2l154 -37q-59 -216 -181 -356l-71 45q39 57 70.5 129.5t37.5 119.5l-59 21q-25 6 -25 43zM444 78q240 0 240 149q0 55 -26.5 89t-81 63t-194.5 87t-213 124.5t-73 183.5t103.5 182.5t227.5 65.5t222.5 -37t149.5 -86v-180q0 -27 -31 -27
q-40 0 -51 58l-19 98q-80 72 -244 72q-78 0 -140 -35t-62 -97t29.5 -95.5t79 -59t197.5 -89.5t215 -130t67 -190t-111 -186.5t-243 -62.5t-236.5 30t-161.5 79v186q0 29 31 29q39 0 51 -59l18 -93q39 -35 112 -52t144 -17z" />
    <glyph glyph-name="uni021A" unicode="&#x21a;" horiz-adv-x="1220" 
d="M540 -92q20 0 27 -2l154 -37q-58 -214 -180 -356l-72 45q39 57 70.5 129.5t38.5 119.5l-60 21q-25 6 -24.5 30.5t13.5 37t33 12.5zM389 43q0 57 76 57h63v1213h-350l-20 -109q-8 -39 -20.5 -57.5t-35.5 -18.5q-35 0 -34 31v264h1087v-264q0 -31 -35 -31q-23 0 -35 18.5
t-20 57.5l-21 109h-352v-1211l103 -24q57 -15 57 -51q0 -27 -25 -27h-403q-35 0 -35 43z" />
    <glyph glyph-name="uni021B" unicode="&#x21b;" horiz-adv-x="811" 
d="M414 -92q20 0 28 -2l154 -37q-58 -214 -180 -356l-72 45q39 57 70.5 129.5t38.5 119.5l-60 21q-25 6 -24.5 30.5t13 37t32.5 12.5zM109 893q-35 0 -35 36q0 68 71 68h105l26 217h125v-217h312q25 0 24.5 -34.5t-84.5 -42.5l-252 -27v-674q0 -70 36.5 -105.5t88.5 -35.5
q92 0 148 53q43 34 62.5 16t19.5 -38q0 -39 -69 -86t-181 -47t-185 67.5t-73 185.5v664h-139z" />
    <glyph glyph-name="uni0237" unicode="&#x237;" horiz-adv-x="581" 
d="M311 31v874h-104q-33 0 -33 41q0 55 74 55h217v-983q0 -348 -264 -462q-56 -27 -94 -27q-37 0 -62 27.5t-27 87.5q162 53 227.5 139t65.5 248z" />
    <glyph glyph-name="uni0251" unicode="&#x251;" horiz-adv-x="1183" 
d="M840 352v465q-121 104 -271 105q-94 0 -169.5 -49.5t-119.5 -145.5t-44 -235q0 -197 82.5 -306.5t240.5 -109.5q76 0 140.5 35.5t102.5 98t38 142.5zM901 1001h92v-905l80 -22q55 -15 55 -49q0 -25 -22 -25h-258v135h-6q-111 -160 -320 -160q-123 0 -223 56.5
t-159.5 172.5t-59.5 282t60.5 286.5t165 185t250.5 64.5t286 -96q3 75 59 75z" />
    <glyph glyph-name="uni0259" unicode="&#x259;" horiz-adv-x="1062" 
d="M238 373q0 -141 75.5 -219t204.5 -78t214 94t95 260h-581q-8 -18 -8 -57zM84 403q0 68 29 129h718q-2 188 -98 289t-243 101t-265 -82q-4 -2 -17.5 -10.5t-27.5 -8.5t-26.5 14.5t-12.5 42t64 68.5q125 76 281 76t266 -62.5t171.5 -179t61.5 -274.5q0 -242 -126 -386.5
t-335 -144.5t-324.5 117t-115.5 311z" />
    <glyph glyph-name="uni0261" unicode="&#x261;" horiz-adv-x="1128" 
d="M852 348v488q-115 86 -268 86q-96 0 -175 -48t-126 -146q-47 -97 -47 -236q0 -197 86 -307t243 -109q76 0 142 35q65 35 105 97t40 140zM80 492q0 172 68 292t181 178q114 60 240 60q125 0 241 -43t196 -111v-929q0 -195 -114 -303t-333 -107q-183 -2 -323 80
q-68 41 -68 71q0 51 41 54q16 0 63 -30q46 -30 124 -52t159 -21q303 0 303 285v217h-8q-112 -158 -322 -158q-123 1 -225 57t-163 172q-60 116 -60 288z" />
    <glyph glyph-name="uni02BB" unicode="&#x2bb;" horiz-adv-x="425" 
d="M328 1035q0 -26 -16 -41t-38 -15t-36 6l-166 49q25 106 83 229t128 207l75 -45q-41 -61 -80.5 -161.5t-48.5 -169.5l72 -23q27 -10 27 -36z" />
    <glyph glyph-name="uni02BC" unicode="&#x2bc;" horiz-adv-x="425" 
d="M102 1405q0 55 60 55q20 0 31 -4l165 -49q-25 -106 -84 -230t-127 -208l-75 47q41 59 81 160.5t48 169.5l-72 24q-27 6 -27 35z" />
    <glyph glyph-name="uni02BE" unicode="&#x2be;" horiz-adv-x="374" 
d="M199 1278q0 113 -131 119v78q121 0 184 -51.5t63 -146.5t-64.5 -146.5t-182.5 -51.5v80q131 6 131 119z" />
    <glyph glyph-name="uni02BF" unicode="&#x2bf;" horiz-adv-x="374" 
d="M182 1277q0 -112 133 -118v-80q-118 0 -182.5 51.5t-64.5 146.5t63.5 146.5t183.5 51.5v-78q-133 -8 -133 -120z" />
    <glyph glyph-name="circumflex" unicode="&#x2c6;" horiz-adv-x="833" 
d="M156 1159l219 279h86l219 -279l-76 -61l-186 202l-187 -202z" />
    <glyph glyph-name="caron" unicode="&#x2c7;" horiz-adv-x="833" 
d="M156 1376l75 62l187 -203l186 203l76 -62l-219 -278h-86z" />
    <glyph glyph-name="uni02C8" unicode="&#x2c8;" horiz-adv-x="243" 
d="M55 1501h133v-391h-133v391z" />
    <glyph glyph-name="uni02C9" unicode="&#x2c9;" horiz-adv-x="700" 
d="M119 1313h463v-111h-463v111z" />
    <glyph glyph-name="uni02CA" unicode="&#x2ca;" horiz-adv-x="393" 
d="M47 1210l193 301l114 -69l-227 -285z" />
    <glyph glyph-name="uni02CB" unicode="&#x2cb;" horiz-adv-x="393" 
d="M41 1442l115 69l192 -301l-80 -53z" />
    <glyph glyph-name="uni02CC" unicode="&#x2cc;" horiz-adv-x="346" 
d="M109 0h131v-293h-131v293z" />
    <glyph glyph-name="breve" unicode="&#x2d8;" horiz-adv-x="831" 
d="M416 1212q76 0 129 46.5t76 121.5l94 -32q-35 -127 -115 -186.5t-184.5 -59.5t-184 59.5t-114.5 186.5l94 32q23 -76 76 -122t129 -46z" />
    <glyph glyph-name="dotaccent" unicode="&#x2d9;" horiz-adv-x="663" 
d="M231 1223q0 43 30 71.5t71 28.5t70.5 -28.5t29.5 -71.5t-29.5 -72t-70.5 -29t-71 29t-30 72z" />
    <glyph glyph-name="ring" unicode="&#x2da;" horiz-adv-x="804" 
d="M496 1280q0 45 -26 69.5t-67 24.5t-67.5 -24.5t-26.5 -69.5t26.5 -70.5t67.5 -25.5t67 25.5t26 70.5zM215 1280q0 76 52 127t137 51t136.5 -51t51.5 -127t-51.5 -127t-137.5 -51t-137 51t-51 127z" />
    <glyph glyph-name="ogonek" unicode="&#x2db;" horiz-adv-x="800" 
d="M227 -235q0 152 152 235h119q-63 -31 -110.5 -91.5t-47.5 -123.5t37 -94t88 -31t92 12l14 -69q-59 -27 -118 -27q-101 0 -163.5 53.5t-62.5 135.5z" />
    <glyph glyph-name="tilde" unicode="&#x2dc;" horiz-adv-x="811" 
d="M526 1124q-43 0 -121 36t-126 36t-123 -53l-58 76q103 94 195 94q39 0 123 -37q70 -35 120 -35t121 53l58 -77q-98 -93 -189 -93z" />
    <glyph glyph-name="hungarumlaut" unicode="&#x2dd;" horiz-adv-x="847" 
d="M438 1147l230 356l104 -63l-262 -342zM78 1147l229 356l105 -63l-262 -342z" />
    <glyph glyph-name="gravecomb" unicode="&#x300;" 
d="M-698 1376l120 80l181 -299l-92 -59z" />
    <glyph glyph-name="acutecomb" unicode="&#x301;" 
d="M-684 1157l180 299l121 -80l-209 -278z" />
    <glyph glyph-name="uni0302" unicode="&#x302;" 
d="M-877 1159l220 279h86l219 -279l-76 -61l-186 202l-187 -202z" />
    <glyph glyph-name="tildecomb" unicode="&#x303;" 
d="M-430 1124q-31 0 -55.5 10t-86.5 36t-108 26t-121 -53l-57 76q103 94 194 94q39 0 123 -37q70 -35 121 -35t121 53l57 -77q-98 -93 -188 -93z" />
    <glyph glyph-name="uni0304" unicode="&#x304;" 
d="M-903 1266h577v-113h-577v113z" />
    <glyph glyph-name="uni0306" unicode="&#x306;" 
d="M-676 1212q76 0 129 46.5t76 121.5l94 -32q-35 -127 -114.5 -186.5t-184 -59.5t-184.5 59.5t-115 186.5l94 32q23 -76 76 -122t129 -46z" />
    <glyph glyph-name="uni0307" unicode="&#x307;" 
d="M-508 1223q0 43 29.5 71.5t70.5 28.5t71 -28.5t30 -71.5t-30 -72t-71 -29t-70.5 29t-29.5 72z" />
    <glyph glyph-name="uni0308" unicode="&#x308;" 
d="M-436 1225q0 43 28.5 70.5t70.5 27.5t70.5 -27.5t28.5 -70.5t-28.5 -72t-70.5 -29t-70.5 29t-28.5 72zM-829 1225q0 43 29.5 70.5t70.5 27.5t69.5 -27.5t28.5 -70.5t-28.5 -72t-69.5 -29t-70.5 29t-29.5 72z" />
    <glyph glyph-name="hookabovecomb" unicode="&#x309;" 
d="M-434 1382q-35 0 -96 -16l-15 68q158 59 224.5 5.5t66.5 -107.5q0 -108 -115 -146l-10 -92h-82l-12 129q109 39 108 100q0 59 -69 59z" />
    <glyph glyph-name="uni030A" unicode="&#x30a;" 
d="M-504 1280q0 45 -26.5 69.5t-67.5 24.5t-66.5 -24.5t-25.5 -69.5t25.5 -70.5t66.5 -25.5t67.5 25.5t26.5 70.5zM-786 1280q0 76 51 127t136 51t137 -51t52 -127t-51 -127t-137 -51t-137 51t-51 127z" />
    <glyph glyph-name="uni030B" unicode="&#x30b;" 
d="M-485 1147l229 356l104 -63l-264 -342zM-846 1147l230 356l104 -63l-262 -342z" />
    <glyph glyph-name="uni030C" unicode="&#x30c;" 
d="M-733 1376l76 62l186 -203l186 203l76 -62l-219 -278h-86z" />
    <glyph glyph-name="uni031B" unicode="&#x31b;" 
d="M98 1167v82h279q0 -258 -236 -381l-61 74q145 68 166 225h-148z" />
    <glyph glyph-name="dotbelowcomb" unicode="&#x323;" 
d="M205 -164q0 43 29.5 72t70.5 29t71 -29t30 -72t-30 -71.5t-71 -28.5t-70.5 28.5t-29.5 71.5z" />
    <glyph glyph-name="uni0324" unicode="&#x324;" 
d="M-428 -164q0 43 29.5 72t71.5 29t71 -29t29 -72t-29 -71.5t-71 -28.5t-71.5 28.5t-29.5 71.5zM-793 -164q0 43 30 72t72 29t70.5 -29t28.5 -72t-28.5 -71.5t-70.5 -28.5t-72 28.5t-30 71.5z" />
    <glyph glyph-name="uni0326" unicode="&#x326;" 
d="M127 -393l192 301l115 -72l-227 -285z" />
    <glyph glyph-name="uni0327" unicode="&#x327;" 
d="M-606 -227q0 82 -92 108l43 119h108l-43 -94q100 -39 101 -137q0 -68 -68 -121.5t-164 -75.5l-24 61q139 46 139 140z" />
    <glyph glyph-name="uni0328" unicode="&#x328;" 
d="M444 -235q0 152 152 235h119q-63 -31 -110.5 -91.5t-47.5 -123.5t37 -94t89 -31t91 12l14 -69q-59 -27 -118 -27q-101 0 -163.5 53.5t-62.5 135.5z" />
    <glyph glyph-name="uni032E" unicode="&#x32e;" 
d="M383 -98q104 0 184 -59.5t115 -186.5l-94 -33q-23 76 -76 122t-129 46t-129 -46t-76 -122l-94 33q35 127 115 186.5t184 59.5z" />
    <glyph glyph-name="uni0331" unicode="&#x331;" 
d="M-975 -180h774v-109h-774v109z" />
    <glyph glyph-name="uni03A9" unicode="&#x3a9;" horiz-adv-x="1677" 
d="M27 293q0 31 30 31q39 0 58 -84l26 -129h359q-133 76 -223.5 245.5t-90.5 384.5t84 376t232.5 246t335 85t335 -85t233.5 -246t85 -376t-90 -385t-223 -245h358l27 129q16 84 57 84q31 0 31 -31v-293h-654v133q141 70 234.5 223.5t93.5 351.5t-58.5 337t-169 215.5
t-260 76.5t-259 -76.5t-168 -215.5t-58.5 -337t93.5 -351.5t234.5 -223.5v-133h-653v293z" />
    <glyph glyph-name="pi" unicode="&#x3c0;" horiz-adv-x="1257" 
d="M811 172v715h-358v-887h-158v887h-207v110h1083v-110h-202v-740q0 -47 21.5 -66.5t66.5 -19.5t84 21v-80q-51 -27 -134 -27t-139.5 48.5t-56.5 148.5z" />
    <glyph glyph-name="uni0E01" unicode="&#xe01;" horiz-adv-x="1247" 
d="M256 -4q-80 0 -80 65v404q0 49 11.5 74.5t41.5 54.5l123 113v10l-180 137q-31 25 -31 53.5t31 55.5q94 76 218 129t257 53q197 0 320 -103.5t123 -300.5v-698q0 -20 -17.5 -33.5t-52.5 -13.5t-56.5 17.5t-21.5 47.5v689q0 150 -82 224.5t-202 74.5q-208 0 -365 -127
q-14 -12 -14 -20t14 -19l190 -148v-43l-129 -121q-23 -20 -27.5 -35.5t-4.5 -54.5v-438q0 -20 -17.5 -33.5t-48.5 -13.5z" />
    <glyph glyph-name="uni0E02" unicode="&#xe02;" horiz-adv-x="1144" 
d="M410 957q0 50 -29 79t-74 29t-73.5 -28.5t-28.5 -78.5t28.5 -79t73.5 -29t74 28.5t29 78.5zM209 455q0 76 26.5 131t79.5 127q49 72 64 98q-37 -33 -99 -33t-112.5 50t-50.5 130t54 130.5t141 50.5t141.5 -55.5t54.5 -134.5t-19.5 -129t-57.5 -113t-57.5 -112.5
t-19.5 -117.5v-373q112 -30 219 -30q262 0 263 221v782q0 49 74 49t73 -65v-735q0 -350 -422 -351q-170 0 -352 60v420z" />
    <glyph glyph-name="uni0E03" unicode="&#xe03;" horiz-adv-x="1191" 
d="M383 957q0 50 -28.5 79t-72.5 29t-73 -28.5t-29 -78.5t29 -78t73 -28t72.5 27.5t28.5 77.5zM614 -25q-199 0 -370 62v373q0 88 40 152t109 134t99 114t30 99v78l-76 -117q-61 -94 -170 -94q-80 0 -132 53t-52 131t53.5 128.5t130.5 50.5t126 -42t59 -102l4 -2l70 123h83
v-227q0 -70 -27.5 -117.5t-83.5 -111.5t-86 -116t-30 -128v-310q103 -32 223 -32q266 0 267 221v782q-1 49 73 49t74 -65v-735q0 -174 -107.5 -262.5t-306.5 -88.5z" />
    <glyph glyph-name="uni0E04" unicode="&#xe04;" horiz-adv-x="1288" 
d="M750 566q0 48 -27 76t-70 28t-70.5 -29t-27.5 -76t27.5 -74.5t70.5 -27.5t70 27.5t27 75.5zM1069 -4q-80 0 -80 65v648q0 154 -95 247t-253 93t-253 -92.5t-95 -247.5q0 -358 -10 -600h10l190 499q45 127 174 127q72 0 120 -46t48 -121.5t-45 -124t-123 -48.5t-122 60
l-166 -428q-10 -27 -39 -27h-142q-35 0 -34 35v657q0 137 60 239.5t172 158t257 55.5t257 -55.5t173.5 -158t61.5 -239.5v-649q0 -20 -17.5 -33.5t-48.5 -13.5z" />
    <glyph glyph-name="uni0E05" unicode="&#xe05;" horiz-adv-x="1296" 
d="M750 566q0 48 -27 76t-70 28t-70.5 -29t-27.5 -76t27.5 -74.5t70.5 -27.5t70 27.5t27 75.5zM1077 -4q-80 0 -80 65v818q0 170 -141 170q-108 0 -166 -148h-92q-53 147 -164 148q-141 0 -141 -170v-129q0 -299 -10 -641h10l186 495q49 131 178 131q72 0 120 -46t48 -121.5
t-45 -124t-124 -48.5t-124 58l-163 -426q-10 -27 -37 -27h-144q-35 0 -34 35v839q0 131 69.5 201t179.5 70q163 0 238 -154h8q75 154 238 154q113 0 184.5 -69.5t71.5 -201.5v-831q0 -20 -17.5 -33.5t-48.5 -13.5z" />
    <glyph glyph-name="uni0E06" unicode="&#xe06;" horiz-adv-x="1290" 
d="M397 162q0 51 -30.5 81.5t-75.5 30.5t-76 -30.5t-31 -81.5t31 -81t76 -30t75.5 30t30.5 81zM387 957q0 50 -28.5 79t-72.5 29t-73 -28.5t-29 -78.5t29 -78t73 -28t72.5 27.5t28.5 77.5zM965 1077q-1 49 73 49t74 -65v-1034q0 -27 -27 -27h-73l-469 164q-41 16 -64 29
q4 -12 4 -46q0 -72 -56 -122t-139 -50t-138.5 52.5t-55.5 133.5t54.5 134t134.5 53q29 0 47 -8q-6 25 -6 53v82q0 72 27.5 122.5t77.5 110.5t73.5 100t23.5 95v84l-77 -117q-55 -94 -168 -94q-80 0 -132.5 53t-52.5 131t53.5 128.5t130.5 50.5t126 -42t57 -102l6 -2l70 123
h82v-233q0 -59 -18.5 -100.5t-57.5 -96.5t-58.5 -97t-19.5 -106v-110q0 -47 15.5 -66.5t56.5 -34.5l432 -153q-6 47 -6 106v852z" />
    <glyph glyph-name="uni0E07" unicode="&#xe07;" horiz-adv-x="1019" 
d="M758 957q0 50 -29 79t-74 29t-73.5 -28.5t-28.5 -78.5t28.5 -79t73.5 -29t74 28.5t29 78.5zM713 211v512q0 43 6 82q-29 -29 -91 -29t-113.5 51t-51.5 131t55 130.5t145 50.5t143.5 -57.5t53.5 -147.5v-701q0 -133 -82 -195.5t-221 -62.5t-258 43l-252 619q-6 16 -6 36
t19.5 36t50.5 16q61 0 88 -61l229 -572q50 -20 125 -20q160 0 160 139z" />
    <glyph glyph-name="uni0E08" unicode="&#xe08;" horiz-adv-x="1193" 
d="M430 513q0 50 -28.5 79t-73.5 29t-74 -29t-29 -79t29 -78.5t74 -28.5t73.5 28.5t28.5 78.5zM272 0q-32 0 -32 39q0 55 71 55h76v191q0 51 6 77q-31 -30 -93 -30t-114.5 50t-52.5 132t55.5 132t145.5 50t143 -58t53 -149v-395h33q150 0 246 119t96 363q0 470 -364 471
q-135 0 -316 -70q-55 -23 -67 -23t-23.5 10.5t-11.5 39.5t51 53q190 88 379 88q242 0 372 -142.5t130 -431.5q0 -186 -62.5 -314t-173 -192.5t-252.5 -64.5h-295z" />
    <glyph glyph-name="uni0E09" unicode="&#xe09;" horiz-adv-x="1329" 
d="M1133 160q0 51 -30 80.5t-75 29.5t-75.5 -29.5t-30.5 -80.5t30.5 -81t74.5 -30t75 30t31 81zM385 548q0 50 -28.5 78.5t-73.5 28.5t-74 -28.5t-29 -78.5t29 -79t74 -29t73.5 29t28.5 79zM225 0q-32 0 -32 39q0 55 71 55h78v219q0 45 6 82q-29 -29 -91.5 -28.5
t-115.5 50.5t-53 131t55.5 131t145.5 50t143 -57.5t53 -147.5v-321q0 -47 -12 -107h12l445 275q57 35 57 92v293q0 137 -95 214t-245.5 77t-353.5 -82q-55 -23 -67.5 -23t-24 10.5t-11.5 39.5t52 52q222 101 424 101q127 0 233.5 -44t170 -133t63.5 -220v-283
q0 -43 -15.5 -69.5t-52.5 -53.5q70 -10 113 -59.5t43 -127t-54.5 -129t-139.5 -51.5t-139 51.5t-54 133.5q0 14 4 39l-316 -199h-297z" />
    <glyph glyph-name="uni0E0A" unicode="&#xe0a;" horiz-adv-x="1167" 
d="M410 957q0 50 -29 79t-74 29t-73.5 -28.5t-28.5 -78.5t28.5 -79t73.5 -29t74 28.5t29 78.5zM565 -25q-174 0 -356 60v420q0 76 26.5 131t79.5 127q49 72 64 98q-37 -33 -99 -33t-112.5 50t-50.5 130t54 130.5t141 50.5t141.5 -55.5t54.5 -134.5t-19.5 -129t-57.5 -113
t-57.5 -112.5t-19.5 -117.5v-373q108 -30 224 -30q266 0 266 221v203q0 84 -38 131t-128 47h-25v90q154 139 250 315q14 25 24.5 36t38.5 11t48 -17t20 -48t-26 -72q-80 -119 -226 -243v-7q100 -6 154.5 -67.5t54.5 -157.5v-190q0 -351 -426 -351z" />
    <glyph glyph-name="uni0E0B" unicode="&#xe0b;" horiz-adv-x="1204" 
d="M383 957q0 50 -28.5 79t-72.5 29t-73 -28.5t-29 -78.5t29 -78t73 -28t72.5 27.5t28.5 77.5zM614 -25q-199 0 -370 62v373q0 88 40 152t109 134t99 114t30 99v78l-76 -117q-61 -94 -170 -94q-80 0 -132 53t-52 131t53.5 128.5t130.5 50.5t126 -42t59 -102l4 -2l70 123h83
v-231q0 -70 -27.5 -118t-84.5 -112t-86 -113.5t-29 -125.5v-310q103 -32 223 -32q266 0 267 221v203q0 86 -36 132t-126 46h-21v88q158 152 242 317q14 25 25 37t39 12t48.5 -18t20.5 -45q0 -103 -252 -319v-7q98 -6 152.5 -67.5t54.5 -157.5v-190q0 -174 -107.5 -262.5
t-306.5 -88.5z" />
    <glyph glyph-name="uni0E0C" unicode="&#xe0c;" horiz-adv-x="1857" 
d="M475 163q0 50 -28.5 78.5t-73.5 28.5t-74 -28.5t-29 -78.5t29 -79t74 -29t73.5 29t28.5 79zM999 162q0 51 -30.5 81.5t-75.5 30.5t-76 -30.5t-31 -81.5t31 -81t76 -30t75.5 30t30.5 81zM696 161q0 81 49.5 134t126.5 53q43 0 72 -14q-8 33 -8 84v338q0 145 -84 219
t-202 74q-199 0 -363 -127q-26 -22 0 -39l190 -150v-43l-131 -121q-20 -20 -26.5 -36.5t-6.5 -51.5v-116q0 -29 -6 -41q37 20 76 20q82 0 133 -51t51 -130t-56 -130t-145 -51t-142.5 57t-53.5 145v275q0 49 11.5 76.5t41.5 56.5l123 113v8l-180 141q-31 25 -31 53.5t31 55.5
q94 76 217 129t256 53q201 0 320.5 -100.5t119.5 -299.5v-376q0 -47 15.5 -65.5t58.5 -35.5l389 -149q-8 35 -8 92v868q0 20 16.5 33.5t46.5 13.5q82 0 82 -65v-1038q0 -23 -22 -23h-78l-420 160q-35 12 -78 35q4 -16 4 -54q0 -70 -57 -118t-139 -48t-137.5 52.5
t-55.5 133.5z" />
    <glyph glyph-name="uni0E0D" unicode="&#xe0d;" horiz-adv-x="1878" 
d="M1188 -263q0 40 -21.5 62.5t-57.5 22.5t-57.5 -22.5t-21.5 -62.5t21.5 -62.5t57.5 -22.5t57.5 22.5t21.5 62.5zM956 -267q0 71 44 111.5t108 40.5t109 -40t45 -91q0 -96 -74 -127v-6q36 -20 114 -20t148.5 57t89 135t47.5 78t46.5 -15.5t17.5 -47.5t-25 -87
q-47 -98 -133.5 -155.5t-186.5 -57.5t-175.5 26t-125 77t-49.5 122zM475 163q0 50 -28.5 78.5t-73.5 28.5t-74 -28.5t-29 -78.5t29 -79t74 -29t73.5 29t28.5 79zM819 0q-33 0 -33 39q0 55 72 55h78v662q0 145 -84 219t-202 74q-199 0 -363 -127q-26 -22 0 -39l190 -150v-43
l-131 -121q-20 -20 -26.5 -36.5t-6.5 -51.5v-119q0 -29 -6 -40q39 23 76 22q82 0 133 -51t51 -130t-55.5 -130t-145.5 -51t-143 57t-53 145v275q0 49 11.5 76.5t41.5 56.5l123 113v8l-180 141q-31 25 -31 53.5t31 55.5q94 76 217 129t256 53q199 0 319.5 -102.5
t120.5 -299.5v-649h344q78 0 108 30t30 105v850q1 47 73 47t72 -65v-854q0 -106 -51 -156.5t-162 -50.5h-674z" />
    <glyph glyph-name="uni0E0E" unicode="&#xe0e;" horiz-adv-x="1318" 
d="M436 -363q0 -81 86 -81q47 0 85 35.5t59 89.5q-66 41 -119 41t-82 -23t-29 -62zM360 158q0 47 -26.5 73.5t-68.5 26.5t-68.5 -26.5t-26.5 -73.5t26.5 -75t68.5 -28t68.5 28t26.5 75zM739 -358q-74 -170 -228 -170q-77 0 -129 44t-52 119.5t59.5 121.5t144.5 46t160 -36
q30 51 48 108t51 57q23 0 39 -15t16 -40q0 -50 -80 -145l227 -123h19v1139q0 150 -83 225.5t-241 75.5t-315 -119q-15 -12 -15 -20t15 -19l229 -172v-49l-104 -92q-23 -23 -30 -39.5t-7 -53.5v-311q0 -84 -53.5 -138t-138.5 -54t-138 49t-53 125t49 124t109 48t84 -15
q-4 8 -5 27v139q0 45 11.5 68.5t44.5 52.5l102 86v10l-217 162q-35 29 -35 55t31 54q230 178 465 178q195 0 318.5 -103.5t123.5 -300.5v-1222q0 -23 -22 -23h-135z" />
    <glyph glyph-name="uni0E0F" unicode="&#xe0f;" horiz-adv-x="1318" 
d="M441 -281q-111 0 -111 -86q0 -35 23.5 -56t67.5 -21t81 29.5t59 80.5q-66 53 -120 53zM360 158q0 47 -26.5 73.5t-68.5 26.5t-68.5 -26.5t-26.5 -73.5t26.5 -75t68.5 -28t68.5 28t26.5 75zM1161 -465q1 -47 -73 -47t-74 66v92l-176 -152h-52l-157 129q-70 -152 -221 -151
q-78 0 -130.5 44t-52.5 118t58.5 121.5t143.5 47.5t165 -49q35 49 65 133q12 43 45 43q23 0 38.5 -15t15.5 -38q0 -58 -99 -168l150 -119h12l195 170v988q0 150 -83 225.5t-235 75.5t-321 -119q-15 -12 -15 -20t15 -19l229 -172v-49l-104 -92q-23 -23 -30 -39.5t-7 -53.5
v-311q0 -84 -53.5 -138t-138.5 -54t-138 49t-53 125t49 124t109 48t84 -15q-4 8 -5 27v139q0 45 11.5 68.5t44.5 52.5l102 86v10l-217 162q-35 29 -35 55t31 54q230 178 465 178q195 0 318.5 -103.5t123.5 -300.5v-1206z" />
    <glyph glyph-name="uni0E10" unicode="&#xe10;" horiz-adv-x="1263" 
d="M305 -336q-27 0 -46 -16.5t-19 -43t18 -43t49 -16.5q58 0 90 62q-41 57 -92 57zM922 -205q0 31 -17.5 49.5t-45.5 18.5t-45 -18.5t-17 -49.5t17 -49t45 -18t45.5 18t17.5 49zM440 -442q-46 -86 -152 -86q-56 0 -99.5 35.5t-43.5 95t44 96.5t112 37t135 -64q27 47 38 78.5
t19.5 43t28 11.5t35.5 -13t16 -36q0 -44 -88 -139l58 -61h24l105 104h24l127 -104h72v88q0 25 4 39q-16 -14 -61 -14.5t-80 35.5t-35 92t38 91t100.5 35t101 -40t38.5 -103v-262q0 -35 -32 -35h-170l-113 90l-96 -90h-80zM432 513q0 50 -28.5 79t-73.5 29t-74 -29t-29 -79
t29 -78.5t74 -28.5t73.5 28.5t28.5 78.5zM274 0q-32 0 -32 39q0 55 71 55h76v195q0 41 6 67q-25 -25 -90.5 -24.5t-117.5 50.5t-52 132t55.5 132t145.5 50t143 -58t53 -149v-395h33q150 0 246 119t96 363q0 470 -364 471q-135 0 -316 -70q-55 -23 -67 -23t-23.5 10.5
t-11.5 39t51 53.5q190 88 384 88t314 -94q119 35 174.5 68.5t71.5 33.5q51 0 51 -53q0 -87 -227 -119q113 -143 113 -410q0 -186 -62.5 -314t-173 -192.5t-252.5 -64.5h-295z" />
    <glyph glyph-name="uni0E11" unicode="&#xe11;" horiz-adv-x="1331" 
d="M379 957q0 50 -28.5 79t-72.5 29t-73 -28.5t-29 -78.5t29 -78t73 -28t72.5 27.5t28.5 77.5zM1092 -4q-80 0 -80 65v863q0 51 -13.5 75.5t-46.5 24.5t-52 -24.5t-40 -79.5l-338 -887q-12 -33 -45 -33h-307q-33 0 -33 39q0 55 72 55h59v303q0 84 36 148.5t104 142.5
q57 70 84.5 117t27.5 104v80l-78 -119q-63 -94 -170 -94q-80 0 -132 53t-52 131t53.5 128.5t130.5 50.5t125.5 -42t59.5 -102l4 -2l69 123h84v-219q0 -70 -25.5 -120.5t-77.5 -116.5t-78.5 -118.5t-26.5 -127.5v-312h53q0 40 37 140l262 686q41 109 88 160t131 51
q180 0 180 -224v-872q0 -20 -17.5 -33.5t-47.5 -13.5z" />
    <glyph glyph-name="uni0E12" unicode="&#xe12;" horiz-adv-x="1890" 
d="M1034 162q0 51 -30.5 81.5t-75.5 30.5t-76 -30.5t-31 -81.5t31 -81t76 -30t75.5 30t30.5 81zM723 594q0 49 -27.5 76.5t-70.5 27.5t-70 -27.5t-27 -76.5t27 -77t70 -28t70.5 28t27.5 77zM1567 1079q1 47 73 47t72 -65v-1038q0 -23 -22 -23h-78l-420 160q-29 10 -76 35
q4 -25 4 -39q0 -80 -55 -130.5t-139 -50.5t-139.5 52.5t-55.5 132.5t51.5 134t126.5 54q41 0 70 -14q-12 35 -12 84v471q0 78 -35 119t-96 41q-103 0 -160 -146h-92q-57 146 -160 146q-61 0 -96 -41t-35 -119v-230q0 -370 -12 -550h102l250 325q-101 0 -140.5 50t-39.5 118
t48 114t128 46t127 -48t47 -116t-26.5 -120t-88.5 -132l-242 -317q-25 -29 -49 -29h-213q-31 0 -30 31v848q0 129 67.5 197.5t171.5 68.5q161 0 234 -154h8q35 72 89 113t152 41t167 -68.5t69 -197.5v-510q0 -45 14.5 -64.5t57.5 -36.5l391 -149q-8 35 -8 92v868z" />
    <glyph glyph-name="uni0E13" unicode="&#xe13;" horiz-adv-x="1945" 
d="M1741 160q0 51 -30 80.5t-75 29.5t-75.5 -29.5t-30.5 -80.5t30.5 -81t74.5 -30t75 30t31 81zM475 163q0 50 -28.5 78.5t-73.5 28.5t-74 -28.5t-29 -78.5t29 -79t74 -29t73.5 29t28.5 79zM1741 471q0 -83 -62 -129q68 -14 108 -62.5t40 -125t-54.5 -128t-139.5 -51.5
t-139 51.5t-54 133.5q0 14 4 39l-336 -199h-287q-33 0 -33 39q0 55 72 55h76v662q0 145 -84 219t-238.5 74t-326.5 -127q-26 -22 0 -39l190 -150v-43l-131 -121q-20 -20 -26.5 -36.5t-6.5 -51.5v-119q0 -29 -6 -40q33 23 76 22q82 0 133 -51t51 -130t-56 -130t-145 -51
t-142.5 57t-53.5 145v275q0 49 11.5 76.5t41.5 56.5l123 113v8l-180 141q-31 25 -31 55.5t31 53.5q94 76 217 129t256 53q201 0 320.5 -100.5t119.5 -299.5v-552q0 -43 -8 -78h33l430 250q61 33 61 100v614q0 47 73 47t73 -65v-590z" />
    <glyph glyph-name="uni0E14" unicode="&#xe14;" horiz-adv-x="1288" 
d="M735 606q0 49 -27.5 77t-70.5 28t-69.5 -28t-26.5 -77t27.5 -77.5t69.5 -28.5t69.5 28.5t27.5 77.5zM1069 -4q-80 0 -80 65v648q0 154 -95 247t-253 93t-253 -92.5t-95 -247.5v-392q0 -125 -10 -208h112l248 335q-95 0 -137.5 53t-42.5 119t48 113t129 47t128 -49
t47 -117t-25.5 -118t-84.5 -134l-246 -329q-18 -29 -49 -29h-226q-31 0 -30 31v661q0 137 60 239.5t172 158t257 55.5t257 -55.5t173.5 -158t61.5 -239.5v-649q0 -20 -17.5 -33.5t-48.5 -13.5z" />
    <glyph glyph-name="uni0E15" unicode="&#xe15;" horiz-adv-x="1296" 
d="M735 594q0 49 -27.5 76.5t-70.5 27.5t-69.5 -27.5t-26.5 -76.5t27.5 -78t69.5 -29t69.5 29t27.5 78zM1077 -4q-80 0 -80 65v818q0 170 -141 170q-108 0 -166 -148h-92q-53 147 -164 148q-141 0 -141 -170v-220q0 -370 -12 -550h118l244 323q-96 0 -138 53t-42 119t49 113
t129 47t128 -49t48 -117t-26.5 -121t-85.5 -131l-240 -317q-23 -29 -49 -29h-232q-31 0 -30 31v843q0 131 69.5 201t179.5 70q163 0 238 -154h8q75 154 238 154q113 0 184.5 -69.5t71.5 -201.5v-831q0 -20 -17.5 -33.5t-48.5 -13.5z" />
    <glyph glyph-name="uni0E16" unicode="&#xe16;" horiz-adv-x="1253" 
d="M475 163q0 50 -28.5 78.5t-73.5 28.5t-74 -28.5t-29 -78.5t29 -79t74 -29t73.5 29t28.5 79zM170 184v275q0 49 11.5 76.5t41.5 56.5l123 113v8l-180 141q-31 25 -31 53.5t31 55.5q94 76 220 129t261 53q199 0 324 -102.5t125 -299.5v-700q0 -20 -17.5 -33.5t-52.5 -13.5
t-56.5 17.5t-21.5 47.5v693q0 145 -86 220t-206 75q-206 0 -369 -127q-26 -22 0 -39l190 -150v-43l-131 -121q-20 -20 -26.5 -36.5t-6.5 -51.5v-121q0 -29 -6 -38q35 23 76 22q82 0 133 -51t51 -130t-55.5 -130t-145.5 -51t-143 57t-53 145z" />
    <glyph glyph-name="uni0E17" unicode="&#xe17;" horiz-adv-x="1370" 
d="M365 957q0 50 -29 79t-74 29t-73.5 -28.5t-28.5 -78.5t28.5 -79t73.5 -29t74 28.5t29 78.5zM1133 -4q-80 0 -80 65v865q0 98 -74 98q-33 0 -54.5 -26.5t-41.5 -82.5l-332 -882q-11 -33 -43 -33h-299q-33 0 -33 39q0 55 72 55h76v629q0 55 6 82q-30 -29 -92 -29t-116 51
t-54 131t55 130.5t145 50.5t143.5 -57.5t53.5 -147.5v-725q0 -43 -16 -105h24l305 824q39 104 90.5 157.5t141.5 53.5t139 -58.5t49 -162.5v-875q0 -20 -17.5 -33.5t-47.5 -13.5z" />
    <glyph glyph-name="uni0E18" unicode="&#xe18;" horiz-adv-x="1204" 
d="M174 0q-33 0 -33 39q0 55 72 55h63v330q0 49 66 49q39 0 60.5 -17.5t21.5 -47.5v-314h319q78 0 111 32t33 110v231q0 55 -24.5 78.5t-86.5 34.5l-583 94v104q0 176 122.5 271.5t306.5 95.5t388 -82q51 -23 51 -62.5t-35 -39.5q-14 0 -65 22q-155 63 -303 63t-234 -62
t-86 -177v-57l479 -78q115 -18 166 -63.5t51 -147.5v-248q0 -213 -221 -213h-639z" />
    <glyph glyph-name="uni0E19" unicode="&#xe19;" horiz-adv-x="1361" 
d="M1155 160q0 51 -29.5 80.5t-74.5 29.5t-76 -29.5t-31 -80.5t31 -81t75 -30t74.5 30t30.5 81zM365 957q0 50 -29 79t-74 29t-73.5 -28.5t-28.5 -79t28.5 -79t73.5 -28.5t74 28.5t29 78.5zM1155 473q0 -78 -59 -131q68 -14 107.5 -62.5t39.5 -125t-54 -128t-139 -51.5
t-139.5 51.5t-54.5 133.5q0 16 4 45l-364 -205h-291q-33 0 -33 39q0 55 72 55h75v629q0 43 7 82q-29 -29 -91.5 -29t-114.5 50.5t-52 131t55 131t145 50.5t143.5 -57.5t53.5 -147.5v-762q0 -37 -8 -70h14l477 265q62 34 62 100v610q0 49 72.5 49t72.5 -65v-588z" />
    <glyph glyph-name="uni0E1A" unicode="&#xe1a;" horiz-adv-x="1341" 
d="M367 957q0 50 -29 79t-74 29t-73.5 -28.5t-28.5 -78.5t28.5 -79t73.5 -29t74 28.5t29 78.5zM207 0q-33 0 -33 39q0 55 72 55h76v629q0 43 6 82q-28 -29 -90 -29t-115 51t-53 131t55 130.5t145 50.5t143.5 -57.5t53.5 -147.5v-840h422q76 0 105.5 30t29.5 105v848
q0 49 74 49t73 -65v-854q0 -106 -51 -156.5t-162 -50.5h-751z" />
    <glyph glyph-name="uni0E1B" unicode="&#xe1b;" horiz-adv-x="1339" 
d="M365 957q0 50 -29 79t-74 29t-73.5 -28.5t-28.5 -79t28.5 -79t73.5 -28.5t74 28.5t29 78.5zM205 0q-33 0 -33 39q0 55 72 55h75v629q0 43 7 82q-29 -29 -90.5 -29t-114.5 50.5t-53 131t55 131t145 50.5t143.5 -57.5t53.5 -147.5v-840h422q76 0 105.5 30t29.5 105v1186
q0 49 73.5 49t73.5 -65v-1192q0 -106 -51 -156.5t-162 -50.5h-751z" />
    <glyph glyph-name="uni0E1C" unicode="&#xe1c;" horiz-adv-x="1333" 
d="M469 957q0 50 -28.5 79t-73.5 29t-74 -28.5t-29 -78.5t29 -79t74 -29t73.5 28.5t28.5 78.5zM1012 1077q0 49 72 49t73 -65v-1030q0 -31 -31 -31h-137q-25 0 -39 20l-286 420l-291 -420q-14 -20 -39 -20h-137q-31 0 -31 31v903q0 90 52 147.5t142 57.5t145.5 -50.5
t55.5 -131.5t-52.5 -131t-114.5 -50t-91 29q6 -27 6 -82v-592h19l309 442h53l303 -442h19v946z" />
    <glyph glyph-name="uni0E1D" unicode="&#xe1d;" horiz-adv-x="1333" 
d="M469 957q0 50 -28.5 79t-73.5 29t-74 -28.5t-29 -79t29 -79t74 -28.5t73.5 28.5t28.5 78.5zM1012 1415q0 49 72.5 49t72.5 -65v-1368q0 -31 -31 -31h-137q-25 0 -39 20l-286 420l-291 -420q-14 -20 -39 -20h-137q-31 0 -31 31v903q0 90 52 147.5t142.5 57.5t145.5 -50.5
t55 -131.5t-53 -131t-114.5 -50t-90.5 29q6 -27 6 -82v-592h19l309 442h53l303 -442h19v1284z" />
    <glyph glyph-name="uni0E1E" unicode="&#xe1e;" horiz-adv-x="1482" 
d="M365 957q0 50 -29 79t-74 29t-73.5 -28.5t-28.5 -78.5t28.5 -79t73.5 -29t74 28.5t29 78.5zM209 0q-33 0 -33 39q0 55 72 55h76v629q0 55 6 82q-28 -29 -92 -29t-117 51t-53 131t55 130.5t144 50.5t141.5 -57.5t52.5 -147.5v-641q0 -86 -12 -166h8l319 981h70l325 -981
h11q-14 94 -15 166v784q0 49 70 49t70 -65v-1034q0 -27 -27 -27h-145q-27 0 -35 27l-266 815q-14 49 -19 106h-10q-4 -66 -17 -106l-260 -815q-8 -27 -34 -27h-285z" />
    <glyph glyph-name="uni0E1F" unicode="&#xe1f;" horiz-adv-x="1482" 
d="M365 957q0 50 -29 79t-74 29t-73.5 -28.5t-28.5 -79t28.5 -79t73.5 -28.5t74 28.5t29 78.5zM209 0q-33 0 -33 39q0 55 72 55h76v629q0 55 6 82q-29 -29 -92.5 -29t-116.5 50.5t-53 131t55 131t144 50.5t141.5 -57.5t52.5 -147.5v-641q0 -86 -12 -166h8l319 981h70
l325 -981h11q-14 94 -15 166v1122q0 49 70 49t70 -65v-1372q0 -27 -27 -27h-145q-27 0 -35 27l-266 815q-14 49 -19 106h-10q-4 -66 -17 -106l-260 -815q-8 -27 -34 -27h-285z" />
    <glyph glyph-name="uni0E20" unicode="&#xe20;" horiz-adv-x="1306" 
d="M348 158q0 47 -26.5 73.5t-68.5 26.5t-68.5 -26.5t-26.5 -73.5t26.5 -75t68.5 -28t68.5 28t26.5 75zM68 156q0 76 49 124t108 48t84 -17q-4 8 -4 27v141q0 45 11.5 68.5t43.5 52.5l103 86v10l-217 162q-35 29 -35 56t31 53q230 178 465 178q195 0 318.5 -103.5
t123.5 -300.5v-698q0 -20 -17.5 -33.5t-52.5 -13.5t-56.5 17.5t-21.5 47.5v687q0 150 -82.5 225.5t-237.5 75.5t-319 -119q-14 -12 -14 -20t14 -19l230 -172v-49l-105 -92q-23 -23 -29.5 -39.5t-6.5 -53.5v-311q0 -84 -53.5 -138t-138.5 -54t-138 49t-53 125z" />
    <glyph glyph-name="uni0E21" unicode="&#xe21;" horiz-adv-x="1296" 
d="M399 162q0 51 -30.5 81.5t-75.5 30.5t-76 -30.5t-31 -81.5t31 -81t76 -30t75.5 30t30.5 81zM381 957q0 50 -28.5 79t-74 29t-74 -28.5t-28.5 -78.5t28.5 -79t74 -29t74 28.5t28.5 78.5zM973 1077q1 49 73 49t72 -65v-1034q0 -27 -24 -27h-76l-459 160q-35 12 -78 35
q4 -25 4 -39q0 -80 -55 -130.5t-139 -50.5t-139.5 52.5t-55.5 134.5t54.5 134t132.5 52q29 0 61 -14q-8 25 -8 65v344q0 31 6 62q-28 -29 -90 -29t-115 51t-53 131t55.5 130.5t145.5 50.5t143 -57.5t53 -147.5v-567q0 -47 15.5 -66.5t56.5 -34.5l426 -147q-6 27 -6 92v866z
" />
    <glyph glyph-name="uni0E22" unicode="&#xe22;" horiz-adv-x="1245" 
d="M459 957q0 50 -29 79t-74 29t-73.5 -28.5t-28.5 -78.5t28.5 -79t73.5 -29t74 28.5t29 78.5zM930 1077q0 49 74 49t73 -65v-854q0 -106 -51 -156.5t-162 -50.5h-659q-31 0 -31 31v239q0 195 188 252v6q-86 12 -147 73t-61 159v174q0 90 53 147.5t143 57.5t145.5 -50.5
t55.5 -131.5t-52.5 -131t-113.5 -50t-88 27v-74q0 -61 41 -93t106 -32h140q72 0 71 -53q0 -18 -10 -28.5t-24 -10.5h-80q-219 -27 -219 -213v-205h471q78 0 107.5 30t29.5 105v848z" />
    <glyph glyph-name="uni0E23" unicode="&#xe23;" horiz-adv-x="888" 
d="M578 163q0 50 -29 78.5t-74 28.5t-73.5 -28.5t-28.5 -78.5t28.5 -79t73.5 -29t74 29t29 79zM283 162q0 80 50 131t132 51q39 0 76 -20q-6 10 -6 38v164q0 53 -25 77t-86 34l-365 61v111q0 158 110 247t274 89t333 -76q53 -24 53 -61q0 -18 -11 -29.5t-23 -11.5t-189 72.5
t-288 -18.5t-111 -198v-49l272 -49q109 -18 155 -62.5t46 -140.5v-338q0 -88 -54.5 -145t-143.5 -57t-144 50t-55 130z" />
    <glyph glyph-name="uni0E24" unicode="&#xe24;" horiz-adv-x="1253" 
d="M475 163q0 50 -28.5 78.5t-73.5 28.5t-74 -28.5t-29 -78.5t29 -79t74 -29t73.5 29t28.5 79zM948 -283v1037q0 145 -86 220t-206 75q-206 0 -369 -127q-26 -22 0 -39l190 -150v-43l-131 -121q-20 -20 -26.5 -36.5t-6.5 -51.5v-123q0 -29 -6 -39q25 25 91 25t117.5 -51
t51.5 -130t-56 -130t-144 -51t-142.5 57t-54.5 145v275q0 49 11.5 76.5t41.5 56.5l123 113v8l-180 141q-31 25 -31 53.5t31 55.5q94 76 220 129t261 53q199 0 324 -102.5t125 -299.5v-1044q0 -20 -17.5 -33.5t-52.5 -13.5t-56.5 17.5t-21.5 47.5z" />
    <glyph glyph-name="uni0E25" unicode="&#xe25;" horiz-adv-x="1198" 
d="M451 163q0 50 -29 78.5t-74 28.5t-73.5 -28.5t-28.5 -78.5t28.5 -79t73.5 -29t74 29t29 79zM975 -4q-80 0 -80 65v553l-377 -57q-109 -16 -168 -57t-59 -123v-53q35 20 76 20q80 0 128 -51t48 -131t-55.5 -130t-144.5 -50t-143.5 57t-54.5 145v168q0 248 340 299l410 60
v73q0 127 -82 196t-218 69t-306 -72q-55 -23 -67.5 -23t-24 10.5t-11.5 40t65 59.5t169 55.5t194 25.5q188 0 308 -97.5t120 -287.5v-717q0 -20 -18 -33.5t-49 -13.5z" />
    <glyph glyph-name="uni0E26" unicode="&#xe26;" horiz-adv-x="1306" 
d="M348 158q0 47 -26.5 73.5t-68.5 26.5t-68.5 -26.5t-26.5 -73.5t26.5 -75t68.5 -28t68.5 28t26.5 75zM1001 -283v1031q0 150 -82.5 225.5t-226.5 75.5q-94 0 -187 -39.5t-125 -65.5t-32 -34t14 -19l230 -172v-49l-105 -92q-23 -23 -29.5 -39.5t-6.5 -53.5v-311
q0 -84 -53.5 -138t-138.5 -54t-138 49t-53 124t49 123t107 49t85 -18q-4 8 -4 27v143q0 45 11.5 68.5t43.5 52.5l103 86v10l-217 162q-35 29 -35 56t31 53q230 178 465 178q195 0 318.5 -103.5t123.5 -300.5v-1042q0 -20 -17.5 -33.5t-52.5 -13.5t-56.5 17.5t-21.5 47.5z
" />
    <glyph glyph-name="uni0E27" unicode="&#xe27;" horiz-adv-x="948" 
d="M686 163q0 50 -28.5 78.5t-73.5 28.5t-74 -28.5t-29 -78.5t29 -79t74 -29t73.5 29t28.5 79zM391 162q0 80 50.5 131t113.5 51t94 -20q-8 14 -8 38v439q0 121 -59.5 184.5t-175.5 63.5t-265 -66q-51 -23 -66 -23t-26.5 12t-11.5 32q0 37 53 61q174 80 339 80t262 -91
t97 -268v-602q0 -88 -54 -145t-143 -57t-144.5 50t-55.5 130z" />
    <glyph glyph-name="uni0E28" unicode="&#xe28;" horiz-adv-x="1318" 
d="M750 566q0 48 -27 76t-70 28t-70.5 -29t-27.5 -76t27.5 -74.5t70.5 -27.5t70 27.5t27 75.5zM1069 -4q-80 0 -80 65v648q0 154 -95 247t-253 93t-253 -92.5t-95 -247.5q0 -358 -10 -600h10l190 499q45 127 174 127q72 0 120 -46t48 -121.5t-45 -124t-123 -48.5t-122 60
l-166 -428q-10 -27 -39 -27h-142q-35 0 -34 35v657q0 137 60 239.5t172 158t257 55.5q195 0 326 -96q121 35 178.5 69.5t73.5 34.5q51 0 51 -53q0 -89 -232 -121q94 -117 95 -287v-649q0 -20 -17.5 -33.5t-48.5 -13.5z" />
    <glyph glyph-name="uni0E29" unicode="&#xe29;" horiz-adv-x="1343" 
d="M809 641q0 47 -26.5 74.5t-69.5 27.5t-71 -27.5t-28 -74.5t28 -74.5t71 -27.5t69.5 27.5t26.5 74.5zM365 957q0 50 -29 79t-74 29t-73.5 -28.5t-28.5 -78.5t28.5 -79t73.5 -29t74 28.5t29 78.5zM205 0q-33 0 -33 39q0 55 72 55h75v633q0 39 7 78q-28 -29 -90 -29t-115 51
t-53 131t55 130.5t145 50.5t143.5 -57.5t53.5 -147.5v-840h426q76 0 106.5 30t30.5 105v207q-78 -25 -158 -24q-135 0 -234 57t-99 172q0 76 49 123t126 47t126 -46t49 -120q0 -103 -96 -137q51 -10 115 -10t122 24v555q0 49 73 49t73 -65v-854q0 -109 -50.5 -158
t-162.5 -49h-756z" />
    <glyph glyph-name="uni0E2A" unicode="&#xe2a;" horiz-adv-x="1263" 
d="M453 163q0 50 -29 78.5t-74 28.5t-73.5 -28.5t-28.5 -78.5t28.5 -79t73.5 -29t74 29t29 79zM977 -4q-80 0 -80 65v553l-377 -57q-109 -16 -168 -57t-59 -123v-53q37 20 76 20q80 0 128 -51t48 -131t-55.5 -130t-144.5 -50t-143.5 57t-54.5 145v168q0 248 340 299l410 60
v73q0 127 -82 196t-218 69t-306 -72q-55 -23 -67.5 -23t-24 10.5t-11.5 40t65 59.5t169 55.5t194 25.5q186 0 302 -90q92 29 155.5 63.5t75.5 34.5q51 0 51 -51t-70 -82q-45 -18 -147 -39q61 -90 61 -221v-717q0 -20 -18 -33.5t-49 -13.5z" />
    <glyph glyph-name="uni0E2B" unicode="&#xe2b;" horiz-adv-x="1368" 
d="M1155 954.5q0 51.5 -29.5 81t-74.5 29.5t-76 -29.5t-31 -81t31 -81t75 -29.5t74.5 29.5t30.5 81zM362 957q0 50 -28.5 79t-73.5 29t-73.5 -28.5t-28.5 -78.5t28.5 -79t73.5 -29t73.5 28.5t28.5 78.5zM1122 -4q-80 0 -80 65v592q0 60 -53 60q-43 0 -84 -76l-348 -606
q-16 -31 -43 -31h-305q-33 0 -33 39q0 55 70 55h76v629q0 43 6 82q-30 -29 -92 -29t-115 51t-53 131t55 130.5t144 50.5t141.5 -57.5t52.5 -147.5v-748q0 -49 -10 -90h30l318 557q65 118 149 142q-92 49 -92 159q0 84 54.5 134.5t138.5 50.5t138 -50.5t54 -124.5
q0 -146 -125 -182q72 -37 72 -141v-598q0 -20 -17.5 -33.5t-48.5 -13.5z" />
    <glyph glyph-name="uni0E2C" unicode="&#xe2c;" horiz-adv-x="1478" 
d="M365 957q0 50 -29 79t-74 29t-73.5 -28.5t-28.5 -78.5t28.5 -79t73.5 -29t74 28.5t29 78.5zM209 0q-33 0 -33 39q0 55 72 55h76v629q0 57 6 82q-28 -29 -92 -29t-117 51t-53 131t55 130.5t145 50.5t142.5 -57.5t52.5 -147.5v-658q0 -72 -14 -167h12l313 561h62l325 -561
h13q-14 94 -15 167v400q0 84 -38 131t-128 47h-26v90q86 78 139 146.5t106 169.5q23 45 58 45t55.5 -17.5t20.5 -45.5t-29 -73q-80 -135 -223 -243v-11q98 -6 152 -65t54 -156v-667q0 -27 -26 -27h-139q-27 0 -41 29l-287 495h-4l-273 -495q-18 -29 -41 -29h-280z" />
    <glyph glyph-name="uni0E2D" unicode="&#xe2d;" horiz-adv-x="1245" 
d="M463 506q0 51 -28.5 78.5t-74 27.5t-74 -27.5t-28.5 -78.5t28.5 -80t74 -29t74 29t28.5 80zM160 481q0 90 53 148.5t142 58.5t145.5 -51t56.5 -132t-53.5 -131t-115.5 -50t-89 18q6 -37 6 -70v-157q145 -43 305 -43t252 106.5t92 364.5t-94 382t-268 124q-135 0 -316 -72
q-55 -23 -67 -23t-23.5 10.5t-11.5 40t51 54.5q181 86 379 86q238 0 370 -153.5t132 -444.5q0 -571 -510 -572q-221 0 -436 68v438z" />
    <glyph glyph-name="uni0E2E" unicode="&#xe2e;" horiz-adv-x="1277" 
d="M463 506q0 51 -28.5 78.5t-74 27.5t-74 -27.5t-28.5 -78.5t28.5 -80t74 -29t74 29t28.5 80zM160 481q0 90 53 148.5t142 58.5t145.5 -51t56.5 -130t-51 -130t-131 -51q-41 0 -76 16q6 -37 6 -70v-157q145 -43 305 -43t252 106.5t92 364.5t-94 382t-268 124
q-135 0 -316 -72q-55 -23 -67 -23t-23.5 10.5t-11.5 40t51 54.5q181 86 375 86t318 -98q121 37 174 71q54 34 74 33q20 0 33 -15.5t13 -37.5q0 -49 -62 -76t-165 -45q121 -154 121 -430q0 -571 -510 -572q-221 0 -436 68v438z" />
    <glyph glyph-name="uni0E2F" unicode="&#xe2f;" horiz-adv-x="962" 
d="M319 982q0 44 -24.5 69.5t-65.5 25.5t-66.5 -25.5t-25.5 -69.5t25.5 -69.5t66.5 -25.5t65.5 25.5t24.5 69.5zM63 979q0 74 48.5 118t118 44t117.5 -43.5t48 -99.5q0 -109 -84 -140v-6q37 -14 92 -14q104 0 172 64.5t68 164.5v57h143v-1097q0 -27 -26 -27h-295
q-14 0 -24.5 10t-10.5 29q0 55 72 55h137v676q0 48 18 88l-10 4q-86 -119 -260 -119q-135 0 -229.5 64.5t-94.5 171.5z" />
    <glyph glyph-name="uni0E30" unicode="&#xe30;" horiz-adv-x="862" 
d="M344 319q0 43 -23.5 69t-66.5 26t-67.5 -26t-24.5 -69t24.5 -68.5t67.5 -25.5t66.5 25.5t23.5 68.5zM88 317q0 72 46 116t118 44t119 -43t47 -97q0 -106 -76 -136v-6q31 -6 66 -7q92 0 154.5 54.5t90.5 150.5q12 39 20.5 53.5t33.5 14.5t42 -15.5t17 -48.5t-25 -86
q-45 -100 -130 -158.5t-205.5 -58.5t-219 56.5t-98.5 166.5zM344 919q0 42 -23.5 68.5t-66.5 26.5t-67.5 -26.5t-24.5 -68.5t24.5 -68t67.5 -26t66.5 26t23.5 68zM88 918q0 70 46 113.5t118 43.5t119 -42t47 -96q0 -106 -76 -136v-6q27 -8 66 -9q92 0 154.5 54.5t90.5 150.5
q12 41 20.5 55.5t33.5 14.5t42 -15.5t17 -49.5t-25 -87q-45 -100 -130 -158.5t-205.5 -58.5t-219 56.5t-98.5 169.5z" />
    <glyph glyph-name="uni0E31" unicode="&#xe31;" 
d="M-381 1515q0 40 -24.5 65.5t-63.5 25.5t-63.5 -26t-24.5 -65.5t24.5 -65.5t63.5 -26t63.5 26t24.5 66zM-629 1513q0 70 46 111t113 41t113 -40t46 -94t-22.5 -87t-57.5 -43v-6q35 -14 109.5 -14.5t144 51t104.5 149.5q18 70 51 70t51.5 -16.5t18.5 -43t-37 -107.5
t-131 -140.5t-223 -59.5t-227.5 63.5t-98.5 165.5z" />
    <glyph glyph-name="uni0E32" unicode="&#xe32;" horiz-adv-x="931" 
d="M625 61v766q0 113 -62.5 166.5t-166.5 53.5t-257 -64q-55 -23 -67 -23t-23.5 11.5t-11 40.5t62.5 58q166 75 318 75t253 -82t101 -248v-772q0 -20 -18 -33.5t-52 -13.5t-55.5 17.5t-21.5 47.5z" />
    <glyph glyph-name="uni0E33" unicode="&#xe33;" horiz-adv-x="931" 
d="M625 61v766q0 113 -62.5 166.5t-164.5 53.5t-259 -64q-55 -23 -67 -23t-23.5 11.5t-11 40.5t62.5 58q166 75 318 75t253 -82t101 -248v-772q0 -20 -18 -33.5t-52 -13.5t-55.5 17.5t-21.5 47.5zM-170 1443q0 50 -28.5 77.5t-72.5 27.5t-73 -27.5t-29 -78.5t29 -79t73 -28
t72.5 29t28.5 79zM-469 1443q0 87 57.5 138t141.5 51t139 -51t55 -138t-56 -138.5t-139 -51.5t-140.5 51.5t-57.5 138.5z" />
    <glyph glyph-name="uni0E34" unicode="&#xe34;" 
d="M-583.5 1554q-116.5 0 -200.5 -46t-111 -124h621q-27 78 -110 124t-199.5 46zM-1026 1331v41q35 115 153.5 191.5t288.5 76.5t288 -76.5t153 -191.5v-41q0 -27 -25 -26h-831q-27 -1 -27 26z" />
    <glyph glyph-name="uni0E35" unicode="&#xe35;" 
d="M-583.5 1554q-116.5 0 -200.5 -46t-111 -124h621q-27 78 -110 124t-199.5 46zM-143 1331q0 -27 -25 -26h-831q-27 0 -27 26v41q35 115 153.5 191.5t290.5 76.5t301 -90v136q0 35 54 34q27 0 45 -13t18 -36v-250q7 -10 21 -49v-41z" />
    <glyph glyph-name="uni0E36" unicode="&#xe36;" 
d="M-583.5 1554q-116.5 0 -200.5 -46t-111 -124h621q-27 78 -110 124t-199.5 46zM-150 1589q0 35 -21.5 55.5t-53 20.5t-53 -20.5t-21.5 -56.5t21.5 -56.5t53 -20.5t53 21.5t21.5 56.5zM-1026 1331v41q35 115 153.5 191.5t288.5 76.5q115 0 219 -45v13q0 51 41 86t100.5 35
t101.5 -38q42 -39 42 -97q0 -117 -102 -138q25 -37 39 -84v-41q0 -27 -25 -26h-831q-27 -1 -27 26z" />
    <glyph glyph-name="uni0E37" unicode="&#xe37;" 
d="M-583.5 1554q-116.5 0 -200.5 -46t-111 -124h621q-27 78 -110 124t-199.5 46zM-1026 1331v41q35 115 153.5 191.5t288.5 76.5q80 0 162 -20v45q0 35 37 35q49 0 49 -49v-64q49 -27 84 -55v133q0 35 39 35q49 0 49 -49v-230q6 -10 21 -49v-41q0 -27 -25 -26h-831
q-27 -1 -27 26z" />
    <glyph glyph-name="uni0E38" unicode="&#xe38;" 
d="M-250 -252q0 37 -21.5 57.5t-54 20.5t-55 -21.5t-22.5 -57.5t21.5 -56.5t55 -20.5t55 20.5t21.5 57.5zM-281 -500v72q0 31 11 51l-4 4q-31 -20 -78 -20t-88 39t-41 101t43 102t111.5 40t112.5 -41t44 -106v-256q0 -16 -12.5 -26.5t-34.5 -10.5q-64 0 -64 51z" />
    <glyph glyph-name="uni0E39" unicode="&#xe39;" 
d="M-549 -252q0 37 -21.5 57.5t-54 20.5t-54 -20.5t-21.5 -57.5t21.5 -57.5t54 -20.5t54 20.5t21.5 57.5zM-578 -508v80q0 31 11 51l-2 4q-31 -20 -78 -20t-88 39t-41 101t43 102t111.5 40t111.5 -41t43 -106v-207h188v309q0 39 54.5 39t54.5 -53v-338q0 -37 -37 -37h-334
q-37 0 -37 37z" />
    <glyph glyph-name="uni0E3A" unicode="&#xe3a;" 
d="M-387 -256q0 53 36 87t85 34t85 -34t36 -87t-36 -87t-85 -34t-85 34t-36 87z" />
    <glyph glyph-name="uni0E3F" unicode="&#xe3f;" horiz-adv-x="1245" 
d="M729 109q158 0 239 74.5t81 206.5t-80 209t-224 77h-383v-567h367zM705 782q115 0 187.5 70t72.5 192t-77 190.5t-220 68.5h-306v-521h343zM86 0q-29 0 -29 35q0 51 76 63l68 11v1191l-68 13q-76 12 -76 63q0 16 8.5 25.5t20.5 9.5h461v170h125v-170h6q209 0 329.5 -95
t120.5 -274q0 -106 -54 -183t-150 -114v-8q135 -35 211.5 -124t76.5 -224q0 -188 -123.5 -288.5t-336.5 -100.5h-88v-186h-125v186h-453z" />
    <glyph glyph-name="uni0E40" unicode="&#xe40;" horiz-adv-x="626" 
d="M481 165q0 50 -28.5 78.5t-73.5 28.5t-74 -28.5t-29 -78.5t29 -79t74 -29t73.5 29t28.5 79zM176 1077q0 49 74 49t74 -65v-655q0 -47 -9 -82q33 22 93 22t112.5 -50t52.5 -132t-55 -132t-145 -50t-143.5 58t-53.5 148v889z" />
    <glyph glyph-name="uni0E41" unicode="&#xe41;" horiz-adv-x="1169" 
d="M1024 165q0 50 -28.5 78.5t-73.5 28.5t-74 -28.5t-29 -78.5t29 -79t74 -29t73.5 29t28.5 79zM481 165q0 50 -28.5 78.5t-73.5 28.5t-74 -28.5t-29 -78.5t29 -79t74 -29t73.5 29t28.5 79zM719 1077q-1 49 73 49t74 -65v-655q0 -47 -8 -82q35 23 78 22q74 0 127 -50
t53 -132t-55 -132t-145 -50t-143.5 58t-53.5 148v889zM176 1077q0 49 74 49t74 -65v-655q0 -47 -9 -82q39 23 78 22q74 0 127 -50t53 -132t-55 -132t-145 -50t-143.5 58t-53.5 148v889z" />
    <glyph glyph-name="uni0E42" unicode="&#xe42;" horiz-adv-x="776" 
d="M627 165q0 50 -29 78.5t-74 28.5t-73.5 -28.5t-28.5 -78.5t28.5 -79t73.5 -29t74 29t29 79zM322 188v1108q0 53 -25 76t-84 33l-225 35v76q0 90 53 160.5t145.5 108.5t192.5 38q186 0 356 -72q51 -20 51 -61q0 -20 -10 -30.5t-22 -10.5q-14 1 -115 39q-100 38 -224 38
t-203 -53t-79 -139v-21l133 -20q109 -18 156 -60t47 -141v-886q0 -41 -6 -82q35 23 76 22q76 0 128 -50t52 -132t-55.5 -132t-145.5 -50t-143 58t-53 148z" />
    <glyph glyph-name="uni0E43" unicode="&#xe43;" horiz-adv-x="804" 
d="M616 165q0 50 -28.5 78.5t-73.5 28.5t-73.5 -28.5t-28.5 -78.5t28.5 -79t73.5 -29t73.5 29t28.5 79zM289 1472.5q0 47.5 -27.5 74t-69.5 26.5t-69 -26.5t-27 -74t27 -74t69 -26.5t69.5 26.5t27.5 74zM311 188v711q0 98 39 167t113 153t107.5 141.5t33.5 151.5t-65 154
t-147 60q-160 0 -228 -100l4 -6q28 18 82 12t91.5 -50t37.5 -116t-52.5 -119t-134 -47t-134 56.5t-52.5 149.5t52.5 167t137.5 112t183 38q154 0 258 -85t104 -239q0 -96 -35.5 -162.5t-106.5 -148.5t-105.5 -145.5t-34.5 -153.5v-483q0 -41 -6 -82q33 23 75 22
q76 0 129.5 -50t53.5 -131t-56.5 -132t-146.5 -51t-143.5 58t-53.5 148z" />
    <glyph glyph-name="uni0E44" unicode="&#xe44;" horiz-adv-x="849" 
d="M721 165q0 50 -28.5 78.5t-74 28.5t-74 -28.5t-28.5 -78.5t28.5 -79t74 -29t74 29t28.5 79zM416 188v1180q0 170 14 285h-6l-213 -324h-49l-252 379q-38 57 -11 78.5t52 21.5q47 0 80 -61l159 -297h5l196 328q16 27 43 26h105q25 0 24 -24v-1377q0 -39 -8 -77
q39 20 78 20q74 0 127 -50t53 -132t-55.5 -132t-145.5 -50t-143 58t-53 148z" />
    <glyph glyph-name="uni0E45" unicode="&#xe45;" horiz-adv-x="931" 
d="M625 -283v1110q0 113 -62.5 166.5t-166.5 53.5t-257 -64q-55 -23 -67 -23t-23.5 11.5t-11.5 39t53 54.5q175 80 327 80q153 0 254 -82t101 -248v-1116q0 -20 -18 -33.5t-52 -13.5t-55.5 17.5t-21.5 47.5z" />
    <glyph glyph-name="uni0E46" unicode="&#xe46;" horiz-adv-x="1112" 
d="M395 643q0 47 -26.5 73.5t-68.5 26.5t-68.5 -26.5t-26.5 -73.5t26.5 -72.5t68.5 -25.5t68.5 25.5t26.5 72.5zM612 -348q-32 0 -32 39q0 55 71 55h140v1174q0 53 -25 82.5t-70 29.5q-82 0 -131 -137h-90q-45 137 -129 137q-45 0 -69.5 -29.5t-24.5 -82.5v-86q0 -20 -6 -46
q33 18 86 18t103 -44.5t50 -118.5t-52 -121t-135 -47t-134 53.5t-51 137.5v256q0 109 56 166t150 57q128 0 199 -150h6q72 150 205 150q94 0 150.5 -57.5t56.5 -165.5v-1244q0 -27 -29 -26h-295z" />
    <glyph glyph-name="uni0E47" unicode="&#xe47;" 
d="M-258 1419.5q0 28.5 -17.5 47t-44 18.5t-44 -18.5t-17.5 -47t17.5 -47t44 -18.5t44 18.5t17.5 47zM-342 1284q-129 0 -203 96l-67 -86q-102 0 -172 57.5t-70 158.5t68.5 155.5t183.5 54.5h328q51 0 51 -51q0 -39 -39 -39h-334q-72 0 -112 -31.5t-40 -88t32 -89t79 -39.5
l76 93h35q36 -74 94 -95l2 4q-10 16 -10 53t34.5 69t87 32t87 -35t34.5 -87t-37.5 -92t-107.5 -40z" />
    <glyph glyph-name="uni0E48" unicode="&#xe48;" 
d="M-244 1305q-73 0 -73 67v262q0 23 16 37.5t43 14.5q74 0 74 -68v-264q0 -20 -15.5 -34.5t-44.5 -14.5z" />
    <glyph glyph-name="uni0E49" unicode="&#xe49;" 
d="M-426 1589.5q0 30.5 -19.5 49t-48 18.5t-47 -18.5t-18.5 -49t18.5 -49t47 -18.5t48 18.5t19.5 49zM-68 1694q66 0 66 -56q0 -31 -27 -88q-125 -264 -510 -264q-24 1 -24 21v67q78 28 117 103l-5 6q-23 -16 -62.5 -16.5t-75.5 33.5t-36 87t38 89t100.5 36t99.5 -42
t37 -103q0 -130 -92 -197q141 20 221 90t115 201q8 33 38 33z" />
    <glyph glyph-name="uni0E4A" unicode="&#xe4a;" 
d="M-672 1470q-63 0 -63 -65q0 -31 18.5 -48.5t45 -17.5t45 17.5t18.5 48.5t-18.5 48t-45.5 17zM-377 1530q0 86 -58 86q-32 0 -49.5 -23.5t-17.5 -50.5h-57q0 27 -20.5 50.5t-59.5 23.5t-60.5 -30t-21.5 -75l4 -4q23 16 63.5 16.5t74.5 -31.5t34 -85t-38 -87t-97 -34
t-102 49t-43 146.5t47 157t127 59.5q45 0 77.5 -21.5t45.5 -52.5q10 31 42.5 52.5t73.5 21.5q138 0 138 -150v-182h28q37 0 53.5 17.5t16.5 60.5v244q0 18 12 30.5t33 12.5q55 0 55 -60v-227q0 -78 -37 -109.5t-112 -31.5h-123q-29 0 -29 30v197z" />
    <glyph glyph-name="uni0E4B" unicode="&#xe4b;" 
d="M-92 1534q0 -69 -86 -59l-92 6l10 -115q2 -27 -15.5 -44t-46.5 -17q-73 0 -67 86l6 90l-106 -6q-37 -2 -54.5 8t-17.5 43q0 63 86 55l92 -6l-10 117q-8 59 59 59q37 0 55.5 -22.5t14.5 -63.5l-6 -90l106 6q37 2 54.5 -8t17.5 -39z" />
    <glyph glyph-name="uni0E4C" unicode="&#xe4c;" 
d="M-362 1446q0 35 -20.5 55.5t-52.5 20.5t-53.5 -20.5t-21.5 -55.5t21.5 -55.5t53.5 -20.5t52.5 20.5t20.5 55.5zM-586 1452q0 66 46 105.5t116 39.5h363q18 0 29.5 -13t11.5 -36q0 -66 -54 -65h-190q-23 0 -41 12l-4 -4q14 -27 14 -53q0 -59 -40.5 -96t-102.5 -37
t-105 40.5t-43 106.5z" />
    <glyph glyph-name="uni0E4D" unicode="&#xe4d;" 
d="M-170 1473.5q0 50.5 -28.5 78t-72.5 27.5t-73 -27.5t-29 -79t29 -79t73 -27.5t72.5 28.5t28.5 79zM-469 1473.5q0 87.5 57.5 138.5t141.5 51t139 -51t55 -138t-56 -138.5t-139 -51.5t-140.5 51t-57.5 138.5z" />
    <glyph glyph-name="uni0E4E" unicode="&#xe4e;" 
d="M-115 1794q33 0 33 -36q0 -18 -12 -31t-33 -13h-29q-71 0 -71 -59q0 -37 32 -66h15q33 0 33 -33q0 -47 -46 -47h-96q-80 0 -80 -63q0 -27 18.5 -43.5t47.5 -16.5h14q31 0 31 -34q0 -47 -62.5 -47t-106.5 36.5t-44 105.5t48 105.5t124 36.5h29q-56 34 -56 109
q0 39 32 67.5t91 28.5h88z" />
    <glyph glyph-name="uni0E4F" unicode="&#xe4f;" horiz-adv-x="1562" 
d="M946 579q0 75 -45 117.5t-118.5 42.5t-119 -43.5t-45.5 -117.5t45.5 -117t119 -43t118.5 43t45 118zM506 579q0 122 79 196.5t197.5 74.5t195.5 -75t77 -197t-76.5 -196.5t-196.5 -74.5t-198 75t-78 197zM1165 579q0 114 -50 199.5t-138 132.5t-196 47t-196.5 -47
t-139 -133t-50.5 -200t50.5 -200.5t138.5 -132.5t198 -46t196.5 46t136.5 133t50 201zM283 578q0 144 65.5 255t180 172.5t254 61.5t254 -61.5t180 -172t65.5 -254.5t-65.5 -256t-180 -173.5t-254 -61.5t-254 61.5t-180 173t-65.5 255.5z" />
    <glyph glyph-name="uni0E50" unicode="&#xe50;" horiz-adv-x="1259" 
d="M1001 499.5q0 198.5 -103 312.5t-269 114t-269.5 -114t-103.5 -312.5t103.5 -313t269.5 -114.5t269 114.5t103 313zM109 499q0 155 62 273.5t180 184t280 65.5t278.5 -65.5t179 -185t62.5 -273.5t-62.5 -273t-179 -184.5t-278.5 -65.5t-280 65.5t-180 184.5t-62 274z" />
    <glyph glyph-name="uni0E51" unicode="&#xe51;" horiz-adv-x="1267" 
d="M713 418q0 49 -29 77.5t-73 28.5t-72.5 -28.5t-28.5 -77.5t28.5 -78t72.5 -29t73 29t29 78zM526 281q-96 39 -96 159q0 62 51 110t132 48t133.5 -54.5t52.5 -147.5t-81 -155.5t-197 -62.5t-209 45t-148 132t-55 215t67.5 232.5t187 162t277.5 57.5t277.5 -62.5t181 -174
t61.5 -279.5t-103.5 -317.5t-299.5 -225.5q-92 -38 -118 -16t-26 47q0 35 50 51q350 117 350 496q0 121 -50.5 208t-137.5 133t-191 46t-191.5 -42t-139.5 -124t-52 -202t77 -202t197 -77z" />
    <glyph glyph-name="uni0E52" unicode="&#xe52;" horiz-adv-x="1464" 
d="M831 512q0 49 -28.5 77.5t-71.5 28.5t-71.5 -28.5t-28.5 -77.5t28.5 -76.5t71.5 -27.5t71.5 27.5t28.5 76.5zM74 0q-33 0 -33 39q0 55 72 55h88v936q0 51 -19.5 69.5t-60.5 18.5h-47q-14 0 -23.5 10.5t-9.5 28.5q0 55 72 55h73q158 0 158 -155v-963h674q76 0 105.5 30
t29.5 105v564q0 121 -94 120q-90 0 -103 -137h-82q-8 137 -103 137t-95 -120v-95q0 -23 -6 -39q44 25 100 25t104 -48t48 -125t-54.5 -126t-140.5 -49t-139 55t-53 144v276q0 106 58 158.5t137 52.5t126 -38t57 -101h9q10 61 62 100t127 39t131 -52t56 -159v-604
q0 -109 -50 -158t-161 -49h-1013z" />
    <glyph glyph-name="uni0E53" unicode="&#xe53;" horiz-adv-x="1380" 
d="M461 159q0 48 -29 76.5t-72 28.5t-71.5 -28.5t-28.5 -76.5t28.5 -77t71.5 -29t72 29t29 77zM766 485q0 -47 -71 -47q-30 0 -53.5 17.5t-23.5 52.5v180q0 104 -39.5 171t-116.5 67q-157 0 -157 -185v-393q0 -29 -6 -43q45 23 101 23t103.5 -48t47.5 -124t-53.5 -125
t-140.5 -49t-142 56t-55 146v545q0 145 74 219t184 74t181 -54.5t89 -158.5h8q23 102 94.5 157.5t163.5 55.5q260 0 260 -293v-686q0 -47 -67 -47q-35 0 -56.5 17.5t-21.5 47.5v680q0 94 -34 139.5t-107.5 45.5t-117.5 -65.5t-44 -162.5v-213z" />
    <glyph glyph-name="uni0E54" unicode="&#xe54;" horiz-adv-x="1327" 
d="M934 491.5q0 49.5 -28.5 78t-71.5 28.5t-72 -28.5t-29 -78t29 -77t72 -27.5t71.5 27.5t28.5 77zM1257 0h-608q-153 0 -276 61.5t-193.5 177t-70.5 271.5t70.5 270.5t193.5 176t276 61.5h330q197 0 197 141q0 25 17 40t48 15t54.5 -17t23.5 -52q0 -117 -82 -169t-236 -52
h-296q-213 0 -331 -105.5t-118 -308.5t118 -309.5t331 -106.5h231q-27 10 -64 47l-145 158q-43 49 -64.5 91t-21.5 109t52.5 118t138.5 51t139 -49.5t53 -118.5t-38.5 -115.5t-117.5 -54.5q-14 0 -30 6l-4 -6l155 -162q41 -43 71 -58.5t73 -15.5h86q72 0 71 -55
q0 -39 -33 -39z" />
    <glyph glyph-name="uni0E55" unicode="&#xe55;" horiz-adv-x="1351" 
d="M934 491.5q0 49.5 -28.5 78t-71.5 28.5t-72 -28.5t-29 -78t29 -77t72 -27.5t71.5 27.5t28.5 77zM852 1112q0 47 -26.5 72.5t-67.5 25.5t-67.5 -25.5t-26.5 -72.5t26.5 -73.5t67.5 -26.5t67.5 26.5t26.5 73.5zM1257 0h-608q-153 0 -276 61.5t-193.5 177t-70.5 268.5
t64.5 265.5t179 174t259.5 69.5q-32 36 -32 102t49 113t128 47t130 -46t51 -112t-33 -102h99q198 0 198 141q0 55 60 55q81 0 81 -69q0 -117 -81.5 -169t-235.5 -52h-321q-213 0 -331 -105.5t-118 -308.5t118 -309.5t331 -106.5h231q-27 10 -64 47l-145 158q-41 47 -63.5 91
t-22.5 110t52.5 117t138.5 51t139 -49.5t53 -118.5t-38.5 -115.5t-117.5 -54.5q-14 0 -30 6l-4 -6l155 -162q41 -43 71 -58.5t73 -15.5h86q72 0 71 -55q0 -39 -33 -39z" />
    <glyph glyph-name="uni0E56" unicode="&#xe56;" horiz-adv-x="1267" 
d="M457 342q0 49 -29 76.5t-72 27.5t-71.5 -27.5t-28.5 -76.5t28.5 -76.5t71.5 -27.5t72 27.5t29 76.5zM279 852q129 170 393 170q140 0 254 -64.5t174.5 -182.5t60.5 -275q0 -242 -138 -383.5t-376 -141.5q-121 0 -231.5 42t-180 124.5t-69.5 178.5t51 147t137 51
t139.5 -49t53.5 -117t-33 -108.5t-72 -46.5t-55 -7l-25 3q37 -55 114 -89t167 -34q168 0 268.5 114.5t100.5 315t-99.5 314.5t-269.5 114q-109 0 -193.5 -48.5t-132.5 -140.5h-141l-108 369q-6 24 -6 42t18 32t47 14q74 0 88 -72z" />
    <glyph glyph-name="uni0E57" unicode="&#xe57;" horiz-adv-x="1679" 
d="M461 159q0 48 -29 76.5t-72 28.5t-71.5 -28.5t-28.5 -76.5t28.5 -77t71.5 -29t72 29t29 77zM436 926q-133 0 -133 -181v-387q0 -35 -4 -53q41 21 99 21t105.5 -45t47.5 -123t-54.5 -127t-141.5 -49t-141 56t-54 146v549q0 139 64 214t172 75q210 0 251 -213h6
q23 102 86.5 157.5t151.5 55.5q238 0 237 -289v-639h113q70 0 100.5 32t30.5 110v927q0 49 70 49t71 -65v-936q0 -211 -210 -211h-443q-33 0 -33 39q0 55 70 55h88v651q0 90 -26.5 135.5t-95.5 45.5t-104.5 -62.5t-35.5 -163.5v-204q-1 -47 -73 -47t-72 67v174
q0 236 -142 236z" />
    <glyph glyph-name="uni0E58" unicode="&#xe58;" horiz-adv-x="1474" 
d="M1249 505q0 50 -28.5 77.5t-72.5 27.5t-72.5 -27.5t-28.5 -77.5t28.5 -78t72.5 -28t72.5 28t28.5 78zM506 70q170 0 170 245q0 57 55 58q37 0 57.5 -19.5t20.5 -54.5q0 -106 57.5 -167.5t155.5 -61.5t147.5 89t53.5 208q-39 -33 -101 -33t-110.5 49t-48.5 126t54 126
t136 49q203 0 203 -260q0 -213 -89 -331t-253 -118q-104 0 -176 56.5t-97 130.5q-18 -74 -81.5 -130.5t-167.5 -56.5t-193.5 62.5t-139.5 175.5t-50 256q0 256 148.5 402.5t406.5 146.5h309q196 0 196 141q0 25 17.5 40t44.5 15q80 0 80 -69q0 -117 -82 -169t-236 -52h-299
q-219 0 -328.5 -116t-109.5 -350t89 -311t161 -77z" />
    <glyph glyph-name="uni0E59" unicode="&#xe59;" horiz-adv-x="1439" 
d="M461 159q0 48 -29 76.5t-72 28.5t-71.5 -28.5t-28.5 -76.5t28.5 -77t71.5 -29t72 29t29 77zM160 184v541q0 145 74.5 221t199.5 76q203 0 260 -176l49 -150l103 236q41 90 137 90t121 -111l29 -114h18q66 0 98.5 53t32.5 129q0 55 61 55q41 0 62.5 -20.5t21.5 -55.5
q0 -119 -65.5 -188.5t-177.5 -69.5h-127l-41 174q-12 48 -35 48t-33 -10.5t-22 -37.5l-133 -301l163 -503q4 -16 4 -31t-17 -29t-46 -14q-61 0 -84 76l-231 716q-41 137 -146 138q-59 0 -95 -41t-36 -121v-412q0 -29 -4 -45q35 17 93 17t107.5 -44t49.5 -122t-53.5 -127
t-140.5 -49t-142 56t-55 146z" />
    <glyph glyph-name="uni0E5A" unicode="&#xe5a;" horiz-adv-x="1241" 
d="M319 982q0 44 -24.5 69.5t-65.5 25.5t-66.5 -25.5t-25.5 -69.5t25.5 -69.5t66.5 -25.5t65.5 25.5t24.5 69.5zM922 1124h141v-1124h-141v1124zM63 979q0 74 48.5 118t118 44t117.5 -43.5t48 -99.5q0 -109 -84 -140v-6q37 -14 92 -14q104 0 172 64.5t68 164.5v57h137v-1097
q0 -27 -26 -27h-289q-14 0 -24.5 10t-10.5 29q0 55 72 55h137v676q0 48 18 88l-10 4q-86 -119 -260 -119q-135 0 -229.5 64.5t-94.5 171.5z" />
    <glyph glyph-name="uni0E5B" unicode="&#xe5b;" horiz-adv-x="2359" 
d="M805 647q0 43 -26.5 68.5t-66.5 25.5t-65.5 -25.5t-25.5 -68.5t25.5 -68.5t65.5 -25.5t66.5 25.5t26.5 68.5zM1997 522q-143 0 -213 115v-221h-94l-177 295v-361h-108l-227 402v-54q0 -143 -61.5 -242.5t-167 -149.5t-231.5 -50t-229.5 46t-165 135t-61.5 209t50 205
t136 129t208 44t218.5 -75t96.5 -214q0 -68 -31 -128t-88 -96t-136 -36t-132.5 48t-53.5 123t49 123t119 48t114 -38t44 -95l10 -2q12 37 13 68q0 72 -61.5 123t-161.5 51t-177.5 -76t-77.5 -206t93.5 -208t239.5 -78t249.5 96.5t103.5 292.5v199h95l231 -418v367h92
l181 -299v223h90q39 -100 92 -149.5t145 -49.5h123q12 0 22.5 -11t10.5 -29q0 -55 -70 -56h-102z" />
    <glyph glyph-name="uni1E0C" unicode="&#x1e0c;" horiz-adv-x="1509" 
d="M653 -236q0 43 30 73t72 30t70.5 -30t28.5 -73t-29.5 -71.5t-70.5 -28.5t-71 28.5t-30 71.5zM733 111q240 0 375 157.5t135 442t-135 443.5t-375 159h-307v-1202h307zM147 0q-28 0 -28 31t18.5 45t59.5 22l67 13v1202l-67 12q-41 8 -59.5 22.5t-18.5 44.5t28 31h586
q197 0 349.5 -77.5t240.5 -238.5t88 -397t-88 -395t-240.5 -237t-349.5 -78h-586z" />
    <glyph glyph-name="uni1E0D" unicode="&#x1e0d;" horiz-adv-x="1196" 
d="M498 -236q0 43 29.5 73t71.5 30t70.5 -30t28.5 -73t-29.5 -71.5t-70.5 -28.5t-70.5 28.5t-29.5 71.5zM850 348v469q-121 104 -272 105q-96 0 -173 -49.5t-123 -145.5t-46 -235q0 -197 85 -306.5t246 -109.5q117 0 200 76.5t83 195.5zM80 486q0 166 60.5 286.5t167 185
t254.5 64.5t290 -94v430h-102q-33 0 -33 41q0 55 71 55h213v-1358l82 -22q56 -15 56 -49q0 -25 -23 -25h-258v139h-8q-109 -164 -320 -164q-124 0 -226.5 56.5t-163 172.5t-60.5 282z" />
    <glyph glyph-name="uni1E0E" unicode="&#x1e0e;" horiz-adv-x="1509" 
d="M324 -180h774v-109h-774v109zM733 111q240 0 375 157.5t135 442t-135 443.5t-375 159h-307v-1202h307zM147 0q-28 0 -28 31t18.5 45t59.5 22l67 13v1202l-67 12q-41 8 -59.5 22.5t-18.5 44.5t28 31h586q197 0 349.5 -77.5t240.5 -238.5t88 -397t-88 -395t-240.5 -237
t-349.5 -78h-586z" />
    <glyph glyph-name="uni1E0F" unicode="&#x1e0f;" horiz-adv-x="1200" 
d="M221 -180h774v-109h-774v109zM850 348v469q-121 104 -272 105q-96 0 -173 -49.5t-123 -145.5t-46 -235q0 -197 85 -306.5t246 -109.5q117 0 200 76.5t83 195.5zM80 486q0 166 60.5 286.5t167 185t254.5 64.5t290 -94v430h-102q-33 0 -33 41q0 55 71 55h213v-1358l82 -22
q56 -15 56 -49q0 -25 -23 -25h-258v139h-8q-109 -164 -320 -164q-124 0 -226.5 56.5t-163 172.5t-60.5 282z" />
    <glyph glyph-name="uni1E20" unicode="&#x1e20;" horiz-adv-x="1470" 
d="M811 651q0 58 74 58h475q22 -1 22 -23t-12 -33.5t-41 -19.5l-98 -25v-530q-90 -49 -211 -76t-232 -27q-202 0 -357 82t-242 247t-87 405t86 405.5t236.5 249.5t341.5 84q135 0 257 -41t202 -109v-233q0 -31 -31 -31q-25 0 -38 17.5t-21 56.5l-29 141q-111 86 -315 86
q-242 0 -382.5 -163.5t-140.5 -458.5q0 -199 64.5 -339.5t182.5 -213t275 -72.5t277 55v467h-223q-33 0 -33 41zM473 1706h578v-113h-578v113z" />
    <glyph glyph-name="uni1E21" unicode="&#x1e21;" horiz-adv-x="1128" 
d="M236 492q0 -197 86 -306.5t243 -109.5q76 0 141.5 34.5t105.5 97t40 140.5v488q-115 86 -268 86q-96 0 -175 -48.5t-126 -145.5t-47 -236zM80 491.5q0 172.5 67.5 292t181 179t239.5 59.5t242 -43t196 -111v-929q0 -195 -114 -302.5t-317 -107.5t-339 80q-68 41 -68 70.5
t12.5 42t27.5 12.5t63 -30q47 -30 125.5 -51.5t158.5 -21.5q303 0 303 285v217h-8q-112 -158 -322 -158q-123 0 -225 56.5t-162.5 172t-60.5 288zM293 1303h577v-113h-577v113z" />
    <glyph glyph-name="uni1E24" unicode="&#x1e24;" horiz-adv-x="1640" 
d="M725 -236q0 43 29.5 73t71.5 30t71 -30t29 -73t-30 -71.5t-71 -28.5t-70.5 28.5t-29.5 71.5zM1061 43q0 57 74 57h75v584h-788v-582l102 -24q58 -15 58 -51q0 -27 -25 -27h-403q-35 0 -35 43q0 57 76 57h63v1223h-104q-35 0 -35 43q0 57 74 57h364q25 0 25 -26
q0 -36 -58 -51l-102 -25v-526h788v528h-114q-35 0 -35 43q0 57 74 57h364q23 0 23 -23q0 -41 -49 -52l-99 -27v-1219l99 -26q49 -12 49 -49q0 -27 -23 -27h-403q-35 0 -35 43z" />
    <glyph glyph-name="uni1E25" unicode="&#x1e25;" horiz-adv-x="1284" 
d="M569 -236q0 43 30 73t72 30t70.5 -30t28.5 -73t-29.5 -71.5t-70.5 -28.5t-71 28.5t-30 71.5zM866 96h64v600q0 100 -58.5 161t-152.5 61q-178 0 -326 -164v-658l99 -22q55 -11 55 -49q0 -25 -25 -25h-385q-33 0 -33 41q0 55 72 55h64v1262h-103q-33 0 -33 41q0 55 72 55
h211v-590l6 -2q170 160 357 160q145 0 239 -85t94 -230v-611l99 -22q55 -11 55 -49q0 -25 -25 -25h-385q-33 0 -32 41q0 55 71 55z" />
    <glyph glyph-name="uni1E2A" unicode="&#x1e2a;" horiz-adv-x="1640" 
d="M821 -287q76 0 129.5 46t75.5 122l94 -33q-35 -125 -114.5 -185t-184 -60t-184.5 60.5t-115 184.5l94 33q23 -76 76 -122t129 -46zM1061 43q0 57 74 57h75v584h-788v-582l102 -24q58 -15 58 -51q0 -27 -25 -27h-403q-35 0 -35 43q0 57 76 57h63v1223h-104q-35 0 -35 43
q0 57 74 57h364q25 0 25 -26q0 -36 -58 -51l-102 -25v-526h788v528h-114q-35 0 -35 43q0 57 74 57h364q23 0 23 -23q0 -41 -49 -52l-99 -27v-1219l99 -26q49 -12 49 -49q0 -27 -23 -27h-403q-35 0 -35 43z" />
    <glyph glyph-name="uni1E2B" unicode="&#x1e2b;" horiz-adv-x="1284" 
d="M676 -287q76 0 129 46t76 122l94 -33q-35 -125 -115 -185t-184.5 -60t-184 60.5t-114.5 184.5l94 33q23 -76 76 -122t129 -46zM866 96h64v600q0 100 -58.5 161t-152.5 61q-178 0 -326 -164v-658l99 -22q55 -11 55 -49q0 -25 -25 -25h-385q-33 0 -33 41q0 55 72 55h64
v1262h-103q-33 0 -33 41q0 55 72 55h211v-590l6 -2q170 160 357 160q145 0 239 -85t94 -230v-611l99 -22q55 -11 55 -49q0 -25 -25 -25h-385q-33 0 -32 41q0 55 71 55z" />
    <glyph glyph-name="uni1E36" unicode="&#x1e36;" horiz-adv-x="1226" 
d="M594 -236q0 43 29.5 73t71.5 30t71 -30t29 -73t-30 -71.5t-71 -28.5t-70.5 28.5t-29.5 71.5zM147 0q-28 0 -28 31t18.5 45t59.5 22l67 13v1212h-106q-35 0 -35 43q0 57 74 57h372q25 0 25 -26q0 -39 -57 -51l-109 -25v-1210h645l27 129q16 84 57 84q31 0 31 -31v-293
h-1041z" />
    <glyph glyph-name="uni1E37" unicode="&#x1e37;" horiz-adv-x="606" 
d="M221 -236q0 43 30 73t72 30t70.5 -30t28.5 -73t-30 -71.5t-70.5 -28.5t-70.5 28.5t-30 71.5zM180 1454h217v-1358l99 -22q55 -11 55 -49q0 -25 -25 -25h-385q-32 0 -32 41q0 55 71 55h64v1262h-103q-33 0 -32 41q0 55 71 55z" />
    <glyph glyph-name="uni1E38" unicode="&#x1e38;" horiz-adv-x="1230" 
d="M600 -236q0 43 29.5 73t71.5 30t71 -30t29 -73t-30 -71.5t-71 -28.5t-70.5 28.5t-29.5 71.5zM147 0q-28 0 -28 31t18.5 45t59.5 22l67 13v1212h-106q-35 0 -35 43q0 57 74 57h372q25 0 25 -26q0 -39 -57 -51l-109 -25v-1210h645l27 129q16 84 57 84q31 0 31 -31v-293
h-1041zM72 1706h577v-113h-577v113z" />
    <glyph glyph-name="uni1E39" unicode="&#x1e39;" horiz-adv-x="585" 
d="M211 -236q0 43 29.5 73t71.5 30t71 -30t29 -73t-30 -71.5t-71 -28.5t-70.5 28.5t-29.5 71.5zM96 1399q0 55 72 55h217v-1358l98 -22q56 -12 56 -49q0 -25 -25 -25h-385q-33 0 -33 41q0 55 72 55h63v1262h-102q-33 0 -33 41zM-2 1745h577v-113h-577v113z" />
    <glyph glyph-name="uni1E3A" unicode="&#x1e3a;" horiz-adv-x="1226" 
d="M233 -180h897v-109h-897v109zM147 0q-28 0 -28 31t18.5 45t59.5 22l67 13v1212h-106q-35 0 -35 43q0 57 74 57h372q25 0 25 -26q0 -39 -57 -51l-109 -25v-1210h645l27 129q16 84 57 84q31 0 31 -31v-293h-1041z" />
    <glyph glyph-name="uni1E3B" unicode="&#x1e3b;" horiz-adv-x="651" 
d="M4 -180h649v-109h-649v109zM119 1399q0 55 71 55h218v-1358l98 -22q55 -11 55 -49q0 -25 -24 -25h-385q-33 0 -33 41q0 55 71 55h64v1262h-102q-33 0 -33 41z" />
    <glyph glyph-name="uni1E42" unicode="&#x1e42;" horiz-adv-x="2113" 
d="M942 -236q0 43 29.5 73t71.5 30t71 -30t29 -73t-30 -71.5t-71 -28.5t-70.5 28.5t-29.5 71.5zM1591 43q0 57 76 57h90l-229 1076q-19 78 -19 131h-10q-5 -28 -31 -131l-331 -1176h-191l-356 1176q-22 73 -31 131h-10q0 -53 -17 -131l-210 -1074l116 -24q57 -10 58 -49
q0 -29 -23 -29h-383q-35 0 -35 43q0 57 76 57h66l241 1213l-67 10q-76 12 -76 63q0 37 29 37h360l328 -1083q31 -105 41 -219h12q9 100 39 219l307 1083h361q29 0 28 -37q0 -51 -76 -63l-67 -10l262 -1211l90 -20q55 -12 55 -51q0 -31 -22 -31h-416q-35 0 -35 43z" />
    <glyph glyph-name="uni1E43" unicode="&#x1e43;" horiz-adv-x="1853" 
d="M844 -236q0 43 29.5 73t71.5 30t70.5 -30t28.5 -73t-29.5 -71.5t-70.5 -28.5t-70.5 28.5t-29.5 71.5zM678 915q-143 0 -291 -155v-666l98 -20q51 -10 52 -49q0 -25 -23 -25h-383q-33 0 -33 41q0 55 72 55h63v809h-102q-33 0 -33 41q0 55 72 55h209v-139h6
q178 160 306 160t202 -44t106 -128q84 78 170 125t203 47t203 -80t86 -227v-621l94 -20q53 -10 53 -49q0 -25 -24 -25h-379q-33 0 -33 41q0 55 72 55h63v606q0 104 -52 158.5t-142 54.5q-138 0 -289 -153v-668l96 -20q53 -10 54 -49q0 -25 -25 -25h-379q-33 0 -33 41
q0 55 72 55h61v606q0 104 -51 158.5t-141 54.5z" />
    <glyph glyph-name="uni1E44" unicode="&#x1e44;" horiz-adv-x="1613" 
d="M1065 1366q0 57 74 57h338q23 0 22 -26q0 -38 -59 -54l-88 -22v-1321h-154l-713 1028q-51 74 -96 180v-1106l109 -24q55 -11 55 -51q0 -27 -23 -27h-376q-35 0 -35 43q0 57 76 57h65v1213l-65 10q-76 11 -76 63q0 37 31 37h262l700 -1009q59 -86 111 -203v1112h-123
q-35 0 -35 43zM705 1673q0 43 29.5 72t70.5 29t70.5 -29t29.5 -72t-29.5 -71.5t-70.5 -28.5t-70.5 28.5t-29.5 71.5z" />
    <glyph glyph-name="uni1E45" unicode="&#x1e45;" horiz-adv-x="1277" 
d="M788 41q0 55 72 55h64v598q0 100 -59 160.5t-153 60.5q-178 0 -325 -163v-656l98 -22q56 -12 56 -49q0 -25 -25 -25h-385q-33 0 -33 41q0 55 72 55h63v809h-102q-33 0 -33 41q0 55 72 55h209v-143h6q174 164 358 164q145 0 239.5 -85t94.5 -230v-611l99 -22
q55 -12 55 -49q0 -25 -25 -25h-385q-33 0 -33 41zM526 1231q0 43 30 71.5t71 28.5t70.5 -28.5t29.5 -71.5t-29.5 -72t-70.5 -29t-71 29t-30 72z" />
    <glyph glyph-name="uni1E46" unicode="&#x1e46;" horiz-adv-x="1613" 
d="M715 -236q0 43 29.5 73t71.5 30t70.5 -30t28.5 -73t-29.5 -71.5t-70.5 -28.5t-70.5 28.5t-29.5 71.5zM1065 1366q0 57 74 57h338q23 0 22 -26q0 -38 -59 -54l-88 -22v-1321h-154l-713 1028q-51 74 -96 180v-1106l109 -24q55 -11 55 -51q0 -27 -23 -27h-376q-35 0 -35 43
q0 57 76 57h65v1213l-65 10q-76 11 -76 63q0 37 31 37h262l700 -1009q59 -86 111 -203v1112h-123q-35 0 -35 43z" />
    <glyph glyph-name="uni1E47" unicode="&#x1e47;" horiz-adv-x="1277" 
d="M561 -236q0 43 30 73t72 30t70.5 -30t28.5 -73t-30 -71.5t-70.5 -28.5t-70.5 28.5t-30 71.5zM788 41q0 55 72 55h64v598q0 100 -59 160.5t-153 60.5q-178 0 -325 -163v-656l98 -22q56 -12 56 -49q0 -25 -25 -25h-385q-33 0 -33 41q0 55 72 55h63v809h-102q-33 0 -33 41
q0 55 72 55h209v-143h6q174 164 358 164q145 0 239.5 -85t94.5 -230v-611l99 -22q55 -12 55 -49q0 -25 -25 -25h-385q-33 0 -33 41z" />
    <glyph glyph-name="uni1E48" unicode="&#x1e48;" horiz-adv-x="1613" 
d="M430 -180h774v-109h-774v109zM1065 1366q0 57 74 57h338q23 0 22 -26q0 -38 -59 -54l-88 -22v-1321h-154l-713 1028q-51 74 -96 180v-1106l109 -24q55 -11 55 -51q0 -27 -23 -27h-376q-35 0 -35 43q0 57 76 57h65v1213l-65 10q-76 11 -76 63q0 37 31 37h262l700 -1009
q59 -86 111 -203v1112h-123q-35 0 -35 43z" />
    <glyph glyph-name="uni1E49" unicode="&#x1e49;" horiz-adv-x="1277" 
d="M258 -180h774v-109h-774v109zM788 41q0 55 72 55h64v598q0 100 -59 160.5t-153 60.5q-178 0 -325 -163v-656l98 -22q56 -12 56 -49q0 -25 -25 -25h-385q-33 0 -33 41q0 55 72 55h63v809h-102q-33 0 -33 41q0 55 72 55h209v-143h6q174 164 358 164q145 0 239.5 -85
t94.5 -230v-611l99 -22q55 -12 55 -49q0 -25 -25 -25h-385q-33 0 -33 41z" />
    <glyph glyph-name="uni1E5A" unicode="&#x1e5a;" horiz-adv-x="1368" 
d="M596 -236q0 43 29.5 73t71.5 30t71 -30t29 -73t-30 -71.5t-71 -28.5t-70.5 28.5t-29.5 71.5zM729 770q145 0 221 70.5t76 202t-76 203t-221 71.5h-301v-547h301zM119 1394q0 28 28 29h590q211 0 334 -93.5t123 -285.5t-123 -284t-334 -92h-110l540 -570l103 -20
q57 -12 57 -51q0 -27 -22 -27h-271l-606 664v-562l100 -24q58 -15 58 -51q0 -27 -25 -27h-403q-35 0 -35 43q0 57 76 57h65v1219l-67 10q-41 12 -59.5 24.5t-18.5 40.5z" />
    <glyph glyph-name="uni1E5B" unicode="&#x1e5b;" horiz-adv-x="845" 
d="M209 -236q0 43 29.5 73t71.5 30t71 -30t29 -73t-30 -71.5t-71 -28.5t-70.5 28.5t-29.5 71.5zM731 1022q88 0 88 -83q0 -40 -26 -69q-215 0 -404 -182v-592l98 -22q56 -12 56 -49q0 -25 -25 -25h-385q-33 0 -33 41q0 55 72 55h64v809h-103q-33 0 -33 41q0 55 72 55h209
v-202h6q78 94 172 158.5t172 64.5z" />
    <glyph glyph-name="uni1E5C" unicode="&#x1e5c;" horiz-adv-x="1368" 
d="M596 -236q0 43 29.5 73t71.5 30t71 -30t29 -73t-30 -71.5t-71 -28.5t-70.5 28.5t-29.5 71.5zM729 770q145 0 221 70.5t76 202t-76 203t-221 71.5h-301v-547h301zM119 1394q0 28 28 29h590q211 0 334 -93.5t123 -285.5t-123 -284t-334 -92h-110l540 -570l103 -20
q57 -12 57 -51q0 -27 -22 -27h-271l-606 664v-562l100 -24q58 -15 58 -51q0 -27 -25 -27h-403q-35 0 -35 43q0 57 76 57h65v1219l-67 10q-41 12 -59.5 24.5t-18.5 40.5zM373 1706h577v-113h-577v113z" />
    <glyph glyph-name="uni1E5D" unicode="&#x1e5d;" horiz-adv-x="847" 
d="M219 -236q0 43 29.5 73t71.5 30t71 -30t29 -73t-30 -71.5t-70.5 -28.5t-70.5 28.5t-30 71.5zM733 1022q88 0 88 -83q0 -40 -26 -69q-215 0 -404 -182v-592l98 -22q56 -12 56 -49q0 -25 -25 -25h-385q-33 0 -33 41q0 55 72 55h64v809h-103q-33 0 -33 41q0 55 72 55h209
v-202h6q78 94 172 158.5t172 64.5zM145 1303h578v-113h-578v113z" />
    <glyph glyph-name="uni1E5E" unicode="&#x1e5e;" horiz-adv-x="1368" 
d="M330 -180h774v-109h-774v109zM729 770q145 0 221 70.5t76 202t-76 203t-221 71.5h-301v-547h301zM119 1394q0 28 28 29h590q211 0 334 -93.5t123 -285.5t-123 -284t-334 -92h-110l540 -570l103 -20q57 -12 57 -51q0 -27 -22 -27h-271l-606 664v-562l100 -24
q58 -15 58 -51q0 -27 -25 -27h-403q-35 0 -35 43q0 57 76 57h65v1219l-67 10q-41 12 -59.5 24.5t-18.5 40.5z" />
    <glyph glyph-name="uni1E5F" unicode="&#x1e5f;" horiz-adv-x="874" 
d="M104 -180h701v-109h-701v109zM760 1022q88 0 88 -84q0 -41 -27 -68q-215 0 -403 -182v-592l98 -22q55 -11 55 -49q0 -25 -24 -25h-385q-33 0 -33 41q0 55 72 55h63v809h-102q-33 0 -33 41q0 55 72 55h209v-202h6q78 94 172 158.5t172 64.5z" />
    <glyph glyph-name="uni1E60" unicode="&#x1e60;" horiz-adv-x="1218" 
d="M106 365q0 30 36 30q44 0 59 -84l26 -131q125 -92 387 -92q124 0 228 56.5t104 181.5q0 80 -40 134t-122 99t-267 120t-294.5 170t-109.5 259t137 252t334 88q129 0 253 -39t203 -106v-242q0 -31 -28 -31t-42 17.5t-24 66.5l-26 129q-117 92 -326 92q-137 0 -226 -54
t-89 -167q0 -138 123.5 -200t289.5 -134q145 -59 282.5 -146t137.5 -282q0 -196 -144.5 -286.5t-369.5 -90.5q-125 0 -267.5 37t-224.5 101v252zM487 1673q0 43 30 72t71 29t70.5 -29t29.5 -72t-29.5 -71.5t-70.5 -28.5t-71 28.5t-30 71.5z" />
    </font>
</defs>
</svg>
